<?xml version="1.0" encoding="utf-8" standalone="no"?>
<!DOCTYPE svg PUBLIC "-//W3C//DTD SVG 1.1//EN"
  "http://www.w3.org/Graphics/SVG/1.1/DTD/svg11.dtd">
<svg xmlns:xlink="http://www.w3.org/1999/xlink" width="1080pt" height="576pt" viewBox="0 0 1080 576" xmlns="http://www.w3.org/2000/svg" version="1.1">
 <metadata>
  <rdf:RDF xmlns:dc="http://purl.org/dc/elements/1.1/" xmlns:cc="http://creativecommons.org/ns#" xmlns:rdf="http://www.w3.org/1999/02/22-rdf-syntax-ns#">
   <cc:Work>
    <dc:type rdf:resource="http://purl.org/dc/dcmitype/StillImage"/>
    <dc:date>2024-11-12T22:28:12.776991</dc:date>
    <dc:format>image/svg+xml</dc:format>
    <dc:creator>
     <cc:Agent>
      <dc:title>Matplotlib v3.9.2, https://matplotlib.org/</dc:title>
     </cc:Agent>
    </dc:creator>
   </cc:Work>
  </rdf:RDF>
 </metadata>
 <defs>
  <style type="text/css">*{stroke-linejoin: round; stroke-linecap: butt}</style>
 </defs>
 <g id="figure_1">
  <g id="patch_1">
   <path d="M 0 576 
L 1080 576 
L 1080 0 
L 0 0 
z
" style="fill: #ffffff"/>
  </g>
  <g id="axes_1">
   <g id="patch_2">
    <path d="M 135 512.64 
L 972 512.64 
L 972 69.12 
L 135 69.12 
z
" style="fill: #ffffff"/>
   </g>
   <g id="matplotlib.axis_1">
    <g id="xtick_1">
     <g id="line2d_1">
      <path d="M 135 512.64 
L 135 69.12 
" clip-path="url(#p676177338b)" style="fill: none; stroke: #a9a9a9; stroke-opacity: 0.7; stroke-width: 1.5; stroke-linecap: round"/>
     </g>
     <g id="text_1">
      <!-- 0일 -->
      <g style="fill: #262626" transform="translate(124.144531 532.769063) scale(0.14 -0.14)">
       <defs>
        <path id="MalgunGothic-30" d="M 278 2206 
Q 278 3425 675 4050 
Q 1072 4675 1819 4675 
Q 3253 4675 3253 2319 
Q 3253 1156 2854 539 
Q 2456 -78 1716 -78 
Q 1016 -78 647 520 
Q 278 1119 278 2206 
z
M 784 2231 
Q 784 344 1769 344 
Q 2747 344 2747 2259 
Q 2747 4250 1794 4250 
Q 784 4250 784 2231 
z
" transform="scale(0.015625)"/>
        <path id="MalgunGothic-c77c" d="M 4947 2363 
L 4947 5466 
L 5422 5466 
L 5422 2363 
L 4947 2363 
z
M 2419 2578 
Q 1738 2578 1314 2970 
Q 891 3363 891 3969 
Q 891 4572 1314 4961 
Q 1738 5350 2419 5350 
Q 3097 5350 3523 4959 
Q 3950 4569 3950 3969 
Q 3950 3366 3522 2972 
Q 3094 2578 2419 2578 
z
M 2419 4947 
Q 1931 4947 1643 4680 
Q 1356 4413 1356 3969 
Q 1356 3522 1643 3248 
Q 1931 2975 2419 2975 
Q 2906 2975 3193 3248 
Q 3481 3522 3481 3969 
Q 3481 4413 3193 4680 
Q 2906 4947 2419 4947 
z
M 1703 -422 
L 1703 1038 
L 4959 1038 
L 4959 1613 
L 1703 1613 
L 1703 2028 
L 5422 2028 
L 5422 634 
L 2163 634 
L 2163 -6 
L 5588 -6 
L 5588 -422 
L 1703 -422 
z
" transform="scale(0.015625)"/>
       </defs>
       <use xlink:href="#MalgunGothic-30"/>
       <use xlink:href="#MalgunGothic-c77c" x="55.078125"/>
      </g>
     </g>
    </g>
    <g id="xtick_2">
     <g id="line2d_2">
      <path d="M 194.964179 512.64 
L 194.964179 69.12 
" clip-path="url(#p676177338b)" style="fill: none; stroke: #a9a9a9; stroke-opacity: 0.7; stroke-width: 1.5; stroke-linecap: round"/>
     </g>
     <g id="text_2">
      <!-- 1일 -->
      <g style="fill: #262626" transform="translate(184.10871 532.769063) scale(0.14 -0.14)">
       <defs>
        <path id="MalgunGothic-31" d="M 2231 0 
L 1734 0 
L 1734 3972 
Q 1591 3828 1266 3661 
Q 941 3494 672 3428 
L 672 3959 
Q 1016 4056 1409 4275 
Q 1803 4494 2031 4700 
L 2231 4700 
L 2231 0 
z
" transform="scale(0.015625)"/>
       </defs>
       <use xlink:href="#MalgunGothic-31"/>
       <use xlink:href="#MalgunGothic-c77c" x="55.078125"/>
      </g>
     </g>
    </g>
    <g id="xtick_3">
     <g id="line2d_3">
      <path d="M 254.928358 512.64 
L 254.928358 69.12 
" clip-path="url(#p676177338b)" style="fill: none; stroke: #a9a9a9; stroke-opacity: 0.7; stroke-width: 1.5; stroke-linecap: round"/>
     </g>
     <g id="text_3">
      <!-- 2일 -->
      <g style="fill: #262626" transform="translate(244.072889 532.769063) scale(0.14 -0.14)">
       <defs>
        <path id="MalgunGothic-32" d="M 2519 3372 
Q 2519 3784 2275 4018 
Q 2031 4253 1628 4253 
Q 1341 4253 1053 4104 
Q 766 3956 534 3697 
L 534 4234 
Q 981 4675 1691 4675 
Q 2281 4675 2642 4334 
Q 3003 3994 3003 3416 
Q 3003 2919 2772 2545 
Q 2541 2172 1984 1775 
Q 1459 1406 1254 1215 
Q 1050 1025 967 854 
Q 884 684 884 450 
L 3116 450 
L 3116 0 
L 356 0 
L 356 225 
Q 356 603 461 870 
Q 566 1138 811 1392 
Q 1056 1647 1597 2022 
Q 2091 2363 2305 2670 
Q 2519 2978 2519 3372 
z
" transform="scale(0.015625)"/>
       </defs>
       <use xlink:href="#MalgunGothic-32"/>
       <use xlink:href="#MalgunGothic-c77c" x="55.078125"/>
      </g>
     </g>
    </g>
    <g id="xtick_4">
     <g id="line2d_4">
      <path d="M 314.892537 512.64 
L 314.892537 69.12 
" clip-path="url(#p676177338b)" style="fill: none; stroke: #a9a9a9; stroke-opacity: 0.7; stroke-width: 1.5; stroke-linecap: round"/>
     </g>
     <g id="text_4">
      <!-- 3일 -->
      <g style="fill: #262626" transform="translate(304.037069 532.769063) scale(0.14 -0.14)">
       <defs>
        <path id="MalgunGothic-33" d="M 416 719 
Q 891 344 1478 344 
Q 1959 344 2254 587 
Q 2550 831 2550 1247 
Q 2550 2169 1253 2169 
L 872 2169 
L 872 2591 
L 1234 2591 
Q 2388 2591 2388 3453 
Q 2388 4250 1509 4250 
Q 1022 4250 594 3916 
L 594 4413 
Q 1031 4675 1634 4675 
Q 2184 4675 2539 4372 
Q 2894 4069 2894 3581 
Q 2894 2678 1972 2409 
L 1972 2400 
Q 2469 2356 2764 2053 
Q 3059 1750 3059 1300 
Q 3059 672 2604 297 
Q 2150 -78 1450 -78 
Q 806 -78 416 169 
L 416 719 
z
" transform="scale(0.015625)"/>
       </defs>
       <use xlink:href="#MalgunGothic-33"/>
       <use xlink:href="#MalgunGothic-c77c" x="55.078125"/>
      </g>
     </g>
    </g>
    <g id="xtick_5">
     <g id="line2d_5">
      <path d="M 374.856716 512.64 
L 374.856716 69.12 
" clip-path="url(#p676177338b)" style="fill: none; stroke: #a9a9a9; stroke-opacity: 0.7; stroke-width: 1.5; stroke-linecap: round"/>
     </g>
     <g id="text_5">
      <!-- 4일 -->
      <g style="fill: #262626" transform="translate(364.001248 532.769063) scale(0.14 -0.14)">
       <defs>
        <path id="MalgunGothic-34" d="M 2703 4600 
L 2703 1563 
L 3309 1563 
L 3309 1113 
L 2703 1113 
L 2703 0 
L 2213 0 
L 2213 1113 
L 50 1113 
L 50 1534 
Q 728 2297 1295 3109 
Q 1863 3922 2172 4600 
L 2703 4600 
z
M 625 1563 
L 2213 1563 
L 2213 3831 
Q 1613 2788 959 1981 
L 625 1563 
z
" transform="scale(0.015625)"/>
       </defs>
       <use xlink:href="#MalgunGothic-34"/>
       <use xlink:href="#MalgunGothic-c77c" x="55.078125"/>
      </g>
     </g>
    </g>
    <g id="xtick_6">
     <g id="line2d_6">
      <path d="M 434.820896 512.64 
L 434.820896 69.12 
" clip-path="url(#p676177338b)" style="fill: none; stroke: #a9a9a9; stroke-opacity: 0.7; stroke-width: 1.5; stroke-linecap: round"/>
     </g>
     <g id="text_6">
      <!-- 5일 -->
      <g style="fill: #262626" transform="translate(423.965427 532.769063) scale(0.14 -0.14)">
       <defs>
        <path id="MalgunGothic-35" d="M 3072 1403 
Q 3072 722 2636 322 
Q 2200 -78 1469 -78 
Q 828 -78 516 113 
L 516 650 
Q 994 344 1475 344 
Q 1969 344 2270 630 
Q 2572 916 2572 1372 
Q 2572 1838 2265 2092 
Q 1959 2347 1381 2347 
Q 994 2347 603 2300 
L 759 4600 
L 2869 4600 
L 2869 4147 
L 1206 4147 
L 1106 2763 
Q 1347 2784 1547 2784 
Q 2263 2784 2667 2414 
Q 3072 2044 3072 1403 
z
" transform="scale(0.015625)"/>
       </defs>
       <use xlink:href="#MalgunGothic-35"/>
       <use xlink:href="#MalgunGothic-c77c" x="55.078125"/>
      </g>
     </g>
    </g>
    <g id="xtick_7">
     <g id="line2d_7">
      <path d="M 494.785075 512.64 
L 494.785075 69.12 
" clip-path="url(#p676177338b)" style="fill: none; stroke: #a9a9a9; stroke-opacity: 0.7; stroke-width: 1.5; stroke-linecap: round"/>
     </g>
     <g id="text_7">
      <!-- 6일 -->
      <g style="fill: #262626" transform="translate(483.929606 532.769063) scale(0.14 -0.14)">
       <defs>
        <path id="MalgunGothic-36" d="M 2981 4069 
Q 2619 4250 2228 4250 
Q 1591 4250 1228 3689 
Q 866 3128 869 2213 
L 884 2213 
Q 1203 2872 1938 2872 
Q 2547 2872 2903 2478 
Q 3259 2084 3259 1450 
Q 3259 797 2857 359 
Q 2456 -78 1825 -78 
Q 1116 -78 736 478 
Q 356 1034 356 2019 
Q 356 3181 847 3928 
Q 1338 4675 2222 4675 
Q 2700 4675 2981 4544 
L 2981 4069 
z
M 906 1506 
Q 906 1022 1165 683 
Q 1425 344 1844 344 
Q 2247 344 2498 645 
Q 2750 947 2750 1388 
Q 2750 1888 2509 2167 
Q 2269 2447 1838 2447 
Q 1444 2447 1175 2173 
Q 906 1900 906 1506 
z
" transform="scale(0.015625)"/>
       </defs>
       <use xlink:href="#MalgunGothic-36"/>
       <use xlink:href="#MalgunGothic-c77c" x="55.078125"/>
      </g>
     </g>
    </g>
    <g id="xtick_8">
     <g id="line2d_8">
      <path d="M 554.749254 512.64 
L 554.749254 69.12 
" clip-path="url(#p676177338b)" style="fill: none; stroke: #a9a9a9; stroke-opacity: 0.7; stroke-width: 1.5; stroke-linecap: round"/>
     </g>
     <g id="text_8">
      <!-- 7일 -->
      <g style="fill: #262626" transform="translate(543.893785 532.769063) scale(0.14 -0.14)">
       <defs>
        <path id="MalgunGothic-37" d="M 3213 4297 
Q 2478 3006 2064 1918 
Q 1650 831 1550 0 
L 1009 0 
Q 1084 531 1290 1176 
Q 1497 1822 1815 2537 
Q 2134 3253 2631 4147 
L 291 4147 
L 291 4600 
L 3213 4600 
L 3213 4297 
z
" transform="scale(0.015625)"/>
       </defs>
       <use xlink:href="#MalgunGothic-37"/>
       <use xlink:href="#MalgunGothic-c77c" x="55.078125"/>
      </g>
     </g>
    </g>
    <g id="xtick_9">
     <g id="line2d_9">
      <path d="M 614.713433 512.64 
L 614.713433 69.12 
" clip-path="url(#p676177338b)" style="fill: none; stroke: #a9a9a9; stroke-opacity: 0.7; stroke-width: 1.5; stroke-linecap: round"/>
     </g>
     <g id="text_9">
      <!-- 8일 -->
      <g style="fill: #262626" transform="translate(603.857964 532.769063) scale(0.14 -0.14)">
       <defs>
        <path id="MalgunGothic-38" d="M 303 1281 
Q 303 1669 539 2011 
Q 775 2353 1153 2494 
Q 856 2647 675 2915 
Q 494 3184 494 3500 
Q 494 3828 659 4098 
Q 825 4369 1122 4522 
Q 1419 4675 1778 4675 
Q 2334 4675 2700 4342 
Q 3066 4009 3066 3500 
Q 3066 3181 2881 2914 
Q 2697 2647 2413 2494 
Q 2788 2350 3022 2009 
Q 3256 1669 3256 1281 
Q 3256 672 2843 297 
Q 2431 -78 1778 -78 
Q 1131 -78 717 301 
Q 303 681 303 1281 
z
M 809 1328 
Q 809 878 1081 611 
Q 1353 344 1781 344 
Q 2206 344 2482 619 
Q 2759 894 2759 1328 
Q 2759 1731 2482 2011 
Q 2206 2291 1781 2291 
Q 1372 2291 1090 2020 
Q 809 1750 809 1328 
z
M 1003 3459 
Q 1003 3125 1234 2900 
Q 1466 2675 1781 2675 
Q 2097 2675 2330 2900 
Q 2563 3125 2563 3459 
Q 2563 3803 2341 4026 
Q 2119 4250 1781 4250 
Q 1450 4250 1226 4029 
Q 1003 3809 1003 3459 
z
" transform="scale(0.015625)"/>
       </defs>
       <use xlink:href="#MalgunGothic-38"/>
       <use xlink:href="#MalgunGothic-c77c" x="55.078125"/>
      </g>
     </g>
    </g>
    <g id="xtick_10">
     <g id="line2d_10">
      <path d="M 674.677612 512.64 
L 674.677612 69.12 
" clip-path="url(#p676177338b)" style="fill: none; stroke: #a9a9a9; stroke-opacity: 0.7; stroke-width: 1.5; stroke-linecap: round"/>
     </g>
     <g id="text_10">
      <!-- 9일 -->
      <g style="fill: #262626" transform="translate(663.822143 532.769063) scale(0.14 -0.14)">
       <defs>
        <path id="MalgunGothic-39" d="M 556 563 
Q 941 344 1366 344 
Q 1994 344 2347 855 
Q 2700 1366 2700 2313 
Q 2694 2306 2688 2313 
Q 2388 1713 1653 1713 
Q 1059 1713 682 2120 
Q 306 2528 306 3144 
Q 306 3806 711 4240 
Q 1116 4675 1772 4675 
Q 2466 4675 2833 4131 
Q 3200 3588 3200 2578 
Q 3200 1319 2717 620 
Q 2234 -78 1344 -78 
Q 881 -78 556 78 
L 556 563 
z
M 813 3219 
Q 813 2741 1063 2450 
Q 1313 2159 1759 2159 
Q 2147 2159 2406 2417 
Q 2666 2675 2666 3047 
Q 2666 3556 2411 3903 
Q 2156 4250 1725 4250 
Q 1322 4250 1067 3948 
Q 813 3647 813 3219 
z
" transform="scale(0.015625)"/>
       </defs>
       <use xlink:href="#MalgunGothic-39"/>
       <use xlink:href="#MalgunGothic-c77c" x="55.078125"/>
      </g>
     </g>
    </g>
    <g id="xtick_11">
     <g id="line2d_11">
      <path d="M 734.641791 512.64 
L 734.641791 69.12 
" clip-path="url(#p676177338b)" style="fill: none; stroke: #a9a9a9; stroke-opacity: 0.7; stroke-width: 1.5; stroke-linecap: round"/>
     </g>
     <g id="text_11">
      <!-- 10일 -->
      <g style="fill: #262626" transform="translate(719.930854 532.769063) scale(0.14 -0.14)">
       <use xlink:href="#MalgunGothic-31"/>
       <use xlink:href="#MalgunGothic-30" x="55.078125"/>
       <use xlink:href="#MalgunGothic-c77c" x="110.15625"/>
      </g>
     </g>
    </g>
    <g id="xtick_12">
     <g id="line2d_12">
      <path d="M 794.60597 512.64 
L 794.60597 69.12 
" clip-path="url(#p676177338b)" style="fill: none; stroke: #a9a9a9; stroke-opacity: 0.7; stroke-width: 1.5; stroke-linecap: round"/>
     </g>
     <g id="text_12">
      <!-- 11일 -->
      <g style="fill: #262626" transform="translate(779.895033 532.769063) scale(0.14 -0.14)">
       <use xlink:href="#MalgunGothic-31"/>
       <use xlink:href="#MalgunGothic-31" x="55.078125"/>
       <use xlink:href="#MalgunGothic-c77c" x="110.15625"/>
      </g>
     </g>
    </g>
    <g id="xtick_13">
     <g id="line2d_13">
      <path d="M 854.570149 512.64 
L 854.570149 69.12 
" clip-path="url(#p676177338b)" style="fill: none; stroke: #a9a9a9; stroke-opacity: 0.7; stroke-width: 1.5; stroke-linecap: round"/>
     </g>
     <g id="text_13">
      <!-- 12일 -->
      <g style="fill: #262626" transform="translate(839.859212 532.769063) scale(0.14 -0.14)">
       <use xlink:href="#MalgunGothic-31"/>
       <use xlink:href="#MalgunGothic-32" x="55.078125"/>
       <use xlink:href="#MalgunGothic-c77c" x="110.15625"/>
      </g>
     </g>
    </g>
    <g id="xtick_14">
     <g id="line2d_14">
      <path d="M 914.534328 512.64 
L 914.534328 69.12 
" clip-path="url(#p676177338b)" style="fill: none; stroke: #a9a9a9; stroke-opacity: 0.7; stroke-width: 1.5; stroke-linecap: round"/>
     </g>
     <g id="text_14">
      <!-- 13일 -->
      <g style="fill: #262626" transform="translate(899.823391 532.769063) scale(0.14 -0.14)">
       <use xlink:href="#MalgunGothic-31"/>
       <use xlink:href="#MalgunGothic-33" x="55.078125"/>
       <use xlink:href="#MalgunGothic-c77c" x="110.15625"/>
      </g>
     </g>
    </g>
    <g id="text_15">
     <!-- 상대 시간(일) -->
     <g style="fill: #262626" transform="translate(505.8125 552.57125) scale(0.16 -0.16)">
      <defs>
       <path id="MalgunGothic-c0c1" d="M 5125 3391 
L 5125 1991 
L 4659 1991 
L 4659 5466 
L 5125 5466 
L 5125 3816 
L 6034 3816 
L 6034 3391 
L 5125 3391 
z
M 3603 2316 
Q 3206 2528 2778 2934 
Q 2350 3341 2188 3681 
Q 2022 3291 1609 2852 
Q 1197 2413 750 2163 
L 409 2484 
Q 1072 2806 1512 3397 
Q 1953 3988 1953 4628 
L 1953 5259 
L 2400 5259 
L 2400 4628 
Q 2400 4025 2845 3472 
Q 3291 2919 3909 2656 
L 3603 2316 
z
M 3263 -513 
Q 2322 -513 1811 -186 
Q 1300 141 1300 659 
Q 1300 1175 1812 1500 
Q 2325 1825 3263 1825 
Q 4203 1825 4715 1501 
Q 5228 1178 5228 659 
Q 5228 138 4717 -187 
Q 4206 -513 3263 -513 
z
M 3263 1428 
Q 2563 1428 2180 1215 
Q 1797 1003 1797 659 
Q 1797 309 2181 96 
Q 2566 -116 3263 -116 
Q 3969 -116 4353 98 
Q 4738 313 4738 659 
Q 4738 1000 4353 1214 
Q 3969 1428 3263 1428 
z
" transform="scale(0.015625)"/>
       <path id="MalgunGothic-b300" d="M 5069 -563 
L 5069 2572 
L 4294 2572 
L 4294 -378 
L 3834 -378 
L 3834 5344 
L 4294 5344 
L 4294 2988 
L 5069 2988 
L 5069 5466 
L 5538 5466 
L 5538 -563 
L 5069 -563 
z
M 3391 1153 
Q 2516 1063 825 1063 
L 825 4934 
L 3138 4934 
L 3138 4519 
L 1288 4519 
L 1288 1478 
L 1844 1478 
Q 2791 1478 3359 1550 
L 3391 1153 
z
" transform="scale(0.015625)"/>
       <path id="MalgunGothic-20" transform="scale(0.015625)"/>
       <path id="MalgunGothic-c2dc" d="M 4947 -563 
L 4947 5466 
L 5416 5466 
L 5416 -563 
L 4947 -563 
z
M 3769 966 
Q 3263 1353 2820 1939 
Q 2378 2525 2259 2950 
Q 2116 2463 1687 1872 
Q 1259 1281 756 891 
L 397 1203 
Q 1141 1703 1581 2479 
Q 2022 3256 2022 4063 
L 2022 5050 
L 2484 5050 
L 2484 4084 
Q 2484 3303 2920 2556 
Q 3356 1809 4097 1331 
L 3769 966 
z
" transform="scale(0.015625)"/>
       <path id="MalgunGothic-ac04" d="M 5125 3122 
L 5125 1063 
L 4659 1063 
L 4659 5466 
L 5125 5466 
L 5125 3541 
L 6034 3541 
L 6034 3122 
L 5125 3122 
z
M 3513 5100 
Q 3403 3872 2556 3011 
Q 1709 2150 794 1800 
L 469 2163 
Q 1344 2450 2087 3172 
Q 2831 3894 2963 4678 
L 831 4678 
L 831 5100 
L 3513 5100 
z
M 1459 -325 
L 1459 1509 
L 1925 1509 
L 1925 97 
L 5294 97 
L 5294 -325 
L 1459 -325 
z
" transform="scale(0.015625)"/>
       <path id="MalgunGothic-28" d="M 1438 -1044 
Q 447 88 447 1753 
Q 447 3431 1438 4600 
L 1888 4600 
Q 878 3372 878 1759 
Q 878 153 1881 -1044 
L 1438 -1044 
z
" transform="scale(0.015625)"/>
       <path id="MalgunGothic-29" d="M 81 -1044 
Q 1081 150 1081 1759 
Q 1081 3378 72 4600 
L 525 4600 
Q 1522 3431 1522 1753 
Q 1522 88 525 -1044 
L 81 -1044 
z
" transform="scale(0.015625)"/>
      </defs>
      <use xlink:href="#MalgunGothic-c0c1"/>
      <use xlink:href="#MalgunGothic-b300" x="100"/>
      <use xlink:href="#MalgunGothic-20" x="200"/>
      <use xlink:href="#MalgunGothic-c2dc" x="235.15625"/>
      <use xlink:href="#MalgunGothic-ac04" x="335.15625"/>
      <use xlink:href="#MalgunGothic-28" x="435.15625"/>
      <use xlink:href="#MalgunGothic-c77c" x="465.625"/>
      <use xlink:href="#MalgunGothic-29" x="565.625"/>
     </g>
    </g>
   </g>
   <g id="matplotlib.axis_2">
    <g id="ytick_1">
     <g id="text_16">
      <!-- 0 -->
      <g style="fill: #262626" transform="translate(117.789062 497.794531) scale(0.14 -0.14)">
       <use xlink:href="#MalgunGothic-30"/>
      </g>
     </g>
    </g>
    <g id="ytick_2">
     <g id="text_17">
      <!-- 500 -->
      <g style="fill: #262626" transform="translate(102.367188 447.394531) scale(0.14 -0.14)">
       <use xlink:href="#MalgunGothic-35"/>
       <use xlink:href="#MalgunGothic-30" x="55.078125"/>
       <use xlink:href="#MalgunGothic-30" x="110.15625"/>
      </g>
     </g>
    </g>
    <g id="ytick_3">
     <g id="text_18">
      <!-- 1000 -->
      <g style="fill: #262626" transform="translate(94.65625 396.994531) scale(0.14 -0.14)">
       <use xlink:href="#MalgunGothic-31"/>
       <use xlink:href="#MalgunGothic-30" x="55.078125"/>
       <use xlink:href="#MalgunGothic-30" x="110.15625"/>
       <use xlink:href="#MalgunGothic-30" x="165.234375"/>
      </g>
     </g>
    </g>
    <g id="ytick_4">
     <g id="text_19">
      <!-- 1500 -->
      <g style="fill: #262626" transform="translate(94.65625 346.594531) scale(0.14 -0.14)">
       <use xlink:href="#MalgunGothic-31"/>
       <use xlink:href="#MalgunGothic-35" x="55.078125"/>
       <use xlink:href="#MalgunGothic-30" x="110.15625"/>
       <use xlink:href="#MalgunGothic-30" x="165.234375"/>
      </g>
     </g>
    </g>
    <g id="ytick_5">
     <g id="text_20">
      <!-- 2000 -->
      <g style="fill: #262626" transform="translate(94.65625 296.194531) scale(0.14 -0.14)">
       <use xlink:href="#MalgunGothic-32"/>
       <use xlink:href="#MalgunGothic-30" x="55.078125"/>
       <use xlink:href="#MalgunGothic-30" x="110.15625"/>
       <use xlink:href="#MalgunGothic-30" x="165.234375"/>
      </g>
     </g>
    </g>
    <g id="ytick_6">
     <g id="text_21">
      <!-- 2500 -->
      <g style="fill: #262626" transform="translate(94.65625 245.794531) scale(0.14 -0.14)">
       <use xlink:href="#MalgunGothic-32"/>
       <use xlink:href="#MalgunGothic-35" x="55.078125"/>
       <use xlink:href="#MalgunGothic-30" x="110.15625"/>
       <use xlink:href="#MalgunGothic-30" x="165.234375"/>
      </g>
     </g>
    </g>
    <g id="ytick_7">
     <g id="text_22">
      <!-- 3000 -->
      <g style="fill: #262626" transform="translate(94.65625 195.394531) scale(0.14 -0.14)">
       <use xlink:href="#MalgunGothic-33"/>
       <use xlink:href="#MalgunGothic-30" x="55.078125"/>
       <use xlink:href="#MalgunGothic-30" x="110.15625"/>
       <use xlink:href="#MalgunGothic-30" x="165.234375"/>
      </g>
     </g>
    </g>
    <g id="ytick_8">
     <g id="text_23">
      <!-- 3500 -->
      <g style="fill: #262626" transform="translate(94.65625 144.994531) scale(0.14 -0.14)">
       <use xlink:href="#MalgunGothic-33"/>
       <use xlink:href="#MalgunGothic-35" x="55.078125"/>
       <use xlink:href="#MalgunGothic-30" x="110.15625"/>
       <use xlink:href="#MalgunGothic-30" x="165.234375"/>
      </g>
     </g>
    </g>
    <g id="ytick_9">
     <g id="text_24">
      <!-- 4000 -->
      <g style="fill: #262626" transform="translate(94.65625 94.594531) scale(0.14 -0.14)">
       <use xlink:href="#MalgunGothic-34"/>
       <use xlink:href="#MalgunGothic-30" x="55.078125"/>
       <use xlink:href="#MalgunGothic-30" x="110.15625"/>
       <use xlink:href="#MalgunGothic-30" x="165.234375"/>
      </g>
     </g>
    </g>
    <g id="text_25">
     <!-- 이산화탄소 -->
     <g style="fill: #262626" transform="translate(86.87375 330.88) rotate(-90) scale(0.16 -0.16)">
      <defs>
       <path id="MalgunGothic-c774" d="M 4947 -563 
L 4947 5466 
L 5416 5466 
L 5416 -563 
L 4947 -563 
z
M 2284 959 
Q 1597 959 1173 1514 
Q 750 2069 750 3016 
Q 750 3975 1169 4522 
Q 1588 5069 2284 5069 
Q 2978 5069 3403 4522 
Q 3828 3975 3828 3016 
Q 3828 2063 3401 1511 
Q 2975 959 2284 959 
z
M 2284 4653 
Q 1803 4653 1503 4204 
Q 1203 3756 1203 3016 
Q 1203 2278 1506 1826 
Q 1809 1375 2284 1375 
Q 2756 1375 3061 1828 
Q 3366 2281 3366 3016 
Q 3366 3759 3067 4206 
Q 2769 4653 2284 4653 
z
" transform="scale(0.015625)"/>
       <path id="MalgunGothic-c0b0" d="M 5125 3169 
L 5125 1081 
L 4659 1081 
L 4659 5466 
L 5125 5466 
L 5125 3584 
L 6034 3584 
L 6034 3169 
L 5125 3169 
z
M 3597 2081 
Q 3206 2294 2778 2731 
Q 2350 3169 2188 3525 
Q 2038 3125 1603 2642 
Q 1169 2159 750 1925 
L 409 2247 
Q 1041 2553 1492 3173 
Q 1944 3794 1953 4453 
L 1953 5228 
L 2400 5228 
L 2400 4453 
Q 2400 3841 2853 3259 
Q 3306 2678 3909 2419 
L 3597 2081 
z
M 1478 -353 
L 1478 1528 
L 1953 1528 
L 1953 72 
L 5325 72 
L 5325 -353 
L 1478 -353 
z
" transform="scale(0.015625)"/>
       <path id="MalgunGothic-d654" d="M 5228 2363 
L 5228 -563 
L 4763 -563 
L 4763 5466 
L 5228 5466 
L 5228 2778 
L 6156 2778 
L 6156 2363 
L 5228 2363 
z
M 2131 5441 
L 2591 5441 
L 2591 4653 
L 4159 4653 
L 4159 4238 
L 556 4238 
L 556 4653 
L 2131 4653 
L 2131 5441 
z
M 2591 1741 
L 2591 884 
Q 3688 900 4409 947 
L 4441 544 
Q 2791 447 359 447 
L 313 856 
Q 1141 856 2125 878 
L 2125 1734 
Q 1506 1791 1175 2092 
Q 844 2394 844 2828 
Q 844 3316 1250 3627 
Q 1656 3938 2363 3938 
Q 3059 3938 3465 3633 
Q 3872 3328 3872 2859 
Q 3872 2400 3536 2098 
Q 3200 1797 2591 1741 
z
M 2363 3541 
Q 1875 3541 1594 3342 
Q 1313 3144 1313 2828 
Q 1313 2513 1592 2319 
Q 1872 2125 2363 2125 
Q 2847 2125 3126 2320 
Q 3406 2516 3406 2828 
Q 3406 3144 3125 3342 
Q 2844 3541 2363 3541 
z
" transform="scale(0.015625)"/>
       <path id="MalgunGothic-d0c4" d="M 5125 3169 
L 5125 1125 
L 4659 1125 
L 4659 5466 
L 5125 5466 
L 5125 3584 
L 6034 3584 
L 6034 3169 
L 5125 3169 
z
M 1319 3431 
L 1319 2553 
Q 3244 2553 3872 2613 
L 3903 2209 
Q 3306 2138 850 2138 
L 850 5081 
L 3688 5081 
L 3688 4666 
L 1319 4666 
L 1319 3834 
L 3372 3834 
L 3372 3431 
L 1319 3431 
z
M 1459 -378 
L 1459 1606 
L 1925 1606 
L 1925 38 
L 5294 38 
L 5294 -378 
L 1459 -378 
z
" transform="scale(0.015625)"/>
       <path id="MalgunGothic-c18c" d="M 3194 3909 
Q 2963 3416 2330 2941 
Q 1697 2466 959 2259 
L 641 2631 
Q 1700 2872 2328 3497 
Q 2956 4122 2956 4666 
L 2956 4984 
L 3438 4984 
L 3438 4666 
Q 3438 4131 4069 3506 
Q 4700 2881 5759 2631 
L 5428 2266 
Q 4719 2481 4072 2957 
Q 3425 3434 3194 3909 
z
M 403 384 
L 403 800 
L 2963 800 
L 2963 2266 
L 3438 2266 
L 3438 800 
L 5997 800 
L 5997 384 
L 403 384 
z
" transform="scale(0.015625)"/>
      </defs>
      <use xlink:href="#MalgunGothic-c774"/>
      <use xlink:href="#MalgunGothic-c0b0" x="100"/>
      <use xlink:href="#MalgunGothic-d654" x="200"/>
      <use xlink:href="#MalgunGothic-d0c4" x="300"/>
      <use xlink:href="#MalgunGothic-c18c" x="400"/>
     </g>
    </g>
   </g>
   <g id="line2d_15">
    <path d="M 135 492.48 
L 139.997015 490.1616 
L 217.450746 452.7648 
L 222.447761 450.4464 
L 302.4 411.84 
L 307.397015 409.5216 
L 384.850746 372.1248 
L 389.847761 369.8064 
L 467.301493 332.4096 
L 472.298507 330.0912 
L 552.250746 291.4848 
L 557.247761 289.1664 
L 634.701493 251.7696 
L 639.698507 249.4512 
L 719.650746 210.8448 
L 724.647761 208.5264 
L 804.6 169.92 
L 809.597015 167.6016 
L 887.050746 130.2048 
L 892.047761 127.8864 
L 972 89.28 
L 972 89.28 
" clip-path="url(#p676177338b)" style="fill: none; stroke: #a9a9a9; stroke-opacity: 0.8; stroke-width: 3; stroke-linecap: round"/>
   </g>
   <g id="line2d_16">
    <path d="M 135 492.48 
L 137.498507 491.3712 
L 139.997015 490.1616 
L 142.495522 488.952 
L 144.99403 487.7424 
L 147.492537 486.5328 
L 149.991045 485.3232 
L 152.489552 484.1136 
L 154.98806 482.904 
L 157.486567 481.6944 
L 159.985075 480.4848 
L 162.483582 479.2752 
L 164.98209 478.0656 
L 167.480597 476.856 
L 169.979104 475.6464 
L 172.477612 474.4368 
L 174.976119 473.2272 
L 177.474627 472.1184 
L 179.973134 470.9088 
L 182.471642 469.6992 
L 184.970149 468.4896 
L 187.468657 467.28 
L 189.967164 466.0704 
L 192.465672 464.8608 
L 194.964179 463.6512 
L 197.462687 462.4416 
L 199.961194 461.232 
L 202.459701 460.0224 
L 204.958209 458.8128 
L 207.456716 457.6032 
L 209.955224 456.3936 
L 212.453731 455.184 
L 214.952239 453.9744 
L 217.450746 452.7648 
L 219.949254 451.656 
L 222.447761 450.4464 
L 224.946269 449.2368 
L 227.444776 448.0272 
L 229.943284 446.8176 
L 232.441791 445.608 
L 234.940299 444.3984 
L 237.438806 443.1888 
L 239.937313 441.9792 
L 242.435821 440.7696 
L 244.934328 439.56 
L 247.432836 438.3504 
L 249.931343 437.1408 
L 252.429851 435.9312 
L 254.928358 434.7216 
L 257.426866 433.512 
L 259.925373 432.3024 
L 262.423881 431.1936 
L 264.922388 429.984 
L 267.420896 428.7744 
L 269.919403 427.5648 
L 272.41791 426.3552 
L 274.916418 425.1456 
L 277.414925 423.936 
L 279.913433 422.7264 
L 282.41194 421.5168 
L 284.910448 420.3072 
L 287.408955 419.0976 
L 289.907463 417.888 
L 292.40597 416.6784 
L 294.904478 415.4688 
L 297.402985 414.2592 
L 299.901493 413.0496 
L 302.4 411.84 
L 304.898507 410.7312 
L 307.397015 409.5216 
L 309.895522 408.312 
L 312.39403 407.1024 
" clip-path="url(#p676177338b)" style="fill: none; stroke: #1f77b4; stroke-opacity: 0.9; stroke-width: 4; stroke-linecap: round"/>
   </g>
   <g id="line2d_17">
    <path d="M 314.892537 405.8928 
L 317.391045 404.6832 
L 319.889552 403.4736 
L 322.38806 402.264 
L 324.886567 401.0544 
L 327.385075 399.8448 
L 329.883582 398.6352 
L 332.38209 397.4256 
L 334.880597 396.216 
L 337.379104 395.0064 
L 339.877612 393.7968 
L 342.376119 392.5872 
L 344.874627 391.4784 
L 347.373134 390.2688 
L 349.871642 389.0592 
L 352.370149 387.8496 
L 354.868657 386.64 
L 357.367164 385.4304 
L 359.865672 384.2208 
L 362.364179 383.0112 
L 364.862687 381.8016 
L 367.361194 380.592 
L 369.859701 379.3824 
L 372.358209 378.1728 
L 374.856716 376.9632 
L 377.355224 375.7536 
L 379.853731 374.544 
L 382.352239 373.3344 
L 384.850746 372.1248 
L 387.349254 371.016 
L 389.847761 369.8064 
L 392.346269 368.5968 
L 394.844776 367.3872 
L 397.343284 366.1776 
L 399.841791 364.968 
L 402.340299 363.7584 
L 404.838806 362.5488 
L 407.337313 361.3392 
L 409.835821 360.1296 
L 412.334328 358.92 
L 414.832836 357.7104 
L 417.331343 356.5008 
L 419.829851 355.2912 
L 422.328358 354.0816 
L 424.826866 352.872 
L 427.325373 351.6624 
L 429.823881 350.5536 
L 432.322388 349.344 
L 434.820896 348.1344 
L 437.319403 346.9248 
L 439.81791 345.7152 
L 442.316418 344.5056 
L 444.814925 343.296 
L 447.313433 342.0864 
L 449.81194 340.8768 
L 452.310448 339.6672 
L 454.808955 338.4576 
L 457.307463 337.248 
L 459.80597 336.0384 
L 462.304478 334.8288 
L 464.802985 333.6192 
L 467.301493 332.4096 
L 469.8 331.3008 
L 472.298507 330.0912 
L 474.797015 328.8816 
L 477.295522 327.672 
L 479.79403 326.4624 
L 482.292537 325.2528 
L 484.791045 324.0432 
L 487.289552 322.8336 
L 489.78806 321.624 
L 492.286567 320.4144 
" clip-path="url(#p676177338b)" style="fill: none; stroke: #1f77b4; stroke-opacity: 0.9; stroke-width: 4; stroke-linecap: round"/>
   </g>
   <g id="line2d_18">
    <path d="M 494.785075 319.2048 
L 497.283582 317.9952 
L 499.78209 316.7856 
L 502.280597 315.576 
L 504.779104 314.3664 
L 507.277612 313.1568 
L 509.776119 311.9472 
L 512.274627 310.8384 
L 514.773134 309.6288 
L 517.271642 308.4192 
L 519.770149 307.2096 
L 522.268657 306 
L 524.767164 304.7904 
L 527.265672 303.5808 
L 529.764179 302.3712 
L 532.262687 301.1616 
L 534.761194 299.952 
L 537.259701 298.7424 
L 539.758209 297.5328 
L 542.256716 296.3232 
L 544.755224 295.1136 
L 547.253731 293.904 
L 549.752239 292.6944 
L 552.250746 291.4848 
L 554.749254 290.376 
L 557.247761 289.1664 
L 559.746269 287.9568 
L 562.244776 286.7472 
L 564.743284 285.5376 
L 567.241791 284.328 
L 569.740299 283.1184 
L 572.238806 281.9088 
L 574.737313 280.6992 
L 577.235821 279.4896 
L 579.734328 278.28 
L 582.232836 277.0704 
L 584.731343 275.8608 
L 587.229851 274.6512 
L 589.728358 273.4416 
L 592.226866 272.232 
L 594.725373 271.0224 
L 597.223881 269.9136 
L 599.722388 268.704 
L 602.220896 267.4944 
L 604.719403 266.2848 
L 607.21791 265.0752 
L 609.716418 263.8656 
L 612.214925 262.656 
L 614.713433 261.4464 
L 617.21194 260.2368 
L 619.710448 259.0272 
L 622.208955 257.8176 
L 624.707463 256.608 
L 627.20597 255.3984 
L 629.704478 254.1888 
L 632.202985 252.9792 
L 634.701493 251.7696 
L 637.2 250.6608 
L 639.698507 249.4512 
L 642.197015 248.2416 
L 644.695522 247.032 
L 647.19403 245.8224 
L 649.692537 244.6128 
L 652.191045 243.4032 
L 654.689552 242.1936 
L 657.18806 240.984 
L 659.686567 239.7744 
L 662.185075 238.5648 
L 664.683582 237.3552 
L 667.18209 236.1456 
L 669.680597 234.936 
L 672.179104 233.7264 
" clip-path="url(#p676177338b)" style="fill: none; stroke: #ff7f0e; stroke-opacity: 0.9; stroke-width: 4; stroke-linecap: round"/>
   </g>
   <g id="line2d_19">
    <path d="M 674.677612 232.5168 
L 677.176119 231.3072 
L 679.674627 230.1984 
L 682.173134 228.9888 
L 684.671642 227.7792 
L 687.170149 226.5696 
L 689.668657 225.36 
L 692.167164 224.1504 
L 694.665672 222.9408 
L 697.164179 221.7312 
L 699.662687 220.5216 
L 702.161194 219.312 
L 704.659701 218.1024 
L 707.158209 216.8928 
L 709.656716 215.6832 
L 712.155224 214.4736 
L 714.653731 213.264 
L 717.152239 212.0544 
L 719.650746 210.8448 
L 722.149254 209.736 
L 724.647761 208.5264 
L 727.146269 207.3168 
L 729.644776 206.1072 
L 732.143284 204.8976 
L 734.641791 203.688 
L 737.140299 202.4784 
L 739.638806 201.2688 
L 742.137313 200.0592 
L 744.635821 198.8496 
L 747.134328 197.64 
L 749.632836 196.4304 
L 752.131343 195.2208 
L 754.629851 194.0112 
L 757.128358 192.8016 
L 759.626866 191.592 
L 762.125373 190.3824 
L 764.623881 189.2736 
L 767.122388 188.064 
L 769.620896 186.8544 
L 772.119403 185.6448 
L 774.61791 184.4352 
L 777.116418 183.2256 
L 779.614925 182.016 
L 782.113433 180.8064 
L 784.61194 179.5968 
L 787.110448 178.3872 
L 789.608955 177.1776 
L 792.107463 175.968 
L 794.60597 174.7584 
L 797.104478 173.5488 
L 799.602985 172.3392 
L 802.101493 171.1296 
L 804.6 169.92 
L 807.098507 168.8112 
L 809.597015 167.6016 
L 812.095522 166.392 
L 814.59403 165.1824 
L 817.092537 163.9728 
L 819.591045 162.7632 
L 822.089552 161.5536 
L 824.58806 160.344 
L 827.086567 159.1344 
L 829.585075 157.9248 
L 832.083582 156.7152 
L 834.58209 155.5056 
L 837.080597 154.296 
L 839.579104 153.0864 
L 842.077612 151.8768 
L 844.576119 150.6672 
L 847.074627 149.5584 
L 849.573134 148.3488 
L 852.071642 147.1392 
" clip-path="url(#p676177338b)" style="fill: none; stroke: #ff7f0e; stroke-opacity: 0.9; stroke-width: 4; stroke-linecap: round"/>
   </g>
   <g id="line2d_20">
    <path d="M 854.570149 145.9296 
L 857.068657 144.72 
L 859.567164 143.5104 
L 862.065672 142.3008 
L 864.564179 141.0912 
L 867.062687 139.8816 
L 869.561194 138.672 
L 872.059701 137.4624 
L 874.558209 136.2528 
L 877.056716 135.0432 
L 879.555224 133.8336 
L 882.053731 132.624 
L 884.552239 131.4144 
L 887.050746 130.2048 
L 889.549254 129.096 
L 892.047761 127.8864 
L 894.546269 126.6768 
L 897.044776 125.4672 
L 899.543284 124.2576 
L 902.041791 123.048 
L 904.540299 121.8384 
L 907.038806 120.6288 
L 909.537313 119.4192 
L 912.035821 118.2096 
L 914.534328 117 
L 917.032836 115.7904 
L 919.531343 114.5808 
L 922.029851 113.3712 
L 924.528358 112.1616 
L 927.026866 110.952 
L 929.525373 109.7424 
L 932.023881 108.6336 
L 934.522388 107.424 
L 937.020896 106.2144 
L 939.519403 105.0048 
L 942.01791 103.7952 
L 944.516418 102.5856 
L 947.014925 101.376 
L 949.513433 100.1664 
L 952.01194 98.9568 
L 954.510448 97.7472 
L 957.008955 96.5376 
L 959.507463 95.328 
L 962.00597 94.1184 
L 964.504478 92.9088 
L 967.002985 91.6992 
L 969.501493 90.4896 
L 972 89.28 
" clip-path="url(#p676177338b)" style="fill: none; stroke: #ff7f0e; stroke-opacity: 0.9; stroke-width: 4; stroke-linecap: round"/>
   </g>
   <g id="line2d_21">
    <path d="M 135 512.64 
L 135 69.12 
" clip-path="url(#p676177338b)" style="fill: none; stroke-dasharray: 5.55,2.4; stroke-dashoffset: 0; stroke: #000000; stroke-opacity: 0.7; stroke-width: 1.5"/>
   </g>
   <g id="line2d_22">
    <path d="M 314.892537 512.64 
L 314.892537 69.12 
" clip-path="url(#p676177338b)" style="fill: none; stroke-dasharray: 5.55,2.4; stroke-dashoffset: 0; stroke: #000000; stroke-opacity: 0.7; stroke-width: 1.5"/>
   </g>
   <g id="line2d_23">
    <path d="M 494.785075 512.64 
L 494.785075 69.12 
" clip-path="url(#p676177338b)" style="fill: none; stroke-dasharray: 5.55,2.4; stroke-dashoffset: 0; stroke: #000000; stroke-opacity: 0.7; stroke-width: 1.5"/>
   </g>
   <g id="line2d_24">
    <path d="M 674.677612 512.64 
L 674.677612 69.12 
" clip-path="url(#p676177338b)" style="fill: none; stroke-dasharray: 5.55,2.4; stroke-dashoffset: 0; stroke: #000000; stroke-opacity: 0.7; stroke-width: 1.5"/>
   </g>
   <g id="line2d_25">
    <path d="M 854.570149 512.64 
L 854.570149 69.12 
" clip-path="url(#p676177338b)" style="fill: none; stroke-dasharray: 5.55,2.4; stroke-dashoffset: 0; stroke: #000000; stroke-opacity: 0.7; stroke-width: 1.5"/>
   </g>
   <g id="patch_3">
    <path d="M 135 512.64 
L 135 69.12 
" style="fill: none; stroke: #262626; stroke-width: 1.25; stroke-linejoin: miter; stroke-linecap: square"/>
   </g>
   <g id="patch_4">
    <path d="M 972 512.64 
L 972 69.12 
" style="fill: none; stroke: #262626; stroke-width: 1.25; stroke-linejoin: miter; stroke-linecap: square"/>
   </g>
   <g id="patch_5">
    <path d="M 135 512.64 
L 972 512.64 
" style="fill: none; stroke: #262626; stroke-width: 1.25; stroke-linejoin: miter; stroke-linecap: square"/>
   </g>
   <g id="patch_6">
    <path d="M 135 69.12 
L 972 69.12 
" style="fill: none; stroke: #262626; stroke-width: 1.25; stroke-linejoin: miter; stroke-linecap: square"/>
   </g>
   <g id="text_26">
    <!-- 이산화탄소 유사 패턴 군집화 결과 (동일 색상은 같은 군집) -->
    <g style="fill: #262626" transform="translate(315.703125 63.12) scale(0.18 -0.18)">
     <defs>
      <path id="MalgunGothic-c720" d="M 3200 2784 
Q 2278 2784 1768 3131 
Q 1259 3478 1259 4078 
Q 1259 4669 1775 5025 
Q 2291 5381 3200 5381 
Q 4128 5381 4640 5025 
Q 5153 4669 5153 4078 
Q 5153 3484 4640 3134 
Q 4128 2784 3200 2784 
z
M 3200 4978 
Q 2513 4978 2130 4736 
Q 1747 4494 1747 4078 
Q 1747 3669 2130 3425 
Q 2513 3181 3200 3181 
Q 3888 3181 4270 3425 
Q 4653 3669 4653 4078 
Q 4653 4494 4270 4736 
Q 3888 4978 3200 4978 
z
M 1913 -556 
L 1913 1672 
L 403 1672 
L 403 2094 
L 5997 2094 
L 5997 1672 
L 4488 1672 
L 4488 -556 
L 4019 -556 
L 4019 1672 
L 2381 1672 
L 2381 -556 
L 1913 -556 
z
" transform="scale(0.015625)"/>
      <path id="MalgunGothic-c0ac" d="M 5094 2600 
L 5094 -563 
L 4628 -563 
L 4628 5466 
L 5094 5466 
L 5094 3016 
L 6138 3016 
L 6138 2600 
L 5094 2600 
z
M 3744 966 
Q 3234 1356 2800 1936 
Q 2366 2516 2234 2950 
Q 2094 2472 1672 1883 
Q 1250 1294 738 891 
L 378 1203 
Q 1116 1703 1556 2479 
Q 1997 3256 1997 4063 
L 1997 5050 
L 2463 5050 
L 2463 4084 
Q 2463 3297 2898 2553 
Q 3334 1809 4072 1331 
L 3744 966 
z
" transform="scale(0.015625)"/>
      <path id="MalgunGothic-d328" d="M 5069 -563 
L 5069 2491 
L 4347 2491 
L 4347 -378 
L 3884 -378 
L 3884 5344 
L 4347 5344 
L 4347 2913 
L 5069 2913 
L 5069 5466 
L 5538 5466 
L 5538 -563 
L 5069 -563 
z
M 538 4513 
L 538 4928 
L 3384 4928 
L 3384 4513 
L 538 4513 
z
M 3591 1125 
Q 3278 1063 2663 1063 
L 366 1063 
L 366 1478 
L 1113 1478 
L 1031 4091 
L 1497 4091 
L 1550 1478 
L 2375 1478 
L 2425 4091 
L 2894 4091 
L 2809 1478 
Q 3369 1478 3553 1522 
L 3591 1125 
z
" transform="scale(0.015625)"/>
      <path id="MalgunGothic-d134" d="M 4947 1147 
L 4947 3378 
L 3884 3378 
L 3884 3794 
L 4947 3794 
L 4947 5466 
L 5416 5466 
L 5416 1147 
L 4947 1147 
z
M 1569 3456 
L 1569 2541 
Q 3544 2541 4172 2600 
L 4206 2194 
Q 3428 2131 1100 2131 
L 1100 5125 
L 3963 5125 
L 3963 4709 
L 1569 4709 
L 1569 3859 
L 3406 3859 
L 3406 3456 
L 1569 3456 
z
M 1734 -378 
L 1734 1503 
L 2203 1503 
L 2203 38 
L 5569 38 
L 5569 -378 
L 1734 -378 
z
" transform="scale(0.015625)"/>
      <path id="MalgunGothic-ad70" d="M 3003 703 
L 3003 2497 
L 403 2497 
L 403 2919 
L 4581 2919 
Q 4634 3438 4634 4788 
L 1338 4788 
L 1338 5203 
L 5100 5203 
Q 5100 3819 5038 2919 
L 5997 2919 
L 5997 2497 
L 3469 2497 
L 3469 703 
L 3003 703 
z
M 1338 -300 
L 1338 1638 
L 1806 1638 
L 1806 122 
L 5216 122 
L 5216 -300 
L 1338 -300 
z
" transform="scale(0.015625)"/>
      <path id="MalgunGothic-c9d1" d="M 4941 2328 
L 4941 5466 
L 5409 5466 
L 5409 2328 
L 4941 2328 
z
M 3872 2388 
Q 3469 2600 3037 2997 
Q 2606 3394 2438 3750 
Q 2269 3366 1859 2936 
Q 1450 2506 978 2234 
L 641 2547 
Q 1316 2875 1759 3462 
Q 2203 4050 2203 4678 
L 2203 4781 
L 838 4781 
L 838 5197 
L 4006 5197 
L 4006 4781 
L 2656 4781 
L 2656 4678 
Q 2656 4081 3120 3523 
Q 3584 2966 4184 2719 
L 3872 2388 
z
M 1672 -397 
L 1672 2003 
L 2131 2003 
L 2131 1172 
L 4947 1172 
L 4947 2003 
L 5409 2003 
L 5409 -397 
L 1672 -397 
z
M 4947 756 
L 2131 756 
L 2131 13 
L 4947 13 
L 4947 756 
z
" transform="scale(0.015625)"/>
      <path id="MalgunGothic-acb0" d="M 3647 2931 
L 3647 3334 
L 4947 3334 
L 4947 4172 
L 3744 4172 
L 3744 4581 
L 4947 4581 
L 4947 5466 
L 5416 5466 
L 5416 2328 
L 4947 2328 
L 4947 2931 
L 3647 2931 
z
M 872 2053 
L 550 2425 
Q 1600 2778 2237 3404 
Q 2875 4031 3066 4800 
L 941 4800 
L 941 5209 
L 3609 5209 
Q 3503 4163 2790 3344 
Q 2078 2525 872 2053 
z
M 1722 -494 
L 1722 984 
L 4947 984 
L 4947 1600 
L 1722 1600 
L 1722 1997 
L 5416 1997 
L 5416 588 
L 2188 588 
L 2188 -91 
L 5581 -91 
L 5581 -494 
L 1722 -494 
z
" transform="scale(0.015625)"/>
      <path id="MalgunGothic-acfc" d="M 6188 2663 
L 5203 2663 
L 5203 -563 
L 4728 -563 
L 4728 5466 
L 5197 5466 
L 5197 3078 
L 6188 3078 
L 6188 2663 
z
M 3828 4897 
Q 3828 3144 3713 1800 
L 3256 1831 
Q 3294 2163 3326 3077 
Q 3359 3991 3359 4481 
L 800 4481 
L 800 4897 
L 3828 4897 
z
M 4319 666 
Q 2688 575 281 575 
L 238 984 
Q 559 984 1747 1000 
L 1747 3084 
L 2216 3084 
L 2216 1006 
L 4288 1069 
L 4319 666 
z
" transform="scale(0.015625)"/>
      <path id="MalgunGothic-b3d9" d="M 403 2119 
L 403 2534 
L 2963 2534 
L 2963 3316 
L 1338 3316 
L 1338 5325 
L 5081 5325 
L 5081 4909 
L 1813 4909 
L 1813 3731 
L 5153 3731 
L 5153 3316 
L 3438 3316 
L 3438 2534 
L 5997 2534 
L 5997 2119 
L 403 2119 
z
M 3200 -513 
Q 2247 -513 1740 -211 
Q 1234 91 1234 603 
Q 1234 1116 1742 1416 
Q 2250 1716 3200 1716 
Q 4150 1716 4658 1416 
Q 5166 1116 5166 603 
Q 5166 91 4659 -211 
Q 4153 -513 3200 -513 
z
M 3200 1319 
Q 2478 1319 2103 1126 
Q 1728 934 1728 603 
Q 1728 272 2104 78 
Q 2481 -116 3200 -116 
Q 3919 -116 4295 78 
Q 4672 272 4672 603 
Q 4672 934 4295 1126 
Q 3919 1319 3200 1319 
z
" transform="scale(0.015625)"/>
      <path id="MalgunGothic-c0c9" d="M 5056 2059 
L 5056 3438 
L 4353 3438 
L 4353 2059 
L 3884 2059 
L 3884 5344 
L 4353 5344 
L 4353 3859 
L 5056 3859 
L 5056 5466 
L 5522 5466 
L 5522 2059 
L 5056 2059 
z
M 3200 2406 
Q 2856 2603 2493 3009 
Q 2131 3416 2003 3725 
Q 1894 3381 1533 2937 
Q 1172 2494 781 2253 
L 447 2566 
Q 1028 2869 1397 3428 
Q 1766 3988 1766 4616 
L 1766 5253 
L 2222 5253 
L 2222 4616 
Q 2222 4041 2600 3516 
Q 2978 2991 3500 2753 
L 3200 2406 
z
M 5056 -563 
L 5056 1313 
L 1581 1313 
L 1581 1728 
L 5522 1728 
L 5522 -563 
L 5056 -563 
z
" transform="scale(0.015625)"/>
      <path id="MalgunGothic-c740" d="M 3200 2950 
Q 2309 2950 1817 3287 
Q 1325 3625 1325 4159 
Q 1325 4694 1815 5028 
Q 2306 5363 3200 5363 
Q 4094 5363 4587 5028 
Q 5081 4694 5081 4159 
Q 5081 3625 4584 3287 
Q 4088 2950 3200 2950 
z
M 3200 4966 
Q 2541 4966 2177 4747 
Q 1813 4528 1813 4159 
Q 1813 3791 2177 3572 
Q 2541 3353 3200 3353 
Q 3859 3353 4223 3572 
Q 4588 3791 4588 4159 
Q 4588 4528 4223 4747 
Q 3859 4966 3200 4966 
z
M 403 1919 
L 403 2344 
L 5997 2344 
L 5997 1919 
L 403 1919 
z
M 1338 -359 
L 1338 1331 
L 1813 1331 
L 1813 56 
L 5203 56 
L 5203 -359 
L 1338 -359 
z
" transform="scale(0.015625)"/>
      <path id="MalgunGothic-ac19" d="M 5119 3525 
L 5119 2272 
L 4653 2272 
L 4653 5466 
L 5119 5466 
L 5119 3944 
L 6028 3944 
L 6028 3525 
L 5119 3525 
z
M 3488 5209 
Q 3488 4306 2794 3461 
Q 2100 2616 788 2081 
L 459 2450 
Q 1506 2784 2178 3450 
Q 2850 4116 2963 4794 
L 831 4794 
L 831 5209 
L 3488 5209 
z
M 1466 -422 
L 1466 1941 
L 5153 1941 
L 5153 1528 
L 1925 1528 
L 1925 972 
L 5044 972 
L 5044 563 
L 1925 563 
L 1925 -6 
L 5269 -6 
L 5269 -422 
L 1466 -422 
z
" transform="scale(0.015625)"/>
     </defs>
     <use xlink:href="#MalgunGothic-c774"/>
     <use xlink:href="#MalgunGothic-c0b0" x="100"/>
     <use xlink:href="#MalgunGothic-d654" x="200"/>
     <use xlink:href="#MalgunGothic-d0c4" x="300"/>
     <use xlink:href="#MalgunGothic-c18c" x="400"/>
     <use xlink:href="#MalgunGothic-20" x="500"/>
     <use xlink:href="#MalgunGothic-c720" x="535.15625"/>
     <use xlink:href="#MalgunGothic-c0ac" x="635.15625"/>
     <use xlink:href="#MalgunGothic-20" x="735.15625"/>
     <use xlink:href="#MalgunGothic-d328" x="770.3125"/>
     <use xlink:href="#MalgunGothic-d134" x="870.3125"/>
     <use xlink:href="#MalgunGothic-20" x="970.3125"/>
     <use xlink:href="#MalgunGothic-ad70" x="1005.46875"/>
     <use xlink:href="#MalgunGothic-c9d1" x="1105.46875"/>
     <use xlink:href="#MalgunGothic-d654" x="1205.46875"/>
     <use xlink:href="#MalgunGothic-20" x="1305.46875"/>
     <use xlink:href="#MalgunGothic-acb0" x="1340.625"/>
     <use xlink:href="#MalgunGothic-acfc" x="1440.625"/>
     <use xlink:href="#MalgunGothic-20" x="1540.625"/>
     <use xlink:href="#MalgunGothic-28" x="1575.78125"/>
     <use xlink:href="#MalgunGothic-b3d9" x="1606.25"/>
     <use xlink:href="#MalgunGothic-c77c" x="1706.25"/>
     <use xlink:href="#MalgunGothic-20" x="1806.25"/>
     <use xlink:href="#MalgunGothic-c0c9" x="1841.40625"/>
     <use xlink:href="#MalgunGothic-c0c1" x="1941.40625"/>
     <use xlink:href="#MalgunGothic-c740" x="2041.40625"/>
     <use xlink:href="#MalgunGothic-20" x="2141.40625"/>
     <use xlink:href="#MalgunGothic-ac19" x="2176.5625"/>
     <use xlink:href="#MalgunGothic-c740" x="2276.5625"/>
     <use xlink:href="#MalgunGothic-20" x="2376.5625"/>
     <use xlink:href="#MalgunGothic-ad70" x="2411.71875"/>
     <use xlink:href="#MalgunGothic-c9d1" x="2511.71875"/>
     <use xlink:href="#MalgunGothic-29" x="2611.71875"/>
    </g>
   </g>
   <g id="legend_1">
    <g id="patch_7">
     <path d="M 706.634375 101.25875 
L 962.2 101.25875 
Q 965 101.25875 965 98.45875 
L 965 78.92 
Q 965 76.12 962.2 76.12 
L 706.634375 76.12 
Q 703.834375 76.12 703.834375 78.92 
L 703.834375 98.45875 
Q 703.834375 101.25875 706.634375 101.25875 
z
" style="fill: #ffffff; opacity: 0.8; stroke: #cccccc; stroke-linejoin: miter"/>
    </g>
    <g id="line2d_26">
     <path d="M 709.434375 87.449063 
L 723.434375 87.449063 
L 737.434375 87.449063 
" style="fill: none; stroke: #a9a9a9; stroke-opacity: 0.8; stroke-width: 3; stroke-linecap: round"/>
    </g>
    <g id="text_27">
     <!-- 군집이 안되는 이산화탄소 데이터 -->
     <g style="fill: #262626" transform="translate(748.634375 92.349063) scale(0.14 -0.14)">
      <defs>
       <path id="MalgunGothic-c548" d="M 5131 3109 
L 5131 1069 
L 4666 1069 
L 4666 5466 
L 5131 5466 
L 5131 3534 
L 6041 3534 
L 6041 3109 
L 5131 3109 
z
M 2188 2188 
Q 1519 2188 1070 2611 
Q 622 3034 622 3706 
Q 622 4381 1067 4798 
Q 1513 5216 2188 5216 
Q 2866 5216 3308 4797 
Q 3750 4378 3750 3706 
Q 3750 3038 3304 2613 
Q 2859 2188 2188 2188 
z
M 2188 4819 
Q 1694 4819 1384 4516 
Q 1075 4213 1075 3706 
Q 1075 3200 1383 2895 
Q 1691 2591 2188 2591 
Q 2684 2591 2993 2895 
Q 3303 3200 3303 3706 
Q 3303 4213 2993 4516 
Q 2684 4819 2188 4819 
z
M 1381 -359 
L 1381 1619 
L 1856 1619 
L 1856 56 
L 5319 56 
L 5319 -359 
L 1381 -359 
z
" transform="scale(0.015625)"/>
       <path id="MalgunGothic-b418" d="M 4984 -563 
L 4984 5466 
L 5453 5466 
L 5453 -563 
L 4984 -563 
z
M 594 513 
L 550 922 
L 878 922 
Q 1806 922 2363 934 
L 2363 2375 
L 1056 2375 
L 1056 4891 
L 4025 4891 
L 4025 4475 
L 1522 4475 
L 1522 2791 
L 4097 2791 
L 4097 2375 
L 2828 2375 
L 2828 947 
Q 4016 963 4538 1013 
L 4569 609 
Q 4022 566 2634 539 
Q 1247 513 594 513 
z
" transform="scale(0.015625)"/>
       <path id="MalgunGothic-b294" d="M 1409 3225 
L 1409 5247 
L 1875 5247 
L 1875 3641 
L 5172 3641 
L 5172 3225 
L 1409 3225 
z
M 403 1972 
L 403 2394 
L 5997 2394 
L 5997 1972 
L 403 1972 
z
M 1381 -331 
L 1381 1459 
L 1850 1459 
L 1850 91 
L 5184 91 
L 5184 -331 
L 1381 -331 
z
" transform="scale(0.015625)"/>
       <path id="MalgunGothic-b370" d="M 5044 -563 
L 5044 5466 
L 5509 5466 
L 5509 -563 
L 5044 -563 
z
M 3897 -366 
L 3897 2859 
L 2650 2859 
L 2650 3272 
L 3897 3272 
L 3897 5344 
L 4359 5344 
L 4359 -366 
L 3897 -366 
z
M 3359 1094 
Q 2766 1019 909 1019 
L 909 4966 
L 3138 4966 
L 3138 4550 
L 1369 4550 
L 1369 1428 
Q 2897 1428 3328 1491 
L 3359 1094 
z
" transform="scale(0.015625)"/>
       <path id="MalgunGothic-d130" d="M 4891 -563 
L 4891 2516 
L 3706 2516 
L 3706 2925 
L 4891 2925 
L 4891 5466 
L 5356 5466 
L 5356 -563 
L 4891 -563 
z
M 1422 2816 
L 1422 1331 
L 2144 1331 
Q 3525 1331 4141 1409 
L 4172 1006 
Q 3694 950 3141 936 
Q 2588 922 953 922 
L 953 4953 
L 3841 4953 
L 3841 4531 
L 1422 4531 
L 1422 3219 
L 3181 3219 
L 3181 2816 
L 1422 2816 
z
" transform="scale(0.015625)"/>
      </defs>
      <use xlink:href="#MalgunGothic-ad70"/>
      <use xlink:href="#MalgunGothic-c9d1" x="100"/>
      <use xlink:href="#MalgunGothic-c774" x="200"/>
      <use xlink:href="#MalgunGothic-20" x="300"/>
      <use xlink:href="#MalgunGothic-c548" x="335.15625"/>
      <use xlink:href="#MalgunGothic-b418" x="435.15625"/>
      <use xlink:href="#MalgunGothic-b294" x="535.15625"/>
      <use xlink:href="#MalgunGothic-20" x="635.15625"/>
      <use xlink:href="#MalgunGothic-c774" x="670.3125"/>
      <use xlink:href="#MalgunGothic-c0b0" x="770.3125"/>
      <use xlink:href="#MalgunGothic-d654" x="870.3125"/>
      <use xlink:href="#MalgunGothic-d0c4" x="970.3125"/>
      <use xlink:href="#MalgunGothic-c18c" x="1070.3125"/>
      <use xlink:href="#MalgunGothic-20" x="1170.3125"/>
      <use xlink:href="#MalgunGothic-b370" x="1205.46875"/>
      <use xlink:href="#MalgunGothic-c774" x="1305.46875"/>
      <use xlink:href="#MalgunGothic-d130" x="1405.46875"/>
     </g>
    </g>
   </g>
  </g>
 </g>
 <defs>
  <clipPath id="p676177338b">
   <rect x="135" y="69.12" width="837" height="443.52"/>
  </clipPath>
 </defs>
</svg>
