<?xml version="1.0" encoding="utf-8" standalone="no"?>
<!DOCTYPE svg PUBLIC "-//W3C//DTD SVG 1.1//EN"
  "http://www.w3.org/Graphics/SVG/1.1/DTD/svg11.dtd">
<svg xmlns:xlink="http://www.w3.org/1999/xlink" width="1080pt" height="576pt" viewBox="0 0 1080 576" xmlns="http://www.w3.org/2000/svg" version="1.1">
 <metadata>
  <rdf:RDF xmlns:dc="http://purl.org/dc/elements/1.1/" xmlns:cc="http://creativecommons.org/ns#" xmlns:rdf="http://www.w3.org/1999/02/22-rdf-syntax-ns#">
   <cc:Work>
    <dc:type rdf:resource="http://purl.org/dc/dcmitype/StillImage"/>
    <dc:date>2024-11-12T22:44:55.432968</dc:date>
    <dc:format>image/svg+xml</dc:format>
    <dc:creator>
     <cc:Agent>
      <dc:title>Matplotlib v3.9.2, https://matplotlib.org/</dc:title>
     </cc:Agent>
    </dc:creator>
   </cc:Work>
  </rdf:RDF>
 </metadata>
 <defs>
  <style type="text/css">*{stroke-linejoin: round; stroke-linecap: butt}</style>
 </defs>
 <g id="figure_1">
  <g id="patch_1">
   <path d="M 0 576 
L 1080 576 
L 1080 0 
L 0 0 
z
" style="fill: #ffffff"/>
  </g>
  <g id="axes_1">
   <g id="patch_2">
    <path d="M 135 512.64 
L 972 512.64 
L 972 69.12 
L 135 69.12 
z
" style="fill: #ffffff"/>
   </g>
   <g id="matplotlib.axis_1">
    <g id="xtick_1">
     <g id="line2d_1">
      <path d="M 215.650933 512.64 
L 215.650933 69.12 
" clip-path="url(#p3b046af06e)" style="fill: none; stroke: #a9a9a9; stroke-opacity: 0.7; stroke-width: 1.5; stroke-linecap: round"/>
     </g>
     <g id="text_1">
      <!-- 1 -->
      <g style="fill: #262626" transform="translate(211.795464 532.769063) scale(0.14 -0.14)">
       <defs>
        <path id="MalgunGothic-31" d="M 2231 0 
L 1734 0 
L 1734 3972 
Q 1591 3828 1266 3661 
Q 941 3494 672 3428 
L 672 3959 
Q 1016 4056 1409 4275 
Q 1803 4494 2031 4700 
L 2231 4700 
L 2231 0 
z
" transform="scale(0.015625)"/>
       </defs>
       <use xlink:href="#MalgunGothic-31"/>
      </g>
     </g>
    </g>
    <g id="xtick_2">
     <g id="line2d_2">
      <path d="M 296.809104 512.64 
L 296.809104 69.12 
" clip-path="url(#p3b046af06e)" style="fill: none; stroke: #a9a9a9; stroke-opacity: 0.7; stroke-width: 1.5; stroke-linecap: round"/>
     </g>
     <g id="text_2">
      <!-- 2 -->
      <g style="fill: #262626" transform="translate(292.953635 532.769063) scale(0.14 -0.14)">
       <defs>
        <path id="MalgunGothic-32" d="M 2519 3372 
Q 2519 3784 2275 4018 
Q 2031 4253 1628 4253 
Q 1341 4253 1053 4104 
Q 766 3956 534 3697 
L 534 4234 
Q 981 4675 1691 4675 
Q 2281 4675 2642 4334 
Q 3003 3994 3003 3416 
Q 3003 2919 2772 2545 
Q 2541 2172 1984 1775 
Q 1459 1406 1254 1215 
Q 1050 1025 967 854 
Q 884 684 884 450 
L 3116 450 
L 3116 0 
L 356 0 
L 356 225 
Q 356 603 461 870 
Q 566 1138 811 1392 
Q 1056 1647 1597 2022 
Q 2091 2363 2305 2670 
Q 2519 2978 2519 3372 
z
" transform="scale(0.015625)"/>
       </defs>
       <use xlink:href="#MalgunGothic-32"/>
      </g>
     </g>
    </g>
    <g id="xtick_3">
     <g id="line2d_3">
      <path d="M 377.967275 512.64 
L 377.967275 69.12 
" clip-path="url(#p3b046af06e)" style="fill: none; stroke: #a9a9a9; stroke-opacity: 0.7; stroke-width: 1.5; stroke-linecap: round"/>
     </g>
     <g id="text_3">
      <!-- 3 -->
      <g style="fill: #262626" transform="translate(374.111806 532.769063) scale(0.14 -0.14)">
       <defs>
        <path id="MalgunGothic-33" d="M 416 719 
Q 891 344 1478 344 
Q 1959 344 2254 587 
Q 2550 831 2550 1247 
Q 2550 2169 1253 2169 
L 872 2169 
L 872 2591 
L 1234 2591 
Q 2388 2591 2388 3453 
Q 2388 4250 1509 4250 
Q 1022 4250 594 3916 
L 594 4413 
Q 1031 4675 1634 4675 
Q 2184 4675 2539 4372 
Q 2894 4069 2894 3581 
Q 2894 2678 1972 2409 
L 1972 2400 
Q 2469 2356 2764 2053 
Q 3059 1750 3059 1300 
Q 3059 672 2604 297 
Q 2150 -78 1450 -78 
Q 806 -78 416 169 
L 416 719 
z
" transform="scale(0.015625)"/>
       </defs>
       <use xlink:href="#MalgunGothic-33"/>
      </g>
     </g>
    </g>
    <g id="xtick_4">
     <g id="line2d_4">
      <path d="M 459.125446 512.64 
L 459.125446 69.12 
" clip-path="url(#p3b046af06e)" style="fill: none; stroke: #a9a9a9; stroke-opacity: 0.7; stroke-width: 1.5; stroke-linecap: round"/>
     </g>
     <g id="text_4">
      <!-- 4 -->
      <g style="fill: #262626" transform="translate(455.269977 532.769063) scale(0.14 -0.14)">
       <defs>
        <path id="MalgunGothic-34" d="M 2703 4600 
L 2703 1563 
L 3309 1563 
L 3309 1113 
L 2703 1113 
L 2703 0 
L 2213 0 
L 2213 1113 
L 50 1113 
L 50 1534 
Q 728 2297 1295 3109 
Q 1863 3922 2172 4600 
L 2703 4600 
z
M 625 1563 
L 2213 1563 
L 2213 3831 
Q 1613 2788 959 1981 
L 625 1563 
z
" transform="scale(0.015625)"/>
       </defs>
       <use xlink:href="#MalgunGothic-34"/>
      </g>
     </g>
    </g>
    <g id="xtick_5">
     <g id="line2d_5">
      <path d="M 540.283617 512.64 
L 540.283617 69.12 
" clip-path="url(#p3b046af06e)" style="fill: none; stroke: #a9a9a9; stroke-opacity: 0.7; stroke-width: 1.5; stroke-linecap: round"/>
     </g>
     <g id="text_5">
      <!-- 5 -->
      <g style="fill: #262626" transform="translate(536.428149 532.769063) scale(0.14 -0.14)">
       <defs>
        <path id="MalgunGothic-35" d="M 3072 1403 
Q 3072 722 2636 322 
Q 2200 -78 1469 -78 
Q 828 -78 516 113 
L 516 650 
Q 994 344 1475 344 
Q 1969 344 2270 630 
Q 2572 916 2572 1372 
Q 2572 1838 2265 2092 
Q 1959 2347 1381 2347 
Q 994 2347 603 2300 
L 759 4600 
L 2869 4600 
L 2869 4147 
L 1206 4147 
L 1106 2763 
Q 1347 2784 1547 2784 
Q 2263 2784 2667 2414 
Q 3072 2044 3072 1403 
z
" transform="scale(0.015625)"/>
       </defs>
       <use xlink:href="#MalgunGothic-35"/>
      </g>
     </g>
    </g>
    <g id="xtick_6">
     <g id="line2d_6">
      <path d="M 621.441788 512.64 
L 621.441788 69.12 
" clip-path="url(#p3b046af06e)" style="fill: none; stroke: #a9a9a9; stroke-opacity: 0.7; stroke-width: 1.5; stroke-linecap: round"/>
     </g>
     <g id="text_6">
      <!-- 6 -->
      <g style="fill: #262626" transform="translate(617.58632 532.769063) scale(0.14 -0.14)">
       <defs>
        <path id="MalgunGothic-36" d="M 2981 4069 
Q 2619 4250 2228 4250 
Q 1591 4250 1228 3689 
Q 866 3128 869 2213 
L 884 2213 
Q 1203 2872 1938 2872 
Q 2547 2872 2903 2478 
Q 3259 2084 3259 1450 
Q 3259 797 2857 359 
Q 2456 -78 1825 -78 
Q 1116 -78 736 478 
Q 356 1034 356 2019 
Q 356 3181 847 3928 
Q 1338 4675 2222 4675 
Q 2700 4675 2981 4544 
L 2981 4069 
z
M 906 1506 
Q 906 1022 1165 683 
Q 1425 344 1844 344 
Q 2247 344 2498 645 
Q 2750 947 2750 1388 
Q 2750 1888 2509 2167 
Q 2269 2447 1838 2447 
Q 1444 2447 1175 2173 
Q 906 1900 906 1506 
z
" transform="scale(0.015625)"/>
       </defs>
       <use xlink:href="#MalgunGothic-36"/>
      </g>
     </g>
    </g>
    <g id="xtick_7">
     <g id="line2d_7">
      <path d="M 702.59996 512.64 
L 702.59996 69.12 
" clip-path="url(#p3b046af06e)" style="fill: none; stroke: #a9a9a9; stroke-opacity: 0.7; stroke-width: 1.5; stroke-linecap: round"/>
     </g>
     <g id="text_7">
      <!-- 7 -->
      <g style="fill: #262626" transform="translate(698.744491 532.769063) scale(0.14 -0.14)">
       <defs>
        <path id="MalgunGothic-37" d="M 3213 4297 
Q 2478 3006 2064 1918 
Q 1650 831 1550 0 
L 1009 0 
Q 1084 531 1290 1176 
Q 1497 1822 1815 2537 
Q 2134 3253 2631 4147 
L 291 4147 
L 291 4600 
L 3213 4600 
L 3213 4297 
z
" transform="scale(0.015625)"/>
       </defs>
       <use xlink:href="#MalgunGothic-37"/>
      </g>
     </g>
    </g>
    <g id="xtick_8">
     <g id="line2d_8">
      <path d="M 783.758131 512.64 
L 783.758131 69.12 
" clip-path="url(#p3b046af06e)" style="fill: none; stroke: #a9a9a9; stroke-opacity: 0.7; stroke-width: 1.5; stroke-linecap: round"/>
     </g>
     <g id="text_8">
      <!-- 8 -->
      <g style="fill: #262626" transform="translate(779.902662 532.769063) scale(0.14 -0.14)">
       <defs>
        <path id="MalgunGothic-38" d="M 303 1281 
Q 303 1669 539 2011 
Q 775 2353 1153 2494 
Q 856 2647 675 2915 
Q 494 3184 494 3500 
Q 494 3828 659 4098 
Q 825 4369 1122 4522 
Q 1419 4675 1778 4675 
Q 2334 4675 2700 4342 
Q 3066 4009 3066 3500 
Q 3066 3181 2881 2914 
Q 2697 2647 2413 2494 
Q 2788 2350 3022 2009 
Q 3256 1669 3256 1281 
Q 3256 672 2843 297 
Q 2431 -78 1778 -78 
Q 1131 -78 717 301 
Q 303 681 303 1281 
z
M 809 1328 
Q 809 878 1081 611 
Q 1353 344 1781 344 
Q 2206 344 2482 619 
Q 2759 894 2759 1328 
Q 2759 1731 2482 2011 
Q 2206 2291 1781 2291 
Q 1372 2291 1090 2020 
Q 809 1750 809 1328 
z
M 1003 3459 
Q 1003 3125 1234 2900 
Q 1466 2675 1781 2675 
Q 2097 2675 2330 2900 
Q 2563 3125 2563 3459 
Q 2563 3803 2341 4026 
Q 2119 4250 1781 4250 
Q 1450 4250 1226 4029 
Q 1003 3809 1003 3459 
z
" transform="scale(0.015625)"/>
       </defs>
       <use xlink:href="#MalgunGothic-38"/>
      </g>
     </g>
    </g>
    <g id="xtick_9">
     <g id="line2d_9">
      <path d="M 864.916302 512.64 
L 864.916302 69.12 
" clip-path="url(#p3b046af06e)" style="fill: none; stroke: #a9a9a9; stroke-opacity: 0.7; stroke-width: 1.5; stroke-linecap: round"/>
     </g>
     <g id="text_9">
      <!-- 9 -->
      <g style="fill: #262626" transform="translate(861.060833 532.769063) scale(0.14 -0.14)">
       <defs>
        <path id="MalgunGothic-39" d="M 556 563 
Q 941 344 1366 344 
Q 1994 344 2347 855 
Q 2700 1366 2700 2313 
Q 2694 2306 2688 2313 
Q 2388 1713 1653 1713 
Q 1059 1713 682 2120 
Q 306 2528 306 3144 
Q 306 3806 711 4240 
Q 1116 4675 1772 4675 
Q 2466 4675 2833 4131 
Q 3200 3588 3200 2578 
Q 3200 1319 2717 620 
Q 2234 -78 1344 -78 
Q 881 -78 556 78 
L 556 563 
z
M 813 3219 
Q 813 2741 1063 2450 
Q 1313 2159 1759 2159 
Q 2147 2159 2406 2417 
Q 2666 2675 2666 3047 
Q 2666 3556 2411 3903 
Q 2156 4250 1725 4250 
Q 1322 4250 1067 3948 
Q 813 3647 813 3219 
z
" transform="scale(0.015625)"/>
       </defs>
       <use xlink:href="#MalgunGothic-39"/>
      </g>
     </g>
    </g>
    <g id="xtick_10">
     <g id="line2d_10">
      <path d="M 946.074473 512.64 
L 946.074473 69.12 
" clip-path="url(#p3b046af06e)" style="fill: none; stroke: #a9a9a9; stroke-opacity: 0.7; stroke-width: 1.5; stroke-linecap: round"/>
     </g>
     <g id="text_10">
      <!-- 10 -->
      <g style="fill: #262626" transform="translate(938.363536 532.769063) scale(0.14 -0.14)">
       <defs>
        <path id="MalgunGothic-30" d="M 278 2206 
Q 278 3425 675 4050 
Q 1072 4675 1819 4675 
Q 3253 4675 3253 2319 
Q 3253 1156 2854 539 
Q 2456 -78 1716 -78 
Q 1016 -78 647 520 
Q 278 1119 278 2206 
z
M 784 2231 
Q 784 344 1769 344 
Q 2747 344 2747 2259 
Q 2747 4250 1794 4250 
Q 784 4250 784 2231 
z
" transform="scale(0.015625)"/>
       </defs>
       <use xlink:href="#MalgunGothic-31"/>
       <use xlink:href="#MalgunGothic-30" x="55.078125"/>
      </g>
     </g>
    </g>
    <g id="text_11">
     <!-- 상대 시간(일) -->
     <g style="fill: #262626" transform="translate(505.8125 552.57125) scale(0.16 -0.16)">
      <defs>
       <path id="MalgunGothic-c0c1" d="M 5125 3391 
L 5125 1991 
L 4659 1991 
L 4659 5466 
L 5125 5466 
L 5125 3816 
L 6034 3816 
L 6034 3391 
L 5125 3391 
z
M 3603 2316 
Q 3206 2528 2778 2934 
Q 2350 3341 2188 3681 
Q 2022 3291 1609 2852 
Q 1197 2413 750 2163 
L 409 2484 
Q 1072 2806 1512 3397 
Q 1953 3988 1953 4628 
L 1953 5259 
L 2400 5259 
L 2400 4628 
Q 2400 4025 2845 3472 
Q 3291 2919 3909 2656 
L 3603 2316 
z
M 3263 -513 
Q 2322 -513 1811 -186 
Q 1300 141 1300 659 
Q 1300 1175 1812 1500 
Q 2325 1825 3263 1825 
Q 4203 1825 4715 1501 
Q 5228 1178 5228 659 
Q 5228 138 4717 -187 
Q 4206 -513 3263 -513 
z
M 3263 1428 
Q 2563 1428 2180 1215 
Q 1797 1003 1797 659 
Q 1797 309 2181 96 
Q 2566 -116 3263 -116 
Q 3969 -116 4353 98 
Q 4738 313 4738 659 
Q 4738 1000 4353 1214 
Q 3969 1428 3263 1428 
z
" transform="scale(0.015625)"/>
       <path id="MalgunGothic-b300" d="M 5069 -563 
L 5069 2572 
L 4294 2572 
L 4294 -378 
L 3834 -378 
L 3834 5344 
L 4294 5344 
L 4294 2988 
L 5069 2988 
L 5069 5466 
L 5538 5466 
L 5538 -563 
L 5069 -563 
z
M 3391 1153 
Q 2516 1063 825 1063 
L 825 4934 
L 3138 4934 
L 3138 4519 
L 1288 4519 
L 1288 1478 
L 1844 1478 
Q 2791 1478 3359 1550 
L 3391 1153 
z
" transform="scale(0.015625)"/>
       <path id="MalgunGothic-20" transform="scale(0.015625)"/>
       <path id="MalgunGothic-c2dc" d="M 4947 -563 
L 4947 5466 
L 5416 5466 
L 5416 -563 
L 4947 -563 
z
M 3769 966 
Q 3263 1353 2820 1939 
Q 2378 2525 2259 2950 
Q 2116 2463 1687 1872 
Q 1259 1281 756 891 
L 397 1203 
Q 1141 1703 1581 2479 
Q 2022 3256 2022 4063 
L 2022 5050 
L 2484 5050 
L 2484 4084 
Q 2484 3303 2920 2556 
Q 3356 1809 4097 1331 
L 3769 966 
z
" transform="scale(0.015625)"/>
       <path id="MalgunGothic-ac04" d="M 5125 3122 
L 5125 1063 
L 4659 1063 
L 4659 5466 
L 5125 5466 
L 5125 3541 
L 6034 3541 
L 6034 3122 
L 5125 3122 
z
M 3513 5100 
Q 3403 3872 2556 3011 
Q 1709 2150 794 1800 
L 469 2163 
Q 1344 2450 2087 3172 
Q 2831 3894 2963 4678 
L 831 4678 
L 831 5100 
L 3513 5100 
z
M 1459 -325 
L 1459 1509 
L 1925 1509 
L 1925 97 
L 5294 97 
L 5294 -325 
L 1459 -325 
z
" transform="scale(0.015625)"/>
       <path id="MalgunGothic-28" d="M 1438 -1044 
Q 447 88 447 1753 
Q 447 3431 1438 4600 
L 1888 4600 
Q 878 3372 878 1759 
Q 878 153 1881 -1044 
L 1438 -1044 
z
" transform="scale(0.015625)"/>
       <path id="MalgunGothic-c77c" d="M 4947 2363 
L 4947 5466 
L 5422 5466 
L 5422 2363 
L 4947 2363 
z
M 2419 2578 
Q 1738 2578 1314 2970 
Q 891 3363 891 3969 
Q 891 4572 1314 4961 
Q 1738 5350 2419 5350 
Q 3097 5350 3523 4959 
Q 3950 4569 3950 3969 
Q 3950 3366 3522 2972 
Q 3094 2578 2419 2578 
z
M 2419 4947 
Q 1931 4947 1643 4680 
Q 1356 4413 1356 3969 
Q 1356 3522 1643 3248 
Q 1931 2975 2419 2975 
Q 2906 2975 3193 3248 
Q 3481 3522 3481 3969 
Q 3481 4413 3193 4680 
Q 2906 4947 2419 4947 
z
M 1703 -422 
L 1703 1038 
L 4959 1038 
L 4959 1613 
L 1703 1613 
L 1703 2028 
L 5422 2028 
L 5422 634 
L 2163 634 
L 2163 -6 
L 5588 -6 
L 5588 -422 
L 1703 -422 
z
" transform="scale(0.015625)"/>
       <path id="MalgunGothic-29" d="M 81 -1044 
Q 1081 150 1081 1759 
Q 1081 3378 72 4600 
L 525 4600 
Q 1522 3431 1522 1753 
Q 1522 88 525 -1044 
L 81 -1044 
z
" transform="scale(0.015625)"/>
      </defs>
      <use xlink:href="#MalgunGothic-c0c1"/>
      <use xlink:href="#MalgunGothic-b300" x="100"/>
      <use xlink:href="#MalgunGothic-20" x="200"/>
      <use xlink:href="#MalgunGothic-c2dc" x="235.15625"/>
      <use xlink:href="#MalgunGothic-ac04" x="335.15625"/>
      <use xlink:href="#MalgunGothic-28" x="435.15625"/>
      <use xlink:href="#MalgunGothic-c77c" x="465.625"/>
      <use xlink:href="#MalgunGothic-29" x="565.625"/>
     </g>
    </g>
   </g>
   <g id="matplotlib.axis_2">
    <g id="ytick_1">
     <g id="text_12">
      <!-- 0 -->
      <g style="fill: #262626" transform="translate(117.789062 500.064557) scale(0.14 -0.14)">
       <use xlink:href="#MalgunGothic-30"/>
      </g>
     </g>
    </g>
    <g id="ytick_2">
     <g id="text_13">
      <!-- 10000 -->
      <g style="fill: #262626" transform="translate(86.945312 436.867857) scale(0.14 -0.14)">
       <use xlink:href="#MalgunGothic-31"/>
       <use xlink:href="#MalgunGothic-30" x="55.078125"/>
       <use xlink:href="#MalgunGothic-30" x="110.15625"/>
       <use xlink:href="#MalgunGothic-30" x="165.234375"/>
       <use xlink:href="#MalgunGothic-30" x="220.3125"/>
      </g>
     </g>
    </g>
    <g id="ytick_3">
     <g id="text_14">
      <!-- 20000 -->
      <g style="fill: #262626" transform="translate(86.945312 373.671157) scale(0.14 -0.14)">
       <use xlink:href="#MalgunGothic-32"/>
       <use xlink:href="#MalgunGothic-30" x="55.078125"/>
       <use xlink:href="#MalgunGothic-30" x="110.15625"/>
       <use xlink:href="#MalgunGothic-30" x="165.234375"/>
       <use xlink:href="#MalgunGothic-30" x="220.3125"/>
      </g>
     </g>
    </g>
    <g id="ytick_4">
     <g id="text_15">
      <!-- 30000 -->
      <g style="fill: #262626" transform="translate(86.945312 310.474458) scale(0.14 -0.14)">
       <use xlink:href="#MalgunGothic-33"/>
       <use xlink:href="#MalgunGothic-30" x="55.078125"/>
       <use xlink:href="#MalgunGothic-30" x="110.15625"/>
       <use xlink:href="#MalgunGothic-30" x="165.234375"/>
       <use xlink:href="#MalgunGothic-30" x="220.3125"/>
      </g>
     </g>
    </g>
    <g id="ytick_5">
     <g id="text_16">
      <!-- 40000 -->
      <g style="fill: #262626" transform="translate(86.945312 247.277758) scale(0.14 -0.14)">
       <use xlink:href="#MalgunGothic-34"/>
       <use xlink:href="#MalgunGothic-30" x="55.078125"/>
       <use xlink:href="#MalgunGothic-30" x="110.15625"/>
       <use xlink:href="#MalgunGothic-30" x="165.234375"/>
       <use xlink:href="#MalgunGothic-30" x="220.3125"/>
      </g>
     </g>
    </g>
    <g id="ytick_6">
     <g id="text_17">
      <!-- 50000 -->
      <g style="fill: #262626" transform="translate(86.945312 184.081058) scale(0.14 -0.14)">
       <use xlink:href="#MalgunGothic-35"/>
       <use xlink:href="#MalgunGothic-30" x="55.078125"/>
       <use xlink:href="#MalgunGothic-30" x="110.15625"/>
       <use xlink:href="#MalgunGothic-30" x="165.234375"/>
       <use xlink:href="#MalgunGothic-30" x="220.3125"/>
      </g>
     </g>
    </g>
    <g id="ytick_7">
     <g id="text_18">
      <!-- 60000 -->
      <g style="fill: #262626" transform="translate(86.945312 120.884358) scale(0.14 -0.14)">
       <use xlink:href="#MalgunGothic-36"/>
       <use xlink:href="#MalgunGothic-30" x="55.078125"/>
       <use xlink:href="#MalgunGothic-30" x="110.15625"/>
       <use xlink:href="#MalgunGothic-30" x="165.234375"/>
       <use xlink:href="#MalgunGothic-30" x="220.3125"/>
      </g>
     </g>
    </g>
    <g id="text_19">
     <!-- 이산화탄소 농도 -->
     <g style="fill: #262626" transform="translate(79.162813 349.6925) rotate(-90) scale(0.16 -0.16)">
      <defs>
       <path id="MalgunGothic-c774" d="M 4947 -563 
L 4947 5466 
L 5416 5466 
L 5416 -563 
L 4947 -563 
z
M 2284 959 
Q 1597 959 1173 1514 
Q 750 2069 750 3016 
Q 750 3975 1169 4522 
Q 1588 5069 2284 5069 
Q 2978 5069 3403 4522 
Q 3828 3975 3828 3016 
Q 3828 2063 3401 1511 
Q 2975 959 2284 959 
z
M 2284 4653 
Q 1803 4653 1503 4204 
Q 1203 3756 1203 3016 
Q 1203 2278 1506 1826 
Q 1809 1375 2284 1375 
Q 2756 1375 3061 1828 
Q 3366 2281 3366 3016 
Q 3366 3759 3067 4206 
Q 2769 4653 2284 4653 
z
" transform="scale(0.015625)"/>
       <path id="MalgunGothic-c0b0" d="M 5125 3169 
L 5125 1081 
L 4659 1081 
L 4659 5466 
L 5125 5466 
L 5125 3584 
L 6034 3584 
L 6034 3169 
L 5125 3169 
z
M 3597 2081 
Q 3206 2294 2778 2731 
Q 2350 3169 2188 3525 
Q 2038 3125 1603 2642 
Q 1169 2159 750 1925 
L 409 2247 
Q 1041 2553 1492 3173 
Q 1944 3794 1953 4453 
L 1953 5228 
L 2400 5228 
L 2400 4453 
Q 2400 3841 2853 3259 
Q 3306 2678 3909 2419 
L 3597 2081 
z
M 1478 -353 
L 1478 1528 
L 1953 1528 
L 1953 72 
L 5325 72 
L 5325 -353 
L 1478 -353 
z
" transform="scale(0.015625)"/>
       <path id="MalgunGothic-d654" d="M 5228 2363 
L 5228 -563 
L 4763 -563 
L 4763 5466 
L 5228 5466 
L 5228 2778 
L 6156 2778 
L 6156 2363 
L 5228 2363 
z
M 2131 5441 
L 2591 5441 
L 2591 4653 
L 4159 4653 
L 4159 4238 
L 556 4238 
L 556 4653 
L 2131 4653 
L 2131 5441 
z
M 2591 1741 
L 2591 884 
Q 3688 900 4409 947 
L 4441 544 
Q 2791 447 359 447 
L 313 856 
Q 1141 856 2125 878 
L 2125 1734 
Q 1506 1791 1175 2092 
Q 844 2394 844 2828 
Q 844 3316 1250 3627 
Q 1656 3938 2363 3938 
Q 3059 3938 3465 3633 
Q 3872 3328 3872 2859 
Q 3872 2400 3536 2098 
Q 3200 1797 2591 1741 
z
M 2363 3541 
Q 1875 3541 1594 3342 
Q 1313 3144 1313 2828 
Q 1313 2513 1592 2319 
Q 1872 2125 2363 2125 
Q 2847 2125 3126 2320 
Q 3406 2516 3406 2828 
Q 3406 3144 3125 3342 
Q 2844 3541 2363 3541 
z
" transform="scale(0.015625)"/>
       <path id="MalgunGothic-d0c4" d="M 5125 3169 
L 5125 1125 
L 4659 1125 
L 4659 5466 
L 5125 5466 
L 5125 3584 
L 6034 3584 
L 6034 3169 
L 5125 3169 
z
M 1319 3431 
L 1319 2553 
Q 3244 2553 3872 2613 
L 3903 2209 
Q 3306 2138 850 2138 
L 850 5081 
L 3688 5081 
L 3688 4666 
L 1319 4666 
L 1319 3834 
L 3372 3834 
L 3372 3431 
L 1319 3431 
z
M 1459 -378 
L 1459 1606 
L 1925 1606 
L 1925 38 
L 5294 38 
L 5294 -378 
L 1459 -378 
z
" transform="scale(0.015625)"/>
       <path id="MalgunGothic-c18c" d="M 3194 3909 
Q 2963 3416 2330 2941 
Q 1697 2466 959 2259 
L 641 2631 
Q 1700 2872 2328 3497 
Q 2956 4122 2956 4666 
L 2956 4984 
L 3438 4984 
L 3438 4666 
Q 3438 4131 4069 3506 
Q 4700 2881 5759 2631 
L 5428 2266 
Q 4719 2481 4072 2957 
Q 3425 3434 3194 3909 
z
M 403 384 
L 403 800 
L 2963 800 
L 2963 2266 
L 3438 2266 
L 3438 800 
L 5997 800 
L 5997 384 
L 403 384 
z
" transform="scale(0.015625)"/>
       <path id="MalgunGothic-b18d" d="M 403 2247 
L 403 2663 
L 2963 2663 
L 2963 3475 
L 1375 3475 
L 1375 5338 
L 1844 5338 
L 1844 3897 
L 5178 3897 
L 5178 3475 
L 3438 3475 
L 3438 2663 
L 5997 2663 
L 5997 2247 
L 403 2247 
z
M 3200 -488 
Q 2256 -488 1745 -186 
Q 1234 116 1234 634 
Q 1234 1150 1745 1451 
Q 2256 1753 3200 1753 
Q 4144 1753 4655 1451 
Q 5166 1150 5166 634 
Q 5166 116 4655 -186 
Q 4144 -488 3200 -488 
z
M 3200 1356 
Q 2478 1356 2103 1161 
Q 1728 966 1728 634 
Q 1728 303 2100 106 
Q 2472 -91 3200 -91 
Q 3925 -91 4298 106 
Q 4672 303 4672 634 
Q 4672 969 4297 1162 
Q 3922 1356 3200 1356 
z
" transform="scale(0.015625)"/>
       <path id="MalgunGothic-b3c4" d="M 403 372 
L 403 788 
L 2963 788 
L 2963 2181 
L 1350 2181 
L 1350 4897 
L 5050 4897 
L 5050 4481 
L 1819 4481 
L 1819 2600 
L 5147 2600 
L 5147 2181 
L 3438 2181 
L 3438 788 
L 5997 788 
L 5997 372 
L 403 372 
z
" transform="scale(0.015625)"/>
      </defs>
      <use xlink:href="#MalgunGothic-c774"/>
      <use xlink:href="#MalgunGothic-c0b0" x="100"/>
      <use xlink:href="#MalgunGothic-d654" x="200"/>
      <use xlink:href="#MalgunGothic-d0c4" x="300"/>
      <use xlink:href="#MalgunGothic-c18c" x="400"/>
      <use xlink:href="#MalgunGothic-20" x="500"/>
      <use xlink:href="#MalgunGothic-b18d" x="535.15625"/>
      <use xlink:href="#MalgunGothic-b3c4" x="635.15625"/>
     </g>
    </g>
   </g>
   <g id="line2d_11">
    <path d="M 135 482.719902 
L 135.338159 468.220051 
L 135.901757 428.080035 
L 136.803515 360.795773 
L 137.254394 352.349534 
L 137.705272 347.708368 
L 137.930712 347.02142 
L 137.987072 347.200899 
L 138.043431 347.447366 
L 138.099791 347.288742 
L 138.156151 346.673838 
L 138.66339 354.10261 
L 138.71975 354.371196 
L 139.001549 343.306718 
L 139.621507 319.558662 
L 143.284897 223.006744 
L 145.426571 167.401864 
L 146.384688 134.602145 
L 147.793684 89.28 
L 147.850044 92.137123 
L 147.906404 93.821947 
L 148.188203 213.967721 
L 148.413642 244.634551 
L 148.470002 254.370635 
L 148.639082 163.33958 
L 148.695441 171.364297 
L 148.808161 175.398143 
L 148.864521 175.002531 
L 148.977241 172.328047 
L 149.08996 164.010097 
L 149.14632 165.121095 
L 149.25904 173.456108 
L 149.822638 259.654511 
L 149.935358 266.941722 
L 150.668036 346.817927 
L 150.780756 349.836201 
L 151.344354 378.382782 
L 151.400714 378.095869 
L 151.626153 371.38438 
L 151.795233 364.951588 
L 151.851592 364.660883 
L 151.907952 363.549253 
L 151.964312 364.161629 
L 152.133392 371.011519 
L 152.58427 387.827529 
L 153.091509 393.401478 
L 153.598748 391.078367 
L 153.711467 391.14978 
L 153.936907 392.490182 
L 154.162346 393.063376 
L 154.275066 393.113301 
L 155.007744 395.448419 
L 155.120463 395.647489 
L 155.289543 396.70477 
L 155.345903 396.525923 
L 155.402262 396.633989 
L 156.13494 401.28337 
L 156.1913 400.950956 
L 156.36038 400.372074 
L 156.698539 399.519551 
L 156.867618 400.10728 
L 157.262137 401.866044 
L 157.318497 401.896378 
L 157.487577 400.985714 
L 157.882095 396.069011 
L 158.220255 393.809729 
L 158.276614 394.293184 
L 158.671133 396.068379 
L 158.783853 396.074698 
L 158.896573 395.042064 
L 159.178372 390.744689 
L 159.234732 390.794614 
L 159.291092 390.987364 
L 159.403811 390.633463 
L 159.572891 389.00046 
L 159.68561 389.423878 
L 159.74197 390.717514 
L 159.79833 390.701083 
L 159.85469 389.836552 
L 159.91105 389.975585 
L 159.96741 389.824545 
L 160.192849 393.468467 
L 160.418288 396.494957 
L 160.756447 398.981115 
L 160.925527 398.56844 
L 160.981887 398.46227 
L 161.038247 398.550113 
L 161.263686 398.670187 
L 161.376406 399.515759 
L 161.432765 399.186504 
L 161.940004 395.176041 
L 162.052724 395.641169 
L 162.109084 395.610203 
L 162.729042 385.078473 
L 162.785402 385.299029 
L 163.010841 386.351254 
L 163.067201 386.566755 
L 163.23628 387.565263 
L 163.29264 387.653106 
L 163.574439 386.483967 
L 163.630799 386.837237 
L 163.743519 386.344303 
L 163.799879 386.608465 
L 163.856239 386.40434 
L 163.968958 384.786504 
L 164.532557 372.778499 
L 164.588917 373.10333 
L 164.757996 374.422245 
L 164.814356 374.006411 
L 164.870716 374.245926 
L 165.152515 377.223755 
L 165.321595 376.792121 
L 165.490674 377.632638 
L 165.547034 377.587136 
L 165.659754 377.009518 
L 165.885193 372.848647 
L 166.054272 370.852264 
L 166.674231 338.515144 
L 166.730591 338.60362 
L 166.84331 340.750412 
L 166.89967 341.444311 
L 166.95603 341.190261 
L 167.181469 338.497449 
L 167.406909 329.612625 
L 167.632348 324.303471 
L 168.139587 313.97397 
L 168.365026 306.765754 
L 168.421386 307.098169 
L 168.477746 307.336421 
L 168.534105 307.267536 
L 169.097704 301.771951 
L 169.154064 301.957749 
L 169.323143 304.957065 
L 169.604942 313.370441 
L 169.886742 320.674716 
L 169.999461 322.119393 
L 170.168541 325.669783 
L 170.224901 325.61733 
L 170.33762 324.953133 
L 170.45034 326.117848 
L 170.5067 325.968072 
L 170.788499 322.363964 
L 170.844859 322.66162 
L 170.901219 323.693622 
L 170.957579 323.08251 
L 171.013938 322.251474 
L 171.070298 322.437904 
L 171.295738 324.477261 
L 171.633897 326.445839 
L 171.746616 325.324097 
L 171.802976 325.616066 
L 171.972056 327.365983 
L 172.197495 324.996738 
L 172.253855 325.437219 
L 172.366575 325.945953 
L 172.479294 324.844434 
L 172.535654 324.908263 
L 172.704734 327.31037 
L 172.873813 328.969915 
L 172.986533 328.33226 
L 173.155612 329.395229 
L 173.211972 329.828126 
L 173.268332 329.653703 
L 173.324692 329.436307 
L 173.493771 330.779236 
L 173.550131 331.711388 
L 173.606491 331.019384 
L 174.00101 320.351149 
L 174.11373 317.325923 
L 174.17009 317.844136 
L 174.395529 326.370003 
L 174.846408 344.902435 
L 175.184567 351.237272 
L 175.240927 350.909281 
L 175.353646 346.434955 
L 175.635445 320.179254 
L 175.917245 292.555345 
L 175.973604 292.665307 
L 176.199044 295.85674 
L 176.424483 310.342056 
L 176.480843 309.505963 
L 177.044441 282.865395 
L 177.100801 282.933647 
L 177.213521 282.280825 
L 177.43896 279.046418 
L 177.6644 272.325449 
L 177.889839 278.463744 
L 178.058919 281.338562 
L 178.115278 281.346778 
L 178.227998 277.850736 
L 178.791597 248.069924 
L 178.904316 248.704419 
L 178.960676 248.40929 
L 179.186115 247.544127 
L 179.524274 242.885266 
L 179.580634 242.920025 
L 179.862434 243.514074 
L 180.144233 237.763174 
L 180.369672 233.271784 
L 180.538752 245.525625 
L 181.27143 302.712318 
L 181.553229 311.540265 
L 181.609589 311.774093 
L 181.835028 315.359242 
L 181.891388 315.646787 
L 182.060467 318.271346 
L 182.116827 317.699415 
L 182.398626 310.197335 
L 182.511346 310.780641 
L 182.567706 311.171828 
L 182.736785 316.214925 
L 183.018585 331.17864 
L 183.131304 321.998687 
L 183.413103 265.043293 
L 183.863982 174.663797 
L 184.371221 133.385609 
L 185.047539 94.283283 
L 185.611137 481.413626 
L 185.667497 478.951482 
L 186.512895 447.810677 
L 187.358292 424.195966 
L 190.232644 354.711195 
L 191.528921 311.063762 
L 192.374318 290.912862 
L 194.065113 255.073382 
L 194.177833 287.864253 
L 194.234193 270.315794 
L 194.741432 120.837904 
L 195.19231 360.762279 
L 195.30503 413.662972 
L 195.36139 403.733507 
L 195.586829 366.138422 
L 195.924988 240.587434 
L 195.981348 251.892692 
L 196.150428 298.006692 
L 196.488587 445.176638 
L 196.544946 436.564192 
L 196.883106 397.371495 
L 198.235742 316.79823 
L 198.8557 295.600793 
L 198.91206 293.121587 
L 199.250219 402.875295 
L 199.532018 484.77885 
L 199.588378 483.722833 
L 200.208336 470.787101 
L 201.053734 457.351482 
L 201.955491 444.226792 
L 202.011851 443.99486 
L 202.23729 445.217716 
L 202.29365 445.232883 
L 202.40637 444.913108 
L 202.575449 442.525537 
L 203.139048 425.589453 
L 203.533567 417.552097 
L 203.589927 424.426634 
L 203.646286 421.991033 
L 204.097165 388.822877 
L 204.322605 358.019542 
L 204.717123 301.432585 
L 205.280722 184.088321 
L 205.84432 416.064447 
L 206.689718 156.743741 
L 207.253316 426.572794 
L 207.309676 415.055827 
L 207.591475 384.043311 
L 207.816915 375.131312 
L 390.648239 375.131312 
L 390.760959 386.7772 
L 391.211838 386.7772 
L 391.324557 375.131312 
L 391.944516 375.131312 
L 392.000875 358.230619 
L 392.057235 362.548849 
L 392.620834 448.273909 
L 392.677193 443.448209 
L 393.071712 371.099363 
L 393.578951 232.344057 
L 393.635311 220.580623 
L 393.86075 318.098819 
L 393.91711 311.771565 
L 394.02983 317.439677 
L 394.198909 388.882282 
L 394.255269 378.150219 
L 394.367989 375.131312 
L 394.424349 375.131312 
L 394.480708 356.590032 
L 394.537068 366.779236 
L 394.875227 416.54411 
L 394.987947 419.063762 
L 395.044307 434.701785 
L 395.269746 339.034621 
L 395.326106 306.724677 
L 395.382466 311.657179 
L 395.438826 312.320112 
L 395.551545 298.958434 
L 395.664265 263.076612 
L 395.720625 280.757785 
L 395.889704 339.700714 
L 396.002424 331.743618 
L 396.171504 384.506543 
L 396.227863 407.553747 
L 396.284223 391.53212 
L 396.453303 333.997844 
L 396.566022 343.270064 
L 396.735102 297.114354 
L 396.791462 278.099099 
L 397.016901 358.627494 
L 397.073261 347.353203 
L 397.129621 341.705314 
L 397.185981 342.660216 
L 397.2987 364.629285 
L 397.35506 387.844592 
L 397.41142 377.836763 
L 397.52414 375.131312 
L 397.693219 375.131312 
L 397.749579 376.278964 
L 397.975019 336.587645 
L 398.031378 307.175901 
L 398.087738 314.919393 
L 398.200458 318.354765 
L 398.256818 318.354765 
L 398.313178 317.207113 
L 398.482257 341.529943 
L 398.594977 394.816136 
L 398.651337 387.072645 
L 398.764056 383.637272 
L 398.933136 383.637272 
L 399.158575 375.131312 
L 399.214935 359.497081 
L 399.271295 362.339668 
L 399.553094 362.339668 
L 399.778533 391.424053 
L 399.891253 388.581466 
L 400.116692 388.581466 
L 400.342132 375.131312 
L 400.511211 400.865008 
L 401.01845 484.263165 
L 401.07481 484.982976 
L 401.187529 470.340932 
L 401.243889 455.461269 
L 401.300249 456.191191 
L 401.638408 460.117602 
L 401.751128 476.333875 
L 401.863848 491.935876 
L 402.202007 491.777885 
L 402.540166 492.388997 
L 402.596525 492.210782 
L 402.765605 492.150745 
L 403.103764 492.098924 
L 403.272844 492.366246 
L 403.723722 492.311897 
L 403.836442 464.318603 
L 404.230961 322.54439 
L 404.4564 273.760646 
L 404.62548 346.557556 
L 404.68184 334.869959 
L 404.794559 327.288251 
L 404.850919 329.594298 
L 404.963639 358.056196 
L 405.019999 383.027108 
L 405.076358 375.131312 
L 440.526699 375.131312 
L 440.583058 366.087864 
L 441.090297 467.119164 
L 441.259376 490.587891 
L 441.484816 491.066922 
L 442.555653 491.632532 
L 443.57013 491.434727 
L 444.302808 491.526994 
L 444.753687 491.595878 
L 445.260925 491.671082 
L 445.599084 491.544057 
L 445.993603 491.588927 
L 446.726281 491.554168 
L 447.797118 491.619893 
L 449.037035 490.915882 
L 449.713353 490.900714 
L 451.460508 490.690269 
L 452.474985 491.103576 
L 453.151303 491.324764 
L 453.602182 491.441678 
L 454.2785 491.611045 
L 454.954818 491.74755 
L 456.476534 491.820226 
L 457.209212 491.86004 
L 458.223689 491.836026 
L 458.561848 491.755766 
L 458.843647 491.715952 
L 459.069086 491.652123 
L 459.801764 491.434727 
L 460.083563 491.614837 
L 460.534442 491.783572 
L 461.21076 491.719744 
L 461.605279 491.763349 
L 461.943438 491.802531 
L 462.168878 491.833498 
L 462.732476 491.82149 
L 463.296074 491.83413 
L 464.87415 491.945356 
L 465.155949 491.947884 
L 466.114066 491.891639 
L 466.395866 491.86636 
L 466.846744 491.925133 
L 467.410343 490.932313 
L 467.973941 491.431567 
L 469.382937 491.575023 
L 470.115615 491.727959 
L 470.679214 491.783572 
L 471.130092 491.612309 
L 471.693691 491.581343 
L 471.86277 490.828354 
L 472.257289 490.837834 
L 472.426369 491.569968 
L 472.708168 491.411976 
L 473.215406 491.092832 
L 473.779005 491.13391 
L 474.060804 491.06629 
L 474.455323 491.475172 
L 474.737122 491.639484 
L 475.52616 491.334876 
L 475.864319 491.235657 
L 476.766076 491.289374 
L 477.273315 491.123799 
L 477.611474 491.05681 
L 478.90775 491.284318 
L 479.02047 490.784433 
L 479.07683 490.797072 
L 479.471349 491.115583 
L 479.640428 491.71216 
L 479.922227 491.688777 
L 480.316746 491.663499 
L 480.711265 491.589559 
L 481.274864 491.612309 
L 482.6275 491.578183 
L 483.022019 491.533313 
L 483.472897 491.559856 
L 486.403609 491.473277 
L 486.741768 491.523202 
L 487.079927 491.51625 
L 487.361726 491.505507 
L 487.812605 491.560488 
L 488.376204 491.612941 
L 488.601643 491.514986 
L 488.770723 491.589559 
L 488.996162 491.467589 
L 489.165241 491.59967 
L 489.334321 491.459373 
L 489.67248 491.636956 
L 489.72884 491.539001 
L 489.7852 491.603462 
L 490.123359 491.82465 
L 490.236078 491.735543 
L 490.292438 491.82149 
L 490.348798 491.769669 
L 490.743317 491.770933 
L 490.856037 491.748182 
L 490.968756 491.768405 
L 491.306915 491.839185 
L 491.475995 491.885319 
L 491.701434 491.840449 
L 491.870514 491.82465 
L 492.772271 491.486548 
L 493.05407 491.564912 
L 493.674029 491.642012 
L 494.068548 491.801899 
L 494.744866 491.746918 
L 494.970305 491.677402 
L 495.195744 491.649595 
L 495.590263 491.520042 
L 496.153862 491.538369 
L 496.548381 491.549113 
L 496.83018 491.613573 
L 497.281059 491.59019 
L 499.310013 491.60599 
L 499.648172 491.659707 
L 502.297084 491.489708 
L 502.747963 491.674874 
L 503.198842 491.667922 
L 504.269679 491.705208 
L 505.509595 491.612309 
L 507.763989 491.636956 
L 508.045788 491.626213 
L 510.243822 491.603462 
L 510.469261 491.558592 
L 510.751061 491.728591 
L 511.08922 491.645804 
L 511.483738 491.539001 
L 511.878257 491.458109 
L 513.005454 491.494131 
L 513.174534 491.461269 
L 513.399973 491.415768 
L 514.019931 491.24956 
L 514.301731 491.245768 
L 514.58353 491.171828 
L 514.752609 491.235025 
L 514.978049 491.455581 
L 515.372568 491.607254 
L 515.710727 491.500451 
L 515.879806 491.396809 
L 516.048886 491.369634 
L 516.274325 491.430935 
L 516.556124 491.247032 
L 517.288802 490.468449 
L 517.739681 490.738931 
L 518.303279 490.324993 
L 518.528719 490.427371 
L 518.697798 490.194175 
L 518.810518 490.044399 
L 519.035957 489.644364 
L 519.148677 489.674067 
L 519.374116 489.518603 
L 519.599556 489.471837 
L 519.655915 489.363771 
L 519.712275 489.420648 
L 519.881355 489.632989 
L 519.937715 489.549569 
L 520.388593 489.625405 
L 520.501313 489.701241 
L 520.839472 489.856073 
L 520.952192 489.989418 
L 521.233991 490.057039 
L 521.45943 489.976779 
L 521.57215 489.870608 
L 521.62851 489.949604 
L 521.68487 489.878824 
L 521.853949 489.763174 
L 522.023029 489.837114 
L 522.135748 489.835218 
L 522.192108 489.780869 
L 522.248468 489.861129 
L 522.417548 489.86808 
L 523.150226 487.949429 
L 523.206585 488.090357 
L 523.319305 488.163033 
L 523.657464 489.211467 
L 523.939263 489.136263 
L 524.164703 488.49292 
L 524.277422 488.688198 
L 524.502862 489.466149 
L 524.728301 490.456442 
L 524.841021 490.697221 
L 524.897381 490.59737 
L 525.0101 490.271907 
L 525.17918 490.477929 
L 525.23554 490.520902 
L 525.573699 491.488444 
L 525.799138 491.793684 
L 526.080937 491.979482 
L 528.50441 492.263235 
L 528.61713 492.079333 
L 528.72985 491.738703 
L 529.011649 491.430935 
L 529.124369 491.370898 
L 529.462528 491.700785 
L 530.026126 491.394913 
L 530.251566 491.314653 
L 530.984243 490.681422 
L 531.209683 490.258636 
L 531.886001 489.870608 
L 532.05508 489.820683 
L 532.33688 489.947076 
L 532.562319 489.758118 
L 533.125917 490.889339 
L 533.182277 490.809711 
L 533.576796 490.32752 
L 534.365834 488.944777 
L 534.478554 488.982063 
L 534.816713 489.481317 
L 535.042152 489.854177 
L 535.323951 490.100012 
L 535.60575 490.285179 
L 535.88755 490.387557 
L 536.282069 490.331312 
L 536.902027 490.170793 
L 537.127466 490.335736 
L 537.409265 490.297186 
L 537.972864 490.192279 
L 538.085583 490.154361 
L 538.311023 490.015961 
L 539.100061 490.090533 
L 539.494579 490.131611 
L 539.945458 490.11202 
L 540.339977 490.091165 
L 542.368931 489.80046 
L 542.70709 489.722728 
L 542.98889 489.904103 
L 543.270689 489.975515 
L 544.566965 489.809307 
L 545.074204 489.971723 
L 545.243283 490.017225 
L 545.750522 490.337 
L 546.088681 490.210607 
L 546.4832 488.381062 
L 546.652279 487.42616 
L 546.764999 487.73772 
L 547.159518 489.043995 
L 547.835836 488.599723 
L 548.061275 489.050315 
L 548.624874 490.209975 
L 549.357552 490.98603 
L 549.526631 490.951904 
L 549.752071 490.862796 
L 549.92115 490.801496 
L 550.146589 490.44633 
L 550.541108 490.784433 
L 550.766548 491.17246 
L 551.104707 491.324764 
L 551.442866 491.235025 
L 551.781025 491.005621 
L 552.231904 490.045663 
L 552.457343 489.899047 
L 552.570063 489.849121 
L 553.52818 489.014925 
L 553.753619 488.98775 
L 554.486297 489.188084 
L 555.275335 491.350675 
L 556.008013 491.274839 
L 556.177092 491.200899 
L 557.360649 491.264727 
L 558.318766 491.475172 
L 558.826005 491.296958 
L 559.051444 491.202795 
L 559.445963 490.453914 
L 559.558683 490.521534 
L 559.727762 490.889339 
L 560.009562 491.515618 
L 560.065921 491.489076 
L 560.347721 491.430935 
L 560.46044 491.484652 
L 560.798599 491.583871 
L 560.967679 491.551009 
L 561.249478 491.370898 
L 561.587637 491.540265 
L 561.643997 491.52257 
L 561.869436 491.239449 
L 562.038516 491.305173 
L 562.207595 491.465693 
L 562.433035 491.853721 
L 562.996633 491.717848 
L 563.503872 491.459373 
L 563.616591 491.616101 
L 563.729311 491.394281 
L 563.785671 491.462533 
L 563.898391 491.509299 
L 564.01111 491.399336 
L 564.29291 491.67361 
L 564.912868 491.933349 
L 565.532826 491.0309 
L 565.870985 491.435991 
L 566.998182 491.279263 
L 567.223621 491.244505 
L 567.392701 491.231865 
L 567.61814 491.214802 
L 567.73086 491.190155 
L 568.069019 490.78696 
L 568.181739 490.727556 
L 568.350818 490.622017 
L 568.519898 490.704805 
L 568.801697 490.511423 
L 569.027136 490.584731 
L 569.196216 490.542389 
L 569.816174 490.432427 
L 569.985254 490.37871 
L 570.210693 490.473505 
L 570.605212 490.55566 
L 570.999731 490.477297 
L 571.39425 490.68395 
L 571.506969 490.655511 
L 571.563329 490.762946 
L 571.619689 490.729451 
L 572.296007 490.335104 
L 572.465087 490.255476 
L 572.577806 490.191016 
L 572.746886 490.267484 
L 572.915965 490.18596 
L 573.085045 490.232093 
L 573.197764 490.290866 
L 573.310484 490.438115 
L 573.479564 490.563876 
L 573.648643 490.703541 
L 573.817723 490.7996 
L 574.268601 490.828038 
L 575.001279 490.551869 
L 575.226719 490.560716 
L 575.395798 490.516479 
L 575.564878 490.417892 
L 575.790317 490.359751 
L 576.015757 490.553765 
L 576.241196 490.561348 
L 576.353916 490.637816 
L 576.579355 490.567036 
L 576.917514 490.607482 
L 577.819271 490.330048 
L 577.988351 490.565772 
L 578.32651 490.623913 
L 579.059188 490.255476 
L 579.791866 490.624545 
L 580.580904 490.419788 
L 580.806343 490.433059 
L 581.031782 490.392613 
L 581.257222 490.552501 
L 581.482661 490.591051 
L 581.651741 490.678262 
L 582.497138 490.517742 
L 582.835297 490.623913 
L 584.864252 490.588523 
L 585.42785 490.611274 
L 585.596929 490.557556 
L 585.766009 490.626441 
L 585.935089 490.496888 
L 586.160528 490.593579 
L 586.442327 490.506999 
L 586.611407 490.457074 
L 586.836846 490.45897 
L 587.062285 490.509527 
L 587.625884 490.589155 
L 587.851323 490.655511 
L 588.020403 490.602426 
L 588.189482 490.547445 
L 588.640361 490.647928 
L 588.97852 490.44949 
L 589.09124 490.292762 
L 589.316679 490.302874 
L 589.429399 490.265588 
L 590.162077 491.02458 
L 591.232914 490.694693 
L 591.514713 490.786328 
L 591.965592 490.766106 
L 592.303751 490.745251 
L 592.36011 490.76105 
L 592.52919 490.604954 
L 592.867349 490.544285 
L 592.923709 490.515847 
L 593.036429 490.662463 
L 593.205508 490.560084 
L 593.600027 490.553133 
L 593.769106 490.730083 
L 594.501784 490.735771 
L 594.839943 490.966439 
L 595.009023 491.046067 
L 595.798061 490.5683 
L 596.0235 490.903242 
L 596.13622 490.986662 
L 596.19258 491.064394 
L 596.248939 491.014469 
L 596.418019 490.895027 
L 596.587099 490.890603 
L 597.150697 491.229337 
L 597.488856 491.183204 
L 597.827015 490.961383 
L 598.390613 490.816663 
L 598.559693 490.805919 
L 598.728772 490.785696 
L 598.954212 491.023948 
L 599.010572 490.973391 
L 599.51781 490.888075 
L 599.799609 490.570196 
L 599.855969 490.633392 
L 600.757727 488.659128 
L 600.983166 488.361471 
L 601.208605 488.248349 
L 601.377685 488.470801 
L 601.997643 487.292815 
L 602.110363 487.290919 
L 602.223083 487.11144 
L 602.279442 487.173373 
L 602.392162 487.261849 
L 602.448522 487.220139 
L 602.673961 487.397089 
L 602.730321 487.315566 
L 602.843041 487.277648 
L 602.899401 487.144303 
L 602.955761 487.274488 
L 603.01212 487.392666 
L 603.06848 487.331365 
L 603.29392 486.995158 
L 603.350279 487.04382 
L 603.632079 487.110808 
L 604.082957 487.448911 
L 604.252037 487.459654 
L 604.533836 487.690954 
L 604.702916 487.630285 
L 605.322874 487.845786 
L 605.548313 488.370319 
L 605.661033 488.30333 
L 605.830112 488.315337 
L 605.886472 488.314074 
L 606.111912 487.878648 
L 606.337351 488.182624 
L 606.61915 488.520727 
L 606.78823 488.372846 
L 606.957309 488.34188 
L 607.239108 488.442363 
L 607.689987 488.889795 
L 608.253586 489.03262 
L 608.535385 489.129311 
L 608.760824 488.9492 
L 608.986264 488.444259 
L 609.268063 488.448051 
L 609.380782 488.610466 
L 609.549862 488.763402 
L 609.831661 488.794368 
L 610.677059 489.070538 
L 613.044172 489.506595 
L 613.551411 489.10024 
L 613.77685 489.166597 
L 614.058649 489.21905 
L 614.565888 488.990278 
L 614.678608 489.049051 
L 615.185846 489.401057 
L 615.974884 489.552729 
L 616.425763 489.579271 
L 617.102081 488.963736 
L 617.722039 489.162173 
L 617.947478 489.368195 
L 618.003838 486.943337 
L 618.567437 258.121991 
L 618.623796 251.990647 
L 618.680156 255.085389 
L 618.792876 195.83406 
L 618.849236 210.145584 
L 619.243755 344.996598 
L 619.356474 399.826687 
L 619.412834 390.414802 
L 619.581914 371.411554 
L 620.089152 472.102856 
L 620.258232 489.514811 
L 620.540031 489.782765 
L 620.99091 489.887671 
L 621.159989 489.911686 
L 621.723588 490.019121 
L 622.230826 489.857337 
L 622.625345 344.554221 
L 622.794425 338.44942 
L 623.076224 426.268818 
L 623.414383 268.555766 
L 623.639822 178.543442 
L 624.203421 429.621403 
L 624.31614 408.894149 
L 624.42886 399.688286 
L 624.654299 428.71453 
L 625.105178 489.477525 
L 625.443337 489.948972 
L 626.795973 490.369862 
L 627.077773 490.331312 
L 627.641371 490.172057 
L 628.204969 490.582203 
L 628.655848 490.845733 
L 629.444886 490.687742 
L 629.670325 490.517111 
L 629.839405 490.489304 
L 630.403003 490.935473 
L 631.135681 490.738931 
L 631.755639 490.731979 
L 632.093798 490.70986 
L 632.375598 490.63592 
L 632.770116 490.240309 
L 632.995556 490.235253 
L 633.277355 490.33384 
L 633.559154 490.345847 
L 634.010033 490.525326 
L 634.460912 490.335736 
L 634.855431 490.293394 
L 635.362669 490.400829 
L 636.771665 489.960348 
L 637.166184 489.904103 
L 637.842502 490.024176 
L 638.349741 489.988786 
L 638.57518 490.089269 
L 638.913339 490.240309 
L 640.322335 490.179008 
L 640.491415 490.231461 
L 640.773214 490.290234 
L 641.618612 490.194807 
L 641.900411 490.125291 
L 643.140327 490.263692 
L 643.647566 490.795808 
L 644.887482 490.211238 
L 645.451081 490.208079 
L 646.071039 490.441274 
L 647.198236 490.438747 
L 648.832671 490.649192 
L 650.523466 490.692165 
L 650.748906 490.759786 
L 651.763383 490.629601 
L 652.101542 490.747778 
L 652.77786 490.787592 
L 654.412295 490.733875 
L 654.750455 490.775585 
L 655.144973 490.832462 
L 655.483132 490.743987 
L 656.38489 490.914618 
L 656.666689 490.917146 
L 657.681166 491.011309 
L 658.075685 491.083985 
L 658.357484 490.990454 
L 658.864723 490.889339 
L 659.76648 490.996773 
L 660.724598 490.910194 
L 661.513635 490.987926 
L 662.189954 490.871644 
L 663.260791 491.038483 
L 664.387987 490.98603 
L 668.727695 490.850157 
L 669.234934 491.075137 
L 669.798532 491.217962 
L 671.771127 491.029636 
L 672.334725 491.055546 
L 674.363679 490.884283 
L 674.814558 490.822351 
L 675.265437 490.6454 
L 678.365228 490.305402 
L 678.759747 490.087373 
L 678.985186 490.158785 
L 679.379705 490.451386 
L 679.717864 490.552501 
L 681.12686 490.522798 
L 682.310417 489.646892 
L 682.817655 489.883248 
L 683.324894 489.750535 
L 683.550333 489.730944 
L 683.775773 489.759382 
L 684.057572 489.830794 
L 684.395731 489.606446 
L 684.62117 489.492692 
L 684.902969 488.895483 
L 685.410208 487.428056 
L 685.692007 487.1146 
L 685.804727 487.374971 
L 686.142886 489.040836 
L 686.311966 489.687338 
L 686.762844 489.222842 
L 687.326443 489.576112 
L 687.439162 489.694289 
L 687.777321 490.024176 
L 687.946401 490.032392 
L 689.186317 489.23169 
L 689.468117 489.255072 
L 689.637196 489.188084 
L 689.806276 489.171653 
L 689.975355 489.240537 
L 690.313514 489.474365 
L 690.538954 489.737263 
L 690.764393 489.915478 
L 690.989832 489.791612 
L 691.384351 489.276559 
L 691.77887 489.128679 
L 692.060669 488.186416 
L 692.567908 486.047208 
L 692.793347 485.877209 
L 693.244226 486.07691 
L 693.469665 486.334753 
L 693.638745 487.11776 
L 694.258703 490.03808 
L 694.427783 490.130979 
L 694.596862 489.99321 
L 695.104101 489.756854 
L 695.27318 489.841538 
L 695.667699 489.694921 
L 696.118578 488.293851 
L 696.287657 488.740651 
L 696.738536 490.134139 
L 697.696653 490.166369 
L 698.316612 490.18596 
L 699.04929 490.288338 
L 699.500168 490.05767 
L 699.669248 489.533138 
L 700.401926 486.549622 
L 700.683725 486.593859 
L 700.965524 486.684863 
L 701.247323 486.476314 
L 701.867282 485.753975 
L 702.31816 485.59472 
L 703.445357 485.616838 
L 704.008956 485.547322 
L 704.628914 485.802637 
L 704.967073 486.207096 
L 705.417952 486.853598 
L 705.86883 487.30735 
L 706.826948 488.458162 
L 707.334186 488.365895 
L 707.672345 488.587715 
L 708.179584 489.040204 
L 708.405023 489.134367 
L 708.574103 489.096449 
L 708.855902 489.247489 
L 709.024981 489.383994 
L 709.306781 489.679122 
L 709.58858 489.832058 
L 711.392095 490.183432 
L 711.842974 489.287303 
L 711.955693 489.236745 
L 712.688371 490.163209 
L 713.590129 490.227038 
L 714.153727 490.589155 
L 714.942765 490.117075 
L 715.168204 490.083581 
L 715.788162 490.652983 
L 716.239041 490.478561 
L 716.52084 490.542389 
L 716.858999 490.570828 
L 717.422598 490.311721 
L 718.155276 490.161313 
L 718.380715 490.196071 
L 718.775234 490.359751 
L 719.282473 490.383134 
L 719.846071 490.579043 
L 720.24059 490.553765 
L 720.691469 490.436219 
L 721.198707 490.472241 
L 721.536866 490.543653 
L 722.156824 490.929785 
L 722.945862 491.059338 
L 723.396741 491.248928 
L 724.862097 491.290006 
L 725.763854 491.302645 
L 726.045653 491.338668 
L 726.496532 491.363314 
L 726.891051 491.37785 
L 727.22921 491.325396 
L 728.694566 491.378482 
L 729.258164 491.376586 
L 729.596323 491.52257 
L 729.821763 491.494131 
L 730.83624 491.474541 
L 731.568918 491.478964 
L 731.794357 491.412608 
L 734.105111 491.485284 
L 734.49963 491.696361 
L 735.232308 491.815803 
L 736.359504 491.884055 
L 736.866743 491.94662 
L 737.317622 491.788628 
L 737.712141 491.923237 
L 737.99394 491.921973 
L 738.332099 491.849297 
L 741.770049 491.994649 
L 742.615447 492.10398 
L 744.86984 492.038255 
L 745.997037 492.015504 
L 746.447916 491.999705 
L 747.687832 491.923869 
L 747.969632 491.992753 
L 748.53323 492.077437 
L 751.633021 491.998441 
L 752.0839 492.051526 
L 752.703858 491.999705 
L 753.661976 492.027512 
L 754.394654 492.033831 
L 755.014612 492.055318 
L 755.352771 491.958627 
L 755.860009 492.029408 
L 758.114403 491.894799 
L 759.861558 491.466325 
L 760.481516 491.434095 
L 760.932395 491.330452 
L 761.495994 491.179412 
L 762.172312 490.932313 
L 762.454111 490.838782 
L 762.84863 490.599898 
L 763.581308 489.952132 
L 764.032186 490.113916 
L 764.426705 489.618453 
L 764.877584 489.897151 
L 765.553902 489.133103 
L 765.892061 489.185556 
L 766.061141 489.040836 
L 766.45566 488.602251 
L 766.681099 488.489128 
L 767.244697 488.860093 
L 767.695576 488.442363 
L 768.033735 488.408869 
L 768.822773 488.014521 
L 769.273652 488.153554 
L 769.83725 488.655336 
L 771.584405 488.163033 
L 772.148004 489.448454 
L 772.880681 488.972583 
L 772.993401 488.824703 
L 773.557 489.876296 
L 773.838799 489.628565 
L 774.176958 489.818155 
L 774.796916 490.056407 
L 775.304155 490.084845 
L 776.093192 488.818383 
L 776.88223 487.141143 
L 777.220389 487.05014 
L 777.614908 487.060883 
L 778.291226 486.797353 
L 779.249343 486.547094 
L 779.869302 486.757539 
L 780.65834 486.505384 
L 781.278298 486.719621 
L 781.785536 486.489585 
L 781.954616 486.753115 
L 782.461854 487.855266 
L 782.743654 487.672627 
L 783.138173 487.30103 
L 783.645411 486.512336 
L 784.15265 487.199284 
L 784.828968 490.197967 
L 785.167127 490.2599 
L 785.505286 490.381238 
L 786.125244 490.8767 
L 787.252441 491.005621 
L 787.64696 490.90577 
L 788.210558 490.388821 
L 789.168676 490.524694 
L 789.337755 490.589155 
L 789.675914 490.525958 
L 789.957713 490.619489 
L 790.408592 490.774953 
L 790.634031 490.931049 
L 790.915831 491.082721 
L 791.14127 491.044803 
L 791.310349 491.087145 
L 791.535789 491.194579 
L 791.817588 491.137702 
L 792.268467 490.91841 
L 793.170224 490.803392 
L 793.452023 490.737035 
L 793.677463 490.859637 
L 794.071982 491.102944 
L 794.410141 490.855213 
L 795.030099 490.440011 
L 797.059053 490.802128 
L 797.566292 490.583467 
L 797.904451 490.776217 
L 798.18625 490.891235 
L 798.580769 490.850157 
L 799.707966 490.758522 
L 800.497004 491.114951 
L 800.891522 491.05365 
L 801.342401 491.093464 
L 801.962359 490.901978 
L 802.131439 490.804655 
L 802.300518 491.22049 
L 802.469598 491.300118 
L 802.695037 491.430935 
L 802.864117 491.035323 
L 803.202276 490.992982 
L 803.653155 491.303277 
L 804.611272 490.965807 
L 804.893071 490.90893 
L 805.118511 491.046067 
L 805.738469 491.965579 
L 807.203825 491.889111 
L 807.654703 491.83729 
L 808.049222 491.94346 
L 809.345499 491.980114 
L 809.852737 491.872048 
L 810.134536 491.864464 
L 810.754495 491.507403 
L 811.318093 491.662235 
L 811.487173 491.580079 
L 811.994411 491.435991 
L 812.38893 491.550377 
L 812.727089 491.690673 
L 813.121608 491.765245 
L 814.136085 491.743126 
L 821.462864 491.974426 
L 822.026463 491.959891 
L 822.646421 491.98201 
L 823.435459 492.056582 
L 823.999057 492.058478 
L 824.788095 492.057214 
L 825.351693 492.076173 
L 826.309811 492.164648 
L 826.64797 492.137474 
L 827.042489 492.09134 
L 827.549727 492.119779 
L 827.944246 492.176656 
L 828.789644 492.247436 
L 829.184163 492.307473 
L 830.19864 492.348551 
L 830.536799 491.844241 
L 830.818598 491.823386 
L 830.987678 492.098292 
L 831.494916 492.236061 
L 832.114874 492.151377 
L 833.354791 492.307473 
L 833.63659 492.354239 
L 834.312908 492.406692 
L 835.101946 492.375093 
L 836.285503 492.387101 
L 838.258097 492.383309 
L 838.821696 492.295466 
L 839.610733 492.231637 
L 839.948892 492.275243 
L 842.935964 491.900486 
L 844.119521 491.612309 
L 845.133998 491.396809 
L 845.359437 491.274207 
L 845.528517 491.338036 
L 845.923035 491.60283 
L 846.261195 491.458741 
L 846.712073 491.109896 
L 846.937513 491.125695 
L 847.162952 491.219858 
L 847.444751 490.752834 
L 847.83927 489.926221 
L 848.064709 489.861129 
L 848.571948 489.944548 
L 848.684668 489.99005 
L 849.079187 490.394509 
L 849.248266 490.453914 
L 849.586425 490.331944 
L 849.868224 490.493096 
L 850.882702 490.914618 
L 851.4463 490.827406 
L 851.671739 490.79644 
L 851.897179 490.901978 
L 853.193455 490.649192 
L 853.475254 490.544917 
L 853.700694 490.570828 
L 854.546091 490.608114 
L 855.05333 490.82551 
L 855.616928 490.40462 
L 856.405966 490.480456 
L 856.856845 489.930645 
L 857.645882 489.586223 
L 859.618477 489.873136 
L 860.069356 489.930645 
L 860.520234 489.859233 
L 860.914753 489.873768 
L 861.309272 489.591911 
L 861.92923 489.428231 
L 866.156218 489.236113 
L 866.494377 489.435815 
L 868.241533 489.438975 
L 868.692411 489.582431 
L 868.97421 489.761278 
L 869.537809 490.082949 
L 869.932328 490.264956 
L 870.439566 490.723132 
L 870.834085 490.698485 
L 871.059525 490.714916 
L 871.848562 490.614433 
L 872.355801 490.913354 
L 872.69396 491.190787 
L 873.877517 490.997405 
L 874.102956 490.935473 
L 874.328395 490.91209 
L 874.891994 491.186364 
L 875.399232 491.083985 
L 876.24463 491.094096 
L 876.920948 490.112652 
L 877.371827 490.560084 
L 877.540906 490.643504 
L 877.653626 490.699749 
L 878.386304 491.396177 
L 880.697057 491.436622 
L 881.655175 491.711528 
L 886.614841 491.865728 
L 886.89664 491.902382 
L 887.516598 491.826546 
L 888.812875 491.962419 
L 889.489193 491.82465 
L 889.996431 491.790524 
L 890.616389 492.069853 
L 891.630867 492.138738 
L 892.025385 492.158961 
L 893.378022 492.21963 
L 895.068817 492.249332 
L 895.745135 492.25502 
L 896.421453 492.273979 
L 897.323211 492.29357 
L 897.830449 492.288514 
L 899.070366 492.300521 
L 899.464885 492.28725 
L 900.197562 492.340335 
L 900.592081 492.295466 
L 901.21204 492.340335 
L 903.353714 492.307473 
L 903.691873 492.318848 
L 905.213588 492.381413 
L 906.397145 492.425651 
L 906.848024 492.447138 
L 916.260117 492.342863 
L 916.767356 492.360558 
L 918.176352 492.431339 
L 918.85267 492.224053 
L 919.247189 492.144426 
L 920.599825 492.261339 
L 921.050704 492.178552 
L 921.614302 492.273979 
L 922.40334 491.784836 
L 922.910578 491.767141 
L 924.094135 492.127362 
L 925.503131 492.164648 
L 926.179449 492.174128 
L 927.250286 492.161489 
L 928.264763 492.051526 
L 928.772002 491.885319 
L 929.222881 491.696993 
L 930.068278 491.699521 
L 930.688236 491.447366 
L 931.477274 491.176252 
L 931.984513 491.070714 
L 932.266312 490.874804 
L 932.82991 490.397669 
L 933.168069 490.525958 
L 933.506229 490.718708 
L 933.900747 490.572092 
L 934.577066 490.160049 
L 935.986062 488.782993 
L 936.54966 488.57002 
L 937.451417 488.045488 
L 937.676857 487.900135 
L 938.071376 488.321025 
L 938.296815 488.591507 
L 940.15669 489.415592 
L 940.607569 489.694921 
L 941.171167 489.867448 
L 944.721837 490.005849 
L 945.003636 489.484476 
L 945.398155 488.841134 
L 945.905394 488.667975 
L 946.299912 488.676191 
L 946.750791 488.985854 
L 947.31439 488.925186 
L 947.765268 489.080018 
L 948.103427 489.090129 
L 948.836105 489.545777 
L 949.286984 489.818787 
L 950.58326 489.931277 
L 951.146859 490.260532 
L 951.654097 490.592947 
L 952.104976 490.628337 
L 952.555855 490.996773 
L 953.570332 491.103576 
L 954.13393 489.818787 
L 954.19029 489.856073 
L 954.472089 490.355327 
L 954.866608 491.106104 
L 955.148408 491.223018 
L 955.599286 491.097256 
L 956.444684 490.840678 
L 956.895563 491.028372 
L 957.402801 491.492236 
L 957.628241 491.504875 
L 958.079119 491.254616 
L 958.473638 491.231233 
L 959.037237 491.406288 
L 960.615312 491.4006 
L 961.066191 491.60283 
L 961.573429 491.68309 
L 962.080668 491.710264 
L 962.869706 491.635692 
L 963.602384 491.721008 
L 964.278702 491.516882 
L 964.78594 491.529522 
L 965.856777 491.823386 
L 968.56205 492.145057 
L 968.956569 492.226581 
L 969.801966 492.177288 
L 972 492.193719 
L 972 492.193719 
" clip-path="url(#p3b046af06e)" style="fill: none; stroke: #ff6384; stroke-opacity: 0.8; stroke-width: 3; stroke-linecap: round"/>
   </g>
   <g id="line2d_12">
    <path d="M 141.368662 512.64 
L 141.368662 69.12 
" clip-path="url(#p3b046af06e)" style="fill: none; stroke-dasharray: 5.55,2.4; stroke-dashoffset: 0; stroke: #000000; stroke-opacity: 0.7; stroke-width: 1.5"/>
   </g>
   <g id="line2d_13">
    <path d="M 150.104437 512.64 
L 150.104437 69.12 
" clip-path="url(#p3b046af06e)" style="fill: none; stroke-dasharray: 5.55,2.4; stroke-dashoffset: 0; stroke: #000000; stroke-opacity: 0.7; stroke-width: 1.5"/>
   </g>
   <g id="line2d_14">
    <path d="M 167.294189 512.64 
L 167.294189 69.12 
" clip-path="url(#p3b046af06e)" style="fill: none; stroke-dasharray: 5.55,2.4; stroke-dashoffset: 0; stroke: #000000; stroke-opacity: 0.7; stroke-width: 1.5"/>
   </g>
   <g id="line2d_15">
    <path d="M 185.442058 512.64 
L 185.442058 69.12 
" clip-path="url(#p3b046af06e)" style="fill: none; stroke-dasharray: 5.55,2.4; stroke-dashoffset: 0; stroke: #000000; stroke-opacity: 0.7; stroke-width: 1.5"/>
   </g>
   <g id="line2d_16">
    <path d="M 440.921217 512.64 
L 440.921217 69.12 
" clip-path="url(#p3b046af06e)" style="fill: none; stroke-dasharray: 5.55,2.4; stroke-dashoffset: 0; stroke: #000000; stroke-opacity: 0.7; stroke-width: 1.5"/>
   </g>
   <g id="patch_3">
    <path d="M 135 512.64 
L 135 69.12 
" style="fill: none; stroke: #262626; stroke-width: 1.25; stroke-linejoin: miter; stroke-linecap: square"/>
   </g>
   <g id="patch_4">
    <path d="M 972 512.64 
L 972 69.12 
" style="fill: none; stroke: #262626; stroke-width: 1.25; stroke-linejoin: miter; stroke-linecap: square"/>
   </g>
   <g id="patch_5">
    <path d="M 135 512.64 
L 972 512.64 
" style="fill: none; stroke: #262626; stroke-width: 1.25; stroke-linejoin: miter; stroke-linecap: square"/>
   </g>
   <g id="patch_6">
    <path d="M 135 69.12 
L 972 69.12 
" style="fill: none; stroke: #262626; stroke-width: 1.25; stroke-linejoin: miter; stroke-linecap: square"/>
   </g>
   <g id="text_20">
    <!-- 평활화된 이산화탄소 데이터의 변동성 탐지 -->
    <g style="fill: #262626" transform="translate(378.84375 63.12) scale(0.18 -0.18)">
     <defs>
      <path id="MalgunGothic-d3c9" d="M 3884 2994 
L 3884 3391 
L 4947 3391 
L 4947 3969 
L 3884 3969 
L 3884 4366 
L 4947 4366 
L 4947 5466 
L 5416 5466 
L 5416 1881 
L 4947 1881 
L 4947 2994 
L 3884 2994 
z
M 794 4750 
L 794 5159 
L 4056 5159 
L 4056 4750 
L 794 4750 
z
M 4306 2247 
Q 3913 2169 3231 2169 
L 647 2169 
L 647 2578 
L 1466 2578 
L 1394 4475 
L 1850 4475 
L 1906 2578 
L 2900 2578 
L 2956 4475 
L 3413 4475 
L 3334 2584 
Q 3897 2584 4275 2650 
L 4306 2247 
z
M 3547 -538 
Q 2594 -538 2081 -227 
Q 1569 84 1569 594 
Q 1569 1100 2076 1411 
Q 2584 1722 3547 1722 
Q 4506 1722 5017 1411 
Q 5528 1100 5528 594 
Q 5528 84 5012 -227 
Q 4497 -538 3547 -538 
z
M 3547 1325 
Q 2834 1325 2451 1128 
Q 2069 931 2069 594 
Q 2069 259 2453 62 
Q 2838 -134 3547 -134 
Q 4256 -134 4647 62 
Q 5038 259 5038 594 
Q 5038 931 4648 1128 
Q 4259 1325 3547 1325 
z
" transform="scale(0.015625)"/>
      <path id="MalgunGothic-d65c" d="M 609 4581 
L 609 4966 
L 2150 4966 
L 2150 5528 
L 2619 5528 
L 2619 4966 
L 4159 4966 
L 4159 4581 
L 609 4581 
z
M 5216 3122 
L 5216 1906 
L 4750 1906 
L 4750 5466 
L 5216 5466 
L 5216 3547 
L 6119 3547 
L 6119 3122 
L 5216 3122 
z
M 469 1978 
L 422 2363 
Q 844 2363 2150 2388 
L 2150 2803 
Q 1547 2841 1215 3053 
Q 884 3266 884 3578 
Q 884 3919 1284 4136 
Q 1684 4353 2388 4353 
Q 3091 4353 3487 4134 
Q 3884 3916 3884 3578 
Q 3884 3253 3551 3047 
Q 3219 2841 2613 2803 
L 2613 2400 
Q 3606 2416 4300 2463 
L 4347 2094 
Q 3831 2053 2412 2015 
Q 994 1978 469 1978 
z
M 2388 4000 
Q 1356 4000 1356 3578 
Q 1356 3156 2388 3156 
Q 3413 3156 3413 3578 
Q 3413 4000 2388 4000 
z
M 1472 -513 
L 1472 750 
L 4756 750 
L 4756 1216 
L 1472 1216 
L 1472 1600 
L 5216 1600 
L 5216 384 
L 1931 384 
L 1931 -128 
L 5381 -128 
L 5381 -513 
L 1472 -513 
z
" transform="scale(0.015625)"/>
      <path id="MalgunGothic-b41c" d="M 4897 966 
L 4897 5466 
L 5363 5466 
L 5363 966 
L 4897 966 
z
M 4434 1791 
Q 2453 1678 616 1678 
L 550 2119 
Q 1338 2119 2350 2131 
L 2350 2994 
L 1081 2994 
L 1081 5094 
L 3963 5094 
L 3963 4672 
L 1550 4672 
L 1550 3413 
L 4031 3413 
L 4031 2994 
L 2816 2994 
L 2816 2138 
Q 4022 2169 4397 2209 
L 4434 1791 
z
M 1509 -422 
L 1509 1216 
L 1978 1216 
L 1978 -6 
L 5544 -6 
L 5544 -422 
L 1509 -422 
z
" transform="scale(0.015625)"/>
      <path id="MalgunGothic-b370" d="M 5044 -563 
L 5044 5466 
L 5509 5466 
L 5509 -563 
L 5044 -563 
z
M 3897 -366 
L 3897 2859 
L 2650 2859 
L 2650 3272 
L 3897 3272 
L 3897 5344 
L 4359 5344 
L 4359 -366 
L 3897 -366 
z
M 3359 1094 
Q 2766 1019 909 1019 
L 909 4966 
L 3138 4966 
L 3138 4550 
L 1369 4550 
L 1369 1428 
Q 2897 1428 3328 1491 
L 3359 1094 
z
" transform="scale(0.015625)"/>
      <path id="MalgunGothic-d130" d="M 4891 -563 
L 4891 2516 
L 3706 2516 
L 3706 2925 
L 4891 2925 
L 4891 5466 
L 5356 5466 
L 5356 -563 
L 4891 -563 
z
M 1422 2816 
L 1422 1331 
L 2144 1331 
Q 3525 1331 4141 1409 
L 4172 1006 
Q 3694 950 3141 936 
Q 2588 922 953 922 
L 953 4953 
L 3841 4953 
L 3841 4531 
L 1422 4531 
L 1422 3219 
L 3181 3219 
L 3181 2816 
L 1422 2816 
z
" transform="scale(0.015625)"/>
      <path id="MalgunGothic-c758" d="M 5013 -563 
L 5013 5466 
L 5478 5466 
L 5478 -563 
L 5013 -563 
z
M 2450 2131 
Q 1775 2131 1315 2540 
Q 856 2950 856 3572 
Q 856 4181 1312 4593 
Q 1769 5006 2450 5006 
Q 3128 5006 3586 4590 
Q 4044 4175 4044 3572 
Q 4044 2947 3587 2539 
Q 3131 2131 2450 2131 
z
M 2450 4594 
Q 1975 4594 1656 4306 
Q 1338 4019 1338 3572 
Q 1338 3119 1664 2833 
Q 1991 2547 2450 2547 
Q 2922 2547 3244 2833 
Q 3566 3119 3566 3572 
Q 3566 4025 3247 4309 
Q 2928 4594 2450 4594 
z
M 459 531 
L 416 934 
Q 1222 934 2667 965 
Q 4113 997 4588 1038 
L 4616 634 
Q 4125 594 2679 562 
Q 1234 531 459 531 
z
" transform="scale(0.015625)"/>
      <path id="MalgunGothic-bcc0" d="M 1038 2059 
L 1038 5184 
L 1497 5184 
L 1497 4072 
L 3366 4072 
L 3366 5184 
L 3828 5184 
L 3828 4416 
L 4947 4416 
L 4947 5466 
L 5416 5466 
L 5416 1063 
L 4947 1063 
L 4947 2669 
L 3828 2669 
L 3828 2059 
L 1038 2059 
z
M 3828 3084 
L 4947 3084 
L 4947 4000 
L 3828 4000 
L 3828 3084 
z
M 3366 3653 
L 1497 3653 
L 1497 2478 
L 3366 2478 
L 3366 3653 
z
M 1734 -391 
L 1734 1563 
L 2203 1563 
L 2203 25 
L 5606 25 
L 5606 -391 
L 1734 -391 
z
" transform="scale(0.015625)"/>
      <path id="MalgunGothic-b3d9" d="M 403 2119 
L 403 2534 
L 2963 2534 
L 2963 3316 
L 1338 3316 
L 1338 5325 
L 5081 5325 
L 5081 4909 
L 1813 4909 
L 1813 3731 
L 5153 3731 
L 5153 3316 
L 3438 3316 
L 3438 2534 
L 5997 2534 
L 5997 2119 
L 403 2119 
z
M 3200 -513 
Q 2247 -513 1740 -211 
Q 1234 91 1234 603 
Q 1234 1116 1742 1416 
Q 2250 1716 3200 1716 
Q 4150 1716 4658 1416 
Q 5166 1116 5166 603 
Q 5166 91 4659 -211 
Q 4153 -513 3200 -513 
z
M 3200 1319 
Q 2478 1319 2103 1126 
Q 1728 934 1728 603 
Q 1728 272 2104 78 
Q 2481 -116 3200 -116 
Q 3919 -116 4295 78 
Q 4672 272 4672 603 
Q 4672 934 4295 1126 
Q 3919 1319 3200 1319 
z
" transform="scale(0.015625)"/>
      <path id="MalgunGothic-c131" d="M 4947 1984 
L 4947 3781 
L 3541 3781 
L 3541 4200 
L 4947 4200 
L 4947 5466 
L 5416 5466 
L 5416 1984 
L 4947 1984 
z
M 3653 2328 
Q 3244 2550 2831 2950 
Q 2419 3350 2253 3700 
Q 2075 3303 1659 2858 
Q 1244 2413 819 2175 
L 488 2497 
Q 1134 2806 1571 3393 
Q 2009 3981 2009 4628 
L 2009 5269 
L 2463 5269 
L 2463 4628 
Q 2463 4025 2916 3472 
Q 3369 2919 3969 2669 
L 3653 2328 
z
M 3566 -475 
Q 2622 -475 2108 -148 
Q 1594 178 1594 697 
Q 1594 1216 2106 1539 
Q 2619 1863 3566 1863 
Q 4513 1863 5025 1539 
Q 5538 1216 5538 697 
Q 5538 178 5023 -148 
Q 4509 -475 3566 -475 
z
M 3566 1466 
Q 2850 1466 2472 1248 
Q 2094 1031 2094 697 
Q 2094 359 2473 143 
Q 2853 -72 3566 -72 
Q 4275 -72 4656 142 
Q 5038 356 5038 697 
Q 5038 1034 4659 1250 
Q 4281 1466 3566 1466 
z
" transform="scale(0.015625)"/>
      <path id="MalgunGothic-d0d0" d="M 5125 3519 
L 5125 2131 
L 4659 2131 
L 4659 5466 
L 5125 5466 
L 5125 3938 
L 6034 3938 
L 6034 3519 
L 5125 3519 
z
M 1300 3622 
L 1300 2894 
Q 3178 2894 3872 2956 
L 3903 2541 
Q 2859 2472 831 2472 
L 831 5153 
L 3688 5153 
L 3688 4728 
L 1300 4728 
L 1300 4025 
L 3372 4025 
L 3372 3622 
L 1300 3622 
z
M 1453 -397 
L 1453 1800 
L 5125 1800 
L 5125 -397 
L 1453 -397 
z
M 4666 1388 
L 1913 1388 
L 1913 19 
L 4666 19 
L 4666 1388 
z
" transform="scale(0.015625)"/>
      <path id="MalgunGothic-c9c0" d="M 4884 -563 
L 4884 5466 
L 5350 5466 
L 5350 -563 
L 4884 -563 
z
M 3775 909 
Q 3228 1338 2822 1881 
Q 2416 2425 2297 2859 
Q 2178 2397 1756 1814 
Q 1334 1231 825 825 
L 475 1147 
Q 1191 1638 1625 2425 
Q 2059 3213 2059 4019 
L 2059 4525 
L 716 4525 
L 716 4941 
L 3884 4941 
L 3884 4525 
L 2528 4525 
L 2528 4038 
Q 2528 3238 2968 2459 
Q 3409 1681 4097 1269 
L 3775 909 
z
" transform="scale(0.015625)"/>
     </defs>
     <use xlink:href="#MalgunGothic-d3c9"/>
     <use xlink:href="#MalgunGothic-d65c" x="100"/>
     <use xlink:href="#MalgunGothic-d654" x="200"/>
     <use xlink:href="#MalgunGothic-b41c" x="300"/>
     <use xlink:href="#MalgunGothic-20" x="400"/>
     <use xlink:href="#MalgunGothic-c774" x="435.15625"/>
     <use xlink:href="#MalgunGothic-c0b0" x="535.15625"/>
     <use xlink:href="#MalgunGothic-d654" x="635.15625"/>
     <use xlink:href="#MalgunGothic-d0c4" x="735.15625"/>
     <use xlink:href="#MalgunGothic-c18c" x="835.15625"/>
     <use xlink:href="#MalgunGothic-20" x="935.15625"/>
     <use xlink:href="#MalgunGothic-b370" x="970.3125"/>
     <use xlink:href="#MalgunGothic-c774" x="1070.3125"/>
     <use xlink:href="#MalgunGothic-d130" x="1170.3125"/>
     <use xlink:href="#MalgunGothic-c758" x="1270.3125"/>
     <use xlink:href="#MalgunGothic-20" x="1370.3125"/>
     <use xlink:href="#MalgunGothic-bcc0" x="1405.46875"/>
     <use xlink:href="#MalgunGothic-b3d9" x="1505.46875"/>
     <use xlink:href="#MalgunGothic-c131" x="1605.46875"/>
     <use xlink:href="#MalgunGothic-20" x="1705.46875"/>
     <use xlink:href="#MalgunGothic-d0d0" x="1740.625"/>
     <use xlink:href="#MalgunGothic-c9c0" x="1840.625"/>
    </g>
   </g>
  </g>
 </g>
 <defs>
  <clipPath id="p3b046af06e">
   <rect x="135" y="69.12" width="837" height="443.52"/>
  </clipPath>
 </defs>
</svg>
