<?xml version="1.0" encoding="utf-8" standalone="no"?>
<!DOCTYPE svg PUBLIC "-//W3C//DTD SVG 1.1//EN"
  "http://www.w3.org/Graphics/SVG/1.1/DTD/svg11.dtd">
<svg xmlns:xlink="http://www.w3.org/1999/xlink" width="1080pt" height="576pt" viewBox="0 0 1080 576" xmlns="http://www.w3.org/2000/svg" version="1.1">
 <metadata>
  <rdf:RDF xmlns:dc="http://purl.org/dc/elements/1.1/" xmlns:cc="http://creativecommons.org/ns#" xmlns:rdf="http://www.w3.org/1999/02/22-rdf-syntax-ns#">
   <cc:Work>
    <dc:type rdf:resource="http://purl.org/dc/dcmitype/StillImage"/>
    <dc:date>2024-11-12T22:44:46.266989</dc:date>
    <dc:format>image/svg+xml</dc:format>
    <dc:creator>
     <cc:Agent>
      <dc:title>Matplotlib v3.9.2, https://matplotlib.org/</dc:title>
     </cc:Agent>
    </dc:creator>
   </cc:Work>
  </rdf:RDF>
 </metadata>
 <defs>
  <style type="text/css">*{stroke-linejoin: round; stroke-linecap: butt}</style>
 </defs>
 <g id="figure_1">
  <g id="patch_1">
   <path d="M 0 576 
L 1080 576 
L 1080 0 
L 0 0 
z
" style="fill: #ffffff"/>
  </g>
  <g id="axes_1">
   <g id="patch_2">
    <path d="M 135 512.64 
L 972 512.64 
L 972 69.12 
L 135 69.12 
z
" style="fill: #ffffff"/>
   </g>
   <g id="matplotlib.axis_1">
    <g id="xtick_1">
     <g id="line2d_1">
      <path d="M 211.197404 512.64 
L 211.197404 69.12 
" clip-path="url(#pbcf5cd0f5d)" style="fill: none; stroke: #a9a9a9; stroke-opacity: 0.7; stroke-width: 1.5; stroke-linecap: round"/>
     </g>
     <g id="text_1">
      <!-- 1 -->
      <g style="fill: #262626" transform="translate(207.341936 532.769063) scale(0.14 -0.14)">
       <defs>
        <path id="MalgunGothic-31" d="M 2231 0 
L 1734 0 
L 1734 3972 
Q 1591 3828 1266 3661 
Q 941 3494 672 3428 
L 672 3959 
Q 1016 4056 1409 4275 
Q 1803 4494 2031 4700 
L 2231 4700 
L 2231 0 
z
" transform="scale(0.015625)"/>
       </defs>
       <use xlink:href="#MalgunGothic-31"/>
      </g>
     </g>
    </g>
    <g id="xtick_2">
     <g id="line2d_2">
      <path d="M 287.874038 512.64 
L 287.874038 69.12 
" clip-path="url(#pbcf5cd0f5d)" style="fill: none; stroke: #a9a9a9; stroke-opacity: 0.7; stroke-width: 1.5; stroke-linecap: round"/>
     </g>
     <g id="text_2">
      <!-- 2 -->
      <g style="fill: #262626" transform="translate(284.018569 532.769063) scale(0.14 -0.14)">
       <defs>
        <path id="MalgunGothic-32" d="M 2519 3372 
Q 2519 3784 2275 4018 
Q 2031 4253 1628 4253 
Q 1341 4253 1053 4104 
Q 766 3956 534 3697 
L 534 4234 
Q 981 4675 1691 4675 
Q 2281 4675 2642 4334 
Q 3003 3994 3003 3416 
Q 3003 2919 2772 2545 
Q 2541 2172 1984 1775 
Q 1459 1406 1254 1215 
Q 1050 1025 967 854 
Q 884 684 884 450 
L 3116 450 
L 3116 0 
L 356 0 
L 356 225 
Q 356 603 461 870 
Q 566 1138 811 1392 
Q 1056 1647 1597 2022 
Q 2091 2363 2305 2670 
Q 2519 2978 2519 3372 
z
" transform="scale(0.015625)"/>
       </defs>
       <use xlink:href="#MalgunGothic-32"/>
      </g>
     </g>
    </g>
    <g id="xtick_3">
     <g id="line2d_3">
      <path d="M 364.550671 512.64 
L 364.550671 69.12 
" clip-path="url(#pbcf5cd0f5d)" style="fill: none; stroke: #a9a9a9; stroke-opacity: 0.7; stroke-width: 1.5; stroke-linecap: round"/>
     </g>
     <g id="text_3">
      <!-- 3 -->
      <g style="fill: #262626" transform="translate(360.695202 532.769063) scale(0.14 -0.14)">
       <defs>
        <path id="MalgunGothic-33" d="M 416 719 
Q 891 344 1478 344 
Q 1959 344 2254 587 
Q 2550 831 2550 1247 
Q 2550 2169 1253 2169 
L 872 2169 
L 872 2591 
L 1234 2591 
Q 2388 2591 2388 3453 
Q 2388 4250 1509 4250 
Q 1022 4250 594 3916 
L 594 4413 
Q 1031 4675 1634 4675 
Q 2184 4675 2539 4372 
Q 2894 4069 2894 3581 
Q 2894 2678 1972 2409 
L 1972 2400 
Q 2469 2356 2764 2053 
Q 3059 1750 3059 1300 
Q 3059 672 2604 297 
Q 2150 -78 1450 -78 
Q 806 -78 416 169 
L 416 719 
z
" transform="scale(0.015625)"/>
       </defs>
       <use xlink:href="#MalgunGothic-33"/>
      </g>
     </g>
    </g>
    <g id="xtick_4">
     <g id="line2d_4">
      <path d="M 441.227305 512.64 
L 441.227305 69.12 
" clip-path="url(#pbcf5cd0f5d)" style="fill: none; stroke: #a9a9a9; stroke-opacity: 0.7; stroke-width: 1.5; stroke-linecap: round"/>
     </g>
     <g id="text_4">
      <!-- 4 -->
      <g style="fill: #262626" transform="translate(437.371836 532.769063) scale(0.14 -0.14)">
       <defs>
        <path id="MalgunGothic-34" d="M 2703 4600 
L 2703 1563 
L 3309 1563 
L 3309 1113 
L 2703 1113 
L 2703 0 
L 2213 0 
L 2213 1113 
L 50 1113 
L 50 1534 
Q 728 2297 1295 3109 
Q 1863 3922 2172 4600 
L 2703 4600 
z
M 625 1563 
L 2213 1563 
L 2213 3831 
Q 1613 2788 959 1981 
L 625 1563 
z
" transform="scale(0.015625)"/>
       </defs>
       <use xlink:href="#MalgunGothic-34"/>
      </g>
     </g>
    </g>
    <g id="xtick_5">
     <g id="line2d_5">
      <path d="M 517.903938 512.64 
L 517.903938 69.12 
" clip-path="url(#pbcf5cd0f5d)" style="fill: none; stroke: #a9a9a9; stroke-opacity: 0.7; stroke-width: 1.5; stroke-linecap: round"/>
     </g>
     <g id="text_5">
      <!-- 5 -->
      <g style="fill: #262626" transform="translate(514.048469 532.769063) scale(0.14 -0.14)">
       <defs>
        <path id="MalgunGothic-35" d="M 3072 1403 
Q 3072 722 2636 322 
Q 2200 -78 1469 -78 
Q 828 -78 516 113 
L 516 650 
Q 994 344 1475 344 
Q 1969 344 2270 630 
Q 2572 916 2572 1372 
Q 2572 1838 2265 2092 
Q 1959 2347 1381 2347 
Q 994 2347 603 2300 
L 759 4600 
L 2869 4600 
L 2869 4147 
L 1206 4147 
L 1106 2763 
Q 1347 2784 1547 2784 
Q 2263 2784 2667 2414 
Q 3072 2044 3072 1403 
z
" transform="scale(0.015625)"/>
       </defs>
       <use xlink:href="#MalgunGothic-35"/>
      </g>
     </g>
    </g>
    <g id="xtick_6">
     <g id="line2d_6">
      <path d="M 594.580571 512.64 
L 594.580571 69.12 
" clip-path="url(#pbcf5cd0f5d)" style="fill: none; stroke: #a9a9a9; stroke-opacity: 0.7; stroke-width: 1.5; stroke-linecap: round"/>
     </g>
     <g id="text_6">
      <!-- 6 -->
      <g style="fill: #262626" transform="translate(590.725103 532.769063) scale(0.14 -0.14)">
       <defs>
        <path id="MalgunGothic-36" d="M 2981 4069 
Q 2619 4250 2228 4250 
Q 1591 4250 1228 3689 
Q 866 3128 869 2213 
L 884 2213 
Q 1203 2872 1938 2872 
Q 2547 2872 2903 2478 
Q 3259 2084 3259 1450 
Q 3259 797 2857 359 
Q 2456 -78 1825 -78 
Q 1116 -78 736 478 
Q 356 1034 356 2019 
Q 356 3181 847 3928 
Q 1338 4675 2222 4675 
Q 2700 4675 2981 4544 
L 2981 4069 
z
M 906 1506 
Q 906 1022 1165 683 
Q 1425 344 1844 344 
Q 2247 344 2498 645 
Q 2750 947 2750 1388 
Q 2750 1888 2509 2167 
Q 2269 2447 1838 2447 
Q 1444 2447 1175 2173 
Q 906 1900 906 1506 
z
" transform="scale(0.015625)"/>
       </defs>
       <use xlink:href="#MalgunGothic-36"/>
      </g>
     </g>
    </g>
    <g id="xtick_7">
     <g id="line2d_7">
      <path d="M 671.257205 512.64 
L 671.257205 69.12 
" clip-path="url(#pbcf5cd0f5d)" style="fill: none; stroke: #a9a9a9; stroke-opacity: 0.7; stroke-width: 1.5; stroke-linecap: round"/>
     </g>
     <g id="text_7">
      <!-- 7 -->
      <g style="fill: #262626" transform="translate(667.401736 532.769063) scale(0.14 -0.14)">
       <defs>
        <path id="MalgunGothic-37" d="M 3213 4297 
Q 2478 3006 2064 1918 
Q 1650 831 1550 0 
L 1009 0 
Q 1084 531 1290 1176 
Q 1497 1822 1815 2537 
Q 2134 3253 2631 4147 
L 291 4147 
L 291 4600 
L 3213 4600 
L 3213 4297 
z
" transform="scale(0.015625)"/>
       </defs>
       <use xlink:href="#MalgunGothic-37"/>
      </g>
     </g>
    </g>
    <g id="xtick_8">
     <g id="line2d_8">
      <path d="M 747.933838 512.64 
L 747.933838 69.12 
" clip-path="url(#pbcf5cd0f5d)" style="fill: none; stroke: #a9a9a9; stroke-opacity: 0.7; stroke-width: 1.5; stroke-linecap: round"/>
     </g>
     <g id="text_8">
      <!-- 8 -->
      <g style="fill: #262626" transform="translate(744.078369 532.769063) scale(0.14 -0.14)">
       <defs>
        <path id="MalgunGothic-38" d="M 303 1281 
Q 303 1669 539 2011 
Q 775 2353 1153 2494 
Q 856 2647 675 2915 
Q 494 3184 494 3500 
Q 494 3828 659 4098 
Q 825 4369 1122 4522 
Q 1419 4675 1778 4675 
Q 2334 4675 2700 4342 
Q 3066 4009 3066 3500 
Q 3066 3181 2881 2914 
Q 2697 2647 2413 2494 
Q 2788 2350 3022 2009 
Q 3256 1669 3256 1281 
Q 3256 672 2843 297 
Q 2431 -78 1778 -78 
Q 1131 -78 717 301 
Q 303 681 303 1281 
z
M 809 1328 
Q 809 878 1081 611 
Q 1353 344 1781 344 
Q 2206 344 2482 619 
Q 2759 894 2759 1328 
Q 2759 1731 2482 2011 
Q 2206 2291 1781 2291 
Q 1372 2291 1090 2020 
Q 809 1750 809 1328 
z
M 1003 3459 
Q 1003 3125 1234 2900 
Q 1466 2675 1781 2675 
Q 2097 2675 2330 2900 
Q 2563 3125 2563 3459 
Q 2563 3803 2341 4026 
Q 2119 4250 1781 4250 
Q 1450 4250 1226 4029 
Q 1003 3809 1003 3459 
z
" transform="scale(0.015625)"/>
       </defs>
       <use xlink:href="#MalgunGothic-38"/>
      </g>
     </g>
    </g>
    <g id="xtick_9">
     <g id="line2d_9">
      <path d="M 824.610471 512.64 
L 824.610471 69.12 
" clip-path="url(#pbcf5cd0f5d)" style="fill: none; stroke: #a9a9a9; stroke-opacity: 0.7; stroke-width: 1.5; stroke-linecap: round"/>
     </g>
     <g id="text_9">
      <!-- 9 -->
      <g style="fill: #262626" transform="translate(820.755003 532.769063) scale(0.14 -0.14)">
       <defs>
        <path id="MalgunGothic-39" d="M 556 563 
Q 941 344 1366 344 
Q 1994 344 2347 855 
Q 2700 1366 2700 2313 
Q 2694 2306 2688 2313 
Q 2388 1713 1653 1713 
Q 1059 1713 682 2120 
Q 306 2528 306 3144 
Q 306 3806 711 4240 
Q 1116 4675 1772 4675 
Q 2466 4675 2833 4131 
Q 3200 3588 3200 2578 
Q 3200 1319 2717 620 
Q 2234 -78 1344 -78 
Q 881 -78 556 78 
L 556 563 
z
M 813 3219 
Q 813 2741 1063 2450 
Q 1313 2159 1759 2159 
Q 2147 2159 2406 2417 
Q 2666 2675 2666 3047 
Q 2666 3556 2411 3903 
Q 2156 4250 1725 4250 
Q 1322 4250 1067 3948 
Q 813 3647 813 3219 
z
" transform="scale(0.015625)"/>
       </defs>
       <use xlink:href="#MalgunGothic-39"/>
      </g>
     </g>
    </g>
    <g id="xtick_10">
     <g id="line2d_10">
      <path d="M 901.287105 512.64 
L 901.287105 69.12 
" clip-path="url(#pbcf5cd0f5d)" style="fill: none; stroke: #a9a9a9; stroke-opacity: 0.7; stroke-width: 1.5; stroke-linecap: round"/>
     </g>
     <g id="text_10">
      <!-- 10 -->
      <g style="fill: #262626" transform="translate(893.576167 532.769063) scale(0.14 -0.14)">
       <defs>
        <path id="MalgunGothic-30" d="M 278 2206 
Q 278 3425 675 4050 
Q 1072 4675 1819 4675 
Q 3253 4675 3253 2319 
Q 3253 1156 2854 539 
Q 2456 -78 1716 -78 
Q 1016 -78 647 520 
Q 278 1119 278 2206 
z
M 784 2231 
Q 784 344 1769 344 
Q 2747 344 2747 2259 
Q 2747 4250 1794 4250 
Q 784 4250 784 2231 
z
" transform="scale(0.015625)"/>
       </defs>
       <use xlink:href="#MalgunGothic-31"/>
       <use xlink:href="#MalgunGothic-30" x="55.078125"/>
      </g>
     </g>
    </g>
    <g id="text_11">
     <!-- 상대 시간(일) -->
     <g style="fill: #262626" transform="translate(505.8125 552.57125) scale(0.16 -0.16)">
      <defs>
       <path id="MalgunGothic-c0c1" d="M 5125 3391 
L 5125 1991 
L 4659 1991 
L 4659 5466 
L 5125 5466 
L 5125 3816 
L 6034 3816 
L 6034 3391 
L 5125 3391 
z
M 3603 2316 
Q 3206 2528 2778 2934 
Q 2350 3341 2188 3681 
Q 2022 3291 1609 2852 
Q 1197 2413 750 2163 
L 409 2484 
Q 1072 2806 1512 3397 
Q 1953 3988 1953 4628 
L 1953 5259 
L 2400 5259 
L 2400 4628 
Q 2400 4025 2845 3472 
Q 3291 2919 3909 2656 
L 3603 2316 
z
M 3263 -513 
Q 2322 -513 1811 -186 
Q 1300 141 1300 659 
Q 1300 1175 1812 1500 
Q 2325 1825 3263 1825 
Q 4203 1825 4715 1501 
Q 5228 1178 5228 659 
Q 5228 138 4717 -187 
Q 4206 -513 3263 -513 
z
M 3263 1428 
Q 2563 1428 2180 1215 
Q 1797 1003 1797 659 
Q 1797 309 2181 96 
Q 2566 -116 3263 -116 
Q 3969 -116 4353 98 
Q 4738 313 4738 659 
Q 4738 1000 4353 1214 
Q 3969 1428 3263 1428 
z
" transform="scale(0.015625)"/>
       <path id="MalgunGothic-b300" d="M 5069 -563 
L 5069 2572 
L 4294 2572 
L 4294 -378 
L 3834 -378 
L 3834 5344 
L 4294 5344 
L 4294 2988 
L 5069 2988 
L 5069 5466 
L 5538 5466 
L 5538 -563 
L 5069 -563 
z
M 3391 1153 
Q 2516 1063 825 1063 
L 825 4934 
L 3138 4934 
L 3138 4519 
L 1288 4519 
L 1288 1478 
L 1844 1478 
Q 2791 1478 3359 1550 
L 3391 1153 
z
" transform="scale(0.015625)"/>
       <path id="MalgunGothic-20" transform="scale(0.015625)"/>
       <path id="MalgunGothic-c2dc" d="M 4947 -563 
L 4947 5466 
L 5416 5466 
L 5416 -563 
L 4947 -563 
z
M 3769 966 
Q 3263 1353 2820 1939 
Q 2378 2525 2259 2950 
Q 2116 2463 1687 1872 
Q 1259 1281 756 891 
L 397 1203 
Q 1141 1703 1581 2479 
Q 2022 3256 2022 4063 
L 2022 5050 
L 2484 5050 
L 2484 4084 
Q 2484 3303 2920 2556 
Q 3356 1809 4097 1331 
L 3769 966 
z
" transform="scale(0.015625)"/>
       <path id="MalgunGothic-ac04" d="M 5125 3122 
L 5125 1063 
L 4659 1063 
L 4659 5466 
L 5125 5466 
L 5125 3541 
L 6034 3541 
L 6034 3122 
L 5125 3122 
z
M 3513 5100 
Q 3403 3872 2556 3011 
Q 1709 2150 794 1800 
L 469 2163 
Q 1344 2450 2087 3172 
Q 2831 3894 2963 4678 
L 831 4678 
L 831 5100 
L 3513 5100 
z
M 1459 -325 
L 1459 1509 
L 1925 1509 
L 1925 97 
L 5294 97 
L 5294 -325 
L 1459 -325 
z
" transform="scale(0.015625)"/>
       <path id="MalgunGothic-28" d="M 1438 -1044 
Q 447 88 447 1753 
Q 447 3431 1438 4600 
L 1888 4600 
Q 878 3372 878 1759 
Q 878 153 1881 -1044 
L 1438 -1044 
z
" transform="scale(0.015625)"/>
       <path id="MalgunGothic-c77c" d="M 4947 2363 
L 4947 5466 
L 5422 5466 
L 5422 2363 
L 4947 2363 
z
M 2419 2578 
Q 1738 2578 1314 2970 
Q 891 3363 891 3969 
Q 891 4572 1314 4961 
Q 1738 5350 2419 5350 
Q 3097 5350 3523 4959 
Q 3950 4569 3950 3969 
Q 3950 3366 3522 2972 
Q 3094 2578 2419 2578 
z
M 2419 4947 
Q 1931 4947 1643 4680 
Q 1356 4413 1356 3969 
Q 1356 3522 1643 3248 
Q 1931 2975 2419 2975 
Q 2906 2975 3193 3248 
Q 3481 3522 3481 3969 
Q 3481 4413 3193 4680 
Q 2906 4947 2419 4947 
z
M 1703 -422 
L 1703 1038 
L 4959 1038 
L 4959 1613 
L 1703 1613 
L 1703 2028 
L 5422 2028 
L 5422 634 
L 2163 634 
L 2163 -6 
L 5588 -6 
L 5588 -422 
L 1703 -422 
z
" transform="scale(0.015625)"/>
       <path id="MalgunGothic-29" d="M 81 -1044 
Q 1081 150 1081 1759 
Q 1081 3378 72 4600 
L 525 4600 
Q 1522 3431 1522 1753 
Q 1522 88 525 -1044 
L 81 -1044 
z
" transform="scale(0.015625)"/>
      </defs>
      <use xlink:href="#MalgunGothic-c0c1"/>
      <use xlink:href="#MalgunGothic-b300" x="100"/>
      <use xlink:href="#MalgunGothic-20" x="200"/>
      <use xlink:href="#MalgunGothic-c2dc" x="235.15625"/>
      <use xlink:href="#MalgunGothic-ac04" x="335.15625"/>
      <use xlink:href="#MalgunGothic-28" x="435.15625"/>
      <use xlink:href="#MalgunGothic-c77c" x="465.625"/>
      <use xlink:href="#MalgunGothic-29" x="565.625"/>
     </g>
    </g>
   </g>
   <g id="matplotlib.axis_2">
    <g id="ytick_1">
     <g id="text_12">
      <!-- 0 -->
      <g style="fill: #262626" transform="translate(117.789062 500.92834) scale(0.14 -0.14)">
       <use xlink:href="#MalgunGothic-30"/>
      </g>
     </g>
    </g>
    <g id="ytick_2">
     <g id="text_13">
      <!-- 10000 -->
      <g style="fill: #262626" transform="translate(86.945312 438.126558) scale(0.14 -0.14)">
       <use xlink:href="#MalgunGothic-31"/>
       <use xlink:href="#MalgunGothic-30" x="55.078125"/>
       <use xlink:href="#MalgunGothic-30" x="110.15625"/>
       <use xlink:href="#MalgunGothic-30" x="165.234375"/>
       <use xlink:href="#MalgunGothic-30" x="220.3125"/>
      </g>
     </g>
    </g>
    <g id="ytick_3">
     <g id="text_14">
      <!-- 20000 -->
      <g style="fill: #262626" transform="translate(86.945312 375.324776) scale(0.14 -0.14)">
       <use xlink:href="#MalgunGothic-32"/>
       <use xlink:href="#MalgunGothic-30" x="55.078125"/>
       <use xlink:href="#MalgunGothic-30" x="110.15625"/>
       <use xlink:href="#MalgunGothic-30" x="165.234375"/>
       <use xlink:href="#MalgunGothic-30" x="220.3125"/>
      </g>
     </g>
    </g>
    <g id="ytick_4">
     <g id="text_15">
      <!-- 30000 -->
      <g style="fill: #262626" transform="translate(86.945312 312.522995) scale(0.14 -0.14)">
       <use xlink:href="#MalgunGothic-33"/>
       <use xlink:href="#MalgunGothic-30" x="55.078125"/>
       <use xlink:href="#MalgunGothic-30" x="110.15625"/>
       <use xlink:href="#MalgunGothic-30" x="165.234375"/>
       <use xlink:href="#MalgunGothic-30" x="220.3125"/>
      </g>
     </g>
    </g>
    <g id="ytick_5">
     <g id="text_16">
      <!-- 40000 -->
      <g style="fill: #262626" transform="translate(86.945312 249.721213) scale(0.14 -0.14)">
       <use xlink:href="#MalgunGothic-34"/>
       <use xlink:href="#MalgunGothic-30" x="55.078125"/>
       <use xlink:href="#MalgunGothic-30" x="110.15625"/>
       <use xlink:href="#MalgunGothic-30" x="165.234375"/>
       <use xlink:href="#MalgunGothic-30" x="220.3125"/>
      </g>
     </g>
    </g>
    <g id="ytick_6">
     <g id="text_17">
      <!-- 50000 -->
      <g style="fill: #262626" transform="translate(86.945312 186.919431) scale(0.14 -0.14)">
       <use xlink:href="#MalgunGothic-35"/>
       <use xlink:href="#MalgunGothic-30" x="55.078125"/>
       <use xlink:href="#MalgunGothic-30" x="110.15625"/>
       <use xlink:href="#MalgunGothic-30" x="165.234375"/>
       <use xlink:href="#MalgunGothic-30" x="220.3125"/>
      </g>
     </g>
    </g>
    <g id="ytick_7">
     <g id="text_18">
      <!-- 60000 -->
      <g style="fill: #262626" transform="translate(86.945312 124.117649) scale(0.14 -0.14)">
       <use xlink:href="#MalgunGothic-36"/>
       <use xlink:href="#MalgunGothic-30" x="55.078125"/>
       <use xlink:href="#MalgunGothic-30" x="110.15625"/>
       <use xlink:href="#MalgunGothic-30" x="165.234375"/>
       <use xlink:href="#MalgunGothic-30" x="220.3125"/>
      </g>
     </g>
    </g>
    <g id="text_19">
     <!-- 이산화탄소 농도 -->
     <g style="fill: #262626" transform="translate(79.162813 349.6925) rotate(-90) scale(0.16 -0.16)">
      <defs>
       <path id="MalgunGothic-c774" d="M 4947 -563 
L 4947 5466 
L 5416 5466 
L 5416 -563 
L 4947 -563 
z
M 2284 959 
Q 1597 959 1173 1514 
Q 750 2069 750 3016 
Q 750 3975 1169 4522 
Q 1588 5069 2284 5069 
Q 2978 5069 3403 4522 
Q 3828 3975 3828 3016 
Q 3828 2063 3401 1511 
Q 2975 959 2284 959 
z
M 2284 4653 
Q 1803 4653 1503 4204 
Q 1203 3756 1203 3016 
Q 1203 2278 1506 1826 
Q 1809 1375 2284 1375 
Q 2756 1375 3061 1828 
Q 3366 2281 3366 3016 
Q 3366 3759 3067 4206 
Q 2769 4653 2284 4653 
z
" transform="scale(0.015625)"/>
       <path id="MalgunGothic-c0b0" d="M 5125 3169 
L 5125 1081 
L 4659 1081 
L 4659 5466 
L 5125 5466 
L 5125 3584 
L 6034 3584 
L 6034 3169 
L 5125 3169 
z
M 3597 2081 
Q 3206 2294 2778 2731 
Q 2350 3169 2188 3525 
Q 2038 3125 1603 2642 
Q 1169 2159 750 1925 
L 409 2247 
Q 1041 2553 1492 3173 
Q 1944 3794 1953 4453 
L 1953 5228 
L 2400 5228 
L 2400 4453 
Q 2400 3841 2853 3259 
Q 3306 2678 3909 2419 
L 3597 2081 
z
M 1478 -353 
L 1478 1528 
L 1953 1528 
L 1953 72 
L 5325 72 
L 5325 -353 
L 1478 -353 
z
" transform="scale(0.015625)"/>
       <path id="MalgunGothic-d654" d="M 5228 2363 
L 5228 -563 
L 4763 -563 
L 4763 5466 
L 5228 5466 
L 5228 2778 
L 6156 2778 
L 6156 2363 
L 5228 2363 
z
M 2131 5441 
L 2591 5441 
L 2591 4653 
L 4159 4653 
L 4159 4238 
L 556 4238 
L 556 4653 
L 2131 4653 
L 2131 5441 
z
M 2591 1741 
L 2591 884 
Q 3688 900 4409 947 
L 4441 544 
Q 2791 447 359 447 
L 313 856 
Q 1141 856 2125 878 
L 2125 1734 
Q 1506 1791 1175 2092 
Q 844 2394 844 2828 
Q 844 3316 1250 3627 
Q 1656 3938 2363 3938 
Q 3059 3938 3465 3633 
Q 3872 3328 3872 2859 
Q 3872 2400 3536 2098 
Q 3200 1797 2591 1741 
z
M 2363 3541 
Q 1875 3541 1594 3342 
Q 1313 3144 1313 2828 
Q 1313 2513 1592 2319 
Q 1872 2125 2363 2125 
Q 2847 2125 3126 2320 
Q 3406 2516 3406 2828 
Q 3406 3144 3125 3342 
Q 2844 3541 2363 3541 
z
" transform="scale(0.015625)"/>
       <path id="MalgunGothic-d0c4" d="M 5125 3169 
L 5125 1125 
L 4659 1125 
L 4659 5466 
L 5125 5466 
L 5125 3584 
L 6034 3584 
L 6034 3169 
L 5125 3169 
z
M 1319 3431 
L 1319 2553 
Q 3244 2553 3872 2613 
L 3903 2209 
Q 3306 2138 850 2138 
L 850 5081 
L 3688 5081 
L 3688 4666 
L 1319 4666 
L 1319 3834 
L 3372 3834 
L 3372 3431 
L 1319 3431 
z
M 1459 -378 
L 1459 1606 
L 1925 1606 
L 1925 38 
L 5294 38 
L 5294 -378 
L 1459 -378 
z
" transform="scale(0.015625)"/>
       <path id="MalgunGothic-c18c" d="M 3194 3909 
Q 2963 3416 2330 2941 
Q 1697 2466 959 2259 
L 641 2631 
Q 1700 2872 2328 3497 
Q 2956 4122 2956 4666 
L 2956 4984 
L 3438 4984 
L 3438 4666 
Q 3438 4131 4069 3506 
Q 4700 2881 5759 2631 
L 5428 2266 
Q 4719 2481 4072 2957 
Q 3425 3434 3194 3909 
z
M 403 384 
L 403 800 
L 2963 800 
L 2963 2266 
L 3438 2266 
L 3438 800 
L 5997 800 
L 5997 384 
L 403 384 
z
" transform="scale(0.015625)"/>
       <path id="MalgunGothic-b18d" d="M 403 2247 
L 403 2663 
L 2963 2663 
L 2963 3475 
L 1375 3475 
L 1375 5338 
L 1844 5338 
L 1844 3897 
L 5178 3897 
L 5178 3475 
L 3438 3475 
L 3438 2663 
L 5997 2663 
L 5997 2247 
L 403 2247 
z
M 3200 -488 
Q 2256 -488 1745 -186 
Q 1234 116 1234 634 
Q 1234 1150 1745 1451 
Q 2256 1753 3200 1753 
Q 4144 1753 4655 1451 
Q 5166 1150 5166 634 
Q 5166 116 4655 -186 
Q 4144 -488 3200 -488 
z
M 3200 1356 
Q 2478 1356 2103 1161 
Q 1728 966 1728 634 
Q 1728 303 2100 106 
Q 2472 -91 3200 -91 
Q 3925 -91 4298 106 
Q 4672 303 4672 634 
Q 4672 969 4297 1162 
Q 3922 1356 3200 1356 
z
" transform="scale(0.015625)"/>
       <path id="MalgunGothic-b3c4" d="M 403 372 
L 403 788 
L 2963 788 
L 2963 2181 
L 1350 2181 
L 1350 4897 
L 5050 4897 
L 5050 4481 
L 1819 4481 
L 1819 2600 
L 5147 2600 
L 5147 2181 
L 3438 2181 
L 3438 788 
L 5997 788 
L 5997 372 
L 403 372 
z
" transform="scale(0.015625)"/>
      </defs>
      <use xlink:href="#MalgunGothic-c774"/>
      <use xlink:href="#MalgunGothic-c0b0" x="100"/>
      <use xlink:href="#MalgunGothic-d654" x="200"/>
      <use xlink:href="#MalgunGothic-d0c4" x="300"/>
      <use xlink:href="#MalgunGothic-c18c" x="400"/>
      <use xlink:href="#MalgunGothic-20" x="500"/>
      <use xlink:href="#MalgunGothic-b18d" x="535.15625"/>
      <use xlink:href="#MalgunGothic-b3c4" x="635.15625"/>
     </g>
    </g>
   </g>
   <g id="line2d_11">
    <path d="M 135 480.449691 
L 135.319486 470.354932 
L 136.277944 430.461356 
L 136.810421 401.009833 
L 137.342897 374.1941 
L 138.301355 342.027655 
L 138.940327 328.095708 
L 139.739042 315.42482 
L 141.442967 293.795259 
L 141.868948 287.704742 
L 141.922196 288.21846 
L 142.135187 297.952109 
L 142.454673 314.555644 
L 142.614416 316.035254 
L 142.667663 315.913418 
L 142.933902 312.669706 
L 143.040397 310.106138 
L 143.413131 290.704783 
L 143.466378 291.723428 
L 143.785864 301.926205 
L 143.839112 301.149975 
L 143.998855 290.19232 
L 144.265093 269.973617 
L 144.371589 268.787055 
L 144.478084 269.708813 
L 144.744322 277.398891 
L 146.341752 285.222423 
L 146.820981 358.601673 
L 146.874229 366.826823 
L 146.927476 364.320404 
L 148.89764 288.616624 
L 149.004135 287.557786 
L 149.057383 287.677737 
L 149.11063 287.679621 
L 149.217126 286.765855 
L 149.483364 281.780022 
L 150.015841 269.531162 
L 150.175584 267.947929 
L 150.335327 270.180533 
L 150.548317 272.866565 
L 150.70806 271.525747 
L 150.814556 270.949227 
L 150.921051 271.524491 
L 151.187289 276.016074 
L 151.293785 277.864959 
L 151.347032 277.755684 
L 151.613271 275.429506 
L 151.666518 275.636123 
L 151.773014 276.049987 
L 151.879509 278.512445 
L 152.145747 283.944799 
L 152.198995 283.937263 
L 152.358738 282.36031 
L 152.624976 277.062352 
L 152.837967 276.538585 
L 152.944462 276.679261 
L 153.2107 277.187327 
L 153.317196 277.248245 
L 153.476939 276.760275 
L 153.796425 275.8082 
L 154.275654 274.625643 
L 154.648387 279.09399 
L 154.701635 279.085825 
L 154.80813 278.731623 
L 155.287359 271.69908 
L 155.447102 271.260095 
L 155.660093 271.951543 
L 155.713341 271.856712 
L 156.139322 269.938118 
L 156.19257 269.968891 
L 156.352312 271.307197 
L 156.938037 278.662541 
L 156.991284 278.427035 
L 157.151027 276.554286 
L 157.789999 264.521464 
L 157.843247 265.843442 
L 158.162733 289.890244 
L 158.428971 309.191116 
L 158.69521 313.488641 
L 158.801705 313.338545 
L 158.9082 315.208154 
L 159.014696 311.777921 
L 159.813411 271.079226 
L 160.345887 266.431266 
L 160.665373 263.007313 
L 160.825116 262.447121 
L 160.931611 262.523739 
L 161.038107 261.778282 
L 161.41084 255.171535 
L 161.677079 251.90647 
L 161.783574 251.701736 
L 161.890069 252.014489 
L 162.475794 255.98105 
L 163.061518 261.413404 
L 163.913481 271.377535 
L 164.392709 271.086134 
L 164.499205 271.445361 
L 164.765443 274.087432 
L 164.871938 275.709602 
L 165.031681 286.719382 
L 165.404415 311.550578 
L 165.457663 311.050048 
L 165.617406 301.327704 
L 165.936892 281.934514 
L 166.256378 274.787671 
L 166.682359 271.64193 
L 166.735607 271.569708 
L 166.89535 270.684831 
L 167.001845 272.325842 
L 167.374579 291.054589 
L 167.694065 304.332142 
L 167.747312 303.955959 
L 167.960303 298.21776 
L 168.652522 260.772826 
L 168.812265 259.317708 
L 168.865513 259.347225 
L 168.972008 260.186885 
L 169.184999 265.08982 
L 169.717476 280.486933 
L 169.877219 281.751133 
L 169.983714 281.443404 
L 170.036962 281.462873 
L 170.249952 281.330361 
L 170.462943 279.709447 
L 170.516191 279.836307 
L 170.675934 288.382373 
L 171.314906 336.124916 
L 171.368153 336.47221 
L 171.421401 336.236075 
L 171.90063 331.043624 
L 171.953877 331.090725 
L 172.11362 335.792066 
L 172.699345 363.831178 
L 173.072078 368.844644 
L 173.71105 375.320764 
L 173.817546 376.156028 
L 173.870793 376.030424 
L 173.977289 373.966129 
L 174.563013 352.509901 
L 174.616261 352.438307 
L 174.776004 352.810721 
L 174.882499 351.579178 
L 175.30848 346.51233 
L 175.361728 346.595857 
L 175.574718 352.117389 
L 176.107195 366.58064 
L 176.21369 366.888369 
L 176.533176 360.670992 
L 176.959158 347.933535 
L 177.278644 340.710702 
L 177.385139 339.872926 
L 177.757873 342.735431 
L 177.81112 342.40949 
L 177.864368 342.307123 
L 177.970863 342.74862 
L 178.077359 341.883211 
L 179.142312 330.134882 
L 179.19556 330.254205 
L 179.248807 330.49348 
L 179.568293 334.519074 
L 179.674788 333.654922 
L 179.834531 330.266138 
L 180.154017 323.303304 
L 180.367008 321.851955 
L 180.739742 319.897563 
L 181.059228 319.027759 
L 181.165723 319.046599 
L 181.325466 318.362688 
L 181.378714 318.434282 
L 181.591704 318.343847 
L 181.857943 317.117328 
L 182.017686 316.357427 
L 182.070933 316.425253 
L 182.230676 318.787856 
L 182.550162 324.789194 
L 182.656658 321.895916 
L 183.348877 292.51787 
L 183.561868 291.353525 
L 183.615115 291.697679 
L 183.774858 296.709261 
L 184.254087 312.802846 
L 184.573573 314.985208 
L 184.733316 315.232647 
L 184.999555 314.994628 
L 185.265793 315.379603 
L 185.478784 316.212983 
L 185.904765 318.72003 
L 186.224251 319.053507 
L 186.330746 319.417758 
L 186.383994 319.352444 
L 186.437242 319.288386 
L 186.969718 320.534373 
L 187.022966 320.487272 
L 187.235956 319.93022 
L 187.342452 320.020655 
L 187.395699 320.124278 
L 187.555442 322.059829 
L 188.141167 331.314927 
L 188.30091 331.920964 
L 188.354157 331.6371 
L 188.886634 319.682153 
L 189.046377 319.697854 
L 189.099625 319.490608 
L 189.259368 318.097036 
L 189.312615 318.183703 
L 189.419111 319.047227 
L 189.578854 322.25891 
L 189.951587 330.40807 
L 190.004835 330.226572 
L 190.164578 326.90373 
L 190.750302 312.304828 
L 191.01654 308.039331 
L 191.176283 305.205714 
L 191.229531 305.212623 
L 191.336026 306.154649 
L 191.495769 309.806573 
L 191.762008 319.918288 
L 191.921751 320.590895 
L 192.081494 318.063751 
L 192.294484 315.098251 
L 192.347732 315.041102 
L 192.454227 314.516707 
L 192.560723 315.204386 
L 192.720466 314.028737 
L 192.880209 309.901404 
L 193.146447 291.237342 
L 193.572428 265.233008 
L 193.99841 254.399701 
L 194.317896 249.165172 
L 194.530886 242.977313 
L 195.11661 216.306024 
L 195.276353 212.540429 
L 195.382849 213.282746 
L 195.436096 213.231877 
L 195.649087 203.24765 
L 196.234811 166.149381 
L 196.660793 145.354455 
L 197.033526 133.108736 
L 197.299765 117.95969 
L 197.725746 93.483323 
L 198.258223 472.836231 
L 198.31147 466.319918 
L 198.737451 425.238132 
L 199.110185 402.001473 
L 199.536166 360.551669 
L 199.855652 338.386408 
L 200.388129 281.425192 
L 200.60112 266.252909 
L 200.760863 232.865598 
L 201.027101 312.372654 
L 201.293339 394.020622 
L 201.399835 378.311385 
L 201.559578 376.742596 
L 205.979134 376.742596 
L 206.032381 369.934255 
L 206.564858 480.079788 
L 206.671353 477.53192 
L 207.097334 464.699632 
L 208.322031 437.20564 
L 208.588269 421.534083 
L 208.854507 387.214793 
L 209.227241 307.464067 
L 209.493479 222.362628 
L 209.546727 238.369546 
L 209.759718 274.630667 
L 209.866213 263.999581 
L 210.025956 347.247111 
L 210.079204 338.05293 
L 210.185699 330.804349 
L 210.292194 346.796823 
L 210.398689 390.730437 
L 210.451937 380.703505 
L 210.61168 376.742596 
L 228.769133 376.742596 
L 228.822381 378.819451 
L 229.141867 317.288777 
L 229.30161 317.288777 
L 229.354857 315.211922 
L 229.674343 376.742596 
L 343.517845 376.742596 
L 343.62434 370.921248 
L 343.943826 347.635854 
L 344.050321 347.635854 
L 344.156817 353.457203 
L 344.476303 376.742596 
L 455.763916 376.634768 
L 458.000318 375.379771 
L 498.73478 352.466329 
L 498.841275 345.801963 
L 499.054266 306.055391 
L 499.320504 221.784363 
L 499.373752 226.190187 
L 499.63999 280.688666 
L 499.799733 292.144828 
L 499.85298 277.580467 
L 499.906228 286.812957 
L 499.959476 283.247699 
L 500.012723 284.153929 
L 500.119219 304.155041 
L 500.385457 423.777363 
L 500.491952 411.817391 
L 500.704943 393.994874 
L 500.864686 376.742596 
L 577.75431 376.742596 
L 577.914053 377.121291 
L 578.286787 377.121291 
L 578.340034 376.742596 
L 578.766016 380.441621 
L 578.872511 380.441621 
L 579.138749 376.742596 
L 579.191997 377.86926 
L 579.35174 380.287129 
L 579.671226 380.287129 
L 579.937464 376.742596 
L 580.629684 376.742596 
L 580.842674 386.886968 
L 581.055665 430.232758 
L 581.215408 344.210645 
L 581.268656 349.363531 
L 581.321903 351.298454 
L 581.428399 339.670704 
L 581.588142 304.891078 
L 581.747885 356.71448 
L 582.227114 162.430259 
L 582.280361 155.813464 
L 582.812838 472.205073 
L 582.972581 464.685815 
L 583.025829 461.988479 
L 583.079076 422.449105 
L 583.132324 424.029826 
L 583.185572 425.957841 
L 583.345315 385.538614 
L 583.558305 371.050871 
L 583.611553 403.256252 
L 583.664801 394.588979 
L 583.718048 386.124554 
L 583.771296 417.591387 
L 583.824544 411.063142 
L 584.090782 397.474092 
L 584.35702 403.717846 
L 584.463515 401.84698 
L 584.516763 402.606254 
L 584.570011 405.111417 
L 584.783001 389.93411 
L 584.995992 380.350559 
L 585.04924 379.591285 
L 585.208983 376.742596 
L 592.663655 376.742596 
L 593.24938 402.73751 
L 593.355875 403.455962 
L 593.409123 402.911471 
L 593.568866 406.616148 
L 593.675361 404.890355 
L 593.994847 388.673051 
L 594.048095 391.140533 
L 594.527324 443.842532 
L 594.740314 344.86504 
L 595.006553 362.955721 
L 595.0598 363.316203 
L 595.166296 361.935192 
L 595.219543 321.278574 
L 595.326039 322.507605 
L 595.592277 137.781188 
L 595.645525 142.412192 
L 595.75202 146.141989 
L 595.805268 107.347445 
L 595.911763 107.7387 
L 596.018258 103.088856 
L 596.071506 105.349092 
L 596.124753 105.955757 
L 596.178001 105.016871 
L 596.284496 109.21831 
L 596.550735 124.517452 
L 596.603982 121.458377 
L 596.763725 161.534078 
L 597.083211 143.07475 
L 597.136459 183.132239 
L 597.189707 143.163301 
L 597.296202 136.202351 
L 597.34945 138.646597 
L 597.509193 245.192332 
L 597.56244 244.781608 
L 597.615688 245.376341 
L 597.668936 206.736289 
L 597.722183 208.876573 
L 597.775431 210.287729 
L 597.828679 210.096812 
L 597.881926 207.835948 
L 597.935174 167.291117 
L 597.988422 173.174388 
L 598.041669 175.035205 
L 598.467651 436.036899 
L 598.520898 433.244731 
L 598.574146 432.641834 
L 598.733889 454.654487 
L 598.787137 449.554982 
L 599.213118 399.100659 
L 599.319613 407.04006 
L 599.639099 434.213135 
L 599.745595 430.212033 
L 600.171576 383.58171 
L 600.331319 396.121342 
L 600.437814 413.864101 
L 600.863795 186.372183 
L 600.970291 187.151553 
L 601.396272 449.3245 
L 601.609263 410.856524 
L 601.822253 388.326385 
L 602.035244 378.640466 
L 602.194987 377.994864 
L 602.567721 376.742596 
L 606.401552 376.742596 
L 606.827534 379.447469 
L 606.934029 379.447469 
L 607.253515 376.742596 
L 607.306763 377.230566 
L 607.36001 387.986627 
L 607.892487 165.743682 
L 607.945734 169.776812 
L 608.105477 165.089287 
L 608.158725 158.289738 
L 608.637954 390.201018 
L 608.691202 393.681493 
L 609.170431 163.666199 
L 609.330174 183.002239 
L 609.383421 183.126587 
L 609.543164 181.986106 
L 609.915898 143.76243 
L 609.969146 144.413684 
L 610.022393 145.297305 
L 610.075641 144.166245 
L 610.128889 144.974504 
L 610.235384 146.344211 
L 610.448375 141.747749 
L 610.608118 131.371638 
L 611.140594 437.459359 
L 611.46008 399.773894 
L 611.513328 400.22167 
L 611.619823 386.380158 
L 611.673071 386.595568 
L 611.726318 388.98392 
L 611.939309 404.374124 
L 611.992557 403.661324 
L 612.1523 394.736563 
L 612.205547 394.521153 
L 612.258795 392.132801 
L 612.471786 376.742596 
L 612.684776 376.742596 
L 613.05751 393.825309 
L 613.110758 393.825309 
L 613.217253 405.432962 
L 613.323748 416.334096 
L 613.909473 103.235184 
L 614.069216 118.425051 
L 614.708188 183.105862 
L 614.761435 185.125567 
L 614.814683 184.556583 
L 614.974426 176.549984 
L 615.187417 182.53311 
L 615.56015 174.395255 
L 615.932884 334.408543 
L 616.039379 391.742174 
L 616.092627 383.716106 
L 616.412113 239.970364 
L 616.46536 244.57813 
L 616.518608 247.200733 
L 616.571856 243.124269 
L 616.625103 280.083118 
L 616.678351 276.870178 
L 616.731599 271.591689 
L 616.838094 333.830139 
L 616.891342 326.928223 
L 616.944589 322.972339 
L 617.15758 195.667475 
L 617.210828 196.00158 
L 617.264075 198.023797 
L 617.370571 130.608597 
L 617.477066 131.879705 
L 617.743304 143.697116 
L 618.169286 170.298067 
L 618.75501 184.760689 
L 619.074496 208.045078 
L 619.447229 242.687797 
L 619.66022 248.956671 
L 619.766715 244.286102 
L 620.405687 183.023592 
L 620.938164 473.354973 
L 621.044659 468.821313 
L 621.310898 462.800506 
L 621.736879 234.381633 
L 621.843374 178.652588 
L 621.896622 186.548028 
L 622.056365 201.097317 
L 622.588842 175.242451 
L 622.642089 176.595829 
L 622.695337 175.915686 
L 622.801832 167.279185 
L 623.227813 114.169602 
L 623.281061 114.574046 
L 623.494052 130.828403 
L 623.653795 142.502626 
L 623.707042 141.133547 
L 624.133024 107.285899 
L 624.239519 122.600113 
L 624.505757 154.601389 
L 624.6655 174.448008 
L 624.718748 172.855983 
L 624.825243 164.295472 
L 624.878491 166.239816 
L 625.038234 160.75722 
L 625.197977 154.098975 
L 625.304472 156.73351 
L 625.35772 155.826024 
L 625.410968 152.780766 
L 625.517463 161.925333 
L 625.890197 205.673054 
L 626.26293 238.249595 
L 626.582416 268.317832 
L 626.635664 265.369916 
L 626.848654 222.736299 
L 626.95515 259.352877 
L 627.008397 248.760729 
L 627.061645 245.527693 
L 627.114893 246.449623 
L 627.381131 268.727927 
L 627.434379 229.954107 
L 627.487626 236.827762 
L 627.647369 301.923065 
L 627.807112 277.663993 
L 627.966855 346.482814 
L 628.020103 334.821779 
L 628.179846 312.95671 
L 628.233094 344.403447 
L 628.339589 344.012192 
L 628.499332 261.944079 
L 628.55258 273.591925 
L 628.605827 283.736297 
L 628.76557 225.839963 
L 629.031809 350.990726 
L 629.085056 339.342879 
L 629.138304 329.198507 
L 629.351295 403.894947 
L 629.670781 441.176596 
L 629.724028 440.60824 
L 630.043514 403.212291 
L 630.096762 406.676437 
L 630.15001 413.947 
L 630.203257 381.599686 
L 630.256505 389.986236 
L 630.363 390.393191 
L 630.469496 402.552872 
L 630.522743 401.402344 
L 630.629239 399.509498 
L 630.682486 389.561696 
L 630.735734 418.517713 
L 630.788981 407.792425 
L 631.108467 398.958727 
L 631.161715 393.831589 
L 631.214963 396.001391 
L 631.481201 410.892321 
L 631.534449 408.045516 
L 631.747439 400.724713 
L 631.907182 396.121342 
L 632.013678 397.226653 
L 632.386411 417.867715 
L 632.492907 417.946845 
L 632.705897 422.564032 
L 632.759145 421.127128 
L 632.918888 417.648537 
L 633.025383 419.410127 
L 633.238374 413.489803 
L 633.291622 414.949316 
L 633.344869 417.063852 
L 633.398117 416.809505 
L 633.451365 416.308975 
L 633.611108 410.285028 
L 633.664355 410.409375 
L 633.877346 404.656104 
L 633.930594 406.69151 
L 634.090337 411.901546 
L 634.143584 411.600725 
L 634.196832 410.421936 
L 634.25008 410.666863 
L 634.303327 410.614109 
L 634.356575 409.857976 
L 634.569565 403.525672 
L 634.676061 404.485911 
L 634.889051 409.059137 
L 634.942299 408.600684 
L 635.474776 376.742596 
L 637.072206 376.742596 
L 637.231949 381.23104 
L 637.338444 381.23104 
L 637.391692 381.722149 
L 637.977416 400.584037 
L 638.243654 400.765534 
L 638.35015 406.492428 
L 638.509892 421.386499 
L 638.56314 418.657133 
L 638.669635 420.468337 
L 638.722883 419.827131 
L 638.935874 415.441682 
L 639.202112 399.894473 
L 639.415103 391.063915 
L 639.574846 391.836376 
L 639.841084 399.630078 
L 640.320313 385.484604 
L 640.426808 386.427259 
L 640.480056 386.005859 
L 640.533304 386.005859 
L 640.85279 379.680464 
L 640.906037 379.912202 
L 641.06578 382.673596 
L 641.119028 382.58379 
L 641.225523 384.783108 
L 641.332019 386.508901 
L 641.385266 386.462428 
L 641.545009 384.902432 
L 641.651505 386.837983 
L 641.704752 386.234457 
L 641.758 385.183784 
L 641.811248 386.233829 
L 642.130734 409.478653 
L 642.290476 412.311641 
L 642.343724 411.205702 
L 642.66321 389.150972 
L 642.769705 388.251651 
L 642.876201 388.775418 
L 643.035944 395.851922 
L 643.089191 394.988398 
L 643.515173 380.940895 
L 643.674916 376.991919 
L 643.941154 376.991919 
L 644.100897 376.742596 
L 644.793117 376.742596 
L 645.059355 378.549403 
L 645.16585 382.234612 
L 645.485336 397.658102 
L 645.645079 395.454387 
L 645.85807 385.087697 
L 645.964565 385.811802 
L 646.071061 389.882613 
L 646.390546 403.886782 
L 646.497042 404.79364 
L 646.656785 396.914529 
L 646.869775 388.58764 
L 646.976271 385.161175 
L 647.029518 385.520401 
L 647.242509 390.367443 
L 647.402252 386.449868 
L 647.508747 384.376153 
L 647.561995 384.967118 
L 647.615243 384.943881 
L 647.66849 385.129774 
L 647.828233 388.721408 
L 648.147719 409.818411 
L 648.254215 408.178656 
L 648.307462 409.323533 
L 648.573701 387.95397 
L 648.626948 391.257344 
L 648.680196 399.495682 
L 649.212673 116.710562 
L 649.26592 118.968914 
L 649.425663 123.896342 
L 649.585406 131.13676 
L 650.117883 449.977638 
L 650.224378 444.402096 
L 650.277626 444.419052 
L 650.490616 448.747979 
L 650.543864 453.64275 
L 651.129588 102.148085 
L 651.182836 141.510986 
L 651.236084 138.787901 
L 651.449074 130.983523 
L 651.502322 130.813958 
L 651.608817 132.259027 
L 651.662065 134.224723 
L 651.715313 95.016943 
L 651.821808 96.797373 
L 652.034799 98.795098 
L 652.194542 98.170848 
L 652.46078 104.047839 
L 652.673771 136.305346 
L 652.886761 213.781392 
L 653.046504 224.578275 
L 653.153 215.576895 
L 653.206247 217.279452 
L 653.312743 157.033702 
L 653.36599 161.086929 
L 653.472486 164.088227 
L 653.632229 159.563986 
L 653.845219 144.521075 
L 654.111457 134.588346 
L 654.164705 134.741582 
L 654.2712 136.648872 
L 654.324448 136.64008 
L 654.430943 136.266409 
L 654.484191 136.571626 
L 654.750429 132.127144 
L 654.803677 132.8569 
L 655.176411 145.041074 
L 655.282906 143.793831 
L 655.549144 136.7952 
L 655.602392 135.972497 
L 655.65564 136.419645 
L 655.921878 147.164402 
L 656.134869 152.412747 
L 656.188116 152.483085 
L 656.507602 157.365924 
L 656.56085 156.60979 
L 656.667345 156.095444 
L 656.880336 157.86143 
L 656.933584 157.447566 
L 657.040079 156.72095 
L 658.211527 176.659887 
L 658.318023 174.223806 
L 658.531013 169.383673 
L 658.637509 168.486863 
L 658.744004 166.622278 
L 658.797252 166.638607 
L 659.06349 172.752988 
L 659.276481 178.567177 
L 659.329728 178.483651 
L 659.489471 174.973031 
L 659.702462 172.029512 
L 659.75571 171.956662 
L 659.808957 172.430187 
L 659.9687 179.473407 
L 660.234939 188.74609 
L 660.341434 190.227584 
L 660.714168 186.867061 
L 660.767415 186.752134 
L 660.927158 189.627827 
L 661.246644 200.822873 
L 661.299892 199.900943 
L 661.35314 199.281717 
L 661.512882 201.06466 
L 661.672625 198.319594 
L 661.725873 198.722153 
L 661.885616 202.864559 
L 661.992111 202.392917 
L 662.151854 203.978662 
L 662.205102 203.931561 
L 662.364845 200.38326 
L 662.844074 185.15634 
L 663.003817 186.848848 
L 663.16356 184.013976 
L 663.483046 178.763119 
L 663.589541 179.834517 
L 664.228513 196.467569 
L 664.973981 186.607689 
L 665.080476 183.528518 
L 665.133724 184.878128 
L 665.293467 212.723182 
L 665.6662 292.516614 
L 665.719448 291.632993 
L 665.985686 256.673125 
L 666.251924 234.609603 
L 666.35842 236.154527 
L 666.624658 260.67967 
L 666.784401 307.664404 
L 666.837649 294.496755 
L 667.050639 252.376228 
L 667.103887 258.761285 
L 667.157135 261.005402 
L 667.26363 242.469874 
L 667.316878 223.980402 
L 667.370125 242.839777 
L 667.583116 294.856609 
L 667.689611 289.11527 
L 667.849354 284.867985 
L 668.062345 243.299486 
L 668.222088 234.326367 
L 668.328583 235.014675 
L 668.381831 234.6454 
L 668.435079 249.508698 
L 668.488326 232.64956 
L 668.541574 246.228561 
L 668.648069 252.718497 
L 668.701317 251.870045 
L 668.754565 252.759318 
L 668.86106 264.974893 
L 669.233793 354.571055 
L 669.393536 382.299926 
L 669.446784 380.572249 
L 669.659775 354.433519 
L 670.139004 290.248214 
L 670.564985 275.553225 
L 670.67148 274.384484 
L 670.724728 274.451054 
L 670.937719 275.433274 
L 670.990966 275.296994 
L 671.150709 272.313909 
L 671.3637 270.782174 
L 671.470195 272.494778 
L 671.523443 272.372943 
L 671.576691 272.322073 
L 671.683186 272.796227 
L 671.842929 268.444691 
L 672.215663 259.29824 
L 672.26891 259.420703 
L 672.428653 260.607657 
L 672.694892 253.853325 
L 672.96113 250.695652 
L 673.17412 256.504817 
L 673.227368 257.359549 
L 673.280616 256.63356 
L 673.600102 247.396674 
L 673.706597 246.53001 
L 673.759845 244.759627 
L 673.813092 244.812381 
L 673.972835 247.265419 
L 674.026083 247.250346 
L 674.185826 244.937356 
L 674.239074 245.037211 
L 674.452064 251.481302 
L 674.505312 250.717632 
L 674.611807 249.057781 
L 674.665055 249.192177 
L 674.77155 247.285515 
L 674.984541 239.86046 
L 675.357275 250.345846 
L 675.410522 250.733333 
L 675.517018 249.231114 
L 675.623513 246.796289 
L 675.676761 246.810106 
L 675.783256 249.071598 
L 675.836504 248.939086 
L 675.889751 248.31044 
L 675.942999 248.619425 
L 676.15599 251.072463 
L 676.209237 250.912318 
L 676.262485 250.871497 
L 676.315733 250.394203 
L 676.36898 250.457633 
L 676.475476 252.640623 
L 676.954704 268.02706 
L 677.220943 271.08111 
L 677.27419 271.128212 
L 677.487181 272.573909 
L 677.540429 272.341542 
L 677.700172 268.241842 
L 677.913162 262.673208 
L 677.96641 262.764898 
L 678.072905 262.034514 
L 678.232648 264.147166 
L 678.445639 270.260291 
L 678.552134 270.14662 
L 678.765125 271.111255 
L 678.924868 269.631017 
L 679.191106 266.085228 
L 679.244354 265.828997 
L 679.297602 266.048803 
L 679.350849 266.798657 
L 679.404097 266.413682 
L 679.457345 265.857258 
L 679.617088 269.678746 
L 679.776831 273.537288 
L 679.830078 273.390332 
L 679.883326 272.835792 
L 680.149564 278.029499 
L 680.415803 282.634126 
L 680.46905 282.531131 
L 680.841784 277.54781 
L 680.948279 278.099209 
L 681.214517 284.223639 
L 681.267765 283.371419 
L 681.640499 275.213467 
L 681.746994 274.006417 
L 681.800242 274.363759 
L 682.06648 278.563315 
L 682.226223 278.495489 
L 682.545709 286.635856 
L 682.811947 291.350385 
L 683.024938 291.151932 
L 683.237929 292.267291 
L 683.397672 295.846365 
L 683.610662 300.877416 
L 683.66391 300.719783 
L 683.717158 300.442827 
L 683.770405 300.61616 
L 683.876901 301.184516 
L 683.983396 299.32684 
L 684.143139 295.848249 
L 684.196387 295.924867 
L 684.249634 296.207475 
L 684.302882 296.045447 
L 684.409377 296.087524 
L 684.56912 299.856887 
L 685.048349 311.286183 
L 685.101597 311.438163 
L 685.314587 309.111985 
L 685.687321 300.192248 
L 685.793816 300.608624 
L 685.900312 302.485141 
L 686.273045 309.878795 
L 686.326293 310.222949 
L 686.379541 309.979906 
L 686.645779 308.110297 
L 686.752274 307.980925 
L 686.912017 306.615614 
L 687.018513 307.790636 
L 687.178256 309.716138 
L 687.284751 308.927976 
L 687.444494 311.303139 
L 687.817228 317.88037 
L 687.976971 316.867377 
L 688.030218 316.911339 
L 688.136714 316.434673 
L 688.243209 315.938539 
L 688.296457 316.068539 
L 688.509447 317.982109 
L 688.562695 317.834525 
L 688.722438 316.445977 
L 688.882181 318.664136 
L 689.414657 329.182807 
L 689.467905 329.077928 
L 689.840639 321.97379 
L 690.000382 318.939208 
L 690.160125 320.979638 
L 690.319868 324.164316 
L 690.692601 331.13971 
L 690.745849 331.137826 
L 690.852344 330.571982 
L 691.17183 331.977486 
L 691.225078 331.981882 
L 691.384821 332.919513 
L 691.438069 332.606132 
L 691.544564 330.993382 
L 691.597812 331.298599 
L 691.704307 331.04174 
L 692.183536 336.661871 
L 692.236784 336.600325 
L 692.503022 332.820914 
L 692.609517 333.131155 
L 692.822508 333.345937 
L 693.195241 335.937766 
L 693.248489 335.991148 
L 693.301737 335.926462 
L 693.567975 338.366939 
L 693.834213 345.512526 
L 694.047204 350.045559 
L 694.100452 350.186863 
L 694.206947 349.963288 
L 694.36669 350.43493 
L 694.419938 350.418601 
L 694.526433 351.453575 
L 694.845919 356.08081 
L 694.899167 355.466609 
L 694.952414 355.368638 
L 695.005662 355.445256 
L 695.05891 355.980327 
L 695.112157 355.948298 
L 695.378396 354.127675 
L 695.431643 354.82917 
L 695.484891 354.709847 
L 695.910872 347.699912 
L 695.96412 348.157737 
L 696.177111 354.336176 
L 696.549844 363.033595 
L 696.603092 363.21258 
L 696.709587 362.630408 
L 696.762835 362.801229 
L 696.816082 362.763548 
L 697.082321 365.049532 
L 697.934283 379.512155 
L 698.094026 382.613307 
L 698.147274 382.74205 
L 698.200522 382.390988 
L 698.413512 379.298001 
L 698.573255 378.318293 
L 698.679751 378.959499 
L 699.15898 386.865615 
L 699.212227 386.706727 
L 699.584961 384.311467 
L 699.638209 384.359196 
L 699.957695 386.809722 
L 700.223933 384.001854 
L 700.490171 380.375051 
L 700.596666 380.474278 
L 700.703162 380.881862 
L 700.9694 383.847362 
L 701.129143 386.829818 
L 701.395381 392.566761 
L 701.555124 393.098692 
L 701.608372 392.962412 
L 701.768115 389.738169 
L 702.140849 381.580845 
L 702.194096 381.833309 
L 702.460335 384.920644 
L 703.525288 404.948132 
L 703.578536 404.565042 
L 704.057764 398.330081 
L 704.111012 398.618341 
L 704.483746 403.289537 
L 704.696736 405.33876 
L 704.856479 405.794072 
L 704.962975 406.053444 
L 705.76169 393.17531 
L 705.814937 393.270141 
L 705.97468 395.405402 
L 706.134423 400.118047 
L 706.453909 406.439047 
L 706.507157 406.435907 
L 706.613652 406.144506 
L 706.6669 406.162091 
L 706.986386 408.578075 
L 707.146129 409.673967 
L 707.465615 408.053053 
L 707.678606 406.873007 
L 707.785101 407.868415 
L 708.051339 413.825792 
L 708.26433 418.186748 
L 708.317577 418.203077 
L 708.424073 417.080181 
L 708.743559 412.101255 
L 708.796806 412.150869 
L 709.648769 419.572783 
L 709.808512 419.655682 
L 710.07475 418.051096 
L 710.181246 418.132739 
L 710.287741 417.019891 
L 710.553979 414.909751 
L 710.660475 414.556177 
L 710.713722 414.591974 
L 710.820218 416.595979 
L 711.299447 428.215565 
L 711.565685 430.407975 
L 711.67218 429.835851 
L 712.151409 424.312434 
L 712.204657 424.587506 
L 712.843629 432.499902 
L 712.896876 432.383719 
L 712.950124 432.354202 
L 713.216362 432.950819 
L 713.322858 432.97908 
L 713.589096 432.29454 
L 714.17482 424.716877 
L 714.281316 425.829725 
L 714.813792 434.558545 
L 715.186526 433.441929 
L 715.239774 433.39734 
L 715.346269 433.953135 
L 715.825498 440.373362 
L 715.931993 439.975198 
L 716.144984 439.178244 
L 716.67746 433.239707 
L 716.837203 432.774974 
L 716.890451 432.862268 
L 716.996946 434.473134 
L 717.476175 445.553253 
L 717.529423 445.662528 
L 717.582671 445.518712 
L 717.742414 444.722385 
L 717.848909 444.065478 
L 717.902157 444.295961 
L 718.487881 449.850778 
L 718.541129 449.800537 
L 718.807367 447.677209 
L 719.020358 445.571465 
L 719.073605 445.4019 
L 719.126853 445.520596 
L 719.233348 445.480402 
L 719.339844 445.821416 
L 719.393091 445.690788 
L 719.446339 445.651223 
L 719.552834 446.235908 
L 719.712577 449.223389 
L 720.085311 457.656412 
L 720.245054 459.308099 
L 720.351549 457.673996 
L 720.511292 455.608446 
L 720.617787 455.418784 
L 720.77753 454.443473 
L 720.830778 454.603617 
L 721.256759 460.454859 
L 721.416502 461.19906 
L 721.576245 460.077421 
L 721.682741 459.585055 
L 721.789236 460.005827 
L 721.842484 459.971286 
L 722.055474 459.188147 
L 722.108722 459.303703 
L 722.16197 459.411722 
L 722.321713 458.890467 
L 722.37496 458.999742 
L 722.534703 461.612924 
L 722.960685 471.304495 
L 723.013932 471.222853 
L 723.120428 470.169039 
L 723.439913 466.655279 
L 723.493161 466.632043 
L 723.652904 467.809576 
L 723.97239 470.569714 
L 724.025638 470.405174 
L 724.238628 469.209428 
L 724.291876 469.191843 
L 724.398371 469.731939 
L 724.611362 471.940049 
L 724.66461 471.806909 
L 724.824353 471.433867 
L 725.037343 470.18788 
L 725.090591 470.334208 
L 725.250334 472.876424 
L 725.942554 481.873407 
L 726.049049 482.462488 
L 726.155544 483.059733 
L 726.47503 479.034767 
L 726.794516 476.411536 
L 726.847764 476.310425 
L 726.954259 477.46221 
L 727.326993 484.791178 
L 727.486736 487.060834 
L 727.593231 486.193542 
L 727.965965 481.546838 
L 728.019212 481.694422 
L 728.551689 490.904931 
L 728.604937 490.747299 
L 728.76468 490.393725 
L 728.817927 490.580246 
L 729.350404 92.50864 
L 729.403652 93.64284 
L 729.510147 94.533997 
L 729.563395 94.383901 
L 730.095871 489.393292 
L 730.149119 488.406048 
L 730.468605 484.208377 
L 730.628348 484.934994 
L 730.734843 486.212382 
L 730.788091 446.218323 
L 730.894586 448.293294 
L 731.214072 450.717443 
L 731.26732 450.584303 
L 731.427063 491.392273 
L 731.533558 492.48 
L 732.066035 130.64565 
L 732.545264 491.698118 
L 733.07774 89.28 
L 733.130988 90.183718 
L 733.450474 93.672985 
L 733.503722 93.397285 
L 733.663465 92.960184 
L 733.823208 94.116365 
L 734.089446 95.581531 
L 734.142694 95.710902 
L 734.249189 94.920228 
L 734.46218 92.392456 
L 734.515427 92.597818 
L 734.621923 92.665016 
L 734.728418 93.59511 
L 735.633628 109.44628 
L 735.793371 112.046902 
L 736.006362 110.199902 
L 736.325848 104.706002 
L 736.379095 105.015614 
L 736.645334 107.110682 
L 737.284306 114.676413 
L 737.390801 114.273225 
L 737.444049 114.383128 
L 737.550544 114.545157 
L 737.763535 113.59999 
L 737.816782 113.671584 
L 738.029773 114.726654 
L 738.136268 114.5125 
L 738.296011 113.512068 
L 738.509002 109.79797 
L 738.668745 107.743724 
L 738.721992 107.74812 
L 738.881735 109.405459 
L 739.360964 117.619304 
L 739.840193 121.008088 
L 740.106432 123.037842 
L 740.745404 136.781384 
L 740.851899 135.920371 
L 741.437623 126.283438 
L 741.650614 124.882958 
L 741.757109 125.165566 
L 741.916852 126.094405 
L 742.183091 129.837391 
L 742.449329 132.318061 
L 742.555824 132.610089 
L 742.662319 132.170477 
L 742.928558 129.993767 
L 743.035053 130.197873 
L 743.141548 131.762265 
L 743.727273 142.885717 
L 743.833768 141.887797 
L 744.046759 140.501761 
L 744.100006 140.328428 
L 744.206502 141.162436 
L 744.525988 146.585998 
L 744.579235 146.17967 
L 744.738978 144.187598 
L 745.16496 136.84607 
L 745.218207 136.584186 
L 745.271455 136.624379 
L 745.37795 137.185827 
L 745.750684 142.284704 
L 745.857179 141.551179 
L 746.176665 137.263701 
L 746.229913 137.398725 
L 746.336408 138.690558 
L 746.655894 144.463298 
L 746.709142 144.485278 
L 746.815637 143.339774 
L 747.135123 138.548626 
L 747.348114 138.799833 
L 747.561104 140.496737 
L 747.6676 140.909973 
L 747.88059 140.17582 
L 747.933838 140.360457 
L 748.146829 142.176685 
L 748.57281 149.391982 
L 748.679305 148.986282 
L 748.785801 147.921164 
L 748.839048 147.946913 
L 748.945544 148.229521 
L 749.47802 152.708544 
L 749.531268 152.780766 
L 749.584516 152.685307 
L 749.691011 152.174729 
L 749.850754 153.779314 
L 749.957249 153.554484 
L 750.38323 147.455175 
L 750.436478 147.666817 
L 750.542973 148.918456 
L 750.755964 151.099562 
L 751.022202 152.899461 
L 751.288441 156.60979 
L 751.394936 157.975101 
L 751.448184 157.507228 
L 751.927413 152.255115 
L 751.98066 152.846708 
L 752.246899 157.01863 
L 752.513137 160.023067 
L 752.726128 157.827517 
L 752.992366 154.453805 
L 753.045614 154.588829 
L 753.258604 158.348772 
L 753.524843 161.620117 
L 753.57809 161.932869 
L 753.631338 161.833643 
L 753.791081 159.378093 
L 754.110567 155.088103 
L 754.163814 154.941147 
L 754.217062 155.030954 
L 754.323557 155.484382 
L 754.696291 159.962777 
L 755.069025 165.913246 
L 755.548254 173.176272 
L 755.707997 173.970087 
L 756.133978 171.510769 
L 756.719702 164.415424 
L 756.77295 164.321849 
L 756.879445 165.61117 
L 757.518417 177.142833 
L 757.67816 177.23892 
L 757.784656 177.485103 
L 757.891151 176.965104 
L 758.476875 170.705022 
L 758.58337 172.167676 
L 759.169095 185.906822 
L 759.27559 186.108415 
L 759.382085 185.812619 
L 759.701571 184.302864 
L 759.861314 183.513446 
L 760.074305 183.889 
L 760.287296 182.995959 
L 760.447039 178.751815 
L 760.87302 168.340535 
L 761.192506 168.498796 
L 761.56524 172.086661 
L 762.204211 183.67673 
L 762.310707 183.580644 
L 762.417202 183.51533 
L 762.523697 183.811126 
L 762.949679 185.768658 
L 763.215917 185.684503 
L 763.37566 186.589477 
L 764.06788 193.871972 
L 764.227623 195.30448 
L 764.28087 195.259891 
L 764.387366 194.94337 
L 764.440613 194.982935 
L 764.547109 195.107911 
L 764.600356 195.041969 
L 764.706852 195.718344 
L 764.866595 196.404139 
L 764.97309 195.787426 
L 765.239328 191.259417 
L 765.505567 188.005029 
L 765.612062 187.775175 
L 765.718557 188.086671 
L 765.984795 190.150966 
L 766.304281 194.202937 
L 766.730263 200.200507 
L 767.049749 202.558086 
L 767.422482 206.426048 
L 767.47573 206.398415 
L 767.582225 206.123971 
L 767.688721 205.305664 
L 767.954959 202.757168 
L 768.38094 199.644711 
L 768.487436 199.443118 
L 768.593931 199.909107 
L 769.552389 207.00194 
L 769.658884 207.277012 
L 769.712132 207.206046 
L 769.925122 207.26508 
L 770.404351 204.701511 
L 770.457599 204.66383 
L 770.88358 206.294792 
L 770.936828 206.205614 
L 771.096571 205.637257 
L 771.362809 203.363833 
L 771.469305 202.867699 
L 771.522552 202.892192 
L 771.5758 202.915428 
L 771.682295 202.728279 
L 771.788791 203.079969 
L 771.948534 204.09673 
L 772.001781 204.002527 
L 772.48101 201.062148 
L 772.587506 201.549489 
L 773.013487 204.329724 
L 773.17323 204.541366 
L 773.279725 204.449676 
L 773.492716 206.93537 
L 773.758954 209.258408 
L 773.918697 209.610726 
L 774.025192 209.057442 
L 774.610917 202.654801 
L 774.717412 202.554946 
L 774.98365 203.071177 
L 775.249889 206.150976 
L 775.622622 210.711013 
L 775.782365 211.448306 
L 775.835613 211.416905 
L 775.942108 211.488499 
L 776.048604 211.656808 
L 776.155099 211.187051 
L 776.421337 209.944832 
L 776.527833 209.670388 
L 776.58108 209.778407 
L 776.847319 212.745791 
L 777.166805 215.222065 
L 777.48629 216.831047 
L 777.539538 216.751289 
L 777.752529 215.68303 
L 777.859024 215.093322 
L 777.912272 215.123467 
L 778.018767 215.231486 
L 778.17851 215.880228 
L 778.231758 215.886508 
L 778.391501 214.496077 
L 778.764234 209.838069 
L 778.817482 209.859421 
L 779.136968 212.017918 
L 779.243463 213.092457 
L 779.296711 213.0598 
L 779.456454 212.604487 
L 779.509702 212.627096 
L 779.722692 212.882071 
L 779.77594 213.00579 
L 780.627903 222.017218 
L 780.840893 222.762675 
L 780.894141 222.780888 
L 781.160379 222.362 
L 781.213627 222.384609 
L 781.639608 223.715378 
L 782.172085 219.099447 
L 782.225332 219.391476 
L 782.491571 221.545577 
L 782.651314 221.340843 
L 782.757809 221.476495 
L 783.024047 219.783987 
L 783.18379 217.521239 
L 783.503276 211.295698 
L 783.609772 210.872414 
L 783.663019 210.916375 
L 783.929258 214.205933 
L 784.195496 216.975491 
L 784.56823 218.966308 
L 784.994211 223.329147 
L 785.313697 224.155619 
L 785.47344 224.396778 
L 785.792926 223.624316 
L 785.899421 224.070208 
L 786.218907 227.410007 
L 786.272155 227.192713 
L 786.538393 224.670593 
L 786.804631 221.354031 
L 787.017622 221.183839 
L 787.07087 221.45577 
L 787.230613 216.35501 
L 787.28386 216.1553 
L 787.337108 216.218102 
L 787.603346 218.066986 
L 787.816337 226.44914 
L 788.135823 228.906574 
L 788.508557 233.368012 
L 788.88129 238.028532 
L 789.147528 239.241863 
L 789.307271 239.71476 
L 789.360519 239.567804 
L 789.413767 239.491814 
L 789.467014 239.572828 
L 789.57351 239.780702 
L 789.7865 239.423988 
L 789.839748 239.471089 
L 790.425472 245.013347 
L 790.47872 244.674217 
L 790.638463 241.775287 
L 791.064444 233.440862 
L 791.17094 232.993714 
L 791.224187 233.155114 
L 791.277435 233.298302 
L 791.490426 225.690494 
L 791.650169 224.372285 
L 791.809912 225.418563 
L 792.022902 235.834866 
L 792.342388 241.379636 
L 792.608627 243.009342 
L 792.768369 243.207167 
L 792.821617 243.169486 
L 793.141103 240.815048 
L 793.300846 240.777366 
L 793.407341 241.710601 
L 793.620332 242.674608 
L 793.780075 242.741806 
L 793.939818 243.104172 
L 794.152809 245.288418 
L 794.525542 247.778509 
L 794.845028 248.72242 
L 795.217762 249.780002 
L 795.27101 249.626138 
L 795.643743 248.200537 
L 795.803486 248.405899 
L 796.442458 252.110576 
L 796.548953 251.648983 
L 796.921687 249.295172 
L 797.028182 249.98976 
L 797.454164 255.376269 
L 797.507411 255.503756 
L 797.720402 254.015982 
L 798.252879 249.801354 
L 798.519117 248.970487 
L 798.572365 248.837975 
L 798.625612 248.870632 
L 798.785355 249.969035 
L 799.477575 257.299887 
L 799.690566 258.3223 
L 799.850309 258.220561 
L 799.956804 257.598196 
L 800.382785 253.860234 
L 800.542528 253.631007 
L 800.702271 254.346947 
L 800.755519 254.142842 
L 800.968509 253.74091 
L 801.234748 253.168786 
L 801.447738 253.759751 
L 801.500986 253.732746 
L 801.607481 254.183035 
L 802.406196 261.191086 
L 802.672435 263.659196 
L 802.938673 263.418037 
L 803.045168 263.842577 
L 803.258159 266.370977 
L 803.47115 268.468556 
L 803.524397 268.535126 
L 803.630893 267.942905 
L 804.269864 261.756302 
L 804.58935 258.186648 
L 804.642598 258.251334 
L 804.855589 260.766546 
L 805.228322 265.339143 
L 805.707551 267.995659 
L 806.399771 277.256409 
L 806.772505 282.636638 
L 806.825752 282.406784 
L 807.038743 280.280943 
L 807.517972 275.150666 
L 807.677715 275.221632 
L 807.78421 276.097089 
L 808.210191 280.81099 
L 808.263439 280.805966 
L 808.423182 279.555583 
L 808.582925 277.410902 
L 808.902411 272.255504 
L 809.115402 270.660966 
L 809.168649 270.765217 
L 809.488135 272.256132 
L 809.647878 273.275405 
L 810.553089 281.989152 
L 810.819327 285.151849 
L 810.97907 285.615955 
L 811.085565 285.485327 
L 811.245308 285.165038 
L 811.724537 288.208412 
L 811.831033 288.082809 
L 812.150518 286.265953 
L 812.203766 286.332523 
L 812.416757 288.070248 
L 812.949233 294.738541 
L 813.002481 294.508687 
L 813.215472 292.463233 
L 813.641453 286.323731 
L 813.694701 286.243344 
L 813.747948 286.340059 
L 814.440168 290.496909 
L 814.493416 290.478697 
L 814.599911 290.319808 
L 814.759654 290.837295 
L 814.812902 290.804638 
L 814.972645 290.396426 
L 815.025892 290.495653 
L 815.07914 290.616233 
L 815.185635 289.914737 
L 815.398626 288.467784 
L 815.451874 288.498556 
L 815.558369 288.114838 
L 815.611617 287.852326 
L 815.664864 287.864886 
L 815.824607 288.631068 
L 815.877855 288.571406 
L 815.98435 288.467784 
L 816.037598 288.56701 
L 816.410331 290.514494 
L 816.463579 290.46488 
L 816.67657 288.805029 
L 816.942808 286.880155 
L 817.102551 288.295079 
L 817.954514 297.98979 
L 818.646733 301.761665 
L 818.966219 304.896102 
L 819.072715 304.339678 
L 819.392201 300.575967 
L 819.605191 298.460175 
L 819.711686 298.463943 
L 819.924677 299.04486 
L 820.350658 300.827802 
L 820.563649 301.042584 
L 820.829887 303.813399 
L 821.362364 310.452175 
L 821.468859 310.005027 
L 821.841593 307.046435 
L 821.894841 307.114261 
L 822.054584 308.423678 
L 822.267574 309.809713 
L 822.320822 309.689762 
L 822.640308 306.273345 
L 822.853299 304.542528 
L 822.959794 304.56074 
L 823.119537 304.071514 
L 823.758509 299.62138 
L 824.077995 296.778971 
L 824.18449 296.558537 
L 824.237738 296.59873 
L 824.397481 298.038147 
L 825.249443 309.125174 
L 825.622177 310.946425 
L 826.154654 315.233903 
L 826.207901 315.242695 
L 826.740378 312.701735 
L 826.846873 312.788402 
L 827.219607 313.361782 
L 827.59234 314.880957 
L 828.28456 317.830129 
L 828.497551 318.558001 
L 828.97678 319.976694 
L 829.18977 320.445195 
L 829.349513 320.558238 
L 829.615752 319.873699 
L 829.88199 319.991766 
L 830.680705 322.166592 
L 831.159934 323.327797 
L 831.266429 323.712144 
L 831.319677 323.575236 
L 831.47942 322.976735 
L 831.639163 321.409202 
L 831.905401 319.520125 
L 832.011896 319.537081 
L 832.118392 319.97795 
L 832.491125 321.119058 
L 832.757364 321.177464 
L 832.917107 321.199444 
L 833.023602 321.279831 
L 833.502831 323.874172 
L 834.354794 329.346091 
L 834.567784 329.783192 
L 834.88727 328.912131 
L 835.685985 322.991807 
L 835.845728 322.7249 
L 836.005471 323.7448 
L 836.431452 326.421412 
L 836.644443 326.680156 
L 836.910681 326.086679 
L 837.123672 326.050882 
L 837.230167 326.454069 
L 837.869139 329.953385 
L 838.188625 329.643772 
L 838.401616 329.352372 
L 838.561359 329.695269 
L 838.721102 330.737779 
L 839.147083 333.550671 
L 839.466569 334.290476 
L 839.573064 333.786177 
L 840.052293 331.007827 
L 840.265284 331.747632 
L 840.318532 331.718115 
L 840.58477 330.84517 
L 841.223742 326.814552 
L 841.27699 326.953972 
L 841.809466 329.23242 
L 842.1822 330.421886 
L 842.448438 331.412898 
L 842.874419 332.561543 
L 843.08741 333.045116 
L 843.406896 334.699315 
L 843.619887 335.326705 
L 843.726382 334.663518 
L 844.365354 328.596238 
L 844.578345 328.52904 
L 845.110821 326.423296 
L 845.164069 326.5489 
L 845.323812 327.290589 
L 845.643298 330.002998 
L 846.016032 333.156904 
L 846.175775 333.578303 
L 846.388765 333.984631 
L 846.761499 334.209461 
L 847.027737 333.88352 
L 847.400471 334.815499 
L 847.666709 335.547767 
L 847.8797 335.688443 
L 848.039443 335.829119 
L 848.199186 336.276268 
L 848.518672 338.463026 
L 850.009606 349.428217 
L 850.435588 350.788504 
L 850.542083 350.670436 
L 850.808321 348.299669 
L 851.181055 344.375186 
L 851.340798 343.774173 
L 851.394045 343.81625 
L 851.873274 345.712864 
L 852.086265 346.317645 
L 852.352503 346.345278 
L 852.565494 346.50919 
L 852.778485 347.791603 
L 852.991475 348.859861 
L 853.310961 349.366671 
L 853.470704 349.162566 
L 853.523952 349.290681 
L 853.5772 349.219087 
L 853.949933 348.241264 
L 854.003181 348.319138 
L 854.162924 349.01875 
L 854.535657 350.782852 
L 854.642153 350.911595 
L 854.6954 350.860726 
L 854.961639 349.884786 
L 855.494115 345.772525 
L 855.866849 343.330792 
L 856.186335 342.156399 
L 856.346078 341.942245 
L 856.452573 342.301471 
L 856.98505 345.558999 
L 857.251288 346.93373 
L 857.837013 350.543577 
L 857.943508 350.436814 
L 858.209746 349.929375 
L 858.262994 350.01667 
L 858.475984 350.602611 
L 858.742223 351.998066 
L 859.061709 353.575647 
L 859.327947 354.095646 
L 859.434442 354.019655 
L 859.48769 354.101926 
L 859.860424 355.17458 
L 860.3929 357.800323 
L 860.872129 360.188674 
L 860.978625 360.272829 
L 861.08512 360.038578 
L 861.351358 359.433797 
L 861.564349 359.077083 
L 861.724092 359.492831 
L 861.937083 360.354471 
L 862.522807 362.998426 
L 862.68255 363.181179 
L 863.002036 362.897943 
L 863.108531 363.027315 
L 863.215026 363.106445 
L 863.694255 361.478623 
L 863.747503 361.503744 
L 864.173484 364.260114 
L 864.333227 365.172624 
L 864.386475 365.138711 
L 864.546218 364.437843 
L 865.025447 361.117513 
L 865.18519 361.262585 
L 865.611171 360.966789 
L 866.037152 361.28331 
L 866.196895 361.598574 
L 866.516381 362.637316 
L 866.676124 362.738427 
L 866.889115 362.732147 
L 867.155353 363.254657 
L 867.474839 363.794125 
L 867.741078 364.631273 
L 868.007316 365.317068 
L 868.806031 364.357457 
L 868.859279 364.421515 
L 869.391755 365.014991 
L 869.551498 364.982963 
L 869.764489 365.386778 
L 870.137222 367.1446 
L 870.776194 370.014013 
L 871.148928 370.387056 
L 871.415166 370.671548 
L 871.628157 370.25266 
L 871.894395 369.480826 
L 872.000891 369.621502 
L 872.48012 370.61063 
L 872.852853 371.104252 
L 873.119092 372.003574 
L 873.225587 372.102801 
L 873.278835 372.075168 
L 873.758063 371.976569 
L 874.130797 372.738983 
L 874.343788 372.208308 
L 874.876264 367.697884 
L 875.19575 368.271264 
L 875.568484 368.459041 
L 875.728227 368.69706 
L 875.941218 368.467205 
L 876.100961 368.097303 
L 876.313951 367.355614 
L 876.58019 367.218078 
L 876.686685 367.733053 
L 877.219162 370.871886 
L 877.432152 371.091692 
L 877.964629 368.761118 
L 878.39061 369.56184 
L 878.656848 370.610002 
L 879.721802 375.163131 
L 879.934792 375.174436 
L 880.094535 375.098446 
L 880.307526 375.773565 
L 881.58547 381.882922 
L 881.638717 381.787463 
L 881.958203 379.397228 
L 882.171194 377.802062 
L 882.224442 377.834719 
L 882.863414 379.630222 
L 883.236147 380.878094 
L 883.342643 380.851717 
L 883.715376 380.421525 
L 883.821872 380.596742 
L 884.141358 381.912439 
L 884.194605 381.829541 
L 884.460844 381.023794 
L 884.673834 380.024617 
L 884.727082 380.040318 
L 885.046568 380.032782 
L 885.153063 379.61829 
L 885.632292 377.189117 
L 886.058273 377.591676 
L 886.271264 378.146844 
L 887.389465 383.41717 
L 888.028437 383.631324 
L 888.18818 383.552821 
L 888.667409 382.378428 
L 888.720657 382.357703 
L 888.933647 383.16345 
L 889.306381 384.47538 
L 889.466124 384.702722 
L 889.519371 384.649969 
L 889.78561 384.425766 
L 889.9986 384.579003 
L 890.424582 385.482092 
L 890.69082 386.199288 
L 891.276544 388.477737 
L 891.649278 389.099475 
L 892.128507 388.384791 
L 892.235002 388.430008 
L 892.554488 388.998992 
L 892.980469 390.150777 
L 893.140212 390.135076 
L 893.353203 389.625754 
L 893.725937 388.822519 
L 893.938927 388.747157 
L 894.311661 388.944982 
L 894.684395 389.85812 
L 895.270119 391.447005 
L 895.323367 391.39802 
L 895.855843 389.914014 
L 895.909091 390.032709 
L 895.962339 390.133192 
L 896.015586 390.098023 
L 896.335072 389.778362 
L 896.494815 389.713048 
L 896.761054 390.550196 
L 896.814301 390.471694 
L 897.29353 388.824403 
L 897.400025 389.01846 
L 897.826007 390.559616 
L 898.19874 391.567585 
L 898.997455 392.387776 
L 899.58318 391.978308 
L 899.849418 391.707005 
L 900.009161 391.774203 
L 900.541638 393.685889 
L 901.127362 395.439315 
L 901.606591 396.754384 
L 901.659838 396.591727 
L 901.926077 395.245885 
L 902.245563 393.623087 
L 902.352058 393.658884 
L 902.565049 394.20526 
L 903.044278 395.644676 
L 904.002736 397.281291 
L 904.322222 397.546942 
L 904.854698 398.46008 
L 905.120936 398.25095 
L 905.333927 397.774913 
L 905.866404 394.694486 
L 905.919651 394.708302 
L 906.18589 395.201296 
L 907.037852 398.206361 
L 907.357338 399.185441 
L 907.943063 399.809691 
L 908.209301 400.182105 
L 908.315796 399.983652 
L 909.487245 396.994287 
L 909.540492 396.999311 
L 910.072969 394.926224 
L 910.392455 396.17598 
L 910.49895 398.8752 
L 911.031427 421.832392 
L 911.137922 421.542247 
L 911.297665 419.58346 
L 911.776894 410.16225 
L 911.830142 410.422878 
L 912.043133 415.135838 
L 912.628857 434.717433 
L 912.895095 435.566513 
L 913.108086 436.281197 
L 913.427572 437.968053 
L 913.480819 437.887039 
L 913.640562 436.192019 
L 914.38603 422.790747 
L 914.812011 422.154565 
L 915.344488 421.243939 
L 915.450983 420.592056 
L 915.98346 416.683273 
L 916.249698 416.602887 
L 916.356193 417.195108 
L 916.569184 421.081282 
L 917.048413 431.380774 
L 917.154908 430.683047 
L 917.367899 428.81595 
L 917.421146 428.851119 
L 917.634137 429.815126 
L 917.687385 430.25097 
L 917.740632 430.17812 
L 917.847128 428.658317 
L 918.219861 421.522779 
L 918.273109 421.742585 
L 918.858833 430.454448 
L 918.912081 430.084546 
L 919.125072 427.417982 
L 919.231567 426.452091 
L 919.284815 426.801268 
L 919.444558 429.739136 
L 919.764044 436.704481 
L 919.817291 436.589554 
L 919.923787 435.273229 
L 920.456263 425.019582 
L 920.562758 424.549197 
L 920.616006 424.573061 
L 921.574464 426.781172 
L 921.627712 426.726534 
L 921.734207 426.404361 
L 922.266684 423.675624 
L 922.373179 423.649247 
L 922.532922 422.676447 
L 922.79916 420.136115 
L 923.065399 417.104045 
L 923.225142 416.395641 
L 923.331637 415.988058 
L 923.384885 416.035159 
L 923.49138 416.35168 
L 923.544628 416.253709 
L 923.704371 415.80342 
L 923.757618 415.85743 
L 923.810866 415.837961 
L 923.917361 415.355644 
L 924.236847 412.949707 
L 924.290095 412.979852 
L 924.449838 413.968352 
L 924.822571 417.358393 
L 924.982314 416.735399 
L 925.195305 416.014434 
L 925.355048 415.737479 
L 925.408296 415.80028 
L 925.461543 416.368636 
L 926.047268 439.691334 
L 926.153763 438.927665 
L 926.207011 439.153123 
L 926.526497 444.459874 
L 926.89923 448.442135 
L 927.005726 448.764308 
L 927.59145 451.46918 
L 927.910936 451.648165 
L 928.070679 451.203529 
L 928.177174 451.000051 
L 928.283669 451.280147 
L 928.49666 454.40642 
L 928.709651 457.528924 
L 928.816146 457.869938 
L 928.922641 457.576654 
L 928.975889 457.790808 
L 929.18888 456.801052 
L 929.40187 457.80588 
L 929.455118 457.670856 
L 930.040842 454.62183 
L 930.09409 454.440333 
L 930.147338 454.474874 
L 930.413576 455.446417 
L 930.466824 455.327722 
L 930.733062 454.311589 
L 930.946053 452.938114 
L 931.159043 453.238935 
L 931.212291 453.189321 
L 931.318786 453.157292 
L 931.425282 453.161688 
L 931.69152 452.661786 
L 931.851263 453.103283 
L 932.543482 456.338831 
L 932.649978 456.275401 
L 933.129207 455.347818 
L 933.28895 455.323326 
L 933.714931 455.62603 
L 934.88638 457.444142 
L 935.259113 458.335927 
L 935.312361 458.249261 
L 935.898085 456.076319 
L 936.430562 457.72361 
L 936.537057 457.240664 
L 936.909791 455.327094 
L 936.963038 455.355355 
L 937.069534 455.976464 
L 937.548763 460.032831 
L 937.868249 458.69955 
L 938.081239 457.928344 
L 938.240982 458.134334 
L 938.29423 458.099793 
L 938.400725 458.312691 
L 938.613716 458.648052 
L 938.933202 458.339067 
L 938.98645 458.410661 
L 939.305935 459.160515 
L 939.678669 460.34998 
L 940.370889 461.640557 
L 940.477384 461.699591 
L 940.79687 462.249734 
L 941.063108 463.149056 
L 941.276099 463.508282 
L 941.329347 463.449876 
L 941.435842 463.184225 
L 941.48909 463.281568 
L 941.648833 464.116203 
L 941.968319 466.547888 
L 942.234557 467.73547 
L 942.447548 468.030638 
L 942.500795 467.901895 
L 942.767034 467.418949 
L 942.926777 467.1175 
L 943.033272 466.967404 
L 943.246262 467.167114 
L 943.29951 467.107452 
L 943.459253 466.855617 
L 943.512501 466.890786 
L 943.618996 466.866293 
L 943.938482 466.363251 
L 944.257968 465.88847 
L 944.577454 465.524847 
L 944.737197 465.533639 
L 945.216426 465.908566 
L 945.695655 466.68668 
L 946.813856 466.565473 
L 947.293085 467.018902 
L 947.559323 466.872573 
L 948.0918 465.877165 
L 948.358038 465.189486 
L 948.624276 464.253739 
L 948.784019 463.517702 
L 948.943762 464.097363 
L 949.369744 466.676004 
L 949.476239 466.611318 
L 949.635982 466.466246 
L 949.795725 466.559821 
L 949.955468 465.958179 
L 950.328202 463.905817 
L 950.381449 463.981807 
L 950.59444 465.112868 
L 950.913926 466.691704 
L 951.073669 466.722477 
L 951.180164 466.509579 
L 951.606145 465.229051 
L 951.765888 465.220887 
L 952.19187 465.627842 
L 952.245117 465.557504 
L 953.043832 461.236114 
L 953.310071 458.807569 
L 953.363318 458.856554 
L 953.7893 461.496741 
L 953.842547 461.368625 
L 954.215281 460.721139 
L 954.428272 459.34892 
L 954.641262 457.455446 
L 954.747757 458.153802 
L 955.333482 463.692291 
L 955.546472 464.018232 
L 955.759463 464.650018 
L 955.865958 464.510598 
L 955.919206 464.435864 
L 955.972454 464.515623 
L 956.078949 464.825235 
L 956.451683 466.412864 
L 956.558178 466.60127 
L 956.664673 466.074363 
L 956.771169 465.679968 
L 956.824416 465.6919 
L 956.930912 465.7076 
L 957.356893 465.016781 
L 957.516636 465.321369 
L 957.729627 465.732093 
L 957.836122 465.665523 
L 957.995865 464.563352 
L 958.528341 459.661045 
L 958.634837 459.709402 
L 959.167313 457.520132 
L 959.273809 457.784528 
L 959.593295 459.661673 
L 959.69979 460.214957 
L 959.753038 460.189208 
L 959.912781 458.859694 
L 960.39201 454.052846 
L 960.498505 454.153329 
L 960.658248 455.19207 
L 961.190725 460.293459 
L 961.616706 456.95366 
L 961.669954 457.126365 
L 961.776449 458.193995 
L 962.20243 464.150744 
L 962.308926 464.423932 
L 962.362173 464.399439 
L 962.468668 464.390647 
L 962.89465 463.255819 
L 963.640117 460.790221 
L 964.172594 458.941336 
L 964.864813 455.832648 
L 965.663528 453.972459 
L 965.770024 453.782798 
L 965.823271 453.882653 
L 966.036262 454.601105 
L 966.462243 456.348879 
L 966.515491 456.488299 
L 966.941472 452.965747 
L 967.047967 451.80203 
L 967.20771 454.183473 
L 967.793435 464.341034 
L 968.006425 465.370355 
L 968.166168 465.472094 
L 968.485654 466.346923 
L 968.645397 466.757646 
L 968.964883 467.343587 
L 969.284369 468.033778 
L 969.49736 468.735274 
L 969.550608 468.684405 
L 969.603855 468.729622 
L 969.763598 468.481555 
L 969.816846 468.538705 
L 970.189579 470.410198 
L 970.349322 471.116718 
L 970.828551 469.874499 
L 970.935047 469.956769 
L 971.041542 469.853774 
L 971.414276 468.349043 
L 971.467523 468.45769 
L 971.680514 469.519041 
L 971.840257 470.160247 
L 972 468.99339 
L 972 468.99339 
" clip-path="url(#pbcf5cd0f5d)" style="fill: none; stroke: #ff6384; stroke-opacity: 0.8; stroke-width: 3; stroke-linecap: round"/>
   </g>
   <g id="line2d_12">
    <path d="M 648.893187 512.64 
L 648.893187 69.12 
" clip-path="url(#pbcf5cd0f5d)" style="fill: none; stroke-dasharray: 5.55,2.4; stroke-dashoffset: 0; stroke: #000000; stroke-opacity: 0.7; stroke-width: 1.5"/>
   </g>
   <g id="line2d_13">
    <path d="M 690.373115 512.64 
L 690.373115 69.12 
" clip-path="url(#pbcf5cd0f5d)" style="fill: none; stroke-dasharray: 5.55,2.4; stroke-dashoffset: 0; stroke: #000000; stroke-opacity: 0.7; stroke-width: 1.5"/>
   </g>
   <g id="line2d_14">
    <path d="M 732.811502 512.64 
L 732.811502 69.12 
" clip-path="url(#pbcf5cd0f5d)" style="fill: none; stroke-dasharray: 5.55,2.4; stroke-dashoffset: 0; stroke: #000000; stroke-opacity: 0.7; stroke-width: 1.5"/>
   </g>
   <g id="line2d_15">
    <path d="M 802.459444 512.64 
L 802.459444 69.12 
" clip-path="url(#pbcf5cd0f5d)" style="fill: none; stroke-dasharray: 5.55,2.4; stroke-dashoffset: 0; stroke: #000000; stroke-opacity: 0.7; stroke-width: 1.5"/>
   </g>
   <g id="line2d_16">
    <path d="M 890.637572 512.64 
L 890.637572 69.12 
" clip-path="url(#pbcf5cd0f5d)" style="fill: none; stroke-dasharray: 5.55,2.4; stroke-dashoffset: 0; stroke: #000000; stroke-opacity: 0.7; stroke-width: 1.5"/>
   </g>
   <g id="patch_3">
    <path d="M 135 512.64 
L 135 69.12 
" style="fill: none; stroke: #262626; stroke-width: 1.25; stroke-linejoin: miter; stroke-linecap: square"/>
   </g>
   <g id="patch_4">
    <path d="M 972 512.64 
L 972 69.12 
" style="fill: none; stroke: #262626; stroke-width: 1.25; stroke-linejoin: miter; stroke-linecap: square"/>
   </g>
   <g id="patch_5">
    <path d="M 135 512.64 
L 972 512.64 
" style="fill: none; stroke: #262626; stroke-width: 1.25; stroke-linejoin: miter; stroke-linecap: square"/>
   </g>
   <g id="patch_6">
    <path d="M 135 69.12 
L 972 69.12 
" style="fill: none; stroke: #262626; stroke-width: 1.25; stroke-linejoin: miter; stroke-linecap: square"/>
   </g>
   <g id="text_20">
    <!-- 평활화된 이산화탄소 데이터의 변동성 탐지 -->
    <g style="fill: #262626" transform="translate(378.84375 63.12) scale(0.18 -0.18)">
     <defs>
      <path id="MalgunGothic-d3c9" d="M 3884 2994 
L 3884 3391 
L 4947 3391 
L 4947 3969 
L 3884 3969 
L 3884 4366 
L 4947 4366 
L 4947 5466 
L 5416 5466 
L 5416 1881 
L 4947 1881 
L 4947 2994 
L 3884 2994 
z
M 794 4750 
L 794 5159 
L 4056 5159 
L 4056 4750 
L 794 4750 
z
M 4306 2247 
Q 3913 2169 3231 2169 
L 647 2169 
L 647 2578 
L 1466 2578 
L 1394 4475 
L 1850 4475 
L 1906 2578 
L 2900 2578 
L 2956 4475 
L 3413 4475 
L 3334 2584 
Q 3897 2584 4275 2650 
L 4306 2247 
z
M 3547 -538 
Q 2594 -538 2081 -227 
Q 1569 84 1569 594 
Q 1569 1100 2076 1411 
Q 2584 1722 3547 1722 
Q 4506 1722 5017 1411 
Q 5528 1100 5528 594 
Q 5528 84 5012 -227 
Q 4497 -538 3547 -538 
z
M 3547 1325 
Q 2834 1325 2451 1128 
Q 2069 931 2069 594 
Q 2069 259 2453 62 
Q 2838 -134 3547 -134 
Q 4256 -134 4647 62 
Q 5038 259 5038 594 
Q 5038 931 4648 1128 
Q 4259 1325 3547 1325 
z
" transform="scale(0.015625)"/>
      <path id="MalgunGothic-d65c" d="M 609 4581 
L 609 4966 
L 2150 4966 
L 2150 5528 
L 2619 5528 
L 2619 4966 
L 4159 4966 
L 4159 4581 
L 609 4581 
z
M 5216 3122 
L 5216 1906 
L 4750 1906 
L 4750 5466 
L 5216 5466 
L 5216 3547 
L 6119 3547 
L 6119 3122 
L 5216 3122 
z
M 469 1978 
L 422 2363 
Q 844 2363 2150 2388 
L 2150 2803 
Q 1547 2841 1215 3053 
Q 884 3266 884 3578 
Q 884 3919 1284 4136 
Q 1684 4353 2388 4353 
Q 3091 4353 3487 4134 
Q 3884 3916 3884 3578 
Q 3884 3253 3551 3047 
Q 3219 2841 2613 2803 
L 2613 2400 
Q 3606 2416 4300 2463 
L 4347 2094 
Q 3831 2053 2412 2015 
Q 994 1978 469 1978 
z
M 2388 4000 
Q 1356 4000 1356 3578 
Q 1356 3156 2388 3156 
Q 3413 3156 3413 3578 
Q 3413 4000 2388 4000 
z
M 1472 -513 
L 1472 750 
L 4756 750 
L 4756 1216 
L 1472 1216 
L 1472 1600 
L 5216 1600 
L 5216 384 
L 1931 384 
L 1931 -128 
L 5381 -128 
L 5381 -513 
L 1472 -513 
z
" transform="scale(0.015625)"/>
      <path id="MalgunGothic-b41c" d="M 4897 966 
L 4897 5466 
L 5363 5466 
L 5363 966 
L 4897 966 
z
M 4434 1791 
Q 2453 1678 616 1678 
L 550 2119 
Q 1338 2119 2350 2131 
L 2350 2994 
L 1081 2994 
L 1081 5094 
L 3963 5094 
L 3963 4672 
L 1550 4672 
L 1550 3413 
L 4031 3413 
L 4031 2994 
L 2816 2994 
L 2816 2138 
Q 4022 2169 4397 2209 
L 4434 1791 
z
M 1509 -422 
L 1509 1216 
L 1978 1216 
L 1978 -6 
L 5544 -6 
L 5544 -422 
L 1509 -422 
z
" transform="scale(0.015625)"/>
      <path id="MalgunGothic-b370" d="M 5044 -563 
L 5044 5466 
L 5509 5466 
L 5509 -563 
L 5044 -563 
z
M 3897 -366 
L 3897 2859 
L 2650 2859 
L 2650 3272 
L 3897 3272 
L 3897 5344 
L 4359 5344 
L 4359 -366 
L 3897 -366 
z
M 3359 1094 
Q 2766 1019 909 1019 
L 909 4966 
L 3138 4966 
L 3138 4550 
L 1369 4550 
L 1369 1428 
Q 2897 1428 3328 1491 
L 3359 1094 
z
" transform="scale(0.015625)"/>
      <path id="MalgunGothic-d130" d="M 4891 -563 
L 4891 2516 
L 3706 2516 
L 3706 2925 
L 4891 2925 
L 4891 5466 
L 5356 5466 
L 5356 -563 
L 4891 -563 
z
M 1422 2816 
L 1422 1331 
L 2144 1331 
Q 3525 1331 4141 1409 
L 4172 1006 
Q 3694 950 3141 936 
Q 2588 922 953 922 
L 953 4953 
L 3841 4953 
L 3841 4531 
L 1422 4531 
L 1422 3219 
L 3181 3219 
L 3181 2816 
L 1422 2816 
z
" transform="scale(0.015625)"/>
      <path id="MalgunGothic-c758" d="M 5013 -563 
L 5013 5466 
L 5478 5466 
L 5478 -563 
L 5013 -563 
z
M 2450 2131 
Q 1775 2131 1315 2540 
Q 856 2950 856 3572 
Q 856 4181 1312 4593 
Q 1769 5006 2450 5006 
Q 3128 5006 3586 4590 
Q 4044 4175 4044 3572 
Q 4044 2947 3587 2539 
Q 3131 2131 2450 2131 
z
M 2450 4594 
Q 1975 4594 1656 4306 
Q 1338 4019 1338 3572 
Q 1338 3119 1664 2833 
Q 1991 2547 2450 2547 
Q 2922 2547 3244 2833 
Q 3566 3119 3566 3572 
Q 3566 4025 3247 4309 
Q 2928 4594 2450 4594 
z
M 459 531 
L 416 934 
Q 1222 934 2667 965 
Q 4113 997 4588 1038 
L 4616 634 
Q 4125 594 2679 562 
Q 1234 531 459 531 
z
" transform="scale(0.015625)"/>
      <path id="MalgunGothic-bcc0" d="M 1038 2059 
L 1038 5184 
L 1497 5184 
L 1497 4072 
L 3366 4072 
L 3366 5184 
L 3828 5184 
L 3828 4416 
L 4947 4416 
L 4947 5466 
L 5416 5466 
L 5416 1063 
L 4947 1063 
L 4947 2669 
L 3828 2669 
L 3828 2059 
L 1038 2059 
z
M 3828 3084 
L 4947 3084 
L 4947 4000 
L 3828 4000 
L 3828 3084 
z
M 3366 3653 
L 1497 3653 
L 1497 2478 
L 3366 2478 
L 3366 3653 
z
M 1734 -391 
L 1734 1563 
L 2203 1563 
L 2203 25 
L 5606 25 
L 5606 -391 
L 1734 -391 
z
" transform="scale(0.015625)"/>
      <path id="MalgunGothic-b3d9" d="M 403 2119 
L 403 2534 
L 2963 2534 
L 2963 3316 
L 1338 3316 
L 1338 5325 
L 5081 5325 
L 5081 4909 
L 1813 4909 
L 1813 3731 
L 5153 3731 
L 5153 3316 
L 3438 3316 
L 3438 2534 
L 5997 2534 
L 5997 2119 
L 403 2119 
z
M 3200 -513 
Q 2247 -513 1740 -211 
Q 1234 91 1234 603 
Q 1234 1116 1742 1416 
Q 2250 1716 3200 1716 
Q 4150 1716 4658 1416 
Q 5166 1116 5166 603 
Q 5166 91 4659 -211 
Q 4153 -513 3200 -513 
z
M 3200 1319 
Q 2478 1319 2103 1126 
Q 1728 934 1728 603 
Q 1728 272 2104 78 
Q 2481 -116 3200 -116 
Q 3919 -116 4295 78 
Q 4672 272 4672 603 
Q 4672 934 4295 1126 
Q 3919 1319 3200 1319 
z
" transform="scale(0.015625)"/>
      <path id="MalgunGothic-c131" d="M 4947 1984 
L 4947 3781 
L 3541 3781 
L 3541 4200 
L 4947 4200 
L 4947 5466 
L 5416 5466 
L 5416 1984 
L 4947 1984 
z
M 3653 2328 
Q 3244 2550 2831 2950 
Q 2419 3350 2253 3700 
Q 2075 3303 1659 2858 
Q 1244 2413 819 2175 
L 488 2497 
Q 1134 2806 1571 3393 
Q 2009 3981 2009 4628 
L 2009 5269 
L 2463 5269 
L 2463 4628 
Q 2463 4025 2916 3472 
Q 3369 2919 3969 2669 
L 3653 2328 
z
M 3566 -475 
Q 2622 -475 2108 -148 
Q 1594 178 1594 697 
Q 1594 1216 2106 1539 
Q 2619 1863 3566 1863 
Q 4513 1863 5025 1539 
Q 5538 1216 5538 697 
Q 5538 178 5023 -148 
Q 4509 -475 3566 -475 
z
M 3566 1466 
Q 2850 1466 2472 1248 
Q 2094 1031 2094 697 
Q 2094 359 2473 143 
Q 2853 -72 3566 -72 
Q 4275 -72 4656 142 
Q 5038 356 5038 697 
Q 5038 1034 4659 1250 
Q 4281 1466 3566 1466 
z
" transform="scale(0.015625)"/>
      <path id="MalgunGothic-d0d0" d="M 5125 3519 
L 5125 2131 
L 4659 2131 
L 4659 5466 
L 5125 5466 
L 5125 3938 
L 6034 3938 
L 6034 3519 
L 5125 3519 
z
M 1300 3622 
L 1300 2894 
Q 3178 2894 3872 2956 
L 3903 2541 
Q 2859 2472 831 2472 
L 831 5153 
L 3688 5153 
L 3688 4728 
L 1300 4728 
L 1300 4025 
L 3372 4025 
L 3372 3622 
L 1300 3622 
z
M 1453 -397 
L 1453 1800 
L 5125 1800 
L 5125 -397 
L 1453 -397 
z
M 4666 1388 
L 1913 1388 
L 1913 19 
L 4666 19 
L 4666 1388 
z
" transform="scale(0.015625)"/>
      <path id="MalgunGothic-c9c0" d="M 4884 -563 
L 4884 5466 
L 5350 5466 
L 5350 -563 
L 4884 -563 
z
M 3775 909 
Q 3228 1338 2822 1881 
Q 2416 2425 2297 2859 
Q 2178 2397 1756 1814 
Q 1334 1231 825 825 
L 475 1147 
Q 1191 1638 1625 2425 
Q 2059 3213 2059 4019 
L 2059 4525 
L 716 4525 
L 716 4941 
L 3884 4941 
L 3884 4525 
L 2528 4525 
L 2528 4038 
Q 2528 3238 2968 2459 
Q 3409 1681 4097 1269 
L 3775 909 
z
" transform="scale(0.015625)"/>
     </defs>
     <use xlink:href="#MalgunGothic-d3c9"/>
     <use xlink:href="#MalgunGothic-d65c" x="100"/>
     <use xlink:href="#MalgunGothic-d654" x="200"/>
     <use xlink:href="#MalgunGothic-b41c" x="300"/>
     <use xlink:href="#MalgunGothic-20" x="400"/>
     <use xlink:href="#MalgunGothic-c774" x="435.15625"/>
     <use xlink:href="#MalgunGothic-c0b0" x="535.15625"/>
     <use xlink:href="#MalgunGothic-d654" x="635.15625"/>
     <use xlink:href="#MalgunGothic-d0c4" x="735.15625"/>
     <use xlink:href="#MalgunGothic-c18c" x="835.15625"/>
     <use xlink:href="#MalgunGothic-20" x="935.15625"/>
     <use xlink:href="#MalgunGothic-b370" x="970.3125"/>
     <use xlink:href="#MalgunGothic-c774" x="1070.3125"/>
     <use xlink:href="#MalgunGothic-d130" x="1170.3125"/>
     <use xlink:href="#MalgunGothic-c758" x="1270.3125"/>
     <use xlink:href="#MalgunGothic-20" x="1370.3125"/>
     <use xlink:href="#MalgunGothic-bcc0" x="1405.46875"/>
     <use xlink:href="#MalgunGothic-b3d9" x="1505.46875"/>
     <use xlink:href="#MalgunGothic-c131" x="1605.46875"/>
     <use xlink:href="#MalgunGothic-20" x="1705.46875"/>
     <use xlink:href="#MalgunGothic-d0d0" x="1740.625"/>
     <use xlink:href="#MalgunGothic-c9c0" x="1840.625"/>
    </g>
   </g>
  </g>
 </g>
 <defs>
  <clipPath id="pbcf5cd0f5d">
   <rect x="135" y="69.12" width="837" height="443.52"/>
  </clipPath>
 </defs>
</svg>
