<?xml version="1.0" encoding="utf-8" standalone="no"?>
<!DOCTYPE svg PUBLIC "-//W3C//DTD SVG 1.1//EN"
  "http://www.w3.org/Graphics/SVG/1.1/DTD/svg11.dtd">
<svg xmlns:xlink="http://www.w3.org/1999/xlink" width="1080pt" height="576pt" viewBox="0 0 1080 576" xmlns="http://www.w3.org/2000/svg" version="1.1">
 <metadata>
  <rdf:RDF xmlns:dc="http://purl.org/dc/elements/1.1/" xmlns:cc="http://creativecommons.org/ns#" xmlns:rdf="http://www.w3.org/1999/02/22-rdf-syntax-ns#">
   <cc:Work>
    <dc:type rdf:resource="http://purl.org/dc/dcmitype/StillImage"/>
    <dc:date>2024-11-12T22:44:46.753376</dc:date>
    <dc:format>image/svg+xml</dc:format>
    <dc:creator>
     <cc:Agent>
      <dc:title>Matplotlib v3.9.2, https://matplotlib.org/</dc:title>
     </cc:Agent>
    </dc:creator>
   </cc:Work>
  </rdf:RDF>
 </metadata>
 <defs>
  <style type="text/css">*{stroke-linejoin: round; stroke-linecap: butt}</style>
 </defs>
 <g id="figure_1">
  <g id="patch_1">
   <path d="M 0 576 
L 1080 576 
L 1080 0 
L 0 0 
z
" style="fill: #ffffff"/>
  </g>
  <g id="axes_1">
   <g id="patch_2">
    <path d="M 135 512.64 
L 972 512.64 
L 972 69.12 
L 135 69.12 
z
" style="fill: #ffffff"/>
   </g>
   <g id="matplotlib.axis_1">
    <g id="xtick_1">
     <g id="line2d_1">
      <path d="M 135 512.64 
L 135 69.12 
" clip-path="url(#pa7ff9e9cb2)" style="fill: none; stroke: #a9a9a9; stroke-opacity: 0.7; stroke-width: 1.5; stroke-linecap: round"/>
     </g>
     <g id="text_1">
      <!-- 0일 -->
      <g style="fill: #262626" transform="translate(124.144531 532.769063) scale(0.14 -0.14)">
       <defs>
        <path id="MalgunGothic-30" d="M 278 2206 
Q 278 3425 675 4050 
Q 1072 4675 1819 4675 
Q 3253 4675 3253 2319 
Q 3253 1156 2854 539 
Q 2456 -78 1716 -78 
Q 1016 -78 647 520 
Q 278 1119 278 2206 
z
M 784 2231 
Q 784 344 1769 344 
Q 2747 344 2747 2259 
Q 2747 4250 1794 4250 
Q 784 4250 784 2231 
z
" transform="scale(0.015625)"/>
        <path id="MalgunGothic-c77c" d="M 4947 2363 
L 4947 5466 
L 5422 5466 
L 5422 2363 
L 4947 2363 
z
M 2419 2578 
Q 1738 2578 1314 2970 
Q 891 3363 891 3969 
Q 891 4572 1314 4961 
Q 1738 5350 2419 5350 
Q 3097 5350 3523 4959 
Q 3950 4569 3950 3969 
Q 3950 3366 3522 2972 
Q 3094 2578 2419 2578 
z
M 2419 4947 
Q 1931 4947 1643 4680 
Q 1356 4413 1356 3969 
Q 1356 3522 1643 3248 
Q 1931 2975 2419 2975 
Q 2906 2975 3193 3248 
Q 3481 3522 3481 3969 
Q 3481 4413 3193 4680 
Q 2906 4947 2419 4947 
z
M 1703 -422 
L 1703 1038 
L 4959 1038 
L 4959 1613 
L 1703 1613 
L 1703 2028 
L 5422 2028 
L 5422 634 
L 2163 634 
L 2163 -6 
L 5588 -6 
L 5588 -422 
L 1703 -422 
z
" transform="scale(0.015625)"/>
       </defs>
       <use xlink:href="#MalgunGothic-30"/>
       <use xlink:href="#MalgunGothic-c77c" x="55.078125"/>
      </g>
     </g>
    </g>
    <g id="xtick_2">
     <g id="line2d_2">
      <path d="M 211.623013 512.64 
L 211.623013 69.12 
" clip-path="url(#pa7ff9e9cb2)" style="fill: none; stroke: #a9a9a9; stroke-opacity: 0.7; stroke-width: 1.5; stroke-linecap: round"/>
     </g>
     <g id="text_2">
      <!-- 1일 -->
      <g style="fill: #262626" transform="translate(200.767545 532.769063) scale(0.14 -0.14)">
       <defs>
        <path id="MalgunGothic-31" d="M 2231 0 
L 1734 0 
L 1734 3972 
Q 1591 3828 1266 3661 
Q 941 3494 672 3428 
L 672 3959 
Q 1016 4056 1409 4275 
Q 1803 4494 2031 4700 
L 2231 4700 
L 2231 0 
z
" transform="scale(0.015625)"/>
       </defs>
       <use xlink:href="#MalgunGothic-31"/>
       <use xlink:href="#MalgunGothic-c77c" x="55.078125"/>
      </g>
     </g>
    </g>
    <g id="xtick_3">
     <g id="line2d_3">
      <path d="M 288.246027 512.64 
L 288.246027 69.12 
" clip-path="url(#pa7ff9e9cb2)" style="fill: none; stroke: #a9a9a9; stroke-opacity: 0.7; stroke-width: 1.5; stroke-linecap: round"/>
     </g>
     <g id="text_3">
      <!-- 2일 -->
      <g style="fill: #262626" transform="translate(277.390558 532.769063) scale(0.14 -0.14)">
       <defs>
        <path id="MalgunGothic-32" d="M 2519 3372 
Q 2519 3784 2275 4018 
Q 2031 4253 1628 4253 
Q 1341 4253 1053 4104 
Q 766 3956 534 3697 
L 534 4234 
Q 981 4675 1691 4675 
Q 2281 4675 2642 4334 
Q 3003 3994 3003 3416 
Q 3003 2919 2772 2545 
Q 2541 2172 1984 1775 
Q 1459 1406 1254 1215 
Q 1050 1025 967 854 
Q 884 684 884 450 
L 3116 450 
L 3116 0 
L 356 0 
L 356 225 
Q 356 603 461 870 
Q 566 1138 811 1392 
Q 1056 1647 1597 2022 
Q 2091 2363 2305 2670 
Q 2519 2978 2519 3372 
z
" transform="scale(0.015625)"/>
       </defs>
       <use xlink:href="#MalgunGothic-32"/>
       <use xlink:href="#MalgunGothic-c77c" x="55.078125"/>
      </g>
     </g>
    </g>
    <g id="xtick_4">
     <g id="line2d_4">
      <path d="M 364.86904 512.64 
L 364.86904 69.12 
" clip-path="url(#pa7ff9e9cb2)" style="fill: none; stroke: #a9a9a9; stroke-opacity: 0.7; stroke-width: 1.5; stroke-linecap: round"/>
     </g>
     <g id="text_4">
      <!-- 3일 -->
      <g style="fill: #262626" transform="translate(354.013571 532.769063) scale(0.14 -0.14)">
       <defs>
        <path id="MalgunGothic-33" d="M 416 719 
Q 891 344 1478 344 
Q 1959 344 2254 587 
Q 2550 831 2550 1247 
Q 2550 2169 1253 2169 
L 872 2169 
L 872 2591 
L 1234 2591 
Q 2388 2591 2388 3453 
Q 2388 4250 1509 4250 
Q 1022 4250 594 3916 
L 594 4413 
Q 1031 4675 1634 4675 
Q 2184 4675 2539 4372 
Q 2894 4069 2894 3581 
Q 2894 2678 1972 2409 
L 1972 2400 
Q 2469 2356 2764 2053 
Q 3059 1750 3059 1300 
Q 3059 672 2604 297 
Q 2150 -78 1450 -78 
Q 806 -78 416 169 
L 416 719 
z
" transform="scale(0.015625)"/>
       </defs>
       <use xlink:href="#MalgunGothic-33"/>
       <use xlink:href="#MalgunGothic-c77c" x="55.078125"/>
      </g>
     </g>
    </g>
    <g id="xtick_5">
     <g id="line2d_5">
      <path d="M 441.492053 512.64 
L 441.492053 69.12 
" clip-path="url(#pa7ff9e9cb2)" style="fill: none; stroke: #a9a9a9; stroke-opacity: 0.7; stroke-width: 1.5; stroke-linecap: round"/>
     </g>
     <g id="text_5">
      <!-- 4일 -->
      <g style="fill: #262626" transform="translate(430.636585 532.769063) scale(0.14 -0.14)">
       <defs>
        <path id="MalgunGothic-34" d="M 2703 4600 
L 2703 1563 
L 3309 1563 
L 3309 1113 
L 2703 1113 
L 2703 0 
L 2213 0 
L 2213 1113 
L 50 1113 
L 50 1534 
Q 728 2297 1295 3109 
Q 1863 3922 2172 4600 
L 2703 4600 
z
M 625 1563 
L 2213 1563 
L 2213 3831 
Q 1613 2788 959 1981 
L 625 1563 
z
" transform="scale(0.015625)"/>
       </defs>
       <use xlink:href="#MalgunGothic-34"/>
       <use xlink:href="#MalgunGothic-c77c" x="55.078125"/>
      </g>
     </g>
    </g>
    <g id="xtick_6">
     <g id="line2d_6">
      <path d="M 518.115067 512.64 
L 518.115067 69.12 
" clip-path="url(#pa7ff9e9cb2)" style="fill: none; stroke: #a9a9a9; stroke-opacity: 0.7; stroke-width: 1.5; stroke-linecap: round"/>
     </g>
     <g id="text_6">
      <!-- 5일 -->
      <g style="fill: #262626" transform="translate(507.259598 532.769063) scale(0.14 -0.14)">
       <defs>
        <path id="MalgunGothic-35" d="M 3072 1403 
Q 3072 722 2636 322 
Q 2200 -78 1469 -78 
Q 828 -78 516 113 
L 516 650 
Q 994 344 1475 344 
Q 1969 344 2270 630 
Q 2572 916 2572 1372 
Q 2572 1838 2265 2092 
Q 1959 2347 1381 2347 
Q 994 2347 603 2300 
L 759 4600 
L 2869 4600 
L 2869 4147 
L 1206 4147 
L 1106 2763 
Q 1347 2784 1547 2784 
Q 2263 2784 2667 2414 
Q 3072 2044 3072 1403 
z
" transform="scale(0.015625)"/>
       </defs>
       <use xlink:href="#MalgunGothic-35"/>
       <use xlink:href="#MalgunGothic-c77c" x="55.078125"/>
      </g>
     </g>
    </g>
    <g id="xtick_7">
     <g id="line2d_7">
      <path d="M 594.73808 512.64 
L 594.73808 69.12 
" clip-path="url(#pa7ff9e9cb2)" style="fill: none; stroke: #a9a9a9; stroke-opacity: 0.7; stroke-width: 1.5; stroke-linecap: round"/>
     </g>
     <g id="text_7">
      <!-- 6일 -->
      <g style="fill: #262626" transform="translate(583.882611 532.769063) scale(0.14 -0.14)">
       <defs>
        <path id="MalgunGothic-36" d="M 2981 4069 
Q 2619 4250 2228 4250 
Q 1591 4250 1228 3689 
Q 866 3128 869 2213 
L 884 2213 
Q 1203 2872 1938 2872 
Q 2547 2872 2903 2478 
Q 3259 2084 3259 1450 
Q 3259 797 2857 359 
Q 2456 -78 1825 -78 
Q 1116 -78 736 478 
Q 356 1034 356 2019 
Q 356 3181 847 3928 
Q 1338 4675 2222 4675 
Q 2700 4675 2981 4544 
L 2981 4069 
z
M 906 1506 
Q 906 1022 1165 683 
Q 1425 344 1844 344 
Q 2247 344 2498 645 
Q 2750 947 2750 1388 
Q 2750 1888 2509 2167 
Q 2269 2447 1838 2447 
Q 1444 2447 1175 2173 
Q 906 1900 906 1506 
z
" transform="scale(0.015625)"/>
       </defs>
       <use xlink:href="#MalgunGothic-36"/>
       <use xlink:href="#MalgunGothic-c77c" x="55.078125"/>
      </g>
     </g>
    </g>
    <g id="xtick_8">
     <g id="line2d_8">
      <path d="M 671.361093 512.64 
L 671.361093 69.12 
" clip-path="url(#pa7ff9e9cb2)" style="fill: none; stroke: #a9a9a9; stroke-opacity: 0.7; stroke-width: 1.5; stroke-linecap: round"/>
     </g>
     <g id="text_8">
      <!-- 7일 -->
      <g style="fill: #262626" transform="translate(660.505625 532.769063) scale(0.14 -0.14)">
       <defs>
        <path id="MalgunGothic-37" d="M 3213 4297 
Q 2478 3006 2064 1918 
Q 1650 831 1550 0 
L 1009 0 
Q 1084 531 1290 1176 
Q 1497 1822 1815 2537 
Q 2134 3253 2631 4147 
L 291 4147 
L 291 4600 
L 3213 4600 
L 3213 4297 
z
" transform="scale(0.015625)"/>
       </defs>
       <use xlink:href="#MalgunGothic-37"/>
       <use xlink:href="#MalgunGothic-c77c" x="55.078125"/>
      </g>
     </g>
    </g>
    <g id="xtick_9">
     <g id="line2d_9">
      <path d="M 747.984107 512.64 
L 747.984107 69.12 
" clip-path="url(#pa7ff9e9cb2)" style="fill: none; stroke: #a9a9a9; stroke-opacity: 0.7; stroke-width: 1.5; stroke-linecap: round"/>
     </g>
     <g id="text_9">
      <!-- 8일 -->
      <g style="fill: #262626" transform="translate(737.128638 532.769063) scale(0.14 -0.14)">
       <defs>
        <path id="MalgunGothic-38" d="M 303 1281 
Q 303 1669 539 2011 
Q 775 2353 1153 2494 
Q 856 2647 675 2915 
Q 494 3184 494 3500 
Q 494 3828 659 4098 
Q 825 4369 1122 4522 
Q 1419 4675 1778 4675 
Q 2334 4675 2700 4342 
Q 3066 4009 3066 3500 
Q 3066 3181 2881 2914 
Q 2697 2647 2413 2494 
Q 2788 2350 3022 2009 
Q 3256 1669 3256 1281 
Q 3256 672 2843 297 
Q 2431 -78 1778 -78 
Q 1131 -78 717 301 
Q 303 681 303 1281 
z
M 809 1328 
Q 809 878 1081 611 
Q 1353 344 1781 344 
Q 2206 344 2482 619 
Q 2759 894 2759 1328 
Q 2759 1731 2482 2011 
Q 2206 2291 1781 2291 
Q 1372 2291 1090 2020 
Q 809 1750 809 1328 
z
M 1003 3459 
Q 1003 3125 1234 2900 
Q 1466 2675 1781 2675 
Q 2097 2675 2330 2900 
Q 2563 3125 2563 3459 
Q 2563 3803 2341 4026 
Q 2119 4250 1781 4250 
Q 1450 4250 1226 4029 
Q 1003 3809 1003 3459 
z
" transform="scale(0.015625)"/>
       </defs>
       <use xlink:href="#MalgunGothic-38"/>
       <use xlink:href="#MalgunGothic-c77c" x="55.078125"/>
      </g>
     </g>
    </g>
    <g id="xtick_10">
     <g id="line2d_10">
      <path d="M 824.60712 512.64 
L 824.60712 69.12 
" clip-path="url(#pa7ff9e9cb2)" style="fill: none; stroke: #a9a9a9; stroke-opacity: 0.7; stroke-width: 1.5; stroke-linecap: round"/>
     </g>
     <g id="text_10">
      <!-- 9일 -->
      <g style="fill: #262626" transform="translate(813.751651 532.769063) scale(0.14 -0.14)">
       <defs>
        <path id="MalgunGothic-39" d="M 556 563 
Q 941 344 1366 344 
Q 1994 344 2347 855 
Q 2700 1366 2700 2313 
Q 2694 2306 2688 2313 
Q 2388 1713 1653 1713 
Q 1059 1713 682 2120 
Q 306 2528 306 3144 
Q 306 3806 711 4240 
Q 1116 4675 1772 4675 
Q 2466 4675 2833 4131 
Q 3200 3588 3200 2578 
Q 3200 1319 2717 620 
Q 2234 -78 1344 -78 
Q 881 -78 556 78 
L 556 563 
z
M 813 3219 
Q 813 2741 1063 2450 
Q 1313 2159 1759 2159 
Q 2147 2159 2406 2417 
Q 2666 2675 2666 3047 
Q 2666 3556 2411 3903 
Q 2156 4250 1725 4250 
Q 1322 4250 1067 3948 
Q 813 3647 813 3219 
z
" transform="scale(0.015625)"/>
       </defs>
       <use xlink:href="#MalgunGothic-39"/>
       <use xlink:href="#MalgunGothic-c77c" x="55.078125"/>
      </g>
     </g>
    </g>
    <g id="xtick_11">
     <g id="line2d_11">
      <path d="M 901.230134 512.64 
L 901.230134 69.12 
" clip-path="url(#pa7ff9e9cb2)" style="fill: none; stroke: #a9a9a9; stroke-opacity: 0.7; stroke-width: 1.5; stroke-linecap: round"/>
     </g>
     <g id="text_11">
      <!-- 10일 -->
      <g style="fill: #262626" transform="translate(886.519196 532.769063) scale(0.14 -0.14)">
       <use xlink:href="#MalgunGothic-31"/>
       <use xlink:href="#MalgunGothic-30" x="55.078125"/>
       <use xlink:href="#MalgunGothic-c77c" x="110.15625"/>
      </g>
     </g>
    </g>
    <g id="text_12">
     <!-- 상대 시간(일) -->
     <g style="fill: #262626" transform="translate(505.8125 552.57125) scale(0.16 -0.16)">
      <defs>
       <path id="MalgunGothic-c0c1" d="M 5125 3391 
L 5125 1991 
L 4659 1991 
L 4659 5466 
L 5125 5466 
L 5125 3816 
L 6034 3816 
L 6034 3391 
L 5125 3391 
z
M 3603 2316 
Q 3206 2528 2778 2934 
Q 2350 3341 2188 3681 
Q 2022 3291 1609 2852 
Q 1197 2413 750 2163 
L 409 2484 
Q 1072 2806 1512 3397 
Q 1953 3988 1953 4628 
L 1953 5259 
L 2400 5259 
L 2400 4628 
Q 2400 4025 2845 3472 
Q 3291 2919 3909 2656 
L 3603 2316 
z
M 3263 -513 
Q 2322 -513 1811 -186 
Q 1300 141 1300 659 
Q 1300 1175 1812 1500 
Q 2325 1825 3263 1825 
Q 4203 1825 4715 1501 
Q 5228 1178 5228 659 
Q 5228 138 4717 -187 
Q 4206 -513 3263 -513 
z
M 3263 1428 
Q 2563 1428 2180 1215 
Q 1797 1003 1797 659 
Q 1797 309 2181 96 
Q 2566 -116 3263 -116 
Q 3969 -116 4353 98 
Q 4738 313 4738 659 
Q 4738 1000 4353 1214 
Q 3969 1428 3263 1428 
z
" transform="scale(0.015625)"/>
       <path id="MalgunGothic-b300" d="M 5069 -563 
L 5069 2572 
L 4294 2572 
L 4294 -378 
L 3834 -378 
L 3834 5344 
L 4294 5344 
L 4294 2988 
L 5069 2988 
L 5069 5466 
L 5538 5466 
L 5538 -563 
L 5069 -563 
z
M 3391 1153 
Q 2516 1063 825 1063 
L 825 4934 
L 3138 4934 
L 3138 4519 
L 1288 4519 
L 1288 1478 
L 1844 1478 
Q 2791 1478 3359 1550 
L 3391 1153 
z
" transform="scale(0.015625)"/>
       <path id="MalgunGothic-20" transform="scale(0.015625)"/>
       <path id="MalgunGothic-c2dc" d="M 4947 -563 
L 4947 5466 
L 5416 5466 
L 5416 -563 
L 4947 -563 
z
M 3769 966 
Q 3263 1353 2820 1939 
Q 2378 2525 2259 2950 
Q 2116 2463 1687 1872 
Q 1259 1281 756 891 
L 397 1203 
Q 1141 1703 1581 2479 
Q 2022 3256 2022 4063 
L 2022 5050 
L 2484 5050 
L 2484 4084 
Q 2484 3303 2920 2556 
Q 3356 1809 4097 1331 
L 3769 966 
z
" transform="scale(0.015625)"/>
       <path id="MalgunGothic-ac04" d="M 5125 3122 
L 5125 1063 
L 4659 1063 
L 4659 5466 
L 5125 5466 
L 5125 3541 
L 6034 3541 
L 6034 3122 
L 5125 3122 
z
M 3513 5100 
Q 3403 3872 2556 3011 
Q 1709 2150 794 1800 
L 469 2163 
Q 1344 2450 2087 3172 
Q 2831 3894 2963 4678 
L 831 4678 
L 831 5100 
L 3513 5100 
z
M 1459 -325 
L 1459 1509 
L 1925 1509 
L 1925 97 
L 5294 97 
L 5294 -325 
L 1459 -325 
z
" transform="scale(0.015625)"/>
       <path id="MalgunGothic-28" d="M 1438 -1044 
Q 447 88 447 1753 
Q 447 3431 1438 4600 
L 1888 4600 
Q 878 3372 878 1759 
Q 878 153 1881 -1044 
L 1438 -1044 
z
" transform="scale(0.015625)"/>
       <path id="MalgunGothic-29" d="M 81 -1044 
Q 1081 150 1081 1759 
Q 1081 3378 72 4600 
L 525 4600 
Q 1522 3431 1522 1753 
Q 1522 88 525 -1044 
L 81 -1044 
z
" transform="scale(0.015625)"/>
      </defs>
      <use xlink:href="#MalgunGothic-c0c1"/>
      <use xlink:href="#MalgunGothic-b300" x="100"/>
      <use xlink:href="#MalgunGothic-20" x="200"/>
      <use xlink:href="#MalgunGothic-c2dc" x="235.15625"/>
      <use xlink:href="#MalgunGothic-ac04" x="335.15625"/>
      <use xlink:href="#MalgunGothic-28" x="435.15625"/>
      <use xlink:href="#MalgunGothic-c77c" x="465.625"/>
      <use xlink:href="#MalgunGothic-29" x="565.625"/>
     </g>
    </g>
   </g>
   <g id="matplotlib.axis_2">
    <g id="ytick_1">
     <g id="text_13">
      <!-- 0 -->
      <g style="fill: #262626" transform="translate(117.789062 501.523503) scale(0.14 -0.14)">
       <use xlink:href="#MalgunGothic-30"/>
      </g>
     </g>
    </g>
    <g id="ytick_2">
     <g id="text_14">
      <!-- 10000 -->
      <g style="fill: #262626" transform="translate(86.945312 438.629734) scale(0.14 -0.14)">
       <use xlink:href="#MalgunGothic-31"/>
       <use xlink:href="#MalgunGothic-30" x="55.078125"/>
       <use xlink:href="#MalgunGothic-30" x="110.15625"/>
       <use xlink:href="#MalgunGothic-30" x="165.234375"/>
       <use xlink:href="#MalgunGothic-30" x="220.3125"/>
      </g>
     </g>
    </g>
    <g id="ytick_3">
     <g id="text_15">
      <!-- 20000 -->
      <g style="fill: #262626" transform="translate(86.945312 375.735966) scale(0.14 -0.14)">
       <use xlink:href="#MalgunGothic-32"/>
       <use xlink:href="#MalgunGothic-30" x="55.078125"/>
       <use xlink:href="#MalgunGothic-30" x="110.15625"/>
       <use xlink:href="#MalgunGothic-30" x="165.234375"/>
       <use xlink:href="#MalgunGothic-30" x="220.3125"/>
      </g>
     </g>
    </g>
    <g id="ytick_4">
     <g id="text_16">
      <!-- 30000 -->
      <g style="fill: #262626" transform="translate(86.945312 312.842197) scale(0.14 -0.14)">
       <use xlink:href="#MalgunGothic-33"/>
       <use xlink:href="#MalgunGothic-30" x="55.078125"/>
       <use xlink:href="#MalgunGothic-30" x="110.15625"/>
       <use xlink:href="#MalgunGothic-30" x="165.234375"/>
       <use xlink:href="#MalgunGothic-30" x="220.3125"/>
      </g>
     </g>
    </g>
    <g id="ytick_5">
     <g id="text_17">
      <!-- 40000 -->
      <g style="fill: #262626" transform="translate(86.945312 249.948429) scale(0.14 -0.14)">
       <use xlink:href="#MalgunGothic-34"/>
       <use xlink:href="#MalgunGothic-30" x="55.078125"/>
       <use xlink:href="#MalgunGothic-30" x="110.15625"/>
       <use xlink:href="#MalgunGothic-30" x="165.234375"/>
       <use xlink:href="#MalgunGothic-30" x="220.3125"/>
      </g>
     </g>
    </g>
    <g id="ytick_6">
     <g id="text_18">
      <!-- 50000 -->
      <g style="fill: #262626" transform="translate(86.945312 187.05466) scale(0.14 -0.14)">
       <use xlink:href="#MalgunGothic-35"/>
       <use xlink:href="#MalgunGothic-30" x="55.078125"/>
       <use xlink:href="#MalgunGothic-30" x="110.15625"/>
       <use xlink:href="#MalgunGothic-30" x="165.234375"/>
       <use xlink:href="#MalgunGothic-30" x="220.3125"/>
      </g>
     </g>
    </g>
    <g id="ytick_7">
     <g id="text_19">
      <!-- 60000 -->
      <g style="fill: #262626" transform="translate(86.945312 124.160892) scale(0.14 -0.14)">
       <use xlink:href="#MalgunGothic-36"/>
       <use xlink:href="#MalgunGothic-30" x="55.078125"/>
       <use xlink:href="#MalgunGothic-30" x="110.15625"/>
       <use xlink:href="#MalgunGothic-30" x="165.234375"/>
       <use xlink:href="#MalgunGothic-30" x="220.3125"/>
      </g>
     </g>
    </g>
    <g id="text_20">
     <!-- 이산화탄소 -->
     <g style="fill: #262626" transform="translate(79.162813 330.88) rotate(-90) scale(0.16 -0.16)">
      <defs>
       <path id="MalgunGothic-c774" d="M 4947 -563 
L 4947 5466 
L 5416 5466 
L 5416 -563 
L 4947 -563 
z
M 2284 959 
Q 1597 959 1173 1514 
Q 750 2069 750 3016 
Q 750 3975 1169 4522 
Q 1588 5069 2284 5069 
Q 2978 5069 3403 4522 
Q 3828 3975 3828 3016 
Q 3828 2063 3401 1511 
Q 2975 959 2284 959 
z
M 2284 4653 
Q 1803 4653 1503 4204 
Q 1203 3756 1203 3016 
Q 1203 2278 1506 1826 
Q 1809 1375 2284 1375 
Q 2756 1375 3061 1828 
Q 3366 2281 3366 3016 
Q 3366 3759 3067 4206 
Q 2769 4653 2284 4653 
z
" transform="scale(0.015625)"/>
       <path id="MalgunGothic-c0b0" d="M 5125 3169 
L 5125 1081 
L 4659 1081 
L 4659 5466 
L 5125 5466 
L 5125 3584 
L 6034 3584 
L 6034 3169 
L 5125 3169 
z
M 3597 2081 
Q 3206 2294 2778 2731 
Q 2350 3169 2188 3525 
Q 2038 3125 1603 2642 
Q 1169 2159 750 1925 
L 409 2247 
Q 1041 2553 1492 3173 
Q 1944 3794 1953 4453 
L 1953 5228 
L 2400 5228 
L 2400 4453 
Q 2400 3841 2853 3259 
Q 3306 2678 3909 2419 
L 3597 2081 
z
M 1478 -353 
L 1478 1528 
L 1953 1528 
L 1953 72 
L 5325 72 
L 5325 -353 
L 1478 -353 
z
" transform="scale(0.015625)"/>
       <path id="MalgunGothic-d654" d="M 5228 2363 
L 5228 -563 
L 4763 -563 
L 4763 5466 
L 5228 5466 
L 5228 2778 
L 6156 2778 
L 6156 2363 
L 5228 2363 
z
M 2131 5441 
L 2591 5441 
L 2591 4653 
L 4159 4653 
L 4159 4238 
L 556 4238 
L 556 4653 
L 2131 4653 
L 2131 5441 
z
M 2591 1741 
L 2591 884 
Q 3688 900 4409 947 
L 4441 544 
Q 2791 447 359 447 
L 313 856 
Q 1141 856 2125 878 
L 2125 1734 
Q 1506 1791 1175 2092 
Q 844 2394 844 2828 
Q 844 3316 1250 3627 
Q 1656 3938 2363 3938 
Q 3059 3938 3465 3633 
Q 3872 3328 3872 2859 
Q 3872 2400 3536 2098 
Q 3200 1797 2591 1741 
z
M 2363 3541 
Q 1875 3541 1594 3342 
Q 1313 3144 1313 2828 
Q 1313 2513 1592 2319 
Q 1872 2125 2363 2125 
Q 2847 2125 3126 2320 
Q 3406 2516 3406 2828 
Q 3406 3144 3125 3342 
Q 2844 3541 2363 3541 
z
" transform="scale(0.015625)"/>
       <path id="MalgunGothic-d0c4" d="M 5125 3169 
L 5125 1125 
L 4659 1125 
L 4659 5466 
L 5125 5466 
L 5125 3584 
L 6034 3584 
L 6034 3169 
L 5125 3169 
z
M 1319 3431 
L 1319 2553 
Q 3244 2553 3872 2613 
L 3903 2209 
Q 3306 2138 850 2138 
L 850 5081 
L 3688 5081 
L 3688 4666 
L 1319 4666 
L 1319 3834 
L 3372 3834 
L 3372 3431 
L 1319 3431 
z
M 1459 -378 
L 1459 1606 
L 1925 1606 
L 1925 38 
L 5294 38 
L 5294 -378 
L 1459 -378 
z
" transform="scale(0.015625)"/>
       <path id="MalgunGothic-c18c" d="M 3194 3909 
Q 2963 3416 2330 2941 
Q 1697 2466 959 2259 
L 641 2631 
Q 1700 2872 2328 3497 
Q 2956 4122 2956 4666 
L 2956 4984 
L 3438 4984 
L 3438 4666 
Q 3438 4131 4069 3506 
Q 4700 2881 5759 2631 
L 5428 2266 
Q 4719 2481 4072 2957 
Q 3425 3434 3194 3909 
z
M 403 384 
L 403 800 
L 2963 800 
L 2963 2266 
L 3438 2266 
L 3438 800 
L 5997 800 
L 5997 384 
L 403 384 
z
" transform="scale(0.015625)"/>
      </defs>
      <use xlink:href="#MalgunGothic-c774"/>
      <use xlink:href="#MalgunGothic-c0b0" x="100"/>
      <use xlink:href="#MalgunGothic-d654" x="200"/>
      <use xlink:href="#MalgunGothic-d0c4" x="300"/>
      <use xlink:href="#MalgunGothic-c18c" x="400"/>
     </g>
    </g>
   </g>
   <g id="line2d_12">
    <path d="M 135 484.76545 
L 135.532104 478.254687 
L 136.596313 435.964289 
L 137.660521 378.761777 
L 138.72473 342.397858 
L 139.256834 330.45496 
L 140.321043 313.614525 
L 141.917355 293.435688 
L 142.44946 292.978451 
L 142.981564 315.728385 
L 143.513668 307.980501 
L 144.045772 296.502388 
L 144.577877 275.227942 
L 145.642085 280.024929 
L 146.706294 285.248256 
L 147.238398 358.996153 
L 147.770502 347.140677 
L 149.366815 288.05324 
L 149.898919 282.061979 
L 150.431024 269.795179 
L 150.963128 273.135467 
L 151.495232 274.013464 
L 152.027336 275.702161 
L 152.559441 284.229927 
L 153.091545 277.067585 
L 153.623649 277.462558 
L 154.687858 274.897121 
L 155.219962 279.009116 
L 155.752066 271.747401 
L 156.28417 271.411548 
L 156.816275 272.276967 
L 157.348379 278.939933 
L 157.880483 270.251158 
L 158.412587 276.871985 
L 158.944692 311.701925 
L 159.476796 309.009443 
L 160.0089 275.177627 
L 161.073109 263.261774 
L 161.605213 259.786893 
L 162.137317 251.969198 
L 162.669421 254.813254 
L 163.201526 258.75858 
L 164.265734 271.598972 
L 164.797839 271.352428 
L 165.329943 278.572004 
L 165.862047 311.374878 
L 166.394151 280.475169 
L 166.926256 272.710305 
L 167.45836 274.670075 
L 167.990464 302.459686 
L 168.522568 285.760762 
L 169.054673 261.024014 
L 169.586777 265.347331 
L 170.118881 280.766996 
L 170.650985 281.61166 
L 171.18309 298.488574 
L 171.715194 336.486473 
L 172.247298 331.815353 
L 172.779402 351.842615 
L 173.311507 367.442786 
L 173.843611 373.112659 
L 174.375715 374.383113 
L 174.907819 353.055207 
L 175.439924 350.571532 
L 175.972028 352.502371 
L 176.504132 366.986806 
L 177.036236 358.371617 
L 177.568341 342.53308 
L 178.100445 342.841259 
L 178.632549 340.138085 
L 179.164654 334.917273 
L 179.696758 331.607174 
L 180.228862 330.619113 
L 180.760966 322.192606 
L 181.293071 319.425909 
L 181.825175 318.763638 
L 182.357279 316.791918 
L 182.889383 324.822823 
L 183.421488 300.106201 
L 183.953592 291.649505 
L 184.485696 309.72203 
L 185.0178 315.473036 
L 185.549905 315.572408 
L 186.082009 318.096964 
L 187.146217 320.425291 
L 187.678322 320.286296 
L 188.210426 327.476312 
L 188.74253 331.992084 
L 189.274634 320.019626 
L 189.806739 319.38377 
L 190.338843 330.761253 
L 190.870947 316.586256 
L 191.403051 308.359751 
L 192.46726 318.398854 
L 192.999364 315.278065 
L 193.531469 291.533152 
L 194.063573 262.061132 
L 194.595677 251.70756 
L 196.19199 195.452857 
L 196.724094 159.113467 
L 197.256198 139.139664 
L 197.788303 110.359475 
L 198.320407 248.836459 
L 198.852511 447.532968 
L 199.384615 412.569065 
L 200.980928 266.512124 
L 201.513032 337.717933 
L 202.045137 377.163647 
L 206.301971 377.163647 
L 206.834075 454.531158 
L 207.366179 467.82124 
L 208.430388 445.234201 
L 208.962492 422.02074 
L 210.026701 265.036636 
L 210.558805 331.158113 
L 211.090909 377.163647 
L 228.65035 377.163647 
L 229.182454 379.243543 
L 229.714558 315.542848 
L 230.246662 377.163647 
L 343.58487 377.163647 
L 344.116974 360.969549 
L 344.649078 377.163647 
L 455.858868 377.163647 
L 498.959313 352.716839 
L 499.491418 174.488478 
L 500.023522 277.856273 
L 500.555626 424.267306 
L 501.08773 377.163647 
L 577.710744 377.163647 
L 578.242848 377.542896 
L 578.774952 380.868089 
L 579.307057 378.291961 
L 579.839161 379.585057 
L 580.371265 377.163647 
L 580.903369 384.256806 
L 581.435474 351.682236 
L 581.967578 310.382414 
L 582.499682 207.738526 
L 583.031786 469.555221 
L 583.563891 378.576241 
L 584.095995 401.031832 
L 584.628099 403.065187 
L 585.160203 380.016508 
L 585.692308 377.163647 
L 592.609663 377.163647 
L 593.673872 407.080954 
L 594.205976 396.529896 
L 594.73808 375.137209 
L 595.270184 362.334554 
L 595.802289 145.335329 
L 596.334393 106.297167 
L 596.866497 161.63991 
L 597.398601 136.271079 
L 597.930706 210.273774 
L 598.46281 366.093714 
L 598.994914 436.851091 
L 600.591227 388.612828 
L 601.123331 224.864499 
L 601.655435 423.083016 
L 602.18754 378.417748 
L 602.719644 377.163647 
L 606.444374 377.163647 
L 606.976478 379.872481 
L 607.508582 366.048431 
L 608.040687 169.894717 
L 608.572791 308.233963 
L 609.104895 235.22499 
L 609.636999 182.121894 
L 610.169104 144.246638 
L 610.701208 131.43329 
L 611.233312 437.969342 
L 611.765416 387.03105 
L 612.297521 394.968243 
L 612.829625 380.38821 
L 613.361729 412.658374 
L 613.893833 141.347235 
L 614.425938 154.161212 
L 614.958042 180.625023 
L 615.490146 177.449516 
L 616.02225 334.767586 
L 616.554355 244.805598 
L 617.086459 287.043166 
L 617.618563 133.634572 
L 618.150668 168.380235 
L 618.682772 178.823116 
L 619.74698 249.190551 
L 620.279085 210.274403 
L 621.343293 463.72434 
L 621.875397 206.834114 
L 622.407502 188.805615 
L 622.939606 160.179516 
L 623.47171 121.50488 
L 624.003814 123.777861 
L 624.535919 152.981324 
L 625.068023 163.566346 
L 625.600127 162.031738 
L 626.664336 268.580071 
L 627.19644 246.679832 
L 627.728544 302.234526 
L 628.260648 313.284333 
L 628.792753 227.999754 
L 629.324857 395.985236 
L 629.856961 434.941636 
L 630.389065 390.636121 
L 630.92117 406.982211 
L 631.453274 408.060839 
L 631.985378 396.570777 
L 632.517483 418.388625 
L 633.049587 419.696186 
L 633.581691 413.905557 
L 634.113795 411.533204 
L 634.6459 403.985952 
L 635.178004 398.867028 
L 635.710108 377.163647 
L 636.774317 377.163647 
L 637.306421 381.658664 
L 637.838525 398.858223 
L 638.370629 403.40104 
L 638.902734 419.532034 
L 639.434838 391.985192 
L 639.966942 398.312934 
L 640.499046 386.862495 
L 641.031151 381.830993 
L 641.563255 385.90588 
L 642.095359 405.876539 
L 642.627463 392.272617 
L 643.159568 395.436173 
L 643.691672 377.413335 
L 644.223776 377.163647 
L 644.75588 377.163647 
L 645.287985 386.349281 
L 645.820089 390.138631 
L 646.352193 402.677762 
L 646.884298 390.408445 
L 647.416402 388.325404 
L 647.948506 393.475145 
L 648.48061 402.275241 
L 649.544819 127.267836 
L 650.076923 386.457459 
L 650.609027 454.176437 
L 651.141132 102.643039 
L 651.673236 132.321979 
L 652.20534 98.275067 
L 652.737444 136.374225 
L 653.269549 217.466934 
L 653.801653 153.115917 
L 654.333757 136.718254 
L 654.865861 132.920728 
L 655.397966 141.52774 
L 655.93007 144.566767 
L 656.462174 156.425387 
L 656.994278 157.547412 
L 657.526383 162.733003 
L 658.058487 175.311757 
L 658.590591 169.501002 
L 659.122695 172.875252 
L 659.6548 172.828711 
L 660.186904 186.450872 
L 660.719008 187.279812 
L 661.251113 200.629015 
L 661.783217 198.882455 
L 662.315321 203.358604 
L 662.847425 185.612498 
L 663.37953 180.957731 
L 663.911634 189.088637 
L 664.443738 194.561653 
L 664.975842 187.49428 
L 665.507947 251.74278 
L 666.040051 256.918308 
L 666.572155 256.656041 
L 667.104259 238.79028 
L 667.636364 295.15772 
L 668.168468 237.317465 
L 668.700572 252.957888 
L 669.232676 338.804737 
L 669.764781 345.74192 
L 670.296885 285.859505 
L 670.828989 275.033601 
L 671.361093 271.293937 
L 671.893198 268.707116 
L 672.425302 260.862377 
L 672.957406 251.270448 
L 673.48951 250.821387 
L 674.021615 247.496822 
L 674.553719 250.954092 
L 675.085823 242.094876 
L 675.617928 247.97733 
L 676.150032 250.983652 
L 676.682136 259.257328 
L 677.21424 270.729151 
L 677.746345 268.50397 
L 678.278449 264.403296 
L 678.810553 271.377586 
L 679.342657 266.307719 
L 680.406866 282.111665 
L 680.93897 277.934261 
L 681.471074 278.84056 
L 682.003179 277.601553 
L 682.535283 285.620509 
L 683.067387 291.447616 
L 683.599491 300.643943 
L 684.131596 296.914972 
L 684.6637 301.693011 
L 685.195804 311.337142 
L 685.727908 300.501174 
L 686.260013 309.234603 
L 686.792117 308.301259 
L 687.324221 309.249697 
L 687.856325 318.215204 
L 688.38843 316.725251 
L 688.920534 319.000118 
L 689.452638 329.534196 
L 689.984743 319.534086 
L 690.516847 328.278836 
L 691.048951 332.339258 
L 691.581055 331.347423 
L 692.11316 336.714148 
L 692.645264 333.488327 
L 693.177368 336.026719 
L 693.709472 340.979604 
L 694.241577 350.345115 
L 694.773681 355.479133 
L 695.305785 355.111204 
L 695.837889 349.294789 
L 696.369994 360.110001 
L 696.902098 363.495573 
L 697.966306 379.937262 
L 698.498411 379.305808 
L 699.030515 385.534807 
L 699.562619 385.032286 
L 700.094723 386.572554 
L 700.626828 380.900794 
L 701.691036 392.663816 
L 702.22314 382.261815 
L 702.755245 389.032959 
L 703.287349 399.988424 
L 703.819453 403.026822 
L 704.351558 402.268952 
L 704.883662 406.257675 
L 705.415766 397.341854 
L 705.94787 394.956923 
L 706.479975 406.903594 
L 707.012079 409.045756 
L 707.544183 408.087255 
L 708.076287 414.301159 
L 708.608392 414.631351 
L 709.140496 415.7691 
L 709.6726 420.056568 
L 710.204704 418.614414 
L 710.736809 415.068463 
L 711.268913 427.722689 
L 711.801017 429.019559 
L 712.333121 426.611356 
L 712.865226 433.002621 
L 713.39733 433.359229 
L 713.929434 428.145335 
L 714.461538 429.590005 
L 714.993643 434.351063 
L 715.525747 436.20014 
L 716.057851 440.200184 
L 716.589955 434.810188 
L 717.12206 437.959279 
L 717.654164 445.859365 
L 718.186268 446.832961 
L 718.718373 449.541166 
L 719.250477 446.002134 
L 719.782581 451.46886 
L 720.314685 459.417375 
L 720.84679 455.138712 
L 721.378894 461.594757 
L 721.910998 460.300403 
L 722.443102 460.168955 
L 722.975207 471.864052 
L 723.507311 467.184755 
L 724.039415 470.963413 
L 724.571519 472.055878 
L 725.103624 470.892343 
L 725.635728 479.049665 
L 726.167832 483.636507 
L 726.699936 477.384238 
L 727.232041 482.526432 
L 727.764145 484.698154 
L 728.296249 487.497556 
L 728.828353 491.168036 
L 729.360458 92.513369 
L 729.892562 332.200891 
L 730.424666 484.834634 
L 730.956771 449.34368 
L 731.488875 492.48 
L 732.020979 130.964732 
L 732.553083 492.287545 
L 733.085188 89.28 
L 733.617292 93.007714 
L 734.149396 95.720322 
L 734.6815 92.984443 
L 735.213605 101.037361 
L 735.745709 111.778359 
L 736.277813 104.913504 
L 737.342022 114.529961 
L 737.874126 113.897879 
L 738.40623 111.906662 
L 738.938334 110.592811 
L 739.470439 118.719944 
L 740.002543 121.780355 
L 740.534647 132.537076 
L 741.066751 131.698702 
L 741.598856 125.096114 
L 742.13096 129.123202 
L 742.663064 132.233299 
L 743.195168 133.035824 
L 743.727273 142.964234 
L 744.259377 142.065482 
L 744.791481 143.152915 
L 745.323586 136.913853 
L 745.85569 141.627741 
L 746.387794 140.056026 
L 746.919898 141.112641 
L 747.452003 139.523316 
L 747.984107 140.78182 
L 748.516211 149.252982 
L 749.048315 149.641036 
L 749.58042 152.778178 
L 750.112524 151.085077 
L 750.644628 151.021555 
L 751.176732 154.593921 
L 751.708837 153.945486 
L 752.240941 157.117848 
L 752.773045 156.930424 
L 753.305149 159.529195 
L 753.837254 158.443019 
L 754.369358 156.078214 
L 755.433566 172.301032 
L 755.965671 172.754496 
L 756.497775 165.752533 
L 757.029879 169.013575 
L 757.561983 177.306747 
L 758.094088 174.274639 
L 758.626192 173.734381 
L 759.158296 186.048352 
L 759.690401 184.442045 
L 760.222505 183.418135 
L 760.754609 170.001636 
L 761.286713 169.438108 
L 761.818818 178.21116 
L 762.350922 183.659018 
L 762.883026 185.861558 
L 763.41513 187.220063 
L 763.947235 192.563518 
L 764.479339 195.253484 
L 765.011443 195.26795 
L 765.543547 187.945228 
L 766.075652 191.409417 
L 766.607756 199.416423 
L 767.13986 204.298237 
L 767.671964 205.475608 
L 768.204069 200.173664 
L 768.736173 201.444747 
L 769.268277 204.910193 
L 769.800381 207.473114 
L 770.332486 204.975603 
L 770.86459 206.466185 
L 771.396694 203.134702 
L 771.928798 204.264903 
L 772.460903 201.225876 
L 773.525111 207.847332 
L 774.057216 208.575642 
L 774.58932 202.820862 
L 775.121424 204.930319 
L 775.653528 211.252401 
L 776.185633 210.995165 
L 776.717737 211.767501 
L 777.249841 216.045535 
L 777.781945 215.483265 
L 778.31405 215.328546 
L 778.846154 210.314026 
L 779.910362 215.45056 
L 780.442467 221.073263 
L 780.974571 222.669507 
L 781.506675 223.553164 
L 782.038779 219.834256 
L 782.570884 221.528614 
L 783.102988 218.799024 
L 783.635092 211.094538 
L 784.167196 217.162528 
L 784.699301 221.296536 
L 785.231405 224.331789 
L 785.763509 223.821092 
L 786.295613 227.023642 
L 787.359822 216.666926 
L 787.891926 227.69975 
L 788.956135 238.879747 
L 789.488239 239.951456 
L 790.020343 241.848961 
L 790.552448 243.252121 
L 791.616656 224.570156 
L 792.14876 239.525037 
L 792.680865 243.433256 
L 793.212969 240.943291 
L 793.745073 242.966584 
L 794.277177 246.77543 
L 794.809282 248.955957 
L 795.341386 249.416969 
L 795.87349 249.323257 
L 796.405594 252.349076 
L 796.937699 249.719488 
L 797.469803 255.747226 
L 798.001907 251.118245 
L 798.534011 249.071682 
L 799.59822 258.420841 
L 800.130324 255.429613 
L 800.662428 254.588723 
L 801.194533 253.408836 
L 801.726637 255.939681 
L 803.32295 268.025348 
L 803.855054 265.971237 
L 804.387158 259.805761 
L 804.919263 262.687554 
L 805.451367 266.755523 
L 805.983471 272.42917 
L 806.515575 280.123593 
L 807.04768 279.89466 
L 807.579784 275.446184 
L 808.111888 280.882721 
L 808.643992 275.190835 
L 809.176097 271.410919 
L 809.708201 274.442399 
L 810.772409 285.438746 
L 811.304514 286.168313 
L 811.836618 288.084686 
L 812.368722 288.361419 
L 812.900826 295.039479 
L 813.432931 287.516756 
L 813.965035 288.806078 
L 814.497139 290.667105 
L 815.029243 290.911132 
L 815.561348 288.143178 
L 816.093452 289.488475 
L 816.625556 289.097276 
L 817.157661 289.982191 
L 817.689765 296.125655 
L 818.753973 303.45781 
L 819.286078 301.719427 
L 819.818182 299.137637 
L 820.350286 301.191119 
L 821.414495 310.328326 
L 821.946599 308.212579 
L 822.478703 307.981759 
L 823.542912 300.909984 
L 824.075016 296.982268 
L 825.139224 309.216993 
L 826.203433 315.329638 
L 826.735537 313.049739 
L 827.267641 314.337803 
L 827.799746 315.923355 
L 828.33185 318.707033 
L 828.863954 320.003274 
L 829.396058 320.431581 
L 829.928163 320.625922 
L 830.992371 323.159283 
L 831.524476 322.341035 
L 832.05658 320.315856 
L 833.120788 322.42091 
L 834.184997 329.428534 
L 834.717101 329.708411 
L 835.78131 323.066829 
L 836.313414 326.631019 
L 836.845518 326.433533 
L 837.909727 330.242379 
L 838.441831 329.913445 
L 838.973935 333.453735 
L 839.506039 334.144309 
L 840.038144 331.607803 
L 840.570248 330.875091 
L 841.102352 327.244862 
L 842.166561 331.090816 
L 843.230769 334.429847 
L 843.762873 333.72921 
L 844.294978 328.946768 
L 844.827082 327.321593 
L 845.359186 328.38324 
L 845.891291 333.167569 
L 846.423395 334.482677 
L 846.955499 334.241794 
L 847.487603 335.709735 
L 848.019708 336.280181 
L 848.551812 339.699087 
L 849.61602 348.15138 
L 850.148125 350.641344 
L 850.680229 349.325607 
L 851.212333 344.236872 
L 851.744437 345.849468 
L 852.276542 346.721805 
L 852.808646 348.999188 
L 853.34075 349.582213 
L 853.872854 348.620568 
L 854.404959 351.023738 
L 854.937063 349.917437 
L 855.469167 345.678397 
L 856.001271 342.676478 
L 856.533376 343.886554 
L 857.06548 346.650106 
L 857.597584 350.602979 
L 858.129688 350.311152 
L 859.193897 354.445788 
L 859.726001 355.425044 
L 860.79021 360.585478 
L 861.322314 359.703707 
L 861.854418 360.751518 
L 862.386523 363.26035 
L 862.918627 363.298715 
L 863.450731 362.438957 
L 863.982835 363.971679 
L 864.51494 364.404388 
L 865.047044 361.684861 
L 865.579148 361.393034 
L 866.111252 361.997443 
L 866.643357 363.109405 
L 867.175461 363.867904 
L 867.707565 365.22012 
L 868.239669 365.217604 
L 868.771774 364.824518 
L 869.303878 365.418864 
L 869.835982 366.400007 
L 870.368086 369.151609 
L 870.900191 370.578669 
L 871.432295 370.905088 
L 871.964399 370.173633 
L 872.496503 371.134021 
L 873.028608 372.417683 
L 873.560712 372.307619 
L 874.092816 373.039073 
L 874.624921 368.928336 
L 875.157025 368.69563 
L 875.689129 369.073621 
L 876.221233 367.762915 
L 876.753338 369.332114 
L 877.285442 371.511384 
L 877.817546 369.344064 
L 878.34965 370.120802 
L 879.413859 375.064881 
L 879.945963 375.523377 
L 880.478067 377.565538 
L 881.010172 380.239781 
L 881.542276 382.215903 
L 882.07438 378.224664 
L 882.606484 379.534742 
L 883.138589 381.305201 
L 883.670693 380.896392 
L 884.202797 381.993888 
L 885.267006 378.68882 
L 885.79911 377.831578 
L 886.331214 379.407067 
L 886.863318 382.390119 
L 887.395423 383.896424 
L 887.927527 384.062464 
L 888.459631 382.987609 
L 888.991736 384.285737 
L 889.52384 384.960587 
L 890.055944 385.427259 
L 890.588048 386.63419 
L 891.120153 388.796478 
L 891.652257 389.380132 
L 892.184361 388.944907 
L 892.716465 390.299639 
L 893.24857 390.065674 
L 893.780674 389.15057 
L 894.312778 389.621644 
L 894.844882 390.982036 
L 895.376987 391.403425 
L 895.909091 390.538635 
L 896.973299 390.017875 
L 897.505404 390.188946 
L 898.037508 391.918525 
L 898.569612 392.60784 
L 899.101716 392.787088 
L 899.633821 392.150603 
L 900.165925 393.172626 
L 900.698029 395.075163 
L 901.230134 396.431153 
L 901.762238 396.02989 
L 902.294342 394.199682 
L 902.826446 395.8997 
L 903.890655 397.732425 
L 904.422759 398.456332 
L 904.954863 398.769543 
L 905.486968 396.502222 
L 906.019072 395.534287 
L 907.08328 399.285901 
L 908.147489 400.584028 
L 909.211697 397.604121 
L 909.743802 395.953789 
L 910.275906 396.625494 
L 910.80801 419.413164 
L 911.872219 414.124427 
L 912.404323 434.376221 
L 912.936427 436.369324 
L 913.468531 437.583174 
L 914.000636 425.127692 
L 914.53274 422.878611 
L 915.064844 421.995583 
L 915.596949 418.850894 
L 916.129053 417.082321 
L 916.661157 427.26608 
L 917.193261 429.481199 
L 917.725366 429.155409 
L 918.25747 424.144034 
L 918.789574 430.583727 
L 919.321678 430.237811 
L 919.853783 434.591318 
L 920.385887 425.202536 
L 920.917991 426.091225 
L 921.450095 427.275514 
L 922.514304 422.333951 
L 923.046408 417.18358 
L 923.578512 416.281684 
L 924.110617 413.423791 
L 924.642721 417.721322 
L 925.174825 416.248979 
L 925.706929 434.030934 
L 926.771138 448.968204 
L 927.303242 451.234267 
L 927.835346 452.092767 
L 928.899555 457.956353 
L 929.431659 457.619871 
L 929.963764 454.975188 
L 930.495868 455.455696 
L 931.027972 453.77203 
L 931.560076 453.194036 
L 932.092181 456.089666 
L 932.624285 456.599734 
L 933.156389 455.859474 
L 933.688493 456.30036 
L 934.752702 457.983397 
L 935.284806 458.362646 
L 935.81691 456.800365 
L 936.349015 458.116103 
L 936.881119 456.091552 
L 937.413223 460.575878 
L 937.945327 458.468308 
L 938.477432 459.18907 
L 939.009536 459.192215 
L 939.54164 460.893492 
L 940.073744 461.993504 
L 940.605849 462.580302 
L 941.670057 465.68411 
L 942.202161 468.442002 
L 942.734266 467.817467 
L 943.26637 467.44262 
L 943.798474 466.91557 
L 944.330579 466.09229 
L 944.862683 466.186631 
L 945.394787 467.080352 
L 945.926891 467.195447 
L 946.458996 467.172805 
L 946.9911 467.467777 
L 947.523204 467.28287 
L 948.055308 466.219965 
L 948.587413 464.107363 
L 949.119517 466.901733 
L 949.651621 467.112427 
L 950.183725 464.454537 
L 950.71583 467.202366 
L 951.247934 466.355815 
L 951.780038 465.863357 
L 952.312142 464.811144 
L 952.844247 462.29728 
L 953.376351 460.645061 
L 953.908455 461.773375 
L 954.440559 458.056354 
L 954.972664 463.48157 
L 955.504768 464.982844 
L 956.036872 465.996063 
L 956.568976 466.279085 
L 957.101081 465.648889 
L 957.633185 466.290406 
L 958.165289 461.413623 
L 958.697394 459.55071 
L 959.229498 458.851331 
L 959.761602 459.401022 
L 960.293706 454.599083 
L 960.825811 459.473979 
L 961.357915 457.770816 
L 961.890019 463.186598 
L 962.422123 464.665231 
L 964.018436 459.482784 
L 964.55054 456.833699 
L 965.614749 454.31669 
L 966.146853 456.087779 
L 966.678957 454.553171 
L 967.211062 457.869559 
L 967.743166 465.691657 
L 968.807374 467.897342 
L 969.339479 469.291068 
L 970.403687 470.679762 
L 972 469.040661 
L 972 469.040661 
" clip-path="url(#pa7ff9e9cb2)" style="fill: none; stroke: #a9a9a9; stroke-opacity: 0.8; stroke-width: 3; stroke-linecap: round"/>
   </g>
   <g id="line2d_13">
    <path d="M 135 484.76545 
L 135.532104 478.254687 
L 136.064209 458.513591 
L 136.596313 435.964289 
L 137.128417 407.991027 
L 137.660521 378.761777 
L 138.192626 358.841434 
L 138.72473 342.397858 
L 139.256834 330.45496 
L 139.788938 321.244168 
L 140.321043 313.614525 
L 140.853147 306.886779 
L 141.385251 298.921912 
L 141.917355 293.435688 
L 142.44946 292.978451 
L 142.981564 315.728385 
L 143.513668 307.980501 
L 144.045772 296.502388 
L 144.577877 275.227942 
L 145.109981 277.413265 
L 145.642085 280.024929 
L 146.174189 282.636592 
L 146.706294 285.248256 
L 147.238398 358.996153 
L 147.770502 347.140677 
L 148.302606 326.158058 
L 148.834711 308.169811 
L 149.366815 288.05324 
L 149.898919 282.061979 
L 150.431024 269.795179 
L 150.963128 273.135467 
L 151.495232 274.013464 
L 152.027336 275.702161 
L 152.559441 284.229927 
L 153.091545 277.067585 
L 153.623649 277.462558 
L 154.155753 276.254369 
L 154.687858 274.897121 
L 155.219962 279.009116 
L 155.752066 271.747401 
L 156.28417 271.411548 
L 156.816275 272.276967 
L 157.348379 278.939933 
L 157.880483 270.251158 
L 158.412587 276.871985 
L 158.944692 311.701925 
L 159.476796 309.009443 
L 160.0089 275.177627 
L 160.541004 268.5807 
L 161.073109 263.261774 
L 161.605213 259.786893 
L 162.137317 251.969198 
L 162.669421 254.813254 
L 163.201526 258.75858 
L 163.73363 265.44859 
L 164.265734 271.598972 
L 164.797839 271.352428 
L 165.329943 278.572004 
L 165.862047 311.374878 
L 166.394151 280.475169 
L 166.926256 272.710305 
L 167.45836 274.670075 
L 167.990464 302.459686 
L 168.522568 285.760762 
L 169.054673 261.024014 
L 169.586777 265.347331 
L 170.118881 280.766996 
L 170.650985 281.61166 
L 171.18309 298.488574 
L 171.715194 336.486473 
L 172.247298 331.815353 
L 172.779402 351.842615 
" clip-path="url(#pa7ff9e9cb2)" style="fill: none; stroke: #1f77b4; stroke-opacity: 0.9; stroke-width: 4; stroke-linecap: round"/>
   </g>
   <g id="line2d_14">
    <path d="M 441.492053 377.163647 
L 442.024158 377.163647 
L 442.556262 377.163647 
L 443.088366 377.163647 
L 443.62047 377.163647 
L 444.152575 377.163647 
L 444.684679 377.163647 
L 445.216783 377.163647 
L 445.748887 377.163647 
L 446.280992 377.163647 
L 446.813096 377.163647 
L 447.3452 377.163647 
L 447.877305 377.163647 
L 448.409409 377.163647 
L 448.941513 377.163647 
L 449.473617 377.163647 
L 450.005722 377.163647 
L 450.537826 377.163647 
L 451.06993 377.163647 
L 451.602034 377.163647 
L 452.134139 377.163647 
L 452.666243 377.163647 
L 453.198347 377.163647 
L 453.730451 377.163647 
L 454.262556 377.163647 
L 454.79466 377.163647 
L 455.326764 377.163647 
L 455.858868 377.163647 
L 498.959313 352.716839 
L 499.491418 174.488478 
L 500.023522 277.856273 
L 500.555626 424.267306 
L 501.08773 377.163647 
L 501.619835 377.163647 
L 502.151939 377.163647 
L 502.684043 377.163647 
L 503.216147 377.163647 
L 503.748252 377.163647 
L 504.280356 377.163647 
L 504.81246 377.163647 
L 505.344565 377.163647 
L 505.876669 377.163647 
L 506.408773 377.163647 
L 506.940877 377.163647 
L 507.472982 377.163647 
L 508.005086 377.163647 
L 508.53719 377.163647 
L 509.069294 377.163647 
L 509.601399 377.163647 
L 510.133503 377.163647 
L 510.665607 377.163647 
L 511.197711 377.163647 
L 511.729816 377.163647 
L 512.26192 377.163647 
L 512.794024 377.163647 
L 513.326128 377.163647 
L 513.858233 377.163647 
L 514.390337 377.163647 
L 514.922441 377.163647 
L 515.454545 377.163647 
L 515.98665 377.163647 
L 516.518754 377.163647 
L 517.050858 377.163647 
L 517.582962 377.163647 
L 518.115067 377.163647 
L 518.647171 377.163647 
L 519.179275 377.163647 
L 519.71138 377.163647 
L 520.243484 377.163647 
L 520.775588 377.163647 
L 521.307692 377.163647 
L 521.839797 377.163647 
" clip-path="url(#pa7ff9e9cb2)" style="fill: none; stroke: #1f77b4; stroke-opacity: 0.9; stroke-width: 4; stroke-linecap: round"/>
   </g>
   <g id="line2d_15">
    <path d="M 675.617928 247.97733 
L 676.150032 250.983652 
L 676.682136 259.257328 
L 677.21424 270.729151 
L 677.746345 268.50397 
L 678.278449 264.403296 
L 678.810553 271.377586 
L 679.342657 266.307719 
L 679.874762 273.660001 
L 680.406866 282.111665 
L 680.93897 277.934261 
L 681.471074 278.84056 
L 682.003179 277.601553 
L 682.535283 285.620509 
L 683.067387 291.447616 
L 683.599491 300.643943 
L 684.131596 296.914972 
L 684.6637 301.693011 
L 685.195804 311.337142 
L 685.727908 300.501174 
L 686.260013 309.234603 
L 686.792117 308.301259 
L 687.324221 309.249697 
L 687.856325 318.215204 
L 688.38843 316.725251 
L 688.920534 319.000118 
L 689.452638 329.534196 
L 689.984743 319.534086 
L 690.516847 328.278836 
L 691.048951 332.339258 
L 691.581055 331.347423 
L 692.11316 336.714148 
L 692.645264 333.488327 
L 693.177368 336.026719 
L 693.709472 340.979604 
L 694.241577 350.345115 
L 694.773681 355.479133 
L 695.305785 355.111204 
L 695.837889 349.294789 
L 696.369994 360.110001 
L 696.902098 363.495573 
L 697.434202 371.652895 
L 697.966306 379.937262 
L 698.498411 379.305808 
L 699.030515 385.534807 
L 699.562619 385.032286 
L 700.094723 386.572554 
L 700.626828 380.900794 
L 701.158932 387.265644 
L 701.691036 392.663816 
L 702.22314 382.261815 
L 702.755245 389.032959 
L 703.287349 399.988424 
L 703.819453 403.026822 
L 704.351558 402.268952 
L 704.883662 406.257675 
L 705.415766 397.341854 
L 705.94787 394.956923 
L 706.479975 406.903594 
L 707.012079 409.045756 
L 707.544183 408.087255 
L 708.076287 414.301159 
L 708.608392 414.631351 
L 709.140496 415.7691 
L 709.6726 420.056568 
L 710.204704 418.614414 
L 710.736809 415.068463 
L 711.268913 427.722689 
L 711.801017 429.019559 
L 712.333121 426.611356 
L 712.865226 433.002621 
L 713.39733 433.359229 
" clip-path="url(#pa7ff9e9cb2)" style="fill: none; stroke: #1f77b4; stroke-opacity: 0.9; stroke-width: 4; stroke-linecap: round"/>
   </g>
   <g id="line2d_16">
    <path d="M 173.311507 367.442786 
L 173.843611 373.112659 
L 174.375715 374.383113 
L 174.907819 353.055207 
L 175.439924 350.571532 
L 175.972028 352.502371 
L 176.504132 366.986806 
L 177.036236 358.371617 
L 177.568341 342.53308 
L 178.100445 342.841259 
L 178.632549 340.138085 
L 179.164654 334.917273 
L 179.696758 331.607174 
L 180.228862 330.619113 
L 180.760966 322.192606 
L 181.293071 319.425909 
L 181.825175 318.763638 
L 182.357279 316.791918 
L 182.889383 324.822823 
L 183.421488 300.106201 
L 183.953592 291.649505 
L 184.485696 309.72203 
L 185.0178 315.473036 
L 185.549905 315.572408 
L 186.082009 318.096964 
L 186.614113 319.39006 
L 187.146217 320.425291 
L 187.678322 320.286296 
L 188.210426 327.476312 
L 188.74253 331.992084 
L 189.274634 320.019626 
L 189.806739 319.38377 
L 190.338843 330.761253 
L 190.870947 316.586256 
L 191.403051 308.359751 
L 191.935156 312.912631 
L 192.46726 318.398854 
L 192.999364 315.278065 
L 193.531469 291.533152 
L 194.063573 262.061132 
L 194.595677 251.70756 
L 195.127781 232.367726 
L 195.659886 212.72097 
L 196.19199 195.452857 
L 196.724094 159.113467 
L 197.256198 139.139664 
L 197.788303 110.359475 
L 198.320407 248.836459 
L 198.852511 447.532968 
L 199.384615 412.569065 
L 199.91672 360.949004 
L 200.448824 314.522082 
L 200.980928 266.512124 
L 201.513032 337.717933 
L 202.045137 377.163647 
L 202.577241 377.163647 
L 203.109345 377.163647 
L 203.641449 377.163647 
L 204.173554 377.163647 
L 204.705658 377.163647 
L 205.237762 377.163647 
L 205.769866 377.163647 
L 206.301971 377.163647 
L 206.834075 454.531158 
L 207.366179 467.82124 
L 207.898284 456.678351 
L 208.430388 445.234201 
L 208.962492 422.02074 
L 209.494596 334.753121 
L 210.026701 265.036636 
L 210.558805 331.158113 
L 211.090909 377.163647 
" clip-path="url(#pa7ff9e9cb2)" style="fill: none; stroke: #ff7f0e; stroke-opacity: 0.9; stroke-width: 4; stroke-linecap: round"/>
   </g>
   <g id="line2d_17">
    <path d="M 560.683408 377.163647 
L 561.215512 377.163647 
L 561.747616 377.163647 
L 562.27972 377.163647 
L 562.811825 377.163647 
L 563.343929 377.163647 
L 563.876033 377.163647 
L 564.408137 377.163647 
L 564.940242 377.163647 
L 565.472346 377.163647 
L 566.00445 377.163647 
L 566.536554 377.163647 
L 567.068659 377.163647 
L 567.600763 377.163647 
L 568.132867 377.163647 
L 568.664971 377.163647 
L 569.197076 377.163647 
L 569.72918 377.163647 
L 570.261284 377.163647 
L 570.793388 377.163647 
L 571.325493 377.163647 
L 571.857597 377.163647 
L 572.389701 377.163647 
L 572.921805 377.163647 
L 573.45391 377.163647 
L 573.986014 377.163647 
L 574.518118 377.163647 
L 575.050223 377.163647 
L 575.582327 377.163647 
L 576.114431 377.163647 
L 576.646535 377.163647 
L 577.17864 377.163647 
L 577.710744 377.163647 
L 578.242848 377.542896 
L 578.774952 380.868089 
L 579.307057 378.291961 
L 579.839161 379.585057 
L 580.371265 377.163647 
L 580.903369 384.256806 
L 581.435474 351.682236 
L 581.967578 310.382414 
L 582.499682 207.738526 
L 583.031786 469.555221 
L 583.563891 378.576241 
L 584.095995 401.031832 
L 584.628099 403.065187 
L 585.160203 380.016508 
L 585.692308 377.163647 
L 586.224412 377.163647 
L 586.756516 377.163647 
L 587.28862 377.163647 
L 587.820725 377.163647 
L 588.352829 377.163647 
L 588.884933 377.163647 
L 589.417038 377.163647 
L 589.949142 377.163647 
L 590.481246 377.163647 
L 591.01335 377.163647 
L 591.545455 377.163647 
L 592.077559 377.163647 
L 592.609663 377.163647 
L 593.141767 393.032373 
L 593.673872 407.080954 
L 594.205976 396.529896 
L 594.73808 375.137209 
L 595.270184 362.334554 
L 595.802289 145.335329 
L 596.334393 106.297167 
L 596.866497 161.63991 
L 597.398601 136.271079 
L 597.930706 210.273774 
L 598.46281 366.093714 
" clip-path="url(#pa7ff9e9cb2)" style="fill: none; stroke: #ff7f0e; stroke-opacity: 0.9; stroke-width: 4; stroke-linecap: round"/>
   </g>
   <g id="line2d_18">
    <path d="M 598.994914 436.851091 
L 599.527018 421.645264 
L 600.059123 403.294749 
L 600.591227 388.612828 
L 601.123331 224.864499 
L 601.655435 423.083016 
L 602.18754 378.417748 
L 602.719644 377.163647 
L 603.251748 377.163647 
L 603.783853 377.163647 
L 604.315957 377.163647 
L 604.848061 377.163647 
L 605.380165 377.163647 
L 605.91227 377.163647 
L 606.444374 377.163647 
L 606.976478 379.872481 
L 607.508582 366.048431 
L 608.040687 169.894717 
L 608.572791 308.233963 
L 609.104895 235.22499 
L 609.636999 182.121894 
L 610.169104 144.246638 
L 610.701208 131.43329 
L 611.233312 437.969342 
L 611.765416 387.03105 
L 612.297521 394.968243 
L 612.829625 380.38821 
L 613.361729 412.658374 
L 613.893833 141.347235 
L 614.425938 154.161212 
L 614.958042 180.625023 
L 615.490146 177.449516 
L 616.02225 334.767586 
L 616.554355 244.805598 
L 617.086459 287.043166 
L 617.618563 133.634572 
L 618.150668 168.380235 
L 618.682772 178.823116 
L 619.214876 214.754326 
L 619.74698 249.190551 
L 620.279085 210.274403 
L 620.811189 343.189062 
L 621.343293 463.72434 
L 621.875397 206.834114 
L 622.407502 188.805615 
L 622.939606 160.179516 
L 623.47171 121.50488 
L 624.003814 123.777861 
L 624.535919 152.981324 
L 625.068023 163.566346 
L 625.600127 162.031738 
L 626.132231 214.312183 
L 626.664336 268.580071 
L 627.19644 246.679832 
L 627.728544 302.234526 
L 628.260648 313.284333 
L 628.792753 227.999754 
L 629.324857 395.985236 
L 629.856961 434.941636 
L 630.389065 390.636121 
L 630.92117 406.982211 
L 631.453274 408.060839 
L 631.985378 396.570777 
L 632.517483 418.388625 
L 633.049587 419.696186 
L 633.581691 413.905557 
L 634.113795 411.533204 
L 634.6459 403.985952 
L 635.178004 398.867028 
L 635.710108 377.163647 
L 636.242212 377.163647 
L 636.774317 377.163647 
" clip-path="url(#pa7ff9e9cb2)" style="fill: none; stroke: #ff7f0e; stroke-opacity: 0.9; stroke-width: 4; stroke-linecap: round"/>
   </g>
   <g id="line2d_19">
    <path d="M 637.306421 381.658664 
L 637.838525 398.858223 
L 638.370629 403.40104 
L 638.902734 419.532034 
L 639.434838 391.985192 
L 639.966942 398.312934 
L 640.499046 386.862495 
L 641.031151 381.830993 
L 641.563255 385.90588 
L 642.095359 405.876539 
L 642.627463 392.272617 
L 643.159568 395.436173 
L 643.691672 377.413335 
L 644.223776 377.163647 
L 644.75588 377.163647 
L 645.287985 386.349281 
L 645.820089 390.138631 
L 646.352193 402.677762 
L 646.884298 390.408445 
L 647.416402 388.325404 
L 647.948506 393.475145 
L 648.48061 402.275241 
L 649.012715 261.515214 
L 649.544819 127.267836 
L 650.076923 386.457459 
L 650.609027 454.176437 
L 651.141132 102.643039 
L 651.673236 132.321979 
L 652.20534 98.275067 
L 652.737444 136.374225 
L 653.269549 217.466934 
L 653.801653 153.115917 
L 654.333757 136.718254 
L 654.865861 132.920728 
L 655.397966 141.52774 
L 655.93007 144.566767 
L 656.462174 156.425387 
L 656.994278 157.547412 
L 657.526383 162.733003 
L 658.058487 175.311757 
L 658.590591 169.501002 
L 659.122695 172.875252 
L 659.6548 172.828711 
L 660.186904 186.450872 
L 660.719008 187.279812 
L 661.251113 200.629015 
L 661.783217 198.882455 
L 662.315321 203.358604 
L 662.847425 185.612498 
L 663.37953 180.957731 
L 663.911634 189.088637 
L 664.443738 194.561653 
L 664.975842 187.49428 
L 665.507947 251.74278 
L 666.040051 256.918308 
L 666.572155 256.656041 
L 667.104259 238.79028 
L 667.636364 295.15772 
L 668.168468 237.317465 
L 668.700572 252.957888 
L 669.232676 338.804737 
L 669.764781 345.74192 
L 670.296885 285.859505 
L 670.828989 275.033601 
L 671.361093 271.293937 
L 671.893198 268.707116 
L 672.425302 260.862377 
L 672.957406 251.270448 
L 673.48951 250.821387 
L 674.021615 247.496822 
L 674.553719 250.954092 
L 675.085823 242.094876 
" clip-path="url(#pa7ff9e9cb2)" style="fill: none; stroke: #ff7f0e; stroke-opacity: 0.9; stroke-width: 4; stroke-linecap: round"/>
   </g>
   <g id="line2d_20">
    <path d="M 713.929434 428.145335 
L 714.461538 429.590005 
L 714.993643 434.351063 
L 715.525747 436.20014 
L 716.057851 440.200184 
L 716.589955 434.810188 
L 717.12206 437.959279 
L 717.654164 445.859365 
L 718.186268 446.832961 
L 718.718373 449.541166 
L 719.250477 446.002134 
L 719.782581 451.46886 
L 720.314685 459.417375 
L 720.84679 455.138712 
L 721.378894 461.594757 
L 721.910998 460.300403 
L 722.443102 460.168955 
L 722.975207 471.864052 
L 723.507311 467.184755 
L 724.039415 470.963413 
L 724.571519 472.055878 
L 725.103624 470.892343 
L 725.635728 479.049665 
L 726.167832 483.636507 
L 726.699936 477.384238 
L 727.232041 482.526432 
L 727.764145 484.698154 
L 728.296249 487.497556 
L 728.828353 491.168036 
L 729.360458 92.513369 
L 729.892562 332.200891 
L 730.424666 484.834634 
L 730.956771 449.34368 
L 731.488875 492.48 
L 732.020979 130.964732 
L 732.553083 492.287545 
L 733.085188 89.28 
L 733.617292 93.007714 
L 734.149396 95.720322 
L 734.6815 92.984443 
L 735.213605 101.037361 
L 735.745709 111.778359 
L 736.277813 104.913504 
L 736.809917 109.74689 
L 737.342022 114.529961 
L 737.874126 113.897879 
L 738.40623 111.906662 
L 738.938334 110.592811 
L 739.470439 118.719944 
L 740.002543 121.780355 
L 740.534647 132.537076 
L 741.066751 131.698702 
L 741.598856 125.096114 
L 742.13096 129.123202 
L 742.663064 132.233299 
L 743.195168 133.035824 
L 743.727273 142.964234 
L 744.259377 142.065482 
L 744.791481 143.152915 
L 745.323586 136.913853 
L 745.85569 141.627741 
L 746.387794 140.056026 
L 746.919898 141.112641 
L 747.452003 139.523316 
L 747.984107 140.78182 
L 748.516211 149.252982 
L 749.048315 149.641036 
L 749.58042 152.778178 
L 750.112524 151.085077 
L 750.644628 151.021555 
L 751.176732 154.593921 
L 751.708837 153.945486 
" clip-path="url(#pa7ff9e9cb2)" style="fill: none; stroke: #ff7f0e; stroke-opacity: 0.9; stroke-width: 4; stroke-linecap: round"/>
   </g>
   <g id="line2d_21">
    <path d="M 905.486968 396.502222 
L 906.019072 395.534287 
L 906.551176 397.351288 
L 907.08328 399.285901 
L 907.615385 399.893454 
L 908.147489 400.584028 
L 908.679593 399.178981 
L 909.211697 397.604121 
L 909.743802 395.953789 
L 910.275906 396.625494 
L 910.80801 419.413164 
L 911.340114 416.825156 
L 911.872219 414.124427 
L 912.404323 434.376221 
L 912.936427 436.369324 
L 913.468531 437.583174 
L 914.000636 425.127692 
L 914.53274 422.878611 
L 915.064844 421.995583 
L 915.596949 418.850894 
L 916.129053 417.082321 
L 916.661157 427.26608 
L 917.193261 429.481199 
L 917.725366 429.155409 
L 918.25747 424.144034 
L 918.789574 430.583727 
L 919.321678 430.237811 
L 919.853783 434.591318 
L 920.385887 425.202536 
L 920.917991 426.091225 
L 921.450095 427.275514 
L 921.9822 424.759135 
L 922.514304 422.333951 
L 923.046408 417.18358 
L 923.578512 416.281684 
L 924.110617 413.423791 
L 924.642721 417.721322 
L 925.174825 416.248979 
L 925.706929 434.030934 
L 926.239034 442.271905 
L 926.771138 448.968204 
L 927.303242 451.234267 
L 927.835346 452.092767 
L 928.367451 454.941225 
L 928.899555 457.956353 
L 929.431659 457.619871 
L 929.963764 454.975188 
L 930.495868 455.455696 
L 931.027972 453.77203 
L 931.560076 453.194036 
L 932.092181 456.089666 
L 932.624285 456.599734 
L 933.156389 455.859474 
L 933.688493 456.30036 
L 934.220598 457.068922 
L 934.752702 457.983397 
L 935.284806 458.362646 
L 935.81691 456.800365 
L 936.349015 458.116103 
L 936.881119 456.091552 
L 937.413223 460.575878 
L 937.945327 458.468308 
L 938.477432 459.18907 
L 939.009536 459.192215 
L 939.54164 460.893492 
L 940.073744 461.993504 
L 940.605849 462.580302 
L 941.137953 464.056419 
L 941.670057 465.68411 
L 942.202161 468.442002 
L 942.734266 467.817467 
L 943.26637 467.44262 
" clip-path="url(#pa7ff9e9cb2)" style="fill: none; stroke: #2ca02c; stroke-opacity: 0.9; stroke-width: 4; stroke-linecap: round"/>
   </g>
   <g id="line2d_22">
    <path d="M 943.798474 466.91557 
L 944.330579 466.09229 
L 944.862683 466.186631 
L 945.394787 467.080352 
L 945.926891 467.195447 
L 946.458996 467.172805 
L 946.9911 467.467777 
L 947.523204 467.28287 
L 948.055308 466.219965 
L 948.587413 464.107363 
L 949.119517 466.901733 
L 949.651621 467.112427 
L 950.183725 464.454537 
L 950.71583 467.202366 
L 951.247934 466.355815 
L 951.780038 465.863357 
L 952.312142 464.811144 
L 952.844247 462.29728 
L 953.376351 460.645061 
L 953.908455 461.773375 
L 954.440559 458.056354 
L 954.972664 463.48157 
L 955.504768 464.982844 
L 956.036872 465.996063 
L 956.568976 466.279085 
L 957.101081 465.648889 
L 957.633185 466.290406 
L 958.165289 461.413623 
L 958.697394 459.55071 
L 959.229498 458.851331 
L 959.761602 459.401022 
L 960.293706 454.599083 
L 960.825811 459.473979 
L 961.357915 457.770816 
L 961.890019 463.186598 
L 962.422123 464.665231 
L 962.954228 462.904205 
L 963.486332 461.334377 
L 964.018436 459.482784 
L 964.55054 456.833699 
L 965.082645 455.439344 
L 965.614749 454.31669 
L 966.146853 456.087779 
L 966.678957 454.553171 
L 967.211062 457.869559 
L 967.743166 465.691657 
L 968.27527 466.784751 
L 968.807374 467.897342 
L 969.339479 469.291068 
L 969.871583 470.076611 
L 970.403687 470.679762 
L 970.935791 470.179757 
L 971.467896 469.761513 
L 972 469.040661 
" clip-path="url(#pa7ff9e9cb2)" style="fill: none; stroke: #2ca02c; stroke-opacity: 0.9; stroke-width: 4; stroke-linecap: round"/>
   </g>
   <g id="line2d_23">
    <path d="M 326.557533 377.163647 
L 327.089638 377.163647 
L 327.621742 377.163647 
L 328.153846 377.163647 
L 328.68595 377.163647 
L 329.218055 377.163647 
L 329.750159 377.163647 
L 330.282263 377.163647 
L 330.814367 377.163647 
L 331.346472 377.163647 
L 331.878576 377.163647 
L 332.41068 377.163647 
L 332.942784 377.163647 
L 333.474889 377.163647 
L 334.006993 377.163647 
L 334.539097 377.163647 
L 335.071202 377.163647 
L 335.603306 377.163647 
L 336.13541 377.163647 
L 336.667514 377.163647 
L 337.199619 377.163647 
L 337.731723 377.163647 
L 338.263827 377.163647 
L 338.795931 377.163647 
L 339.328036 377.163647 
L 339.86014 377.163647 
L 340.392244 377.163647 
L 340.924348 377.163647 
L 341.456453 377.163647 
L 341.988557 377.163647 
L 342.520661 377.163647 
L 343.052765 377.163647 
L 343.58487 377.163647 
L 344.116974 360.969549 
L 344.649078 377.163647 
L 345.181182 377.163647 
L 345.713287 377.163647 
L 346.245391 377.163647 
L 346.777495 377.163647 
L 347.309599 377.163647 
L 347.841704 377.163647 
L 348.373808 377.163647 
L 348.905912 377.163647 
L 349.438017 377.163647 
L 349.970121 377.163647 
L 350.502225 377.163647 
L 351.034329 377.163647 
L 351.566434 377.163647 
L 352.098538 377.163647 
L 352.630642 377.163647 
L 353.162746 377.163647 
L 353.694851 377.163647 
L 354.226955 377.163647 
L 354.759059 377.163647 
L 355.291163 377.163647 
L 355.823268 377.163647 
L 356.355372 377.163647 
L 356.887476 377.163647 
L 357.41958 377.163647 
L 357.951685 377.163647 
L 358.483789 377.163647 
L 359.015893 377.163647 
L 359.547997 377.163647 
L 360.080102 377.163647 
L 360.612206 377.163647 
L 361.14431 377.163647 
L 361.676414 377.163647 
L 362.208519 377.163647 
L 362.740623 377.163647 
L 363.272727 377.163647 
L 363.804832 377.163647 
L 364.336936 377.163647 
" clip-path="url(#pa7ff9e9cb2)" style="fill: none; stroke: #d62728; stroke-opacity: 0.9; stroke-width: 4; stroke-linecap: round"/>
   </g>
   <g id="line2d_24">
    <path d="M 867.175461 363.867904 
L 867.707565 365.22012 
L 868.239669 365.217604 
L 868.771774 364.824518 
L 869.303878 365.418864 
L 869.835982 366.400007 
L 870.368086 369.151609 
L 870.900191 370.578669 
L 871.432295 370.905088 
L 871.964399 370.173633 
L 872.496503 371.134021 
L 873.028608 372.417683 
L 873.560712 372.307619 
L 874.092816 373.039073 
L 874.624921 368.928336 
L 875.157025 368.69563 
L 875.689129 369.073621 
L 876.221233 367.762915 
L 876.753338 369.332114 
L 877.285442 371.511384 
L 877.817546 369.344064 
L 878.34965 370.120802 
L 878.881755 372.70322 
L 879.413859 375.064881 
L 879.945963 375.523377 
L 880.478067 377.565538 
L 881.010172 380.239781 
L 881.542276 382.215903 
L 882.07438 378.224664 
L 882.606484 379.534742 
L 883.138589 381.305201 
L 883.670693 380.896392 
L 884.202797 381.993888 
L 884.734901 380.494501 
L 885.267006 378.68882 
L 885.79911 377.831578 
L 886.331214 379.407067 
L 886.863318 382.390119 
L 887.395423 383.896424 
L 887.927527 384.062464 
L 888.459631 382.987609 
L 888.991736 384.285737 
L 889.52384 384.960587 
L 890.055944 385.427259 
L 890.588048 386.63419 
L 891.120153 388.796478 
L 891.652257 389.380132 
L 892.184361 388.944907 
L 892.716465 390.299639 
L 893.24857 390.065674 
L 893.780674 389.15057 
L 894.312778 389.621644 
L 894.844882 390.982036 
L 895.376987 391.403425 
L 895.909091 390.538635 
L 896.441195 390.29901 
L 896.973299 390.017875 
L 897.505404 390.188946 
L 898.037508 391.918525 
L 898.569612 392.60784 
L 899.101716 392.787088 
L 899.633821 392.150603 
L 900.165925 393.172626 
L 900.698029 395.075163 
L 901.230134 396.431153 
L 901.762238 396.02989 
L 902.294342 394.199682 
L 902.826446 395.8997 
L 903.358551 396.870151 
L 903.890655 397.732425 
L 904.422759 398.456332 
L 904.954863 398.769543 
" clip-path="url(#pa7ff9e9cb2)" style="fill: none; stroke: #d62728; stroke-opacity: 0.9; stroke-width: 4; stroke-linecap: round"/>
   </g>
   <g id="line2d_25">
    <path d="M 211.623013 377.163647 
L 212.155118 377.163647 
L 212.687222 377.163647 
L 213.219326 377.163647 
L 213.75143 377.163647 
L 214.283535 377.163647 
L 214.815639 377.163647 
L 215.347743 377.163647 
L 215.879847 377.163647 
L 216.411952 377.163647 
L 216.944056 377.163647 
L 217.47616 377.163647 
L 218.008264 377.163647 
L 218.540369 377.163647 
L 219.072473 377.163647 
L 219.604577 377.163647 
L 220.136682 377.163647 
L 220.668786 377.163647 
L 221.20089 377.163647 
L 221.732994 377.163647 
L 222.265099 377.163647 
L 222.797203 377.163647 
L 223.329307 377.163647 
L 223.861411 377.163647 
L 224.393516 377.163647 
L 224.92562 377.163647 
L 225.457724 377.163647 
L 225.989828 377.163647 
L 226.521933 377.163647 
L 227.054037 377.163647 
L 227.586141 377.163647 
L 228.118245 377.163647 
L 228.65035 377.163647 
L 229.182454 379.243543 
L 229.714558 315.542848 
L 230.246662 377.163647 
L 230.778767 377.163647 
L 231.310871 377.163647 
L 231.842975 377.163647 
L 232.375079 377.163647 
L 232.907184 377.163647 
L 233.439288 377.163647 
L 233.971392 377.163647 
L 234.503497 377.163647 
L 235.035601 377.163647 
L 235.567705 377.163647 
L 236.099809 377.163647 
L 236.631914 377.163647 
L 237.164018 377.163647 
L 237.696122 377.163647 
L 238.228226 377.163647 
L 238.760331 377.163647 
L 239.292435 377.163647 
L 239.824539 377.163647 
L 240.356643 377.163647 
L 240.888748 377.163647 
L 241.420852 377.163647 
L 241.952956 377.163647 
L 242.48506 377.163647 
L 243.017165 377.163647 
L 243.549269 377.163647 
L 244.081373 377.163647 
L 244.613477 377.163647 
L 245.145582 377.163647 
L 245.677686 377.163647 
L 246.20979 377.163647 
L 246.741894 377.163647 
L 247.273999 377.163647 
L 247.806103 377.163647 
L 248.338207 377.163647 
L 248.870312 377.163647 
L 249.402416 377.163647 
" clip-path="url(#pa7ff9e9cb2)" style="fill: none; stroke: #9467bd; stroke-opacity: 0.9; stroke-width: 4; stroke-linecap: round"/>
   </g>
   <g id="line2d_26">
    <path d="M 828.863954 320.003274 
L 829.396058 320.431581 
L 829.928163 320.625922 
L 830.460267 322.025938 
L 830.992371 323.159283 
L 831.524476 322.341035 
L 832.05658 320.315856 
L 832.588684 321.464296 
L 833.120788 322.42091 
L 833.652893 325.900823 
L 834.184997 329.428534 
L 834.717101 329.708411 
L 835.249205 326.064975 
L 835.78131 323.066829 
L 836.313414 326.631019 
L 836.845518 326.433533 
L 837.377622 328.193301 
L 837.909727 330.242379 
L 838.441831 329.913445 
L 838.973935 333.453735 
L 839.506039 334.144309 
L 840.038144 331.607803 
L 840.570248 330.875091 
L 841.102352 327.244862 
L 841.634456 329.370043 
L 842.166561 331.090816 
L 842.698665 332.654984 
L 843.230769 334.429847 
L 843.762873 333.72921 
L 844.294978 328.946768 
L 844.827082 327.321593 
L 845.359186 328.38324 
L 845.891291 333.167569 
L 846.423395 334.482677 
L 846.955499 334.241794 
L 847.487603 335.709735 
L 848.019708 336.280181 
L 848.551812 339.699087 
L 849.083916 343.916743 
L 849.61602 348.15138 
L 850.148125 350.641344 
L 850.680229 349.325607 
L 851.212333 344.236872 
L 851.744437 345.849468 
L 852.276542 346.721805 
L 852.808646 348.999188 
L 853.34075 349.582213 
L 853.872854 348.620568 
L 854.404959 351.023738 
L 854.937063 349.917437 
L 855.469167 345.678397 
L 856.001271 342.676478 
L 856.533376 343.886554 
L 857.06548 346.650106 
L 857.597584 350.602979 
L 858.129688 350.311152 
L 858.661793 352.382873 
L 859.193897 354.445788 
L 859.726001 355.425044 
L 860.258106 357.855889 
L 860.79021 360.585478 
L 861.322314 359.703707 
L 861.854418 360.751518 
L 862.386523 363.26035 
L 862.918627 363.298715 
L 863.450731 362.438957 
L 863.982835 363.971679 
L 864.51494 364.404388 
L 865.047044 361.684861 
L 865.579148 361.393034 
L 866.111252 361.997443 
L 866.643357 363.109405 
" clip-path="url(#pa7ff9e9cb2)" style="fill: none; stroke: #9467bd; stroke-opacity: 0.9; stroke-width: 4; stroke-linecap: round"/>
   </g>
   <g id="line2d_27">
    <path d="M 135 512.64 
L 135 69.12 
" clip-path="url(#pa7ff9e9cb2)" style="fill: none; stroke-dasharray: 5.55,2.4; stroke-dashoffset: 0; stroke: #000000; stroke-opacity: 0.7; stroke-width: 1.5"/>
   </g>
   <g id="line2d_28">
    <path d="M 173.311507 512.64 
L 173.311507 69.12 
" clip-path="url(#pa7ff9e9cb2)" style="fill: none; stroke-dasharray: 5.55,2.4; stroke-dashoffset: 0; stroke: #000000; stroke-opacity: 0.7; stroke-width: 1.5"/>
   </g>
   <g id="line2d_29">
    <path d="M 211.623013 512.64 
L 211.623013 69.12 
" clip-path="url(#pa7ff9e9cb2)" style="fill: none; stroke-dasharray: 5.55,2.4; stroke-dashoffset: 0; stroke: #000000; stroke-opacity: 0.7; stroke-width: 1.5"/>
   </g>
   <g id="line2d_30">
    <path d="M 249.93452 512.64 
L 249.93452 69.12 
" clip-path="url(#pa7ff9e9cb2)" style="fill: none; stroke-dasharray: 5.55,2.4; stroke-dashoffset: 0; stroke: #000000; stroke-opacity: 0.7; stroke-width: 1.5"/>
   </g>
   <g id="line2d_31">
    <path d="M 288.246027 512.64 
L 288.246027 69.12 
" clip-path="url(#pa7ff9e9cb2)" style="fill: none; stroke-dasharray: 5.55,2.4; stroke-dashoffset: 0; stroke: #000000; stroke-opacity: 0.7; stroke-width: 1.5"/>
   </g>
   <g id="line2d_32">
    <path d="M 326.557533 512.64 
L 326.557533 69.12 
" clip-path="url(#pa7ff9e9cb2)" style="fill: none; stroke-dasharray: 5.55,2.4; stroke-dashoffset: 0; stroke: #000000; stroke-opacity: 0.7; stroke-width: 1.5"/>
   </g>
   <g id="line2d_33">
    <path d="M 364.86904 512.64 
L 364.86904 69.12 
" clip-path="url(#pa7ff9e9cb2)" style="fill: none; stroke-dasharray: 5.55,2.4; stroke-dashoffset: 0; stroke: #000000; stroke-opacity: 0.7; stroke-width: 1.5"/>
   </g>
   <g id="line2d_34">
    <path d="M 403.180547 512.64 
L 403.180547 69.12 
" clip-path="url(#pa7ff9e9cb2)" style="fill: none; stroke-dasharray: 5.55,2.4; stroke-dashoffset: 0; stroke: #000000; stroke-opacity: 0.7; stroke-width: 1.5"/>
   </g>
   <g id="line2d_35">
    <path d="M 441.492053 512.64 
L 441.492053 69.12 
" clip-path="url(#pa7ff9e9cb2)" style="fill: none; stroke-dasharray: 5.55,2.4; stroke-dashoffset: 0; stroke: #000000; stroke-opacity: 0.7; stroke-width: 1.5"/>
   </g>
   <g id="line2d_36">
    <path d="M 522.371901 512.64 
L 522.371901 69.12 
" clip-path="url(#pa7ff9e9cb2)" style="fill: none; stroke-dasharray: 5.55,2.4; stroke-dashoffset: 0; stroke: #000000; stroke-opacity: 0.7; stroke-width: 1.5"/>
   </g>
   <g id="line2d_37">
    <path d="M 560.683408 512.64 
L 560.683408 69.12 
" clip-path="url(#pa7ff9e9cb2)" style="fill: none; stroke-dasharray: 5.55,2.4; stroke-dashoffset: 0; stroke: #000000; stroke-opacity: 0.7; stroke-width: 1.5"/>
   </g>
   <g id="line2d_38">
    <path d="M 598.994914 512.64 
L 598.994914 69.12 
" clip-path="url(#pa7ff9e9cb2)" style="fill: none; stroke-dasharray: 5.55,2.4; stroke-dashoffset: 0; stroke: #000000; stroke-opacity: 0.7; stroke-width: 1.5"/>
   </g>
   <g id="line2d_39">
    <path d="M 637.306421 512.64 
L 637.306421 69.12 
" clip-path="url(#pa7ff9e9cb2)" style="fill: none; stroke-dasharray: 5.55,2.4; stroke-dashoffset: 0; stroke: #000000; stroke-opacity: 0.7; stroke-width: 1.5"/>
   </g>
   <g id="line2d_40">
    <path d="M 675.617928 512.64 
L 675.617928 69.12 
" clip-path="url(#pa7ff9e9cb2)" style="fill: none; stroke-dasharray: 5.55,2.4; stroke-dashoffset: 0; stroke: #000000; stroke-opacity: 0.7; stroke-width: 1.5"/>
   </g>
   <g id="line2d_41">
    <path d="M 713.929434 512.64 
L 713.929434 69.12 
" clip-path="url(#pa7ff9e9cb2)" style="fill: none; stroke-dasharray: 5.55,2.4; stroke-dashoffset: 0; stroke: #000000; stroke-opacity: 0.7; stroke-width: 1.5"/>
   </g>
   <g id="line2d_42">
    <path d="M 752.240941 512.64 
L 752.240941 69.12 
" clip-path="url(#pa7ff9e9cb2)" style="fill: none; stroke-dasharray: 5.55,2.4; stroke-dashoffset: 0; stroke: #000000; stroke-opacity: 0.7; stroke-width: 1.5"/>
   </g>
   <g id="line2d_43">
    <path d="M 790.552448 512.64 
L 790.552448 69.12 
" clip-path="url(#pa7ff9e9cb2)" style="fill: none; stroke-dasharray: 5.55,2.4; stroke-dashoffset: 0; stroke: #000000; stroke-opacity: 0.7; stroke-width: 1.5"/>
   </g>
   <g id="line2d_44">
    <path d="M 828.863954 512.64 
L 828.863954 69.12 
" clip-path="url(#pa7ff9e9cb2)" style="fill: none; stroke-dasharray: 5.55,2.4; stroke-dashoffset: 0; stroke: #000000; stroke-opacity: 0.7; stroke-width: 1.5"/>
   </g>
   <g id="line2d_45">
    <path d="M 867.175461 512.64 
L 867.175461 69.12 
" clip-path="url(#pa7ff9e9cb2)" style="fill: none; stroke-dasharray: 5.55,2.4; stroke-dashoffset: 0; stroke: #000000; stroke-opacity: 0.7; stroke-width: 1.5"/>
   </g>
   <g id="line2d_46">
    <path d="M 905.486968 512.64 
L 905.486968 69.12 
" clip-path="url(#pa7ff9e9cb2)" style="fill: none; stroke-dasharray: 5.55,2.4; stroke-dashoffset: 0; stroke: #000000; stroke-opacity: 0.7; stroke-width: 1.5"/>
   </g>
   <g id="line2d_47">
    <path d="M 943.798474 512.64 
L 943.798474 69.12 
" clip-path="url(#pa7ff9e9cb2)" style="fill: none; stroke-dasharray: 5.55,2.4; stroke-dashoffset: 0; stroke: #000000; stroke-opacity: 0.7; stroke-width: 1.5"/>
   </g>
   <g id="patch_3">
    <path d="M 135 512.64 
L 135 69.12 
" style="fill: none; stroke: #262626; stroke-width: 1.25; stroke-linejoin: miter; stroke-linecap: square"/>
   </g>
   <g id="patch_4">
    <path d="M 972 512.64 
L 972 69.12 
" style="fill: none; stroke: #262626; stroke-width: 1.25; stroke-linejoin: miter; stroke-linecap: square"/>
   </g>
   <g id="patch_5">
    <path d="M 135 512.64 
L 972 512.64 
" style="fill: none; stroke: #262626; stroke-width: 1.25; stroke-linejoin: miter; stroke-linecap: square"/>
   </g>
   <g id="patch_6">
    <path d="M 135 69.12 
L 972 69.12 
" style="fill: none; stroke: #262626; stroke-width: 1.25; stroke-linejoin: miter; stroke-linecap: square"/>
   </g>
   <g id="text_21">
    <!-- 이산화탄소 유사 패턴 군집화 결과 (동일 색상은 같은 군집) -->
    <g style="fill: #262626" transform="translate(315.703125 63.12) scale(0.18 -0.18)">
     <defs>
      <path id="MalgunGothic-c720" d="M 3200 2784 
Q 2278 2784 1768 3131 
Q 1259 3478 1259 4078 
Q 1259 4669 1775 5025 
Q 2291 5381 3200 5381 
Q 4128 5381 4640 5025 
Q 5153 4669 5153 4078 
Q 5153 3484 4640 3134 
Q 4128 2784 3200 2784 
z
M 3200 4978 
Q 2513 4978 2130 4736 
Q 1747 4494 1747 4078 
Q 1747 3669 2130 3425 
Q 2513 3181 3200 3181 
Q 3888 3181 4270 3425 
Q 4653 3669 4653 4078 
Q 4653 4494 4270 4736 
Q 3888 4978 3200 4978 
z
M 1913 -556 
L 1913 1672 
L 403 1672 
L 403 2094 
L 5997 2094 
L 5997 1672 
L 4488 1672 
L 4488 -556 
L 4019 -556 
L 4019 1672 
L 2381 1672 
L 2381 -556 
L 1913 -556 
z
" transform="scale(0.015625)"/>
      <path id="MalgunGothic-c0ac" d="M 5094 2600 
L 5094 -563 
L 4628 -563 
L 4628 5466 
L 5094 5466 
L 5094 3016 
L 6138 3016 
L 6138 2600 
L 5094 2600 
z
M 3744 966 
Q 3234 1356 2800 1936 
Q 2366 2516 2234 2950 
Q 2094 2472 1672 1883 
Q 1250 1294 738 891 
L 378 1203 
Q 1116 1703 1556 2479 
Q 1997 3256 1997 4063 
L 1997 5050 
L 2463 5050 
L 2463 4084 
Q 2463 3297 2898 2553 
Q 3334 1809 4072 1331 
L 3744 966 
z
" transform="scale(0.015625)"/>
      <path id="MalgunGothic-d328" d="M 5069 -563 
L 5069 2491 
L 4347 2491 
L 4347 -378 
L 3884 -378 
L 3884 5344 
L 4347 5344 
L 4347 2913 
L 5069 2913 
L 5069 5466 
L 5538 5466 
L 5538 -563 
L 5069 -563 
z
M 538 4513 
L 538 4928 
L 3384 4928 
L 3384 4513 
L 538 4513 
z
M 3591 1125 
Q 3278 1063 2663 1063 
L 366 1063 
L 366 1478 
L 1113 1478 
L 1031 4091 
L 1497 4091 
L 1550 1478 
L 2375 1478 
L 2425 4091 
L 2894 4091 
L 2809 1478 
Q 3369 1478 3553 1522 
L 3591 1125 
z
" transform="scale(0.015625)"/>
      <path id="MalgunGothic-d134" d="M 4947 1147 
L 4947 3378 
L 3884 3378 
L 3884 3794 
L 4947 3794 
L 4947 5466 
L 5416 5466 
L 5416 1147 
L 4947 1147 
z
M 1569 3456 
L 1569 2541 
Q 3544 2541 4172 2600 
L 4206 2194 
Q 3428 2131 1100 2131 
L 1100 5125 
L 3963 5125 
L 3963 4709 
L 1569 4709 
L 1569 3859 
L 3406 3859 
L 3406 3456 
L 1569 3456 
z
M 1734 -378 
L 1734 1503 
L 2203 1503 
L 2203 38 
L 5569 38 
L 5569 -378 
L 1734 -378 
z
" transform="scale(0.015625)"/>
      <path id="MalgunGothic-ad70" d="M 3003 703 
L 3003 2497 
L 403 2497 
L 403 2919 
L 4581 2919 
Q 4634 3438 4634 4788 
L 1338 4788 
L 1338 5203 
L 5100 5203 
Q 5100 3819 5038 2919 
L 5997 2919 
L 5997 2497 
L 3469 2497 
L 3469 703 
L 3003 703 
z
M 1338 -300 
L 1338 1638 
L 1806 1638 
L 1806 122 
L 5216 122 
L 5216 -300 
L 1338 -300 
z
" transform="scale(0.015625)"/>
      <path id="MalgunGothic-c9d1" d="M 4941 2328 
L 4941 5466 
L 5409 5466 
L 5409 2328 
L 4941 2328 
z
M 3872 2388 
Q 3469 2600 3037 2997 
Q 2606 3394 2438 3750 
Q 2269 3366 1859 2936 
Q 1450 2506 978 2234 
L 641 2547 
Q 1316 2875 1759 3462 
Q 2203 4050 2203 4678 
L 2203 4781 
L 838 4781 
L 838 5197 
L 4006 5197 
L 4006 4781 
L 2656 4781 
L 2656 4678 
Q 2656 4081 3120 3523 
Q 3584 2966 4184 2719 
L 3872 2388 
z
M 1672 -397 
L 1672 2003 
L 2131 2003 
L 2131 1172 
L 4947 1172 
L 4947 2003 
L 5409 2003 
L 5409 -397 
L 1672 -397 
z
M 4947 756 
L 2131 756 
L 2131 13 
L 4947 13 
L 4947 756 
z
" transform="scale(0.015625)"/>
      <path id="MalgunGothic-acb0" d="M 3647 2931 
L 3647 3334 
L 4947 3334 
L 4947 4172 
L 3744 4172 
L 3744 4581 
L 4947 4581 
L 4947 5466 
L 5416 5466 
L 5416 2328 
L 4947 2328 
L 4947 2931 
L 3647 2931 
z
M 872 2053 
L 550 2425 
Q 1600 2778 2237 3404 
Q 2875 4031 3066 4800 
L 941 4800 
L 941 5209 
L 3609 5209 
Q 3503 4163 2790 3344 
Q 2078 2525 872 2053 
z
M 1722 -494 
L 1722 984 
L 4947 984 
L 4947 1600 
L 1722 1600 
L 1722 1997 
L 5416 1997 
L 5416 588 
L 2188 588 
L 2188 -91 
L 5581 -91 
L 5581 -494 
L 1722 -494 
z
" transform="scale(0.015625)"/>
      <path id="MalgunGothic-acfc" d="M 6188 2663 
L 5203 2663 
L 5203 -563 
L 4728 -563 
L 4728 5466 
L 5197 5466 
L 5197 3078 
L 6188 3078 
L 6188 2663 
z
M 3828 4897 
Q 3828 3144 3713 1800 
L 3256 1831 
Q 3294 2163 3326 3077 
Q 3359 3991 3359 4481 
L 800 4481 
L 800 4897 
L 3828 4897 
z
M 4319 666 
Q 2688 575 281 575 
L 238 984 
Q 559 984 1747 1000 
L 1747 3084 
L 2216 3084 
L 2216 1006 
L 4288 1069 
L 4319 666 
z
" transform="scale(0.015625)"/>
      <path id="MalgunGothic-b3d9" d="M 403 2119 
L 403 2534 
L 2963 2534 
L 2963 3316 
L 1338 3316 
L 1338 5325 
L 5081 5325 
L 5081 4909 
L 1813 4909 
L 1813 3731 
L 5153 3731 
L 5153 3316 
L 3438 3316 
L 3438 2534 
L 5997 2534 
L 5997 2119 
L 403 2119 
z
M 3200 -513 
Q 2247 -513 1740 -211 
Q 1234 91 1234 603 
Q 1234 1116 1742 1416 
Q 2250 1716 3200 1716 
Q 4150 1716 4658 1416 
Q 5166 1116 5166 603 
Q 5166 91 4659 -211 
Q 4153 -513 3200 -513 
z
M 3200 1319 
Q 2478 1319 2103 1126 
Q 1728 934 1728 603 
Q 1728 272 2104 78 
Q 2481 -116 3200 -116 
Q 3919 -116 4295 78 
Q 4672 272 4672 603 
Q 4672 934 4295 1126 
Q 3919 1319 3200 1319 
z
" transform="scale(0.015625)"/>
      <path id="MalgunGothic-c0c9" d="M 5056 2059 
L 5056 3438 
L 4353 3438 
L 4353 2059 
L 3884 2059 
L 3884 5344 
L 4353 5344 
L 4353 3859 
L 5056 3859 
L 5056 5466 
L 5522 5466 
L 5522 2059 
L 5056 2059 
z
M 3200 2406 
Q 2856 2603 2493 3009 
Q 2131 3416 2003 3725 
Q 1894 3381 1533 2937 
Q 1172 2494 781 2253 
L 447 2566 
Q 1028 2869 1397 3428 
Q 1766 3988 1766 4616 
L 1766 5253 
L 2222 5253 
L 2222 4616 
Q 2222 4041 2600 3516 
Q 2978 2991 3500 2753 
L 3200 2406 
z
M 5056 -563 
L 5056 1313 
L 1581 1313 
L 1581 1728 
L 5522 1728 
L 5522 -563 
L 5056 -563 
z
" transform="scale(0.015625)"/>
      <path id="MalgunGothic-c740" d="M 3200 2950 
Q 2309 2950 1817 3287 
Q 1325 3625 1325 4159 
Q 1325 4694 1815 5028 
Q 2306 5363 3200 5363 
Q 4094 5363 4587 5028 
Q 5081 4694 5081 4159 
Q 5081 3625 4584 3287 
Q 4088 2950 3200 2950 
z
M 3200 4966 
Q 2541 4966 2177 4747 
Q 1813 4528 1813 4159 
Q 1813 3791 2177 3572 
Q 2541 3353 3200 3353 
Q 3859 3353 4223 3572 
Q 4588 3791 4588 4159 
Q 4588 4528 4223 4747 
Q 3859 4966 3200 4966 
z
M 403 1919 
L 403 2344 
L 5997 2344 
L 5997 1919 
L 403 1919 
z
M 1338 -359 
L 1338 1331 
L 1813 1331 
L 1813 56 
L 5203 56 
L 5203 -359 
L 1338 -359 
z
" transform="scale(0.015625)"/>
      <path id="MalgunGothic-ac19" d="M 5119 3525 
L 5119 2272 
L 4653 2272 
L 4653 5466 
L 5119 5466 
L 5119 3944 
L 6028 3944 
L 6028 3525 
L 5119 3525 
z
M 3488 5209 
Q 3488 4306 2794 3461 
Q 2100 2616 788 2081 
L 459 2450 
Q 1506 2784 2178 3450 
Q 2850 4116 2963 4794 
L 831 4794 
L 831 5209 
L 3488 5209 
z
M 1466 -422 
L 1466 1941 
L 5153 1941 
L 5153 1528 
L 1925 1528 
L 1925 972 
L 5044 972 
L 5044 563 
L 1925 563 
L 1925 -6 
L 5269 -6 
L 5269 -422 
L 1466 -422 
z
" transform="scale(0.015625)"/>
     </defs>
     <use xlink:href="#MalgunGothic-c774"/>
     <use xlink:href="#MalgunGothic-c0b0" x="100"/>
     <use xlink:href="#MalgunGothic-d654" x="200"/>
     <use xlink:href="#MalgunGothic-d0c4" x="300"/>
     <use xlink:href="#MalgunGothic-c18c" x="400"/>
     <use xlink:href="#MalgunGothic-20" x="500"/>
     <use xlink:href="#MalgunGothic-c720" x="535.15625"/>
     <use xlink:href="#MalgunGothic-c0ac" x="635.15625"/>
     <use xlink:href="#MalgunGothic-20" x="735.15625"/>
     <use xlink:href="#MalgunGothic-d328" x="770.3125"/>
     <use xlink:href="#MalgunGothic-d134" x="870.3125"/>
     <use xlink:href="#MalgunGothic-20" x="970.3125"/>
     <use xlink:href="#MalgunGothic-ad70" x="1005.46875"/>
     <use xlink:href="#MalgunGothic-c9d1" x="1105.46875"/>
     <use xlink:href="#MalgunGothic-d654" x="1205.46875"/>
     <use xlink:href="#MalgunGothic-20" x="1305.46875"/>
     <use xlink:href="#MalgunGothic-acb0" x="1340.625"/>
     <use xlink:href="#MalgunGothic-acfc" x="1440.625"/>
     <use xlink:href="#MalgunGothic-20" x="1540.625"/>
     <use xlink:href="#MalgunGothic-28" x="1575.78125"/>
     <use xlink:href="#MalgunGothic-b3d9" x="1606.25"/>
     <use xlink:href="#MalgunGothic-c77c" x="1706.25"/>
     <use xlink:href="#MalgunGothic-20" x="1806.25"/>
     <use xlink:href="#MalgunGothic-c0c9" x="1841.40625"/>
     <use xlink:href="#MalgunGothic-c0c1" x="1941.40625"/>
     <use xlink:href="#MalgunGothic-c740" x="2041.40625"/>
     <use xlink:href="#MalgunGothic-20" x="2141.40625"/>
     <use xlink:href="#MalgunGothic-ac19" x="2176.5625"/>
     <use xlink:href="#MalgunGothic-c740" x="2276.5625"/>
     <use xlink:href="#MalgunGothic-20" x="2376.5625"/>
     <use xlink:href="#MalgunGothic-ad70" x="2411.71875"/>
     <use xlink:href="#MalgunGothic-c9d1" x="2511.71875"/>
     <use xlink:href="#MalgunGothic-29" x="2611.71875"/>
    </g>
   </g>
   <g id="legend_1">
    <g id="patch_7">
     <path d="M 706.634375 101.25875 
L 962.2 101.25875 
Q 965 101.25875 965 98.45875 
L 965 78.92 
Q 965 76.12 962.2 76.12 
L 706.634375 76.12 
Q 703.834375 76.12 703.834375 78.92 
L 703.834375 98.45875 
Q 703.834375 101.25875 706.634375 101.25875 
z
" style="fill: #ffffff; opacity: 0.8; stroke: #cccccc; stroke-linejoin: miter"/>
    </g>
    <g id="line2d_48">
     <path d="M 709.434375 87.449063 
L 723.434375 87.449063 
L 737.434375 87.449063 
" style="fill: none; stroke: #a9a9a9; stroke-opacity: 0.8; stroke-width: 3; stroke-linecap: round"/>
    </g>
    <g id="text_22">
     <!-- 군집이 안되는 이산화탄소 데이터 -->
     <g style="fill: #262626" transform="translate(748.634375 92.349063) scale(0.14 -0.14)">
      <defs>
       <path id="MalgunGothic-c548" d="M 5131 3109 
L 5131 1069 
L 4666 1069 
L 4666 5466 
L 5131 5466 
L 5131 3534 
L 6041 3534 
L 6041 3109 
L 5131 3109 
z
M 2188 2188 
Q 1519 2188 1070 2611 
Q 622 3034 622 3706 
Q 622 4381 1067 4798 
Q 1513 5216 2188 5216 
Q 2866 5216 3308 4797 
Q 3750 4378 3750 3706 
Q 3750 3038 3304 2613 
Q 2859 2188 2188 2188 
z
M 2188 4819 
Q 1694 4819 1384 4516 
Q 1075 4213 1075 3706 
Q 1075 3200 1383 2895 
Q 1691 2591 2188 2591 
Q 2684 2591 2993 2895 
Q 3303 3200 3303 3706 
Q 3303 4213 2993 4516 
Q 2684 4819 2188 4819 
z
M 1381 -359 
L 1381 1619 
L 1856 1619 
L 1856 56 
L 5319 56 
L 5319 -359 
L 1381 -359 
z
" transform="scale(0.015625)"/>
       <path id="MalgunGothic-b418" d="M 4984 -563 
L 4984 5466 
L 5453 5466 
L 5453 -563 
L 4984 -563 
z
M 594 513 
L 550 922 
L 878 922 
Q 1806 922 2363 934 
L 2363 2375 
L 1056 2375 
L 1056 4891 
L 4025 4891 
L 4025 4475 
L 1522 4475 
L 1522 2791 
L 4097 2791 
L 4097 2375 
L 2828 2375 
L 2828 947 
Q 4016 963 4538 1013 
L 4569 609 
Q 4022 566 2634 539 
Q 1247 513 594 513 
z
" transform="scale(0.015625)"/>
       <path id="MalgunGothic-b294" d="M 1409 3225 
L 1409 5247 
L 1875 5247 
L 1875 3641 
L 5172 3641 
L 5172 3225 
L 1409 3225 
z
M 403 1972 
L 403 2394 
L 5997 2394 
L 5997 1972 
L 403 1972 
z
M 1381 -331 
L 1381 1459 
L 1850 1459 
L 1850 91 
L 5184 91 
L 5184 -331 
L 1381 -331 
z
" transform="scale(0.015625)"/>
       <path id="MalgunGothic-b370" d="M 5044 -563 
L 5044 5466 
L 5509 5466 
L 5509 -563 
L 5044 -563 
z
M 3897 -366 
L 3897 2859 
L 2650 2859 
L 2650 3272 
L 3897 3272 
L 3897 5344 
L 4359 5344 
L 4359 -366 
L 3897 -366 
z
M 3359 1094 
Q 2766 1019 909 1019 
L 909 4966 
L 3138 4966 
L 3138 4550 
L 1369 4550 
L 1369 1428 
Q 2897 1428 3328 1491 
L 3359 1094 
z
" transform="scale(0.015625)"/>
       <path id="MalgunGothic-d130" d="M 4891 -563 
L 4891 2516 
L 3706 2516 
L 3706 2925 
L 4891 2925 
L 4891 5466 
L 5356 5466 
L 5356 -563 
L 4891 -563 
z
M 1422 2816 
L 1422 1331 
L 2144 1331 
Q 3525 1331 4141 1409 
L 4172 1006 
Q 3694 950 3141 936 
Q 2588 922 953 922 
L 953 4953 
L 3841 4953 
L 3841 4531 
L 1422 4531 
L 1422 3219 
L 3181 3219 
L 3181 2816 
L 1422 2816 
z
" transform="scale(0.015625)"/>
      </defs>
      <use xlink:href="#MalgunGothic-ad70"/>
      <use xlink:href="#MalgunGothic-c9d1" x="100"/>
      <use xlink:href="#MalgunGothic-c774" x="200"/>
      <use xlink:href="#MalgunGothic-20" x="300"/>
      <use xlink:href="#MalgunGothic-c548" x="335.15625"/>
      <use xlink:href="#MalgunGothic-b418" x="435.15625"/>
      <use xlink:href="#MalgunGothic-b294" x="535.15625"/>
      <use xlink:href="#MalgunGothic-20" x="635.15625"/>
      <use xlink:href="#MalgunGothic-c774" x="670.3125"/>
      <use xlink:href="#MalgunGothic-c0b0" x="770.3125"/>
      <use xlink:href="#MalgunGothic-d654" x="870.3125"/>
      <use xlink:href="#MalgunGothic-d0c4" x="970.3125"/>
      <use xlink:href="#MalgunGothic-c18c" x="1070.3125"/>
      <use xlink:href="#MalgunGothic-20" x="1170.3125"/>
      <use xlink:href="#MalgunGothic-b370" x="1205.46875"/>
      <use xlink:href="#MalgunGothic-c774" x="1305.46875"/>
      <use xlink:href="#MalgunGothic-d130" x="1405.46875"/>
     </g>
    </g>
   </g>
  </g>
 </g>
 <defs>
  <clipPath id="pa7ff9e9cb2">
   <rect x="135" y="69.12" width="837" height="443.52"/>
  </clipPath>
 </defs>
</svg>
