<?xml version="1.0" encoding="utf-8" standalone="no"?>
<!DOCTYPE svg PUBLIC "-//W3C//DTD SVG 1.1//EN"
  "http://www.w3.org/Graphics/SVG/1.1/DTD/svg11.dtd">
<svg xmlns:xlink="http://www.w3.org/1999/xlink" width="1080pt" height="576pt" viewBox="0 0 1080 576" xmlns="http://www.w3.org/2000/svg" version="1.1">
 <metadata>
  <rdf:RDF xmlns:dc="http://purl.org/dc/elements/1.1/" xmlns:cc="http://creativecommons.org/ns#" xmlns:rdf="http://www.w3.org/1999/02/22-rdf-syntax-ns#">
   <cc:Work>
    <dc:type rdf:resource="http://purl.org/dc/dcmitype/StillImage"/>
    <dc:date>2024-11-12T22:44:55.680627</dc:date>
    <dc:format>image/svg+xml</dc:format>
    <dc:creator>
     <cc:Agent>
      <dc:title>Matplotlib v3.9.2, https://matplotlib.org/</dc:title>
     </cc:Agent>
    </dc:creator>
   </cc:Work>
  </rdf:RDF>
 </metadata>
 <defs>
  <style type="text/css">*{stroke-linejoin: round; stroke-linecap: butt}</style>
 </defs>
 <g id="figure_1">
  <g id="patch_1">
   <path d="M 0 576 
L 1080 576 
L 1080 0 
L 0 0 
z
" style="fill: #ffffff"/>
  </g>
  <g id="axes_1">
   <g id="patch_2">
    <path d="M 135 512.64 
L 972 512.64 
L 972 69.12 
L 135 69.12 
z
" style="fill: #ffffff"/>
   </g>
   <g id="matplotlib.axis_1">
    <g id="xtick_1">
     <g id="line2d_1">
      <path d="M 135 512.64 
L 135 69.12 
" clip-path="url(#p73c29a6f60)" style="fill: none; stroke: #a9a9a9; stroke-opacity: 0.7; stroke-width: 1.5; stroke-linecap: round"/>
     </g>
     <g id="text_1">
      <!-- 0일 -->
      <g style="fill: #262626" transform="translate(124.144531 532.769063) scale(0.14 -0.14)">
       <defs>
        <path id="MalgunGothic-30" d="M 278 2206 
Q 278 3425 675 4050 
Q 1072 4675 1819 4675 
Q 3253 4675 3253 2319 
Q 3253 1156 2854 539 
Q 2456 -78 1716 -78 
Q 1016 -78 647 520 
Q 278 1119 278 2206 
z
M 784 2231 
Q 784 344 1769 344 
Q 2747 344 2747 2259 
Q 2747 4250 1794 4250 
Q 784 4250 784 2231 
z
" transform="scale(0.015625)"/>
        <path id="MalgunGothic-c77c" d="M 4947 2363 
L 4947 5466 
L 5422 5466 
L 5422 2363 
L 4947 2363 
z
M 2419 2578 
Q 1738 2578 1314 2970 
Q 891 3363 891 3969 
Q 891 4572 1314 4961 
Q 1738 5350 2419 5350 
Q 3097 5350 3523 4959 
Q 3950 4569 3950 3969 
Q 3950 3366 3522 2972 
Q 3094 2578 2419 2578 
z
M 2419 4947 
Q 1931 4947 1643 4680 
Q 1356 4413 1356 3969 
Q 1356 3522 1643 3248 
Q 1931 2975 2419 2975 
Q 2906 2975 3193 3248 
Q 3481 3522 3481 3969 
Q 3481 4413 3193 4680 
Q 2906 4947 2419 4947 
z
M 1703 -422 
L 1703 1038 
L 4959 1038 
L 4959 1613 
L 1703 1613 
L 1703 2028 
L 5422 2028 
L 5422 634 
L 2163 634 
L 2163 -6 
L 5588 -6 
L 5588 -422 
L 1703 -422 
z
" transform="scale(0.015625)"/>
       </defs>
       <use xlink:href="#MalgunGothic-30"/>
       <use xlink:href="#MalgunGothic-c77c" x="55.078125"/>
      </g>
     </g>
    </g>
    <g id="xtick_2">
     <g id="line2d_2">
      <path d="M 216.109017 512.64 
L 216.109017 69.12 
" clip-path="url(#p73c29a6f60)" style="fill: none; stroke: #a9a9a9; stroke-opacity: 0.7; stroke-width: 1.5; stroke-linecap: round"/>
     </g>
     <g id="text_2">
      <!-- 1일 -->
      <g style="fill: #262626" transform="translate(205.253549 532.769063) scale(0.14 -0.14)">
       <defs>
        <path id="MalgunGothic-31" d="M 2231 0 
L 1734 0 
L 1734 3972 
Q 1591 3828 1266 3661 
Q 941 3494 672 3428 
L 672 3959 
Q 1016 4056 1409 4275 
Q 1803 4494 2031 4700 
L 2231 4700 
L 2231 0 
z
" transform="scale(0.015625)"/>
       </defs>
       <use xlink:href="#MalgunGothic-31"/>
       <use xlink:href="#MalgunGothic-c77c" x="55.078125"/>
      </g>
     </g>
    </g>
    <g id="xtick_3">
     <g id="line2d_3">
      <path d="M 297.218035 512.64 
L 297.218035 69.12 
" clip-path="url(#p73c29a6f60)" style="fill: none; stroke: #a9a9a9; stroke-opacity: 0.7; stroke-width: 1.5; stroke-linecap: round"/>
     </g>
     <g id="text_3">
      <!-- 2일 -->
      <g style="fill: #262626" transform="translate(286.362566 532.769063) scale(0.14 -0.14)">
       <defs>
        <path id="MalgunGothic-32" d="M 2519 3372 
Q 2519 3784 2275 4018 
Q 2031 4253 1628 4253 
Q 1341 4253 1053 4104 
Q 766 3956 534 3697 
L 534 4234 
Q 981 4675 1691 4675 
Q 2281 4675 2642 4334 
Q 3003 3994 3003 3416 
Q 3003 2919 2772 2545 
Q 2541 2172 1984 1775 
Q 1459 1406 1254 1215 
Q 1050 1025 967 854 
Q 884 684 884 450 
L 3116 450 
L 3116 0 
L 356 0 
L 356 225 
Q 356 603 461 870 
Q 566 1138 811 1392 
Q 1056 1647 1597 2022 
Q 2091 2363 2305 2670 
Q 2519 2978 2519 3372 
z
" transform="scale(0.015625)"/>
       </defs>
       <use xlink:href="#MalgunGothic-32"/>
       <use xlink:href="#MalgunGothic-c77c" x="55.078125"/>
      </g>
     </g>
    </g>
    <g id="xtick_4">
     <g id="line2d_4">
      <path d="M 378.327052 512.64 
L 378.327052 69.12 
" clip-path="url(#p73c29a6f60)" style="fill: none; stroke: #a9a9a9; stroke-opacity: 0.7; stroke-width: 1.5; stroke-linecap: round"/>
     </g>
     <g id="text_4">
      <!-- 3일 -->
      <g style="fill: #262626" transform="translate(367.471584 532.769063) scale(0.14 -0.14)">
       <defs>
        <path id="MalgunGothic-33" d="M 416 719 
Q 891 344 1478 344 
Q 1959 344 2254 587 
Q 2550 831 2550 1247 
Q 2550 2169 1253 2169 
L 872 2169 
L 872 2591 
L 1234 2591 
Q 2388 2591 2388 3453 
Q 2388 4250 1509 4250 
Q 1022 4250 594 3916 
L 594 4413 
Q 1031 4675 1634 4675 
Q 2184 4675 2539 4372 
Q 2894 4069 2894 3581 
Q 2894 2678 1972 2409 
L 1972 2400 
Q 2469 2356 2764 2053 
Q 3059 1750 3059 1300 
Q 3059 672 2604 297 
Q 2150 -78 1450 -78 
Q 806 -78 416 169 
L 416 719 
z
" transform="scale(0.015625)"/>
       </defs>
       <use xlink:href="#MalgunGothic-33"/>
       <use xlink:href="#MalgunGothic-c77c" x="55.078125"/>
      </g>
     </g>
    </g>
    <g id="xtick_5">
     <g id="line2d_5">
      <path d="M 459.43607 512.64 
L 459.43607 69.12 
" clip-path="url(#p73c29a6f60)" style="fill: none; stroke: #a9a9a9; stroke-opacity: 0.7; stroke-width: 1.5; stroke-linecap: round"/>
     </g>
     <g id="text_5">
      <!-- 4일 -->
      <g style="fill: #262626" transform="translate(448.580601 532.769063) scale(0.14 -0.14)">
       <defs>
        <path id="MalgunGothic-34" d="M 2703 4600 
L 2703 1563 
L 3309 1563 
L 3309 1113 
L 2703 1113 
L 2703 0 
L 2213 0 
L 2213 1113 
L 50 1113 
L 50 1534 
Q 728 2297 1295 3109 
Q 1863 3922 2172 4600 
L 2703 4600 
z
M 625 1563 
L 2213 1563 
L 2213 3831 
Q 1613 2788 959 1981 
L 625 1563 
z
" transform="scale(0.015625)"/>
       </defs>
       <use xlink:href="#MalgunGothic-34"/>
       <use xlink:href="#MalgunGothic-c77c" x="55.078125"/>
      </g>
     </g>
    </g>
    <g id="xtick_6">
     <g id="line2d_6">
      <path d="M 540.545087 512.64 
L 540.545087 69.12 
" clip-path="url(#p73c29a6f60)" style="fill: none; stroke: #a9a9a9; stroke-opacity: 0.7; stroke-width: 1.5; stroke-linecap: round"/>
     </g>
     <g id="text_6">
      <!-- 5일 -->
      <g style="fill: #262626" transform="translate(529.689619 532.769063) scale(0.14 -0.14)">
       <defs>
        <path id="MalgunGothic-35" d="M 3072 1403 
Q 3072 722 2636 322 
Q 2200 -78 1469 -78 
Q 828 -78 516 113 
L 516 650 
Q 994 344 1475 344 
Q 1969 344 2270 630 
Q 2572 916 2572 1372 
Q 2572 1838 2265 2092 
Q 1959 2347 1381 2347 
Q 994 2347 603 2300 
L 759 4600 
L 2869 4600 
L 2869 4147 
L 1206 4147 
L 1106 2763 
Q 1347 2784 1547 2784 
Q 2263 2784 2667 2414 
Q 3072 2044 3072 1403 
z
" transform="scale(0.015625)"/>
       </defs>
       <use xlink:href="#MalgunGothic-35"/>
       <use xlink:href="#MalgunGothic-c77c" x="55.078125"/>
      </g>
     </g>
    </g>
    <g id="xtick_7">
     <g id="line2d_7">
      <path d="M 621.654105 512.64 
L 621.654105 69.12 
" clip-path="url(#p73c29a6f60)" style="fill: none; stroke: #a9a9a9; stroke-opacity: 0.7; stroke-width: 1.5; stroke-linecap: round"/>
     </g>
     <g id="text_7">
      <!-- 6일 -->
      <g style="fill: #262626" transform="translate(610.798636 532.769063) scale(0.14 -0.14)">
       <defs>
        <path id="MalgunGothic-36" d="M 2981 4069 
Q 2619 4250 2228 4250 
Q 1591 4250 1228 3689 
Q 866 3128 869 2213 
L 884 2213 
Q 1203 2872 1938 2872 
Q 2547 2872 2903 2478 
Q 3259 2084 3259 1450 
Q 3259 797 2857 359 
Q 2456 -78 1825 -78 
Q 1116 -78 736 478 
Q 356 1034 356 2019 
Q 356 3181 847 3928 
Q 1338 4675 2222 4675 
Q 2700 4675 2981 4544 
L 2981 4069 
z
M 906 1506 
Q 906 1022 1165 683 
Q 1425 344 1844 344 
Q 2247 344 2498 645 
Q 2750 947 2750 1388 
Q 2750 1888 2509 2167 
Q 2269 2447 1838 2447 
Q 1444 2447 1175 2173 
Q 906 1900 906 1506 
z
" transform="scale(0.015625)"/>
       </defs>
       <use xlink:href="#MalgunGothic-36"/>
       <use xlink:href="#MalgunGothic-c77c" x="55.078125"/>
      </g>
     </g>
    </g>
    <g id="xtick_8">
     <g id="line2d_8">
      <path d="M 702.763122 512.64 
L 702.763122 69.12 
" clip-path="url(#p73c29a6f60)" style="fill: none; stroke: #a9a9a9; stroke-opacity: 0.7; stroke-width: 1.5; stroke-linecap: round"/>
     </g>
     <g id="text_8">
      <!-- 7일 -->
      <g style="fill: #262626" transform="translate(691.907654 532.769063) scale(0.14 -0.14)">
       <defs>
        <path id="MalgunGothic-37" d="M 3213 4297 
Q 2478 3006 2064 1918 
Q 1650 831 1550 0 
L 1009 0 
Q 1084 531 1290 1176 
Q 1497 1822 1815 2537 
Q 2134 3253 2631 4147 
L 291 4147 
L 291 4600 
L 3213 4600 
L 3213 4297 
z
" transform="scale(0.015625)"/>
       </defs>
       <use xlink:href="#MalgunGothic-37"/>
       <use xlink:href="#MalgunGothic-c77c" x="55.078125"/>
      </g>
     </g>
    </g>
    <g id="xtick_9">
     <g id="line2d_9">
      <path d="M 783.87214 512.64 
L 783.87214 69.12 
" clip-path="url(#p73c29a6f60)" style="fill: none; stroke: #a9a9a9; stroke-opacity: 0.7; stroke-width: 1.5; stroke-linecap: round"/>
     </g>
     <g id="text_9">
      <!-- 8일 -->
      <g style="fill: #262626" transform="translate(773.016671 532.769063) scale(0.14 -0.14)">
       <defs>
        <path id="MalgunGothic-38" d="M 303 1281 
Q 303 1669 539 2011 
Q 775 2353 1153 2494 
Q 856 2647 675 2915 
Q 494 3184 494 3500 
Q 494 3828 659 4098 
Q 825 4369 1122 4522 
Q 1419 4675 1778 4675 
Q 2334 4675 2700 4342 
Q 3066 4009 3066 3500 
Q 3066 3181 2881 2914 
Q 2697 2647 2413 2494 
Q 2788 2350 3022 2009 
Q 3256 1669 3256 1281 
Q 3256 672 2843 297 
Q 2431 -78 1778 -78 
Q 1131 -78 717 301 
Q 303 681 303 1281 
z
M 809 1328 
Q 809 878 1081 611 
Q 1353 344 1781 344 
Q 2206 344 2482 619 
Q 2759 894 2759 1328 
Q 2759 1731 2482 2011 
Q 2206 2291 1781 2291 
Q 1372 2291 1090 2020 
Q 809 1750 809 1328 
z
M 1003 3459 
Q 1003 3125 1234 2900 
Q 1466 2675 1781 2675 
Q 2097 2675 2330 2900 
Q 2563 3125 2563 3459 
Q 2563 3803 2341 4026 
Q 2119 4250 1781 4250 
Q 1450 4250 1226 4029 
Q 1003 3809 1003 3459 
z
" transform="scale(0.015625)"/>
       </defs>
       <use xlink:href="#MalgunGothic-38"/>
       <use xlink:href="#MalgunGothic-c77c" x="55.078125"/>
      </g>
     </g>
    </g>
    <g id="xtick_10">
     <g id="line2d_10">
      <path d="M 864.981157 512.64 
L 864.981157 69.12 
" clip-path="url(#p73c29a6f60)" style="fill: none; stroke: #a9a9a9; stroke-opacity: 0.7; stroke-width: 1.5; stroke-linecap: round"/>
     </g>
     <g id="text_10">
      <!-- 9일 -->
      <g style="fill: #262626" transform="translate(854.125689 532.769063) scale(0.14 -0.14)">
       <defs>
        <path id="MalgunGothic-39" d="M 556 563 
Q 941 344 1366 344 
Q 1994 344 2347 855 
Q 2700 1366 2700 2313 
Q 2694 2306 2688 2313 
Q 2388 1713 1653 1713 
Q 1059 1713 682 2120 
Q 306 2528 306 3144 
Q 306 3806 711 4240 
Q 1116 4675 1772 4675 
Q 2466 4675 2833 4131 
Q 3200 3588 3200 2578 
Q 3200 1319 2717 620 
Q 2234 -78 1344 -78 
Q 881 -78 556 78 
L 556 563 
z
M 813 3219 
Q 813 2741 1063 2450 
Q 1313 2159 1759 2159 
Q 2147 2159 2406 2417 
Q 2666 2675 2666 3047 
Q 2666 3556 2411 3903 
Q 2156 4250 1725 4250 
Q 1322 4250 1067 3948 
Q 813 3647 813 3219 
z
" transform="scale(0.015625)"/>
       </defs>
       <use xlink:href="#MalgunGothic-39"/>
       <use xlink:href="#MalgunGothic-c77c" x="55.078125"/>
      </g>
     </g>
    </g>
    <g id="xtick_11">
     <g id="line2d_11">
      <path d="M 946.090175 512.64 
L 946.090175 69.12 
" clip-path="url(#p73c29a6f60)" style="fill: none; stroke: #a9a9a9; stroke-opacity: 0.7; stroke-width: 1.5; stroke-linecap: round"/>
     </g>
     <g id="text_11">
      <!-- 10일 -->
      <g style="fill: #262626" transform="translate(931.379237 532.769063) scale(0.14 -0.14)">
       <use xlink:href="#MalgunGothic-31"/>
       <use xlink:href="#MalgunGothic-30" x="55.078125"/>
       <use xlink:href="#MalgunGothic-c77c" x="110.15625"/>
      </g>
     </g>
    </g>
    <g id="text_12">
     <!-- 상대 시간(일) -->
     <g style="fill: #262626" transform="translate(505.8125 552.57125) scale(0.16 -0.16)">
      <defs>
       <path id="MalgunGothic-c0c1" d="M 5125 3391 
L 5125 1991 
L 4659 1991 
L 4659 5466 
L 5125 5466 
L 5125 3816 
L 6034 3816 
L 6034 3391 
L 5125 3391 
z
M 3603 2316 
Q 3206 2528 2778 2934 
Q 2350 3341 2188 3681 
Q 2022 3291 1609 2852 
Q 1197 2413 750 2163 
L 409 2484 
Q 1072 2806 1512 3397 
Q 1953 3988 1953 4628 
L 1953 5259 
L 2400 5259 
L 2400 4628 
Q 2400 4025 2845 3472 
Q 3291 2919 3909 2656 
L 3603 2316 
z
M 3263 -513 
Q 2322 -513 1811 -186 
Q 1300 141 1300 659 
Q 1300 1175 1812 1500 
Q 2325 1825 3263 1825 
Q 4203 1825 4715 1501 
Q 5228 1178 5228 659 
Q 5228 138 4717 -187 
Q 4206 -513 3263 -513 
z
M 3263 1428 
Q 2563 1428 2180 1215 
Q 1797 1003 1797 659 
Q 1797 309 2181 96 
Q 2566 -116 3263 -116 
Q 3969 -116 4353 98 
Q 4738 313 4738 659 
Q 4738 1000 4353 1214 
Q 3969 1428 3263 1428 
z
" transform="scale(0.015625)"/>
       <path id="MalgunGothic-b300" d="M 5069 -563 
L 5069 2572 
L 4294 2572 
L 4294 -378 
L 3834 -378 
L 3834 5344 
L 4294 5344 
L 4294 2988 
L 5069 2988 
L 5069 5466 
L 5538 5466 
L 5538 -563 
L 5069 -563 
z
M 3391 1153 
Q 2516 1063 825 1063 
L 825 4934 
L 3138 4934 
L 3138 4519 
L 1288 4519 
L 1288 1478 
L 1844 1478 
Q 2791 1478 3359 1550 
L 3391 1153 
z
" transform="scale(0.015625)"/>
       <path id="MalgunGothic-20" transform="scale(0.015625)"/>
       <path id="MalgunGothic-c2dc" d="M 4947 -563 
L 4947 5466 
L 5416 5466 
L 5416 -563 
L 4947 -563 
z
M 3769 966 
Q 3263 1353 2820 1939 
Q 2378 2525 2259 2950 
Q 2116 2463 1687 1872 
Q 1259 1281 756 891 
L 397 1203 
Q 1141 1703 1581 2479 
Q 2022 3256 2022 4063 
L 2022 5050 
L 2484 5050 
L 2484 4084 
Q 2484 3303 2920 2556 
Q 3356 1809 4097 1331 
L 3769 966 
z
" transform="scale(0.015625)"/>
       <path id="MalgunGothic-ac04" d="M 5125 3122 
L 5125 1063 
L 4659 1063 
L 4659 5466 
L 5125 5466 
L 5125 3541 
L 6034 3541 
L 6034 3122 
L 5125 3122 
z
M 3513 5100 
Q 3403 3872 2556 3011 
Q 1709 2150 794 1800 
L 469 2163 
Q 1344 2450 2087 3172 
Q 2831 3894 2963 4678 
L 831 4678 
L 831 5100 
L 3513 5100 
z
M 1459 -325 
L 1459 1509 
L 1925 1509 
L 1925 97 
L 5294 97 
L 5294 -325 
L 1459 -325 
z
" transform="scale(0.015625)"/>
       <path id="MalgunGothic-28" d="M 1438 -1044 
Q 447 88 447 1753 
Q 447 3431 1438 4600 
L 1888 4600 
Q 878 3372 878 1759 
Q 878 153 1881 -1044 
L 1438 -1044 
z
" transform="scale(0.015625)"/>
       <path id="MalgunGothic-29" d="M 81 -1044 
Q 1081 150 1081 1759 
Q 1081 3378 72 4600 
L 525 4600 
Q 1522 3431 1522 1753 
Q 1522 88 525 -1044 
L 81 -1044 
z
" transform="scale(0.015625)"/>
      </defs>
      <use xlink:href="#MalgunGothic-c0c1"/>
      <use xlink:href="#MalgunGothic-b300" x="100"/>
      <use xlink:href="#MalgunGothic-20" x="200"/>
      <use xlink:href="#MalgunGothic-c2dc" x="235.15625"/>
      <use xlink:href="#MalgunGothic-ac04" x="335.15625"/>
      <use xlink:href="#MalgunGothic-28" x="435.15625"/>
      <use xlink:href="#MalgunGothic-c77c" x="465.625"/>
      <use xlink:href="#MalgunGothic-29" x="565.625"/>
     </g>
    </g>
   </g>
   <g id="matplotlib.axis_2">
    <g id="ytick_1">
     <g id="text_13">
      <!-- 0 -->
      <g style="fill: #262626" transform="translate(117.789062 500.13005) scale(0.14 -0.14)">
       <use xlink:href="#MalgunGothic-30"/>
      </g>
     </g>
    </g>
    <g id="ytick_2">
     <g id="text_14">
      <!-- 10000 -->
      <g style="fill: #262626" transform="translate(86.945312 435.3445) scale(0.14 -0.14)">
       <use xlink:href="#MalgunGothic-31"/>
       <use xlink:href="#MalgunGothic-30" x="55.078125"/>
       <use xlink:href="#MalgunGothic-30" x="110.15625"/>
       <use xlink:href="#MalgunGothic-30" x="165.234375"/>
       <use xlink:href="#MalgunGothic-30" x="220.3125"/>
      </g>
     </g>
    </g>
    <g id="ytick_3">
     <g id="text_15">
      <!-- 20000 -->
      <g style="fill: #262626" transform="translate(86.945312 370.558949) scale(0.14 -0.14)">
       <use xlink:href="#MalgunGothic-32"/>
       <use xlink:href="#MalgunGothic-30" x="55.078125"/>
       <use xlink:href="#MalgunGothic-30" x="110.15625"/>
       <use xlink:href="#MalgunGothic-30" x="165.234375"/>
       <use xlink:href="#MalgunGothic-30" x="220.3125"/>
      </g>
     </g>
    </g>
    <g id="ytick_4">
     <g id="text_16">
      <!-- 30000 -->
      <g style="fill: #262626" transform="translate(86.945312 305.773399) scale(0.14 -0.14)">
       <use xlink:href="#MalgunGothic-33"/>
       <use xlink:href="#MalgunGothic-30" x="55.078125"/>
       <use xlink:href="#MalgunGothic-30" x="110.15625"/>
       <use xlink:href="#MalgunGothic-30" x="165.234375"/>
       <use xlink:href="#MalgunGothic-30" x="220.3125"/>
      </g>
     </g>
    </g>
    <g id="ytick_5">
     <g id="text_17">
      <!-- 40000 -->
      <g style="fill: #262626" transform="translate(86.945312 240.987848) scale(0.14 -0.14)">
       <use xlink:href="#MalgunGothic-34"/>
       <use xlink:href="#MalgunGothic-30" x="55.078125"/>
       <use xlink:href="#MalgunGothic-30" x="110.15625"/>
       <use xlink:href="#MalgunGothic-30" x="165.234375"/>
       <use xlink:href="#MalgunGothic-30" x="220.3125"/>
      </g>
     </g>
    </g>
    <g id="ytick_6">
     <g id="text_18">
      <!-- 50000 -->
      <g style="fill: #262626" transform="translate(86.945312 176.202298) scale(0.14 -0.14)">
       <use xlink:href="#MalgunGothic-35"/>
       <use xlink:href="#MalgunGothic-30" x="55.078125"/>
       <use xlink:href="#MalgunGothic-30" x="110.15625"/>
       <use xlink:href="#MalgunGothic-30" x="165.234375"/>
       <use xlink:href="#MalgunGothic-30" x="220.3125"/>
      </g>
     </g>
    </g>
    <g id="ytick_7">
     <g id="text_19">
      <!-- 60000 -->
      <g style="fill: #262626" transform="translate(86.945312 111.416747) scale(0.14 -0.14)">
       <use xlink:href="#MalgunGothic-36"/>
       <use xlink:href="#MalgunGothic-30" x="55.078125"/>
       <use xlink:href="#MalgunGothic-30" x="110.15625"/>
       <use xlink:href="#MalgunGothic-30" x="165.234375"/>
       <use xlink:href="#MalgunGothic-30" x="220.3125"/>
      </g>
     </g>
    </g>
    <g id="text_20">
     <!-- 이산화탄소 -->
     <g style="fill: #262626" transform="translate(79.162813 330.88) rotate(-90) scale(0.16 -0.16)">
      <defs>
       <path id="MalgunGothic-c774" d="M 4947 -563 
L 4947 5466 
L 5416 5466 
L 5416 -563 
L 4947 -563 
z
M 2284 959 
Q 1597 959 1173 1514 
Q 750 2069 750 3016 
Q 750 3975 1169 4522 
Q 1588 5069 2284 5069 
Q 2978 5069 3403 4522 
Q 3828 3975 3828 3016 
Q 3828 2063 3401 1511 
Q 2975 959 2284 959 
z
M 2284 4653 
Q 1803 4653 1503 4204 
Q 1203 3756 1203 3016 
Q 1203 2278 1506 1826 
Q 1809 1375 2284 1375 
Q 2756 1375 3061 1828 
Q 3366 2281 3366 3016 
Q 3366 3759 3067 4206 
Q 2769 4653 2284 4653 
z
" transform="scale(0.015625)"/>
       <path id="MalgunGothic-c0b0" d="M 5125 3169 
L 5125 1081 
L 4659 1081 
L 4659 5466 
L 5125 5466 
L 5125 3584 
L 6034 3584 
L 6034 3169 
L 5125 3169 
z
M 3597 2081 
Q 3206 2294 2778 2731 
Q 2350 3169 2188 3525 
Q 2038 3125 1603 2642 
Q 1169 2159 750 1925 
L 409 2247 
Q 1041 2553 1492 3173 
Q 1944 3794 1953 4453 
L 1953 5228 
L 2400 5228 
L 2400 4453 
Q 2400 3841 2853 3259 
Q 3306 2678 3909 2419 
L 3597 2081 
z
M 1478 -353 
L 1478 1528 
L 1953 1528 
L 1953 72 
L 5325 72 
L 5325 -353 
L 1478 -353 
z
" transform="scale(0.015625)"/>
       <path id="MalgunGothic-d654" d="M 5228 2363 
L 5228 -563 
L 4763 -563 
L 4763 5466 
L 5228 5466 
L 5228 2778 
L 6156 2778 
L 6156 2363 
L 5228 2363 
z
M 2131 5441 
L 2591 5441 
L 2591 4653 
L 4159 4653 
L 4159 4238 
L 556 4238 
L 556 4653 
L 2131 4653 
L 2131 5441 
z
M 2591 1741 
L 2591 884 
Q 3688 900 4409 947 
L 4441 544 
Q 2791 447 359 447 
L 313 856 
Q 1141 856 2125 878 
L 2125 1734 
Q 1506 1791 1175 2092 
Q 844 2394 844 2828 
Q 844 3316 1250 3627 
Q 1656 3938 2363 3938 
Q 3059 3938 3465 3633 
Q 3872 3328 3872 2859 
Q 3872 2400 3536 2098 
Q 3200 1797 2591 1741 
z
M 2363 3541 
Q 1875 3541 1594 3342 
Q 1313 3144 1313 2828 
Q 1313 2513 1592 2319 
Q 1872 2125 2363 2125 
Q 2847 2125 3126 2320 
Q 3406 2516 3406 2828 
Q 3406 3144 3125 3342 
Q 2844 3541 2363 3541 
z
" transform="scale(0.015625)"/>
       <path id="MalgunGothic-d0c4" d="M 5125 3169 
L 5125 1125 
L 4659 1125 
L 4659 5466 
L 5125 5466 
L 5125 3584 
L 6034 3584 
L 6034 3169 
L 5125 3169 
z
M 1319 3431 
L 1319 2553 
Q 3244 2553 3872 2613 
L 3903 2209 
Q 3306 2138 850 2138 
L 850 5081 
L 3688 5081 
L 3688 4666 
L 1319 4666 
L 1319 3834 
L 3372 3834 
L 3372 3431 
L 1319 3431 
z
M 1459 -378 
L 1459 1606 
L 1925 1606 
L 1925 38 
L 5294 38 
L 5294 -378 
L 1459 -378 
z
" transform="scale(0.015625)"/>
       <path id="MalgunGothic-c18c" d="M 3194 3909 
Q 2963 3416 2330 2941 
Q 1697 2466 959 2259 
L 641 2631 
Q 1700 2872 2328 3497 
Q 2956 4122 2956 4666 
L 2956 4984 
L 3438 4984 
L 3438 4666 
Q 3438 4131 4069 3506 
Q 4700 2881 5759 2631 
L 5428 2266 
Q 4719 2481 4072 2957 
Q 3425 3434 3194 3909 
z
M 403 384 
L 403 800 
L 2963 800 
L 2963 2266 
L 3438 2266 
L 3438 800 
L 5997 800 
L 5997 384 
L 403 384 
z
" transform="scale(0.015625)"/>
      </defs>
      <use xlink:href="#MalgunGothic-c774"/>
      <use xlink:href="#MalgunGothic-c0b0" x="100"/>
      <use xlink:href="#MalgunGothic-d654" x="200"/>
      <use xlink:href="#MalgunGothic-d0c4" x="300"/>
      <use xlink:href="#MalgunGothic-c18c" x="400"/>
     </g>
    </g>
   </g>
   <g id="line2d_12">
    <path d="M 135 488.589628 
L 135.563257 480.613231 
L 136.126514 448.95318 
L 137.253028 359.059342 
L 137.816285 348.051629 
L 138.379542 343.509514 
L 138.942799 348.581574 
L 139.506057 339.564722 
L 140.069314 316.843133 
L 141.195828 286.403642 
L 142.885599 239.723062 
L 145.701884 167.306421 
L 146.828398 127.45359 
L 147.391655 110.255618 
L 147.954913 89.28 
L 148.51817 163.612349 
L 149.081427 187.432053 
L 149.644684 156.89927 
L 150.207941 247.328885 
L 150.771198 307.412949 
L 151.334455 349.885708 
L 151.897712 375.228519 
L 152.460969 360.943953 
L 153.024226 384.165038 
L 153.587483 390.918932 
L 154.15074 388.558146 
L 155.277254 392.585864 
L 155.840511 394.121929 
L 156.403769 397.496609 
L 156.967026 397.727245 
L 157.530283 398.891442 
L 158.09354 397.512157 
L 158.656797 391.387979 
L 159.220054 393.669726 
L 159.783311 388.444124 
L 160.346568 387.264379 
L 160.909825 394.090184 
L 161.473082 396.106959 
L 162.036339 395.830972 
L 162.599596 393.183187 
L 163.162853 382.603058 
L 163.72611 384.935986 
L 164.289367 383.955133 
L 164.852624 372.350745 
L 165.415882 372.04107 
L 165.979139 374.753641 
L 166.542396 367.802799 
L 167.105653 335.361435 
L 167.66891 334.634541 
L 168.795424 303.085922 
L 169.358681 298.006734 
L 169.921938 305.405244 
L 170.485195 317.844718 
L 171.048452 320.83198 
L 171.611709 319.200032 
L 172.174966 321.571831 
L 172.738223 321.245959 
L 173.30148 324.634244 
L 173.864738 325.637772 
L 174.427995 318.123944 
L 174.991252 328.4689 
L 175.554509 345.578764 
L 176.681023 290.921787 
L 177.24428 289.037823 
L 177.807537 275.705604 
L 178.370794 273.091507 
L 179.497308 242.108466 
L 180.623822 231.367669 
L 181.187079 256.10668 
L 181.750336 297.949723 
L 182.313594 310.914608 
L 182.876851 305.622924 
L 183.440108 325.098108 
L 184.566622 145.143932 
L 185.129879 107.210697 
L 185.693136 202.591871 
L 186.256393 473.874238 
L 187.382907 434.618729 
L 188.509421 406.99741 
L 190.199192 366.44619 
L 191.325707 328.650948 
L 191.888964 309.694048 
L 192.452221 294.648899 
L 194.141992 257.764542 
L 194.705249 264.738706 
L 195.268506 151.707356 
L 195.831763 401.510721 
L 196.39502 234.262936 
L 196.958277 443.99579 
L 197.521534 383.779564 
L 198.648048 314.059298 
L 199.211306 295.599303 
L 199.774563 420.485761 
L 200.33782 476.953495 
L 201.464334 457.407047 
L 202.027591 448.568354 
L 202.590848 443.679636 
L 203.154105 437.100664 
L 203.717362 421.857919 
L 204.280619 410.005403 
L 204.843876 348.055516 
L 205.407133 248.019499 
L 205.97039 279.216333 
L 206.533647 347.402477 
L 207.096904 164.737674 
L 207.660162 395.676783 
L 208.223419 372.772499 
L 208.786676 372.189429 
L 390.718708 372.189429 
L 391.281965 384.12811 
L 392.408479 359.290626 
L 392.971736 447.17093 
L 393.534993 324.789729 
L 394.09825 261.625113 
L 394.661507 372.189429 
L 395.224764 414.6434 
L 395.788022 307.79907 
L 396.351279 327.710909 
L 396.914536 339.527146 
L 397.477793 337.923056 
L 398.04105 372.189429 
L 398.604307 313.985443 
L 399.167564 380.90924 
L 399.730821 359.076186 
L 400.294078 385.977738 
L 400.857335 398.570105 
L 401.420592 484.802912 
L 401.983849 472.021533 
L 402.547106 491.768655 
L 403.110363 492.150889 
L 403.67362 492.367921 
L 404.236878 437.117184 
L 404.800135 268.270167 
L 405.363392 380.283736 
L 405.926649 372.189429 
L 440.848587 372.189429 
L 441.411844 466.489981 
L 441.975101 491.149953 
L 442.538358 491.543201 
L 443.101615 491.542553 
L 443.664872 491.409743 
L 445.354643 491.650097 
L 445.9179 491.528948 
L 447.044415 491.539314 
L 448.170929 491.569763 
L 448.734186 491.287298 
L 449.297443 490.875262 
L 450.423957 490.80335 
L 451.550471 490.546151 
L 452.676985 491.056014 
L 456.056528 491.808822 
L 456.619785 491.730431 
L 457.183042 491.865185 
L 458.309556 491.868424 
L 459.999327 491.441488 
L 461.125841 491.777725 
L 461.689098 491.717474 
L 462.815612 491.858707 
L 463.942127 491.860002 
L 464.505384 491.854172 
L 465.068641 491.963659 
L 466.758412 491.879438 
L 467.884926 491.157079 
L 468.448183 491.44991 
L 469.574697 491.543849 
L 470.701211 491.79133 
L 471.827725 491.574298 
L 472.390983 490.800435 
L 472.95424 491.436953 
L 473.517497 491.066379 
L 474.080754 491.10849 
L 475.207268 491.560693 
L 476.333782 491.219273 
L 477.460296 491.174571 
L 478.023553 491.057309 
L 478.58681 491.10849 
L 479.150067 491.278228 
L 479.713324 491.031395 
L 480.276581 491.657224 
L 481.403096 491.592438 
L 483.092867 491.544497 
L 484.219381 491.622239 
L 484.782638 491.393546 
L 485.909152 491.468698 
L 486.472409 491.389659 
L 487.035666 491.507569 
L 488.16218 491.561989 
L 489.288694 491.450558 
L 490.415209 491.816596 
L 491.541723 491.780964 
L 492.10498 491.86065 
L 492.668237 491.543849 
L 493.794751 491.53737 
L 494.358008 491.793273 
L 496.611036 491.512104 
L 497.174293 491.611226 
L 498.300808 491.491372 
L 499.990579 491.660463 
L 500.553836 491.523117 
L 501.68035 491.557454 
L 502.243607 491.439544 
L 503.370121 491.657224 
L 504.496635 491.694799 
L 505.059892 491.558749 
L 506.749664 491.611874 
L 507.312921 491.748571 
L 508.439435 491.595677 
L 510.129206 491.695447 
L 510.692463 491.536075 
L 511.25572 491.727192 
L 511.818977 491.495907 
L 512.382234 491.566524 
L 513.508748 491.45898 
L 514.072005 491.242596 
L 514.635262 491.189472 
L 515.761777 491.565228 
L 516.888291 491.148657 
L 517.451548 490.434072 
L 518.014805 490.70358 
L 519.704576 489.448036 
L 520.83109 489.647576 
L 521.394347 489.935871 
L 522.520861 489.803709 
L 523.084118 488.560474 
L 523.647376 488.295501 
L 524.210633 489.060619 
L 524.77389 489.398799 
L 525.900404 491.517287 
L 526.463661 491.996052 
L 528.153432 492.211788 
L 528.716689 492.272038 
L 529.279946 491.412982 
L 529.843203 491.615113 
L 530.40646 491.356619 
L 530.969717 490.941991 
L 531.532974 490.187239 
L 532.096231 489.876269 
L 532.659489 489.838693 
L 533.222746 490.517646 
L 533.786003 490.440551 
L 534.34926 489.087829 
L 534.912517 489.109856 
L 535.475774 489.96956 
L 536.039031 490.347908 
L 537.165545 490.121158 
L 537.728802 490.228054 
L 538.292059 490.152255 
L 538.855316 489.93328 
L 539.418573 490.062203 
L 541.108345 489.970208 
L 542.798116 489.668955 
L 543.361373 489.914492 
L 543.92463 489.753176 
L 545.051144 489.798526 
L 546.177658 490.305149 
L 546.740915 488.286431 
L 547.304172 488.357695 
L 547.867429 488.555939 
L 548.430686 489.310043 
L 548.993943 490.327824 
L 549.557201 490.967905 
L 550.120458 490.849348 
L 550.683715 490.480718 
L 551.246972 491.291833 
L 551.810229 491.152544 
L 552.373486 490.175578 
L 553.5 489.125404 
L 554.063257 488.916795 
L 554.626514 488.960201 
L 555.189771 490.826025 
L 555.753028 491.363745 
L 556.316285 491.18105 
L 557.442799 491.191415 
L 558.569314 491.458332 
L 559.132571 491.273693 
L 559.695828 490.411397 
L 560.259085 491.499795 
L 560.822342 491.527005 
L 561.948856 491.365689 
L 563.07537 491.841862 
L 563.638627 491.509512 
L 564.201884 491.399377 
L 564.765141 491.805582 
L 565.891655 491.225752 
L 566.454913 491.399377 
L 567.01817 491.254257 
L 567.581427 491.256201 
L 568.144684 490.806589 
L 569.271198 490.545503 
L 570.397712 490.400384 
L 572.087483 490.524124 
L 572.65074 490.248138 
L 573.213997 490.197605 
L 574.340511 490.835743 
L 574.903769 490.448325 
L 575.467026 490.520885 
L 576.030283 490.314867 
L 576.59354 490.599923 
L 577.156797 490.568826 
L 577.720054 490.330415 
L 578.283311 490.550038 
L 579.409825 490.255912 
L 579.973082 490.553926 
L 581.099596 490.369287 
L 582.22611 490.607698 
L 582.789367 490.515702 
L 585.605653 490.613528 
L 586.16891 490.455452 
L 588.985195 490.590205 
L 589.548452 490.25656 
L 590.111709 490.817603 
L 590.674966 490.903768 
L 591.238223 490.623246 
L 591.80148 490.761887 
L 592.364738 490.739212 
L 592.927995 490.538377 
L 593.491252 490.514406 
L 594.054509 490.68868 
L 594.617766 490.58891 
L 595.181023 491.06314 
L 595.74428 490.610937 
L 596.307537 490.887571 
L 596.870794 490.904415 
L 597.434051 491.206316 
L 598.560565 490.769661 
L 599.123822 491.019086 
L 599.687079 490.807885 
L 600.250336 490.357625 
L 601.376851 488.117989 
L 601.940108 487.77009 
L 602.503365 487.048379 
L 603.066622 487.175143 
L 603.629879 486.91233 
L 604.193136 487.350928 
L 604.756393 487.578973 
L 605.31965 487.557594 
L 605.882907 488.206745 
L 606.446164 488.037007 
L 608.699192 489.069689 
L 609.26245 488.336316 
L 609.825707 488.666722 
L 611.515478 489.159093 
L 612.078735 489.262102 
L 612.641992 489.497273 
L 613.205249 489.456458 
L 613.768506 489.023691 
L 614.331763 489.104673 
L 614.89502 488.971215 
L 615.458277 489.351506 
L 616.584791 489.538088 
L 617.148048 488.888937 
L 617.711306 489.000368 
L 618.274563 458.586144 
L 618.83782 245.95284 
L 619.401077 316.128549 
L 620.527591 489.53744 
L 621.090848 489.847115 
L 622.217362 489.893113 
L 622.780619 343.010665 
L 623.343876 404.316584 
L 623.907133 192.431554 
L 624.47039 416.126989 
L 625.033647 460.748037 
L 625.596904 489.865903 
L 626.160162 490.200844 
L 627.286676 490.285713 
L 627.849933 490.122454 
L 628.976447 490.832503 
L 629.539704 490.814363 
L 630.102961 490.50728 
L 630.666218 490.881093 
L 631.229475 490.713946 
L 632.355989 490.669892 
L 632.919246 490.213801 
L 634.04576 490.404271 
L 635.172275 490.303206 
L 635.735532 490.31098 
L 636.862046 489.949476 
L 637.425303 489.867199 
L 637.98856 489.979278 
L 638.551817 489.934576 
L 639.115074 490.192422 
L 641.368102 490.260447 
L 641.931359 490.084878 
L 642.494616 490.159382 
L 643.057873 489.995474 
L 643.621131 490.576601 
L 644.184388 490.657582 
L 644.747645 490.236476 
L 645.310902 490.165212 
L 646.437416 490.377709 
L 647.56393 490.445734 
L 648.690444 490.575953 
L 650.380215 490.577248 
L 650.943472 490.724959 
L 651.506729 490.593445 
L 653.759758 490.794928 
L 656.012786 490.802702 
L 657.1393 490.861657 
L 657.702557 490.897937 
L 658.265814 491.057309 
L 658.829071 490.88174 
L 659.955585 490.967905 
L 660.518843 490.877205 
L 661.645357 490.96337 
L 662.208614 490.801406 
L 662.771871 490.97244 
L 663.335128 491.023621 
L 663.898385 490.926442 
L 664.461642 490.968553 
L 665.024899 490.827321 
L 666.151413 490.936808 
L 666.71467 490.769661 
L 668.967699 490.83056 
L 669.530956 491.09942 
L 670.094213 491.18105 
L 670.65747 491.043704 
L 672.347241 491.011312 
L 672.910498 490.885628 
L 674.037012 490.923851 
L 675.163526 490.686088 
L 676.853297 490.432777 
L 677.416555 490.354386 
L 677.979812 490.438607 
L 679.106326 490.048598 
L 679.669583 490.477479 
L 681.359354 490.43472 
L 681.922611 489.832215 
L 682.485868 489.584086 
L 683.049125 489.79723 
L 683.612382 489.678025 
L 684.175639 489.75512 
L 684.738896 489.501808 
L 685.302153 487.832932 
L 685.86541 486.988129 
L 686.428668 489.573072 
L 686.991925 489.19926 
L 688.118439 489.979278 
L 688.681696 489.467472 
L 689.244953 489.194077 
L 689.80821 489.113743 
L 690.371467 489.361224 
L 690.934724 489.859424 
L 692.061238 488.718551 
L 692.624495 486.188027 
L 693.187752 485.787653 
L 693.751009 486.669384 
L 694.314266 489.795287 
L 694.877524 489.878212 
L 695.440781 489.783625 
L 696.004038 488.979637 
L 696.567295 489.123461 
L 697.130552 490.122454 
L 698.257066 490.094596 
L 698.820323 490.259151 
L 699.38358 490.167156 
L 699.946837 488.881163 
L 700.510094 486.447817 
L 701.073351 486.551474 
L 702.199865 485.498709 
L 704.452894 485.444289 
L 705.016151 485.870578 
L 705.579408 486.720565 
L 706.705922 487.994896 
L 708.95895 489.139657 
L 709.522207 489.678025 
L 710.085464 489.871734 
L 710.648721 489.919027 
L 711.211978 490.103666 
L 711.775236 489.541975 
L 712.338493 489.625549 
L 712.90175 490.113384 
L 713.465007 490.074513 
L 714.028264 490.379005 
L 714.591521 490.336894 
L 715.154778 490.045359 
L 715.718035 490.475535 
L 716.844549 490.537081 
L 717.407806 490.290248 
L 718.53432 490.147072 
L 720.224092 490.553926 
L 720.787349 490.37447 
L 721.350606 490.430185 
L 722.47712 490.924499 
L 723.040377 490.994467 
L 723.603634 491.23223 
L 725.293405 491.273045 
L 726.419919 491.278876 
L 726.983176 491.369576 
L 728.672948 491.343661 
L 729.236205 491.330704 
L 729.799462 491.466754 
L 730.925976 491.451205 
L 731.489233 491.568467 
L 732.05249 491.38642 
L 732.615747 491.493316 
L 733.742261 491.361801 
L 735.432032 491.805582 
L 739.938089 491.891099 
L 740.501346 491.848989 
L 742.754374 492.102948 
L 744.444145 491.964955 
L 745.570659 492.089991 
L 746.697174 491.998643 
L 747.823688 491.918309 
L 748.950202 492.075738 
L 750.639973 492.06019 
L 751.20323 491.894339 
L 752.329744 492.016783 
L 756.272544 492.025853 
L 756.835801 492.1023 
L 757.399058 491.95135 
L 757.962315 491.918309 
L 759.652086 491.524413 
L 760.215343 491.497851 
L 762.468371 490.865544 
L 763.031629 490.504689 
L 763.594886 489.83675 
L 764.158143 490.062851 
L 766.411171 488.664131 
L 768.100942 488.347978 
L 768.664199 487.962504 
L 769.227456 487.972869 
L 769.790713 488.480788 
L 770.917227 488.321416 
L 771.480485 487.962504 
L 772.043742 489.006847 
L 772.606999 489.224526 
L 773.170256 488.877276 
L 773.733513 489.739571 
L 774.29677 489.759655 
L 774.860027 489.985756 
L 775.423284 490.03305 
L 775.986541 489.26275 
L 776.549798 487.82451 
L 777.113055 486.964158 
L 777.676312 486.949258 
L 778.802826 486.500942 
L 779.366083 486.406355 
L 779.929341 486.64023 
L 780.492598 486.340273 
L 781.055855 486.575445 
L 781.619112 486.439395 
L 782.745626 487.585452 
L 783.87214 486.532686 
L 784.435397 487.876987 
L 784.998654 490.178169 
L 785.561911 490.2747 
L 786.125168 490.83056 
L 787.251682 490.987341 
L 787.814939 490.805294 
L 788.378197 490.346612 
L 788.941454 490.323937 
L 789.504711 490.521533 
L 790.067968 490.581136 
L 791.757739 491.178458 
L 792.320996 490.897289 
L 793.44751 490.715242 
L 794.010767 490.991228 
L 794.574024 490.772253 
L 795.137281 490.397145 
L 795.700538 490.458043 
L 796.263795 490.758648 
L 796.827052 490.838982 
L 797.39031 490.629077 
L 799.080081 490.780027 
L 799.643338 490.734677 
L 800.206595 491.026212 
L 801.333109 491.105251 
L 801.896366 490.931625 
L 802.459623 491.201781 
L 803.02288 490.988637 
L 803.586137 491.210851 
L 804.149394 491.245187 
L 804.712651 490.93616 
L 805.275908 491.119503 
L 805.839166 491.961068 
L 807.528937 491.841214 
L 809.218708 492.025205 
L 810.908479 491.517935 
L 811.471736 491.653984 
L 812.034993 491.399377 
L 813.161507 491.771246 
L 813.724764 491.661111 
L 814.851279 491.737558 
L 819.920592 491.983095 
L 823.300135 492.029093 
L 830.059219 492.380878 
L 830.622476 491.836679 
L 831.185734 492.148946 
L 833.438762 492.311558 
L 834.565276 492.400314 
L 837.944818 492.347837 
L 838.508075 492.390596 
L 839.63459 492.209196 
L 840.761104 492.250011 
L 844.703903 491.550327 
L 845.26716 491.314508 
L 845.830417 491.584664 
L 846.956931 491.063788 
L 847.520188 490.717833 
L 848.083445 489.790752 
L 848.646703 489.889226 
L 849.20996 490.394553 
L 849.773217 490.355682 
L 850.899731 490.87591 
L 854.279273 490.490436 
L 854.84253 490.735973 
L 855.405787 490.483309 
L 856.532301 490.347908 
L 857.095559 489.78233 
L 857.658816 489.5193 
L 858.78533 489.564002 
L 859.911844 489.878212 
L 861.038358 489.792695 
L 861.601615 489.451276 
L 862.728129 489.287368 
L 863.291386 489.321057 
L 864.4179 489.128643 
L 866.107672 489.063858 
L 866.670929 489.361871 
L 867.234186 489.432488 
L 867.797443 489.234892 
L 868.923957 489.596395 
L 869.487214 490.015558 
L 870.613728 490.664709 
L 871.176985 490.663413 
L 871.740242 490.504041 
L 872.866756 491.132461 
L 873.430013 490.987989 
L 874.556528 490.998354 
L 875.683042 491.102011 
L 876.246299 491.138939 
L 876.809556 490.094596 
L 877.93607 490.880445 
L 878.499327 491.376054 
L 880.752355 491.418813 
L 881.315612 491.612521 
L 882.442127 491.703221 
L 884.131898 491.711643 
L 885.258412 491.643619 
L 885.821669 491.790682 
L 886.384926 491.771894 
L 886.948183 491.896282 
L 887.51144 491.813357 
L 888.637954 491.947463 
L 889.764468 491.77319 
L 890.890983 492.074442 
L 898.776581 492.369865 
L 899.339838 492.276573 
L 899.903096 492.363386 
L 901.02961 492.336824 
L 902.719381 492.32905 
L 918.490579 492.377639 
L 919.053836 492.169029 
L 921.306864 492.250011 
L 921.870121 492.072499 
L 922.433378 491.775781 
L 922.996635 491.780316 
L 923.559892 492.073147 
L 925.249664 492.210492 
L 925.812921 492.12044 
L 926.939435 492.143763 
L 928.065949 492.08416 
L 928.629206 491.986982 
L 929.192463 491.679251 
L 929.75572 491.721361 
L 930.318977 491.604747 
L 931.445491 491.164205 
L 932.008748 491.043704 
L 932.572005 490.501449 
L 933.135262 490.448973 
L 933.69852 490.657582 
L 934.261777 490.399736 
L 935.951548 488.710777 
L 937.078062 488.302628 
L 937.641319 487.783695 
L 938.204576 488.436086 
L 938.767833 488.587684 
L 939.894347 489.232948 
L 941.020861 489.788808 
L 943.27389 489.863959 
L 944.400404 490.043415 
L 944.963661 489.544567 
L 945.526918 488.697172 
L 946.090175 488.539095 
L 946.653432 488.84877 
L 947.216689 488.783336 
L 950.032974 489.868494 
L 950.596231 489.875621 
L 952.286003 490.795576 
L 953.412517 491.191415 
L 953.975774 490.077752 
L 954.539031 490.46193 
L 955.102288 491.203077 
L 956.228802 490.831856 
L 956.792059 490.914781 
L 957.355316 491.44084 
L 958.48183 491.20826 
L 959.045087 491.387716 
L 960.734859 491.446023 
L 961.861373 491.750515 
L 962.42463 491.618352 
L 963.551144 491.734318 
L 964.114401 491.527652 
L 964.677658 491.468698 
L 965.240915 491.734318 
L 967.493943 492.02391 
L 968.057201 491.963011 
L 968.620458 492.17486 
L 972 492.194944 
L 972 492.194944 
" clip-path="url(#p73c29a6f60)" style="fill: none; stroke: #a9a9a9; stroke-opacity: 0.8; stroke-width: 3; stroke-linecap: round"/>
   </g>
   <g id="line2d_13">
    <path d="M 135 488.589628 
L 135.563257 480.613231 
L 136.126514 448.95318 
L 136.689771 400.921173 
L 137.253028 359.059342 
L 137.816285 348.051629 
L 138.379542 343.509514 
L 138.942799 348.581574 
L 139.506057 339.564722 
L 140.069314 316.843133 
L 140.632571 302.674533 
L 141.195828 286.403642 
L 141.759085 269.936451 
L 142.322342 254.247334 
L 142.885599 239.723062 
L 143.448856 225.018038 
L 144.012113 210.456837 
L 144.57537 196.25131 
L 145.138627 182.08854 
L 145.701884 167.306421 
L 146.265141 146.286749 
L 146.828398 127.45359 
L 147.391655 110.255618 
L 147.954913 89.28 
L 148.51817 163.612349 
L 149.081427 187.432053 
L 149.644684 156.89927 
L 150.207941 247.328885 
L 150.771198 307.412949 
L 151.334455 349.885708 
L 151.897712 375.228519 
L 152.460969 360.943953 
L 153.024226 384.165038 
L 153.587483 390.918932 
L 154.15074 388.558146 
L 154.713997 390.598891 
L 155.277254 392.585864 
L 155.840511 394.121929 
L 156.403769 397.496609 
L 156.967026 397.727245 
L 157.530283 398.891442 
L 158.09354 397.512157 
L 158.656797 391.387979 
L 159.220054 393.669726 
L 159.783311 388.444124 
L 160.346568 387.264379 
L 160.909825 394.090184 
L 161.473082 396.106959 
L 162.036339 395.830972 
L 162.599596 393.183187 
L 163.162853 382.603058 
L 163.72611 384.935986 
L 164.289367 383.955133 
L 164.852624 372.350745 
L 165.415882 372.04107 
L 165.979139 374.753641 
L 166.542396 367.802799 
L 167.105653 335.361435 
L 167.66891 334.634541 
L 168.232167 317.859619 
L 168.795424 303.085922 
L 169.358681 298.006734 
L 169.921938 305.405244 
L 170.485195 317.844718 
L 171.048452 320.83198 
L 171.611709 319.200032 
L 172.174966 321.571831 
L 172.738223 321.245959 
L 173.30148 324.634244 
L 173.864738 325.637772 
L 174.427995 318.123944 
L 174.991252 328.4689 
" clip-path="url(#p73c29a6f60)" style="fill: none; stroke: #1f77b4; stroke-opacity: 0.9; stroke-width: 4; stroke-linecap: round"/>
   </g>
   <g id="line2d_14">
    <path d="M 175.554509 345.578764 
L 176.117766 315.855802 
L 176.681023 290.921787 
L 177.24428 289.037823 
L 177.807537 275.705604 
L 178.370794 273.091507 
L 178.934051 257.059027 
L 179.497308 242.108466 
L 180.060565 236.65417 
L 180.623822 231.367669 
L 181.187079 256.10668 
L 181.750336 297.949723 
L 182.313594 310.914608 
L 182.876851 305.622924 
L 183.440108 325.098108 
L 184.003365 229.102767 
L 184.566622 145.143932 
L 185.129879 107.210697 
L 185.693136 202.591871 
L 186.256393 473.874238 
L 186.81965 452.430868 
L 187.382907 434.618729 
L 187.946164 419.828836 
L 188.509421 406.99741 
L 189.072678 393.454638 
L 189.635935 379.655964 
L 190.199192 366.44619 
L 190.76245 349.150392 
L 191.325707 328.650948 
L 191.888964 309.694048 
L 192.452221 294.648899 
L 193.015478 282.620166 
L 193.578735 270.892038 
L 194.141992 257.764542 
L 194.705249 264.738706 
L 195.268506 151.707356 
L 195.831763 401.510721 
L 196.39502 234.262936 
L 196.958277 443.99579 
L 197.521534 383.779564 
L 198.084791 347.944085 
L 198.648048 314.059298 
L 199.211306 295.599303 
L 199.774563 420.485761 
L 200.33782 476.953495 
L 200.901077 466.156335 
L 201.464334 457.407047 
L 202.027591 448.568354 
L 202.590848 443.679636 
L 203.154105 437.100664 
L 203.717362 421.857919 
L 204.280619 410.005403 
L 204.843876 348.055516 
L 205.407133 248.019499 
L 205.97039 279.216333 
L 206.533647 347.402477 
L 207.096904 164.737674 
L 207.660162 395.676783 
L 208.223419 372.772499 
L 208.786676 372.189429 
L 209.349933 372.189429 
L 209.91319 372.189429 
L 210.476447 372.189429 
L 211.039704 372.189429 
L 211.602961 372.189429 
L 212.166218 372.189429 
L 212.729475 372.189429 
L 213.292732 372.189429 
L 213.855989 372.189429 
L 214.419246 372.189429 
L 214.982503 372.189429 
L 215.54576 372.189429 
" clip-path="url(#p73c29a6f60)" style="fill: none; stroke: #1f77b4; stroke-opacity: 0.9; stroke-width: 4; stroke-linecap: round"/>
   </g>
   <g id="line2d_15">
    <path d="M 378.327052 372.189429 
L 378.89031 372.189429 
L 379.453567 372.189429 
L 380.016824 372.189429 
L 380.580081 372.189429 
L 381.143338 372.189429 
L 381.706595 372.189429 
L 382.269852 372.189429 
L 382.833109 372.189429 
L 383.396366 372.189429 
L 383.959623 372.189429 
L 384.52288 372.189429 
L 385.086137 372.189429 
L 385.649394 372.189429 
L 386.212651 372.189429 
L 386.775908 372.189429 
L 387.339166 372.189429 
L 387.902423 372.189429 
L 388.46568 372.189429 
L 389.028937 372.189429 
L 389.592194 372.189429 
L 390.155451 372.189429 
L 390.718708 372.189429 
L 391.281965 384.12811 
L 391.845222 372.189429 
L 392.408479 359.290626 
L 392.971736 447.17093 
L 393.534993 324.789729 
L 394.09825 261.625113 
L 394.661507 372.189429 
L 395.224764 414.6434 
L 395.788022 307.79907 
L 396.351279 327.710909 
L 396.914536 339.527146 
L 397.477793 337.923056 
L 398.04105 372.189429 
L 398.604307 313.985443 
L 399.167564 380.90924 
L 399.730821 359.076186 
L 400.294078 385.977738 
L 400.857335 398.570105 
L 401.420592 484.802912 
L 401.983849 472.021533 
L 402.547106 491.768655 
L 403.110363 492.150889 
L 403.67362 492.367921 
L 404.236878 437.117184 
L 404.800135 268.270167 
L 405.363392 380.283736 
L 405.926649 372.189429 
L 406.489906 372.189429 
L 407.053163 372.189429 
L 407.61642 372.189429 
L 408.179677 372.189429 
L 408.742934 372.189429 
L 409.306191 372.189429 
L 409.869448 372.189429 
L 410.432705 372.189429 
L 410.995962 372.189429 
L 411.559219 372.189429 
L 412.122476 372.189429 
L 412.685734 372.189429 
L 413.248991 372.189429 
L 413.812248 372.189429 
L 414.375505 372.189429 
L 414.938762 372.189429 
L 415.502019 372.189429 
L 416.065276 372.189429 
L 416.628533 372.189429 
L 417.19179 372.189429 
L 417.755047 372.189429 
L 418.318304 372.189429 
" clip-path="url(#p73c29a6f60)" style="fill: none; stroke: #ff7f0e; stroke-opacity: 0.9; stroke-width: 4; stroke-linecap: round"/>
   </g>
   <g id="line2d_16">
    <path d="M 418.881561 372.189429 
L 419.444818 372.189429 
L 420.008075 372.189429 
L 420.571332 372.189429 
L 421.13459 372.189429 
L 421.697847 372.189429 
L 422.261104 372.189429 
L 422.824361 372.189429 
L 423.387618 372.189429 
L 423.950875 372.189429 
L 424.514132 372.189429 
L 425.077389 372.189429 
L 425.640646 372.189429 
L 426.203903 372.189429 
L 426.76716 372.189429 
L 427.330417 372.189429 
L 427.893674 372.189429 
L 428.456931 372.189429 
L 429.020188 372.189429 
L 429.583445 372.189429 
L 430.146703 372.189429 
L 430.70996 372.189429 
L 431.273217 372.189429 
L 431.836474 372.189429 
L 432.399731 372.189429 
L 432.962988 372.189429 
L 433.526245 372.189429 
L 434.089502 372.189429 
L 434.652759 372.189429 
L 435.216016 372.189429 
L 435.779273 372.189429 
L 436.34253 372.189429 
L 436.905787 372.189429 
L 437.469044 372.189429 
L 438.032301 372.189429 
L 438.595559 372.189429 
L 439.158816 372.189429 
L 439.722073 372.189429 
L 440.28533 372.189429 
L 440.848587 372.189429 
L 441.411844 466.489981 
L 441.975101 491.149953 
L 442.538358 491.543201 
L 443.101615 491.542553 
L 443.664872 491.409743 
L 444.228129 491.47712 
L 444.791386 491.50109 
L 445.354643 491.650097 
L 445.9179 491.528948 
L 446.481157 491.587903 
L 447.044415 491.539314 
L 447.607672 491.512752 
L 448.170929 491.569763 
L 448.734186 491.287298 
L 449.297443 490.875262 
L 449.8607 490.893402 
L 450.423957 490.80335 
L 450.987214 490.684792 
L 451.550471 490.546151 
L 452.113728 490.826025 
L 452.676985 491.056014 
L 453.240242 491.188176 
L 453.803499 491.414926 
L 454.366756 491.51923 
L 454.930013 491.696095 
L 455.493271 491.753106 
L 456.056528 491.808822 
L 456.619785 491.730431 
L 457.183042 491.865185 
L 457.746299 491.865833 
L 458.309556 491.868424 
L 458.872813 491.74598 
" clip-path="url(#p73c29a6f60)" style="fill: none; stroke: #ff7f0e; stroke-opacity: 0.9; stroke-width: 4; stroke-linecap: round"/>
   </g>
   <g id="line2d_17">
    <path d="M 581.099596 490.369287 
L 581.662853 490.522829 
L 582.22611 490.607698 
L 582.789367 490.515702 
L 583.352624 490.542264 
L 583.915882 490.63102 
L 584.479139 490.485253 
L 585.042396 490.531898 
L 585.605653 490.613528 
L 586.16891 490.455452 
L 586.732167 490.479422 
L 587.295424 490.468409 
L 587.858681 490.550038 
L 588.421938 490.50728 
L 588.985195 490.590205 
L 589.548452 490.25656 
L 590.111709 490.817603 
L 590.674966 490.903768 
L 591.238223 490.623246 
L 591.80148 490.761887 
L 592.364738 490.739212 
L 592.927995 490.538377 
L 593.491252 490.514406 
L 594.054509 490.68868 
L 594.617766 490.58891 
L 595.181023 491.06314 
L 595.74428 490.610937 
L 596.307537 490.887571 
L 596.870794 490.904415 
L 597.434051 491.206316 
L 597.997308 490.92709 
L 598.560565 490.769661 
L 599.123822 491.019086 
L 599.687079 490.807885 
L 600.250336 490.357625 
L 600.813594 489.112447 
L 601.376851 488.117989 
L 601.940108 487.77009 
L 602.503365 487.048379 
L 603.066622 487.175143 
L 603.629879 486.91233 
L 604.193136 487.350928 
L 604.756393 487.578973 
L 605.31965 487.557594 
L 605.882907 488.206745 
L 606.446164 488.037007 
L 607.009421 488.278009 
L 607.572678 488.49828 
L 608.135935 488.845531 
L 608.699192 489.069689 
L 609.26245 488.336316 
L 609.825707 488.666722 
L 610.388964 488.868206 
L 610.952221 489.006199 
L 611.515478 489.159093 
L 612.078735 489.262102 
L 612.641992 489.497273 
L 613.205249 489.456458 
L 613.768506 489.023691 
L 614.331763 489.104673 
L 614.89502 488.971215 
L 615.458277 489.351506 
L 616.021534 489.459698 
L 616.584791 489.538088 
L 617.148048 488.888937 
L 617.711306 489.000368 
L 618.274563 458.586144 
L 618.83782 245.95284 
L 619.401077 316.128549 
L 619.964334 401.236679 
L 620.527591 489.53744 
L 621.090848 489.847115 
" clip-path="url(#p73c29a6f60)" style="fill: none; stroke: #ff7f0e; stroke-opacity: 0.9; stroke-width: 4; stroke-linecap: round"/>
   </g>
   <g id="line2d_18">
    <path d="M 621.654105 489.908662 
L 622.217362 489.893113 
L 622.780619 343.010665 
L 623.343876 404.316584 
L 623.907133 192.431554 
L 624.47039 416.126989 
L 625.033647 460.748037 
L 625.596904 489.865903 
L 626.160162 490.200844 
L 626.723419 490.285713 
L 627.286676 490.285713 
L 627.849933 490.122454 
L 628.41319 490.542912 
L 628.976447 490.832503 
L 629.539704 490.814363 
L 630.102961 490.50728 
L 630.666218 490.881093 
L 631.229475 490.713946 
L 631.792732 490.705524 
L 632.355989 490.669892 
L 632.919246 490.213801 
L 633.482503 490.288305 
L 634.04576 490.404271 
L 634.609017 490.313571 
L 635.172275 490.303206 
L 635.735532 490.31098 
L 636.298789 490.112088 
L 636.862046 489.949476 
L 637.425303 489.867199 
L 637.98856 489.979278 
L 638.551817 489.934576 
L 639.115074 490.192422 
L 639.678331 490.218336 
L 640.241588 490.181409 
L 640.804845 490.23842 
L 641.368102 490.260447 
L 641.931359 490.084878 
L 642.494616 490.159382 
L 643.057873 489.995474 
L 643.621131 490.576601 
L 644.184388 490.657582 
L 644.747645 490.236476 
L 645.310902 490.165212 
L 645.874159 490.295431 
L 646.437416 490.377709 
L 647.000673 490.375117 
L 647.56393 490.445734 
L 648.127187 490.530603 
L 648.690444 490.575953 
L 649.253701 490.566883 
L 649.816958 490.596036 
L 650.380215 490.577248 
L 650.943472 490.724959 
L 651.506729 490.593445 
L 652.069987 490.664709 
L 652.633244 490.693862 
L 653.196501 490.764479 
L 653.759758 490.794928 
L 654.323015 490.782619 
L 654.886272 490.718481 
L 655.449529 490.740508 
L 656.012786 490.802702 
L 656.576043 490.883684 
L 657.1393 490.861657 
L 657.702557 490.897937 
L 658.265814 491.057309 
L 658.829071 490.88174 
L 659.392328 490.947174 
L 659.955585 490.967905 
L 660.518843 490.877205 
L 661.0821 490.907007 
L 661.645357 490.96337 
" clip-path="url(#p73c29a6f60)" style="fill: none; stroke: #ff7f0e; stroke-opacity: 0.9; stroke-width: 4; stroke-linecap: round"/>
   </g>
   <g id="line2d_19">
    <path d="M 662.208614 490.801406 
L 662.771871 490.97244 
L 663.335128 491.023621 
L 663.898385 490.926442 
L 664.461642 490.968553 
L 665.024899 490.827321 
L 665.588156 490.87267 
L 666.151413 490.936808 
L 666.71467 490.769661 
L 667.277927 490.792984 
L 667.841184 490.825377 
L 668.404441 490.809829 
L 668.967699 490.83056 
L 669.530956 491.09942 
L 670.094213 491.18105 
L 670.65747 491.043704 
L 671.220727 491.043056 
L 671.783984 490.999002 
L 672.347241 491.011312 
L 672.910498 490.885628 
L 673.473755 490.925147 
L 674.037012 490.923851 
L 674.600269 490.855826 
L 675.163526 490.686088 
L 675.726783 490.574657 
L 676.29004 490.562996 
L 676.853297 490.432777 
L 677.416555 490.354386 
L 677.979812 490.438607 
L 678.543069 490.259151 
L 679.106326 490.048598 
L 679.669583 490.477479 
L 680.23284 490.469704 
L 680.796097 490.553926 
L 681.359354 490.43472 
L 681.922611 489.832215 
L 682.485868 489.584086 
L 683.049125 489.79723 
L 683.612382 489.678025 
L 684.175639 489.75512 
L 684.738896 489.501808 
L 685.302153 487.832932 
L 685.86541 486.988129 
L 686.428668 489.573072 
L 686.991925 489.19926 
L 687.555182 489.53744 
L 688.118439 489.979278 
L 688.681696 489.467472 
L 689.244953 489.194077 
L 689.80821 489.113743 
L 690.371467 489.361224 
L 690.934724 489.859424 
L 691.497981 489.234892 
L 692.061238 488.718551 
L 692.624495 486.188027 
L 693.187752 485.787653 
L 693.751009 486.669384 
L 694.314266 489.795287 
L 694.877524 489.878212 
L 695.440781 489.783625 
L 696.004038 488.979637 
L 696.567295 489.123461 
L 697.130552 490.122454 
L 697.693809 490.126989 
L 698.257066 490.094596 
L 698.820323 490.259151 
L 699.38358 490.167156 
L 699.946837 488.881163 
L 700.510094 486.447817 
L 701.073351 486.551474 
L 701.636608 486.009867 
L 702.199865 485.498709 
" clip-path="url(#p73c29a6f60)" style="fill: none; stroke: #2ca02c; stroke-opacity: 0.9; stroke-width: 4; stroke-linecap: round"/>
   </g>
   <g id="line2d_20">
    <path d="M 702.763122 485.459838 
L 703.32638 485.472147 
L 703.889637 485.372377 
L 704.452894 485.444289 
L 705.016151 485.870578 
L 705.579408 486.720565 
L 706.142665 487.340562 
L 706.705922 487.994896 
L 707.269179 488.302628 
L 707.832436 488.49828 
L 708.395693 489.004903 
L 708.95895 489.139657 
L 709.522207 489.678025 
L 710.085464 489.871734 
L 710.648721 489.919027 
L 711.211978 490.103666 
L 711.775236 489.541975 
L 712.338493 489.625549 
L 712.90175 490.113384 
L 713.465007 490.074513 
L 714.028264 490.379005 
L 714.591521 490.336894 
L 715.154778 490.045359 
L 715.718035 490.475535 
L 716.281292 490.48007 
L 716.844549 490.537081 
L 717.407806 490.290248 
L 717.971063 490.233885 
L 718.53432 490.147072 
L 719.097577 490.288305 
L 719.660834 490.515054 
L 720.224092 490.553926 
L 720.787349 490.37447 
L 721.350606 490.430185 
L 721.913863 490.665357 
L 722.47712 490.924499 
L 723.040377 490.994467 
L 723.603634 491.23223 
L 724.166891 491.276932 
L 724.730148 491.330704 
L 725.293405 491.273045 
L 725.856662 491.258145 
L 726.419919 491.278876 
L 726.983176 491.369576 
L 727.546433 491.325521 
L 728.10969 491.354675 
L 728.672948 491.343661 
L 729.236205 491.330704 
L 729.799462 491.466754 
L 730.362719 491.448614 
L 730.925976 491.451205 
L 731.489233 491.568467 
L 732.05249 491.38642 
L 732.615747 491.493316 
L 733.179004 491.416221 
L 733.742261 491.361801 
L 734.305518 491.518582 
L 734.868775 491.718122 
L 735.432032 491.805582 
L 735.995289 491.826962 
L 736.558546 491.895634 
L 737.121803 491.868424 
L 737.685061 491.865833 
L 738.248318 491.869072 
L 738.811575 491.875551 
L 739.374832 491.931266 
L 739.938089 491.891099 
L 740.501346 491.848989 
L 741.064603 491.931914 
L 741.62786 491.937097 
L 742.191117 492.070555 
L 742.754374 492.102948 
" clip-path="url(#p73c29a6f60)" style="fill: none; stroke: #2ca02c; stroke-opacity: 0.9; stroke-width: 4; stroke-linecap: round"/>
   </g>
   <g id="line2d_21">
    <path d="M 743.317631 492.047233 
L 743.880888 491.977912 
L 744.444145 491.964955 
L 745.007402 492.035571 
L 745.570659 492.089991 
L 746.133917 492.012248 
L 746.697174 491.998643 
L 747.260431 491.970138 
L 747.823688 491.918309 
L 748.386945 492.051768 
L 748.950202 492.075738 
L 749.513459 492.06602 
L 750.076716 492.064077 
L 750.639973 492.06019 
L 751.20323 491.894339 
L 751.766487 491.994756 
L 752.329744 492.016783 
L 752.893001 492.003826 
L 753.456258 492.024558 
L 754.019515 491.992165 
L 754.582773 492.043345 
L 755.14603 492.053063 
L 755.709287 491.974025 
L 756.272544 492.025853 
L 756.835801 492.1023 
L 757.399058 491.95135 
L 757.962315 491.918309 
L 758.525572 491.75181 
L 759.088829 491.59179 
L 759.652086 491.524413 
L 760.215343 491.497851 
L 760.7786 491.357914 
L 761.341857 491.266567 
L 761.905114 491.005481 
L 762.468371 490.865544 
L 763.031629 490.504689 
L 763.594886 489.83675 
L 764.158143 490.062851 
L 764.7214 489.711066 
L 765.284657 489.357336 
L 765.847914 489.122165 
L 766.411171 488.664131 
L 766.974428 488.581206 
L 767.537685 488.546221 
L 768.100942 488.347978 
L 768.664199 487.962504 
L 769.227456 487.972869 
L 769.790713 488.480788 
L 770.35397 488.381018 
L 770.917227 488.321416 
L 771.480485 487.962504 
L 772.043742 489.006847 
L 772.606999 489.224526 
L 773.170256 488.877276 
L 773.733513 489.739571 
L 774.29677 489.759655 
L 774.860027 489.985756 
L 775.423284 490.03305 
L 775.986541 489.26275 
L 776.549798 487.82451 
L 777.113055 486.964158 
L 777.676312 486.949258 
L 778.239569 486.705016 
L 778.802826 486.500942 
L 779.366083 486.406355 
L 779.929341 486.64023 
L 780.492598 486.340273 
L 781.055855 486.575445 
L 781.619112 486.439395 
L 782.182369 486.96675 
L 782.745626 487.585452 
L 783.308883 487.065872 
" clip-path="url(#p73c29a6f60)" style="fill: none; stroke: #2ca02c; stroke-opacity: 0.9; stroke-width: 4; stroke-linecap: round"/>
   </g>
   <g id="line2d_22">
    <path d="M 824.426649 492.041402 
L 824.989906 492.079625 
L 825.553163 492.073795 
L 826.11642 492.130806 
L 826.679677 492.155424 
L 827.242934 492.121736 
L 827.806191 492.112666 
L 828.369448 492.257786 
L 828.932705 492.243533 
L 829.495962 492.354316 
L 830.059219 492.380878 
L 830.622476 491.836679 
L 831.185734 492.148946 
L 831.748991 492.168382 
L 832.312248 492.178747 
L 832.875505 492.306375 
L 833.438762 492.311558 
L 834.002019 492.403553 
L 834.565276 492.400314 
L 835.128533 492.375047 
L 835.69179 492.419102 
L 836.255047 492.386061 
L 836.818304 492.382174 
L 837.381561 492.340063 
L 837.944818 492.347837 
L 838.508075 492.390596 
L 839.071332 492.248068 
L 839.63459 492.209196 
L 840.197847 492.263616 
L 840.761104 492.250011 
L 841.324361 492.152185 
L 841.887618 492.099061 
L 842.450875 491.968194 
L 843.014132 491.894339 
L 843.577389 491.75181 
L 844.140646 491.607986 
L 844.703903 491.550327 
L 845.26716 491.314508 
L 845.830417 491.584664 
L 846.393674 491.380589 
L 846.956931 491.063788 
L 847.520188 490.717833 
L 848.083445 489.790752 
L 848.646703 489.889226 
L 849.20996 490.394553 
L 849.773217 490.355682 
L 850.336474 490.624542 
L 850.899731 490.87591 
L 851.462988 490.82149 
L 852.026245 490.863601 
L 852.589502 490.754761 
L 853.152759 490.633612 
L 853.716016 490.562348 
L 854.279273 490.490436 
L 854.84253 490.735973 
L 855.405787 490.483309 
L 855.969044 490.460634 
L 856.532301 490.347908 
L 857.095559 489.78233 
L 857.658816 489.5193 
L 858.222073 489.497273 
L 858.78533 489.564002 
L 859.348587 489.771316 
L 859.911844 489.878212 
L 860.475101 489.784273 
L 861.038358 489.792695 
L 861.601615 489.451276 
L 862.164872 489.348914 
L 862.728129 489.287368 
L 863.291386 489.321057 
L 863.854643 489.170106 
L 864.4179 489.128643 
" clip-path="url(#p73c29a6f60)" style="fill: none; stroke: #d62728; stroke-opacity: 0.9; stroke-width: 4; stroke-linecap: round"/>
   </g>
   <g id="line2d_23">
    <path d="M 864.981157 489.095603 
L 865.544415 489.137713 
L 866.107672 489.063858 
L 866.670929 489.361871 
L 867.234186 489.432488 
L 867.797443 489.234892 
L 868.3607 489.403982 
L 868.923957 489.596395 
L 869.487214 490.015558 
L 870.050471 490.286361 
L 870.613728 490.664709 
L 871.176985 490.663413 
L 871.740242 490.504041 
L 872.303499 490.772253 
L 872.866756 491.132461 
L 873.430013 490.987989 
L 873.993271 490.973088 
L 874.556528 490.998354 
L 875.119785 491.098124 
L 875.683042 491.102011 
L 876.246299 491.138939 
L 876.809556 490.094596 
L 877.372813 490.445086 
L 877.93607 490.880445 
L 878.499327 491.376054 
L 879.062584 491.363745 
L 879.625841 491.302199 
L 880.189098 491.44667 
L 880.752355 491.418813 
L 881.315612 491.612521 
L 881.878869 491.685729 
L 882.442127 491.703221 
L 883.005384 491.670181 
L 883.568641 491.66435 
L 884.131898 491.711643 
L 884.695155 491.698686 
L 885.258412 491.643619 
L 885.821669 491.790682 
L 886.384926 491.771894 
L 886.948183 491.896282 
L 887.51144 491.813357 
L 888.074697 491.907944 
L 888.637954 491.947463 
L 889.201211 491.891747 
L 889.764468 491.77319 
L 890.327725 491.967546 
L 890.890983 492.074442 
L 891.45424 492.099709 
L 892.017497 492.161255 
L 892.580754 492.150889 
L 893.144011 492.208549 
L 893.707268 492.248716 
L 894.270525 492.255194 
L 894.833782 492.253251 
L 895.397039 492.215675 
L 895.960296 492.27463 
L 896.523553 492.284995 
L 897.08681 492.295361 
L 897.650067 492.272686 
L 898.213324 492.35302 
L 898.776581 492.369865 
L 899.339838 492.276573 
L 899.903096 492.363386 
L 900.466353 492.296657 
L 901.02961 492.336824 
L 901.592867 492.369865 
L 902.156124 492.35302 
L 902.719381 492.32905 
L 903.282638 492.334233 
L 903.845895 492.32905 
L 904.409152 492.354964 
L 904.972409 492.415862 
" clip-path="url(#p73c29a6f60)" style="fill: none; stroke: #d62728; stroke-opacity: 0.9; stroke-width: 4; stroke-linecap: round"/>
   </g>
   <g id="line2d_24">
    <path d="M 499.990579 491.660463 
L 500.553836 491.523117 
L 501.117093 491.53737 
L 501.68035 491.557454 
L 502.243607 491.439544 
L 502.806864 491.585312 
L 503.370121 491.657224 
L 503.933378 491.664998 
L 504.496635 491.694799 
L 505.059892 491.558749 
L 505.623149 491.543849 
L 506.186406 491.624183 
L 506.749664 491.611874 
L 507.312921 491.748571 
L 507.876178 491.636492 
L 508.439435 491.595677 
L 509.002692 491.657224 
L 509.565949 491.648154 
L 510.129206 491.695447 
L 510.692463 491.536075 
L 511.25572 491.727192 
L 511.818977 491.495907 
L 512.382234 491.566524 
L 512.945491 491.500442 
L 513.508748 491.45898 
L 514.072005 491.242596 
L 514.635262 491.189472 
L 515.19852 491.414278 
L 515.761777 491.565228 
L 516.325034 491.35014 
L 516.888291 491.148657 
L 517.451548 490.434072 
L 518.014805 490.70358 
L 518.578062 490.279235 
L 519.141319 489.841932 
L 519.704576 489.448036 
L 520.267833 489.505695 
L 520.83109 489.647576 
L 521.394347 489.935871 
L 521.957604 489.821849 
L 522.520861 489.803709 
L 523.084118 488.560474 
L 523.647376 488.295501 
L 524.210633 489.060619 
L 524.77389 489.398799 
L 525.337147 490.387427 
L 525.900404 491.517287 
L 526.463661 491.996052 
L 527.026918 492.103596 
L 527.590175 492.159312 
L 528.153432 492.211788 
L 528.716689 492.272038 
L 529.279946 491.412982 
L 529.843203 491.615113 
L 530.40646 491.356619 
L 530.969717 490.941991 
L 531.532974 490.187239 
L 532.096231 489.876269 
L 532.659489 489.838693 
L 533.222746 490.517646 
L 533.786003 490.440551 
L 534.34926 489.087829 
L 534.912517 489.109856 
L 535.475774 489.96956 
L 536.039031 490.347908 
L 536.602288 490.260447 
L 537.165545 490.121158 
L 537.728802 490.228054 
L 538.292059 490.152255 
L 538.855316 489.93328 
L 539.418573 490.062203 
L 539.98183 490.05119 
" clip-path="url(#p73c29a6f60)" style="fill: none; stroke: #9467bd; stroke-opacity: 0.9; stroke-width: 4; stroke-linecap: round"/>
   </g>
   <g id="line2d_25">
    <path d="M 540.545087 490.048598 
L 541.108345 489.970208 
L 541.671602 489.891169 
L 542.234859 489.867199 
L 542.798116 489.668955 
L 543.361373 489.914492 
L 543.92463 489.753176 
L 544.487887 489.749937 
L 545.051144 489.798526 
L 545.614401 490.065443 
L 546.177658 490.305149 
L 546.740915 488.286431 
L 547.304172 488.357695 
L 547.867429 488.555939 
L 548.430686 489.310043 
L 548.993943 490.327824 
L 549.557201 490.967905 
L 550.120458 490.849348 
L 550.683715 490.480718 
L 551.246972 491.291833 
L 551.810229 491.152544 
L 552.373486 490.175578 
L 552.936743 489.66442 
L 553.5 489.125404 
L 554.063257 488.916795 
L 554.626514 488.960201 
L 555.189771 490.826025 
L 555.753028 491.363745 
L 556.316285 491.18105 
L 556.879542 491.19919 
L 557.442799 491.191415 
L 558.006057 491.382533 
L 558.569314 491.458332 
L 559.132571 491.273693 
L 559.695828 490.411397 
L 560.259085 491.499795 
L 560.822342 491.527005 
L 561.385599 491.392898 
L 561.948856 491.365689 
L 562.512113 491.629366 
L 563.07537 491.841862 
L 563.638627 491.509512 
L 564.201884 491.399377 
L 564.765141 491.805582 
L 565.328398 491.504977 
L 565.891655 491.225752 
L 566.454913 491.399377 
L 567.01817 491.254257 
L 567.581427 491.256201 
L 568.144684 490.806589 
L 568.707941 490.638147 
L 569.271198 490.545503 
L 569.834455 490.478126 
L 570.397712 490.400384 
L 570.960969 490.465169 
L 571.524226 490.614176 
L 572.087483 490.524124 
L 572.65074 490.248138 
L 573.213997 490.197605 
L 573.777254 490.542912 
L 574.340511 490.835743 
L 574.903769 490.448325 
L 575.467026 490.520885 
L 576.030283 490.314867 
L 576.59354 490.599923 
L 577.156797 490.568826 
L 577.720054 490.330415 
L 578.283311 490.550038 
L 578.846568 490.356978 
L 579.409825 490.255912 
L 579.973082 490.553926 
L 580.536339 490.458691 
" clip-path="url(#p73c29a6f60)" style="fill: none; stroke: #9467bd; stroke-opacity: 0.9; stroke-width: 4; stroke-linecap: round"/>
   </g>
   <g id="line2d_26">
    <path d="M 946.090175 488.539095 
L 946.653432 488.84877 
L 947.216689 488.783336 
L 947.779946 489.00296 
L 948.343203 489.1267 
L 948.90646 489.53161 
L 949.469717 489.760303 
L 950.032974 489.868494 
L 950.596231 489.875621 
L 951.159489 490.213154 
L 951.722746 490.550686 
L 952.286003 490.795576 
L 952.84926 490.965314 
L 953.412517 491.191415 
L 953.975774 490.077752 
L 954.539031 490.46193 
L 955.102288 491.203077 
L 955.665545 491.046944 
L 956.228802 490.831856 
L 956.792059 490.914781 
L 957.355316 491.44084 
L 957.918573 491.346253 
L 958.48183 491.20826 
L 959.045087 491.387716 
L 959.608345 491.379293 
L 960.171602 491.308029 
L 960.734859 491.446023 
L 961.298116 491.569763 
L 961.861373 491.750515 
L 962.42463 491.618352 
L 962.987887 491.655928 
L 963.551144 491.734318 
L 964.114401 491.527652 
L 964.677658 491.468698 
L 965.240915 491.734318 
L 965.804172 491.810765 
L 966.367429 491.848341 
L 966.930686 491.873607 
L 967.493943 492.02391 
L 968.057201 491.963011 
L 968.620458 492.17486 
L 969.183715 492.164494 
L 969.746972 492.174212 
L 970.310229 492.227336 
L 970.873486 492.158664 
L 971.436743 492.189113 
L 972 492.194944 
" clip-path="url(#p73c29a6f60)" style="fill: none; stroke: #9467bd; stroke-opacity: 0.9; stroke-width: 4; stroke-linecap: round"/>
   </g>
   <g id="line2d_27">
    <path d="M 135 512.64 
L 135 69.12 
" clip-path="url(#p73c29a6f60)" style="fill: none; stroke-dasharray: 5.55,2.4; stroke-dashoffset: 0; stroke: #000000; stroke-opacity: 0.7; stroke-width: 1.5"/>
   </g>
   <g id="line2d_28">
    <path d="M 175.554509 512.64 
L 175.554509 69.12 
" clip-path="url(#p73c29a6f60)" style="fill: none; stroke-dasharray: 5.55,2.4; stroke-dashoffset: 0; stroke: #000000; stroke-opacity: 0.7; stroke-width: 1.5"/>
   </g>
   <g id="line2d_29">
    <path d="M 216.109017 512.64 
L 216.109017 69.12 
" clip-path="url(#p73c29a6f60)" style="fill: none; stroke-dasharray: 5.55,2.4; stroke-dashoffset: 0; stroke: #000000; stroke-opacity: 0.7; stroke-width: 1.5"/>
   </g>
   <g id="line2d_30">
    <path d="M 256.663526 512.64 
L 256.663526 69.12 
" clip-path="url(#p73c29a6f60)" style="fill: none; stroke-dasharray: 5.55,2.4; stroke-dashoffset: 0; stroke: #000000; stroke-opacity: 0.7; stroke-width: 1.5"/>
   </g>
   <g id="line2d_31">
    <path d="M 297.218035 512.64 
L 297.218035 69.12 
" clip-path="url(#p73c29a6f60)" style="fill: none; stroke-dasharray: 5.55,2.4; stroke-dashoffset: 0; stroke: #000000; stroke-opacity: 0.7; stroke-width: 1.5"/>
   </g>
   <g id="line2d_32">
    <path d="M 337.772544 512.64 
L 337.772544 69.12 
" clip-path="url(#p73c29a6f60)" style="fill: none; stroke-dasharray: 5.55,2.4; stroke-dashoffset: 0; stroke: #000000; stroke-opacity: 0.7; stroke-width: 1.5"/>
   </g>
   <g id="line2d_33">
    <path d="M 378.327052 512.64 
L 378.327052 69.12 
" clip-path="url(#p73c29a6f60)" style="fill: none; stroke-dasharray: 5.55,2.4; stroke-dashoffset: 0; stroke: #000000; stroke-opacity: 0.7; stroke-width: 1.5"/>
   </g>
   <g id="line2d_34">
    <path d="M 418.881561 512.64 
L 418.881561 69.12 
" clip-path="url(#p73c29a6f60)" style="fill: none; stroke-dasharray: 5.55,2.4; stroke-dashoffset: 0; stroke: #000000; stroke-opacity: 0.7; stroke-width: 1.5"/>
   </g>
   <g id="line2d_35">
    <path d="M 459.43607 512.64 
L 459.43607 69.12 
" clip-path="url(#p73c29a6f60)" style="fill: none; stroke-dasharray: 5.55,2.4; stroke-dashoffset: 0; stroke: #000000; stroke-opacity: 0.7; stroke-width: 1.5"/>
   </g>
   <g id="line2d_36">
    <path d="M 499.990579 512.64 
L 499.990579 69.12 
" clip-path="url(#p73c29a6f60)" style="fill: none; stroke-dasharray: 5.55,2.4; stroke-dashoffset: 0; stroke: #000000; stroke-opacity: 0.7; stroke-width: 1.5"/>
   </g>
   <g id="line2d_37">
    <path d="M 540.545087 512.64 
L 540.545087 69.12 
" clip-path="url(#p73c29a6f60)" style="fill: none; stroke-dasharray: 5.55,2.4; stroke-dashoffset: 0; stroke: #000000; stroke-opacity: 0.7; stroke-width: 1.5"/>
   </g>
   <g id="line2d_38">
    <path d="M 581.099596 512.64 
L 581.099596 69.12 
" clip-path="url(#p73c29a6f60)" style="fill: none; stroke-dasharray: 5.55,2.4; stroke-dashoffset: 0; stroke: #000000; stroke-opacity: 0.7; stroke-width: 1.5"/>
   </g>
   <g id="line2d_39">
    <path d="M 621.654105 512.64 
L 621.654105 69.12 
" clip-path="url(#p73c29a6f60)" style="fill: none; stroke-dasharray: 5.55,2.4; stroke-dashoffset: 0; stroke: #000000; stroke-opacity: 0.7; stroke-width: 1.5"/>
   </g>
   <g id="line2d_40">
    <path d="M 662.208614 512.64 
L 662.208614 69.12 
" clip-path="url(#p73c29a6f60)" style="fill: none; stroke-dasharray: 5.55,2.4; stroke-dashoffset: 0; stroke: #000000; stroke-opacity: 0.7; stroke-width: 1.5"/>
   </g>
   <g id="line2d_41">
    <path d="M 702.763122 512.64 
L 702.763122 69.12 
" clip-path="url(#p73c29a6f60)" style="fill: none; stroke-dasharray: 5.55,2.4; stroke-dashoffset: 0; stroke: #000000; stroke-opacity: 0.7; stroke-width: 1.5"/>
   </g>
   <g id="line2d_42">
    <path d="M 743.317631 512.64 
L 743.317631 69.12 
" clip-path="url(#p73c29a6f60)" style="fill: none; stroke-dasharray: 5.55,2.4; stroke-dashoffset: 0; stroke: #000000; stroke-opacity: 0.7; stroke-width: 1.5"/>
   </g>
   <g id="line2d_43">
    <path d="M 783.87214 512.64 
L 783.87214 69.12 
" clip-path="url(#p73c29a6f60)" style="fill: none; stroke-dasharray: 5.55,2.4; stroke-dashoffset: 0; stroke: #000000; stroke-opacity: 0.7; stroke-width: 1.5"/>
   </g>
   <g id="line2d_44">
    <path d="M 824.426649 512.64 
L 824.426649 69.12 
" clip-path="url(#p73c29a6f60)" style="fill: none; stroke-dasharray: 5.55,2.4; stroke-dashoffset: 0; stroke: #000000; stroke-opacity: 0.7; stroke-width: 1.5"/>
   </g>
   <g id="line2d_45">
    <path d="M 864.981157 512.64 
L 864.981157 69.12 
" clip-path="url(#p73c29a6f60)" style="fill: none; stroke-dasharray: 5.55,2.4; stroke-dashoffset: 0; stroke: #000000; stroke-opacity: 0.7; stroke-width: 1.5"/>
   </g>
   <g id="line2d_46">
    <path d="M 905.535666 512.64 
L 905.535666 69.12 
" clip-path="url(#p73c29a6f60)" style="fill: none; stroke-dasharray: 5.55,2.4; stroke-dashoffset: 0; stroke: #000000; stroke-opacity: 0.7; stroke-width: 1.5"/>
   </g>
   <g id="line2d_47">
    <path d="M 946.090175 512.64 
L 946.090175 69.12 
" clip-path="url(#p73c29a6f60)" style="fill: none; stroke-dasharray: 5.55,2.4; stroke-dashoffset: 0; stroke: #000000; stroke-opacity: 0.7; stroke-width: 1.5"/>
   </g>
   <g id="patch_3">
    <path d="M 135 512.64 
L 135 69.12 
" style="fill: none; stroke: #262626; stroke-width: 1.25; stroke-linejoin: miter; stroke-linecap: square"/>
   </g>
   <g id="patch_4">
    <path d="M 972 512.64 
L 972 69.12 
" style="fill: none; stroke: #262626; stroke-width: 1.25; stroke-linejoin: miter; stroke-linecap: square"/>
   </g>
   <g id="patch_5">
    <path d="M 135 512.64 
L 972 512.64 
" style="fill: none; stroke: #262626; stroke-width: 1.25; stroke-linejoin: miter; stroke-linecap: square"/>
   </g>
   <g id="patch_6">
    <path d="M 135 69.12 
L 972 69.12 
" style="fill: none; stroke: #262626; stroke-width: 1.25; stroke-linejoin: miter; stroke-linecap: square"/>
   </g>
   <g id="text_21">
    <!-- 이산화탄소 유사 패턴 군집화 결과 (동일 색상은 같은 군집) -->
    <g style="fill: #262626" transform="translate(315.703125 63.12) scale(0.18 -0.18)">
     <defs>
      <path id="MalgunGothic-c720" d="M 3200 2784 
Q 2278 2784 1768 3131 
Q 1259 3478 1259 4078 
Q 1259 4669 1775 5025 
Q 2291 5381 3200 5381 
Q 4128 5381 4640 5025 
Q 5153 4669 5153 4078 
Q 5153 3484 4640 3134 
Q 4128 2784 3200 2784 
z
M 3200 4978 
Q 2513 4978 2130 4736 
Q 1747 4494 1747 4078 
Q 1747 3669 2130 3425 
Q 2513 3181 3200 3181 
Q 3888 3181 4270 3425 
Q 4653 3669 4653 4078 
Q 4653 4494 4270 4736 
Q 3888 4978 3200 4978 
z
M 1913 -556 
L 1913 1672 
L 403 1672 
L 403 2094 
L 5997 2094 
L 5997 1672 
L 4488 1672 
L 4488 -556 
L 4019 -556 
L 4019 1672 
L 2381 1672 
L 2381 -556 
L 1913 -556 
z
" transform="scale(0.015625)"/>
      <path id="MalgunGothic-c0ac" d="M 5094 2600 
L 5094 -563 
L 4628 -563 
L 4628 5466 
L 5094 5466 
L 5094 3016 
L 6138 3016 
L 6138 2600 
L 5094 2600 
z
M 3744 966 
Q 3234 1356 2800 1936 
Q 2366 2516 2234 2950 
Q 2094 2472 1672 1883 
Q 1250 1294 738 891 
L 378 1203 
Q 1116 1703 1556 2479 
Q 1997 3256 1997 4063 
L 1997 5050 
L 2463 5050 
L 2463 4084 
Q 2463 3297 2898 2553 
Q 3334 1809 4072 1331 
L 3744 966 
z
" transform="scale(0.015625)"/>
      <path id="MalgunGothic-d328" d="M 5069 -563 
L 5069 2491 
L 4347 2491 
L 4347 -378 
L 3884 -378 
L 3884 5344 
L 4347 5344 
L 4347 2913 
L 5069 2913 
L 5069 5466 
L 5538 5466 
L 5538 -563 
L 5069 -563 
z
M 538 4513 
L 538 4928 
L 3384 4928 
L 3384 4513 
L 538 4513 
z
M 3591 1125 
Q 3278 1063 2663 1063 
L 366 1063 
L 366 1478 
L 1113 1478 
L 1031 4091 
L 1497 4091 
L 1550 1478 
L 2375 1478 
L 2425 4091 
L 2894 4091 
L 2809 1478 
Q 3369 1478 3553 1522 
L 3591 1125 
z
" transform="scale(0.015625)"/>
      <path id="MalgunGothic-d134" d="M 4947 1147 
L 4947 3378 
L 3884 3378 
L 3884 3794 
L 4947 3794 
L 4947 5466 
L 5416 5466 
L 5416 1147 
L 4947 1147 
z
M 1569 3456 
L 1569 2541 
Q 3544 2541 4172 2600 
L 4206 2194 
Q 3428 2131 1100 2131 
L 1100 5125 
L 3963 5125 
L 3963 4709 
L 1569 4709 
L 1569 3859 
L 3406 3859 
L 3406 3456 
L 1569 3456 
z
M 1734 -378 
L 1734 1503 
L 2203 1503 
L 2203 38 
L 5569 38 
L 5569 -378 
L 1734 -378 
z
" transform="scale(0.015625)"/>
      <path id="MalgunGothic-ad70" d="M 3003 703 
L 3003 2497 
L 403 2497 
L 403 2919 
L 4581 2919 
Q 4634 3438 4634 4788 
L 1338 4788 
L 1338 5203 
L 5100 5203 
Q 5100 3819 5038 2919 
L 5997 2919 
L 5997 2497 
L 3469 2497 
L 3469 703 
L 3003 703 
z
M 1338 -300 
L 1338 1638 
L 1806 1638 
L 1806 122 
L 5216 122 
L 5216 -300 
L 1338 -300 
z
" transform="scale(0.015625)"/>
      <path id="MalgunGothic-c9d1" d="M 4941 2328 
L 4941 5466 
L 5409 5466 
L 5409 2328 
L 4941 2328 
z
M 3872 2388 
Q 3469 2600 3037 2997 
Q 2606 3394 2438 3750 
Q 2269 3366 1859 2936 
Q 1450 2506 978 2234 
L 641 2547 
Q 1316 2875 1759 3462 
Q 2203 4050 2203 4678 
L 2203 4781 
L 838 4781 
L 838 5197 
L 4006 5197 
L 4006 4781 
L 2656 4781 
L 2656 4678 
Q 2656 4081 3120 3523 
Q 3584 2966 4184 2719 
L 3872 2388 
z
M 1672 -397 
L 1672 2003 
L 2131 2003 
L 2131 1172 
L 4947 1172 
L 4947 2003 
L 5409 2003 
L 5409 -397 
L 1672 -397 
z
M 4947 756 
L 2131 756 
L 2131 13 
L 4947 13 
L 4947 756 
z
" transform="scale(0.015625)"/>
      <path id="MalgunGothic-acb0" d="M 3647 2931 
L 3647 3334 
L 4947 3334 
L 4947 4172 
L 3744 4172 
L 3744 4581 
L 4947 4581 
L 4947 5466 
L 5416 5466 
L 5416 2328 
L 4947 2328 
L 4947 2931 
L 3647 2931 
z
M 872 2053 
L 550 2425 
Q 1600 2778 2237 3404 
Q 2875 4031 3066 4800 
L 941 4800 
L 941 5209 
L 3609 5209 
Q 3503 4163 2790 3344 
Q 2078 2525 872 2053 
z
M 1722 -494 
L 1722 984 
L 4947 984 
L 4947 1600 
L 1722 1600 
L 1722 1997 
L 5416 1997 
L 5416 588 
L 2188 588 
L 2188 -91 
L 5581 -91 
L 5581 -494 
L 1722 -494 
z
" transform="scale(0.015625)"/>
      <path id="MalgunGothic-acfc" d="M 6188 2663 
L 5203 2663 
L 5203 -563 
L 4728 -563 
L 4728 5466 
L 5197 5466 
L 5197 3078 
L 6188 3078 
L 6188 2663 
z
M 3828 4897 
Q 3828 3144 3713 1800 
L 3256 1831 
Q 3294 2163 3326 3077 
Q 3359 3991 3359 4481 
L 800 4481 
L 800 4897 
L 3828 4897 
z
M 4319 666 
Q 2688 575 281 575 
L 238 984 
Q 559 984 1747 1000 
L 1747 3084 
L 2216 3084 
L 2216 1006 
L 4288 1069 
L 4319 666 
z
" transform="scale(0.015625)"/>
      <path id="MalgunGothic-b3d9" d="M 403 2119 
L 403 2534 
L 2963 2534 
L 2963 3316 
L 1338 3316 
L 1338 5325 
L 5081 5325 
L 5081 4909 
L 1813 4909 
L 1813 3731 
L 5153 3731 
L 5153 3316 
L 3438 3316 
L 3438 2534 
L 5997 2534 
L 5997 2119 
L 403 2119 
z
M 3200 -513 
Q 2247 -513 1740 -211 
Q 1234 91 1234 603 
Q 1234 1116 1742 1416 
Q 2250 1716 3200 1716 
Q 4150 1716 4658 1416 
Q 5166 1116 5166 603 
Q 5166 91 4659 -211 
Q 4153 -513 3200 -513 
z
M 3200 1319 
Q 2478 1319 2103 1126 
Q 1728 934 1728 603 
Q 1728 272 2104 78 
Q 2481 -116 3200 -116 
Q 3919 -116 4295 78 
Q 4672 272 4672 603 
Q 4672 934 4295 1126 
Q 3919 1319 3200 1319 
z
" transform="scale(0.015625)"/>
      <path id="MalgunGothic-c0c9" d="M 5056 2059 
L 5056 3438 
L 4353 3438 
L 4353 2059 
L 3884 2059 
L 3884 5344 
L 4353 5344 
L 4353 3859 
L 5056 3859 
L 5056 5466 
L 5522 5466 
L 5522 2059 
L 5056 2059 
z
M 3200 2406 
Q 2856 2603 2493 3009 
Q 2131 3416 2003 3725 
Q 1894 3381 1533 2937 
Q 1172 2494 781 2253 
L 447 2566 
Q 1028 2869 1397 3428 
Q 1766 3988 1766 4616 
L 1766 5253 
L 2222 5253 
L 2222 4616 
Q 2222 4041 2600 3516 
Q 2978 2991 3500 2753 
L 3200 2406 
z
M 5056 -563 
L 5056 1313 
L 1581 1313 
L 1581 1728 
L 5522 1728 
L 5522 -563 
L 5056 -563 
z
" transform="scale(0.015625)"/>
      <path id="MalgunGothic-c740" d="M 3200 2950 
Q 2309 2950 1817 3287 
Q 1325 3625 1325 4159 
Q 1325 4694 1815 5028 
Q 2306 5363 3200 5363 
Q 4094 5363 4587 5028 
Q 5081 4694 5081 4159 
Q 5081 3625 4584 3287 
Q 4088 2950 3200 2950 
z
M 3200 4966 
Q 2541 4966 2177 4747 
Q 1813 4528 1813 4159 
Q 1813 3791 2177 3572 
Q 2541 3353 3200 3353 
Q 3859 3353 4223 3572 
Q 4588 3791 4588 4159 
Q 4588 4528 4223 4747 
Q 3859 4966 3200 4966 
z
M 403 1919 
L 403 2344 
L 5997 2344 
L 5997 1919 
L 403 1919 
z
M 1338 -359 
L 1338 1331 
L 1813 1331 
L 1813 56 
L 5203 56 
L 5203 -359 
L 1338 -359 
z
" transform="scale(0.015625)"/>
      <path id="MalgunGothic-ac19" d="M 5119 3525 
L 5119 2272 
L 4653 2272 
L 4653 5466 
L 5119 5466 
L 5119 3944 
L 6028 3944 
L 6028 3525 
L 5119 3525 
z
M 3488 5209 
Q 3488 4306 2794 3461 
Q 2100 2616 788 2081 
L 459 2450 
Q 1506 2784 2178 3450 
Q 2850 4116 2963 4794 
L 831 4794 
L 831 5209 
L 3488 5209 
z
M 1466 -422 
L 1466 1941 
L 5153 1941 
L 5153 1528 
L 1925 1528 
L 1925 972 
L 5044 972 
L 5044 563 
L 1925 563 
L 1925 -6 
L 5269 -6 
L 5269 -422 
L 1466 -422 
z
" transform="scale(0.015625)"/>
     </defs>
     <use xlink:href="#MalgunGothic-c774"/>
     <use xlink:href="#MalgunGothic-c0b0" x="100"/>
     <use xlink:href="#MalgunGothic-d654" x="200"/>
     <use xlink:href="#MalgunGothic-d0c4" x="300"/>
     <use xlink:href="#MalgunGothic-c18c" x="400"/>
     <use xlink:href="#MalgunGothic-20" x="500"/>
     <use xlink:href="#MalgunGothic-c720" x="535.15625"/>
     <use xlink:href="#MalgunGothic-c0ac" x="635.15625"/>
     <use xlink:href="#MalgunGothic-20" x="735.15625"/>
     <use xlink:href="#MalgunGothic-d328" x="770.3125"/>
     <use xlink:href="#MalgunGothic-d134" x="870.3125"/>
     <use xlink:href="#MalgunGothic-20" x="970.3125"/>
     <use xlink:href="#MalgunGothic-ad70" x="1005.46875"/>
     <use xlink:href="#MalgunGothic-c9d1" x="1105.46875"/>
     <use xlink:href="#MalgunGothic-d654" x="1205.46875"/>
     <use xlink:href="#MalgunGothic-20" x="1305.46875"/>
     <use xlink:href="#MalgunGothic-acb0" x="1340.625"/>
     <use xlink:href="#MalgunGothic-acfc" x="1440.625"/>
     <use xlink:href="#MalgunGothic-20" x="1540.625"/>
     <use xlink:href="#MalgunGothic-28" x="1575.78125"/>
     <use xlink:href="#MalgunGothic-b3d9" x="1606.25"/>
     <use xlink:href="#MalgunGothic-c77c" x="1706.25"/>
     <use xlink:href="#MalgunGothic-20" x="1806.25"/>
     <use xlink:href="#MalgunGothic-c0c9" x="1841.40625"/>
     <use xlink:href="#MalgunGothic-c0c1" x="1941.40625"/>
     <use xlink:href="#MalgunGothic-c740" x="2041.40625"/>
     <use xlink:href="#MalgunGothic-20" x="2141.40625"/>
     <use xlink:href="#MalgunGothic-ac19" x="2176.5625"/>
     <use xlink:href="#MalgunGothic-c740" x="2276.5625"/>
     <use xlink:href="#MalgunGothic-20" x="2376.5625"/>
     <use xlink:href="#MalgunGothic-ad70" x="2411.71875"/>
     <use xlink:href="#MalgunGothic-c9d1" x="2511.71875"/>
     <use xlink:href="#MalgunGothic-29" x="2611.71875"/>
    </g>
   </g>
   <g id="legend_1">
    <g id="patch_7">
     <path d="M 706.634375 101.25875 
L 962.2 101.25875 
Q 965 101.25875 965 98.45875 
L 965 78.92 
Q 965 76.12 962.2 76.12 
L 706.634375 76.12 
Q 703.834375 76.12 703.834375 78.92 
L 703.834375 98.45875 
Q 703.834375 101.25875 706.634375 101.25875 
z
" style="fill: #ffffff; opacity: 0.8; stroke: #cccccc; stroke-linejoin: miter"/>
    </g>
    <g id="line2d_48">
     <path d="M 709.434375 87.449063 
L 723.434375 87.449063 
L 737.434375 87.449063 
" style="fill: none; stroke: #a9a9a9; stroke-opacity: 0.8; stroke-width: 3; stroke-linecap: round"/>
    </g>
    <g id="text_22">
     <!-- 군집이 안되는 이산화탄소 데이터 -->
     <g style="fill: #262626" transform="translate(748.634375 92.349063) scale(0.14 -0.14)">
      <defs>
       <path id="MalgunGothic-c548" d="M 5131 3109 
L 5131 1069 
L 4666 1069 
L 4666 5466 
L 5131 5466 
L 5131 3534 
L 6041 3534 
L 6041 3109 
L 5131 3109 
z
M 2188 2188 
Q 1519 2188 1070 2611 
Q 622 3034 622 3706 
Q 622 4381 1067 4798 
Q 1513 5216 2188 5216 
Q 2866 5216 3308 4797 
Q 3750 4378 3750 3706 
Q 3750 3038 3304 2613 
Q 2859 2188 2188 2188 
z
M 2188 4819 
Q 1694 4819 1384 4516 
Q 1075 4213 1075 3706 
Q 1075 3200 1383 2895 
Q 1691 2591 2188 2591 
Q 2684 2591 2993 2895 
Q 3303 3200 3303 3706 
Q 3303 4213 2993 4516 
Q 2684 4819 2188 4819 
z
M 1381 -359 
L 1381 1619 
L 1856 1619 
L 1856 56 
L 5319 56 
L 5319 -359 
L 1381 -359 
z
" transform="scale(0.015625)"/>
       <path id="MalgunGothic-b418" d="M 4984 -563 
L 4984 5466 
L 5453 5466 
L 5453 -563 
L 4984 -563 
z
M 594 513 
L 550 922 
L 878 922 
Q 1806 922 2363 934 
L 2363 2375 
L 1056 2375 
L 1056 4891 
L 4025 4891 
L 4025 4475 
L 1522 4475 
L 1522 2791 
L 4097 2791 
L 4097 2375 
L 2828 2375 
L 2828 947 
Q 4016 963 4538 1013 
L 4569 609 
Q 4022 566 2634 539 
Q 1247 513 594 513 
z
" transform="scale(0.015625)"/>
       <path id="MalgunGothic-b294" d="M 1409 3225 
L 1409 5247 
L 1875 5247 
L 1875 3641 
L 5172 3641 
L 5172 3225 
L 1409 3225 
z
M 403 1972 
L 403 2394 
L 5997 2394 
L 5997 1972 
L 403 1972 
z
M 1381 -331 
L 1381 1459 
L 1850 1459 
L 1850 91 
L 5184 91 
L 5184 -331 
L 1381 -331 
z
" transform="scale(0.015625)"/>
       <path id="MalgunGothic-b370" d="M 5044 -563 
L 5044 5466 
L 5509 5466 
L 5509 -563 
L 5044 -563 
z
M 3897 -366 
L 3897 2859 
L 2650 2859 
L 2650 3272 
L 3897 3272 
L 3897 5344 
L 4359 5344 
L 4359 -366 
L 3897 -366 
z
M 3359 1094 
Q 2766 1019 909 1019 
L 909 4966 
L 3138 4966 
L 3138 4550 
L 1369 4550 
L 1369 1428 
Q 2897 1428 3328 1491 
L 3359 1094 
z
" transform="scale(0.015625)"/>
       <path id="MalgunGothic-d130" d="M 4891 -563 
L 4891 2516 
L 3706 2516 
L 3706 2925 
L 4891 2925 
L 4891 5466 
L 5356 5466 
L 5356 -563 
L 4891 -563 
z
M 1422 2816 
L 1422 1331 
L 2144 1331 
Q 3525 1331 4141 1409 
L 4172 1006 
Q 3694 950 3141 936 
Q 2588 922 953 922 
L 953 4953 
L 3841 4953 
L 3841 4531 
L 1422 4531 
L 1422 3219 
L 3181 3219 
L 3181 2816 
L 1422 2816 
z
" transform="scale(0.015625)"/>
      </defs>
      <use xlink:href="#MalgunGothic-ad70"/>
      <use xlink:href="#MalgunGothic-c9d1" x="100"/>
      <use xlink:href="#MalgunGothic-c774" x="200"/>
      <use xlink:href="#MalgunGothic-20" x="300"/>
      <use xlink:href="#MalgunGothic-c548" x="335.15625"/>
      <use xlink:href="#MalgunGothic-b418" x="435.15625"/>
      <use xlink:href="#MalgunGothic-b294" x="535.15625"/>
      <use xlink:href="#MalgunGothic-20" x="635.15625"/>
      <use xlink:href="#MalgunGothic-c774" x="670.3125"/>
      <use xlink:href="#MalgunGothic-c0b0" x="770.3125"/>
      <use xlink:href="#MalgunGothic-d654" x="870.3125"/>
      <use xlink:href="#MalgunGothic-d0c4" x="970.3125"/>
      <use xlink:href="#MalgunGothic-c18c" x="1070.3125"/>
      <use xlink:href="#MalgunGothic-20" x="1170.3125"/>
      <use xlink:href="#MalgunGothic-b370" x="1205.46875"/>
      <use xlink:href="#MalgunGothic-c774" x="1305.46875"/>
      <use xlink:href="#MalgunGothic-d130" x="1405.46875"/>
     </g>
    </g>
   </g>
  </g>
 </g>
 <defs>
  <clipPath id="p73c29a6f60">
   <rect x="135" y="69.12" width="837" height="443.52"/>
  </clipPath>
 </defs>
</svg>
