<?xml version="1.0" encoding="utf-8" standalone="no"?>
<!DOCTYPE svg PUBLIC "-//W3C//DTD SVG 1.1//EN"
  "http://www.w3.org/Graphics/SVG/1.1/DTD/svg11.dtd">
<svg xmlns:xlink="http://www.w3.org/1999/xlink" width="1080pt" height="576pt" viewBox="0 0 1080 576" xmlns="http://www.w3.org/2000/svg" version="1.1">
 <metadata>
  <rdf:RDF xmlns:dc="http://purl.org/dc/elements/1.1/" xmlns:cc="http://creativecommons.org/ns#" xmlns:rdf="http://www.w3.org/1999/02/22-rdf-syntax-ns#">
   <cc:Work>
    <dc:type rdf:resource="http://purl.org/dc/dcmitype/StillImage"/>
    <dc:date>2024-11-12T22:44:52.827267</dc:date>
    <dc:format>image/svg+xml</dc:format>
    <dc:creator>
     <cc:Agent>
      <dc:title>Matplotlib v3.9.2, https://matplotlib.org/</dc:title>
     </cc:Agent>
    </dc:creator>
   </cc:Work>
  </rdf:RDF>
 </metadata>
 <defs>
  <style type="text/css">*{stroke-linejoin: round; stroke-linecap: butt}</style>
 </defs>
 <g id="figure_1">
  <g id="patch_1">
   <path d="M 0 576 
L 1080 576 
L 1080 0 
L 0 0 
z
" style="fill: #ffffff"/>
  </g>
  <g id="axes_1">
   <g id="patch_2">
    <path d="M 135 512.64 
L 972 512.64 
L 972 69.12 
L 135 69.12 
z
" style="fill: #ffffff"/>
   </g>
   <g id="matplotlib.axis_1">
    <g id="xtick_1">
     <g id="line2d_1">
      <path d="M 135 512.64 
L 135 69.12 
" clip-path="url(#p67f4d0d75b)" style="fill: none; stroke: #a9a9a9; stroke-opacity: 0.7; stroke-linecap: round"/>
     </g>
     <g id="text_1">
      <!-- 0 -->
      <g style="fill: #262626" transform="translate(131.144531 532.769063) scale(0.14 -0.14)">
       <defs>
        <path id="MalgunGothic-30" d="M 278 2206 
Q 278 3425 675 4050 
Q 1072 4675 1819 4675 
Q 3253 4675 3253 2319 
Q 3253 1156 2854 539 
Q 2456 -78 1716 -78 
Q 1016 -78 647 520 
Q 278 1119 278 2206 
z
M 784 2231 
Q 784 344 1769 344 
Q 2747 344 2747 2259 
Q 2747 4250 1794 4250 
Q 784 4250 784 2231 
z
" transform="scale(0.015625)"/>
       </defs>
       <use xlink:href="#MalgunGothic-30"/>
      </g>
     </g>
    </g>
    <g id="xtick_2">
     <g id="line2d_2">
      <path d="M 216.109017 512.64 
L 216.109017 69.12 
" clip-path="url(#p67f4d0d75b)" style="fill: none; stroke: #a9a9a9; stroke-opacity: 0.7; stroke-linecap: round"/>
     </g>
     <g id="text_2">
      <!-- 1 -->
      <g style="fill: #262626" transform="translate(212.253549 532.769063) scale(0.14 -0.14)">
       <defs>
        <path id="MalgunGothic-31" d="M 2231 0 
L 1734 0 
L 1734 3972 
Q 1591 3828 1266 3661 
Q 941 3494 672 3428 
L 672 3959 
Q 1016 4056 1409 4275 
Q 1803 4494 2031 4700 
L 2231 4700 
L 2231 0 
z
" transform="scale(0.015625)"/>
       </defs>
       <use xlink:href="#MalgunGothic-31"/>
      </g>
     </g>
    </g>
    <g id="xtick_3">
     <g id="line2d_3">
      <path d="M 297.218035 512.64 
L 297.218035 69.12 
" clip-path="url(#p67f4d0d75b)" style="fill: none; stroke: #a9a9a9; stroke-opacity: 0.7; stroke-linecap: round"/>
     </g>
     <g id="text_3">
      <!-- 2 -->
      <g style="fill: #262626" transform="translate(293.362566 532.769063) scale(0.14 -0.14)">
       <defs>
        <path id="MalgunGothic-32" d="M 2519 3372 
Q 2519 3784 2275 4018 
Q 2031 4253 1628 4253 
Q 1341 4253 1053 4104 
Q 766 3956 534 3697 
L 534 4234 
Q 981 4675 1691 4675 
Q 2281 4675 2642 4334 
Q 3003 3994 3003 3416 
Q 3003 2919 2772 2545 
Q 2541 2172 1984 1775 
Q 1459 1406 1254 1215 
Q 1050 1025 967 854 
Q 884 684 884 450 
L 3116 450 
L 3116 0 
L 356 0 
L 356 225 
Q 356 603 461 870 
Q 566 1138 811 1392 
Q 1056 1647 1597 2022 
Q 2091 2363 2305 2670 
Q 2519 2978 2519 3372 
z
" transform="scale(0.015625)"/>
       </defs>
       <use xlink:href="#MalgunGothic-32"/>
      </g>
     </g>
    </g>
    <g id="xtick_4">
     <g id="line2d_4">
      <path d="M 378.327052 512.64 
L 378.327052 69.12 
" clip-path="url(#p67f4d0d75b)" style="fill: none; stroke: #a9a9a9; stroke-opacity: 0.7; stroke-linecap: round"/>
     </g>
     <g id="text_4">
      <!-- 3 -->
      <g style="fill: #262626" transform="translate(374.471584 532.769063) scale(0.14 -0.14)">
       <defs>
        <path id="MalgunGothic-33" d="M 416 719 
Q 891 344 1478 344 
Q 1959 344 2254 587 
Q 2550 831 2550 1247 
Q 2550 2169 1253 2169 
L 872 2169 
L 872 2591 
L 1234 2591 
Q 2388 2591 2388 3453 
Q 2388 4250 1509 4250 
Q 1022 4250 594 3916 
L 594 4413 
Q 1031 4675 1634 4675 
Q 2184 4675 2539 4372 
Q 2894 4069 2894 3581 
Q 2894 2678 1972 2409 
L 1972 2400 
Q 2469 2356 2764 2053 
Q 3059 1750 3059 1300 
Q 3059 672 2604 297 
Q 2150 -78 1450 -78 
Q 806 -78 416 169 
L 416 719 
z
" transform="scale(0.015625)"/>
       </defs>
       <use xlink:href="#MalgunGothic-33"/>
      </g>
     </g>
    </g>
    <g id="xtick_5">
     <g id="line2d_5">
      <path d="M 459.43607 512.64 
L 459.43607 69.12 
" clip-path="url(#p67f4d0d75b)" style="fill: none; stroke: #a9a9a9; stroke-opacity: 0.7; stroke-linecap: round"/>
     </g>
     <g id="text_5">
      <!-- 4 -->
      <g style="fill: #262626" transform="translate(455.580601 532.769063) scale(0.14 -0.14)">
       <defs>
        <path id="MalgunGothic-34" d="M 2703 4600 
L 2703 1563 
L 3309 1563 
L 3309 1113 
L 2703 1113 
L 2703 0 
L 2213 0 
L 2213 1113 
L 50 1113 
L 50 1534 
Q 728 2297 1295 3109 
Q 1863 3922 2172 4600 
L 2703 4600 
z
M 625 1563 
L 2213 1563 
L 2213 3831 
Q 1613 2788 959 1981 
L 625 1563 
z
" transform="scale(0.015625)"/>
       </defs>
       <use xlink:href="#MalgunGothic-34"/>
      </g>
     </g>
    </g>
    <g id="xtick_6">
     <g id="line2d_6">
      <path d="M 540.545087 512.64 
L 540.545087 69.12 
" clip-path="url(#p67f4d0d75b)" style="fill: none; stroke: #a9a9a9; stroke-opacity: 0.7; stroke-linecap: round"/>
     </g>
     <g id="text_6">
      <!-- 5 -->
      <g style="fill: #262626" transform="translate(536.689619 532.769063) scale(0.14 -0.14)">
       <defs>
        <path id="MalgunGothic-35" d="M 3072 1403 
Q 3072 722 2636 322 
Q 2200 -78 1469 -78 
Q 828 -78 516 113 
L 516 650 
Q 994 344 1475 344 
Q 1969 344 2270 630 
Q 2572 916 2572 1372 
Q 2572 1838 2265 2092 
Q 1959 2347 1381 2347 
Q 994 2347 603 2300 
L 759 4600 
L 2869 4600 
L 2869 4147 
L 1206 4147 
L 1106 2763 
Q 1347 2784 1547 2784 
Q 2263 2784 2667 2414 
Q 3072 2044 3072 1403 
z
" transform="scale(0.015625)"/>
       </defs>
       <use xlink:href="#MalgunGothic-35"/>
      </g>
     </g>
    </g>
    <g id="xtick_7">
     <g id="line2d_7">
      <path d="M 621.654105 512.64 
L 621.654105 69.12 
" clip-path="url(#p67f4d0d75b)" style="fill: none; stroke: #a9a9a9; stroke-opacity: 0.7; stroke-linecap: round"/>
     </g>
     <g id="text_7">
      <!-- 6 -->
      <g style="fill: #262626" transform="translate(617.798636 532.769063) scale(0.14 -0.14)">
       <defs>
        <path id="MalgunGothic-36" d="M 2981 4069 
Q 2619 4250 2228 4250 
Q 1591 4250 1228 3689 
Q 866 3128 869 2213 
L 884 2213 
Q 1203 2872 1938 2872 
Q 2547 2872 2903 2478 
Q 3259 2084 3259 1450 
Q 3259 797 2857 359 
Q 2456 -78 1825 -78 
Q 1116 -78 736 478 
Q 356 1034 356 2019 
Q 356 3181 847 3928 
Q 1338 4675 2222 4675 
Q 2700 4675 2981 4544 
L 2981 4069 
z
M 906 1506 
Q 906 1022 1165 683 
Q 1425 344 1844 344 
Q 2247 344 2498 645 
Q 2750 947 2750 1388 
Q 2750 1888 2509 2167 
Q 2269 2447 1838 2447 
Q 1444 2447 1175 2173 
Q 906 1900 906 1506 
z
" transform="scale(0.015625)"/>
       </defs>
       <use xlink:href="#MalgunGothic-36"/>
      </g>
     </g>
    </g>
    <g id="xtick_8">
     <g id="line2d_8">
      <path d="M 702.763122 512.64 
L 702.763122 69.12 
" clip-path="url(#p67f4d0d75b)" style="fill: none; stroke: #a9a9a9; stroke-opacity: 0.7; stroke-linecap: round"/>
     </g>
     <g id="text_8">
      <!-- 7 -->
      <g style="fill: #262626" transform="translate(698.907654 532.769063) scale(0.14 -0.14)">
       <defs>
        <path id="MalgunGothic-37" d="M 3213 4297 
Q 2478 3006 2064 1918 
Q 1650 831 1550 0 
L 1009 0 
Q 1084 531 1290 1176 
Q 1497 1822 1815 2537 
Q 2134 3253 2631 4147 
L 291 4147 
L 291 4600 
L 3213 4600 
L 3213 4297 
z
" transform="scale(0.015625)"/>
       </defs>
       <use xlink:href="#MalgunGothic-37"/>
      </g>
     </g>
    </g>
    <g id="xtick_9">
     <g id="line2d_9">
      <path d="M 783.87214 512.64 
L 783.87214 69.12 
" clip-path="url(#p67f4d0d75b)" style="fill: none; stroke: #a9a9a9; stroke-opacity: 0.7; stroke-linecap: round"/>
     </g>
     <g id="text_9">
      <!-- 8 -->
      <g style="fill: #262626" transform="translate(780.016671 532.769063) scale(0.14 -0.14)">
       <defs>
        <path id="MalgunGothic-38" d="M 303 1281 
Q 303 1669 539 2011 
Q 775 2353 1153 2494 
Q 856 2647 675 2915 
Q 494 3184 494 3500 
Q 494 3828 659 4098 
Q 825 4369 1122 4522 
Q 1419 4675 1778 4675 
Q 2334 4675 2700 4342 
Q 3066 4009 3066 3500 
Q 3066 3181 2881 2914 
Q 2697 2647 2413 2494 
Q 2788 2350 3022 2009 
Q 3256 1669 3256 1281 
Q 3256 672 2843 297 
Q 2431 -78 1778 -78 
Q 1131 -78 717 301 
Q 303 681 303 1281 
z
M 809 1328 
Q 809 878 1081 611 
Q 1353 344 1781 344 
Q 2206 344 2482 619 
Q 2759 894 2759 1328 
Q 2759 1731 2482 2011 
Q 2206 2291 1781 2291 
Q 1372 2291 1090 2020 
Q 809 1750 809 1328 
z
M 1003 3459 
Q 1003 3125 1234 2900 
Q 1466 2675 1781 2675 
Q 2097 2675 2330 2900 
Q 2563 3125 2563 3459 
Q 2563 3803 2341 4026 
Q 2119 4250 1781 4250 
Q 1450 4250 1226 4029 
Q 1003 3809 1003 3459 
z
" transform="scale(0.015625)"/>
       </defs>
       <use xlink:href="#MalgunGothic-38"/>
      </g>
     </g>
    </g>
    <g id="xtick_10">
     <g id="line2d_10">
      <path d="M 864.981157 512.64 
L 864.981157 69.12 
" clip-path="url(#p67f4d0d75b)" style="fill: none; stroke: #a9a9a9; stroke-opacity: 0.7; stroke-linecap: round"/>
     </g>
     <g id="text_10">
      <!-- 9 -->
      <g style="fill: #262626" transform="translate(861.125689 532.769063) scale(0.14 -0.14)">
       <defs>
        <path id="MalgunGothic-39" d="M 556 563 
Q 941 344 1366 344 
Q 1994 344 2347 855 
Q 2700 1366 2700 2313 
Q 2694 2306 2688 2313 
Q 2388 1713 1653 1713 
Q 1059 1713 682 2120 
Q 306 2528 306 3144 
Q 306 3806 711 4240 
Q 1116 4675 1772 4675 
Q 2466 4675 2833 4131 
Q 3200 3588 3200 2578 
Q 3200 1319 2717 620 
Q 2234 -78 1344 -78 
Q 881 -78 556 78 
L 556 563 
z
M 813 3219 
Q 813 2741 1063 2450 
Q 1313 2159 1759 2159 
Q 2147 2159 2406 2417 
Q 2666 2675 2666 3047 
Q 2666 3556 2411 3903 
Q 2156 4250 1725 4250 
Q 1322 4250 1067 3948 
Q 813 3647 813 3219 
z
" transform="scale(0.015625)"/>
       </defs>
       <use xlink:href="#MalgunGothic-39"/>
      </g>
     </g>
    </g>
    <g id="xtick_11">
     <g id="line2d_11">
      <path d="M 946.090175 512.64 
L 946.090175 69.12 
" clip-path="url(#p67f4d0d75b)" style="fill: none; stroke: #a9a9a9; stroke-opacity: 0.7; stroke-linecap: round"/>
     </g>
     <g id="text_11">
      <!-- 10 -->
      <g style="fill: #262626" transform="translate(938.379237 532.769063) scale(0.14 -0.14)">
       <use xlink:href="#MalgunGothic-31"/>
       <use xlink:href="#MalgunGothic-30" x="55.078125"/>
      </g>
     </g>
    </g>
    <g id="text_12">
     <!-- 상대 시간(일) -->
     <g style="fill: #262626" transform="translate(505.8125 552.57125) scale(0.16 -0.16)">
      <defs>
       <path id="MalgunGothic-c0c1" d="M 5125 3391 
L 5125 1991 
L 4659 1991 
L 4659 5466 
L 5125 5466 
L 5125 3816 
L 6034 3816 
L 6034 3391 
L 5125 3391 
z
M 3603 2316 
Q 3206 2528 2778 2934 
Q 2350 3341 2188 3681 
Q 2022 3291 1609 2852 
Q 1197 2413 750 2163 
L 409 2484 
Q 1072 2806 1512 3397 
Q 1953 3988 1953 4628 
L 1953 5259 
L 2400 5259 
L 2400 4628 
Q 2400 4025 2845 3472 
Q 3291 2919 3909 2656 
L 3603 2316 
z
M 3263 -513 
Q 2322 -513 1811 -186 
Q 1300 141 1300 659 
Q 1300 1175 1812 1500 
Q 2325 1825 3263 1825 
Q 4203 1825 4715 1501 
Q 5228 1178 5228 659 
Q 5228 138 4717 -187 
Q 4206 -513 3263 -513 
z
M 3263 1428 
Q 2563 1428 2180 1215 
Q 1797 1003 1797 659 
Q 1797 309 2181 96 
Q 2566 -116 3263 -116 
Q 3969 -116 4353 98 
Q 4738 313 4738 659 
Q 4738 1000 4353 1214 
Q 3969 1428 3263 1428 
z
" transform="scale(0.015625)"/>
       <path id="MalgunGothic-b300" d="M 5069 -563 
L 5069 2572 
L 4294 2572 
L 4294 -378 
L 3834 -378 
L 3834 5344 
L 4294 5344 
L 4294 2988 
L 5069 2988 
L 5069 5466 
L 5538 5466 
L 5538 -563 
L 5069 -563 
z
M 3391 1153 
Q 2516 1063 825 1063 
L 825 4934 
L 3138 4934 
L 3138 4519 
L 1288 4519 
L 1288 1478 
L 1844 1478 
Q 2791 1478 3359 1550 
L 3391 1153 
z
" transform="scale(0.015625)"/>
       <path id="MalgunGothic-20" transform="scale(0.015625)"/>
       <path id="MalgunGothic-c2dc" d="M 4947 -563 
L 4947 5466 
L 5416 5466 
L 5416 -563 
L 4947 -563 
z
M 3769 966 
Q 3263 1353 2820 1939 
Q 2378 2525 2259 2950 
Q 2116 2463 1687 1872 
Q 1259 1281 756 891 
L 397 1203 
Q 1141 1703 1581 2479 
Q 2022 3256 2022 4063 
L 2022 5050 
L 2484 5050 
L 2484 4084 
Q 2484 3303 2920 2556 
Q 3356 1809 4097 1331 
L 3769 966 
z
" transform="scale(0.015625)"/>
       <path id="MalgunGothic-ac04" d="M 5125 3122 
L 5125 1063 
L 4659 1063 
L 4659 5466 
L 5125 5466 
L 5125 3541 
L 6034 3541 
L 6034 3122 
L 5125 3122 
z
M 3513 5100 
Q 3403 3872 2556 3011 
Q 1709 2150 794 1800 
L 469 2163 
Q 1344 2450 2087 3172 
Q 2831 3894 2963 4678 
L 831 4678 
L 831 5100 
L 3513 5100 
z
M 1459 -325 
L 1459 1509 
L 1925 1509 
L 1925 97 
L 5294 97 
L 5294 -325 
L 1459 -325 
z
" transform="scale(0.015625)"/>
       <path id="MalgunGothic-28" d="M 1438 -1044 
Q 447 88 447 1753 
Q 447 3431 1438 4600 
L 1888 4600 
Q 878 3372 878 1759 
Q 878 153 1881 -1044 
L 1438 -1044 
z
" transform="scale(0.015625)"/>
       <path id="MalgunGothic-c77c" d="M 4947 2363 
L 4947 5466 
L 5422 5466 
L 5422 2363 
L 4947 2363 
z
M 2419 2578 
Q 1738 2578 1314 2970 
Q 891 3363 891 3969 
Q 891 4572 1314 4961 
Q 1738 5350 2419 5350 
Q 3097 5350 3523 4959 
Q 3950 4569 3950 3969 
Q 3950 3366 3522 2972 
Q 3094 2578 2419 2578 
z
M 2419 4947 
Q 1931 4947 1643 4680 
Q 1356 4413 1356 3969 
Q 1356 3522 1643 3248 
Q 1931 2975 2419 2975 
Q 2906 2975 3193 3248 
Q 3481 3522 3481 3969 
Q 3481 4413 3193 4680 
Q 2906 4947 2419 4947 
z
M 1703 -422 
L 1703 1038 
L 4959 1038 
L 4959 1613 
L 1703 1613 
L 1703 2028 
L 5422 2028 
L 5422 634 
L 2163 634 
L 2163 -6 
L 5588 -6 
L 5588 -422 
L 1703 -422 
z
" transform="scale(0.015625)"/>
       <path id="MalgunGothic-29" d="M 81 -1044 
Q 1081 150 1081 1759 
Q 1081 3378 72 4600 
L 525 4600 
Q 1522 3431 1522 1753 
Q 1522 88 525 -1044 
L 81 -1044 
z
" transform="scale(0.015625)"/>
      </defs>
      <use xlink:href="#MalgunGothic-c0c1"/>
      <use xlink:href="#MalgunGothic-b300" x="100"/>
      <use xlink:href="#MalgunGothic-20" x="200"/>
      <use xlink:href="#MalgunGothic-c2dc" x="235.15625"/>
      <use xlink:href="#MalgunGothic-ac04" x="335.15625"/>
      <use xlink:href="#MalgunGothic-28" x="435.15625"/>
      <use xlink:href="#MalgunGothic-c77c" x="465.625"/>
      <use xlink:href="#MalgunGothic-29" x="565.625"/>
     </g>
    </g>
   </g>
   <g id="matplotlib.axis_2">
    <g id="ytick_1">
     <g id="text_13">
      <!-- 0 -->
      <g style="fill: #262626" transform="translate(117.789062 497.794531) scale(0.14 -0.14)">
       <use xlink:href="#MalgunGothic-30"/>
      </g>
     </g>
    </g>
    <g id="ytick_2">
     <g id="text_14">
      <!-- 5000 -->
      <g style="fill: #262626" transform="translate(94.65625 437.52984) scale(0.14 -0.14)">
       <use xlink:href="#MalgunGothic-35"/>
       <use xlink:href="#MalgunGothic-30" x="55.078125"/>
       <use xlink:href="#MalgunGothic-30" x="110.15625"/>
       <use xlink:href="#MalgunGothic-30" x="165.234375"/>
      </g>
     </g>
    </g>
    <g id="ytick_3">
     <g id="text_15">
      <!-- 10000 -->
      <g style="fill: #262626" transform="translate(86.945312 377.26515) scale(0.14 -0.14)">
       <use xlink:href="#MalgunGothic-31"/>
       <use xlink:href="#MalgunGothic-30" x="55.078125"/>
       <use xlink:href="#MalgunGothic-30" x="110.15625"/>
       <use xlink:href="#MalgunGothic-30" x="165.234375"/>
       <use xlink:href="#MalgunGothic-30" x="220.3125"/>
      </g>
     </g>
    </g>
    <g id="ytick_4">
     <g id="text_16">
      <!-- 15000 -->
      <g style="fill: #262626" transform="translate(86.945312 317.000459) scale(0.14 -0.14)">
       <use xlink:href="#MalgunGothic-31"/>
       <use xlink:href="#MalgunGothic-35" x="55.078125"/>
       <use xlink:href="#MalgunGothic-30" x="110.15625"/>
       <use xlink:href="#MalgunGothic-30" x="165.234375"/>
       <use xlink:href="#MalgunGothic-30" x="220.3125"/>
      </g>
     </g>
    </g>
    <g id="ytick_5">
     <g id="text_17">
      <!-- 20000 -->
      <g style="fill: #262626" transform="translate(86.945312 256.735768) scale(0.14 -0.14)">
       <use xlink:href="#MalgunGothic-32"/>
       <use xlink:href="#MalgunGothic-30" x="55.078125"/>
       <use xlink:href="#MalgunGothic-30" x="110.15625"/>
       <use xlink:href="#MalgunGothic-30" x="165.234375"/>
       <use xlink:href="#MalgunGothic-30" x="220.3125"/>
      </g>
     </g>
    </g>
    <g id="ytick_6">
     <g id="text_18">
      <!-- 25000 -->
      <g style="fill: #262626" transform="translate(86.945312 196.471077) scale(0.14 -0.14)">
       <use xlink:href="#MalgunGothic-32"/>
       <use xlink:href="#MalgunGothic-35" x="55.078125"/>
       <use xlink:href="#MalgunGothic-30" x="110.15625"/>
       <use xlink:href="#MalgunGothic-30" x="165.234375"/>
       <use xlink:href="#MalgunGothic-30" x="220.3125"/>
      </g>
     </g>
    </g>
    <g id="ytick_7">
     <g id="text_19">
      <!-- 30000 -->
      <g style="fill: #262626" transform="translate(86.945312 136.206386) scale(0.14 -0.14)">
       <use xlink:href="#MalgunGothic-33"/>
       <use xlink:href="#MalgunGothic-30" x="55.078125"/>
       <use xlink:href="#MalgunGothic-30" x="110.15625"/>
       <use xlink:href="#MalgunGothic-30" x="165.234375"/>
       <use xlink:href="#MalgunGothic-30" x="220.3125"/>
      </g>
     </g>
    </g>
    <g id="ytick_8">
     <g id="text_20">
      <!-- 35000 -->
      <g style="fill: #262626" transform="translate(86.945312 75.941695) scale(0.14 -0.14)">
       <use xlink:href="#MalgunGothic-33"/>
       <use xlink:href="#MalgunGothic-35" x="55.078125"/>
       <use xlink:href="#MalgunGothic-30" x="110.15625"/>
       <use xlink:href="#MalgunGothic-30" x="165.234375"/>
       <use xlink:href="#MalgunGothic-30" x="220.3125"/>
      </g>
     </g>
    </g>
    <g id="text_21">
     <!-- 변동성 (이동 표준편차) -->
     <g style="fill: #262626" transform="translate(79.162813 373.38) rotate(-90) scale(0.16 -0.16)">
      <defs>
       <path id="MalgunGothic-bcc0" d="M 1038 2059 
L 1038 5184 
L 1497 5184 
L 1497 4072 
L 3366 4072 
L 3366 5184 
L 3828 5184 
L 3828 4416 
L 4947 4416 
L 4947 5466 
L 5416 5466 
L 5416 1063 
L 4947 1063 
L 4947 2669 
L 3828 2669 
L 3828 2059 
L 1038 2059 
z
M 3828 3084 
L 4947 3084 
L 4947 4000 
L 3828 4000 
L 3828 3084 
z
M 3366 3653 
L 1497 3653 
L 1497 2478 
L 3366 2478 
L 3366 3653 
z
M 1734 -391 
L 1734 1563 
L 2203 1563 
L 2203 25 
L 5606 25 
L 5606 -391 
L 1734 -391 
z
" transform="scale(0.015625)"/>
       <path id="MalgunGothic-b3d9" d="M 403 2119 
L 403 2534 
L 2963 2534 
L 2963 3316 
L 1338 3316 
L 1338 5325 
L 5081 5325 
L 5081 4909 
L 1813 4909 
L 1813 3731 
L 5153 3731 
L 5153 3316 
L 3438 3316 
L 3438 2534 
L 5997 2534 
L 5997 2119 
L 403 2119 
z
M 3200 -513 
Q 2247 -513 1740 -211 
Q 1234 91 1234 603 
Q 1234 1116 1742 1416 
Q 2250 1716 3200 1716 
Q 4150 1716 4658 1416 
Q 5166 1116 5166 603 
Q 5166 91 4659 -211 
Q 4153 -513 3200 -513 
z
M 3200 1319 
Q 2478 1319 2103 1126 
Q 1728 934 1728 603 
Q 1728 272 2104 78 
Q 2481 -116 3200 -116 
Q 3919 -116 4295 78 
Q 4672 272 4672 603 
Q 4672 934 4295 1126 
Q 3919 1319 3200 1319 
z
" transform="scale(0.015625)"/>
       <path id="MalgunGothic-c131" d="M 4947 1984 
L 4947 3781 
L 3541 3781 
L 3541 4200 
L 4947 4200 
L 4947 5466 
L 5416 5466 
L 5416 1984 
L 4947 1984 
z
M 3653 2328 
Q 3244 2550 2831 2950 
Q 2419 3350 2253 3700 
Q 2075 3303 1659 2858 
Q 1244 2413 819 2175 
L 488 2497 
Q 1134 2806 1571 3393 
Q 2009 3981 2009 4628 
L 2009 5269 
L 2463 5269 
L 2463 4628 
Q 2463 4025 2916 3472 
Q 3369 2919 3969 2669 
L 3653 2328 
z
M 3566 -475 
Q 2622 -475 2108 -148 
Q 1594 178 1594 697 
Q 1594 1216 2106 1539 
Q 2619 1863 3566 1863 
Q 4513 1863 5025 1539 
Q 5538 1216 5538 697 
Q 5538 178 5023 -148 
Q 4509 -475 3566 -475 
z
M 3566 1466 
Q 2850 1466 2472 1248 
Q 2094 1031 2094 697 
Q 2094 359 2473 143 
Q 2853 -72 3566 -72 
Q 4275 -72 4656 142 
Q 5038 356 5038 697 
Q 5038 1034 4659 1250 
Q 4281 1466 3566 1466 
z
" transform="scale(0.015625)"/>
       <path id="MalgunGothic-c774" d="M 4947 -563 
L 4947 5466 
L 5416 5466 
L 5416 -563 
L 4947 -563 
z
M 2284 959 
Q 1597 959 1173 1514 
Q 750 2069 750 3016 
Q 750 3975 1169 4522 
Q 1588 5069 2284 5069 
Q 2978 5069 3403 4522 
Q 3828 3975 3828 3016 
Q 3828 2063 3401 1511 
Q 2975 959 2284 959 
z
M 2284 4653 
Q 1803 4653 1503 4204 
Q 1203 3756 1203 3016 
Q 1203 2278 1506 1826 
Q 1809 1375 2284 1375 
Q 2756 1375 3061 1828 
Q 3366 2281 3366 3016 
Q 3366 3759 3067 4206 
Q 2769 4653 2284 4653 
z
" transform="scale(0.015625)"/>
       <path id="MalgunGothic-d45c" d="M 997 4897 
L 5403 4897 
L 5403 4488 
L 997 4488 
L 997 4897 
z
M 4481 2566 
L 5478 2566 
L 5478 2156 
L 4494 2156 
L 4494 756 
L 5997 756 
L 5997 341 
L 403 341 
L 403 756 
L 1906 756 
L 1906 2156 
L 922 2156 
L 922 2566 
L 1919 2566 
L 1844 4172 
L 2303 4172 
L 2381 2566 
L 4019 2566 
L 4097 4172 
L 4556 4172 
L 4481 2566 
z
M 2375 756 
L 4025 756 
L 4025 2156 
L 2375 2156 
L 2375 756 
z
" transform="scale(0.015625)"/>
       <path id="MalgunGothic-c900" d="M 5459 3078 
Q 4725 3191 4092 3536 
Q 3459 3881 3206 4263 
Q 2988 3925 2334 3556 
Q 1681 3188 972 3084 
L 697 3463 
Q 1541 3531 2203 3934 
Q 2866 4338 2963 4800 
L 1025 4800 
L 1025 5222 
L 5375 5222 
L 5375 4800 
L 3438 4800 
Q 3534 4331 4187 3928 
Q 4841 3525 5703 3463 
L 5459 3078 
z
M 3438 2088 
L 3438 603 
L 2963 603 
L 2963 2088 
L 403 2088 
L 403 2503 
L 5997 2503 
L 5997 2088 
L 3438 2088 
z
M 1325 -359 
L 1325 1459 
L 1791 1459 
L 1791 56 
L 5203 56 
L 5203 -359 
L 1325 -359 
z
" transform="scale(0.015625)"/>
       <path id="MalgunGothic-d3b8" d="M 3884 2841 
L 3884 3244 
L 4972 3244 
L 4972 3828 
L 3884 3828 
L 3884 4231 
L 4972 4231 
L 4972 5466 
L 5441 5466 
L 5441 1069 
L 4972 1069 
L 4972 2841 
L 3884 2841 
z
M 794 4678 
L 794 5088 
L 4056 5088 
L 4056 4678 
L 794 4678 
z
M 4306 2075 
Q 3913 1997 3244 1997 
L 647 1997 
L 647 2406 
L 1466 2406 
L 1394 4334 
L 1850 4334 
L 1906 2406 
L 2900 2406 
L 2956 4334 
L 3413 4334 
L 3334 2413 
Q 3925 2413 4275 2478 
L 4306 2075 
z
M 1672 -366 
L 1672 1453 
L 2138 1453 
L 2138 44 
L 5575 44 
L 5575 -366 
L 1672 -366 
z
" transform="scale(0.015625)"/>
       <path id="MalgunGothic-cc28" d="M 3803 972 
Q 3288 1272 2848 1772 
Q 2409 2272 2266 2663 
Q 2144 2278 1692 1715 
Q 1241 1153 775 850 
L 428 1197 
Q 1084 1513 1559 2223 
Q 2034 2934 2034 3597 
L 2034 4206 
L 563 4206 
L 563 4622 
L 2028 4622 
L 2028 5466 
L 2491 5466 
L 2491 4622 
L 3956 4622 
L 3956 4206 
L 2491 4206 
L 2491 3578 
Q 2491 2938 2966 2281 
Q 3441 1625 4122 1338 
L 3803 972 
z
M 5094 2497 
L 5094 -563 
L 4628 -563 
L 4628 5466 
L 5094 5466 
L 5094 2919 
L 6081 2919 
L 6081 2497 
L 5094 2497 
z
" transform="scale(0.015625)"/>
      </defs>
      <use xlink:href="#MalgunGothic-bcc0"/>
      <use xlink:href="#MalgunGothic-b3d9" x="100"/>
      <use xlink:href="#MalgunGothic-c131" x="200"/>
      <use xlink:href="#MalgunGothic-20" x="300"/>
      <use xlink:href="#MalgunGothic-28" x="335.15625"/>
      <use xlink:href="#MalgunGothic-c774" x="365.625"/>
      <use xlink:href="#MalgunGothic-b3d9" x="465.625"/>
      <use xlink:href="#MalgunGothic-20" x="565.625"/>
      <use xlink:href="#MalgunGothic-d45c" x="600.78125"/>
      <use xlink:href="#MalgunGothic-c900" x="700.78125"/>
      <use xlink:href="#MalgunGothic-d3b8" x="800.78125"/>
      <use xlink:href="#MalgunGothic-cc28" x="900.78125"/>
      <use xlink:href="#MalgunGothic-29" x="1000.78125"/>
     </g>
    </g>
   </g>
   <g id="line2d_12">
    <path d="M 135.506931 482.876508 
L 136.070188 469.872779 
L 136.464468 464.946086 
L 136.520794 464.943657 
L 136.57712 464.7206 
L 136.633445 463.991532 
L 136.802423 459.092684 
L 136.915074 461.3929 
L 137.140377 477.051747 
L 137.309354 485.249438 
L 137.534657 486.559158 
L 137.703634 486.780261 
L 137.872611 487.970972 
L 137.928937 487.733462 
L 138.041588 488.628701 
L 138.266891 490.44327 
L 138.492194 490.952626 
L 138.54852 490.883703 
L 138.661171 488.778817 
L 138.886474 479.44049 
L 138.999125 480.075436 
L 139.168102 481.844425 
L 139.224428 483.007265 
L 139.506057 475.99922 
L 139.562382 475.74712 
L 139.731359 478.627565 
L 140.069314 483.276729 
L 140.407268 485.091095 
L 140.519919 485.298546 
L 140.632571 484.925056 
L 141.026851 482.527425 
L 141.364805 483.128314 
L 141.421131 483.005799 
L 141.477456 483.048704 
L 141.702759 483.483992 
L 141.81541 483.681767 
L 141.871736 483.568577 
L 141.928062 483.567 
L 141.984388 483.431757 
L 142.040713 483.456275 
L 142.378668 484.108265 
L 142.547645 484.178499 
L 142.772948 484.636341 
L 142.829273 484.514923 
L 143.110902 484.083054 
L 143.167227 484.053483 
L 143.336205 484.1999 
L 143.39253 484.254519 
L 143.448856 484.17783 
L 143.505182 484.09254 
L 143.674159 484.31571 
L 143.843136 484.270249 
L 144.012113 484.293749 
L 144.124764 484.250266 
L 144.350067 484.642497 
L 144.744347 484.284211 
L 144.800673 484.366043 
L 145.36393 484.913793 
L 145.420256 484.857075 
L 145.532907 484.215873 
L 145.983513 479.870819 
L 146.039838 479.825617 
L 146.15249 480.321647 
L 146.54677 483.081354 
L 146.603096 482.88412 
L 146.772073 480.064952 
L 146.828398 480.35705 
L 147.166353 485.095464 
L 147.222678 484.678812 
L 147.447981 480.272192 
L 147.616958 479.633725 
L 147.72961 480.313965 
L 147.954913 481.888616 
L 148.067564 481.59258 
L 148.12389 481.738261 
L 148.180215 481.710255 
L 148.236541 481.85224 
L 148.292867 483.176475 
L 148.405518 466.091174 
L 148.574495 133.743567 
L 148.630821 133.656153 
L 148.743472 143.377114 
L 148.968775 182.301998 
L 149.081427 281.6565 
L 149.250404 447.445662 
L 149.588358 461.345988 
L 149.701009 453.697756 
L 149.982638 404.223076 
L 150.038964 401.22985 
L 150.376918 468.694237 
L 150.658546 403.899262 
L 150.714872 404.049933 
L 150.827524 421.084988 
L 150.996501 483.087472 
L 151.052826 482.219131 
L 151.109152 481.932789 
L 151.334455 474.150901 
L 151.390781 470.10291 
L 151.447106 470.839285 
L 151.503432 472.107158 
L 151.616083 466.947663 
L 151.672409 468.295163 
L 151.841386 478.210967 
L 151.954038 477.117835 
L 152.066689 471.379004 
L 152.123015 467.764005 
L 152.179341 467.950675 
L 152.348318 473.780217 
L 152.404643 475.559751 
L 152.460969 474.148997 
L 152.629946 467.255002 
L 152.798923 478.076171 
L 152.855249 477.492064 
L 152.911575 478.117213 
L 153.024226 483.246133 
L 153.080552 482.466137 
L 153.136878 482.605294 
L 153.193203 482.532727 
L 153.36218 488.649996 
L 153.418506 488.21895 
L 153.474832 488.491754 
L 153.643809 488.50955 
L 153.812786 486.354155 
L 153.869112 486.232607 
L 154.432369 490.813749 
L 154.657672 489.741048 
L 154.826649 489.777835 
L 154.9393 490.624818 
L 155.051952 490.090274 
L 155.164603 490.385305 
L 155.277254 489.493064 
L 155.33358 489.937645 
L 155.389906 489.779868 
L 155.446231 489.848272 
L 155.502557 489.743506 
L 155.615209 489.695988 
L 155.784186 488.977857 
L 155.896837 489.106329 
L 156.009489 490.26343 
L 156.065814 490.076284 
L 156.291117 486.736165 
L 156.347443 486.841291 
L 156.798048 490.561817 
L 156.854374 490.497944 
L 157.079677 489.498797 
L 157.136003 489.593985 
L 157.192328 490.227003 
L 157.248654 490.067905 
L 157.417631 488.413638 
L 157.473957 488.477088 
L 157.642934 489.713263 
L 157.69926 489.540762 
L 157.811911 489.653839 
L 157.868237 490.27264 
L 157.924563 490.138017 
L 158.206191 485.131479 
L 158.262517 485.524332 
L 158.318843 485.374665 
L 158.48782 487.999638 
L 158.544145 487.579301 
L 158.600471 487.26261 
L 158.713122 487.95891 
L 158.938425 486.448328 
L 159.051077 486.613081 
L 159.220054 487.428836 
L 159.332705 487.365849 
L 159.389031 486.85312 
L 159.558008 488.309907 
L 159.614334 486.475822 
L 159.670659 486.582218 
L 159.726985 486.540861 
L 159.783311 486.17282 
L 159.839637 486.523777 
L 159.895962 486.715581 
L 160.008614 483.623142 
L 160.064939 483.774924 
L 160.233917 482.476695 
L 160.346568 482.540991 
L 160.402894 482.408215 
L 160.459219 482.567105 
L 160.515545 484.692343 
L 160.571871 484.21203 
L 160.628197 484.450676 
L 160.684522 483.94446 
L 160.797174 484.80618 
L 160.853499 484.732203 
L 161.022476 489.682292 
L 161.135128 488.949154 
L 161.247779 490.310178 
L 161.360431 489.221957 
L 161.585734 489.124737 
L 161.642059 489.389549 
L 161.811036 488.726254 
L 161.867362 489.801298 
L 162.092665 485.741516 
L 162.148991 485.815259 
L 162.374293 488.134999 
L 162.430619 489.282505 
L 162.486945 488.600026 
L 162.543271 488.796394 
L 162.599596 488.685248 
L 162.768573 483.160141 
L 162.93755 482.462059 
L 163.106528 487.985583 
L 163.219179 490.089058 
L 163.557133 487.646836 
L 163.613459 487.710988 
L 163.782436 488.676126 
L 163.838762 488.365357 
L 163.951413 488.933149 
L 164.007739 488.749868 
L 164.064065 488.70516 
L 164.12039 487.610881 
L 164.176716 488.108642 
L 164.233042 488.11071 
L 164.289367 488.33937 
L 164.345693 487.86485 
L 164.627322 480.740532 
L 164.796299 483.636447 
L 164.90895 484.023285 
L 165.021602 485.323761 
L 165.30323 482.412077 
L 165.359556 482.531548 
L 165.528533 486.49107 
L 165.584859 486.465781 
L 165.641184 485.970398 
L 165.69751 486.052537 
L 165.810162 486.555717 
L 165.979139 488.393508 
L 166.035464 488.342015 
L 166.09179 488.594986 
L 166.148116 488.185173 
L 166.317093 484.521449 
L 166.373419 484.49505 
L 166.429744 485.322339 
L 166.48607 485.239595 
L 166.542396 483.817134 
L 166.824024 457.132358 
L 166.936676 460.905625 
L 167.218304 481.060997 
L 167.27463 481.904098 
L 167.387281 486.981801 
L 167.443607 486.462929 
L 167.499933 486.05426 
L 167.556258 486.226898 
L 167.612584 487.739167 
L 167.66891 486.470547 
L 167.950538 471.034432 
L 168.119515 475.677472 
L 168.232167 479.731809 
L 168.288493 479.218233 
L 168.513795 473.60913 
L 168.626447 475.381486 
L 168.85175 489.823291 
L 168.964401 488.368092 
L 169.020727 488.380326 
L 169.358681 481.60663 
L 169.471332 482.30016 
L 169.583984 483.728199 
L 169.64031 483.636821 
L 169.696635 483.201162 
L 169.865612 479.508263 
L 169.921938 480.648945 
L 169.978264 480.426432 
L 170.090915 479.839338 
L 170.147241 480.46506 
L 170.372544 487.928711 
L 170.428869 487.05788 
L 170.541521 484.809673 
L 170.597847 485.119455 
L 170.654172 485.248891 
L 170.710498 485.181992 
L 170.766824 484.868543 
L 170.823149 483.267318 
L 170.879475 483.593642 
L 170.992127 483.458864 
L 171.048452 483.019294 
L 171.217429 485.101175 
L 171.273755 484.939785 
L 171.330081 484.898909 
L 171.499058 487.729806 
L 171.555384 487.328494 
L 171.724361 485.449792 
L 171.837012 486.91926 
L 171.893338 486.843565 
L 171.949664 486.639751 
L 172.005989 486.662737 
L 172.062315 487.801189 
L 172.118641 487.174684 
L 172.231292 487.41549 
L 172.512921 485.132724 
L 172.625572 483.382106 
L 172.681898 483.680074 
L 172.794549 483.752254 
L 172.850875 483.41241 
L 173.357806 488.217229 
L 173.414132 488.101474 
L 173.583109 487.405976 
L 173.639435 487.209692 
L 173.69576 487.253195 
L 173.752086 487.241616 
L 173.808412 487.662833 
L 173.921063 486.823267 
L 173.977389 487.102125 
L 174.033715 488.879641 
L 174.315343 477.47327 
L 174.371669 476.918214 
L 174.48432 478.059974 
L 174.596972 484.031553 
L 174.653297 482.542914 
L 174.934926 467.371154 
L 174.991252 467.509486 
L 175.27288 486.799116 
L 175.385532 484.777196 
L 175.441857 485.373637 
L 175.610834 480.217457 
L 175.66716 481.168553 
L 175.723486 480.517303 
L 176.06144 444.723176 
L 176.117766 447.178433 
L 176.230417 453.318777 
L 176.399394 467.892083 
L 176.45572 467.58436 
L 176.681023 463.527125 
L 176.737349 463.579248 
L 176.793674 464.476714 
L 176.906326 478.538277 
L 176.962651 475.445156 
L 177.187954 457.408351 
L 177.24428 455.851875 
L 177.356931 465.002424 
L 177.525908 477.824334 
L 177.582234 477.892126 
L 177.694886 476.48623 
L 177.920188 473.141745 
L 178.03284 481.990684 
L 178.145491 485.627462 
L 178.370794 475.989988 
L 178.42712 474.982647 
L 178.483445 475.638662 
L 178.596097 475.988282 
L 178.8214 460.592963 
L 178.877725 461.148352 
L 179.272005 487.271816 
L 179.384657 486.611202 
L 179.553634 487.703267 
L 179.666285 485.371251 
L 179.778937 482.875375 
L 179.835262 483.06955 
L 179.947914 485.321343 
L 180.00424 486.706201 
L 180.060565 486.569759 
L 180.173217 486.275035 
L 180.342194 487.175611 
L 180.567497 481.678543 
L 180.849125 484.790685 
L 181.130754 441.581481 
L 181.187079 441.363199 
L 181.299731 449.53391 
L 181.468708 477.334436 
L 181.525034 475.687614 
L 181.581359 475.483123 
L 181.750336 477.469939 
L 181.975639 485.103092 
L 182.088291 484.299648 
L 182.144616 483.18195 
L 182.200942 483.867875 
L 182.369919 485.819511 
L 182.595222 483.585422 
L 182.820525 473.898951 
L 183.045828 471.040846 
L 183.214805 466.677699 
L 183.271131 466.733371 
L 183.383782 474.781026 
L 183.496433 483.881604 
L 183.890713 384.313892 
L 183.947039 385.742956 
L 184.05969 418.662559 
L 184.284993 454.88702 
L 184.622948 467.695378 
L 184.904576 472.872319 
L 185.129879 474.109227 
L 185.24253 473.798715 
L 185.355182 473.502636 
L 185.467833 474.098196 
L 185.524159 474.677547 
L 185.693136 123.197736 
L 185.805787 89.28 
L 185.862113 97.351568 
L 185.974764 169.696123 
L 186.256393 479.365583 
L 186.481696 480.632336 
L 186.594347 480.159986 
L 186.763324 480.84512 
L 186.875976 481.342913 
L 187.044953 482.732426 
L 187.101279 482.710608 
L 187.157604 482.556881 
L 187.270256 483.170411 
L 187.326581 483.137221 
L 187.439233 482.978325 
L 187.551884 483.571102 
L 187.833513 485.073472 
L 187.889838 485.075746 
L 187.946164 485.275077 
L 188.00249 485.088539 
L 188.058816 484.875409 
L 188.115141 484.941632 
L 188.39677 485.598371 
L 188.453096 485.36474 
L 188.509421 485.485197 
L 188.565747 485.515047 
L 188.678398 484.967869 
L 188.734724 485.027088 
L 188.79105 485.078761 
L 189.016353 483.877317 
L 189.129004 483.927543 
L 189.354307 485.062405 
L 189.410633 484.854192 
L 189.466958 484.917236 
L 189.57961 485.380111 
L 189.635935 485.2959 
L 189.804913 484.576352 
L 189.917564 485.031381 
L 189.97389 484.793854 
L 190.030215 484.844497 
L 190.199192 485.493487 
L 190.255518 485.445102 
L 190.649798 480.649748 
L 190.706124 480.324213 
L 190.76245 480.492391 
L 190.818775 480.930362 
L 190.875101 480.589991 
L 190.931427 480.541009 
L 191.156729 481.089444 
L 191.213055 481.050359 
L 191.269381 480.937924 
L 191.382032 481.417406 
L 191.438358 481.033087 
L 191.494684 481.243518 
L 192.226918 484.561638 
L 192.339569 484.215432 
L 192.395895 484.27504 
L 192.452221 484.255811 
L 192.508546 484.075608 
L 192.733849 485.739285 
L 192.846501 486.879409 
L 192.902826 486.851713 
L 193.015478 486.947218 
L 193.240781 486.308778 
L 193.353432 486.079393 
L 193.578735 483.500897 
L 193.691386 483.82174 
L 193.747712 483.937213 
L 194.310969 488.478177 
L 194.367295 488.186503 
L 194.479946 477.858394 
L 194.536272 478.396867 
L 194.8179 259.428189 
L 194.986878 242.293452 
L 195.043203 240.717268 
L 195.099529 242.916157 
L 195.155855 280.886486 
L 195.21218 448.185343 
L 195.381157 192.768704 
L 195.493809 181.084782 
L 195.60646 211.572839 
L 195.719112 288.464796 
L 195.888089 455.049945 
L 195.944415 462.622896 
L 196.00074 453.687808 
L 196.169717 306.378672 
L 196.282369 294.959537 
L 196.676649 181.322536 
L 196.732974 182.414388 
L 196.7893 188.637094 
L 196.901952 274.906104 
L 197.070929 443.02962 
L 197.352557 470.322016 
L 197.634186 474.889359 
L 197.690511 475.973256 
L 197.746837 475.883558 
L 198.141117 465.199229 
L 198.253769 468.258873 
L 198.704374 484.391771 
L 198.7607 484.53857 
L 198.929677 482.200433 
L 199.211306 479.525942 
L 199.380283 477.56802 
L 199.605585 303.04423 
L 199.661911 296.215097 
L 199.718237 297.997405 
L 199.830888 330.224596 
L 199.999865 484.954464 
L 200.112517 484.558986 
L 200.394145 486.109665 
L 200.563122 486.538123 
L 200.619448 486.51081 
L 200.788425 486.484166 
L 200.957402 487.141665 
L 201.182705 487.920441 
L 201.689637 487.235286 
L 201.858614 487.661419 
L 202.027591 488.054147 
L 202.140242 487.889873 
L 202.309219 487.51544 
L 202.421871 488.342787 
L 202.478197 488.954195 
L 202.647174 485.702076 
L 202.759825 485.731954 
L 202.872476 485.051593 
L 203.041454 480.627528 
L 203.154105 480.925068 
L 203.266756 481.457251 
L 203.492059 484.140002 
L 203.773688 487.693575 
L 203.830013 487.578462 
L 203.886339 486.838358 
L 203.998991 481.90445 
L 204.167968 438.541992 
L 204.449596 425.372554 
L 204.562248 418.649054 
L 204.618573 460.81799 
L 204.674899 459.966362 
L 204.731225 456.191448 
L 204.78755 456.863155 
L 204.843876 456.400194 
L 205.012853 448.440527 
L 205.350808 414.361919 
L 205.407133 415.697872 
L 205.632436 439.482183 
L 205.688762 434.959346 
L 205.745087 421.804135 
L 205.914065 206.168532 
L 206.026716 186.479294 
L 206.139367 206.540799 
L 206.252019 285.068402 
L 206.36467 396.610232 
L 206.420996 396.86576 
L 206.533647 399.58465 
L 206.927927 381.467288 
L 206.984253 382.958132 
L 207.15323 407.81409 
L 207.322207 181.030853 
L 207.434859 156.196237 
L 207.491184 162.205189 
L 207.603836 218.294799 
L 207.885464 450.989495 
L 208.054441 465.637914 
L 208.33607 492.48 
L 391.000336 492.48 
L 391.112988 422.242162 
L 391.563594 422.242162 
L 391.676245 492.48 
L 392.295828 492.48 
L 392.464805 369.2741 
L 392.633782 333.577413 
L 392.690108 332.650715 
L 392.746433 333.302641 
L 392.859085 338.256335 
L 392.971736 445.138641 
L 393.028062 441.391965 
L 393.140713 458.229842 
L 393.197039 451.797042 
L 393.366016 414.80482 
L 393.872948 267.522956 
L 393.929273 268.168288 
L 393.985599 265.793664 
L 394.09825 203.344171 
L 394.154576 209.923669 
L 394.267227 247.121879 
L 394.323553 244.673684 
L 394.379879 242.867466 
L 394.717833 492.48 
L 394.774159 492.48 
L 394.943136 339.982707 
L 395.112113 318.351525 
L 395.224764 320.783967 
L 395.337416 322.87508 
L 395.393742 399.363928 
L 395.450067 375.535116 
L 395.788022 277.009114 
L 395.900673 286.87914 
L 395.956999 279.592944 
L 396.125976 231.458686 
L 396.182301 239.55395 
L 396.294953 289.610186 
L 396.351279 283.396227 
L 396.46393 259.893281 
L 396.520256 289.406501 
L 396.576581 402.741531 
L 396.632907 373.508233 
L 396.85821 241.106838 
L 396.914536 244.260255 
L 397.083513 282.38815 
L 397.25249 233.841271 
L 397.308816 246.737793 
L 397.477793 312.134777 
L 397.534118 311.532864 
L 397.590444 312.741785 
L 397.64677 332.229284 
L 397.815747 492.48 
L 398.04105 492.48 
L 398.097376 485.558364 
L 398.547981 247.848813 
L 398.604307 247.848813 
L 398.660633 249.047953 
L 398.716958 246.732363 
L 398.82961 251.730163 
L 398.885935 294.731343 
L 399.054913 455.981814 
L 399.280215 455.981814 
L 399.336541 458.279646 
L 399.449192 492.48 
L 399.505518 492.48 
L 399.674495 394.785889 
L 399.899798 394.785889 
L 400.068775 373.996728 
L 400.125101 436.90752 
L 400.181427 436.771551 
L 400.463055 436.771551 
L 400.519381 442.949899 
L 400.632032 492.48 
L 400.688358 492.48 
L 400.969987 392.655189 
L 401.026312 392.132339 
L 401.138964 405.776241 
L 401.420592 490.186285 
L 401.702221 387.584364 
L 402.040175 383.625002 
L 402.096501 397.398444 
L 402.209152 491.259296 
L 402.434455 491.34742 
L 402.659758 491.263243 
L 402.885061 492.273632 
L 402.997712 491.186549 
L 403.448318 491.187189 
L 403.617295 492.129114 
L 404.0679 492.218279 
L 404.405855 201.944826 
L 404.46218 201.986727 
L 404.687483 260.799396 
L 404.743809 253.343032 
L 404.85646 221.362274 
L 405.307066 329.560882 
L 405.476043 492.48 
L 440.848587 492.48 
L 441.07389 370.360296 
L 441.242867 351.680064 
L 441.299192 353.409579 
L 441.411844 369.491752 
L 441.580821 491.235033 
L 441.806124 492.238687 
L 442.087752 492.267448 
L 442.369381 492.232127 
L 442.876312 492.340356 
L 443.045289 492.249592 
L 443.270592 492.287988 
L 443.439569 492.327351 
L 445.016689 492.265407 
L 445.185666 492.176791 
L 445.974226 492.241604 
L 446.31218 492.128563 
L 446.593809 492.188406 
L 446.875437 492.285337 
L 448.114603 492.31939 
L 448.28358 492.145207 
L 448.508883 492.236198 
L 448.67786 492.304672 
L 448.903163 492.043675 
L 448.959489 492.088903 
L 449.184791 492.304525 
L 449.353769 492.406564 
L 450.64926 492.391284 
L 450.930888 492.27876 
L 451.156191 492.297544 
L 451.43782 492.353307 
L 452.620659 492.393981 
L 453.014939 492.401671 
L 453.578197 492.326255 
L 454.028802 492.389795 
L 454.648385 492.322311 
L 455.155316 492.359096 
L 456.169179 492.370642 
L 456.338156 492.130975 
L 458.534859 492.236712 
L 458.703836 492.188008 
L 459.548721 492.172476 
L 459.661373 492.00941 
L 459.717699 492.045603 
L 460.506258 492.115575 
L 460.956864 492.12914 
L 461.238493 492.158566 
L 461.40747 492.266342 
L 462.365007 492.350553 
L 462.59031 492.289592 
L 462.98459 492.280452 
L 463.773149 492.281445 
L 463.942127 492.17866 
L 464.336406 492.215946 
L 464.505384 492.31112 
L 464.843338 492.251721 
L 465.012315 492.329218 
L 467.096366 492.284324 
L 467.209017 491.632761 
L 467.377995 491.163109 
L 467.490646 491.262975 
L 468.22288 492.306035 
L 468.504509 492.414907 
L 471.433445 492.345035 
L 471.827725 492.322024 
L 471.996703 492.329867 
L 472.109354 489.483805 
L 472.334657 489.505761 
L 472.55996 489.515322 
L 472.728937 492.400292 
L 472.841588 492.284757 
L 473.066891 492.042124 
L 473.235868 492.12893 
L 473.517497 492.429804 
L 473.742799 492.370119 
L 474.080754 492.315639 
L 474.418708 492.067601 
L 474.644011 491.790643 
L 474.812988 492.025818 
L 474.981965 492.378131 
L 475.488896 492.322972 
L 475.657873 492.149438 
L 475.939502 492.230773 
L 476.164805 492.412186 
L 476.61541 492.430975 
L 476.784388 492.213848 
L 477.178668 492.157545 
L 477.291319 492.298378 
L 477.347645 492.298164 
L 477.516622 492.166006 
L 477.79825 492.253621 
L 477.967227 492.262064 
L 478.248856 492.286614 
L 478.755787 492.309811 
L 478.98109 492.432395 
L 479.206393 492.366193 
L 479.262719 489.746075 
L 479.319044 489.763511 
L 479.600673 489.607025 
L 479.76965 489.503933 
L 479.938627 492.331613 
L 482.867564 492.263326 
L 483.036541 492.227508 
L 483.430821 492.283057 
L 483.599798 492.347716 
L 484.669987 492.327748 
L 485.176918 492.357472 
L 485.514872 492.340125 
L 485.852826 492.373332 
L 486.078129 492.322316 
L 487.7679 492.170091 
L 487.993203 492.255428 
L 488.218506 492.232137 
L 488.500135 492.245716 
L 489.457672 491.724442 
L 489.851952 491.919126 
L 490.077254 491.83802 
L 490.302557 491.853242 
L 490.92214 492.090218 
L 491.260094 492.023337 
L 491.485397 491.949817 
L 491.598048 491.886796 
L 491.767026 492.006257 
L 491.992328 491.994107 
L 492.048654 491.945806 
L 492.10498 492.031049 
L 492.780888 491.86935 
L 492.89354 491.920053 
L 493.175168 491.771156 
L 493.344145 491.862928 
L 493.513122 491.907297 
L 493.6821 492.161745 
L 493.851077 492.16808 
L 493.907402 492.247448 
L 493.963728 492.199523 
L 494.07638 492.094245 
L 494.470659 492.133643 
L 495.090242 492.092325 
L 495.315545 492.257606 
L 495.540848 492.157075 
L 495.709825 492.222068 
L 496.780013 492.265291 
L 496.948991 492.22528 
L 497.230619 492.270924 
L 499.596299 492.22204 
L 500.10323 492.218105 
L 500.49751 492.40851 
L 500.722813 492.336479 
L 501.793001 492.228042 
L 501.961978 492.420287 
L 502.806864 492.224622 
L 503.032167 492.366335 
L 503.201144 492.311158 
L 503.595424 492.250674 
L 503.764401 492.333018 
L 505.397847 492.215799 
L 505.566824 492.291025 
L 506.186406 492.253496 
L 506.355384 492.128453 
L 506.749664 492.130985 
L 506.918641 492.257377 
L 507.538223 492.14655 
L 507.650875 492.226637 
L 507.819852 492.2988 
L 508.10148 492.217909 
L 508.383109 492.21664 
L 508.664738 492.383167 
L 509.059017 492.345808 
L 509.509623 492.11927 
L 509.791252 492.215506 
L 509.903903 492.328598 
L 510.016555 492.186673 
L 510.298183 492.14241 
L 510.46716 492.094649 
L 510.636137 492.296745 
L 510.748789 492.256596 
L 510.86144 492.008888 
L 510.917766 492.038737 
L 511.25572 492.083247 
L 511.312046 492.033913 
L 511.368371 492.111391 
L 511.537349 492.269927 
L 512.213257 492.225724 
L 512.43856 492.133456 
L 513.283445 492.112575 
L 513.452423 492.306896 
L 513.6214 492.252909 
L 513.959354 492.04777 
L 514.522611 492.310376 
L 514.973217 492.297522 
L 515.254845 491.730711 
L 515.480148 491.828818 
L 516.156057 491.866754 
L 516.268708 492.131818 
L 516.325034 492.104723 
L 516.606662 492.114856 
L 516.775639 491.908697 
L 516.944616 491.997354 
L 517.113594 491.673242 
L 517.338896 491.730841 
L 517.507873 492.17527 
L 517.733176 492.376091 
L 517.958479 492.016382 
L 518.014805 492.005032 
L 518.240108 491.612464 
L 518.46541 491.576732 
L 518.634388 491.715632 
L 518.803365 491.838761 
L 518.972342 491.510532 
L 519.084993 491.361099 
L 519.141319 491.435736 
L 519.310296 491.867353 
L 519.366622 491.65125 
L 519.64825 491.472928 
L 519.873553 491.528661 
L 519.986205 491.997814 
L 520.04253 491.958632 
L 520.155182 492.175397 
L 520.211507 491.935896 
L 520.267833 491.95508 
L 520.718439 491.895331 
L 520.887416 492.177034 
L 521.169044 492.017204 
L 521.338022 491.640394 
L 521.732301 491.63819 
L 521.901279 492.066233 
L 522.070256 491.776326 
L 522.464536 491.649988 
L 522.577187 491.899559 
L 522.633513 491.840858 
L 522.971467 490.947973 
L 523.084118 490.75457 
L 523.140444 490.9502 
L 523.253096 491.640183 
L 523.365747 491.640364 
L 523.422073 491.68977 
L 523.534724 491.177992 
L 523.59105 491.185656 
L 523.816353 490.828594 
L 523.929004 491.329729 
L 523.98533 491.278768 
L 524.154307 491.171384 
L 524.210633 491.203614 
L 524.323284 490.66901 
L 524.37961 490.851272 
L 524.435935 490.864372 
L 524.548587 490.5585 
L 524.717564 489.475654 
L 524.77389 489.489854 
L 525.16817 490.677689 
L 525.280821 490.618965 
L 525.337147 490.709214 
L 525.393472 490.60098 
L 525.506124 490.654416 
L 525.56245 490.901661 
L 525.618775 490.795968 
L 525.731427 490.724394 
L 525.900404 491.547448 
L 526.013055 491.484109 
L 526.125707 492.024703 
L 526.182032 492.014388 
L 526.632638 492.086025 
L 526.970592 492.051025 
L 527.139569 492.425561 
L 527.984455 492.378926 
L 528.773015 492.426323 
L 528.941992 491.565133 
L 528.998318 490.8142 
L 529.054643 490.829338 
L 529.279946 491.082127 
L 529.448923 491.218402 
L 529.505249 491.205434 
L 529.674226 492.381752 
L 530.01218 492.137898 
L 530.462786 492.276817 
L 530.688089 492.224416 
L 530.857066 492.286314 
L 531.251346 491.911172 
L 531.307672 491.46267 
L 531.363997 491.522602 
L 531.420323 491.598001 
L 531.476649 491.530457 
L 531.98358 491.608827 
L 532.096231 491.577661 
L 532.265209 491.918959 
L 532.321534 491.855802 
L 532.434186 491.728599 
L 532.490511 491.820958 
L 532.546837 491.719061 
L 532.828466 491.519178 
L 532.997443 490.938771 
L 533.110094 490.912935 
L 533.222746 491.14062 
L 533.504374 491.964356 
L 533.898654 491.757068 
L 534.067631 491.43572 
L 534.123957 491.503019 
L 534.292934 491.648667 
L 534.518237 492.065532 
L 534.630888 492.019065 
L 534.687214 492.08207 
L 535.025168 491.622344 
L 535.081494 491.53963 
L 535.419448 492.176047 
L 535.5321 492.199659 
L 535.813728 492.086156 
L 536.151682 492.369965 
L 536.602288 492.293238 
L 536.714939 491.869106 
L 536.771265 491.889879 
L 537.221871 492.045641 
L 537.334522 492.369906 
L 538.292059 492.278332 
L 538.517362 492.130432 
L 539.193271 492.293359 
L 539.474899 492.278921 
L 539.869179 492.366648 
L 543.079744 492.231162 
L 543.305047 492.130442 
L 543.53035 492.197433 
L 543.755653 492.208685 
L 543.92463 492.405224 
L 544.149933 492.302022 
L 544.600538 492.226423 
L 544.71319 492.2467 
L 544.938493 491.91454 
L 545.558075 492.004252 
L 545.727052 492.2925 
L 545.783378 492.238403 
L 546.008681 492.169675 
L 546.29031 492.224821 
L 546.571938 490.205224 
L 546.797241 490.234606 
L 546.909892 490.647174 
L 547.191521 489.574903 
L 547.247847 489.564908 
L 547.304172 489.689353 
L 547.642127 491.896735 
L 547.811104 491.959488 
L 547.867429 491.862123 
L 547.923755 491.923061 
L 548.036406 491.830998 
L 548.092732 491.765315 
L 548.374361 490.789729 
L 548.543338 491.161465 
L 548.655989 492.186737 
L 548.712315 492.103401 
L 549.050269 491.758012 
L 549.219246 492.022297 
L 549.331898 492.029586 
L 549.500875 492.235418 
L 550.007806 492.242214 
L 550.120458 492.195353 
L 550.34576 491.30894 
L 550.514738 491.231741 
L 550.74004 491.184285 
L 550.965343 492.316067 
L 551.077995 492.124807 
L 551.303297 492.131948 
L 551.979206 492.279274 
L 552.204509 491.128799 
L 552.373486 491.331251 
L 552.486137 491.653337 
L 552.598789 491.957908 
L 553.049394 491.835241 
L 553.218371 492.29708 
L 553.387349 492.290577 
L 553.781629 492.204023 
L 553.950606 492.306282 
L 554.232234 492.279343 
L 554.513863 492.318893 
L 554.68284 492.244479 
L 554.908143 490.779125 
L 555.020794 490.605108 
L 555.07712 490.679045 
L 555.189771 491.297285 
L 555.358748 492.11159 
L 555.4714 492.055268 
L 555.640377 492.007034 
L 556.25996 492.120631 
L 556.428937 491.727097 
L 556.823217 491.793718 
L 556.992194 492.290867 
L 557.217497 492.317278 
L 557.499125 492.30554 
L 558.344011 492.037021 
L 558.400336 492.250435 
L 558.456662 492.181135 
L 558.681965 492.19651 
L 559.188896 492.337156 
L 559.245222 492.311331 
L 559.583176 491.00943 
L 559.639502 491.103523 
L 559.695828 491.125787 
L 559.977456 490.777964 
L 560.090108 490.750059 
L 560.259085 492.127874 
L 560.653365 492.086689 
L 560.766016 492.021784 
L 561.047645 491.961334 
L 561.10397 492.024957 
L 561.160296 491.955246 
L 561.329273 492.02096 
L 561.49825 492.24463 
L 561.554576 492.192608 
L 561.667227 492.060615 
L 561.723553 492.093963 
L 561.89253 492.055 
L 562.061507 491.216667 
L 562.343136 491.083799 
L 562.455787 491.01762 
L 562.793742 492.286668 
L 563.019044 492.300397 
L 563.188022 492.086621 
L 563.356999 491.60533 
L 563.413324 491.601208 
L 563.525976 491.480031 
L 564.483513 491.715315 
L 564.596164 491.956778 
L 564.708816 491.937143 
L 564.877793 492.24426 
L 565.159421 492.364665 
L 565.384724 491.007332 
L 565.44105 491.035306 
L 565.666353 491.383767 
L 566.116958 492.336575 
L 566.398587 492.251962 
L 566.680215 492.237552 
L 567.468775 492.187122 
L 567.975707 491.965363 
L 568.201009 491.533106 
L 568.369987 491.564699 
L 568.651615 491.904009 
L 568.764266 491.862524 
L 569.045895 492.103709 
L 569.214872 491.990302 
L 569.327524 492.05269 
L 569.609152 492.024957 
L 569.778129 492.146715 
L 569.947106 492.158247 
L 570.059758 491.975956 
L 570.228735 492.064021 
L 570.397712 491.921208 
L 570.510363 491.921995 
L 570.623015 492.073967 
L 570.679341 492.029916 
L 570.791992 491.954066 
L 570.960969 492.025695 
L 571.411575 492.067382 
L 571.524226 491.969988 
L 571.805855 491.960978 
L 571.974832 491.804218 
L 572.143809 491.87556 
L 572.25646 491.850025 
L 572.312786 491.679284 
L 572.369112 491.779604 
L 572.707066 491.755936 
L 572.932369 492.134471 
L 573.101346 491.955418 
L 573.382974 491.834851 
L 573.495626 491.6247 
L 573.777254 491.794635 
L 573.83358 491.797478 
L 574.058883 492.262271 
L 574.565814 492.05621 
L 574.62214 491.772117 
L 574.678466 491.804132 
L 574.734791 491.798812 
L 574.903769 491.944508 
L 575.129071 491.899031 
L 575.185397 491.986761 
L 575.241723 491.904703 
L 575.748654 491.990439 
L 575.917631 492.154196 
L 576.030283 492.171344 
L 576.19926 491.804188 
L 576.480888 491.863797 
L 576.59354 491.845516 
L 576.706191 491.977102 
L 576.931494 491.98667 
L 577.100471 492.139885 
L 577.213122 492.167593 
L 577.3821 492.310491 
L 577.494751 492.1126 
L 577.663728 491.435767 
L 578.058008 491.504825 
L 578.114334 492.14404 
L 578.170659 492.077986 
L 579.071871 492.227978 
L 579.240848 492.292651 
L 579.578802 492.079959 
L 579.747779 491.998385 
L 579.916756 492.10245 
L 580.254711 492.172864 
L 580.648991 492.155948 
L 580.874293 492.11742 
L 581.043271 491.903487 
L 581.719179 492.045037 
L 581.888156 492.212167 
L 582.169785 492.296042 
L 582.282436 492.195796 
L 582.564065 492.24634 
L 582.845693 492.24573 
L 583.01467 492.220655 
L 583.296299 492.201855 
L 583.465276 492.097154 
L 583.859556 492.076944 
L 583.972207 492.207557 
L 584.028533 492.157225 
L 584.929744 492.17681 
L 585.436676 492.168979 
L 585.605653 491.936349 
L 585.77463 491.841667 
L 585.999933 491.869443 
L 586.16891 492.131969 
L 586.394213 492.277752 
L 586.506864 492.322931 
L 586.788493 492.14597 
L 587.858681 492.014535 
L 588.027658 492.183181 
L 589.097847 492.191132 
L 589.492127 491.339548 
L 589.773755 491.311814 
L 589.830081 491.836122 
L 589.886406 491.790817 
L 590.055384 491.684233 
L 590.224361 492.113173 
L 590.337012 492.121361 
L 590.505989 492.234706 
L 590.674966 492.160816 
L 591.238223 492.022537 
L 591.407201 492.151915 
L 591.632503 492.228568 
L 592.252086 492.142269 
L 592.533715 492.154444 
L 592.59004 492.162032 
L 592.646366 491.517471 
L 592.702692 491.52783 
L 593.153297 491.615506 
L 593.209623 492.256202 
L 593.265949 492.216374 
L 593.3786 491.925251 
L 594.054509 492.00266 
L 594.223486 492.017693 
L 594.448789 492.092552 
L 594.617766 492.013911 
L 594.674092 491.999822 
L 594.899394 491.742501 
L 595.012046 491.659879 
L 595.181023 491.837533 
L 595.35 491.753638 
L 595.462651 491.701634 
L 595.687954 491.147064 
L 595.913257 491.323404 
L 596.194886 491.369657 
L 596.363863 491.940101 
L 596.420188 492.111172 
L 596.53284 491.928278 
L 596.758143 491.946392 
L 596.983445 491.857148 
L 597.152423 492.017053 
L 597.208748 491.970852 
L 597.265074 492.043459 
L 597.71568 491.997608 
L 597.828331 492.204517 
L 598.053634 491.919909 
L 598.50424 492.029486 
L 598.729542 491.880521 
L 598.89852 491.953458 
L 599.180148 491.930237 
L 599.461777 491.968188 
L 599.630754 491.661883 
L 599.687079 491.750773 
L 599.743405 491.708268 
L 599.856057 491.498967 
L 600.025034 491.529146 
L 600.250336 491.554991 
L 600.306662 491.740927 
L 600.362988 491.649203 
L 600.531965 491.213387 
L 600.588291 491.209397 
L 600.757268 491.691332 
L 600.813594 491.621933 
L 600.869919 491.753866 
L 600.982571 490.882181 
L 601.038896 490.933149 
L 601.151548 491.059493 
L 601.489502 491.660928 
L 601.545828 491.754122 
L 601.602153 491.716051 
L 601.827456 491.169925 
L 601.996433 491.358752 
L 602.109085 491.075693 
L 602.16541 491.440051 
L 602.221736 491.398634 
L 602.334388 491.406994 
L 602.447039 491.64663 
L 602.728668 491.233734 
L 603.066622 491.360681 
L 603.235599 491.82219 
L 603.686205 491.277055 
L 603.855182 491.360485 
L 603.967833 491.502663 
L 604.13681 491.883053 
L 604.474764 492.134754 
L 604.92537 491.647422 
L 605.038022 491.578503 
L 605.31965 491.264039 
L 605.375976 491.403529 
L 605.432301 491.363146 
L 605.544953 491.388468 
L 605.71393 490.58175 
L 605.770256 490.852122 
L 605.826581 490.752186 
L 605.939233 490.718976 
L 605.995559 490.845766 
L 606.051884 490.766157 
L 606.10821 490.764487 
L 606.389838 491.700407 
L 606.446164 491.620504 
L 606.558816 491.609221 
L 606.727793 491.938406 
L 607.009421 492.061029 
L 607.178398 491.963705 
L 607.347376 491.953311 
L 607.516353 491.774741 
L 607.910633 492.267023 
L 608.811844 492.111987 
L 608.980821 491.774758 
L 609.093472 491.262049 
L 609.149798 491.343973 
L 609.318775 491.446747 
L 609.544078 491.431876 
L 609.825707 492.299836 
L 609.938358 492.301028 
L 610.107335 492.261284 
L 611.797106 492.316585 
L 612.191386 492.33483 
L 612.979946 492.236145 
L 613.148923 491.943883 
L 613.3179 491.823315 
L 613.430552 491.754963 
L 613.937483 492.236473 
L 614.10646 492.27128 
L 614.331763 492.108493 
L 614.50074 492.003742 
L 614.726043 492.160088 
L 615.007672 492.206963 
L 615.345626 492.331532 
L 615.570929 492.398649 
L 616.584791 492.460154 
L 616.922746 491.774928 
L 616.979071 491.821669 
L 617.148048 492.141763 
L 617.317026 492.280715 
L 617.429677 492.308677 
L 617.65498 492.198317 
L 617.823957 492.210641 
L 618.04926 492.094566 
L 618.161911 491.834966 
L 618.218237 477.679584 
L 618.330888 221.517074 
L 618.387214 225.406685 
L 618.612517 244.588977 
L 619.006797 342.466755 
L 619.2321 198.449581 
L 619.288425 192.597848 
L 619.344751 195.821305 
L 619.457402 239.780986 
L 619.739031 475.113098 
L 619.795357 461.385494 
L 620.020659 371.09914 
L 620.133311 366.620622 
L 620.245962 379.647579 
L 620.302288 394.577909 
L 620.471265 491.94292 
L 620.640242 492.284406 
L 620.809219 492.236407 
L 621.316151 492.30591 
L 621.485128 492.169844 
L 622.386339 492.30441 
L 622.442665 492.396727 
L 622.611642 272.361067 
L 622.724293 177.133657 
L 622.780619 179.369578 
L 623.062248 198.992972 
L 623.118573 193.761271 
L 623.231225 260.281226 
L 623.28755 356.180268 
L 623.343876 335.279735 
L 623.512853 278.337297 
L 623.569179 286.418004 
L 623.850808 395.595133 
L 624.019785 194.489937 
L 624.132436 170.85399 
L 624.245087 192.491231 
L 624.357739 281.615759 
L 624.526716 432.031038 
L 624.639367 442.654862 
L 624.86467 387.4023 
L 624.920996 385.225684 
L 625.033647 401.83195 
L 625.371602 491.803297 
L 625.596904 492.237074 
L 627.174024 492.198223 
L 627.455653 492.047406 
L 627.62463 492.223701 
L 627.849933 492.378966 
L 628.131561 492.193477 
L 628.356864 492.055297 
L 628.525841 492.088522 
L 628.694818 492.213315 
L 628.80747 492.187563 
L 629.089098 492.119315 
L 629.483378 492.240928 
L 629.765007 491.882064 
L 630.046635 491.91765 
L 630.159287 491.773231 
L 630.215612 491.831332 
L 630.497241 492.323152 
L 632.187012 492.364504 
L 632.468641 492.363523 
L 632.524966 492.351655 
L 632.750269 491.749397 
L 632.806595 491.778215 
L 633.257201 492.100516 
L 633.426178 492.369205 
L 633.65148 492.347211 
L 633.933109 492.159491 
L 634.102086 492.190481 
L 634.271063 492.329948 
L 634.665343 492.239864 
L 634.946972 492.379438 
L 636.693069 492.317094 
L 636.918371 492.174775 
L 637.143674 492.322132 
L 637.256326 492.339348 
L 637.650606 492.283829 
L 637.875908 492.308432 
L 638.664468 492.293948 
L 638.833445 492.185202 
L 639.227725 492.291025 
L 639.790983 492.261786 
L 640.016285 492.341057 
L 640.241588 492.259282 
L 640.74852 492.260989 
L 641.030148 492.192664 
L 641.537079 492.283275 
L 641.706057 492.194334 
L 641.875034 492.188991 
L 642.156662 492.276864 
L 643.226851 492.24933 
L 643.564805 491.709676 
L 643.733782 492.032756 
L 643.846433 492.269309 
L 644.01541 492.277657 
L 644.184388 492.345688 
L 644.747645 492.163916 
L 645.085599 492.307868 
L 645.367227 492.324834 
L 645.648856 492.294313 
L 645.98681 492.280958 
L 646.212113 492.312946 
L 646.550067 492.329996 
L 647.394953 492.279134 
L 647.56393 492.274884 
L 647.789233 492.409617 
L 648.972073 492.395 
L 649.197376 492.382213 
L 649.479004 492.347991 
L 649.704307 492.269298 
L 650.32389 492.259783 
L 650.661844 492.222507 
L 650.887147 492.353556 
L 653.985061 492.347716 
L 654.266689 492.383744 
L 654.604643 492.305498 
L 654.886272 492.296661 
L 655.055249 492.287757 
L 655.280552 492.377562 
L 655.505855 492.245196 
L 655.787483 492.241242 
L 655.95646 492.298805 
L 656.181763 492.380374 
L 656.576043 492.338359 
L 656.74502 492.37817 
L 657.815209 492.340125 
L 657.984186 492.228106 
L 659.054374 492.362942 
L 659.279677 492.344444 
L 659.561306 492.407504 
L 661.758008 492.372578 
L 662.152288 492.356012 
L 662.321265 492.3246 
L 662.602894 492.283961 
L 662.884522 492.401929 
L 665.13755 492.394773 
L 665.588156 492.389411 
L 665.982436 492.37168 
L 666.939973 492.352976 
L 667.221602 492.411159 
L 668.29179 492.369234 
L 679.106326 492.272338 
L 679.218977 492.083442 
L 679.275303 492.112075 
L 680.458143 492.34757 
L 680.683445 492.283336 
L 680.852423 492.386044 
L 681.0214 492.188185 
L 681.41568 491.905131 
L 681.640983 492.181783 
L 682.035262 492.170136 
L 682.147914 492.242381 
L 682.260565 492.100548 
L 682.316891 492.150661 
L 682.429542 492.125897 
L 682.59852 491.981966 
L 682.767497 492.029156 
L 682.936474 492.286714 
L 683.105451 492.311446 
L 683.330754 492.250167 
L 683.499731 492.195487 
L 683.668708 492.101306 
L 683.837685 492.059529 
L 684.738896 492.152036 
L 685.189502 490.942317 
L 685.640108 492.053809 
L 685.696433 492.010459 
L 685.86541 491.818275 
L 685.978062 490.914592 
L 686.147039 489.859052 
L 686.25969 489.72775 
L 686.372342 490.36626 
L 686.484993 491.57521 
L 686.541319 491.365206 
L 686.766622 491.308814 
L 686.935599 491.603984 
L 686.991925 491.531436 
L 687.44253 492.060092 
L 687.498856 491.99378 
L 687.724159 491.81107 
L 688.005787 492.209636 
L 688.681696 492.161097 
L 688.850673 492.347332 
L 688.963324 492.290697 
L 689.132301 492.104949 
L 690.20249 492.068314 
L 690.315141 492.267725 
L 690.371467 492.230553 
L 690.59677 492.175556 
L 690.765747 491.725362 
L 690.822073 491.774425 
L 690.99105 491.776331 
L 691.216353 491.615311 
L 691.666958 492.285802 
L 691.835935 492.299769 
L 691.892261 492.236991 
L 692.286541 490.488826 
L 692.342867 490.53244 
L 692.737147 491.829353 
L 692.96245 492.326171 
L 693.187752 492.316383 
L 693.356729 492.306817 
L 693.582032 492.019521 
L 693.694684 491.505958 
L 693.863661 490.086069 
L 693.919987 490.073519 
L 694.032638 489.898957 
L 694.145289 490.421176 
L 694.370592 491.585549 
L 694.426918 491.729524 
L 694.539569 492.305313 
L 694.708546 492.169498 
L 694.764872 491.955115 
L 694.821198 491.984136 
L 695.046501 492.038459 
L 695.778735 491.924861 
L 696.060363 490.674711 
L 696.116689 490.600931 
L 696.173015 490.660317 
L 696.229341 490.989082 
L 696.285666 490.932583 
L 696.510969 490.155091 
L 696.62362 490.402675 
L 696.961575 492.416108 
L 697.355855 492.402761 
L 698.426043 492.341493 
L 698.651346 492.234887 
L 699.101952 492.378289 
L 699.665209 492.170863 
L 700.059489 489.92645 
L 700.17214 490.44378 
L 700.510094 492.262883 
L 700.735397 492.312314 
L 701.017026 492.174952 
L 701.129677 492.186695 
L 701.35498 492.008951 
L 702.087214 492.299836 
L 702.481494 492.406564 
L 702.819448 492.385402 
L 703.270054 492.363495 
L 704.678197 492.267619 
L 704.903499 492.024313 
L 705.185128 491.894877 
L 705.410431 491.792459 
L 705.579408 492.147032 
L 705.635734 492.282894 
L 705.692059 492.257769 
L 705.973688 491.713398 
L 706.030013 491.757872 
L 706.367968 492.23013 
L 706.424293 492.181824 
L 706.593271 491.930601 
L 706.762248 491.89628 
L 707.100202 492.113173 
L 707.438156 492.125854 
L 707.888762 492.248991 
L 708.001413 492.115334 
L 708.114065 492.024694 
L 708.677322 492.259344 
L 708.733647 492.24989 
L 708.902624 492.04713 
L 709.465882 492.096228 
L 709.803836 492.351907 
L 710.085464 492.178091 
L 710.93035 492.257552 
L 711.099327 492.309546 
L 711.549933 492.215006 
L 711.71891 491.103275 
L 711.831561 491.097428 
L 712.282167 491.807372 
L 712.563795 491.961788 
L 712.732773 492.098057 
L 712.789098 492.353103 
L 712.845424 492.328093 
L 713.127052 492.238069 
L 713.465007 492.160513 
L 713.69031 492.242908 
L 713.746635 492.332486 
L 713.971938 492.042656 
L 714.08459 492.052524 
L 714.309892 492.310286 
L 714.535195 492.13104 
L 715.211104 492.294278 
L 715.323755 492.150005 
L 715.549058 491.687819 
L 715.718035 491.782098 
L 715.999664 492.279806 
L 716.224966 492.321596 
L 717.238829 492.284902 
L 717.407806 492.320985 
L 717.858412 492.349417 
L 718.14004 492.232072 
L 718.590646 492.298711 
L 718.815949 492.287484 
L 719.041252 492.331788 
L 719.266555 492.29198 
L 719.71716 492.28273 
L 720.224092 492.235761 
L 720.393069 492.133922 
L 720.562046 492.054774 
L 720.843674 492.116622 
L 721.012651 492.210021 
L 721.68856 492.318073 
L 721.970188 492.137389 
L 722.139166 492.214361 
L 722.308143 492.314616 
L 724.955451 492.359631 
L 725.180754 492.412103 
L 725.349731 492.384552 
L 725.518708 492.329759 
L 729.179879 492.270277 
L 729.348856 492.19297 
L 730.531696 492.323983 
L 731.038627 492.258176 
L 731.320256 492.193826 
L 731.65821 492.154407 
L 731.996164 492.377286 
L 732.277793 492.371889 
L 732.44677 492.231997 
L 732.953701 492.32487 
L 733.122678 492.364784 
L 733.967564 492.327388 
L 734.136541 492.297098 
L 734.474495 492.24767 
L 735.544684 492.4242 
L 736.220592 492.327838 
L 737.910363 492.337904 
L 738.023015 492.437462 
L 738.304643 492.263927 
L 739.769112 492.36562 
L 740.557672 492.242418 
L 740.726649 492.261697 
L 740.951952 492.377814 
L 744.951077 492.424971 
L 745.458008 492.411949 
L 747.992665 492.322926 
L 748.161642 492.303425 
L 748.443271 492.382876 
L 748.724899 492.427555 
L 750.696299 492.384248 
L 750.921602 492.213318 
L 751.541184 492.353275 
L 752.498721 492.354253 
L 754.920727 492.337026 
L 755.14603 492.301298 
L 755.315007 492.308766 
L 756.385195 492.38195 
L 756.666824 492.388304 
L 760.665949 492.348727 
L 760.834926 492.407226 
L 761.341857 492.318113 
L 761.510834 492.29019 
L 761.96144 492.326754 
L 762.637349 492.303676 
L 762.862651 492.251396 
L 762.975303 492.172234 
L 763.256931 492.056524 
L 763.482234 491.94533 
L 763.651211 491.955663 
L 763.876514 491.692935 
L 764.101817 491.852367 
L 764.270794 491.586513 
L 764.383445 491.747874 
L 764.496097 492.035653 
L 764.552423 491.956255 
L 764.7214 491.819871 
L 764.946703 492.054251 
L 765.003028 491.936757 
L 765.172005 491.780542 
L 765.284657 491.779079 
L 765.566285 492.19083 
L 765.622611 492.066075 
L 765.791588 491.952783 
L 766.016891 491.951615 
L 766.185868 491.914319 
L 766.411171 492.204198 
L 766.749125 492.192285 
L 767.087079 491.667552 
L 767.312382 491.907617 
L 767.368708 491.804295 
L 767.481359 491.799325 
L 767.988291 492.427478 
L 768.495222 492.214969 
L 768.833176 492.421723 
L 769.058479 492.372128 
L 769.790713 492.050251 
L 769.95969 492.308206 
L 770.016016 492.267725 
L 770.297645 492.293272 
L 770.522948 492.42737 
L 770.917227 492.350909 
L 771.255182 492.12713 
L 771.649462 492.395955 
L 771.874764 490.995726 
L 771.987416 491.018323 
L 772.156393 491.564664 
L 772.269044 492.04552 
L 772.32537 492.027439 
L 772.663324 492.199742 
L 773.001279 491.861966 
L 773.057604 491.935708 
L 773.11393 492.041682 
L 773.282907 490.742263 
L 773.451884 490.827445 
L 773.620861 491.259061 
L 773.958816 492.087865 
L 774.465747 491.98682 
L 774.634724 492.303859 
L 775.366958 492.154794 
L 775.592261 491.844265 
L 775.648587 491.887367 
L 775.817564 492.145542 
L 775.87389 492.084724 
L 776.155518 491.282849 
L 776.324495 491.583385 
L 776.493472 491.782917 
L 776.718775 491.646785 
L 777.282032 492.31011 
L 778.126918 492.26604 
L 778.577524 492.341284 
L 778.802826 492.271376 
L 779.309758 492.391969 
L 779.591386 492.207747 
L 780.098318 492.258176 
L 780.774226 492.182466 
L 780.999529 492.088285 
L 781.281157 492.307339 
L 781.562786 492.302877 
L 781.90074 492.224416 
L 782.238694 491.073239 
L 782.351346 491.348546 
L 782.520323 492.013903 
L 782.576649 491.997983 
L 782.6893 491.862792 
L 782.745626 491.950951 
L 783.027254 491.981124 
L 783.308883 491.522555 
L 783.365209 491.617149 
L 783.703163 492.185739 
L 783.759489 492.134051 
L 783.984791 491.572324 
L 784.153769 491.846938 
L 784.26642 492.150759 
L 784.491723 489.7289 
L 784.604374 489.562302 
L 784.717026 490.056054 
L 784.998654 492.351335 
L 785.561911 492.273769 
L 785.730888 491.988788 
L 785.84354 491.955215 
L 786.406797 492.33236 
L 787.082705 492.313299 
L 787.251682 492.227211 
L 787.589637 492.178048 
L 787.871265 491.81763 
L 787.983917 491.831202 
L 788.096568 492.164701 
L 788.265545 492.445815 
L 788.434522 492.444426 
L 788.603499 492.319249 
L 789.223082 491.968471 
L 789.617362 492.308936 
L 789.955316 492.300307 
L 790.067968 492.307363 
L 790.236945 492.280565 
L 790.518573 492.256596 
L 790.574899 492.266784 
L 790.743876 492.00923 
L 790.800202 492.049266 
L 791.025505 492.17056 
L 791.363459 492.251962 
L 791.588762 492.073316 
L 792.095693 492.205797 
L 792.320996 492.358431 
L 792.602624 492.278776 
L 793.222207 492.378679 
L 793.44751 492.295149 
L 793.616487 492.282354 
L 793.84179 491.991462 
L 794.23607 492.2783 
L 794.574024 492.084045 
L 794.968304 492.212002 
L 795.137281 492.340131 
L 795.362584 492.332246 
L 795.587887 492.355641 
L 795.756864 492.200792 
L 795.925841 491.995996 
L 796.151144 492.080459 
L 796.376447 492.274333 
L 796.60175 492.318548 
L 797.615612 492.298053 
L 797.897241 492.114028 
L 798.066218 492.156473 
L 798.347847 492.37931 
L 799.136406 492.339159 
L 799.474361 492.258789 
L 799.981292 492.1438 
L 800.150269 492.159806 
L 800.375572 492.323446 
L 800.938829 492.346574 
L 801.164132 492.279295 
L 801.333109 492.271775 
L 801.502086 492.171218 
L 802.23432 492.144145 
L 802.290646 490.106306 
L 802.346972 490.115137 
L 802.6286 490.210542 
L 802.797577 490.275152 
L 802.853903 492.228452 
L 802.910229 492.211085 
L 803.304509 492.125387 
L 803.473486 492.003945 
L 803.642463 492.155935 
L 803.81144 492.224745 
L 804.768977 492.264522 
L 804.99428 492.315345 
L 805.219583 492.096512 
L 805.444886 491.660641 
L 805.557537 491.708901 
L 805.670188 491.921531 
L 805.839166 492.384552 
L 807.190983 492.406399 
L 807.35996 492.241486 
L 808.768102 492.44834 
L 809.444011 492.291295 
L 809.725639 492.310572 
L 810.176245 492.358929 
L 810.514199 492.014965 
L 810.964805 492.302968 
L 811.246433 492.406399 
L 811.471736 492.413012 
L 811.640713 492.072856 
L 812.034993 492.235085 
L 812.091319 492.260591 
L 812.260296 492.446651 
L 812.541925 492.247684 
L 815.35821 492.329111 
L 815.808816 492.341005 
L 815.977793 492.393681 
L 818.456124 492.333982 
L 818.681427 492.268915 
L 818.906729 492.378958 
L 819.357335 492.40474 
L 821.610363 492.40005 
L 821.835666 492.446967 
L 822.5679 492.423696 
L 822.96218 492.372766 
L 826.679677 492.303662 
L 826.90498 492.293865 
L 827.130283 492.300591 
L 827.637214 492.37419 
L 828.031494 492.38547 
L 828.313122 492.392336 
L 828.932705 492.374465 
L 830.059219 492.359631 
L 830.228197 492.36647 
L 830.284522 492.330968 
L 830.453499 491.221246 
L 830.904105 491.511982 
L 831.016756 492.289236 
L 831.073082 492.265501 
L 831.298385 492.184576 
L 831.636339 492.324164 
L 832.819179 492.383201 
L 834.002019 492.348696 
L 834.227322 492.413739 
L 834.90323 492.385641 
L 839.521938 492.297451 
L 839.690915 492.280226 
L 839.972544 492.404312 
L 841.155384 492.394169 
L 841.549664 492.410645 
L 843.126783 492.365367 
L 843.408412 492.36591 
L 843.746366 492.266059 
L 844.027995 492.374396 
L 844.253297 492.303859 
L 844.985532 492.271372 
L 845.26716 491.837825 
L 845.323486 491.891002 
L 845.548789 491.924865 
L 845.66144 491.885789 
L 845.774092 492.148392 
L 845.943069 492.37174 
L 846.618977 492.084453 
L 846.900606 492.222795 
L 847.013257 492.172801 
L 847.125908 492.141477 
L 847.23856 492.150592 
L 847.576514 491.382777 
L 847.63284 491.484577 
L 848.083445 492.406312 
L 848.139771 492.36079 
L 848.4214 492.325313 
L 848.703028 492.369205 
L 848.928331 491.792279 
L 849.097308 491.882354 
L 849.491588 492.362317 
L 849.716891 492.321209 
L 849.885868 492.053455 
L 850.392799 492.093217 
L 850.561777 492.078838 
L 850.674428 492.199382 
L 850.843405 492.393747 
L 851.181359 492.304098 
L 851.350336 492.236049 
L 852.364199 492.284126 
L 852.533176 492.395831 
L 853.040108 492.312391 
L 853.321736 492.213666 
L 853.547039 492.182792 
L 853.772342 492.079159 
L 854.05397 492.164355 
L 854.560902 492.333128 
L 854.729879 492.144282 
L 854.898856 492.187232 
L 855.067833 492.239273 
L 855.349462 491.856189 
L 855.405787 491.919483 
L 855.687416 492.105854 
L 855.800067 492.156686 
L 855.912719 492.353581 
L 856.194347 492.12695 
L 856.363324 492.049641 
L 856.532301 491.844648 
L 856.588627 491.914005 
L 856.81393 492.141017 
L 856.982907 492.37899 
L 857.433513 492.24299 
L 857.658816 492.385735 
L 858.841655 492.359009 
L 859.123284 492.28293 
L 859.57389 492.394925 
L 859.799192 492.305498 
L 860.531427 492.395152 
L 860.756729 492.306779 
L 860.925707 492.250734 
L 861.207335 492.128655 
L 861.601615 492.406355 
L 861.939569 492.393308 
L 862.390175 492.428408 
L 865.657066 492.339894 
L 866.163997 492.110724 
L 866.332974 492.071642 
L 866.670929 492.299179 
L 867.403163 492.321295 
L 867.684791 492.355901 
L 868.022746 492.357683 
L 868.417026 492.251944 
L 868.698654 492.408569 
L 868.811306 492.362667 
L 869.14926 492.07683 
L 869.374563 492.300105 
L 869.54354 492.338063 
L 869.881494 492.339923 
L 870.106797 491.914787 
L 870.275774 491.996919 
L 870.670054 492.323461 
L 871.008008 492.219639 
L 871.402288 492.110473 
L 871.683917 492.332579 
L 871.852894 492.259326 
L 872.190848 492.34845 
L 872.416151 491.944568 
L 872.585128 491.933097 
L 873.148385 492.362152 
L 874.38755 492.214711 
L 874.556528 492.050777 
L 874.838156 492.238938 
L 875.063459 492.386811 
L 875.739367 492.307339 
L 875.908345 492.357584 
L 876.189973 492.302513 
L 876.527927 491.539149 
L 876.696904 491.803941 
L 876.922207 492.392816 
L 876.978533 492.33662 
L 877.091184 491.911704 
L 877.14751 491.921851 
L 877.879744 492.213572 
L 878.105047 491.905238 
L 878.386676 492.183303 
L 878.555653 492.388878 
L 879.625841 492.308408 
L 879.90747 492.335387 
L 880.245424 492.402085 
L 880.583378 492.347229 
L 880.752355 492.301583 
L 880.977658 492.269144 
L 881.315612 492.320686 
L 881.597241 492.322254 
L 881.822544 492.382213 
L 883.512315 492.323859 
L 883.681292 492.410412 
L 884.638829 492.344206 
L 885.314738 492.384451 
L 885.54004 492.310872 
L 885.765343 492.37343 
L 885.990646 492.439324 
L 886.3286 492.276004 
L 886.666555 492.23422 
L 886.948183 492.405224 
L 887.51144 492.405657 
L 890.102423 492.223031 
L 890.2714 492.258318 
L 890.66568 492.427171 
L 893.087685 492.4111 
L 921.081561 492.284291 
L 921.306864 492.313959 
L 921.532167 492.402552 
L 921.644818 492.396148 
L 921.870121 491.980317 
L 922.039098 492.024327 
L 922.320727 492.169844 
L 922.54603 492.202087 
L 922.658681 492.253069 
L 922.996635 492.214273 
L 923.278264 492.094691 
L 923.390915 492.112646 
L 923.728869 492.42918 
L 925.080686 492.399637 
L 927.164738 492.455861 
L 928.57288 492.400201 
L 928.854509 492.159521 
L 929.023486 492.240658 
L 929.248789 492.365451 
L 931.107537 492.356266 
L 931.445491 492.416425 
L 932.346703 492.050845 
L 932.51568 491.983734 
L 932.966285 492.334275 
L 933.191588 492.286802 
L 933.416891 492.12498 
L 933.642194 492.143166 
L 933.811171 492.162222 
L 934.036474 492.3865 
L 934.937685 492.075744 
L 935.331965 492.290169 
L 935.726245 491.855046 
L 936.176851 492.182249 
L 937.021736 492.218794 
L 937.247039 491.986925 
L 937.472342 492.206301 
L 937.528668 492.132609 
L 938.091925 491.686333 
L 938.429879 492.160833 
L 938.598856 492.288581 
L 938.767833 492.301493 
L 939.049462 492.240416 
L 940.063324 492.358132 
L 940.344953 492.181816 
L 942.034724 492.423624 
L 943.386541 492.425266 
L 943.724495 492.398046 
L 944.06245 492.366052 
L 944.456729 492.397184 
L 944.625707 492.349386 
L 945.019987 491.617921 
L 945.132638 491.730474 
L 945.526918 492.372016 
L 945.864872 492.383912 
L 946.202826 492.430647 
L 946.428129 491.999524 
L 946.597106 492.040658 
L 946.935061 492.200836 
L 947.160363 492.223031 
L 947.441992 492.113702 
L 947.779946 492.383945 
L 948.061575 492.316506 
L 948.343203 492.187376 
L 948.681157 492.265483 
L 948.90646 492.142269 
L 949.075437 492.226318 
L 949.357066 492.40009 
L 950.596231 492.309144 
L 950.821534 492.262791 
L 951.103163 492.291004 
L 951.384791 492.133969 
L 951.553769 492.270912 
L 951.722746 492.39289 
L 952.0607 492.33478 
L 952.342328 491.964893 
L 952.961911 492.214604 
L 953.130888 492.253211 
L 953.356191 492.402054 
L 953.525168 492.336148 
L 953.750471 491.18625 
L 953.806797 491.111108 
L 953.863122 491.154301 
L 954.0321 491.673427 
L 954.144751 492.165336 
L 954.539031 491.375418 
L 954.595357 491.464394 
L 954.933311 492.235933 
L 955.327591 492.178928 
L 955.496568 492.156414 
L 955.778197 492.362289 
L 956.059825 492.225137 
L 956.679408 492.348432 
L 956.904711 492.217193 
L 957.073688 492.059913 
L 957.242665 492.123573 
L 957.580619 492.337111 
L 957.693271 492.287086 
L 957.974899 492.213727 
L 959.326716 492.320074 
L 959.889973 492.34877 
L 960.115276 492.408085 
L 960.565882 492.367937 
L 960.734859 492.218609 
L 961.016487 492.286114 
L 961.185464 492.350404 
L 961.354441 492.296785 
L 961.63607 492.216068 
L 961.974024 492.363142 
L 962.368304 492.37931 
L 963.551144 492.381555 
L 963.832773 492.246005 
L 964.733984 492.3357 
L 965.18459 492.330621 
L 965.747847 492.380406 
L 967.719246 492.383903 
L 968.057201 492.391785 
L 968.507806 492.277322 
L 968.733109 492.330594 
L 970.141252 492.425784 
L 970.591857 492.32129 
L 971.098789 492.36207 
L 971.324092 492.341051 
L 972 492.39664 
L 972 492.39664 
" clip-path="url(#p67f4d0d75b)" style="fill: none; stroke: #ff6384; stroke-width: 1.5; stroke-linecap: round"/>
   </g>
   <g id="line2d_13">
    <path d="M 135 479.833163 
L 972 479.833163 
" clip-path="url(#p67f4d0d75b)" style="fill: none; stroke-dasharray: 5.55,2.4; stroke-dashoffset: 0; stroke: #000000; stroke-width: 1.5"/>
   </g>
   <g id="patch_3">
    <path d="M 135 512.64 
L 135 69.12 
" style="fill: none; stroke: #262626; stroke-width: 1.25; stroke-linejoin: miter; stroke-linecap: square"/>
   </g>
   <g id="patch_4">
    <path d="M 972 512.64 
L 972 69.12 
" style="fill: none; stroke: #262626; stroke-width: 1.25; stroke-linejoin: miter; stroke-linecap: square"/>
   </g>
   <g id="patch_5">
    <path d="M 135 512.64 
L 972 512.64 
" style="fill: none; stroke: #262626; stroke-width: 1.25; stroke-linejoin: miter; stroke-linecap: square"/>
   </g>
   <g id="patch_6">
    <path d="M 135 69.12 
L 972 69.12 
" style="fill: none; stroke: #262626; stroke-width: 1.25; stroke-linejoin: miter; stroke-linecap: square"/>
   </g>
   <g id="text_22">
    <!-- 이산화탄소 변동성 분석 -->
    <g style="fill: #262626" transform="translate(457.171875 63.12) scale(0.18 -0.18)">
     <defs>
      <path id="MalgunGothic-c0b0" d="M 5125 3169 
L 5125 1081 
L 4659 1081 
L 4659 5466 
L 5125 5466 
L 5125 3584 
L 6034 3584 
L 6034 3169 
L 5125 3169 
z
M 3597 2081 
Q 3206 2294 2778 2731 
Q 2350 3169 2188 3525 
Q 2038 3125 1603 2642 
Q 1169 2159 750 1925 
L 409 2247 
Q 1041 2553 1492 3173 
Q 1944 3794 1953 4453 
L 1953 5228 
L 2400 5228 
L 2400 4453 
Q 2400 3841 2853 3259 
Q 3306 2678 3909 2419 
L 3597 2081 
z
M 1478 -353 
L 1478 1528 
L 1953 1528 
L 1953 72 
L 5325 72 
L 5325 -353 
L 1478 -353 
z
" transform="scale(0.015625)"/>
      <path id="MalgunGothic-d654" d="M 5228 2363 
L 5228 -563 
L 4763 -563 
L 4763 5466 
L 5228 5466 
L 5228 2778 
L 6156 2778 
L 6156 2363 
L 5228 2363 
z
M 2131 5441 
L 2591 5441 
L 2591 4653 
L 4159 4653 
L 4159 4238 
L 556 4238 
L 556 4653 
L 2131 4653 
L 2131 5441 
z
M 2591 1741 
L 2591 884 
Q 3688 900 4409 947 
L 4441 544 
Q 2791 447 359 447 
L 313 856 
Q 1141 856 2125 878 
L 2125 1734 
Q 1506 1791 1175 2092 
Q 844 2394 844 2828 
Q 844 3316 1250 3627 
Q 1656 3938 2363 3938 
Q 3059 3938 3465 3633 
Q 3872 3328 3872 2859 
Q 3872 2400 3536 2098 
Q 3200 1797 2591 1741 
z
M 2363 3541 
Q 1875 3541 1594 3342 
Q 1313 3144 1313 2828 
Q 1313 2513 1592 2319 
Q 1872 2125 2363 2125 
Q 2847 2125 3126 2320 
Q 3406 2516 3406 2828 
Q 3406 3144 3125 3342 
Q 2844 3541 2363 3541 
z
" transform="scale(0.015625)"/>
      <path id="MalgunGothic-d0c4" d="M 5125 3169 
L 5125 1125 
L 4659 1125 
L 4659 5466 
L 5125 5466 
L 5125 3584 
L 6034 3584 
L 6034 3169 
L 5125 3169 
z
M 1319 3431 
L 1319 2553 
Q 3244 2553 3872 2613 
L 3903 2209 
Q 3306 2138 850 2138 
L 850 5081 
L 3688 5081 
L 3688 4666 
L 1319 4666 
L 1319 3834 
L 3372 3834 
L 3372 3431 
L 1319 3431 
z
M 1459 -378 
L 1459 1606 
L 1925 1606 
L 1925 38 
L 5294 38 
L 5294 -378 
L 1459 -378 
z
" transform="scale(0.015625)"/>
      <path id="MalgunGothic-c18c" d="M 3194 3909 
Q 2963 3416 2330 2941 
Q 1697 2466 959 2259 
L 641 2631 
Q 1700 2872 2328 3497 
Q 2956 4122 2956 4666 
L 2956 4984 
L 3438 4984 
L 3438 4666 
Q 3438 4131 4069 3506 
Q 4700 2881 5759 2631 
L 5428 2266 
Q 4719 2481 4072 2957 
Q 3425 3434 3194 3909 
z
M 403 384 
L 403 800 
L 2963 800 
L 2963 2266 
L 3438 2266 
L 3438 800 
L 5997 800 
L 5997 384 
L 403 384 
z
" transform="scale(0.015625)"/>
      <path id="MalgunGothic-bd84" d="M 1338 2994 
L 1338 5306 
L 1806 5306 
L 1806 4525 
L 4594 4525 
L 4594 5306 
L 5056 5306 
L 5056 2994 
L 1338 2994 
z
M 4594 4109 
L 1806 4109 
L 1806 3406 
L 4594 3406 
L 4594 4109 
z
M 3456 1863 
L 3456 494 
L 2988 494 
L 2988 1863 
L 403 1863 
L 403 2278 
L 5997 2278 
L 5997 1863 
L 3456 1863 
z
M 1288 -384 
L 1288 1344 
L 1753 1344 
L 1753 31 
L 5216 31 
L 5216 -384 
L 1288 -384 
z
" transform="scale(0.015625)"/>
      <path id="MalgunGothic-c11d" d="M 4884 1991 
L 4884 3775 
L 3444 3775 
L 3444 4200 
L 4884 4200 
L 4884 5466 
L 5350 5466 
L 5350 1991 
L 4884 1991 
z
M 3653 2297 
Q 3244 2519 2831 2919 
Q 2419 3319 2253 3669 
Q 2072 3266 1662 2827 
Q 1253 2388 819 2144 
L 488 2463 
Q 1144 2781 1576 3368 
Q 2009 3956 2009 4594 
L 2009 5269 
L 2463 5269 
L 2463 4594 
Q 2463 3997 2913 3440 
Q 3363 2884 3969 2638 
L 3653 2297 
z
M 4884 -563 
L 4884 1234 
L 1428 1234 
L 1428 1650 
L 5350 1650 
L 5350 -563 
L 4884 -563 
z
" transform="scale(0.015625)"/>
     </defs>
     <use xlink:href="#MalgunGothic-c774"/>
     <use xlink:href="#MalgunGothic-c0b0" x="100"/>
     <use xlink:href="#MalgunGothic-d654" x="200"/>
     <use xlink:href="#MalgunGothic-d0c4" x="300"/>
     <use xlink:href="#MalgunGothic-c18c" x="400"/>
     <use xlink:href="#MalgunGothic-20" x="500"/>
     <use xlink:href="#MalgunGothic-bcc0" x="535.15625"/>
     <use xlink:href="#MalgunGothic-b3d9" x="635.15625"/>
     <use xlink:href="#MalgunGothic-c131" x="735.15625"/>
     <use xlink:href="#MalgunGothic-20" x="835.15625"/>
     <use xlink:href="#MalgunGothic-bd84" x="870.3125"/>
     <use xlink:href="#MalgunGothic-c11d" x="970.3125"/>
    </g>
   </g>
   <g id="legend_1">
    <g id="patch_7">
     <path d="M 705.759375 122.499375 
L 962.2 122.499375 
Q 965 122.499375 965 119.699375 
L 965 78.92 
Q 965 76.12 962.2 76.12 
L 705.759375 76.12 
Q 702.959375 76.12 702.959375 78.92 
L 702.959375 119.699375 
Q 702.959375 122.499375 705.759375 122.499375 
z
" style="fill: #ffffff; opacity: 0.8; stroke: #cccccc; stroke-linejoin: miter"/>
    </g>
    <g id="line2d_14">
     <path d="M 708.559375 87.449062 
L 722.559375 87.449062 
L 736.559375 87.449062 
" style="fill: none; stroke: #ff6384; stroke-width: 1.5; stroke-linecap: round"/>
    </g>
    <g id="text_23">
     <!-- 이산화탄소 변동성 -->
     <g style="fill: #262626" transform="translate(747.759375 92.349063) scale(0.14 -0.14)">
      <use xlink:href="#MalgunGothic-c774"/>
      <use xlink:href="#MalgunGothic-c0b0" x="100"/>
      <use xlink:href="#MalgunGothic-d654" x="200"/>
      <use xlink:href="#MalgunGothic-d0c4" x="300"/>
      <use xlink:href="#MalgunGothic-c18c" x="400"/>
      <use xlink:href="#MalgunGothic-20" x="500"/>
      <use xlink:href="#MalgunGothic-bcc0" x="535.15625"/>
      <use xlink:href="#MalgunGothic-b3d9" x="635.15625"/>
      <use xlink:href="#MalgunGothic-c131" x="735.15625"/>
     </g>
    </g>
    <g id="line2d_15">
     <path d="M 708.559375 108.689688 
L 722.559375 108.689688 
L 736.559375 108.689688 
" style="fill: none; stroke-dasharray: 5.55,2.4; stroke-dashoffset: 0; stroke: #000000; stroke-width: 1.5"/>
    </g>
    <g id="text_24">
     <!-- 높은 변동성 기준선 (95 백분위수) -->
     <g style="fill: #262626" transform="translate(747.759375 113.589688) scale(0.14 -0.14)">
      <defs>
       <path id="MalgunGothic-b192" d="M 403 2284 
L 403 2700 
L 2963 2700 
L 2963 3506 
L 1375 3506 
L 1375 5350 
L 1844 5350 
L 1844 3922 
L 5178 3922 
L 5178 3506 
L 3438 3506 
L 3438 2700 
L 5997 2700 
L 5997 2284 
L 403 2284 
z
M 1131 -397 
L 1131 13 
L 1953 13 
L 1953 1269 
L 1209 1269 
L 1209 1678 
L 5191 1678 
L 5191 1269 
L 4447 1269 
L 4447 13 
L 5269 13 
L 5269 -397 
L 1131 -397 
z
M 3988 1269 
L 2413 1269 
L 2413 13 
L 3988 13 
L 3988 1269 
z
" transform="scale(0.015625)"/>
       <path id="MalgunGothic-c740" d="M 3200 2950 
Q 2309 2950 1817 3287 
Q 1325 3625 1325 4159 
Q 1325 4694 1815 5028 
Q 2306 5363 3200 5363 
Q 4094 5363 4587 5028 
Q 5081 4694 5081 4159 
Q 5081 3625 4584 3287 
Q 4088 2950 3200 2950 
z
M 3200 4966 
Q 2541 4966 2177 4747 
Q 1813 4528 1813 4159 
Q 1813 3791 2177 3572 
Q 2541 3353 3200 3353 
Q 3859 3353 4223 3572 
Q 4588 3791 4588 4159 
Q 4588 4528 4223 4747 
Q 3859 4966 3200 4966 
z
M 403 1919 
L 403 2344 
L 5997 2344 
L 5997 1919 
L 403 1919 
z
M 1338 -359 
L 1338 1331 
L 1813 1331 
L 1813 56 
L 5203 56 
L 5203 -359 
L 1338 -359 
z
" transform="scale(0.015625)"/>
       <path id="MalgunGothic-ae30" d="M 4884 -563 
L 4884 5466 
L 5350 5466 
L 5350 -563 
L 4884 -563 
z
M 3675 4909 
Q 3653 3656 2956 2611 
Q 2259 1566 959 844 
L 603 1222 
Q 1559 1619 2293 2478 
Q 3028 3338 3175 4494 
L 850 4494 
L 850 4909 
L 3675 4909 
z
" transform="scale(0.015625)"/>
       <path id="MalgunGothic-c120" d="M 4878 1063 
L 4878 3653 
L 3469 3653 
L 3469 4072 
L 4878 4072 
L 4878 5466 
L 5344 5466 
L 5344 1063 
L 4878 1063 
z
M 3675 2069 
Q 3228 2344 2829 2776 
Q 2431 3209 2266 3566 
Q 2091 3150 1662 2648 
Q 1234 2147 819 1913 
L 481 2234 
Q 1125 2559 1573 3198 
Q 2022 3838 2022 4494 
L 2022 5269 
L 2478 5269 
L 2478 4494 
Q 2478 3894 2943 3286 
Q 3409 2678 3988 2406 
L 3675 2069 
z
M 1631 -366 
L 1631 1550 
L 2100 1550 
L 2100 44 
L 5503 44 
L 5503 -366 
L 1631 -366 
z
" transform="scale(0.015625)"/>
       <path id="MalgunGothic-bc31" d="M 5056 2028 
L 5056 3438 
L 4359 3438 
L 4359 2028 
L 3897 2028 
L 3897 5344 
L 4359 5344 
L 4359 3859 
L 5056 3859 
L 5056 5466 
L 5522 5466 
L 5522 2028 
L 5056 2028 
z
M 763 2363 
L 763 5209 
L 1222 5209 
L 1222 4103 
L 2772 4103 
L 2772 5209 
L 3231 5209 
L 3231 2363 
L 763 2363 
z
M 2772 3688 
L 1222 3688 
L 1222 2778 
L 2772 2778 
L 2772 3688 
z
M 5056 -563 
L 5056 1281 
L 1581 1281 
L 1581 1697 
L 5522 1697 
L 5522 -563 
L 5056 -563 
z
" transform="scale(0.015625)"/>
       <path id="MalgunGothic-c704" d="M 4997 -563 
L 4997 5466 
L 5466 5466 
L 5466 -563 
L 4997 -563 
z
M 2491 2784 
Q 1800 2784 1376 3140 
Q 953 3497 953 4038 
Q 953 4581 1376 4940 
Q 1800 5300 2491 5300 
Q 3178 5300 3598 4942 
Q 4019 4584 4019 4038 
Q 4019 3494 3600 3139 
Q 3181 2784 2491 2784 
z
M 2491 4897 
Q 2006 4897 1714 4659 
Q 1422 4422 1422 4038 
Q 1422 3653 1714 3420 
Q 2006 3188 2491 3188 
Q 2978 3188 3265 3422 
Q 3553 3656 3553 4038 
Q 3553 4419 3264 4658 
Q 2975 4897 2491 4897 
z
M 2297 -391 
L 2297 1825 
Q 903 1800 500 1800 
L 453 2209 
Q 3088 2209 4603 2297 
L 4628 1894 
Q 4203 1866 2766 1831 
L 2766 -391 
L 2297 -391 
z
" transform="scale(0.015625)"/>
       <path id="MalgunGothic-c218" d="M 5491 2994 
Q 4750 3097 4078 3498 
Q 3406 3900 3200 4275 
Q 2975 3891 2309 3491 
Q 1644 3091 922 2956 
L 634 3347 
Q 1559 3450 2261 3942 
Q 2963 4434 2963 5013 
L 2963 5275 
L 3431 5275 
L 3431 5013 
Q 3431 4431 4118 3948 
Q 4806 3466 5766 3378 
L 5491 2994 
z
M 3431 1838 
L 3431 -563 
L 2963 -563 
L 2963 1838 
L 403 1838 
L 403 2253 
L 5997 2253 
L 5997 1838 
L 3431 1838 
z
" transform="scale(0.015625)"/>
      </defs>
      <use xlink:href="#MalgunGothic-b192"/>
      <use xlink:href="#MalgunGothic-c740" x="100"/>
      <use xlink:href="#MalgunGothic-20" x="200"/>
      <use xlink:href="#MalgunGothic-bcc0" x="235.15625"/>
      <use xlink:href="#MalgunGothic-b3d9" x="335.15625"/>
      <use xlink:href="#MalgunGothic-c131" x="435.15625"/>
      <use xlink:href="#MalgunGothic-20" x="535.15625"/>
      <use xlink:href="#MalgunGothic-ae30" x="570.3125"/>
      <use xlink:href="#MalgunGothic-c900" x="670.3125"/>
      <use xlink:href="#MalgunGothic-c120" x="770.3125"/>
      <use xlink:href="#MalgunGothic-20" x="870.3125"/>
      <use xlink:href="#MalgunGothic-28" x="905.46875"/>
      <use xlink:href="#MalgunGothic-39" x="935.9375"/>
      <use xlink:href="#MalgunGothic-35" x="991.015625"/>
      <use xlink:href="#MalgunGothic-20" x="1046.09375"/>
      <use xlink:href="#MalgunGothic-bc31" x="1081.25"/>
      <use xlink:href="#MalgunGothic-bd84" x="1181.25"/>
      <use xlink:href="#MalgunGothic-c704" x="1281.25"/>
      <use xlink:href="#MalgunGothic-c218" x="1381.25"/>
      <use xlink:href="#MalgunGothic-29" x="1481.25"/>
     </g>
    </g>
   </g>
  </g>
 </g>
 <defs>
  <clipPath id="p67f4d0d75b">
   <rect x="135" y="69.12" width="837" height="443.52"/>
  </clipPath>
 </defs>
</svg>
