<?xml version="1.0" encoding="utf-8" standalone="no"?>
<!DOCTYPE svg PUBLIC "-//W3C//DTD SVG 1.1//EN"
  "http://www.w3.org/Graphics/SVG/1.1/DTD/svg11.dtd">
<svg xmlns:xlink="http://www.w3.org/1999/xlink" width="1080pt" height="576pt" viewBox="0 0 1080 576" xmlns="http://www.w3.org/2000/svg" version="1.1">
 <metadata>
  <rdf:RDF xmlns:dc="http://purl.org/dc/elements/1.1/" xmlns:cc="http://creativecommons.org/ns#" xmlns:rdf="http://www.w3.org/1999/02/22-rdf-syntax-ns#">
   <cc:Work>
    <dc:type rdf:resource="http://purl.org/dc/dcmitype/StillImage"/>
    <dc:date>2024-11-12T22:28:04.574441</dc:date>
    <dc:format>image/svg+xml</dc:format>
    <dc:creator>
     <cc:Agent>
      <dc:title>Matplotlib v3.9.2, https://matplotlib.org/</dc:title>
     </cc:Agent>
    </dc:creator>
   </cc:Work>
  </rdf:RDF>
 </metadata>
 <defs>
  <style type="text/css">*{stroke-linejoin: round; stroke-linecap: butt}</style>
 </defs>
 <g id="figure_1">
  <g id="patch_1">
   <path d="M 0 576 
L 1080 576 
L 1080 0 
L 0 0 
z
" style="fill: #ffffff"/>
  </g>
  <g id="axes_1">
   <g id="patch_2">
    <path d="M 135 512.64 
L 972 512.64 
L 972 69.12 
L 135 69.12 
z
" style="fill: #ffffff"/>
   </g>
   <g id="matplotlib.axis_1">
    <g id="xtick_1">
     <g id="line2d_1">
      <path d="M 137.706716 512.64 
L 137.706716 69.12 
" clip-path="url(#p1b9949d121)" style="fill: none; stroke: #a9a9a9; stroke-opacity: 0.7; stroke-linecap: round"/>
     </g>
     <g id="text_1">
      <!-- 16 -->
      <g style="fill: #262626" transform="translate(129.995779 532.769063) scale(0.14 -0.14)">
       <defs>
        <path id="MalgunGothic-31" d="M 2231 0 
L 1734 0 
L 1734 3972 
Q 1591 3828 1266 3661 
Q 941 3494 672 3428 
L 672 3959 
Q 1016 4056 1409 4275 
Q 1803 4494 2031 4700 
L 2231 4700 
L 2231 0 
z
" transform="scale(0.015625)"/>
        <path id="MalgunGothic-36" d="M 2981 4069 
Q 2619 4250 2228 4250 
Q 1591 4250 1228 3689 
Q 866 3128 869 2213 
L 884 2213 
Q 1203 2872 1938 2872 
Q 2547 2872 2903 2478 
Q 3259 2084 3259 1450 
Q 3259 797 2857 359 
Q 2456 -78 1825 -78 
Q 1116 -78 736 478 
Q 356 1034 356 2019 
Q 356 3181 847 3928 
Q 1338 4675 2222 4675 
Q 2700 4675 2981 4544 
L 2981 4069 
z
M 906 1506 
Q 906 1022 1165 683 
Q 1425 344 1844 344 
Q 2247 344 2498 645 
Q 2750 947 2750 1388 
Q 2750 1888 2509 2167 
Q 2269 2447 1838 2447 
Q 1444 2447 1175 2173 
Q 906 1900 906 1506 
z
" transform="scale(0.015625)"/>
       </defs>
       <use xlink:href="#MalgunGothic-31"/>
       <use xlink:href="#MalgunGothic-36" x="55.078125"/>
      </g>
     </g>
    </g>
    <g id="xtick_2">
     <g id="line2d_2">
      <path d="M 197.670896 512.64 
L 197.670896 69.12 
" clip-path="url(#p1b9949d121)" style="fill: none; stroke: #a9a9a9; stroke-opacity: 0.7; stroke-linecap: round"/>
     </g>
     <g id="text_2">
      <!-- 17 -->
      <g style="fill: #262626" transform="translate(189.959958 532.769063) scale(0.14 -0.14)">
       <defs>
        <path id="MalgunGothic-37" d="M 3213 4297 
Q 2478 3006 2064 1918 
Q 1650 831 1550 0 
L 1009 0 
Q 1084 531 1290 1176 
Q 1497 1822 1815 2537 
Q 2134 3253 2631 4147 
L 291 4147 
L 291 4600 
L 3213 4600 
L 3213 4297 
z
" transform="scale(0.015625)"/>
       </defs>
       <use xlink:href="#MalgunGothic-31"/>
       <use xlink:href="#MalgunGothic-37" x="55.078125"/>
      </g>
     </g>
    </g>
    <g id="xtick_3">
     <g id="line2d_3">
      <path d="M 257.635075 512.64 
L 257.635075 69.12 
" clip-path="url(#p1b9949d121)" style="fill: none; stroke: #a9a9a9; stroke-opacity: 0.7; stroke-linecap: round"/>
     </g>
     <g id="text_3">
      <!-- 18 -->
      <g style="fill: #262626" transform="translate(249.924137 532.769063) scale(0.14 -0.14)">
       <defs>
        <path id="MalgunGothic-38" d="M 303 1281 
Q 303 1669 539 2011 
Q 775 2353 1153 2494 
Q 856 2647 675 2915 
Q 494 3184 494 3500 
Q 494 3828 659 4098 
Q 825 4369 1122 4522 
Q 1419 4675 1778 4675 
Q 2334 4675 2700 4342 
Q 3066 4009 3066 3500 
Q 3066 3181 2881 2914 
Q 2697 2647 2413 2494 
Q 2788 2350 3022 2009 
Q 3256 1669 3256 1281 
Q 3256 672 2843 297 
Q 2431 -78 1778 -78 
Q 1131 -78 717 301 
Q 303 681 303 1281 
z
M 809 1328 
Q 809 878 1081 611 
Q 1353 344 1781 344 
Q 2206 344 2482 619 
Q 2759 894 2759 1328 
Q 2759 1731 2482 2011 
Q 2206 2291 1781 2291 
Q 1372 2291 1090 2020 
Q 809 1750 809 1328 
z
M 1003 3459 
Q 1003 3125 1234 2900 
Q 1466 2675 1781 2675 
Q 2097 2675 2330 2900 
Q 2563 3125 2563 3459 
Q 2563 3803 2341 4026 
Q 2119 4250 1781 4250 
Q 1450 4250 1226 4029 
Q 1003 3809 1003 3459 
z
" transform="scale(0.015625)"/>
       </defs>
       <use xlink:href="#MalgunGothic-31"/>
       <use xlink:href="#MalgunGothic-38" x="55.078125"/>
      </g>
     </g>
    </g>
    <g id="xtick_4">
     <g id="line2d_4">
      <path d="M 317.599254 512.64 
L 317.599254 69.12 
" clip-path="url(#p1b9949d121)" style="fill: none; stroke: #a9a9a9; stroke-opacity: 0.7; stroke-linecap: round"/>
     </g>
     <g id="text_4">
      <!-- 19 -->
      <g style="fill: #262626" transform="translate(309.888316 532.769063) scale(0.14 -0.14)">
       <defs>
        <path id="MalgunGothic-39" d="M 556 563 
Q 941 344 1366 344 
Q 1994 344 2347 855 
Q 2700 1366 2700 2313 
Q 2694 2306 2688 2313 
Q 2388 1713 1653 1713 
Q 1059 1713 682 2120 
Q 306 2528 306 3144 
Q 306 3806 711 4240 
Q 1116 4675 1772 4675 
Q 2466 4675 2833 4131 
Q 3200 3588 3200 2578 
Q 3200 1319 2717 620 
Q 2234 -78 1344 -78 
Q 881 -78 556 78 
L 556 563 
z
M 813 3219 
Q 813 2741 1063 2450 
Q 1313 2159 1759 2159 
Q 2147 2159 2406 2417 
Q 2666 2675 2666 3047 
Q 2666 3556 2411 3903 
Q 2156 4250 1725 4250 
Q 1322 4250 1067 3948 
Q 813 3647 813 3219 
z
" transform="scale(0.015625)"/>
       </defs>
       <use xlink:href="#MalgunGothic-31"/>
       <use xlink:href="#MalgunGothic-39" x="55.078125"/>
      </g>
     </g>
    </g>
    <g id="xtick_5">
     <g id="line2d_5">
      <path d="M 377.563433 512.64 
L 377.563433 69.12 
" clip-path="url(#p1b9949d121)" style="fill: none; stroke: #a9a9a9; stroke-opacity: 0.7; stroke-linecap: round"/>
     </g>
     <g id="text_5">
      <!-- 20 -->
      <g style="fill: #262626" transform="translate(369.852495 532.769063) scale(0.14 -0.14)">
       <defs>
        <path id="MalgunGothic-32" d="M 2519 3372 
Q 2519 3784 2275 4018 
Q 2031 4253 1628 4253 
Q 1341 4253 1053 4104 
Q 766 3956 534 3697 
L 534 4234 
Q 981 4675 1691 4675 
Q 2281 4675 2642 4334 
Q 3003 3994 3003 3416 
Q 3003 2919 2772 2545 
Q 2541 2172 1984 1775 
Q 1459 1406 1254 1215 
Q 1050 1025 967 854 
Q 884 684 884 450 
L 3116 450 
L 3116 0 
L 356 0 
L 356 225 
Q 356 603 461 870 
Q 566 1138 811 1392 
Q 1056 1647 1597 2022 
Q 2091 2363 2305 2670 
Q 2519 2978 2519 3372 
z
" transform="scale(0.015625)"/>
        <path id="MalgunGothic-30" d="M 278 2206 
Q 278 3425 675 4050 
Q 1072 4675 1819 4675 
Q 3253 4675 3253 2319 
Q 3253 1156 2854 539 
Q 2456 -78 1716 -78 
Q 1016 -78 647 520 
Q 278 1119 278 2206 
z
M 784 2231 
Q 784 344 1769 344 
Q 2747 344 2747 2259 
Q 2747 4250 1794 4250 
Q 784 4250 784 2231 
z
" transform="scale(0.015625)"/>
       </defs>
       <use xlink:href="#MalgunGothic-32"/>
       <use xlink:href="#MalgunGothic-30" x="55.078125"/>
      </g>
     </g>
    </g>
    <g id="xtick_6">
     <g id="line2d_6">
      <path d="M 437.527612 512.64 
L 437.527612 69.12 
" clip-path="url(#p1b9949d121)" style="fill: none; stroke: #a9a9a9; stroke-opacity: 0.7; stroke-linecap: round"/>
     </g>
     <g id="text_6">
      <!-- 21 -->
      <g style="fill: #262626" transform="translate(429.816674 532.769063) scale(0.14 -0.14)">
       <use xlink:href="#MalgunGothic-32"/>
       <use xlink:href="#MalgunGothic-31" x="55.078125"/>
      </g>
     </g>
    </g>
    <g id="xtick_7">
     <g id="line2d_7">
      <path d="M 497.491791 512.64 
L 497.491791 69.12 
" clip-path="url(#p1b9949d121)" style="fill: none; stroke: #a9a9a9; stroke-opacity: 0.7; stroke-linecap: round"/>
     </g>
     <g id="text_7">
      <!-- 22 -->
      <g style="fill: #262626" transform="translate(489.780854 532.769063) scale(0.14 -0.14)">
       <use xlink:href="#MalgunGothic-32"/>
       <use xlink:href="#MalgunGothic-32" x="55.078125"/>
      </g>
     </g>
    </g>
    <g id="xtick_8">
     <g id="line2d_8">
      <path d="M 557.45597 512.64 
L 557.45597 69.12 
" clip-path="url(#p1b9949d121)" style="fill: none; stroke: #a9a9a9; stroke-opacity: 0.7; stroke-linecap: round"/>
     </g>
     <g id="text_8">
      <!-- 23 -->
      <g style="fill: #262626" transform="translate(549.745033 532.769063) scale(0.14 -0.14)">
       <defs>
        <path id="MalgunGothic-33" d="M 416 719 
Q 891 344 1478 344 
Q 1959 344 2254 587 
Q 2550 831 2550 1247 
Q 2550 2169 1253 2169 
L 872 2169 
L 872 2591 
L 1234 2591 
Q 2388 2591 2388 3453 
Q 2388 4250 1509 4250 
Q 1022 4250 594 3916 
L 594 4413 
Q 1031 4675 1634 4675 
Q 2184 4675 2539 4372 
Q 2894 4069 2894 3581 
Q 2894 2678 1972 2409 
L 1972 2400 
Q 2469 2356 2764 2053 
Q 3059 1750 3059 1300 
Q 3059 672 2604 297 
Q 2150 -78 1450 -78 
Q 806 -78 416 169 
L 416 719 
z
" transform="scale(0.015625)"/>
       </defs>
       <use xlink:href="#MalgunGothic-32"/>
       <use xlink:href="#MalgunGothic-33" x="55.078125"/>
      </g>
     </g>
    </g>
    <g id="xtick_9">
     <g id="line2d_9">
      <path d="M 617.420149 512.64 
L 617.420149 69.12 
" clip-path="url(#p1b9949d121)" style="fill: none; stroke: #a9a9a9; stroke-opacity: 0.7; stroke-linecap: round"/>
     </g>
     <g id="text_9">
      <!-- 24 -->
      <g style="fill: #262626" transform="translate(609.709212 532.769063) scale(0.14 -0.14)">
       <defs>
        <path id="MalgunGothic-34" d="M 2703 4600 
L 2703 1563 
L 3309 1563 
L 3309 1113 
L 2703 1113 
L 2703 0 
L 2213 0 
L 2213 1113 
L 50 1113 
L 50 1534 
Q 728 2297 1295 3109 
Q 1863 3922 2172 4600 
L 2703 4600 
z
M 625 1563 
L 2213 1563 
L 2213 3831 
Q 1613 2788 959 1981 
L 625 1563 
z
" transform="scale(0.015625)"/>
       </defs>
       <use xlink:href="#MalgunGothic-32"/>
       <use xlink:href="#MalgunGothic-34" x="55.078125"/>
      </g>
     </g>
    </g>
    <g id="xtick_10">
     <g id="line2d_10">
      <path d="M 677.384328 512.64 
L 677.384328 69.12 
" clip-path="url(#p1b9949d121)" style="fill: none; stroke: #a9a9a9; stroke-opacity: 0.7; stroke-linecap: round"/>
     </g>
     <g id="text_10">
      <!-- 25 -->
      <g style="fill: #262626" transform="translate(669.673391 532.769063) scale(0.14 -0.14)">
       <defs>
        <path id="MalgunGothic-35" d="M 3072 1403 
Q 3072 722 2636 322 
Q 2200 -78 1469 -78 
Q 828 -78 516 113 
L 516 650 
Q 994 344 1475 344 
Q 1969 344 2270 630 
Q 2572 916 2572 1372 
Q 2572 1838 2265 2092 
Q 1959 2347 1381 2347 
Q 994 2347 603 2300 
L 759 4600 
L 2869 4600 
L 2869 4147 
L 1206 4147 
L 1106 2763 
Q 1347 2784 1547 2784 
Q 2263 2784 2667 2414 
Q 3072 2044 3072 1403 
z
" transform="scale(0.015625)"/>
       </defs>
       <use xlink:href="#MalgunGothic-32"/>
       <use xlink:href="#MalgunGothic-35" x="55.078125"/>
      </g>
     </g>
    </g>
    <g id="xtick_11">
     <g id="line2d_11">
      <path d="M 737.348507 512.64 
L 737.348507 69.12 
" clip-path="url(#p1b9949d121)" style="fill: none; stroke: #a9a9a9; stroke-opacity: 0.7; stroke-linecap: round"/>
     </g>
     <g id="text_11">
      <!-- 26 -->
      <g style="fill: #262626" transform="translate(729.63757 532.769063) scale(0.14 -0.14)">
       <use xlink:href="#MalgunGothic-32"/>
       <use xlink:href="#MalgunGothic-36" x="55.078125"/>
      </g>
     </g>
    </g>
    <g id="xtick_12">
     <g id="line2d_12">
      <path d="M 797.312687 512.64 
L 797.312687 69.12 
" clip-path="url(#p1b9949d121)" style="fill: none; stroke: #a9a9a9; stroke-opacity: 0.7; stroke-linecap: round"/>
     </g>
     <g id="text_12">
      <!-- 27 -->
      <g style="fill: #262626" transform="translate(789.601749 532.769063) scale(0.14 -0.14)">
       <use xlink:href="#MalgunGothic-32"/>
       <use xlink:href="#MalgunGothic-37" x="55.078125"/>
      </g>
     </g>
    </g>
    <g id="xtick_13">
     <g id="line2d_13">
      <path d="M 857.276866 512.64 
L 857.276866 69.12 
" clip-path="url(#p1b9949d121)" style="fill: none; stroke: #a9a9a9; stroke-opacity: 0.7; stroke-linecap: round"/>
     </g>
     <g id="text_13">
      <!-- 28 -->
      <g style="fill: #262626" transform="translate(849.565928 532.769063) scale(0.14 -0.14)">
       <use xlink:href="#MalgunGothic-32"/>
       <use xlink:href="#MalgunGothic-38" x="55.078125"/>
      </g>
     </g>
    </g>
    <g id="xtick_14">
     <g id="line2d_14">
      <path d="M 917.241045 512.64 
L 917.241045 69.12 
" clip-path="url(#p1b9949d121)" style="fill: none; stroke: #a9a9a9; stroke-opacity: 0.7; stroke-linecap: round"/>
     </g>
     <g id="text_14">
      <!-- 29 -->
      <g style="fill: #262626" transform="translate(909.530107 532.769063) scale(0.14 -0.14)">
       <use xlink:href="#MalgunGothic-32"/>
       <use xlink:href="#MalgunGothic-39" x="55.078125"/>
      </g>
     </g>
    </g>
    <g id="text_15">
     <!-- 상대 시간(일) -->
     <g style="fill: #262626" transform="translate(505.8125 552.57125) scale(0.16 -0.16)">
      <defs>
       <path id="MalgunGothic-c0c1" d="M 5125 3391 
L 5125 1991 
L 4659 1991 
L 4659 5466 
L 5125 5466 
L 5125 3816 
L 6034 3816 
L 6034 3391 
L 5125 3391 
z
M 3603 2316 
Q 3206 2528 2778 2934 
Q 2350 3341 2188 3681 
Q 2022 3291 1609 2852 
Q 1197 2413 750 2163 
L 409 2484 
Q 1072 2806 1512 3397 
Q 1953 3988 1953 4628 
L 1953 5259 
L 2400 5259 
L 2400 4628 
Q 2400 4025 2845 3472 
Q 3291 2919 3909 2656 
L 3603 2316 
z
M 3263 -513 
Q 2322 -513 1811 -186 
Q 1300 141 1300 659 
Q 1300 1175 1812 1500 
Q 2325 1825 3263 1825 
Q 4203 1825 4715 1501 
Q 5228 1178 5228 659 
Q 5228 138 4717 -187 
Q 4206 -513 3263 -513 
z
M 3263 1428 
Q 2563 1428 2180 1215 
Q 1797 1003 1797 659 
Q 1797 309 2181 96 
Q 2566 -116 3263 -116 
Q 3969 -116 4353 98 
Q 4738 313 4738 659 
Q 4738 1000 4353 1214 
Q 3969 1428 3263 1428 
z
" transform="scale(0.015625)"/>
       <path id="MalgunGothic-b300" d="M 5069 -563 
L 5069 2572 
L 4294 2572 
L 4294 -378 
L 3834 -378 
L 3834 5344 
L 4294 5344 
L 4294 2988 
L 5069 2988 
L 5069 5466 
L 5538 5466 
L 5538 -563 
L 5069 -563 
z
M 3391 1153 
Q 2516 1063 825 1063 
L 825 4934 
L 3138 4934 
L 3138 4519 
L 1288 4519 
L 1288 1478 
L 1844 1478 
Q 2791 1478 3359 1550 
L 3391 1153 
z
" transform="scale(0.015625)"/>
       <path id="MalgunGothic-20" transform="scale(0.015625)"/>
       <path id="MalgunGothic-c2dc" d="M 4947 -563 
L 4947 5466 
L 5416 5466 
L 5416 -563 
L 4947 -563 
z
M 3769 966 
Q 3263 1353 2820 1939 
Q 2378 2525 2259 2950 
Q 2116 2463 1687 1872 
Q 1259 1281 756 891 
L 397 1203 
Q 1141 1703 1581 2479 
Q 2022 3256 2022 4063 
L 2022 5050 
L 2484 5050 
L 2484 4084 
Q 2484 3303 2920 2556 
Q 3356 1809 4097 1331 
L 3769 966 
z
" transform="scale(0.015625)"/>
       <path id="MalgunGothic-ac04" d="M 5125 3122 
L 5125 1063 
L 4659 1063 
L 4659 5466 
L 5125 5466 
L 5125 3541 
L 6034 3541 
L 6034 3122 
L 5125 3122 
z
M 3513 5100 
Q 3403 3872 2556 3011 
Q 1709 2150 794 1800 
L 469 2163 
Q 1344 2450 2087 3172 
Q 2831 3894 2963 4678 
L 831 4678 
L 831 5100 
L 3513 5100 
z
M 1459 -325 
L 1459 1509 
L 1925 1509 
L 1925 97 
L 5294 97 
L 5294 -325 
L 1459 -325 
z
" transform="scale(0.015625)"/>
       <path id="MalgunGothic-28" d="M 1438 -1044 
Q 447 88 447 1753 
Q 447 3431 1438 4600 
L 1888 4600 
Q 878 3372 878 1759 
Q 878 153 1881 -1044 
L 1438 -1044 
z
" transform="scale(0.015625)"/>
       <path id="MalgunGothic-c77c" d="M 4947 2363 
L 4947 5466 
L 5422 5466 
L 5422 2363 
L 4947 2363 
z
M 2419 2578 
Q 1738 2578 1314 2970 
Q 891 3363 891 3969 
Q 891 4572 1314 4961 
Q 1738 5350 2419 5350 
Q 3097 5350 3523 4959 
Q 3950 4569 3950 3969 
Q 3950 3366 3522 2972 
Q 3094 2578 2419 2578 
z
M 2419 4947 
Q 1931 4947 1643 4680 
Q 1356 4413 1356 3969 
Q 1356 3522 1643 3248 
Q 1931 2975 2419 2975 
Q 2906 2975 3193 3248 
Q 3481 3522 3481 3969 
Q 3481 4413 3193 4680 
Q 2906 4947 2419 4947 
z
M 1703 -422 
L 1703 1038 
L 4959 1038 
L 4959 1613 
L 1703 1613 
L 1703 2028 
L 5422 2028 
L 5422 634 
L 2163 634 
L 2163 -6 
L 5588 -6 
L 5588 -422 
L 1703 -422 
z
" transform="scale(0.015625)"/>
       <path id="MalgunGothic-29" d="M 81 -1044 
Q 1081 150 1081 1759 
Q 1081 3378 72 4600 
L 525 4600 
Q 1522 3431 1522 1753 
Q 1522 88 525 -1044 
L 81 -1044 
z
" transform="scale(0.015625)"/>
      </defs>
      <use xlink:href="#MalgunGothic-c0c1"/>
      <use xlink:href="#MalgunGothic-b300" x="100"/>
      <use xlink:href="#MalgunGothic-20" x="200"/>
      <use xlink:href="#MalgunGothic-c2dc" x="235.15625"/>
      <use xlink:href="#MalgunGothic-ac04" x="335.15625"/>
      <use xlink:href="#MalgunGothic-28" x="435.15625"/>
      <use xlink:href="#MalgunGothic-c77c" x="465.625"/>
      <use xlink:href="#MalgunGothic-29" x="565.625"/>
     </g>
    </g>
   </g>
   <g id="matplotlib.axis_2">
    <g id="ytick_1">
     <g id="text_16">
      <!-- 0.56 -->
      <g style="fill: #262626" transform="translate(99.304688 458.395519) scale(0.14 -0.14)">
       <defs>
        <path id="MalgunGothic-2e" d="M 356 275 
Q 356 422 459 523 
Q 563 625 700 625 
Q 838 625 941 523 
Q 1044 422 1044 275 
Q 1044 138 942 33 
Q 841 -72 700 -72 
Q 559 -72 457 29 
Q 356 131 356 275 
z
" transform="scale(0.015625)"/>
       </defs>
       <use xlink:href="#MalgunGothic-30"/>
       <use xlink:href="#MalgunGothic-2e" x="55.078125"/>
       <use xlink:href="#MalgunGothic-35" x="76.953125"/>
       <use xlink:href="#MalgunGothic-36" x="132.03125"/>
      </g>
     </g>
    </g>
    <g id="ytick_2">
     <g id="text_17">
      <!-- 0.57 -->
      <g style="fill: #262626" transform="translate(99.304688 378.492068) scale(0.14 -0.14)">
       <use xlink:href="#MalgunGothic-30"/>
       <use xlink:href="#MalgunGothic-2e" x="55.078125"/>
       <use xlink:href="#MalgunGothic-35" x="76.953125"/>
       <use xlink:href="#MalgunGothic-37" x="132.03125"/>
      </g>
     </g>
    </g>
    <g id="ytick_3">
     <g id="text_18">
      <!-- 0.58 -->
      <g style="fill: #262626" transform="translate(99.304688 298.588616) scale(0.14 -0.14)">
       <use xlink:href="#MalgunGothic-30"/>
       <use xlink:href="#MalgunGothic-2e" x="55.078125"/>
       <use xlink:href="#MalgunGothic-35" x="76.953125"/>
       <use xlink:href="#MalgunGothic-38" x="132.03125"/>
      </g>
     </g>
    </g>
    <g id="ytick_4">
     <g id="text_19">
      <!-- 0.59 -->
      <g style="fill: #262626" transform="translate(99.304688 218.685165) scale(0.14 -0.14)">
       <use xlink:href="#MalgunGothic-30"/>
       <use xlink:href="#MalgunGothic-2e" x="55.078125"/>
       <use xlink:href="#MalgunGothic-35" x="76.953125"/>
       <use xlink:href="#MalgunGothic-39" x="132.03125"/>
      </g>
     </g>
    </g>
    <g id="ytick_5">
     <g id="text_20">
      <!-- 0.60 -->
      <g style="fill: #262626" transform="translate(99.304688 138.781714) scale(0.14 -0.14)">
       <use xlink:href="#MalgunGothic-30"/>
       <use xlink:href="#MalgunGothic-2e" x="55.078125"/>
       <use xlink:href="#MalgunGothic-36" x="76.953125"/>
       <use xlink:href="#MalgunGothic-30" x="132.03125"/>
      </g>
     </g>
    </g>
    <g id="text_21">
     <!-- 변동성 (이동 표준편차) -->
     <g style="fill: #262626" transform="translate(91.522188 373.38) rotate(-90) scale(0.16 -0.16)">
      <defs>
       <path id="MalgunGothic-bcc0" d="M 1038 2059 
L 1038 5184 
L 1497 5184 
L 1497 4072 
L 3366 4072 
L 3366 5184 
L 3828 5184 
L 3828 4416 
L 4947 4416 
L 4947 5466 
L 5416 5466 
L 5416 1063 
L 4947 1063 
L 4947 2669 
L 3828 2669 
L 3828 2059 
L 1038 2059 
z
M 3828 3084 
L 4947 3084 
L 4947 4000 
L 3828 4000 
L 3828 3084 
z
M 3366 3653 
L 1497 3653 
L 1497 2478 
L 3366 2478 
L 3366 3653 
z
M 1734 -391 
L 1734 1563 
L 2203 1563 
L 2203 25 
L 5606 25 
L 5606 -391 
L 1734 -391 
z
" transform="scale(0.015625)"/>
       <path id="MalgunGothic-b3d9" d="M 403 2119 
L 403 2534 
L 2963 2534 
L 2963 3316 
L 1338 3316 
L 1338 5325 
L 5081 5325 
L 5081 4909 
L 1813 4909 
L 1813 3731 
L 5153 3731 
L 5153 3316 
L 3438 3316 
L 3438 2534 
L 5997 2534 
L 5997 2119 
L 403 2119 
z
M 3200 -513 
Q 2247 -513 1740 -211 
Q 1234 91 1234 603 
Q 1234 1116 1742 1416 
Q 2250 1716 3200 1716 
Q 4150 1716 4658 1416 
Q 5166 1116 5166 603 
Q 5166 91 4659 -211 
Q 4153 -513 3200 -513 
z
M 3200 1319 
Q 2478 1319 2103 1126 
Q 1728 934 1728 603 
Q 1728 272 2104 78 
Q 2481 -116 3200 -116 
Q 3919 -116 4295 78 
Q 4672 272 4672 603 
Q 4672 934 4295 1126 
Q 3919 1319 3200 1319 
z
" transform="scale(0.015625)"/>
       <path id="MalgunGothic-c131" d="M 4947 1984 
L 4947 3781 
L 3541 3781 
L 3541 4200 
L 4947 4200 
L 4947 5466 
L 5416 5466 
L 5416 1984 
L 4947 1984 
z
M 3653 2328 
Q 3244 2550 2831 2950 
Q 2419 3350 2253 3700 
Q 2075 3303 1659 2858 
Q 1244 2413 819 2175 
L 488 2497 
Q 1134 2806 1571 3393 
Q 2009 3981 2009 4628 
L 2009 5269 
L 2463 5269 
L 2463 4628 
Q 2463 4025 2916 3472 
Q 3369 2919 3969 2669 
L 3653 2328 
z
M 3566 -475 
Q 2622 -475 2108 -148 
Q 1594 178 1594 697 
Q 1594 1216 2106 1539 
Q 2619 1863 3566 1863 
Q 4513 1863 5025 1539 
Q 5538 1216 5538 697 
Q 5538 178 5023 -148 
Q 4509 -475 3566 -475 
z
M 3566 1466 
Q 2850 1466 2472 1248 
Q 2094 1031 2094 697 
Q 2094 359 2473 143 
Q 2853 -72 3566 -72 
Q 4275 -72 4656 142 
Q 5038 356 5038 697 
Q 5038 1034 4659 1250 
Q 4281 1466 3566 1466 
z
" transform="scale(0.015625)"/>
       <path id="MalgunGothic-c774" d="M 4947 -563 
L 4947 5466 
L 5416 5466 
L 5416 -563 
L 4947 -563 
z
M 2284 959 
Q 1597 959 1173 1514 
Q 750 2069 750 3016 
Q 750 3975 1169 4522 
Q 1588 5069 2284 5069 
Q 2978 5069 3403 4522 
Q 3828 3975 3828 3016 
Q 3828 2063 3401 1511 
Q 2975 959 2284 959 
z
M 2284 4653 
Q 1803 4653 1503 4204 
Q 1203 3756 1203 3016 
Q 1203 2278 1506 1826 
Q 1809 1375 2284 1375 
Q 2756 1375 3061 1828 
Q 3366 2281 3366 3016 
Q 3366 3759 3067 4206 
Q 2769 4653 2284 4653 
z
" transform="scale(0.015625)"/>
       <path id="MalgunGothic-d45c" d="M 997 4897 
L 5403 4897 
L 5403 4488 
L 997 4488 
L 997 4897 
z
M 4481 2566 
L 5478 2566 
L 5478 2156 
L 4494 2156 
L 4494 756 
L 5997 756 
L 5997 341 
L 403 341 
L 403 756 
L 1906 756 
L 1906 2156 
L 922 2156 
L 922 2566 
L 1919 2566 
L 1844 4172 
L 2303 4172 
L 2381 2566 
L 4019 2566 
L 4097 4172 
L 4556 4172 
L 4481 2566 
z
M 2375 756 
L 4025 756 
L 4025 2156 
L 2375 2156 
L 2375 756 
z
" transform="scale(0.015625)"/>
       <path id="MalgunGothic-c900" d="M 5459 3078 
Q 4725 3191 4092 3536 
Q 3459 3881 3206 4263 
Q 2988 3925 2334 3556 
Q 1681 3188 972 3084 
L 697 3463 
Q 1541 3531 2203 3934 
Q 2866 4338 2963 4800 
L 1025 4800 
L 1025 5222 
L 5375 5222 
L 5375 4800 
L 3438 4800 
Q 3534 4331 4187 3928 
Q 4841 3525 5703 3463 
L 5459 3078 
z
M 3438 2088 
L 3438 603 
L 2963 603 
L 2963 2088 
L 403 2088 
L 403 2503 
L 5997 2503 
L 5997 2088 
L 3438 2088 
z
M 1325 -359 
L 1325 1459 
L 1791 1459 
L 1791 56 
L 5203 56 
L 5203 -359 
L 1325 -359 
z
" transform="scale(0.015625)"/>
       <path id="MalgunGothic-d3b8" d="M 3884 2841 
L 3884 3244 
L 4972 3244 
L 4972 3828 
L 3884 3828 
L 3884 4231 
L 4972 4231 
L 4972 5466 
L 5441 5466 
L 5441 1069 
L 4972 1069 
L 4972 2841 
L 3884 2841 
z
M 794 4678 
L 794 5088 
L 4056 5088 
L 4056 4678 
L 794 4678 
z
M 4306 2075 
Q 3913 1997 3244 1997 
L 647 1997 
L 647 2406 
L 1466 2406 
L 1394 4334 
L 1850 4334 
L 1906 2406 
L 2900 2406 
L 2956 4334 
L 3413 4334 
L 3334 2413 
Q 3925 2413 4275 2478 
L 4306 2075 
z
M 1672 -366 
L 1672 1453 
L 2138 1453 
L 2138 44 
L 5575 44 
L 5575 -366 
L 1672 -366 
z
" transform="scale(0.015625)"/>
       <path id="MalgunGothic-cc28" d="M 3803 972 
Q 3288 1272 2848 1772 
Q 2409 2272 2266 2663 
Q 2144 2278 1692 1715 
Q 1241 1153 775 850 
L 428 1197 
Q 1084 1513 1559 2223 
Q 2034 2934 2034 3597 
L 2034 4206 
L 563 4206 
L 563 4622 
L 2028 4622 
L 2028 5466 
L 2491 5466 
L 2491 4622 
L 3956 4622 
L 3956 4206 
L 2491 4206 
L 2491 3578 
Q 2491 2938 2966 2281 
Q 3441 1625 4122 1338 
L 3803 972 
z
M 5094 2497 
L 5094 -563 
L 4628 -563 
L 4628 5466 
L 5094 5466 
L 5094 2919 
L 6081 2919 
L 6081 2497 
L 5094 2497 
z
" transform="scale(0.015625)"/>
      </defs>
      <use xlink:href="#MalgunGothic-bcc0"/>
      <use xlink:href="#MalgunGothic-b3d9" x="100"/>
      <use xlink:href="#MalgunGothic-c131" x="200"/>
      <use xlink:href="#MalgunGothic-20" x="300"/>
      <use xlink:href="#MalgunGothic-28" x="335.15625"/>
      <use xlink:href="#MalgunGothic-c774" x="365.625"/>
      <use xlink:href="#MalgunGothic-b3d9" x="465.625"/>
      <use xlink:href="#MalgunGothic-20" x="565.625"/>
      <use xlink:href="#MalgunGothic-d45c" x="600.78125"/>
      <use xlink:href="#MalgunGothic-c900" x="700.78125"/>
      <use xlink:href="#MalgunGothic-d3b8" x="800.78125"/>
      <use xlink:href="#MalgunGothic-cc28" x="900.78125"/>
      <use xlink:href="#MalgunGothic-29" x="1000.78125"/>
     </g>
    </g>
   </g>
   <g id="line2d_15">
    <path d="M 135.374776 492.479529 
L 137.498507 492.479529 
L 137.623433 379.208468 
L 137.914925 89.280008 
L 174.976119 89.280008 
L 175.101045 200.855829 
L 175.392537 492.479529 
L 177.474627 492.479529 
L 177.599552 379.208468 
L 177.891045 89.280008 
L 217.450746 89.280007 
L 217.575672 200.855828 
L 217.867164 492.479528 
L 219.949254 492.479527 
L 220.074179 379.208467 
L 220.365672 89.280007 
L 259.925373 89.280005 
L 260.050299 200.855826 
L 260.341791 492.479526 
L 262.423881 492.479526 
L 262.548806 379.208465 
L 262.840299 89.280005 
L 302.4 89.280003 
L 302.524925 200.855824 
L 302.816418 492.479523 
L 304.898507 492.479523 
L 305.023433 379.208463 
L 305.314925 89.280003 
L 342.376119 89.280001 
L 342.501045 200.855822 
L 342.792537 492.479521 
L 344.874627 492.479521 
L 344.999552 379.208461 
L 345.291045 89.280001 
L 384.850746 89.28 
L 384.975672 200.855821 
L 385.267164 492.47952 
L 387.349254 492.47952 
L 387.474179 379.20846 
L 387.765672 89.28 
L 427.325373 89.280005 
L 427.450299 200.855826 
L 427.741791 492.479525 
L 429.823881 492.479526 
L 429.948806 379.208465 
L 430.240299 89.280005 
L 467.301493 89.280015 
L 467.426418 200.855836 
L 467.71791 492.479537 
L 469.8 492.479537 
L 469.924925 379.208476 
L 470.216418 89.280016 
L 509.776119 89.280032 
L 509.901045 200.855854 
L 510.192537 492.479555 
L 512.274627 492.479556 
L 512.399552 379.208495 
L 512.691045 89.280033 
L 552.250746 89.280055 
L 552.375672 200.855877 
L 552.667164 492.479581 
L 554.749254 492.479582 
L 554.874179 379.20852 
L 555.165672 89.280057 
L 594.725373 89.280087 
L 594.850299 200.85591 
L 595.141791 492.479615 
L 597.223881 492.479617 
L 597.348806 379.208554 
L 597.640299 89.280089 
L 634.701493 89.280128 
L 634.826418 200.855952 
L 635.11791 492.479661 
L 637.2 492.479663 
L 637.324925 379.208599 
L 637.616418 89.280131 
L 677.176119 89.280173 
L 677.301045 200.855998 
L 677.592537 492.479709 
L 679.674627 492.479711 
L 679.799552 379.208646 
L 680.091045 89.280176 
L 719.650746 89.280218 
L 719.775672 200.856044 
L 720.067164 492.479758 
L 722.149254 492.47976 
L 722.274179 379.208693 
L 722.565672 89.28022 
L 762.125373 89.280262 
L 762.250299 200.856089 
L 762.541791 492.479806 
L 764.623881 492.479808 
L 764.748806 379.208741 
L 765.040299 89.280265 
L 804.6 89.280307 
L 804.724925 200.856135 
L 805.016418 492.479855 
L 807.098507 492.479857 
L 807.223433 379.208788 
L 807.514925 89.280309 
L 844.576119 89.280349 
L 844.701045 200.856178 
L 844.992537 492.479901 
L 847.074627 492.479903 
L 847.199552 379.208833 
L 847.491045 89.280351 
L 887.050746 89.280393 
L 887.175672 200.856223 
L 887.467164 492.479949 
L 889.549254 492.479951 
L 889.674179 379.20888 
L 889.965672 89.280396 
L 929.525373 89.280438 
L 929.650299 200.856269 
L 929.941791 492.479998 
L 932.023881 492.48 
L 932.148806 379.208928 
L 932.440299 89.28044 
L 972 89.280482 
L 972 89.280482 
" clip-path="url(#p1b9949d121)" style="fill: none; stroke: #ff6384; stroke-width: 1.5; stroke-linecap: round"/>
   </g>
   <g id="line2d_16">
    <path d="M 135 89.280001 
L 972 89.280001 
" clip-path="url(#p1b9949d121)" style="fill: none; stroke-dasharray: 5.55,2.4; stroke-dashoffset: 0; stroke: #000000; stroke-width: 1.5"/>
   </g>
   <g id="patch_3">
    <path d="M 135 512.64 
L 135 69.12 
" style="fill: none; stroke: #262626; stroke-width: 1.25; stroke-linejoin: miter; stroke-linecap: square"/>
   </g>
   <g id="patch_4">
    <path d="M 972 512.64 
L 972 69.12 
" style="fill: none; stroke: #262626; stroke-width: 1.25; stroke-linejoin: miter; stroke-linecap: square"/>
   </g>
   <g id="patch_5">
    <path d="M 135 512.64 
L 972 512.64 
" style="fill: none; stroke: #262626; stroke-width: 1.25; stroke-linejoin: miter; stroke-linecap: square"/>
   </g>
   <g id="patch_6">
    <path d="M 135 69.12 
L 972 69.12 
" style="fill: none; stroke: #262626; stroke-width: 1.25; stroke-linejoin: miter; stroke-linecap: square"/>
   </g>
   <g id="text_22">
    <!-- 이산화탄소 변동성 분석 -->
    <g style="fill: #262626" transform="translate(457.171875 63.12) scale(0.18 -0.18)">
     <defs>
      <path id="MalgunGothic-c0b0" d="M 5125 3169 
L 5125 1081 
L 4659 1081 
L 4659 5466 
L 5125 5466 
L 5125 3584 
L 6034 3584 
L 6034 3169 
L 5125 3169 
z
M 3597 2081 
Q 3206 2294 2778 2731 
Q 2350 3169 2188 3525 
Q 2038 3125 1603 2642 
Q 1169 2159 750 1925 
L 409 2247 
Q 1041 2553 1492 3173 
Q 1944 3794 1953 4453 
L 1953 5228 
L 2400 5228 
L 2400 4453 
Q 2400 3841 2853 3259 
Q 3306 2678 3909 2419 
L 3597 2081 
z
M 1478 -353 
L 1478 1528 
L 1953 1528 
L 1953 72 
L 5325 72 
L 5325 -353 
L 1478 -353 
z
" transform="scale(0.015625)"/>
      <path id="MalgunGothic-d654" d="M 5228 2363 
L 5228 -563 
L 4763 -563 
L 4763 5466 
L 5228 5466 
L 5228 2778 
L 6156 2778 
L 6156 2363 
L 5228 2363 
z
M 2131 5441 
L 2591 5441 
L 2591 4653 
L 4159 4653 
L 4159 4238 
L 556 4238 
L 556 4653 
L 2131 4653 
L 2131 5441 
z
M 2591 1741 
L 2591 884 
Q 3688 900 4409 947 
L 4441 544 
Q 2791 447 359 447 
L 313 856 
Q 1141 856 2125 878 
L 2125 1734 
Q 1506 1791 1175 2092 
Q 844 2394 844 2828 
Q 844 3316 1250 3627 
Q 1656 3938 2363 3938 
Q 3059 3938 3465 3633 
Q 3872 3328 3872 2859 
Q 3872 2400 3536 2098 
Q 3200 1797 2591 1741 
z
M 2363 3541 
Q 1875 3541 1594 3342 
Q 1313 3144 1313 2828 
Q 1313 2513 1592 2319 
Q 1872 2125 2363 2125 
Q 2847 2125 3126 2320 
Q 3406 2516 3406 2828 
Q 3406 3144 3125 3342 
Q 2844 3541 2363 3541 
z
" transform="scale(0.015625)"/>
      <path id="MalgunGothic-d0c4" d="M 5125 3169 
L 5125 1125 
L 4659 1125 
L 4659 5466 
L 5125 5466 
L 5125 3584 
L 6034 3584 
L 6034 3169 
L 5125 3169 
z
M 1319 3431 
L 1319 2553 
Q 3244 2553 3872 2613 
L 3903 2209 
Q 3306 2138 850 2138 
L 850 5081 
L 3688 5081 
L 3688 4666 
L 1319 4666 
L 1319 3834 
L 3372 3834 
L 3372 3431 
L 1319 3431 
z
M 1459 -378 
L 1459 1606 
L 1925 1606 
L 1925 38 
L 5294 38 
L 5294 -378 
L 1459 -378 
z
" transform="scale(0.015625)"/>
      <path id="MalgunGothic-c18c" d="M 3194 3909 
Q 2963 3416 2330 2941 
Q 1697 2466 959 2259 
L 641 2631 
Q 1700 2872 2328 3497 
Q 2956 4122 2956 4666 
L 2956 4984 
L 3438 4984 
L 3438 4666 
Q 3438 4131 4069 3506 
Q 4700 2881 5759 2631 
L 5428 2266 
Q 4719 2481 4072 2957 
Q 3425 3434 3194 3909 
z
M 403 384 
L 403 800 
L 2963 800 
L 2963 2266 
L 3438 2266 
L 3438 800 
L 5997 800 
L 5997 384 
L 403 384 
z
" transform="scale(0.015625)"/>
      <path id="MalgunGothic-bd84" d="M 1338 2994 
L 1338 5306 
L 1806 5306 
L 1806 4525 
L 4594 4525 
L 4594 5306 
L 5056 5306 
L 5056 2994 
L 1338 2994 
z
M 4594 4109 
L 1806 4109 
L 1806 3406 
L 4594 3406 
L 4594 4109 
z
M 3456 1863 
L 3456 494 
L 2988 494 
L 2988 1863 
L 403 1863 
L 403 2278 
L 5997 2278 
L 5997 1863 
L 3456 1863 
z
M 1288 -384 
L 1288 1344 
L 1753 1344 
L 1753 31 
L 5216 31 
L 5216 -384 
L 1288 -384 
z
" transform="scale(0.015625)"/>
      <path id="MalgunGothic-c11d" d="M 4884 1991 
L 4884 3775 
L 3444 3775 
L 3444 4200 
L 4884 4200 
L 4884 5466 
L 5350 5466 
L 5350 1991 
L 4884 1991 
z
M 3653 2297 
Q 3244 2519 2831 2919 
Q 2419 3319 2253 3669 
Q 2072 3266 1662 2827 
Q 1253 2388 819 2144 
L 488 2463 
Q 1144 2781 1576 3368 
Q 2009 3956 2009 4594 
L 2009 5269 
L 2463 5269 
L 2463 4594 
Q 2463 3997 2913 3440 
Q 3363 2884 3969 2638 
L 3653 2297 
z
M 4884 -563 
L 4884 1234 
L 1428 1234 
L 1428 1650 
L 5350 1650 
L 5350 -563 
L 4884 -563 
z
" transform="scale(0.015625)"/>
     </defs>
     <use xlink:href="#MalgunGothic-c774"/>
     <use xlink:href="#MalgunGothic-c0b0" x="100"/>
     <use xlink:href="#MalgunGothic-d654" x="200"/>
     <use xlink:href="#MalgunGothic-d0c4" x="300"/>
     <use xlink:href="#MalgunGothic-c18c" x="400"/>
     <use xlink:href="#MalgunGothic-20" x="500"/>
     <use xlink:href="#MalgunGothic-bcc0" x="535.15625"/>
     <use xlink:href="#MalgunGothic-b3d9" x="635.15625"/>
     <use xlink:href="#MalgunGothic-c131" x="735.15625"/>
     <use xlink:href="#MalgunGothic-20" x="835.15625"/>
     <use xlink:href="#MalgunGothic-bd84" x="870.3125"/>
     <use xlink:href="#MalgunGothic-c11d" x="970.3125"/>
    </g>
   </g>
   <g id="legend_1">
    <g id="patch_7">
     <path d="M 705.759375 122.499375 
L 962.2 122.499375 
Q 965 122.499375 965 119.699375 
L 965 78.92 
Q 965 76.12 962.2 76.12 
L 705.759375 76.12 
Q 702.959375 76.12 702.959375 78.92 
L 702.959375 119.699375 
Q 702.959375 122.499375 705.759375 122.499375 
z
" style="fill: #ffffff; opacity: 0.8; stroke: #cccccc; stroke-linejoin: miter"/>
    </g>
    <g id="line2d_17">
     <path d="M 708.559375 87.449062 
L 722.559375 87.449062 
L 736.559375 87.449062 
" style="fill: none; stroke: #ff6384; stroke-width: 1.5; stroke-linecap: round"/>
    </g>
    <g id="text_23">
     <!-- 이산화탄소 변동성 -->
     <g style="fill: #262626" transform="translate(747.759375 92.349063) scale(0.14 -0.14)">
      <use xlink:href="#MalgunGothic-c774"/>
      <use xlink:href="#MalgunGothic-c0b0" x="100"/>
      <use xlink:href="#MalgunGothic-d654" x="200"/>
      <use xlink:href="#MalgunGothic-d0c4" x="300"/>
      <use xlink:href="#MalgunGothic-c18c" x="400"/>
      <use xlink:href="#MalgunGothic-20" x="500"/>
      <use xlink:href="#MalgunGothic-bcc0" x="535.15625"/>
      <use xlink:href="#MalgunGothic-b3d9" x="635.15625"/>
      <use xlink:href="#MalgunGothic-c131" x="735.15625"/>
     </g>
    </g>
    <g id="line2d_18">
     <path d="M 708.559375 108.689688 
L 722.559375 108.689688 
L 736.559375 108.689688 
" style="fill: none; stroke-dasharray: 5.55,2.4; stroke-dashoffset: 0; stroke: #000000; stroke-width: 1.5"/>
    </g>
    <g id="text_24">
     <!-- 높은 변동성 기준선 (95 백분위수) -->
     <g style="fill: #262626" transform="translate(747.759375 113.589688) scale(0.14 -0.14)">
      <defs>
       <path id="MalgunGothic-b192" d="M 403 2284 
L 403 2700 
L 2963 2700 
L 2963 3506 
L 1375 3506 
L 1375 5350 
L 1844 5350 
L 1844 3922 
L 5178 3922 
L 5178 3506 
L 3438 3506 
L 3438 2700 
L 5997 2700 
L 5997 2284 
L 403 2284 
z
M 1131 -397 
L 1131 13 
L 1953 13 
L 1953 1269 
L 1209 1269 
L 1209 1678 
L 5191 1678 
L 5191 1269 
L 4447 1269 
L 4447 13 
L 5269 13 
L 5269 -397 
L 1131 -397 
z
M 3988 1269 
L 2413 1269 
L 2413 13 
L 3988 13 
L 3988 1269 
z
" transform="scale(0.015625)"/>
       <path id="MalgunGothic-c740" d="M 3200 2950 
Q 2309 2950 1817 3287 
Q 1325 3625 1325 4159 
Q 1325 4694 1815 5028 
Q 2306 5363 3200 5363 
Q 4094 5363 4587 5028 
Q 5081 4694 5081 4159 
Q 5081 3625 4584 3287 
Q 4088 2950 3200 2950 
z
M 3200 4966 
Q 2541 4966 2177 4747 
Q 1813 4528 1813 4159 
Q 1813 3791 2177 3572 
Q 2541 3353 3200 3353 
Q 3859 3353 4223 3572 
Q 4588 3791 4588 4159 
Q 4588 4528 4223 4747 
Q 3859 4966 3200 4966 
z
M 403 1919 
L 403 2344 
L 5997 2344 
L 5997 1919 
L 403 1919 
z
M 1338 -359 
L 1338 1331 
L 1813 1331 
L 1813 56 
L 5203 56 
L 5203 -359 
L 1338 -359 
z
" transform="scale(0.015625)"/>
       <path id="MalgunGothic-ae30" d="M 4884 -563 
L 4884 5466 
L 5350 5466 
L 5350 -563 
L 4884 -563 
z
M 3675 4909 
Q 3653 3656 2956 2611 
Q 2259 1566 959 844 
L 603 1222 
Q 1559 1619 2293 2478 
Q 3028 3338 3175 4494 
L 850 4494 
L 850 4909 
L 3675 4909 
z
" transform="scale(0.015625)"/>
       <path id="MalgunGothic-c120" d="M 4878 1063 
L 4878 3653 
L 3469 3653 
L 3469 4072 
L 4878 4072 
L 4878 5466 
L 5344 5466 
L 5344 1063 
L 4878 1063 
z
M 3675 2069 
Q 3228 2344 2829 2776 
Q 2431 3209 2266 3566 
Q 2091 3150 1662 2648 
Q 1234 2147 819 1913 
L 481 2234 
Q 1125 2559 1573 3198 
Q 2022 3838 2022 4494 
L 2022 5269 
L 2478 5269 
L 2478 4494 
Q 2478 3894 2943 3286 
Q 3409 2678 3988 2406 
L 3675 2069 
z
M 1631 -366 
L 1631 1550 
L 2100 1550 
L 2100 44 
L 5503 44 
L 5503 -366 
L 1631 -366 
z
" transform="scale(0.015625)"/>
       <path id="MalgunGothic-bc31" d="M 5056 2028 
L 5056 3438 
L 4359 3438 
L 4359 2028 
L 3897 2028 
L 3897 5344 
L 4359 5344 
L 4359 3859 
L 5056 3859 
L 5056 5466 
L 5522 5466 
L 5522 2028 
L 5056 2028 
z
M 763 2363 
L 763 5209 
L 1222 5209 
L 1222 4103 
L 2772 4103 
L 2772 5209 
L 3231 5209 
L 3231 2363 
L 763 2363 
z
M 2772 3688 
L 1222 3688 
L 1222 2778 
L 2772 2778 
L 2772 3688 
z
M 5056 -563 
L 5056 1281 
L 1581 1281 
L 1581 1697 
L 5522 1697 
L 5522 -563 
L 5056 -563 
z
" transform="scale(0.015625)"/>
       <path id="MalgunGothic-c704" d="M 4997 -563 
L 4997 5466 
L 5466 5466 
L 5466 -563 
L 4997 -563 
z
M 2491 2784 
Q 1800 2784 1376 3140 
Q 953 3497 953 4038 
Q 953 4581 1376 4940 
Q 1800 5300 2491 5300 
Q 3178 5300 3598 4942 
Q 4019 4584 4019 4038 
Q 4019 3494 3600 3139 
Q 3181 2784 2491 2784 
z
M 2491 4897 
Q 2006 4897 1714 4659 
Q 1422 4422 1422 4038 
Q 1422 3653 1714 3420 
Q 2006 3188 2491 3188 
Q 2978 3188 3265 3422 
Q 3553 3656 3553 4038 
Q 3553 4419 3264 4658 
Q 2975 4897 2491 4897 
z
M 2297 -391 
L 2297 1825 
Q 903 1800 500 1800 
L 453 2209 
Q 3088 2209 4603 2297 
L 4628 1894 
Q 4203 1866 2766 1831 
L 2766 -391 
L 2297 -391 
z
" transform="scale(0.015625)"/>
       <path id="MalgunGothic-c218" d="M 5491 2994 
Q 4750 3097 4078 3498 
Q 3406 3900 3200 4275 
Q 2975 3891 2309 3491 
Q 1644 3091 922 2956 
L 634 3347 
Q 1559 3450 2261 3942 
Q 2963 4434 2963 5013 
L 2963 5275 
L 3431 5275 
L 3431 5013 
Q 3431 4431 4118 3948 
Q 4806 3466 5766 3378 
L 5491 2994 
z
M 3431 1838 
L 3431 -563 
L 2963 -563 
L 2963 1838 
L 403 1838 
L 403 2253 
L 5997 2253 
L 5997 1838 
L 3431 1838 
z
" transform="scale(0.015625)"/>
      </defs>
      <use xlink:href="#MalgunGothic-b192"/>
      <use xlink:href="#MalgunGothic-c740" x="100"/>
      <use xlink:href="#MalgunGothic-20" x="200"/>
      <use xlink:href="#MalgunGothic-bcc0" x="235.15625"/>
      <use xlink:href="#MalgunGothic-b3d9" x="335.15625"/>
      <use xlink:href="#MalgunGothic-c131" x="435.15625"/>
      <use xlink:href="#MalgunGothic-20" x="535.15625"/>
      <use xlink:href="#MalgunGothic-ae30" x="570.3125"/>
      <use xlink:href="#MalgunGothic-c900" x="670.3125"/>
      <use xlink:href="#MalgunGothic-c120" x="770.3125"/>
      <use xlink:href="#MalgunGothic-20" x="870.3125"/>
      <use xlink:href="#MalgunGothic-28" x="905.46875"/>
      <use xlink:href="#MalgunGothic-39" x="935.9375"/>
      <use xlink:href="#MalgunGothic-35" x="991.015625"/>
      <use xlink:href="#MalgunGothic-20" x="1046.09375"/>
      <use xlink:href="#MalgunGothic-bc31" x="1081.25"/>
      <use xlink:href="#MalgunGothic-bd84" x="1181.25"/>
      <use xlink:href="#MalgunGothic-c704" x="1281.25"/>
      <use xlink:href="#MalgunGothic-c218" x="1381.25"/>
      <use xlink:href="#MalgunGothic-29" x="1481.25"/>
     </g>
    </g>
   </g>
  </g>
 </g>
 <defs>
  <clipPath id="p1b9949d121">
   <rect x="135" y="69.12" width="837" height="443.52"/>
  </clipPath>
 </defs>
</svg>
