<?xml version="1.0" encoding="utf-8" standalone="no"?>
<!DOCTYPE svg PUBLIC "-//W3C//DTD SVG 1.1//EN"
  "http://www.w3.org/Graphics/SVG/1.1/DTD/svg11.dtd">
<svg xmlns:xlink="http://www.w3.org/1999/xlink" width="1080pt" height="576pt" viewBox="0 0 1080 576" xmlns="http://www.w3.org/2000/svg" version="1.1">
 <metadata>
  <rdf:RDF xmlns:dc="http://purl.org/dc/elements/1.1/" xmlns:cc="http://creativecommons.org/ns#" xmlns:rdf="http://www.w3.org/1999/02/22-rdf-syntax-ns#">
   <cc:Work>
    <dc:type rdf:resource="http://purl.org/dc/dcmitype/StillImage"/>
    <dc:date>2024-11-12T22:44:47.697859</dc:date>
    <dc:format>image/svg+xml</dc:format>
    <dc:creator>
     <cc:Agent>
      <dc:title>Matplotlib v3.9.2, https://matplotlib.org/</dc:title>
     </cc:Agent>
    </dc:creator>
   </cc:Work>
  </rdf:RDF>
 </metadata>
 <defs>
  <style type="text/css">*{stroke-linejoin: round; stroke-linecap: butt}</style>
 </defs>
 <g id="figure_1">
  <g id="patch_1">
   <path d="M 0 576 
L 1080 576 
L 1080 0 
L 0 0 
z
" style="fill: #ffffff"/>
  </g>
  <g id="axes_1">
   <g id="patch_2">
    <path d="M 135 512.64 
L 972 512.64 
L 972 69.12 
L 135 69.12 
z
" style="fill: #ffffff"/>
   </g>
   <g id="matplotlib.axis_1">
    <g id="xtick_1">
     <g id="text_1">
      <!-- 10000 -->
      <g style="fill: #262626" transform="translate(243.438964 532.769063) scale(0.14 -0.14)">
       <defs>
        <path id="MalgunGothic-31" d="M 2231 0 
L 1734 0 
L 1734 3972 
Q 1591 3828 1266 3661 
Q 941 3494 672 3428 
L 672 3959 
Q 1016 4056 1409 4275 
Q 1803 4494 2031 4700 
L 2231 4700 
L 2231 0 
z
" transform="scale(0.015625)"/>
        <path id="MalgunGothic-30" d="M 278 2206 
Q 278 3425 675 4050 
Q 1072 4675 1819 4675 
Q 3253 4675 3253 2319 
Q 3253 1156 2854 539 
Q 2456 -78 1716 -78 
Q 1016 -78 647 520 
Q 278 1119 278 2206 
z
M 784 2231 
Q 784 344 1769 344 
Q 2747 344 2747 2259 
Q 2747 4250 1794 4250 
Q 784 4250 784 2231 
z
" transform="scale(0.015625)"/>
       </defs>
       <use xlink:href="#MalgunGothic-31"/>
       <use xlink:href="#MalgunGothic-30" x="55.078125"/>
       <use xlink:href="#MalgunGothic-30" x="110.15625"/>
       <use xlink:href="#MalgunGothic-30" x="165.234375"/>
       <use xlink:href="#MalgunGothic-30" x="220.3125"/>
      </g>
     </g>
    </g>
    <g id="xtick_2">
     <g id="text_2">
      <!-- 20000 -->
      <g style="fill: #262626" transform="translate(371.244736 532.769063) scale(0.14 -0.14)">
       <defs>
        <path id="MalgunGothic-32" d="M 2519 3372 
Q 2519 3784 2275 4018 
Q 2031 4253 1628 4253 
Q 1341 4253 1053 4104 
Q 766 3956 534 3697 
L 534 4234 
Q 981 4675 1691 4675 
Q 2281 4675 2642 4334 
Q 3003 3994 3003 3416 
Q 3003 2919 2772 2545 
Q 2541 2172 1984 1775 
Q 1459 1406 1254 1215 
Q 1050 1025 967 854 
Q 884 684 884 450 
L 3116 450 
L 3116 0 
L 356 0 
L 356 225 
Q 356 603 461 870 
Q 566 1138 811 1392 
Q 1056 1647 1597 2022 
Q 2091 2363 2305 2670 
Q 2519 2978 2519 3372 
z
" transform="scale(0.015625)"/>
       </defs>
       <use xlink:href="#MalgunGothic-32"/>
       <use xlink:href="#MalgunGothic-30" x="55.078125"/>
       <use xlink:href="#MalgunGothic-30" x="110.15625"/>
       <use xlink:href="#MalgunGothic-30" x="165.234375"/>
       <use xlink:href="#MalgunGothic-30" x="220.3125"/>
      </g>
     </g>
    </g>
    <g id="xtick_3">
     <g id="text_3">
      <!-- 30000 -->
      <g style="fill: #262626" transform="translate(499.050508 532.769063) scale(0.14 -0.14)">
       <defs>
        <path id="MalgunGothic-33" d="M 416 719 
Q 891 344 1478 344 
Q 1959 344 2254 587 
Q 2550 831 2550 1247 
Q 2550 2169 1253 2169 
L 872 2169 
L 872 2591 
L 1234 2591 
Q 2388 2591 2388 3453 
Q 2388 4250 1509 4250 
Q 1022 4250 594 3916 
L 594 4413 
Q 1031 4675 1634 4675 
Q 2184 4675 2539 4372 
Q 2894 4069 2894 3581 
Q 2894 2678 1972 2409 
L 1972 2400 
Q 2469 2356 2764 2053 
Q 3059 1750 3059 1300 
Q 3059 672 2604 297 
Q 2150 -78 1450 -78 
Q 806 -78 416 169 
L 416 719 
z
" transform="scale(0.015625)"/>
       </defs>
       <use xlink:href="#MalgunGothic-33"/>
       <use xlink:href="#MalgunGothic-30" x="55.078125"/>
       <use xlink:href="#MalgunGothic-30" x="110.15625"/>
       <use xlink:href="#MalgunGothic-30" x="165.234375"/>
       <use xlink:href="#MalgunGothic-30" x="220.3125"/>
      </g>
     </g>
    </g>
    <g id="xtick_4">
     <g id="text_4">
      <!-- 40000 -->
      <g style="fill: #262626" transform="translate(626.85628 532.769063) scale(0.14 -0.14)">
       <defs>
        <path id="MalgunGothic-34" d="M 2703 4600 
L 2703 1563 
L 3309 1563 
L 3309 1113 
L 2703 1113 
L 2703 0 
L 2213 0 
L 2213 1113 
L 50 1113 
L 50 1534 
Q 728 2297 1295 3109 
Q 1863 3922 2172 4600 
L 2703 4600 
z
M 625 1563 
L 2213 1563 
L 2213 3831 
Q 1613 2788 959 1981 
L 625 1563 
z
" transform="scale(0.015625)"/>
       </defs>
       <use xlink:href="#MalgunGothic-34"/>
       <use xlink:href="#MalgunGothic-30" x="55.078125"/>
       <use xlink:href="#MalgunGothic-30" x="110.15625"/>
       <use xlink:href="#MalgunGothic-30" x="165.234375"/>
       <use xlink:href="#MalgunGothic-30" x="220.3125"/>
      </g>
     </g>
    </g>
    <g id="xtick_5">
     <g id="text_5">
      <!-- 50000 -->
      <g style="fill: #262626" transform="translate(754.662052 532.769063) scale(0.14 -0.14)">
       <defs>
        <path id="MalgunGothic-35" d="M 3072 1403 
Q 3072 722 2636 322 
Q 2200 -78 1469 -78 
Q 828 -78 516 113 
L 516 650 
Q 994 344 1475 344 
Q 1969 344 2270 630 
Q 2572 916 2572 1372 
Q 2572 1838 2265 2092 
Q 1959 2347 1381 2347 
Q 994 2347 603 2300 
L 759 4600 
L 2869 4600 
L 2869 4147 
L 1206 4147 
L 1106 2763 
Q 1347 2784 1547 2784 
Q 2263 2784 2667 2414 
Q 3072 2044 3072 1403 
z
" transform="scale(0.015625)"/>
       </defs>
       <use xlink:href="#MalgunGothic-35"/>
       <use xlink:href="#MalgunGothic-30" x="55.078125"/>
       <use xlink:href="#MalgunGothic-30" x="110.15625"/>
       <use xlink:href="#MalgunGothic-30" x="165.234375"/>
       <use xlink:href="#MalgunGothic-30" x="220.3125"/>
      </g>
     </g>
    </g>
    <g id="xtick_6">
     <g id="text_6">
      <!-- 60000 -->
      <g style="fill: #262626" transform="translate(882.467823 532.769063) scale(0.14 -0.14)">
       <defs>
        <path id="MalgunGothic-36" d="M 2981 4069 
Q 2619 4250 2228 4250 
Q 1591 4250 1228 3689 
Q 866 3128 869 2213 
L 884 2213 
Q 1203 2872 1938 2872 
Q 2547 2872 2903 2478 
Q 3259 2084 3259 1450 
Q 3259 797 2857 359 
Q 2456 -78 1825 -78 
Q 1116 -78 736 478 
Q 356 1034 356 2019 
Q 356 3181 847 3928 
Q 1338 4675 2222 4675 
Q 2700 4675 2981 4544 
L 2981 4069 
z
M 906 1506 
Q 906 1022 1165 683 
Q 1425 344 1844 344 
Q 2247 344 2498 645 
Q 2750 947 2750 1388 
Q 2750 1888 2509 2167 
Q 2269 2447 1838 2447 
Q 1444 2447 1175 2173 
Q 906 1900 906 1506 
z
" transform="scale(0.015625)"/>
       </defs>
       <use xlink:href="#MalgunGothic-36"/>
       <use xlink:href="#MalgunGothic-30" x="55.078125"/>
       <use xlink:href="#MalgunGothic-30" x="110.15625"/>
       <use xlink:href="#MalgunGothic-30" x="165.234375"/>
       <use xlink:href="#MalgunGothic-30" x="220.3125"/>
      </g>
     </g>
    </g>
    <g id="text_7">
     <!-- 이산화탄소 농도 값 -->
     <g style="fill: #262626" transform="translate(483.875 552.22625) scale(0.16 -0.16)">
      <defs>
       <path id="MalgunGothic-c774" d="M 4947 -563 
L 4947 5466 
L 5416 5466 
L 5416 -563 
L 4947 -563 
z
M 2284 959 
Q 1597 959 1173 1514 
Q 750 2069 750 3016 
Q 750 3975 1169 4522 
Q 1588 5069 2284 5069 
Q 2978 5069 3403 4522 
Q 3828 3975 3828 3016 
Q 3828 2063 3401 1511 
Q 2975 959 2284 959 
z
M 2284 4653 
Q 1803 4653 1503 4204 
Q 1203 3756 1203 3016 
Q 1203 2278 1506 1826 
Q 1809 1375 2284 1375 
Q 2756 1375 3061 1828 
Q 3366 2281 3366 3016 
Q 3366 3759 3067 4206 
Q 2769 4653 2284 4653 
z
" transform="scale(0.015625)"/>
       <path id="MalgunGothic-c0b0" d="M 5125 3169 
L 5125 1081 
L 4659 1081 
L 4659 5466 
L 5125 5466 
L 5125 3584 
L 6034 3584 
L 6034 3169 
L 5125 3169 
z
M 3597 2081 
Q 3206 2294 2778 2731 
Q 2350 3169 2188 3525 
Q 2038 3125 1603 2642 
Q 1169 2159 750 1925 
L 409 2247 
Q 1041 2553 1492 3173 
Q 1944 3794 1953 4453 
L 1953 5228 
L 2400 5228 
L 2400 4453 
Q 2400 3841 2853 3259 
Q 3306 2678 3909 2419 
L 3597 2081 
z
M 1478 -353 
L 1478 1528 
L 1953 1528 
L 1953 72 
L 5325 72 
L 5325 -353 
L 1478 -353 
z
" transform="scale(0.015625)"/>
       <path id="MalgunGothic-d654" d="M 5228 2363 
L 5228 -563 
L 4763 -563 
L 4763 5466 
L 5228 5466 
L 5228 2778 
L 6156 2778 
L 6156 2363 
L 5228 2363 
z
M 2131 5441 
L 2591 5441 
L 2591 4653 
L 4159 4653 
L 4159 4238 
L 556 4238 
L 556 4653 
L 2131 4653 
L 2131 5441 
z
M 2591 1741 
L 2591 884 
Q 3688 900 4409 947 
L 4441 544 
Q 2791 447 359 447 
L 313 856 
Q 1141 856 2125 878 
L 2125 1734 
Q 1506 1791 1175 2092 
Q 844 2394 844 2828 
Q 844 3316 1250 3627 
Q 1656 3938 2363 3938 
Q 3059 3938 3465 3633 
Q 3872 3328 3872 2859 
Q 3872 2400 3536 2098 
Q 3200 1797 2591 1741 
z
M 2363 3541 
Q 1875 3541 1594 3342 
Q 1313 3144 1313 2828 
Q 1313 2513 1592 2319 
Q 1872 2125 2363 2125 
Q 2847 2125 3126 2320 
Q 3406 2516 3406 2828 
Q 3406 3144 3125 3342 
Q 2844 3541 2363 3541 
z
" transform="scale(0.015625)"/>
       <path id="MalgunGothic-d0c4" d="M 5125 3169 
L 5125 1125 
L 4659 1125 
L 4659 5466 
L 5125 5466 
L 5125 3584 
L 6034 3584 
L 6034 3169 
L 5125 3169 
z
M 1319 3431 
L 1319 2553 
Q 3244 2553 3872 2613 
L 3903 2209 
Q 3306 2138 850 2138 
L 850 5081 
L 3688 5081 
L 3688 4666 
L 1319 4666 
L 1319 3834 
L 3372 3834 
L 3372 3431 
L 1319 3431 
z
M 1459 -378 
L 1459 1606 
L 1925 1606 
L 1925 38 
L 5294 38 
L 5294 -378 
L 1459 -378 
z
" transform="scale(0.015625)"/>
       <path id="MalgunGothic-c18c" d="M 3194 3909 
Q 2963 3416 2330 2941 
Q 1697 2466 959 2259 
L 641 2631 
Q 1700 2872 2328 3497 
Q 2956 4122 2956 4666 
L 2956 4984 
L 3438 4984 
L 3438 4666 
Q 3438 4131 4069 3506 
Q 4700 2881 5759 2631 
L 5428 2266 
Q 4719 2481 4072 2957 
Q 3425 3434 3194 3909 
z
M 403 384 
L 403 800 
L 2963 800 
L 2963 2266 
L 3438 2266 
L 3438 800 
L 5997 800 
L 5997 384 
L 403 384 
z
" transform="scale(0.015625)"/>
       <path id="MalgunGothic-20" transform="scale(0.015625)"/>
       <path id="MalgunGothic-b18d" d="M 403 2247 
L 403 2663 
L 2963 2663 
L 2963 3475 
L 1375 3475 
L 1375 5338 
L 1844 5338 
L 1844 3897 
L 5178 3897 
L 5178 3475 
L 3438 3475 
L 3438 2663 
L 5997 2663 
L 5997 2247 
L 403 2247 
z
M 3200 -488 
Q 2256 -488 1745 -186 
Q 1234 116 1234 634 
Q 1234 1150 1745 1451 
Q 2256 1753 3200 1753 
Q 4144 1753 4655 1451 
Q 5166 1150 5166 634 
Q 5166 116 4655 -186 
Q 4144 -488 3200 -488 
z
M 3200 1356 
Q 2478 1356 2103 1161 
Q 1728 966 1728 634 
Q 1728 303 2100 106 
Q 2472 -91 3200 -91 
Q 3925 -91 4298 106 
Q 4672 303 4672 634 
Q 4672 969 4297 1162 
Q 3922 1356 3200 1356 
z
" transform="scale(0.015625)"/>
       <path id="MalgunGothic-b3c4" d="M 403 372 
L 403 788 
L 2963 788 
L 2963 2181 
L 1350 2181 
L 1350 4897 
L 5050 4897 
L 5050 4481 
L 1819 4481 
L 1819 2600 
L 5147 2600 
L 5147 2181 
L 3438 2181 
L 3438 788 
L 5997 788 
L 5997 372 
L 403 372 
z
" transform="scale(0.015625)"/>
       <path id="MalgunGothic-ac12" d="M 5119 3584 
L 5119 2375 
L 4653 2375 
L 4653 5466 
L 5119 5466 
L 5119 4000 
L 6028 4000 
L 6028 3584 
L 5119 3584 
z
M 3488 5203 
Q 3488 4372 2816 3540 
Q 2144 2709 781 2181 
L 459 2572 
Q 1553 2903 2193 3515 
Q 2834 4128 2963 4794 
L 831 4794 
L 831 5203 
L 3488 5203 
z
M 5575 -447 
Q 5266 -256 4970 84 
Q 4675 425 4575 709 
Q 4456 397 4148 50 
Q 3841 -297 3541 -447 
L 3250 -134 
Q 3756 109 4061 581 
Q 4366 1053 4366 1606 
L 4366 2022 
L 4788 2022 
L 4788 1606 
Q 4788 1066 5089 586 
Q 5391 106 5881 -134 
L 5575 -447 
z
M 1216 -441 
L 1216 1984 
L 1656 1984 
L 1656 1088 
L 2700 1088 
L 2700 1984 
L 3144 1984 
L 3144 -441 
L 1216 -441 
z
M 2700 703 
L 1656 703 
L 1656 -50 
L 2700 -50 
L 2700 703 
z
" transform="scale(0.015625)"/>
      </defs>
      <use xlink:href="#MalgunGothic-c774"/>
      <use xlink:href="#MalgunGothic-c0b0" x="100"/>
      <use xlink:href="#MalgunGothic-d654" x="200"/>
      <use xlink:href="#MalgunGothic-d0c4" x="300"/>
      <use xlink:href="#MalgunGothic-c18c" x="400"/>
      <use xlink:href="#MalgunGothic-20" x="500"/>
      <use xlink:href="#MalgunGothic-b18d" x="535.15625"/>
      <use xlink:href="#MalgunGothic-b3c4" x="635.15625"/>
      <use xlink:href="#MalgunGothic-20" x="735.15625"/>
      <use xlink:href="#MalgunGothic-ac12" x="770.3125"/>
     </g>
    </g>
   </g>
   <g id="matplotlib.axis_2">
    <g id="ytick_1">
     <g id="text_8">
      <!-- 0 -->
      <g style="fill: #262626" transform="translate(117.789062 517.954531) scale(0.14 -0.14)">
       <use xlink:href="#MalgunGothic-30"/>
      </g>
     </g>
    </g>
    <g id="ytick_2">
     <g id="text_9">
      <!-- 2000 -->
      <g style="fill: #262626" transform="translate(94.65625 428.510381) scale(0.14 -0.14)">
       <use xlink:href="#MalgunGothic-32"/>
       <use xlink:href="#MalgunGothic-30" x="55.078125"/>
       <use xlink:href="#MalgunGothic-30" x="110.15625"/>
       <use xlink:href="#MalgunGothic-30" x="165.234375"/>
      </g>
     </g>
    </g>
    <g id="ytick_3">
     <g id="text_10">
      <!-- 4000 -->
      <g style="fill: #262626" transform="translate(94.65625 339.066231) scale(0.14 -0.14)">
       <use xlink:href="#MalgunGothic-34"/>
       <use xlink:href="#MalgunGothic-30" x="55.078125"/>
       <use xlink:href="#MalgunGothic-30" x="110.15625"/>
       <use xlink:href="#MalgunGothic-30" x="165.234375"/>
      </g>
     </g>
    </g>
    <g id="ytick_4">
     <g id="text_11">
      <!-- 6000 -->
      <g style="fill: #262626" transform="translate(94.65625 249.62208) scale(0.14 -0.14)">
       <use xlink:href="#MalgunGothic-36"/>
       <use xlink:href="#MalgunGothic-30" x="55.078125"/>
       <use xlink:href="#MalgunGothic-30" x="110.15625"/>
       <use xlink:href="#MalgunGothic-30" x="165.234375"/>
      </g>
     </g>
    </g>
    <g id="ytick_5">
     <g id="text_12">
      <!-- 8000 -->
      <g style="fill: #262626" transform="translate(94.65625 160.17793) scale(0.14 -0.14)">
       <defs>
        <path id="MalgunGothic-38" d="M 303 1281 
Q 303 1669 539 2011 
Q 775 2353 1153 2494 
Q 856 2647 675 2915 
Q 494 3184 494 3500 
Q 494 3828 659 4098 
Q 825 4369 1122 4522 
Q 1419 4675 1778 4675 
Q 2334 4675 2700 4342 
Q 3066 4009 3066 3500 
Q 3066 3181 2881 2914 
Q 2697 2647 2413 2494 
Q 2788 2350 3022 2009 
Q 3256 1669 3256 1281 
Q 3256 672 2843 297 
Q 2431 -78 1778 -78 
Q 1131 -78 717 301 
Q 303 681 303 1281 
z
M 809 1328 
Q 809 878 1081 611 
Q 1353 344 1781 344 
Q 2206 344 2482 619 
Q 2759 894 2759 1328 
Q 2759 1731 2482 2011 
Q 2206 2291 1781 2291 
Q 1372 2291 1090 2020 
Q 809 1750 809 1328 
z
M 1003 3459 
Q 1003 3125 1234 2900 
Q 1466 2675 1781 2675 
Q 2097 2675 2330 2900 
Q 2563 3125 2563 3459 
Q 2563 3803 2341 4026 
Q 2119 4250 1781 4250 
Q 1450 4250 1226 4029 
Q 1003 3809 1003 3459 
z
" transform="scale(0.015625)"/>
       </defs>
       <use xlink:href="#MalgunGothic-38"/>
       <use xlink:href="#MalgunGothic-30" x="55.078125"/>
       <use xlink:href="#MalgunGothic-30" x="110.15625"/>
       <use xlink:href="#MalgunGothic-30" x="165.234375"/>
      </g>
     </g>
    </g>
    <g id="text_13">
     <!-- 빈도수 -->
     <g style="fill: #262626" transform="translate(86.87375 314.88) rotate(-90) scale(0.16 -0.16)">
      <defs>
       <path id="MalgunGothic-be48" d="M 4947 1081 
L 4947 5466 
L 5416 5466 
L 5416 1081 
L 4947 1081 
z
M 1038 2216 
L 1038 5178 
L 1497 5178 
L 1497 4084 
L 3359 4084 
L 3359 5178 
L 3822 5178 
L 3822 2216 
L 1038 2216 
z
M 3359 3669 
L 1497 3669 
L 1497 2625 
L 3359 2625 
L 3359 3669 
z
M 1703 -372 
L 1703 1528 
L 2169 1528 
L 2169 44 
L 5575 44 
L 5575 -372 
L 1703 -372 
z
" transform="scale(0.015625)"/>
       <path id="MalgunGothic-c218" d="M 5491 2994 
Q 4750 3097 4078 3498 
Q 3406 3900 3200 4275 
Q 2975 3891 2309 3491 
Q 1644 3091 922 2956 
L 634 3347 
Q 1559 3450 2261 3942 
Q 2963 4434 2963 5013 
L 2963 5275 
L 3431 5275 
L 3431 5013 
Q 3431 4431 4118 3948 
Q 4806 3466 5766 3378 
L 5491 2994 
z
M 3431 1838 
L 3431 -563 
L 2963 -563 
L 2963 1838 
L 403 1838 
L 403 2253 
L 5997 2253 
L 5997 1838 
L 3431 1838 
z
" transform="scale(0.015625)"/>
      </defs>
      <use xlink:href="#MalgunGothic-be48"/>
      <use xlink:href="#MalgunGothic-b3c4" x="100"/>
      <use xlink:href="#MalgunGothic-c218" x="200"/>
     </g>
    </g>
   </g>
   <g id="patch_3">
    <path d="M 135 512.64 
L 162.9 512.64 
L 162.9 90.24 
L 135 90.24 
z
" clip-path="url(#p34896716c8)" style="fill: #ff6384; fill-opacity: 0.5; stroke: #000000; stroke-linejoin: miter"/>
   </g>
   <g id="patch_4">
    <path d="M 162.9 512.64 
L 190.8 512.64 
L 190.8 510.761673 
L 162.9 510.761673 
z
" clip-path="url(#p34896716c8)" style="fill: #ff6384; fill-opacity: 0.5; stroke: #000000; stroke-linejoin: miter"/>
   </g>
   <g id="patch_5">
    <path d="M 190.8 512.64 
L 218.7 512.64 
L 218.7 510.895839 
L 190.8 510.895839 
z
" clip-path="url(#p34896716c8)" style="fill: #ff6384; fill-opacity: 0.5; stroke: #000000; stroke-linejoin: miter"/>
   </g>
   <g id="patch_6">
    <path d="M 218.7 512.64 
L 246.6 512.64 
L 246.6 510.448618 
L 218.7 510.448618 
z
" clip-path="url(#p34896716c8)" style="fill: #ff6384; fill-opacity: 0.5; stroke: #000000; stroke-linejoin: miter"/>
   </g>
   <g id="patch_7">
    <path d="M 246.6 512.64 
L 274.5 512.64 
L 274.5 511.074727 
L 246.6 511.074727 
z
" clip-path="url(#p34896716c8)" style="fill: #ff6384; fill-opacity: 0.5; stroke: #000000; stroke-linejoin: miter"/>
   </g>
   <g id="patch_8">
    <path d="M 274.5 512.64 
L 302.4 512.64 
L 302.4 510.761673 
L 274.5 510.761673 
z
" clip-path="url(#p34896716c8)" style="fill: #ff6384; fill-opacity: 0.5; stroke: #000000; stroke-linejoin: miter"/>
   </g>
   <g id="patch_9">
    <path d="M 302.4 512.64 
L 330.3 512.64 
L 330.3 508.659735 
L 302.4 508.659735 
z
" clip-path="url(#p34896716c8)" style="fill: #ff6384; fill-opacity: 0.5; stroke: #000000; stroke-linejoin: miter"/>
   </g>
   <g id="patch_10">
    <path d="M 330.3 512.64 
L 358.2 512.64 
L 358.2 504.813637 
L 330.3 504.813637 
z
" clip-path="url(#p34896716c8)" style="fill: #ff6384; fill-opacity: 0.5; stroke: #000000; stroke-linejoin: miter"/>
   </g>
   <g id="patch_11">
    <path d="M 358.2 512.64 
L 386.1 512.64 
L 386.1 330.621154 
L 358.2 330.621154 
z
" clip-path="url(#p34896716c8)" style="fill: #ff6384; fill-opacity: 0.5; stroke: #000000; stroke-linejoin: miter"/>
   </g>
   <g id="patch_12">
    <path d="M 386.1 512.64 
L 414 512.64 
L 414 510.403896 
L 386.1 510.403896 
z
" clip-path="url(#p34896716c8)" style="fill: #ff6384; fill-opacity: 0.5; stroke: #000000; stroke-linejoin: miter"/>
   </g>
   <g id="patch_13">
    <path d="M 414 512.64 
L 441.9 512.64 
L 441.9 509.285844 
L 414 509.285844 
z
" clip-path="url(#p34896716c8)" style="fill: #ff6384; fill-opacity: 0.5; stroke: #000000; stroke-linejoin: miter"/>
   </g>
   <g id="patch_14">
    <path d="M 441.9 512.64 
L 469.8 512.64 
L 469.8 509.375289 
L 441.9 509.375289 
z
" clip-path="url(#p34896716c8)" style="fill: #ff6384; fill-opacity: 0.5; stroke: #000000; stroke-linejoin: miter"/>
   </g>
   <g id="patch_15">
    <path d="M 469.8 512.64 
L 497.7 512.64 
L 497.7 507.407517 
L 469.8 507.407517 
z
" clip-path="url(#p34896716c8)" style="fill: #ff6384; fill-opacity: 0.5; stroke: #000000; stroke-linejoin: miter"/>
   </g>
   <g id="patch_16">
    <path d="M 497.7 512.64 
L 525.6 512.64 
L 525.6 508.570291 
L 497.7 508.570291 
z
" clip-path="url(#p34896716c8)" style="fill: #ff6384; fill-opacity: 0.5; stroke: #000000; stroke-linejoin: miter"/>
   </g>
   <g id="patch_17">
    <path d="M 525.6 512.64 
L 553.5 512.64 
L 553.5 510.49334 
L 525.6 510.49334 
z
" clip-path="url(#p34896716c8)" style="fill: #ff6384; fill-opacity: 0.5; stroke: #000000; stroke-linejoin: miter"/>
   </g>
   <g id="patch_18">
    <path d="M 553.5 512.64 
L 581.4 512.64 
L 581.4 510.180286 
L 553.5 510.180286 
z
" clip-path="url(#p34896716c8)" style="fill: #ff6384; fill-opacity: 0.5; stroke: #000000; stroke-linejoin: miter"/>
   </g>
   <g id="patch_19">
    <path d="M 581.4 512.64 
L 609.3 512.64 
L 609.3 510.851117 
L 581.4 510.851117 
z
" clip-path="url(#p34896716c8)" style="fill: #ff6384; fill-opacity: 0.5; stroke: #000000; stroke-linejoin: miter"/>
   </g>
   <g id="patch_20">
    <path d="M 609.3 512.64 
L 637.2 512.64 
L 637.2 510.940561 
L 609.3 510.940561 
z
" clip-path="url(#p34896716c8)" style="fill: #ff6384; fill-opacity: 0.5; stroke: #000000; stroke-linejoin: miter"/>
   </g>
   <g id="patch_21">
    <path d="M 637.2 512.64 
L 665.1 512.64 
L 665.1 510.940561 
L 637.2 510.940561 
z
" clip-path="url(#p34896716c8)" style="fill: #ff6384; fill-opacity: 0.5; stroke: #000000; stroke-linejoin: miter"/>
   </g>
   <g id="patch_22">
    <path d="M 665.1 512.64 
L 693 512.64 
L 693 511.432504 
L 665.1 511.432504 
z
" clip-path="url(#p34896716c8)" style="fill: #ff6384; fill-opacity: 0.5; stroke: #000000; stroke-linejoin: miter"/>
   </g>
   <g id="patch_23">
    <path d="M 693 512.64 
L 720.9 512.64 
L 720.9 511.790281 
L 693 511.790281 
z
" clip-path="url(#p34896716c8)" style="fill: #ff6384; fill-opacity: 0.5; stroke: #000000; stroke-linejoin: miter"/>
   </g>
   <g id="patch_24">
    <path d="M 720.9 512.64 
L 748.8 512.64 
L 748.8 511.656114 
L 720.9 511.656114 
z
" clip-path="url(#p34896716c8)" style="fill: #ff6384; fill-opacity: 0.5; stroke: #000000; stroke-linejoin: miter"/>
   </g>
   <g id="patch_25">
    <path d="M 748.8 512.64 
L 776.7 512.64 
L 776.7 511.387782 
L 748.8 511.387782 
z
" clip-path="url(#p34896716c8)" style="fill: #ff6384; fill-opacity: 0.5; stroke: #000000; stroke-linejoin: miter"/>
   </g>
   <g id="patch_26">
    <path d="M 776.7 512.64 
L 804.6 512.64 
L 804.6 511.745558 
L 776.7 511.745558 
z
" clip-path="url(#p34896716c8)" style="fill: #ff6384; fill-opacity: 0.5; stroke: #000000; stroke-linejoin: miter"/>
   </g>
   <g id="patch_27">
    <path d="M 804.6 512.64 
L 832.5 512.64 
L 832.5 511.924447 
L 804.6 511.924447 
z
" clip-path="url(#p34896716c8)" style="fill: #ff6384; fill-opacity: 0.5; stroke: #000000; stroke-linejoin: miter"/>
   </g>
   <g id="patch_28">
    <path d="M 832.5 512.64 
L 860.4 512.64 
L 860.4 511.521948 
L 832.5 511.521948 
z
" clip-path="url(#p34896716c8)" style="fill: #ff6384; fill-opacity: 0.5; stroke: #000000; stroke-linejoin: miter"/>
   </g>
   <g id="patch_29">
    <path d="M 860.4 512.64 
L 888.3 512.64 
L 888.3 511.611392 
L 860.4 511.611392 
z
" clip-path="url(#p34896716c8)" style="fill: #ff6384; fill-opacity: 0.5; stroke: #000000; stroke-linejoin: miter"/>
   </g>
   <g id="patch_30">
    <path d="M 888.3 512.64 
L 916.2 512.64 
L 916.2 511.924447 
L 888.3 511.924447 
z
" clip-path="url(#p34896716c8)" style="fill: #ff6384; fill-opacity: 0.5; stroke: #000000; stroke-linejoin: miter"/>
   </g>
   <g id="patch_31">
    <path d="M 916.2 512.64 
L 944.1 512.64 
L 944.1 511.656114 
L 916.2 511.656114 
z
" clip-path="url(#p34896716c8)" style="fill: #ff6384; fill-opacity: 0.5; stroke: #000000; stroke-linejoin: miter"/>
   </g>
   <g id="patch_32">
    <path d="M 944.1 512.64 
L 972 512.64 
L 972 511.745558 
L 944.1 511.745558 
z
" clip-path="url(#p34896716c8)" style="fill: #ff6384; fill-opacity: 0.5; stroke: #000000; stroke-linejoin: miter"/>
   </g>
   <g id="patch_33">
    <path d="M 135 512.64 
L 135 69.12 
" style="fill: none; stroke: #262626; stroke-width: 1.25; stroke-linejoin: miter; stroke-linecap: square"/>
   </g>
   <g id="patch_34">
    <path d="M 972 512.64 
L 972 69.12 
" style="fill: none; stroke: #262626; stroke-width: 1.25; stroke-linejoin: miter; stroke-linecap: square"/>
   </g>
   <g id="patch_35">
    <path d="M 135 512.64 
L 972 512.64 
" style="fill: none; stroke: #262626; stroke-width: 1.25; stroke-linejoin: miter; stroke-linecap: square"/>
   </g>
   <g id="patch_36">
    <path d="M 135 69.12 
L 972 69.12 
" style="fill: none; stroke: #262626; stroke-width: 1.25; stroke-linejoin: miter; stroke-linecap: square"/>
   </g>
   <g id="text_14">
    <g id="patch_37">
     <path d="M 834.2475 95.7555 
L 967.23 95.7555 
L 967.23 76.608 
L 834.2475 76.608 
z
" style="fill: #ffffff; stroke: #d3d3d3; stroke-linejoin: miter"/>
    </g>
    <!-- 막대 1칸 간격: 2.18e+3 -->
    <g transform="translate(837.8475 89.318625) scale(0.12 -0.12)">
     <defs>
      <path id="MalgunGothic-b9c9" d="M 5125 3438 
L 5125 2034 
L 4659 2034 
L 4659 5466 
L 5125 5466 
L 5125 3859 
L 6034 3859 
L 6034 3438 
L 5125 3438 
z
M 763 2425 
L 763 5197 
L 3494 5197 
L 3494 2425 
L 763 2425 
z
M 3034 4788 
L 1222 4788 
L 1222 2834 
L 3034 2834 
L 3034 4788 
z
M 4659 -563 
L 4659 1288 
L 1259 1288 
L 1259 1703 
L 5125 1703 
L 5125 -563 
L 4659 -563 
z
" transform="scale(0.015625)"/>
      <path id="MalgunGothic-b300" d="M 5069 -563 
L 5069 2572 
L 4294 2572 
L 4294 -378 
L 3834 -378 
L 3834 5344 
L 4294 5344 
L 4294 2988 
L 5069 2988 
L 5069 5466 
L 5538 5466 
L 5538 -563 
L 5069 -563 
z
M 3391 1153 
Q 2516 1063 825 1063 
L 825 4934 
L 3138 4934 
L 3138 4519 
L 1288 4519 
L 1288 1478 
L 1844 1478 
Q 2791 1478 3359 1550 
L 3391 1153 
z
" transform="scale(0.015625)"/>
      <path id="MalgunGothic-ce78" d="M 5125 3122 
L 5125 1063 
L 4659 1063 
L 4659 5466 
L 5125 5466 
L 5125 3541 
L 6034 3541 
L 6034 3122 
L 5125 3122 
z
M 3513 5100 
Q 3403 3872 2556 3011 
Q 1709 2150 794 1800 
L 469 2163 
Q 1100 2369 1650 2795 
Q 2200 3222 2478 3609 
L 744 3425 
L 588 3847 
L 2719 3988 
Q 2919 4384 2963 4678 
L 831 4678 
L 831 5100 
L 3513 5100 
z
M 1459 -325 
L 1459 1509 
L 1925 1509 
L 1925 97 
L 5294 97 
L 5294 -325 
L 1459 -325 
z
" transform="scale(0.015625)"/>
      <path id="MalgunGothic-ac04" d="M 5125 3122 
L 5125 1063 
L 4659 1063 
L 4659 5466 
L 5125 5466 
L 5125 3541 
L 6034 3541 
L 6034 3122 
L 5125 3122 
z
M 3513 5100 
Q 3403 3872 2556 3011 
Q 1709 2150 794 1800 
L 469 2163 
Q 1344 2450 2087 3172 
Q 2831 3894 2963 4678 
L 831 4678 
L 831 5100 
L 3513 5100 
z
M 1459 -325 
L 1459 1509 
L 1925 1509 
L 1925 97 
L 5294 97 
L 5294 -325 
L 1459 -325 
z
" transform="scale(0.015625)"/>
      <path id="MalgunGothic-aca9" d="M 4947 2113 
L 4947 2791 
L 3681 2791 
L 3681 3200 
L 4947 3200 
L 4947 4072 
L 3744 4072 
L 3744 4481 
L 4947 4481 
L 4947 5466 
L 5416 5466 
L 5416 2113 
L 4947 2113 
z
M 3603 5147 
Q 3603 4181 2859 3287 
Q 2116 2394 872 1913 
L 538 2278 
Q 1550 2603 2247 3284 
Q 2944 3966 3072 4728 
L 941 4728 
L 941 5147 
L 3603 5147 
z
M 4947 -563 
L 4947 1356 
L 1522 1356 
L 1522 1778 
L 5416 1778 
L 5416 -563 
L 4947 -563 
z
" transform="scale(0.015625)"/>
      <path id="MalgunGothic-3a" d="M 356 3006 
Q 356 3153 459 3254 
Q 563 3356 700 3356 
Q 838 3356 941 3254 
Q 1044 3153 1044 3006 
Q 1044 2863 942 2761 
Q 841 2659 700 2659 
Q 559 2659 457 2761 
Q 356 2863 356 3006 
z
M 356 275 
Q 356 422 459 523 
Q 563 625 700 625 
Q 838 625 941 523 
Q 1044 422 1044 275 
Q 1044 138 942 33 
Q 841 -72 700 -72 
Q 559 -72 457 29 
Q 356 131 356 275 
z
" transform="scale(0.015625)"/>
      <path id="MalgunGothic-2e" d="M 356 275 
Q 356 422 459 523 
Q 563 625 700 625 
Q 838 625 941 523 
Q 1044 422 1044 275 
Q 1044 138 942 33 
Q 841 -72 700 -72 
Q 559 -72 457 29 
Q 356 131 356 275 
z
" transform="scale(0.015625)"/>
      <path id="MalgunGothic-65" d="M 3156 1519 
L 828 1519 
Q 844 950 1133 648 
Q 1422 347 1909 347 
Q 2472 347 2934 719 
L 2934 244 
Q 2494 -78 1794 -78 
Q 1100 -78 708 376 
Q 316 831 316 1634 
Q 316 2381 747 2870 
Q 1178 3359 1816 3359 
Q 2453 3359 2804 2942 
Q 3156 2525 3156 1788 
L 3156 1519 
z
M 2644 1956 
Q 2644 2416 2423 2675 
Q 2203 2934 1809 2934 
Q 1438 2934 1169 2667 
Q 900 2400 834 1956 
L 2644 1956 
z
" transform="scale(0.015625)"/>
      <path id="MalgunGothic-2b" d="M 3750 1706 
L 2450 1706 
L 2450 413 
L 2041 413 
L 2041 1706 
L 744 1706 
L 744 2122 
L 2041 2122 
L 2041 3416 
L 2450 3416 
L 2450 2122 
L 3750 2122 
L 3750 1706 
z
" transform="scale(0.015625)"/>
     </defs>
     <use xlink:href="#MalgunGothic-b9c9"/>
     <use xlink:href="#MalgunGothic-b300" x="100"/>
     <use xlink:href="#MalgunGothic-20" x="200"/>
     <use xlink:href="#MalgunGothic-31" x="235.15625"/>
     <use xlink:href="#MalgunGothic-ce78" x="290.234375"/>
     <use xlink:href="#MalgunGothic-20" x="390.234375"/>
     <use xlink:href="#MalgunGothic-ac04" x="425.390625"/>
     <use xlink:href="#MalgunGothic-aca9" x="525.390625"/>
     <use xlink:href="#MalgunGothic-3a" x="625.390625"/>
     <use xlink:href="#MalgunGothic-20" x="647.265625"/>
     <use xlink:href="#MalgunGothic-32" x="682.421875"/>
     <use xlink:href="#MalgunGothic-2e" x="737.5"/>
     <use xlink:href="#MalgunGothic-31" x="759.375"/>
     <use xlink:href="#MalgunGothic-38" x="814.453125"/>
     <use xlink:href="#MalgunGothic-65" x="869.53125"/>
     <use xlink:href="#MalgunGothic-2b" x="923.046875"/>
     <use xlink:href="#MalgunGothic-33" x="993.115234"/>
    </g>
   </g>
   <g id="text_15">
    <!-- 이산화탄소 히스토그램 -->
    <g style="fill: #262626" transform="translate(460.335938 63.12) scale(0.18 -0.18)">
     <defs>
      <path id="MalgunGothic-d788" d="M 4891 -563 
L 4891 5466 
L 5356 5466 
L 5356 -563 
L 4891 -563 
z
M 531 4084 
L 531 4506 
L 2131 4506 
L 2131 5466 
L 2597 5466 
L 2597 4506 
L 4206 4506 
L 4206 4084 
L 531 4084 
z
M 2363 934 
Q 1694 934 1269 1318 
Q 844 1703 844 2272 
Q 844 2847 1269 3231 
Q 1694 3616 2369 3616 
Q 3038 3616 3464 3230 
Q 3891 2844 3891 2266 
Q 3891 1691 3464 1312 
Q 3038 934 2363 934 
z
M 2369 3219 
Q 1906 3219 1606 2939 
Q 1306 2659 1306 2272 
Q 1306 1888 1607 1609 
Q 1909 1331 2369 1331 
Q 2834 1331 3136 1611 
Q 3438 1891 3438 2272 
Q 3438 2656 3136 2937 
Q 2834 3219 2369 3219 
z
" transform="scale(0.015625)"/>
      <path id="MalgunGothic-c2a4" d="M 3194 3897 
Q 2969 3416 2328 2930 
Q 1688 2444 959 2247 
L 641 2619 
Q 1703 2841 2329 3472 
Q 2956 4103 2956 4659 
L 2956 4978 
L 3438 4978 
L 3438 4659 
Q 3438 4094 4073 3476 
Q 4709 2859 5759 2625 
L 5428 2253 
Q 4694 2481 4058 2956 
Q 3422 3431 3194 3897 
z
M 5997 447 
L 403 447 
L 403 863 
L 5997 863 
L 5997 447 
z
" transform="scale(0.015625)"/>
      <path id="MalgunGothic-d1a0" d="M 403 341 
L 403 756 
L 2963 756 
L 2963 2022 
L 1288 2022 
L 1288 4903 
L 5147 4903 
L 5147 4488 
L 1747 4488 
L 1747 3688 
L 5044 3688 
L 5044 3278 
L 1747 3278 
L 1747 2431 
L 5247 2431 
L 5247 2022 
L 3438 2022 
L 3438 756 
L 5997 756 
L 5997 341 
L 403 341 
z
" transform="scale(0.015625)"/>
      <path id="MalgunGothic-adf8" d="M 403 622 
L 403 1038 
L 4434 1038 
Q 4563 1981 4563 3053 
L 4563 4481 
L 1253 4481 
L 1253 4897 
L 5031 4897 
L 5031 3238 
Q 5031 2322 4891 1038 
L 5997 1038 
L 5997 622 
L 403 622 
z
" transform="scale(0.015625)"/>
      <path id="MalgunGothic-b7a8" d="M 5063 1997 
L 5063 3456 
L 4353 3456 
L 4353 1997 
L 3897 1997 
L 3897 5344 
L 4353 5344 
L 4353 3866 
L 5063 3866 
L 5063 5466 
L 5522 5466 
L 5522 1997 
L 5063 1997 
z
M 3481 2338 
Q 2944 2275 2564 2264 
Q 2184 2253 825 2253 
L 825 3969 
L 2644 3969 
L 2644 4800 
L 825 4800 
L 825 5216 
L 3109 5216 
L 3109 3566 
L 1294 3566 
L 1294 2663 
L 1984 2663 
Q 2859 2663 3438 2741 
L 3481 2338 
z
M 1728 -422 
L 1728 1663 
L 5522 1663 
L 5522 -422 
L 1728 -422 
z
M 5063 1247 
L 2188 1247 
L 2188 -6 
L 5063 -6 
L 5063 1247 
z
" transform="scale(0.015625)"/>
     </defs>
     <use xlink:href="#MalgunGothic-c774"/>
     <use xlink:href="#MalgunGothic-c0b0" x="100"/>
     <use xlink:href="#MalgunGothic-d654" x="200"/>
     <use xlink:href="#MalgunGothic-d0c4" x="300"/>
     <use xlink:href="#MalgunGothic-c18c" x="400"/>
     <use xlink:href="#MalgunGothic-20" x="500"/>
     <use xlink:href="#MalgunGothic-d788" x="535.15625"/>
     <use xlink:href="#MalgunGothic-c2a4" x="635.15625"/>
     <use xlink:href="#MalgunGothic-d1a0" x="735.15625"/>
     <use xlink:href="#MalgunGothic-adf8" x="835.15625"/>
     <use xlink:href="#MalgunGothic-b7a8" x="935.15625"/>
    </g>
   </g>
  </g>
 </g>
 <defs>
  <clipPath id="p34896716c8">
   <rect x="135" y="69.12" width="837" height="443.52"/>
  </clipPath>
 </defs>
</svg>
