<?xml version="1.0" encoding="utf-8" standalone="no"?>
<!DOCTYPE svg PUBLIC "-//W3C//DTD SVG 1.1//EN"
  "http://www.w3.org/Graphics/SVG/1.1/DTD/svg11.dtd">
<svg xmlns:xlink="http://www.w3.org/1999/xlink" width="1080pt" height="576pt" viewBox="0 0 1080 576" xmlns="http://www.w3.org/2000/svg" version="1.1">
 <metadata>
  <rdf:RDF xmlns:dc="http://purl.org/dc/elements/1.1/" xmlns:cc="http://creativecommons.org/ns#" xmlns:rdf="http://www.w3.org/1999/02/22-rdf-syntax-ns#">
   <cc:Work>
    <dc:type rdf:resource="http://purl.org/dc/dcmitype/StillImage"/>
    <dc:date>2024-11-12T22:28:12.149815</dc:date>
    <dc:format>image/svg+xml</dc:format>
    <dc:creator>
     <cc:Agent>
      <dc:title>Matplotlib v3.9.2, https://matplotlib.org/</dc:title>
     </cc:Agent>
    </dc:creator>
   </cc:Work>
  </rdf:RDF>
 </metadata>
 <defs>
  <style type="text/css">*{stroke-linejoin: round; stroke-linecap: butt}</style>
 </defs>
 <g id="figure_1">
  <g id="patch_1">
   <path d="M 0 576 
L 1080 576 
L 1080 0 
L 0 0 
z
" style="fill: #ffffff"/>
  </g>
  <g id="axes_1">
   <g id="patch_2">
    <path d="M 135 512.64 
L 972 512.64 
L 972 69.12 
L 135 69.12 
z
" style="fill: #ffffff"/>
   </g>
   <g id="matplotlib.axis_1">
    <g id="xtick_1">
     <g id="line2d_1">
      <path d="M 137.332985 512.64 
L 137.332985 69.12 
" clip-path="url(#p5bf6d7e104)" style="fill: none; stroke: #a9a9a9; stroke-opacity: 0.7; stroke-width: 1.5; stroke-linecap: round"/>
     </g>
     <g id="text_1">
      <!-- 16 -->
      <g style="fill: #262626" transform="translate(129.622047 532.769063) scale(0.14 -0.14)">
       <defs>
        <path id="MalgunGothic-31" d="M 2231 0 
L 1734 0 
L 1734 3972 
Q 1591 3828 1266 3661 
Q 941 3494 672 3428 
L 672 3959 
Q 1016 4056 1409 4275 
Q 1803 4494 2031 4700 
L 2231 4700 
L 2231 0 
z
" transform="scale(0.015625)"/>
        <path id="MalgunGothic-36" d="M 2981 4069 
Q 2619 4250 2228 4250 
Q 1591 4250 1228 3689 
Q 866 3128 869 2213 
L 884 2213 
Q 1203 2872 1938 2872 
Q 2547 2872 2903 2478 
Q 3259 2084 3259 1450 
Q 3259 797 2857 359 
Q 2456 -78 1825 -78 
Q 1116 -78 736 478 
Q 356 1034 356 2019 
Q 356 3181 847 3928 
Q 1338 4675 2222 4675 
Q 2700 4675 2981 4544 
L 2981 4069 
z
M 906 1506 
Q 906 1022 1165 683 
Q 1425 344 1844 344 
Q 2247 344 2498 645 
Q 2750 947 2750 1388 
Q 2750 1888 2509 2167 
Q 2269 2447 1838 2447 
Q 1444 2447 1175 2173 
Q 906 1900 906 1506 
z
" transform="scale(0.015625)"/>
       </defs>
       <use xlink:href="#MalgunGothic-31"/>
       <use xlink:href="#MalgunGothic-36" x="55.078125"/>
      </g>
     </g>
    </g>
    <g id="xtick_2">
     <g id="line2d_2">
      <path d="M 197.324026 512.64 
L 197.324026 69.12 
" clip-path="url(#p5bf6d7e104)" style="fill: none; stroke: #a9a9a9; stroke-opacity: 0.7; stroke-width: 1.5; stroke-linecap: round"/>
     </g>
     <g id="text_2">
      <!-- 17 -->
      <g style="fill: #262626" transform="translate(189.613088 532.769063) scale(0.14 -0.14)">
       <defs>
        <path id="MalgunGothic-37" d="M 3213 4297 
Q 2478 3006 2064 1918 
Q 1650 831 1550 0 
L 1009 0 
Q 1084 531 1290 1176 
Q 1497 1822 1815 2537 
Q 2134 3253 2631 4147 
L 291 4147 
L 291 4600 
L 3213 4600 
L 3213 4297 
z
" transform="scale(0.015625)"/>
       </defs>
       <use xlink:href="#MalgunGothic-31"/>
       <use xlink:href="#MalgunGothic-37" x="55.078125"/>
      </g>
     </g>
    </g>
    <g id="xtick_3">
     <g id="line2d_3">
      <path d="M 257.315066 512.64 
L 257.315066 69.12 
" clip-path="url(#p5bf6d7e104)" style="fill: none; stroke: #a9a9a9; stroke-opacity: 0.7; stroke-width: 1.5; stroke-linecap: round"/>
     </g>
     <g id="text_3">
      <!-- 18 -->
      <g style="fill: #262626" transform="translate(249.604129 532.769063) scale(0.14 -0.14)">
       <defs>
        <path id="MalgunGothic-38" d="M 303 1281 
Q 303 1669 539 2011 
Q 775 2353 1153 2494 
Q 856 2647 675 2915 
Q 494 3184 494 3500 
Q 494 3828 659 4098 
Q 825 4369 1122 4522 
Q 1419 4675 1778 4675 
Q 2334 4675 2700 4342 
Q 3066 4009 3066 3500 
Q 3066 3181 2881 2914 
Q 2697 2647 2413 2494 
Q 2788 2350 3022 2009 
Q 3256 1669 3256 1281 
Q 3256 672 2843 297 
Q 2431 -78 1778 -78 
Q 1131 -78 717 301 
Q 303 681 303 1281 
z
M 809 1328 
Q 809 878 1081 611 
Q 1353 344 1781 344 
Q 2206 344 2482 619 
Q 2759 894 2759 1328 
Q 2759 1731 2482 2011 
Q 2206 2291 1781 2291 
Q 1372 2291 1090 2020 
Q 809 1750 809 1328 
z
M 1003 3459 
Q 1003 3125 1234 2900 
Q 1466 2675 1781 2675 
Q 2097 2675 2330 2900 
Q 2563 3125 2563 3459 
Q 2563 3803 2341 4026 
Q 2119 4250 1781 4250 
Q 1450 4250 1226 4029 
Q 1003 3809 1003 3459 
z
" transform="scale(0.015625)"/>
       </defs>
       <use xlink:href="#MalgunGothic-31"/>
       <use xlink:href="#MalgunGothic-38" x="55.078125"/>
      </g>
     </g>
    </g>
    <g id="xtick_4">
     <g id="line2d_4">
      <path d="M 317.306107 512.64 
L 317.306107 69.12 
" clip-path="url(#p5bf6d7e104)" style="fill: none; stroke: #a9a9a9; stroke-opacity: 0.7; stroke-width: 1.5; stroke-linecap: round"/>
     </g>
     <g id="text_4">
      <!-- 19 -->
      <g style="fill: #262626" transform="translate(309.59517 532.769063) scale(0.14 -0.14)">
       <defs>
        <path id="MalgunGothic-39" d="M 556 563 
Q 941 344 1366 344 
Q 1994 344 2347 855 
Q 2700 1366 2700 2313 
Q 2694 2306 2688 2313 
Q 2388 1713 1653 1713 
Q 1059 1713 682 2120 
Q 306 2528 306 3144 
Q 306 3806 711 4240 
Q 1116 4675 1772 4675 
Q 2466 4675 2833 4131 
Q 3200 3588 3200 2578 
Q 3200 1319 2717 620 
Q 2234 -78 1344 -78 
Q 881 -78 556 78 
L 556 563 
z
M 813 3219 
Q 813 2741 1063 2450 
Q 1313 2159 1759 2159 
Q 2147 2159 2406 2417 
Q 2666 2675 2666 3047 
Q 2666 3556 2411 3903 
Q 2156 4250 1725 4250 
Q 1322 4250 1067 3948 
Q 813 3647 813 3219 
z
" transform="scale(0.015625)"/>
       </defs>
       <use xlink:href="#MalgunGothic-31"/>
       <use xlink:href="#MalgunGothic-39" x="55.078125"/>
      </g>
     </g>
    </g>
    <g id="xtick_5">
     <g id="line2d_5">
      <path d="M 377.297148 512.64 
L 377.297148 69.12 
" clip-path="url(#p5bf6d7e104)" style="fill: none; stroke: #a9a9a9; stroke-opacity: 0.7; stroke-width: 1.5; stroke-linecap: round"/>
     </g>
     <g id="text_5">
      <!-- 20 -->
      <g style="fill: #262626" transform="translate(369.58621 532.769063) scale(0.14 -0.14)">
       <defs>
        <path id="MalgunGothic-32" d="M 2519 3372 
Q 2519 3784 2275 4018 
Q 2031 4253 1628 4253 
Q 1341 4253 1053 4104 
Q 766 3956 534 3697 
L 534 4234 
Q 981 4675 1691 4675 
Q 2281 4675 2642 4334 
Q 3003 3994 3003 3416 
Q 3003 2919 2772 2545 
Q 2541 2172 1984 1775 
Q 1459 1406 1254 1215 
Q 1050 1025 967 854 
Q 884 684 884 450 
L 3116 450 
L 3116 0 
L 356 0 
L 356 225 
Q 356 603 461 870 
Q 566 1138 811 1392 
Q 1056 1647 1597 2022 
Q 2091 2363 2305 2670 
Q 2519 2978 2519 3372 
z
" transform="scale(0.015625)"/>
        <path id="MalgunGothic-30" d="M 278 2206 
Q 278 3425 675 4050 
Q 1072 4675 1819 4675 
Q 3253 4675 3253 2319 
Q 3253 1156 2854 539 
Q 2456 -78 1716 -78 
Q 1016 -78 647 520 
Q 278 1119 278 2206 
z
M 784 2231 
Q 784 344 1769 344 
Q 2747 344 2747 2259 
Q 2747 4250 1794 4250 
Q 784 4250 784 2231 
z
" transform="scale(0.015625)"/>
       </defs>
       <use xlink:href="#MalgunGothic-32"/>
       <use xlink:href="#MalgunGothic-30" x="55.078125"/>
      </g>
     </g>
    </g>
    <g id="xtick_6">
     <g id="line2d_6">
      <path d="M 437.288189 512.64 
L 437.288189 69.12 
" clip-path="url(#p5bf6d7e104)" style="fill: none; stroke: #a9a9a9; stroke-opacity: 0.7; stroke-width: 1.5; stroke-linecap: round"/>
     </g>
     <g id="text_6">
      <!-- 21 -->
      <g style="fill: #262626" transform="translate(429.577251 532.769063) scale(0.14 -0.14)">
       <use xlink:href="#MalgunGothic-32"/>
       <use xlink:href="#MalgunGothic-31" x="55.078125"/>
      </g>
     </g>
    </g>
    <g id="xtick_7">
     <g id="line2d_7">
      <path d="M 497.27923 512.64 
L 497.27923 69.12 
" clip-path="url(#p5bf6d7e104)" style="fill: none; stroke: #a9a9a9; stroke-opacity: 0.7; stroke-width: 1.5; stroke-linecap: round"/>
     </g>
     <g id="text_7">
      <!-- 22 -->
      <g style="fill: #262626" transform="translate(489.568292 532.769063) scale(0.14 -0.14)">
       <use xlink:href="#MalgunGothic-32"/>
       <use xlink:href="#MalgunGothic-32" x="55.078125"/>
      </g>
     </g>
    </g>
    <g id="xtick_8">
     <g id="line2d_8">
      <path d="M 557.27027 512.64 
L 557.27027 69.12 
" clip-path="url(#p5bf6d7e104)" style="fill: none; stroke: #a9a9a9; stroke-opacity: 0.7; stroke-width: 1.5; stroke-linecap: round"/>
     </g>
     <g id="text_8">
      <!-- 23 -->
      <g style="fill: #262626" transform="translate(549.559333 532.769063) scale(0.14 -0.14)">
       <defs>
        <path id="MalgunGothic-33" d="M 416 719 
Q 891 344 1478 344 
Q 1959 344 2254 587 
Q 2550 831 2550 1247 
Q 2550 2169 1253 2169 
L 872 2169 
L 872 2591 
L 1234 2591 
Q 2388 2591 2388 3453 
Q 2388 4250 1509 4250 
Q 1022 4250 594 3916 
L 594 4413 
Q 1031 4675 1634 4675 
Q 2184 4675 2539 4372 
Q 2894 4069 2894 3581 
Q 2894 2678 1972 2409 
L 1972 2400 
Q 2469 2356 2764 2053 
Q 3059 1750 3059 1300 
Q 3059 672 2604 297 
Q 2150 -78 1450 -78 
Q 806 -78 416 169 
L 416 719 
z
" transform="scale(0.015625)"/>
       </defs>
       <use xlink:href="#MalgunGothic-32"/>
       <use xlink:href="#MalgunGothic-33" x="55.078125"/>
      </g>
     </g>
    </g>
    <g id="xtick_9">
     <g id="line2d_9">
      <path d="M 617.261311 512.64 
L 617.261311 69.12 
" clip-path="url(#p5bf6d7e104)" style="fill: none; stroke: #a9a9a9; stroke-opacity: 0.7; stroke-width: 1.5; stroke-linecap: round"/>
     </g>
     <g id="text_9">
      <!-- 24 -->
      <g style="fill: #262626" transform="translate(609.550374 532.769063) scale(0.14 -0.14)">
       <defs>
        <path id="MalgunGothic-34" d="M 2703 4600 
L 2703 1563 
L 3309 1563 
L 3309 1113 
L 2703 1113 
L 2703 0 
L 2213 0 
L 2213 1113 
L 50 1113 
L 50 1534 
Q 728 2297 1295 3109 
Q 1863 3922 2172 4600 
L 2703 4600 
z
M 625 1563 
L 2213 1563 
L 2213 3831 
Q 1613 2788 959 1981 
L 625 1563 
z
" transform="scale(0.015625)"/>
       </defs>
       <use xlink:href="#MalgunGothic-32"/>
       <use xlink:href="#MalgunGothic-34" x="55.078125"/>
      </g>
     </g>
    </g>
    <g id="xtick_10">
     <g id="line2d_10">
      <path d="M 677.252352 512.64 
L 677.252352 69.12 
" clip-path="url(#p5bf6d7e104)" style="fill: none; stroke: #a9a9a9; stroke-opacity: 0.7; stroke-width: 1.5; stroke-linecap: round"/>
     </g>
     <g id="text_10">
      <!-- 25 -->
      <g style="fill: #262626" transform="translate(669.541414 532.769063) scale(0.14 -0.14)">
       <defs>
        <path id="MalgunGothic-35" d="M 3072 1403 
Q 3072 722 2636 322 
Q 2200 -78 1469 -78 
Q 828 -78 516 113 
L 516 650 
Q 994 344 1475 344 
Q 1969 344 2270 630 
Q 2572 916 2572 1372 
Q 2572 1838 2265 2092 
Q 1959 2347 1381 2347 
Q 994 2347 603 2300 
L 759 4600 
L 2869 4600 
L 2869 4147 
L 1206 4147 
L 1106 2763 
Q 1347 2784 1547 2784 
Q 2263 2784 2667 2414 
Q 3072 2044 3072 1403 
z
" transform="scale(0.015625)"/>
       </defs>
       <use xlink:href="#MalgunGothic-32"/>
       <use xlink:href="#MalgunGothic-35" x="55.078125"/>
      </g>
     </g>
    </g>
    <g id="xtick_11">
     <g id="line2d_11">
      <path d="M 737.243393 512.64 
L 737.243393 69.12 
" clip-path="url(#p5bf6d7e104)" style="fill: none; stroke: #a9a9a9; stroke-opacity: 0.7; stroke-width: 1.5; stroke-linecap: round"/>
     </g>
     <g id="text_11">
      <!-- 26 -->
      <g style="fill: #262626" transform="translate(729.532455 532.769063) scale(0.14 -0.14)">
       <use xlink:href="#MalgunGothic-32"/>
       <use xlink:href="#MalgunGothic-36" x="55.078125"/>
      </g>
     </g>
    </g>
    <g id="xtick_12">
     <g id="line2d_12">
      <path d="M 797.234433 512.64 
L 797.234433 69.12 
" clip-path="url(#p5bf6d7e104)" style="fill: none; stroke: #a9a9a9; stroke-opacity: 0.7; stroke-width: 1.5; stroke-linecap: round"/>
     </g>
     <g id="text_12">
      <!-- 27 -->
      <g style="fill: #262626" transform="translate(789.523496 532.769063) scale(0.14 -0.14)">
       <use xlink:href="#MalgunGothic-32"/>
       <use xlink:href="#MalgunGothic-37" x="55.078125"/>
      </g>
     </g>
    </g>
    <g id="xtick_13">
     <g id="line2d_13">
      <path d="M 857.225474 512.64 
L 857.225474 69.12 
" clip-path="url(#p5bf6d7e104)" style="fill: none; stroke: #a9a9a9; stroke-opacity: 0.7; stroke-width: 1.5; stroke-linecap: round"/>
     </g>
     <g id="text_13">
      <!-- 28 -->
      <g style="fill: #262626" transform="translate(849.514537 532.769063) scale(0.14 -0.14)">
       <use xlink:href="#MalgunGothic-32"/>
       <use xlink:href="#MalgunGothic-38" x="55.078125"/>
      </g>
     </g>
    </g>
    <g id="xtick_14">
     <g id="line2d_14">
      <path d="M 917.216515 512.64 
L 917.216515 69.12 
" clip-path="url(#p5bf6d7e104)" style="fill: none; stroke: #a9a9a9; stroke-opacity: 0.7; stroke-width: 1.5; stroke-linecap: round"/>
     </g>
     <g id="text_14">
      <!-- 29 -->
      <g style="fill: #262626" transform="translate(909.505577 532.769063) scale(0.14 -0.14)">
       <use xlink:href="#MalgunGothic-32"/>
       <use xlink:href="#MalgunGothic-39" x="55.078125"/>
      </g>
     </g>
    </g>
    <g id="text_15">
     <!-- 상대 시간(일) -->
     <g style="fill: #262626" transform="translate(505.8125 552.57125) scale(0.16 -0.16)">
      <defs>
       <path id="MalgunGothic-c0c1" d="M 5125 3391 
L 5125 1991 
L 4659 1991 
L 4659 5466 
L 5125 5466 
L 5125 3816 
L 6034 3816 
L 6034 3391 
L 5125 3391 
z
M 3603 2316 
Q 3206 2528 2778 2934 
Q 2350 3341 2188 3681 
Q 2022 3291 1609 2852 
Q 1197 2413 750 2163 
L 409 2484 
Q 1072 2806 1512 3397 
Q 1953 3988 1953 4628 
L 1953 5259 
L 2400 5259 
L 2400 4628 
Q 2400 4025 2845 3472 
Q 3291 2919 3909 2656 
L 3603 2316 
z
M 3263 -513 
Q 2322 -513 1811 -186 
Q 1300 141 1300 659 
Q 1300 1175 1812 1500 
Q 2325 1825 3263 1825 
Q 4203 1825 4715 1501 
Q 5228 1178 5228 659 
Q 5228 138 4717 -187 
Q 4206 -513 3263 -513 
z
M 3263 1428 
Q 2563 1428 2180 1215 
Q 1797 1003 1797 659 
Q 1797 309 2181 96 
Q 2566 -116 3263 -116 
Q 3969 -116 4353 98 
Q 4738 313 4738 659 
Q 4738 1000 4353 1214 
Q 3969 1428 3263 1428 
z
" transform="scale(0.015625)"/>
       <path id="MalgunGothic-b300" d="M 5069 -563 
L 5069 2572 
L 4294 2572 
L 4294 -378 
L 3834 -378 
L 3834 5344 
L 4294 5344 
L 4294 2988 
L 5069 2988 
L 5069 5466 
L 5538 5466 
L 5538 -563 
L 5069 -563 
z
M 3391 1153 
Q 2516 1063 825 1063 
L 825 4934 
L 3138 4934 
L 3138 4519 
L 1288 4519 
L 1288 1478 
L 1844 1478 
Q 2791 1478 3359 1550 
L 3391 1153 
z
" transform="scale(0.015625)"/>
       <path id="MalgunGothic-20" transform="scale(0.015625)"/>
       <path id="MalgunGothic-c2dc" d="M 4947 -563 
L 4947 5466 
L 5416 5466 
L 5416 -563 
L 4947 -563 
z
M 3769 966 
Q 3263 1353 2820 1939 
Q 2378 2525 2259 2950 
Q 2116 2463 1687 1872 
Q 1259 1281 756 891 
L 397 1203 
Q 1141 1703 1581 2479 
Q 2022 3256 2022 4063 
L 2022 5050 
L 2484 5050 
L 2484 4084 
Q 2484 3303 2920 2556 
Q 3356 1809 4097 1331 
L 3769 966 
z
" transform="scale(0.015625)"/>
       <path id="MalgunGothic-ac04" d="M 5125 3122 
L 5125 1063 
L 4659 1063 
L 4659 5466 
L 5125 5466 
L 5125 3541 
L 6034 3541 
L 6034 3122 
L 5125 3122 
z
M 3513 5100 
Q 3403 3872 2556 3011 
Q 1709 2150 794 1800 
L 469 2163 
Q 1344 2450 2087 3172 
Q 2831 3894 2963 4678 
L 831 4678 
L 831 5100 
L 3513 5100 
z
M 1459 -325 
L 1459 1509 
L 1925 1509 
L 1925 97 
L 5294 97 
L 5294 -325 
L 1459 -325 
z
" transform="scale(0.015625)"/>
       <path id="MalgunGothic-28" d="M 1438 -1044 
Q 447 88 447 1753 
Q 447 3431 1438 4600 
L 1888 4600 
Q 878 3372 878 1759 
Q 878 153 1881 -1044 
L 1438 -1044 
z
" transform="scale(0.015625)"/>
       <path id="MalgunGothic-c77c" d="M 4947 2363 
L 4947 5466 
L 5422 5466 
L 5422 2363 
L 4947 2363 
z
M 2419 2578 
Q 1738 2578 1314 2970 
Q 891 3363 891 3969 
Q 891 4572 1314 4961 
Q 1738 5350 2419 5350 
Q 3097 5350 3523 4959 
Q 3950 4569 3950 3969 
Q 3950 3366 3522 2972 
Q 3094 2578 2419 2578 
z
M 2419 4947 
Q 1931 4947 1643 4680 
Q 1356 4413 1356 3969 
Q 1356 3522 1643 3248 
Q 1931 2975 2419 2975 
Q 2906 2975 3193 3248 
Q 3481 3522 3481 3969 
Q 3481 4413 3193 4680 
Q 2906 4947 2419 4947 
z
M 1703 -422 
L 1703 1038 
L 4959 1038 
L 4959 1613 
L 1703 1613 
L 1703 2028 
L 5422 2028 
L 5422 634 
L 2163 634 
L 2163 -6 
L 5588 -6 
L 5588 -422 
L 1703 -422 
z
" transform="scale(0.015625)"/>
       <path id="MalgunGothic-29" d="M 81 -1044 
Q 1081 150 1081 1759 
Q 1081 3378 72 4600 
L 525 4600 
Q 1522 3431 1522 1753 
Q 1522 88 525 -1044 
L 81 -1044 
z
" transform="scale(0.015625)"/>
      </defs>
      <use xlink:href="#MalgunGothic-c0c1"/>
      <use xlink:href="#MalgunGothic-b300" x="100"/>
      <use xlink:href="#MalgunGothic-20" x="200"/>
      <use xlink:href="#MalgunGothic-c2dc" x="235.15625"/>
      <use xlink:href="#MalgunGothic-ac04" x="335.15625"/>
      <use xlink:href="#MalgunGothic-28" x="435.15625"/>
      <use xlink:href="#MalgunGothic-c77c" x="465.625"/>
      <use xlink:href="#MalgunGothic-29" x="565.625"/>
     </g>
    </g>
   </g>
   <g id="matplotlib.axis_2">
    <g id="ytick_1">
     <g id="text_16">
      <!-- 20 -->
      <g style="fill: #262626" transform="translate(110.078125 503.806227) scale(0.14 -0.14)">
       <use xlink:href="#MalgunGothic-32"/>
       <use xlink:href="#MalgunGothic-30" x="55.078125"/>
      </g>
     </g>
    </g>
    <g id="ytick_2">
     <g id="text_17">
      <!-- 21 -->
      <g style="fill: #262626" transform="translate(110.078125 420.387695) scale(0.14 -0.14)">
       <use xlink:href="#MalgunGothic-32"/>
       <use xlink:href="#MalgunGothic-31" x="55.078125"/>
      </g>
     </g>
    </g>
    <g id="ytick_3">
     <g id="text_18">
      <!-- 22 -->
      <g style="fill: #262626" transform="translate(110.078125 336.969162) scale(0.14 -0.14)">
       <use xlink:href="#MalgunGothic-32"/>
       <use xlink:href="#MalgunGothic-32" x="55.078125"/>
      </g>
     </g>
    </g>
    <g id="ytick_4">
     <g id="text_19">
      <!-- 23 -->
      <g style="fill: #262626" transform="translate(110.078125 253.55063) scale(0.14 -0.14)">
       <use xlink:href="#MalgunGothic-32"/>
       <use xlink:href="#MalgunGothic-33" x="55.078125"/>
      </g>
     </g>
    </g>
    <g id="ytick_5">
     <g id="text_20">
      <!-- 24 -->
      <g style="fill: #262626" transform="translate(110.078125 170.132098) scale(0.14 -0.14)">
       <use xlink:href="#MalgunGothic-32"/>
       <use xlink:href="#MalgunGothic-34" x="55.078125"/>
      </g>
     </g>
    </g>
    <g id="ytick_6">
     <g id="text_21">
      <!-- 25 -->
      <g style="fill: #262626" transform="translate(110.078125 86.713565) scale(0.14 -0.14)">
       <use xlink:href="#MalgunGothic-32"/>
       <use xlink:href="#MalgunGothic-35" x="55.078125"/>
      </g>
     </g>
    </g>
    <g id="text_22">
     <!-- 온도 값 -->
     <g style="fill: #262626" transform="translate(102.295625 317.6925) rotate(-90) scale(0.16 -0.16)">
      <defs>
       <path id="MalgunGothic-c628" d="M 403 1863 
L 403 2278 
L 2963 2278 
L 2963 2975 
Q 2150 3016 1719 3333 
Q 1288 3650 1288 4141 
Q 1288 4684 1791 5001 
Q 2294 5319 3200 5319 
Q 4106 5319 4609 5001 
Q 5113 4684 5113 4141 
Q 5113 3650 4681 3333 
Q 4250 3016 3438 2975 
L 3438 2278 
L 5997 2278 
L 5997 1863 
L 403 1863 
z
M 3200 4922 
Q 2522 4922 2147 4714 
Q 1772 4506 1772 4141 
Q 1772 3781 2145 3573 
Q 2519 3366 3200 3366 
Q 3881 3366 4254 3573 
Q 4628 3781 4628 4141 
Q 4628 4506 4253 4714 
Q 3878 4922 3200 4922 
z
M 1319 -359 
L 1319 1331 
L 1784 1331 
L 1784 56 
L 5203 56 
L 5203 -359 
L 1319 -359 
z
" transform="scale(0.015625)"/>
       <path id="MalgunGothic-b3c4" d="M 403 372 
L 403 788 
L 2963 788 
L 2963 2181 
L 1350 2181 
L 1350 4897 
L 5050 4897 
L 5050 4481 
L 1819 4481 
L 1819 2600 
L 5147 2600 
L 5147 2181 
L 3438 2181 
L 3438 788 
L 5997 788 
L 5997 372 
L 403 372 
z
" transform="scale(0.015625)"/>
       <path id="MalgunGothic-ac12" d="M 5119 3584 
L 5119 2375 
L 4653 2375 
L 4653 5466 
L 5119 5466 
L 5119 4000 
L 6028 4000 
L 6028 3584 
L 5119 3584 
z
M 3488 5203 
Q 3488 4372 2816 3540 
Q 2144 2709 781 2181 
L 459 2572 
Q 1553 2903 2193 3515 
Q 2834 4128 2963 4794 
L 831 4794 
L 831 5203 
L 3488 5203 
z
M 5575 -447 
Q 5266 -256 4970 84 
Q 4675 425 4575 709 
Q 4456 397 4148 50 
Q 3841 -297 3541 -447 
L 3250 -134 
Q 3756 109 4061 581 
Q 4366 1053 4366 1606 
L 4366 2022 
L 4788 2022 
L 4788 1606 
Q 4788 1066 5089 586 
Q 5391 106 5881 -134 
L 5575 -447 
z
M 1216 -441 
L 1216 1984 
L 1656 1984 
L 1656 1088 
L 2700 1088 
L 2700 1984 
L 3144 1984 
L 3144 -441 
L 1216 -441 
z
M 2700 703 
L 1656 703 
L 1656 -50 
L 2700 -50 
L 2700 703 
z
" transform="scale(0.015625)"/>
      </defs>
      <use xlink:href="#MalgunGothic-c628"/>
      <use xlink:href="#MalgunGothic-b3c4" x="100"/>
      <use xlink:href="#MalgunGothic-20" x="200"/>
      <use xlink:href="#MalgunGothic-ac12" x="235.15625"/>
     </g>
    </g>
   </g>
   <g id="line2d_15">
    <path d="M 135 102.73958 
L 137.291324 233.525936 
L 137.332985 233.669833 
L 137.416306 232.566623 
L 137.624608 223.085411 
L 139.790951 114.393844 
L 139.832612 114.409138 
L 139.915933 115.753566 
L 140.124235 125.464874 
L 142.373899 239.205208 
L 142.45722 239.807212 
L 142.49888 239.727408 
L 144.790205 220.596758 
L 145.081828 213.978888 
L 147.20651 158.608586 
L 147.248171 158.850639 
L 147.373152 162.285397 
L 147.623115 179.989312 
L 149.872779 356.84953 
L 150.081081 359.502518 
L 152.122443 366.315031 
L 152.205764 365.356413 
L 152.372406 358.492458 
L 152.664029 333.083173 
L 154.788711 139.129525 
L 154.872032 141.27352 
L 155.038674 156.591109 
L 157.329999 432.419352 
L 157.413319 433.634065 
L 157.45498 433.179712 
L 157.663282 424.537691 
L 159.829625 331.06375 
L 159.912946 330.586179 
L 159.954607 330.723819 
L 160.162909 333.670579 
L 162.16261 363.958597 
L 162.204271 363.778135 
L 162.329252 360.776736 
L 162.537554 347.574363 
L 164.787218 167.165103 
L 164.828879 166.932921 
L 164.912199 168.405537 
L 165.120502 181.449136 
L 167.453487 342.544781 
L 168.286696 365.503786 
L 169.703151 402.823986 
L 169.744811 402.568308 
L 169.869792 399.012593 
L 170.119755 380.746437 
L 172.286098 206.526833 
L 172.369419 208.589773 
L 172.536061 222.622438 
L 174.869046 478.719418 
L 175.035688 481.988034 
L 177.11871 488.174909 
L 177.202031 486.747339 
L 177.368673 477.192025 
L 177.701956 436.864169 
L 179.784978 173.824682 
L 179.826639 173.33877 
L 179.868299 173.847623 
L 179.993281 181.342778 
L 182.367926 425.206847 
L 182.409586 425.712363 
L 182.451247 425.648965 
L 182.576228 422.614199 
L 185.742422 334.41787 
L 187.242198 298.061571 
L 187.325519 298.833609 
L 187.492161 304.243301 
L 189.866806 422.120361 
L 189.950127 422.782148 
L 189.991787 422.747668 
L 192.199791 408.413723 
L 192.283112 408.798699 
L 192.449754 411.181967 
L 193.241302 431.308495 
L 194.782739 468.730049 
L 194.824399 468.779405 
L 194.90772 468.26791 
L 195.116022 464.039842 
L 197.407347 408.549278 
L 198.573839 359.002702 
L 199.906973 298.168347 
L 201.115126 206.299517 
L 202.281619 123.469085 
L 202.323279 123.425291 
L 202.4066 125.220875 
L 202.614902 138.811839 
L 204.822906 296.900385 
L 204.906227 297.944368 
L 204.947887 297.872628 
L 205.114529 294.814922 
L 207.697476 239.026693 
L 211.155293 144.696321 
L 212.155144 116.70704 
L 212.196805 116.728729 
L 212.280125 118.591882 
L 212.446767 129.597289 
L 213.238316 221.604732 
L 214.863073 401.053428 
L 214.988054 403.500927 
L 215.029715 403.302113 
L 217.196058 392.599237 
L 217.40436 388.567342 
L 217.987606 369.136663 
L 219.737345 312.077553 
L 219.779006 312.214637 
L 219.903987 314.952433 
L 220.19561 331.034553 
L 222.403614 456.254112 
L 222.736897 461.243235 
L 224.653278 486.354994 
L 224.694938 486.350823 
L 224.778259 485.508296 
L 224.944901 480.486501 
L 225.736449 438.419925 
L 227.527848 348.047068 
L 229.860833 275.926881 
L 230.5274 234.847424 
L 232.318799 127.635841 
L 232.40212 127.094594 
L 232.443781 127.365982 
L 232.652083 131.974995 
L 234.860087 186.98187 
L 235.526654 219.908555 
L 237.526355 315.24134 
L 239.692698 371.52146 
L 239.776019 370.279497 
L 239.942661 361.85784 
L 240.734209 289.444854 
L 242.317306 152.544615 
L 242.358967 152.273505 
L 242.400627 152.596751 
L 242.525608 157.132634 
L 244.775273 266.149533 
L 244.858593 265.165473 
L 245.025235 257.528228 
L 247.274899 122.298445 
L 247.35822 123.816107 
L 247.524862 134.218954 
L 249.774526 317.728602 
L 249.816186 317.920465 
L 249.899507 316.306316 
L 250.107809 302.614554 
L 252.315813 143.4513 
L 252.357473 143.172126 
L 252.399134 143.369411 
L 252.524115 146.820018 
L 254.81544 239.520948 
L 255.273705 278.977913 
L 257.398387 462.355483 
L 257.60669 465.228556 
L 259.606391 482.980019 
L 259.648051 482.834593 
L 259.773033 479.306823 
L 259.981335 463.122238 
L 262.31432 206.865373 
L 262.35598 206.711605 
L 262.439301 208.718515 
L 262.772585 231.404324 
L 264.772286 366.019591 
L 264.813947 365.887511 
L 264.938928 361.814184 
L 265.438853 324.071191 
L 267.271913 190.6933 
L 267.355234 192.286872 
L 267.521875 204.186248 
L 269.771539 415.902483 
L 269.8132 416.099906 
L 269.896521 414.174885 
L 270.104823 398.149629 
L 272.354487 207.838172 
L 272.479468 205.763553 
L 272.521129 205.816385 
L 274.604151 208.457972 
L 274.729132 209.716757 
L 274.937435 215.482368 
L 275.978946 262.465215 
L 277.31208 319.209281 
L 277.395401 319.837701 
L 277.437061 319.78904 
L 277.603703 317.901 
L 279.853367 287.821112 
L 280.478274 270.744504 
L 282.186352 224.767963 
L 282.269673 226.488192 
L 282.436315 236.867404 
L 283.227863 324.04269 
L 284.81096 489.335121 
L 284.852621 489.867888 
L 284.894281 489.719681 
L 285.019262 485.18922 
L 287.268926 371.165819 
L 287.310587 371.123414 
L 287.393908 372.327839 
L 287.60221 381.570195 
L 289.768553 487.193351 
L 289.810214 487.34698 
L 289.851874 487.110071 
L 289.976855 484.056119 
L 292.476482 380.473242 
L 294.684486 337.523959 
L 294.726146 337.735425 
L 294.851127 340.452784 
L 295.10109 354.219344 
L 297.350754 490.219914 
L 297.434075 490.756573 
L 297.475735 490.550251 
L 299.683739 462.046278 
L 299.892041 452.783345 
L 300.475287 409.027405 
L 302.350007 272.609743 
L 302.474989 270.823752 
L 302.516649 270.875193 
L 304.641332 273.574061 
L 304.807974 274.834793 
L 305.057936 278.911179 
L 307.26594 319.819627 
L 307.349261 319.498048 
L 307.515903 316.747739 
L 309.807227 262.208703 
L 310.223832 239.28529 
L 312.223533 126.460891 
L 312.306854 128.121059 
L 312.473496 140.165305 
L 314.76482 396.720391 
L 314.806481 397.041552 
L 314.889801 394.979446 
L 315.098104 376.752775 
L 317.306107 163.005994 
L 317.389428 161.673383 
L 317.431089 161.819365 
L 317.59773 166.193972 
L 319.930715 231.801536 
L 320.472301 236.24677 
L 322.138719 250.000679 
L 322.305361 256.259571 
L 322.596984 279.684885 
L 324.763327 472.462333 
L 324.804987 472.641683 
L 324.888308 470.798967 
L 325.09661 455.552006 
L 328.304465 195.975779 
L 329.76258 94.562479 
L 329.845901 96.780994 
L 330.012543 110.439111 
L 332.345528 355.505658 
L 332.428849 357.000935 
L 332.470509 356.984668 
L 334.678513 329.867389 
L 334.761834 330.534042 
L 334.928475 334.812022 
L 335.720024 371.205443 
L 337.2198 437.474793 
L 337.26146 437.302117 
L 337.386442 433.632535 
L 337.678065 411.938712 
L 339.969389 237.583552 
L 342.219053 162.391756 
L 342.302374 163.3925 
L 342.469016 170.569274 
L 344.802001 325.036761 
L 344.843661 325.354863 
L 344.885322 325.247254 
L 345.010303 322.370148 
L 347.384948 246.915861 
L 347.593251 245.827389 
L 349.592952 238.953702 
L 349.634613 239.122624 
L 349.759594 241.502138 
L 349.967896 251.710481 
L 352.21756 407.957562 
L 352.259221 407.890828 
L 352.342541 405.473776 
L 352.509183 391.505342 
L 354.758847 151.063936 
L 354.800508 151.324619 
L 354.925489 157.980166 
L 355.425414 218.864434 
L 357.258474 435.823523 
L 357.300134 436.042497 
L 357.383455 433.518669 
L 357.591758 412.893854 
L 359.758101 177.628568 
L 359.799761 177.928874 
L 359.924742 184.850944 
L 360.424668 247.662596 
L 362.257727 470.263559 
L 362.299388 469.887481 
L 362.424369 461.926433 
L 362.924294 390.224173 
L 364.840675 124.6261 
L 364.965656 121.988407 
L 365.007317 122.406889 
L 367.21532 145.652576 
L 367.465283 155.093051 
L 369.798268 273.249841 
L 369.839928 273.533186 
L 369.881589 273.497872 
L 369.96491 272.471268 
L 372.131253 221.456386 
L 372.172913 221.529517 
L 372.297895 224.942169 
L 372.506197 241.274127 
L 374.755861 465.874354 
L 374.797521 465.573352 
L 374.922503 459.11217 
L 375.422428 400.844742 
L 377.297148 191.23274 
L 377.338808 191.245809 
L 377.422129 193.744889 
L 377.797073 222.713504 
L 379.796775 372.88146 
L 379.838435 372.70072 
L 379.963416 368.667434 
L 382.463043 224.117716 
L 384.671047 162.787159 
L 384.754368 164.309409 
L 384.921009 174.039068 
L 385.712558 256.744789 
L 387.337315 418.762348 
L 387.503957 421.897494 
L 389.711961 429.540856 
L 389.753621 429.5289 
L 389.878602 429.25195 
L 390.170225 427.601237 
L 392.169927 414.911609 
L 392.378229 409.114021 
L 392.961475 380.733924 
L 394.919516 278.827065 
L 397.252501 96.451908 
L 397.294162 97.016374 
L 397.419143 103.467963 
L 397.960729 161.560073 
L 399.96043 367.032431 
L 402.168434 464.016346 
L 402.210094 463.54517 
L 402.335075 457.441019 
L 402.585038 426.47022 
L 404.793042 123.193804 
L 404.876363 121.475104 
L 404.918023 121.789036 
L 405.084665 128.520078 
L 407.667612 240.167441 
L 409.875616 316.43061 
L 410.958788 384.552408 
L 412.333582 465.270682 
L 412.416903 466.093745 
L 412.458564 466.060656 
L 414.791548 448.32379 
L 414.874869 448.284723 
L 414.91653 448.33672 
L 415.208153 449.320642 
L 417.082873 455.952415 
L 417.166194 454.371495 
L 417.332836 443.706992 
L 417.666119 398.619553 
L 419.832462 95.742434 
L 419.915783 93.943374 
L 419.957444 94.084907 
L 422.165447 139.887382 
L 422.373749 156.706644 
L 422.956996 237.679483 
L 424.790055 485.673743 
L 424.873376 487.69984 
L 424.915037 487.586947 
L 425.081678 481.88098 
L 427.99791 364.632757 
L 430.080932 267.286806 
L 432.372256 138.465513 
L 432.580558 136.507402 
L 434.746902 123.537211 
L 434.830222 123.621324 
L 434.996864 124.448558 
L 437.121547 139.764201 
L 437.288189 148.862382 
L 437.538151 178.959788 
L 439.787815 485.333117 
L 439.829476 485.072573 
L 439.954457 478.068753 
L 442.287442 239.948468 
L 442.370763 238.727637 
L 442.412423 238.993742 
L 442.579065 244.148591 
L 444.662088 314.341949 
L 444.703748 314.230168 
L 444.828729 310.801666 
L 445.037032 295.292493 
L 447.245035 105.861519 
L 447.286696 106.017929 
L 447.411677 111.139409 
L 447.911602 158.763466 
L 449.786322 330.553506 
L 449.827983 330.70366 
L 449.911304 329.0624 
L 450.244587 310.200775 
L 452.244288 198.734151 
L 452.327609 200.001835 
L 452.494251 209.240715 
L 454.868897 380.957208 
L 455.118859 384.167987 
L 457.326863 406.191175 
L 457.99343 419.511724 
L 460.201433 462.358958 
L 462.242795 492.48 
L 462.326116 492.276598 
L 462.492758 490.246469 
L 464.700762 450.720822 
L 464.950724 434.290708 
L 467.36703 220.55352 
L 467.658653 213.889908 
L 469.658354 175.297576 
L 469.700015 175.389197 
L 469.824996 177.49343 
L 470.033298 186.793484 
L 472.366283 306.004684 
L 472.616246 308.2891 
L 474.782589 322.365977 
L 474.86591 322.35124 
L 475.032552 321.829318 
L 477.115574 313.266406 
L 477.282216 307.56892 
L 477.532179 288.580082 
L 479.781843 92.709197 
L 479.865164 91.624478 
L 479.906824 91.825795 
L 480.073466 96.10155 
L 482.614753 165.9604 
L 485.739286 231.997291 
L 487.239062 267.935385 
L 487.572346 287.870329 
L 489.82201 435.524468 
L 489.946991 437.010152 
L 489.988652 436.917001 
L 492.071674 432.259466 
L 492.196655 428.829296 
L 492.404957 412.609953 
L 493.446469 279.52639 
L 494.821263 117.358261 
L 494.862924 116.745691 
L 494.904584 116.809089 
L 495.029565 120.379124 
L 497.27923 193.391194 
L 497.32089 193.440133 
L 497.404211 192.854813 
L 497.737494 186.186614 
L 499.653875 147.573983 
L 499.695535 147.750969 
L 499.820517 150.359884 
L 500.070479 163.889535 
L 503.195013 365.835375 
L 504.694789 465.125117 
L 504.77811 462.960962 
L 504.944751 447.998458 
L 507.319397 122.273698 
L 507.444378 120.144857 
L 509.694042 153.855954 
L 509.944005 165.286796 
L 512.360311 310.044087 
L 512.568613 312.27025 
L 514.651635 328.264224 
L 514.859937 335.059358 
L 515.443184 368.179435 
L 517.192922 465.017507 
L 517.276243 463.216084 
L 517.442885 450.782551 
L 519.77587 186.39516 
L 519.81753 186.529742 
L 519.942512 192.016179 
L 522.233836 378.017261 
L 522.317157 376.520454 
L 522.483799 364.207323 
L 524.775123 139.764201 
L 524.858444 139.020663 
L 524.900105 139.542307 
L 525.150067 149.223862 
L 527.358071 235.832319 
L 527.608033 237.614139 
L 529.607735 248.629278 
L 529.774377 254.245014 
L 530.024339 272.45806 
L 532.357324 464.423011 
L 532.523966 466.222627 
L 534.565328 475.760146 
L 534.606988 475.530327 
L 534.73197 472.294105 
L 534.940272 458.411176 
L 537.439898 224.810089 
L 539.689562 122.574005 
L 539.772883 124.196217 
L 539.939525 134.83486 
L 542.314171 364.621635 
L 542.439152 366.227442 
L 544.647155 346.444459 
L 544.688816 346.470597 
L 544.813797 347.363175 
L 545.022099 351.428994 
L 547.146782 399.741671 
L 547.230103 398.279622 
L 547.396745 389.502881 
L 548.188293 315.867674 
L 549.896372 165.923418 
L 550.479618 149.937786 
L 552.187696 106.083829 
L 552.271017 107.06066 
L 552.437659 113.308708 
L 554.770644 244.540658 
L 554.812304 244.460576 
L 554.937285 241.683573 
L 557.27027 145.898938 
L 557.353591 145.307918 
L 557.395252 145.352964 
L 557.561893 147.12241 
L 560.06152 178.258377 
L 562.144542 212.323725 
L 562.352845 225.482999 
L 562.936091 288.783762 
L 564.76915 482.567793 
L 564.852471 484.080449 
L 564.894132 483.94837 
L 565.060773 479.274151 
L 567.268777 406.556826 
L 567.685382 375.772607 
L 569.726743 222.103158 
L 569.768404 222.211602 
L 569.893385 226.59608 
L 570.39331 267.812343 
L 572.22637 414.76382 
L 572.26803 414.927181 
L 572.351351 413.257281 
L 572.559654 399.432188 
L 574.934299 226.841331 
L 577.350605 146.555442 
L 577.683888 143.351893 
L 579.641929 126.895641 
L 579.68359 127.003529 
L 579.808571 128.263149 
L 580.058534 134.526212 
L 582.308198 202.067695 
L 582.974765 241.434013 
L 584.766164 343.42012 
L 584.807824 343.560541 
L 584.891145 342.65684 
L 585.224429 331.539931 
L 587.432432 251.795985 
L 589.848738 128.721394 
L 590.098701 126.07661 
L 592.056742 109.740481 
L 592.098402 109.784136 
L 592.181723 111.045146 
L 592.348365 118.261962 
L 592.764969 152.735782 
L 594.806331 318.127065 
L 594.889652 318.626881 
L 595.014633 316.50374 
L 597.180977 273.645801 
L 597.264297 274.341928 
L 597.430939 278.94246 
L 599.763924 376.268948 
L 599.805585 376.283129 
L 599.888905 375.40932 
L 600.222189 366.200331 
L 602.263551 311.008544 
L 602.305211 311.041912 
L 602.430193 312.364095 
L 604.596536 355.969882 
L 604.638196 355.828348 
L 604.763178 352.434883 
L 604.97148 336.882888 
L 607.346125 113.44329 
L 607.554427 110.168 
L 609.554129 89.28 
L 609.595789 89.379685 
L 609.72077 92.887852 
L 609.929073 109.431832 
L 612.262058 371.851936 
L 612.303718 371.674255 
L 612.428699 366.050177 
L 614.761684 173.438177 
L 614.845005 172.711045 
L 614.886666 173.087819 
L 615.094968 179.413724 
L 617.261311 246.703283 
L 617.344632 246.282576 
L 617.511274 242.777051 
L 619.92758 184.176922 
L 622.093923 161.344158 
L 622.135583 161.360007 
L 622.218904 162.080743 
L 622.385546 166.278364 
L 623.177094 201.261038 
L 624.718531 265.482185 
L 624.801852 264.403444 
L 624.968493 257.025631 
L 627.259818 124.735657 
L 627.343139 124.113772 
L 627.384799 124.307303 
L 627.593101 128.301799 
L 629.842765 176.954824 
L 631.050918 221.346135 
L 632.384053 273.895361 
L 634.800358 409.359411 
L 634.842019 409.327573 
L 634.92534 408.19322 
L 637.383306 346.042798 
L 637.924892 342.09446 
L 639.67463 330.096373 
L 639.757951 330.248334 
L 639.924593 331.548272 
L 642.382559 364.351498 
L 644.590563 412.454099 
L 644.673884 411.829851 
L 644.798865 407.204293 
L 645.048828 386.147787 
L 647.215171 187.348912 
L 647.298492 189.542402 
L 647.465134 205.05241 
L 649.714798 478.77225 
L 649.756458 478.667281 
L 649.839779 475.233636 
L 650.048081 451.06826 
L 652.214424 176.572628 
L 652.256085 176.270236 
L 652.339406 178.770706 
L 652.547708 200.030614 
L 654.714051 444.577603 
L 654.755712 445.025282 
L 654.797372 444.587891 
L 654.922353 437.965294 
L 657.213678 226.365845 
L 657.255338 225.974473 
L 657.296999 226.300361 
L 657.42198 231.581589 
L 659.671644 399.162747 
L 659.713304 399.060976 
L 659.796625 396.384909 
L 659.963267 381.142675 
L 662.212931 119.1918 
L 662.254592 119.433714 
L 662.379573 126.505937 
L 662.879498 191.815974 
L 664.754218 427.81743 
L 664.795879 428.196984 
L 664.837539 427.718022 
L 664.962521 421.130044 
L 667.420487 248.953498 
L 669.670151 182.691655 
L 669.753472 183.467865 
L 669.920113 189.436461 
L 672.37808 325.5591 
L 672.961326 335.404989 
L 674.669404 362.588308 
L 674.752725 362.249768 
L 674.919367 359.278678 
L 677.169031 295.749626 
L 677.252352 296.890653 
L 677.418994 303.949251 
L 679.710318 450.269528 
L 679.751978 450.295943 
L 679.835299 448.708767 
L 680.043602 436.814118 
L 682.293266 297.171078 
L 682.376587 296.422397 
L 682.418247 296.514574 
L 684.58459 317.174286 
L 684.626251 316.965184 
L 684.751232 314.501 
L 684.959534 304.271107 
L 687.250859 163.53014 
L 687.334179 162.948991 
L 687.37584 163.204808 
L 687.584142 167.762241 
L 690.250411 233.245093 
L 692.166791 285.768182 
L 692.208452 285.683373 
L 692.333433 283.527004 
L 692.625056 270.570716 
L 694.666418 176.797719 
L 694.749739 178.190947 
L 694.91638 188.133046 
L 697.332686 408.336283 
L 697.540989 410.724972 
L 699.54069 422.937445 
L 699.58235 422.835397 
L 699.707332 420.3904 
L 699.915634 409.1859 
L 702.290279 228.993529 
L 702.3736 228.441576 
L 702.415261 228.77247 
L 704.623264 266.836207 
L 704.664925 266.655328 
L 704.789906 264.279985 
L 705.039869 252.198479 
L 707.206212 136.523391 
L 707.247872 136.661726 
L 707.372854 140.025579 
L 707.872779 170.682584 
L 710.039122 299.465505 
L 712.122144 386.120537 
L 712.163805 386.052273 
L 712.247126 384.077617 
L 712.413767 372.775796 
L 714.788413 133.893899 
L 714.913394 131.656614 
L 714.955055 131.813719 
L 717.288039 141.040782 
L 717.912946 146.340362 
L 719.621024 161.938515 
L 719.829327 170.224756 
L 720.412573 210.78952 
L 722.203972 330.547945 
L 722.287293 328.510587 
L 722.453935 315.770352 
L 724.703599 93.106825 
L 724.745259 92.749516 
L 724.78692 93.174394 
L 724.911901 99.142156 
L 727.203225 287.681942 
L 727.244886 287.780654 
L 727.328207 285.905127 
L 727.536509 271.19705 
L 729.661192 105.453602 
L 729.702852 105.712756 
L 729.827833 111.913255 
L 730.119456 148.977082 
L 732.244139 423.843232 
L 732.2858 423.55516 
L 732.410781 416.720679 
L 734.785426 182.169038 
L 734.952068 179.244106 
L 737.03509 173.891417 
L 737.118411 174.839747 
L 737.285053 181.386155 
L 737.576676 205.43544 
L 739.701359 388.90616 
L 739.78468 386.889378 
L 739.951321 372.435171 
L 742.242646 114.860988 
L 742.284306 115.070091 
L 742.409288 120.822633 
L 744.908914 328.799632 
L 747.200239 408.209904 
L 747.241899 408.234929 
L 747.32522 407.401578 
L 747.533522 401.048423 
L 749.741526 321.079247 
L 750.158131 287.036144 
L 752.199492 117.454609 
L 752.282813 118.883986 
L 752.449455 131.204069 
L 754.865761 367.533776 
L 755.449007 385.10158 
L 757.073764 432.535999 
L 757.115425 432.448131 
L 757.240406 428.221314 
L 757.448708 407.965904 
L 759.781693 118.675439 
L 759.906675 115.759128 
L 759.948335 115.887036 
L 762.156339 122.391735 
L 762.28132 122.089343 
L 762.489622 120.716274 
L 764.614305 104.373332 
L 764.697626 104.791676 
L 764.864268 107.47525 
L 765.655816 130.303149 
L 767.197253 177.296979 
L 767.530536 201.532148 
L 769.696879 374.654799 
L 769.73854 374.982217 
L 769.7802 374.685247 
L 769.905181 370.04801 
L 772.196506 222.822643 
L 772.279827 224.354207 
L 772.446469 235.185269 
L 774.737793 428.670384 
L 774.779453 428.810527 
L 774.862774 427.321506 
L 775.196058 410.159812 
L 777.195759 308.314126 
L 777.23742 308.426741 
L 777.362401 311.562443 
L 777.862326 340.42609 
L 779.612065 440.578797 
L 779.653726 440.520821 
L 779.737046 437.90273 
L 779.903688 422.657993 
L 782.278334 99.42995 
L 782.403315 96.439396 
L 782.444975 96.667406 
L 784.569658 108.747661 
L 784.7363 115.983662 
L 784.986263 139.937294 
L 787.194266 381.737032 
L 787.235927 381.636235 
L 787.319247 378.527087 
L 787.52755 356.701045 
L 789.777214 101.461191 
L 789.860535 100.055589 
L 789.902195 100.201571 
L 792.23518 138.302291 
L 792.27684 138.309242 
L 792.360161 137.970702 
L 792.693445 134.3844 
L 794.526504 114.013595 
L 794.568165 114.238269 
L 794.693146 119.038171 
L 794.901448 140.790944 
L 797.192773 481.590406 
L 797.234433 482.032524 
L 797.317754 479.333934 
L 797.526056 455.270469 
L 799.77572 168.211449 
L 799.942362 164.747356 
L 802.025385 162.592377 
L 802.067045 162.692479 
L 802.192026 163.851997 
L 802.400329 168.648563 
L 804.983276 258.21365 
L 807.399582 364.782216 
L 809.565925 408.612259 
L 809.607585 408.20323 
L 809.732567 403.183937 
L 809.940869 382.17776 
L 812.232194 95.450191 
L 812.273854 95.530551 
L 812.357175 98.464102 
L 812.732119 131.537048 
L 814.815141 311.593169 
L 815.065104 316.308402 
L 817.231447 347.651525 
L 817.314768 347.751627 
L 817.356428 347.668209 
L 817.606391 346.18892 
L 819.606092 333.266972 
L 819.814395 328.828411 
L 820.397641 308.007563 
L 823.688816 192.395733 
L 824.605346 163.187151 
L 824.647006 163.408627 
L 824.771987 167.318871 
L 824.98029 184.114358 
L 827.188293 388.860975 
L 827.229954 389.023641 
L 827.313275 387.041617 
L 827.521577 370.934332 
L 829.68792 187.382975 
L 829.771241 188.774118 
L 829.937883 201.109494 
L 832.187547 422.270097 
L 832.270868 419.990686 
L 832.437509 403.611457 
L 834.687173 113.905846 
L 834.728834 113.934347 
L 834.812155 117.351865 
L 835.020457 142.138153 
L 837.1868 424.541862 
L 837.228461 425.009701 
L 837.270121 424.445235 
L 837.395102 416.558013 
L 839.686427 167.267291 
L 839.728087 167.004522 
L 839.811408 169.137534 
L 840.01971 187.319716 
L 842.186053 395.094425 
L 842.227714 394.77813 
L 842.352695 388.447914 
L 842.852621 331.735964 
L 844.810661 118.667515 
L 845.018964 115.757042 
L 847.018665 100.741706 
L 847.060326 100.787587 
L 847.185307 103.077425 
L 847.393609 114.067817 
L 849.851575 300.237126 
L 850.726445 328.314414 
L 853.267732 405.797022 
L 854.684187 444.023565 
L 854.725847 444.095166 
L 854.809168 443.567266 
L 855.017471 439.003855 
L 858.350306 357.966226 
L 859.600119 330.504846 
L 859.64178 330.540994 
L 859.725101 331.597628 
L 859.891743 337.648253 
L 862.183067 461.73749 
L 862.224727 461.959245 
L 862.266388 461.758762 
L 862.391369 458.623894 
L 864.724354 357.449727 
L 864.766015 357.413857 
L 864.849336 358.268897 
L 865.182619 367.558662 
L 867.14066 421.549361 
L 867.223981 420.346605 
L 867.390623 413.137853 
L 869.93191 248.563516 
L 872.139913 164.204857 
L 872.181574 164.244064 
L 872.264895 165.581263 
L 872.431537 173.290804 
L 875.139465 333.145737 
L 877.139167 423.567255 
L 877.222488 422.462655 
L 877.389129 413.57163 
L 879.888756 206.161877 
L 882.09676 128.197526 
L 882.13842 128.674402 
L 882.263402 134.075752 
L 882.513364 160.76134 
L 884.804689 430.507677 
L 885.096312 439.306247 
L 887.220994 492.156058 
L 887.262655 492.257829 
L 887.304315 492.195821 
L 887.429297 491.027127 
L 889.59564 461.354043 
L 889.803942 451.093564 
L 890.387188 402.280931 
L 892.261908 249.937837 
L 892.42855 247.788419 
L 894.511572 247.510357 
L 894.594893 248.416005 
L 894.761535 253.894378 
L 895.094819 276.46354 
L 897.219501 426.014199 
L 897.302822 426.900521 
L 897.344483 426.742026 
L 897.511124 423.300316 
L 900.260714 362.352651 
L 902.135434 328.570648 
L 902.177094 328.627929 
L 902.302076 330.053551 
L 902.593699 338.60409 
L 905.259967 419.096022 
L 907.134687 464.906143 
L 907.218008 464.320684 
L 907.38465 459.547754 
L 909.675974 356.509183 
L 909.717635 356.49667 
L 909.800956 357.630328 
L 910.009258 366.064776 
L 912.175601 461.10629 
L 912.258922 459.743787 
L 912.425564 451.346322 
L 915.216813 255.900176 
L 917.216515 101.350662 
L 917.258175 101.246388 
L 917.341496 102.681187 
L 917.67478 118.828234 
L 919.799462 229.820206 
L 921.007615 337.103947 
L 922.257429 439.757958 
L 922.34075 440.879938 
L 922.38241 440.809866 
L 924.632074 413.420225 
L 924.882037 404.706325 
L 927.340003 284.117885 
L 929.88129 103.688466 
L 932.005973 93.478038 
L 932.089294 94.750587 
L 932.255935 103.987521 
L 932.547559 138.275875 
L 934.713902 406.030594 
L 934.755562 406.681259 
L 934.797223 406.544314 
L 934.922204 401.407817 
L 937.880096 230.438755 
L 939.588174 146.50122 
L 939.629834 146.760791 
L 939.754816 152.2685 
L 939.963118 176.42317 
L 942.171121 471.459225 
L 942.212782 471.670552 
L 942.296103 468.753962 
L 942.504405 445.322809 
L 944.795729 163.235534 
L 945.045692 156.327645 
L 947.087054 111.873909 
L 947.128714 112.065772 
L 947.253696 114.885318 
L 947.503658 129.500245 
L 949.670001 269.768507 
L 949.711662 269.657283 
L 949.836643 265.818362 
L 950.336569 230.015406 
L 952.252949 98.312142 
L 952.33627 97.805374 
L 952.37793 98.107766 
L 954.585934 134.687905 
L 954.794236 145.685248 
L 955.419143 200.659729 
L 957.293863 359.463033 
L 957.543826 363.766595 
L 959.585187 390.394625 
L 959.668508 389.743126 
L 959.83515 385.407031 
L 960.626699 348.254919 
L 962.293116 274.031333 
L 962.584739 271.074703 
L 964.876064 250.769937 
L 967.042407 222.626192 
L 967.084067 222.90342 
L 967.209049 226.214301 
L 967.417351 239.996433 
L 969.791996 436.782141 
L 970.12528 444.997476 
L 972 486.727597 
L 972 486.727597 
" clip-path="url(#p5bf6d7e104)" style="fill: none; stroke: #4bc0c0; stroke-opacity: 0.8; stroke-width: 3; stroke-linecap: round"/>
   </g>
   <g id="line2d_16">
    <path d="M 148.456324 512.64 
L 148.456324 69.12 
" clip-path="url(#p5bf6d7e104)" style="fill: none; stroke-dasharray: 5.55,2.4; stroke-dashoffset: 0; stroke: #000000; stroke-opacity: 0.7; stroke-width: 1.5"/>
   </g>
   <g id="line2d_17">
    <path d="M 454.660594 512.64 
L 454.660594 69.12 
" clip-path="url(#p5bf6d7e104)" style="fill: none; stroke-dasharray: 5.55,2.4; stroke-dashoffset: 0; stroke: #000000; stroke-opacity: 0.7; stroke-width: 1.5"/>
   </g>
   <g id="line2d_18">
    <path d="M 465.867254 512.64 
L 465.867254 69.12 
" clip-path="url(#p5bf6d7e104)" style="fill: none; stroke-dasharray: 5.55,2.4; stroke-dashoffset: 0; stroke: #000000; stroke-opacity: 0.7; stroke-width: 1.5"/>
   </g>
   <g id="line2d_19">
    <path d="M 850.184859 512.64 
L 850.184859 69.12 
" clip-path="url(#p5bf6d7e104)" style="fill: none; stroke-dasharray: 5.55,2.4; stroke-dashoffset: 0; stroke: #000000; stroke-opacity: 0.7; stroke-width: 1.5"/>
   </g>
   <g id="line2d_20">
    <path d="M 914.550246 512.64 
L 914.550246 69.12 
" clip-path="url(#p5bf6d7e104)" style="fill: none; stroke-dasharray: 5.55,2.4; stroke-dashoffset: 0; stroke: #000000; stroke-opacity: 0.7; stroke-width: 1.5"/>
   </g>
   <g id="patch_3">
    <path d="M 135 512.64 
L 135 69.12 
" style="fill: none; stroke: #262626; stroke-width: 1.25; stroke-linejoin: miter; stroke-linecap: square"/>
   </g>
   <g id="patch_4">
    <path d="M 972 512.64 
L 972 69.12 
" style="fill: none; stroke: #262626; stroke-width: 1.25; stroke-linejoin: miter; stroke-linecap: square"/>
   </g>
   <g id="patch_5">
    <path d="M 135 512.64 
L 972 512.64 
" style="fill: none; stroke: #262626; stroke-width: 1.25; stroke-linejoin: miter; stroke-linecap: square"/>
   </g>
   <g id="patch_6">
    <path d="M 135 69.12 
L 972 69.12 
" style="fill: none; stroke: #262626; stroke-width: 1.25; stroke-linejoin: miter; stroke-linecap: square"/>
   </g>
   <g id="text_23">
    <!-- 평활화된 온도 데이터의 변동성 탐지 -->
    <g style="fill: #262626" transform="translate(405.84375 63.12) scale(0.18 -0.18)">
     <defs>
      <path id="MalgunGothic-d3c9" d="M 3884 2994 
L 3884 3391 
L 4947 3391 
L 4947 3969 
L 3884 3969 
L 3884 4366 
L 4947 4366 
L 4947 5466 
L 5416 5466 
L 5416 1881 
L 4947 1881 
L 4947 2994 
L 3884 2994 
z
M 794 4750 
L 794 5159 
L 4056 5159 
L 4056 4750 
L 794 4750 
z
M 4306 2247 
Q 3913 2169 3231 2169 
L 647 2169 
L 647 2578 
L 1466 2578 
L 1394 4475 
L 1850 4475 
L 1906 2578 
L 2900 2578 
L 2956 4475 
L 3413 4475 
L 3334 2584 
Q 3897 2584 4275 2650 
L 4306 2247 
z
M 3547 -538 
Q 2594 -538 2081 -227 
Q 1569 84 1569 594 
Q 1569 1100 2076 1411 
Q 2584 1722 3547 1722 
Q 4506 1722 5017 1411 
Q 5528 1100 5528 594 
Q 5528 84 5012 -227 
Q 4497 -538 3547 -538 
z
M 3547 1325 
Q 2834 1325 2451 1128 
Q 2069 931 2069 594 
Q 2069 259 2453 62 
Q 2838 -134 3547 -134 
Q 4256 -134 4647 62 
Q 5038 259 5038 594 
Q 5038 931 4648 1128 
Q 4259 1325 3547 1325 
z
" transform="scale(0.015625)"/>
      <path id="MalgunGothic-d65c" d="M 609 4581 
L 609 4966 
L 2150 4966 
L 2150 5528 
L 2619 5528 
L 2619 4966 
L 4159 4966 
L 4159 4581 
L 609 4581 
z
M 5216 3122 
L 5216 1906 
L 4750 1906 
L 4750 5466 
L 5216 5466 
L 5216 3547 
L 6119 3547 
L 6119 3122 
L 5216 3122 
z
M 469 1978 
L 422 2363 
Q 844 2363 2150 2388 
L 2150 2803 
Q 1547 2841 1215 3053 
Q 884 3266 884 3578 
Q 884 3919 1284 4136 
Q 1684 4353 2388 4353 
Q 3091 4353 3487 4134 
Q 3884 3916 3884 3578 
Q 3884 3253 3551 3047 
Q 3219 2841 2613 2803 
L 2613 2400 
Q 3606 2416 4300 2463 
L 4347 2094 
Q 3831 2053 2412 2015 
Q 994 1978 469 1978 
z
M 2388 4000 
Q 1356 4000 1356 3578 
Q 1356 3156 2388 3156 
Q 3413 3156 3413 3578 
Q 3413 4000 2388 4000 
z
M 1472 -513 
L 1472 750 
L 4756 750 
L 4756 1216 
L 1472 1216 
L 1472 1600 
L 5216 1600 
L 5216 384 
L 1931 384 
L 1931 -128 
L 5381 -128 
L 5381 -513 
L 1472 -513 
z
" transform="scale(0.015625)"/>
      <path id="MalgunGothic-d654" d="M 5228 2363 
L 5228 -563 
L 4763 -563 
L 4763 5466 
L 5228 5466 
L 5228 2778 
L 6156 2778 
L 6156 2363 
L 5228 2363 
z
M 2131 5441 
L 2591 5441 
L 2591 4653 
L 4159 4653 
L 4159 4238 
L 556 4238 
L 556 4653 
L 2131 4653 
L 2131 5441 
z
M 2591 1741 
L 2591 884 
Q 3688 900 4409 947 
L 4441 544 
Q 2791 447 359 447 
L 313 856 
Q 1141 856 2125 878 
L 2125 1734 
Q 1506 1791 1175 2092 
Q 844 2394 844 2828 
Q 844 3316 1250 3627 
Q 1656 3938 2363 3938 
Q 3059 3938 3465 3633 
Q 3872 3328 3872 2859 
Q 3872 2400 3536 2098 
Q 3200 1797 2591 1741 
z
M 2363 3541 
Q 1875 3541 1594 3342 
Q 1313 3144 1313 2828 
Q 1313 2513 1592 2319 
Q 1872 2125 2363 2125 
Q 2847 2125 3126 2320 
Q 3406 2516 3406 2828 
Q 3406 3144 3125 3342 
Q 2844 3541 2363 3541 
z
" transform="scale(0.015625)"/>
      <path id="MalgunGothic-b41c" d="M 4897 966 
L 4897 5466 
L 5363 5466 
L 5363 966 
L 4897 966 
z
M 4434 1791 
Q 2453 1678 616 1678 
L 550 2119 
Q 1338 2119 2350 2131 
L 2350 2994 
L 1081 2994 
L 1081 5094 
L 3963 5094 
L 3963 4672 
L 1550 4672 
L 1550 3413 
L 4031 3413 
L 4031 2994 
L 2816 2994 
L 2816 2138 
Q 4022 2169 4397 2209 
L 4434 1791 
z
M 1509 -422 
L 1509 1216 
L 1978 1216 
L 1978 -6 
L 5544 -6 
L 5544 -422 
L 1509 -422 
z
" transform="scale(0.015625)"/>
      <path id="MalgunGothic-b370" d="M 5044 -563 
L 5044 5466 
L 5509 5466 
L 5509 -563 
L 5044 -563 
z
M 3897 -366 
L 3897 2859 
L 2650 2859 
L 2650 3272 
L 3897 3272 
L 3897 5344 
L 4359 5344 
L 4359 -366 
L 3897 -366 
z
M 3359 1094 
Q 2766 1019 909 1019 
L 909 4966 
L 3138 4966 
L 3138 4550 
L 1369 4550 
L 1369 1428 
Q 2897 1428 3328 1491 
L 3359 1094 
z
" transform="scale(0.015625)"/>
      <path id="MalgunGothic-c774" d="M 4947 -563 
L 4947 5466 
L 5416 5466 
L 5416 -563 
L 4947 -563 
z
M 2284 959 
Q 1597 959 1173 1514 
Q 750 2069 750 3016 
Q 750 3975 1169 4522 
Q 1588 5069 2284 5069 
Q 2978 5069 3403 4522 
Q 3828 3975 3828 3016 
Q 3828 2063 3401 1511 
Q 2975 959 2284 959 
z
M 2284 4653 
Q 1803 4653 1503 4204 
Q 1203 3756 1203 3016 
Q 1203 2278 1506 1826 
Q 1809 1375 2284 1375 
Q 2756 1375 3061 1828 
Q 3366 2281 3366 3016 
Q 3366 3759 3067 4206 
Q 2769 4653 2284 4653 
z
" transform="scale(0.015625)"/>
      <path id="MalgunGothic-d130" d="M 4891 -563 
L 4891 2516 
L 3706 2516 
L 3706 2925 
L 4891 2925 
L 4891 5466 
L 5356 5466 
L 5356 -563 
L 4891 -563 
z
M 1422 2816 
L 1422 1331 
L 2144 1331 
Q 3525 1331 4141 1409 
L 4172 1006 
Q 3694 950 3141 936 
Q 2588 922 953 922 
L 953 4953 
L 3841 4953 
L 3841 4531 
L 1422 4531 
L 1422 3219 
L 3181 3219 
L 3181 2816 
L 1422 2816 
z
" transform="scale(0.015625)"/>
      <path id="MalgunGothic-c758" d="M 5013 -563 
L 5013 5466 
L 5478 5466 
L 5478 -563 
L 5013 -563 
z
M 2450 2131 
Q 1775 2131 1315 2540 
Q 856 2950 856 3572 
Q 856 4181 1312 4593 
Q 1769 5006 2450 5006 
Q 3128 5006 3586 4590 
Q 4044 4175 4044 3572 
Q 4044 2947 3587 2539 
Q 3131 2131 2450 2131 
z
M 2450 4594 
Q 1975 4594 1656 4306 
Q 1338 4019 1338 3572 
Q 1338 3119 1664 2833 
Q 1991 2547 2450 2547 
Q 2922 2547 3244 2833 
Q 3566 3119 3566 3572 
Q 3566 4025 3247 4309 
Q 2928 4594 2450 4594 
z
M 459 531 
L 416 934 
Q 1222 934 2667 965 
Q 4113 997 4588 1038 
L 4616 634 
Q 4125 594 2679 562 
Q 1234 531 459 531 
z
" transform="scale(0.015625)"/>
      <path id="MalgunGothic-bcc0" d="M 1038 2059 
L 1038 5184 
L 1497 5184 
L 1497 4072 
L 3366 4072 
L 3366 5184 
L 3828 5184 
L 3828 4416 
L 4947 4416 
L 4947 5466 
L 5416 5466 
L 5416 1063 
L 4947 1063 
L 4947 2669 
L 3828 2669 
L 3828 2059 
L 1038 2059 
z
M 3828 3084 
L 4947 3084 
L 4947 4000 
L 3828 4000 
L 3828 3084 
z
M 3366 3653 
L 1497 3653 
L 1497 2478 
L 3366 2478 
L 3366 3653 
z
M 1734 -391 
L 1734 1563 
L 2203 1563 
L 2203 25 
L 5606 25 
L 5606 -391 
L 1734 -391 
z
" transform="scale(0.015625)"/>
      <path id="MalgunGothic-b3d9" d="M 403 2119 
L 403 2534 
L 2963 2534 
L 2963 3316 
L 1338 3316 
L 1338 5325 
L 5081 5325 
L 5081 4909 
L 1813 4909 
L 1813 3731 
L 5153 3731 
L 5153 3316 
L 3438 3316 
L 3438 2534 
L 5997 2534 
L 5997 2119 
L 403 2119 
z
M 3200 -513 
Q 2247 -513 1740 -211 
Q 1234 91 1234 603 
Q 1234 1116 1742 1416 
Q 2250 1716 3200 1716 
Q 4150 1716 4658 1416 
Q 5166 1116 5166 603 
Q 5166 91 4659 -211 
Q 4153 -513 3200 -513 
z
M 3200 1319 
Q 2478 1319 2103 1126 
Q 1728 934 1728 603 
Q 1728 272 2104 78 
Q 2481 -116 3200 -116 
Q 3919 -116 4295 78 
Q 4672 272 4672 603 
Q 4672 934 4295 1126 
Q 3919 1319 3200 1319 
z
" transform="scale(0.015625)"/>
      <path id="MalgunGothic-c131" d="M 4947 1984 
L 4947 3781 
L 3541 3781 
L 3541 4200 
L 4947 4200 
L 4947 5466 
L 5416 5466 
L 5416 1984 
L 4947 1984 
z
M 3653 2328 
Q 3244 2550 2831 2950 
Q 2419 3350 2253 3700 
Q 2075 3303 1659 2858 
Q 1244 2413 819 2175 
L 488 2497 
Q 1134 2806 1571 3393 
Q 2009 3981 2009 4628 
L 2009 5269 
L 2463 5269 
L 2463 4628 
Q 2463 4025 2916 3472 
Q 3369 2919 3969 2669 
L 3653 2328 
z
M 3566 -475 
Q 2622 -475 2108 -148 
Q 1594 178 1594 697 
Q 1594 1216 2106 1539 
Q 2619 1863 3566 1863 
Q 4513 1863 5025 1539 
Q 5538 1216 5538 697 
Q 5538 178 5023 -148 
Q 4509 -475 3566 -475 
z
M 3566 1466 
Q 2850 1466 2472 1248 
Q 2094 1031 2094 697 
Q 2094 359 2473 143 
Q 2853 -72 3566 -72 
Q 4275 -72 4656 142 
Q 5038 356 5038 697 
Q 5038 1034 4659 1250 
Q 4281 1466 3566 1466 
z
" transform="scale(0.015625)"/>
      <path id="MalgunGothic-d0d0" d="M 5125 3519 
L 5125 2131 
L 4659 2131 
L 4659 5466 
L 5125 5466 
L 5125 3938 
L 6034 3938 
L 6034 3519 
L 5125 3519 
z
M 1300 3622 
L 1300 2894 
Q 3178 2894 3872 2956 
L 3903 2541 
Q 2859 2472 831 2472 
L 831 5153 
L 3688 5153 
L 3688 4728 
L 1300 4728 
L 1300 4025 
L 3372 4025 
L 3372 3622 
L 1300 3622 
z
M 1453 -397 
L 1453 1800 
L 5125 1800 
L 5125 -397 
L 1453 -397 
z
M 4666 1388 
L 1913 1388 
L 1913 19 
L 4666 19 
L 4666 1388 
z
" transform="scale(0.015625)"/>
      <path id="MalgunGothic-c9c0" d="M 4884 -563 
L 4884 5466 
L 5350 5466 
L 5350 -563 
L 4884 -563 
z
M 3775 909 
Q 3228 1338 2822 1881 
Q 2416 2425 2297 2859 
Q 2178 2397 1756 1814 
Q 1334 1231 825 825 
L 475 1147 
Q 1191 1638 1625 2425 
Q 2059 3213 2059 4019 
L 2059 4525 
L 716 4525 
L 716 4941 
L 3884 4941 
L 3884 4525 
L 2528 4525 
L 2528 4038 
Q 2528 3238 2968 2459 
Q 3409 1681 4097 1269 
L 3775 909 
z
" transform="scale(0.015625)"/>
     </defs>
     <use xlink:href="#MalgunGothic-d3c9"/>
     <use xlink:href="#MalgunGothic-d65c" x="100"/>
     <use xlink:href="#MalgunGothic-d654" x="200"/>
     <use xlink:href="#MalgunGothic-b41c" x="300"/>
     <use xlink:href="#MalgunGothic-20" x="400"/>
     <use xlink:href="#MalgunGothic-c628" x="435.15625"/>
     <use xlink:href="#MalgunGothic-b3c4" x="535.15625"/>
     <use xlink:href="#MalgunGothic-20" x="635.15625"/>
     <use xlink:href="#MalgunGothic-b370" x="670.3125"/>
     <use xlink:href="#MalgunGothic-c774" x="770.3125"/>
     <use xlink:href="#MalgunGothic-d130" x="870.3125"/>
     <use xlink:href="#MalgunGothic-c758" x="970.3125"/>
     <use xlink:href="#MalgunGothic-20" x="1070.3125"/>
     <use xlink:href="#MalgunGothic-bcc0" x="1105.46875"/>
     <use xlink:href="#MalgunGothic-b3d9" x="1205.46875"/>
     <use xlink:href="#MalgunGothic-c131" x="1305.46875"/>
     <use xlink:href="#MalgunGothic-20" x="1405.46875"/>
     <use xlink:href="#MalgunGothic-d0d0" x="1440.625"/>
     <use xlink:href="#MalgunGothic-c9c0" x="1540.625"/>
    </g>
   </g>
  </g>
 </g>
 <defs>
  <clipPath id="p5bf6d7e104">
   <rect x="135" y="69.12" width="837" height="443.52"/>
  </clipPath>
 </defs>
</svg>
