<?xml version="1.0" encoding="utf-8" standalone="no"?>
<!DOCTYPE svg PUBLIC "-//W3C//DTD SVG 1.1//EN"
  "http://www.w3.org/Graphics/SVG/1.1/DTD/svg11.dtd">
<svg xmlns:xlink="http://www.w3.org/1999/xlink" width="1080pt" height="576pt" viewBox="0 0 1080 576" xmlns="http://www.w3.org/2000/svg" version="1.1">
 <metadata>
  <rdf:RDF xmlns:dc="http://purl.org/dc/elements/1.1/" xmlns:cc="http://creativecommons.org/ns#" xmlns:rdf="http://www.w3.org/1999/02/22-rdf-syntax-ns#">
   <cc:Work>
    <dc:type rdf:resource="http://purl.org/dc/dcmitype/StillImage"/>
    <dc:date>2024-11-12T22:28:03.889475</dc:date>
    <dc:format>image/svg+xml</dc:format>
    <dc:creator>
     <cc:Agent>
      <dc:title>Matplotlib v3.9.2, https://matplotlib.org/</dc:title>
     </cc:Agent>
    </dc:creator>
   </cc:Work>
  </rdf:RDF>
 </metadata>
 <defs>
  <style type="text/css">*{stroke-linejoin: round; stroke-linecap: butt}</style>
 </defs>
 <g id="figure_1">
  <g id="patch_1">
   <path d="M 0 576 
L 1080 576 
L 1080 0 
L 0 0 
z
" style="fill: #ffffff"/>
  </g>
  <g id="axes_1">
   <g id="patch_2">
    <path d="M 135 512.64 
L 972 512.64 
L 972 69.12 
L 135 69.12 
z
" style="fill: #ffffff"/>
   </g>
   <g id="matplotlib.axis_1">
    <g id="xtick_1">
     <g id="text_1">
      <!-- 21 -->
      <g style="fill: #262626" transform="translate(294.453383 532.769063) scale(0.14 -0.14)">
       <defs>
        <path id="MalgunGothic-32" d="M 2519 3372 
Q 2519 3784 2275 4018 
Q 2031 4253 1628 4253 
Q 1341 4253 1053 4104 
Q 766 3956 534 3697 
L 534 4234 
Q 981 4675 1691 4675 
Q 2281 4675 2642 4334 
Q 3003 3994 3003 3416 
Q 3003 2919 2772 2545 
Q 2541 2172 1984 1775 
Q 1459 1406 1254 1215 
Q 1050 1025 967 854 
Q 884 684 884 450 
L 3116 450 
L 3116 0 
L 356 0 
L 356 225 
Q 356 603 461 870 
Q 566 1138 811 1392 
Q 1056 1647 1597 2022 
Q 2091 2363 2305 2670 
Q 2519 2978 2519 3372 
z
" transform="scale(0.015625)"/>
        <path id="MalgunGothic-31" d="M 2231 0 
L 1734 0 
L 1734 3972 
Q 1591 3828 1266 3661 
Q 941 3494 672 3428 
L 672 3959 
Q 1016 4056 1409 4275 
Q 1803 4494 2031 4700 
L 2231 4700 
L 2231 0 
z
" transform="scale(0.015625)"/>
       </defs>
       <use xlink:href="#MalgunGothic-32"/>
       <use xlink:href="#MalgunGothic-31" x="55.078125"/>
      </g>
     </g>
    </g>
    <g id="xtick_2">
     <g id="text_2">
      <!-- 22 -->
      <g style="fill: #262626" transform="translate(462.796102 532.769063) scale(0.14 -0.14)">
       <use xlink:href="#MalgunGothic-32"/>
       <use xlink:href="#MalgunGothic-32" x="55.078125"/>
      </g>
     </g>
    </g>
    <g id="xtick_3">
     <g id="text_3">
      <!-- 23 -->
      <g style="fill: #262626" transform="translate(631.138821 532.769063) scale(0.14 -0.14)">
       <defs>
        <path id="MalgunGothic-33" d="M 416 719 
Q 891 344 1478 344 
Q 1959 344 2254 587 
Q 2550 831 2550 1247 
Q 2550 2169 1253 2169 
L 872 2169 
L 872 2591 
L 1234 2591 
Q 2388 2591 2388 3453 
Q 2388 4250 1509 4250 
Q 1022 4250 594 3916 
L 594 4413 
Q 1031 4675 1634 4675 
Q 2184 4675 2539 4372 
Q 2894 4069 2894 3581 
Q 2894 2678 1972 2409 
L 1972 2400 
Q 2469 2356 2764 2053 
Q 3059 1750 3059 1300 
Q 3059 672 2604 297 
Q 2150 -78 1450 -78 
Q 806 -78 416 169 
L 416 719 
z
" transform="scale(0.015625)"/>
       </defs>
       <use xlink:href="#MalgunGothic-32"/>
       <use xlink:href="#MalgunGothic-33" x="55.078125"/>
      </g>
     </g>
    </g>
    <g id="xtick_4">
     <g id="text_4">
      <!-- 24 -->
      <g style="fill: #262626" transform="translate(799.48154 532.769063) scale(0.14 -0.14)">
       <defs>
        <path id="MalgunGothic-34" d="M 2703 4600 
L 2703 1563 
L 3309 1563 
L 3309 1113 
L 2703 1113 
L 2703 0 
L 2213 0 
L 2213 1113 
L 50 1113 
L 50 1534 
Q 728 2297 1295 3109 
Q 1863 3922 2172 4600 
L 2703 4600 
z
M 625 1563 
L 2213 1563 
L 2213 3831 
Q 1613 2788 959 1981 
L 625 1563 
z
" transform="scale(0.015625)"/>
       </defs>
       <use xlink:href="#MalgunGothic-32"/>
       <use xlink:href="#MalgunGothic-34" x="55.078125"/>
      </g>
     </g>
    </g>
    <g id="text_5">
     <!-- 온도 값 -->
     <g style="fill: #262626" transform="translate(526.6875 552.22625) scale(0.16 -0.16)">
      <defs>
       <path id="MalgunGothic-c628" d="M 403 1863 
L 403 2278 
L 2963 2278 
L 2963 2975 
Q 2150 3016 1719 3333 
Q 1288 3650 1288 4141 
Q 1288 4684 1791 5001 
Q 2294 5319 3200 5319 
Q 4106 5319 4609 5001 
Q 5113 4684 5113 4141 
Q 5113 3650 4681 3333 
Q 4250 3016 3438 2975 
L 3438 2278 
L 5997 2278 
L 5997 1863 
L 403 1863 
z
M 3200 4922 
Q 2522 4922 2147 4714 
Q 1772 4506 1772 4141 
Q 1772 3781 2145 3573 
Q 2519 3366 3200 3366 
Q 3881 3366 4254 3573 
Q 4628 3781 4628 4141 
Q 4628 4506 4253 4714 
Q 3878 4922 3200 4922 
z
M 1319 -359 
L 1319 1331 
L 1784 1331 
L 1784 56 
L 5203 56 
L 5203 -359 
L 1319 -359 
z
" transform="scale(0.015625)"/>
       <path id="MalgunGothic-b3c4" d="M 403 372 
L 403 788 
L 2963 788 
L 2963 2181 
L 1350 2181 
L 1350 4897 
L 5050 4897 
L 5050 4481 
L 1819 4481 
L 1819 2600 
L 5147 2600 
L 5147 2181 
L 3438 2181 
L 3438 788 
L 5997 788 
L 5997 372 
L 403 372 
z
" transform="scale(0.015625)"/>
       <path id="MalgunGothic-20" transform="scale(0.015625)"/>
       <path id="MalgunGothic-ac12" d="M 5119 3584 
L 5119 2375 
L 4653 2375 
L 4653 5466 
L 5119 5466 
L 5119 4000 
L 6028 4000 
L 6028 3584 
L 5119 3584 
z
M 3488 5203 
Q 3488 4372 2816 3540 
Q 2144 2709 781 2181 
L 459 2572 
Q 1553 2903 2193 3515 
Q 2834 4128 2963 4794 
L 831 4794 
L 831 5203 
L 3488 5203 
z
M 5575 -447 
Q 5266 -256 4970 84 
Q 4675 425 4575 709 
Q 4456 397 4148 50 
Q 3841 -297 3541 -447 
L 3250 -134 
Q 3756 109 4061 581 
Q 4366 1053 4366 1606 
L 4366 2022 
L 4788 2022 
L 4788 1606 
Q 4788 1066 5089 586 
Q 5391 106 5881 -134 
L 5575 -447 
z
M 1216 -441 
L 1216 1984 
L 1656 1984 
L 1656 1088 
L 2700 1088 
L 2700 1984 
L 3144 1984 
L 3144 -441 
L 1216 -441 
z
M 2700 703 
L 1656 703 
L 1656 -50 
L 2700 -50 
L 2700 703 
z
" transform="scale(0.015625)"/>
      </defs>
      <use xlink:href="#MalgunGothic-c628"/>
      <use xlink:href="#MalgunGothic-b3c4" x="100"/>
      <use xlink:href="#MalgunGothic-20" x="200"/>
      <use xlink:href="#MalgunGothic-ac12" x="235.15625"/>
     </g>
    </g>
   </g>
   <g id="matplotlib.axis_2">
    <g id="ytick_1">
     <g id="text_6">
      <!-- 0.0 -->
      <g style="fill: #262626" transform="translate(107.015625 517.954531) scale(0.14 -0.14)">
       <defs>
        <path id="MalgunGothic-30" d="M 278 2206 
Q 278 3425 675 4050 
Q 1072 4675 1819 4675 
Q 3253 4675 3253 2319 
Q 3253 1156 2854 539 
Q 2456 -78 1716 -78 
Q 1016 -78 647 520 
Q 278 1119 278 2206 
z
M 784 2231 
Q 784 344 1769 344 
Q 2747 344 2747 2259 
Q 2747 4250 1794 4250 
Q 784 4250 784 2231 
z
" transform="scale(0.015625)"/>
        <path id="MalgunGothic-2e" d="M 356 275 
Q 356 422 459 523 
Q 563 625 700 625 
Q 838 625 941 523 
Q 1044 422 1044 275 
Q 1044 138 942 33 
Q 841 -72 700 -72 
Q 559 -72 457 29 
Q 356 131 356 275 
z
" transform="scale(0.015625)"/>
       </defs>
       <use xlink:href="#MalgunGothic-30"/>
       <use xlink:href="#MalgunGothic-2e" x="55.078125"/>
       <use xlink:href="#MalgunGothic-30" x="76.953125"/>
      </g>
     </g>
    </g>
    <g id="ytick_2">
     <g id="text_7">
      <!-- 2.5 -->
      <g style="fill: #262626" transform="translate(107.015625 462.375584) scale(0.14 -0.14)">
       <defs>
        <path id="MalgunGothic-35" d="M 3072 1403 
Q 3072 722 2636 322 
Q 2200 -78 1469 -78 
Q 828 -78 516 113 
L 516 650 
Q 994 344 1475 344 
Q 1969 344 2270 630 
Q 2572 916 2572 1372 
Q 2572 1838 2265 2092 
Q 1959 2347 1381 2347 
Q 994 2347 603 2300 
L 759 4600 
L 2869 4600 
L 2869 4147 
L 1206 4147 
L 1106 2763 
Q 1347 2784 1547 2784 
Q 2263 2784 2667 2414 
Q 3072 2044 3072 1403 
z
" transform="scale(0.015625)"/>
       </defs>
       <use xlink:href="#MalgunGothic-32"/>
       <use xlink:href="#MalgunGothic-2e" x="55.078125"/>
       <use xlink:href="#MalgunGothic-35" x="76.953125"/>
      </g>
     </g>
    </g>
    <g id="ytick_3">
     <g id="text_8">
      <!-- 5.0 -->
      <g style="fill: #262626" transform="translate(107.015625 406.796637) scale(0.14 -0.14)">
       <use xlink:href="#MalgunGothic-35"/>
       <use xlink:href="#MalgunGothic-2e" x="55.078125"/>
       <use xlink:href="#MalgunGothic-30" x="76.953125"/>
      </g>
     </g>
    </g>
    <g id="ytick_4">
     <g id="text_9">
      <!-- 7.5 -->
      <g style="fill: #262626" transform="translate(107.015625 351.217689) scale(0.14 -0.14)">
       <defs>
        <path id="MalgunGothic-37" d="M 3213 4297 
Q 2478 3006 2064 1918 
Q 1650 831 1550 0 
L 1009 0 
Q 1084 531 1290 1176 
Q 1497 1822 1815 2537 
Q 2134 3253 2631 4147 
L 291 4147 
L 291 4600 
L 3213 4600 
L 3213 4297 
z
" transform="scale(0.015625)"/>
       </defs>
       <use xlink:href="#MalgunGothic-37"/>
       <use xlink:href="#MalgunGothic-2e" x="55.078125"/>
       <use xlink:href="#MalgunGothic-35" x="76.953125"/>
      </g>
     </g>
    </g>
    <g id="ytick_5">
     <g id="text_10">
      <!-- 10.0 -->
      <g style="fill: #262626" transform="translate(99.304688 295.638742) scale(0.14 -0.14)">
       <use xlink:href="#MalgunGothic-31"/>
       <use xlink:href="#MalgunGothic-30" x="55.078125"/>
       <use xlink:href="#MalgunGothic-2e" x="110.15625"/>
       <use xlink:href="#MalgunGothic-30" x="132.03125"/>
      </g>
     </g>
    </g>
    <g id="ytick_6">
     <g id="text_11">
      <!-- 12.5 -->
      <g style="fill: #262626" transform="translate(99.304688 240.059794) scale(0.14 -0.14)">
       <use xlink:href="#MalgunGothic-31"/>
       <use xlink:href="#MalgunGothic-32" x="55.078125"/>
       <use xlink:href="#MalgunGothic-2e" x="110.15625"/>
       <use xlink:href="#MalgunGothic-35" x="132.03125"/>
      </g>
     </g>
    </g>
    <g id="ytick_7">
     <g id="text_12">
      <!-- 15.0 -->
      <g style="fill: #262626" transform="translate(99.304688 184.480847) scale(0.14 -0.14)">
       <use xlink:href="#MalgunGothic-31"/>
       <use xlink:href="#MalgunGothic-35" x="55.078125"/>
       <use xlink:href="#MalgunGothic-2e" x="110.15625"/>
       <use xlink:href="#MalgunGothic-30" x="132.03125"/>
      </g>
     </g>
    </g>
    <g id="ytick_8">
     <g id="text_13">
      <!-- 17.5 -->
      <g style="fill: #262626" transform="translate(99.304688 128.9019) scale(0.14 -0.14)">
       <use xlink:href="#MalgunGothic-31"/>
       <use xlink:href="#MalgunGothic-37" x="55.078125"/>
       <use xlink:href="#MalgunGothic-2e" x="110.15625"/>
       <use xlink:href="#MalgunGothic-35" x="132.03125"/>
      </g>
     </g>
    </g>
    <g id="text_14">
     <!-- 빈도수 -->
     <g style="fill: #262626" transform="translate(91.522188 314.88) rotate(-90) scale(0.16 -0.16)">
      <defs>
       <path id="MalgunGothic-be48" d="M 4947 1081 
L 4947 5466 
L 5416 5466 
L 5416 1081 
L 4947 1081 
z
M 1038 2216 
L 1038 5178 
L 1497 5178 
L 1497 4084 
L 3359 4084 
L 3359 5178 
L 3822 5178 
L 3822 2216 
L 1038 2216 
z
M 3359 3669 
L 1497 3669 
L 1497 2625 
L 3359 2625 
L 3359 3669 
z
M 1703 -372 
L 1703 1528 
L 2169 1528 
L 2169 44 
L 5575 44 
L 5575 -372 
L 1703 -372 
z
" transform="scale(0.015625)"/>
       <path id="MalgunGothic-c218" d="M 5491 2994 
Q 4750 3097 4078 3498 
Q 3406 3900 3200 4275 
Q 2975 3891 2309 3491 
Q 1644 3091 922 2956 
L 634 3347 
Q 1559 3450 2261 3942 
Q 2963 4434 2963 5013 
L 2963 5275 
L 3431 5275 
L 3431 5013 
Q 3431 4431 4118 3948 
Q 4806 3466 5766 3378 
L 5491 2994 
z
M 3431 1838 
L 3431 -563 
L 2963 -563 
L 2963 1838 
L 403 1838 
L 403 2253 
L 5997 2253 
L 5997 1838 
L 3431 1838 
z
" transform="scale(0.015625)"/>
      </defs>
      <use xlink:href="#MalgunGothic-be48"/>
      <use xlink:href="#MalgunGothic-b3c4" x="100"/>
      <use xlink:href="#MalgunGothic-c218" x="200"/>
     </g>
    </g>
   </g>
   <g id="patch_3">
    <path d="M 135 512.64 
L 162.9 512.64 
L 162.9 156.934737 
L 135 156.934737 
z
" clip-path="url(#pf1a6e4f014)" style="fill: #4bc0c0; fill-opacity: 0.5; stroke: #000000; stroke-linejoin: miter"/>
   </g>
   <g id="patch_4">
    <path d="M 162.9 512.64 
L 190.8 512.64 
L 190.8 334.787368 
L 162.9 334.787368 
z
" clip-path="url(#pf1a6e4f014)" style="fill: #4bc0c0; fill-opacity: 0.5; stroke: #000000; stroke-linejoin: miter"/>
   </g>
   <g id="patch_5">
    <path d="M 190.8 512.64 
L 218.7 512.64 
L 218.7 290.324211 
L 190.8 290.324211 
z
" clip-path="url(#pf1a6e4f014)" style="fill: #4bc0c0; fill-opacity: 0.5; stroke: #000000; stroke-linejoin: miter"/>
   </g>
   <g id="patch_6">
    <path d="M 218.7 512.64 
L 246.6 512.64 
L 246.6 290.324211 
L 218.7 290.324211 
z
" clip-path="url(#pf1a6e4f014)" style="fill: #4bc0c0; fill-opacity: 0.5; stroke: #000000; stroke-linejoin: miter"/>
   </g>
   <g id="patch_7">
    <path d="M 246.6 512.64 
L 274.5 512.64 
L 274.5 179.166316 
L 246.6 179.166316 
z
" clip-path="url(#pf1a6e4f014)" style="fill: #4bc0c0; fill-opacity: 0.5; stroke: #000000; stroke-linejoin: miter"/>
   </g>
   <g id="patch_8">
    <path d="M 274.5 512.64 
L 302.4 512.64 
L 302.4 312.555789 
L 274.5 312.555789 
z
" clip-path="url(#pf1a6e4f014)" style="fill: #4bc0c0; fill-opacity: 0.5; stroke: #000000; stroke-linejoin: miter"/>
   </g>
   <g id="patch_9">
    <path d="M 302.4 512.64 
L 330.3 512.64 
L 330.3 134.703158 
L 302.4 134.703158 
z
" clip-path="url(#pf1a6e4f014)" style="fill: #4bc0c0; fill-opacity: 0.5; stroke: #000000; stroke-linejoin: miter"/>
   </g>
   <g id="patch_10">
    <path d="M 330.3 512.64 
L 358.2 512.64 
L 358.2 334.787368 
L 330.3 334.787368 
z
" clip-path="url(#pf1a6e4f014)" style="fill: #4bc0c0; fill-opacity: 0.5; stroke: #000000; stroke-linejoin: miter"/>
   </g>
   <g id="patch_11">
    <path d="M 358.2 512.64 
L 386.1 512.64 
L 386.1 290.324211 
L 358.2 290.324211 
z
" clip-path="url(#pf1a6e4f014)" style="fill: #4bc0c0; fill-opacity: 0.5; stroke: #000000; stroke-linejoin: miter"/>
   </g>
   <g id="patch_12">
    <path d="M 386.1 512.64 
L 414 512.64 
L 414 312.555789 
L 386.1 312.555789 
z
" clip-path="url(#pf1a6e4f014)" style="fill: #4bc0c0; fill-opacity: 0.5; stroke: #000000; stroke-linejoin: miter"/>
   </g>
   <g id="patch_13">
    <path d="M 414 512.64 
L 441.9 512.64 
L 441.9 245.861053 
L 414 245.861053 
z
" clip-path="url(#pf1a6e4f014)" style="fill: #4bc0c0; fill-opacity: 0.5; stroke: #000000; stroke-linejoin: miter"/>
   </g>
   <g id="patch_14">
    <path d="M 441.9 512.64 
L 469.8 512.64 
L 469.8 379.250526 
L 441.9 379.250526 
z
" clip-path="url(#pf1a6e4f014)" style="fill: #4bc0c0; fill-opacity: 0.5; stroke: #000000; stroke-linejoin: miter"/>
   </g>
   <g id="patch_15">
    <path d="M 469.8 512.64 
L 497.7 512.64 
L 497.7 134.703158 
L 469.8 134.703158 
z
" clip-path="url(#pf1a6e4f014)" style="fill: #4bc0c0; fill-opacity: 0.5; stroke: #000000; stroke-linejoin: miter"/>
   </g>
   <g id="patch_16">
    <path d="M 497.7 512.64 
L 525.6 512.64 
L 525.6 290.324211 
L 497.7 290.324211 
z
" clip-path="url(#pf1a6e4f014)" style="fill: #4bc0c0; fill-opacity: 0.5; stroke: #000000; stroke-linejoin: miter"/>
   </g>
   <g id="patch_17">
    <path d="M 525.6 512.64 
L 553.5 512.64 
L 553.5 268.092632 
L 525.6 268.092632 
z
" clip-path="url(#pf1a6e4f014)" style="fill: #4bc0c0; fill-opacity: 0.5; stroke: #000000; stroke-linejoin: miter"/>
   </g>
   <g id="patch_18">
    <path d="M 553.5 512.64 
L 581.4 512.64 
L 581.4 357.018947 
L 553.5 357.018947 
z
" clip-path="url(#pf1a6e4f014)" style="fill: #4bc0c0; fill-opacity: 0.5; stroke: #000000; stroke-linejoin: miter"/>
   </g>
   <g id="patch_19">
    <path d="M 581.4 512.64 
L 609.3 512.64 
L 609.3 245.861053 
L 581.4 245.861053 
z
" clip-path="url(#pf1a6e4f014)" style="fill: #4bc0c0; fill-opacity: 0.5; stroke: #000000; stroke-linejoin: miter"/>
   </g>
   <g id="patch_20">
    <path d="M 609.3 512.64 
L 637.2 512.64 
L 637.2 312.555789 
L 609.3 312.555789 
z
" clip-path="url(#pf1a6e4f014)" style="fill: #4bc0c0; fill-opacity: 0.5; stroke: #000000; stroke-linejoin: miter"/>
   </g>
   <g id="patch_21">
    <path d="M 637.2 512.64 
L 665.1 512.64 
L 665.1 268.092632 
L 637.2 268.092632 
z
" clip-path="url(#pf1a6e4f014)" style="fill: #4bc0c0; fill-opacity: 0.5; stroke: #000000; stroke-linejoin: miter"/>
   </g>
   <g id="patch_22">
    <path d="M 665.1 512.64 
L 693 512.64 
L 693 334.787368 
L 665.1 334.787368 
z
" clip-path="url(#pf1a6e4f014)" style="fill: #4bc0c0; fill-opacity: 0.5; stroke: #000000; stroke-linejoin: miter"/>
   </g>
   <g id="patch_23">
    <path d="M 693 512.64 
L 720.9 512.64 
L 720.9 223.629474 
L 693 223.629474 
z
" clip-path="url(#pf1a6e4f014)" style="fill: #4bc0c0; fill-opacity: 0.5; stroke: #000000; stroke-linejoin: miter"/>
   </g>
   <g id="patch_24">
    <path d="M 720.9 512.64 
L 748.8 512.64 
L 748.8 401.482105 
L 720.9 401.482105 
z
" clip-path="url(#pf1a6e4f014)" style="fill: #4bc0c0; fill-opacity: 0.5; stroke: #000000; stroke-linejoin: miter"/>
   </g>
   <g id="patch_25">
    <path d="M 748.8 512.64 
L 776.7 512.64 
L 776.7 379.250526 
L 748.8 379.250526 
z
" clip-path="url(#pf1a6e4f014)" style="fill: #4bc0c0; fill-opacity: 0.5; stroke: #000000; stroke-linejoin: miter"/>
   </g>
   <g id="patch_26">
    <path d="M 776.7 512.64 
L 804.6 512.64 
L 804.6 223.629474 
L 776.7 223.629474 
z
" clip-path="url(#pf1a6e4f014)" style="fill: #4bc0c0; fill-opacity: 0.5; stroke: #000000; stroke-linejoin: miter"/>
   </g>
   <g id="patch_27">
    <path d="M 804.6 512.64 
L 832.5 512.64 
L 832.5 90.24 
L 804.6 90.24 
z
" clip-path="url(#pf1a6e4f014)" style="fill: #4bc0c0; fill-opacity: 0.5; stroke: #000000; stroke-linejoin: miter"/>
   </g>
   <g id="patch_28">
    <path d="M 832.5 512.64 
L 860.4 512.64 
L 860.4 245.861053 
L 832.5 245.861053 
z
" clip-path="url(#pf1a6e4f014)" style="fill: #4bc0c0; fill-opacity: 0.5; stroke: #000000; stroke-linejoin: miter"/>
   </g>
   <g id="patch_29">
    <path d="M 860.4 512.64 
L 888.3 512.64 
L 888.3 334.787368 
L 860.4 334.787368 
z
" clip-path="url(#pf1a6e4f014)" style="fill: #4bc0c0; fill-opacity: 0.5; stroke: #000000; stroke-linejoin: miter"/>
   </g>
   <g id="patch_30">
    <path d="M 888.3 512.64 
L 916.2 512.64 
L 916.2 112.471579 
L 888.3 112.471579 
z
" clip-path="url(#pf1a6e4f014)" style="fill: #4bc0c0; fill-opacity: 0.5; stroke: #000000; stroke-linejoin: miter"/>
   </g>
   <g id="patch_31">
    <path d="M 916.2 512.64 
L 944.1 512.64 
L 944.1 223.629474 
L 916.2 223.629474 
z
" clip-path="url(#pf1a6e4f014)" style="fill: #4bc0c0; fill-opacity: 0.5; stroke: #000000; stroke-linejoin: miter"/>
   </g>
   <g id="patch_32">
    <path d="M 944.1 512.64 
L 972 512.64 
L 972 201.397895 
L 944.1 201.397895 
z
" clip-path="url(#pf1a6e4f014)" style="fill: #4bc0c0; fill-opacity: 0.5; stroke: #000000; stroke-linejoin: miter"/>
   </g>
   <g id="patch_33">
    <path d="M 135 512.64 
L 135 69.12 
" style="fill: none; stroke: #262626; stroke-width: 1.25; stroke-linejoin: miter; stroke-linecap: square"/>
   </g>
   <g id="patch_34">
    <path d="M 972 512.64 
L 972 69.12 
" style="fill: none; stroke: #262626; stroke-width: 1.25; stroke-linejoin: miter; stroke-linecap: square"/>
   </g>
   <g id="patch_35">
    <path d="M 135 512.64 
L 972 512.64 
" style="fill: none; stroke: #262626; stroke-width: 1.25; stroke-linejoin: miter; stroke-linecap: square"/>
   </g>
   <g id="patch_36">
    <path d="M 135 69.12 
L 972 69.12 
" style="fill: none; stroke: #262626; stroke-width: 1.25; stroke-linejoin: miter; stroke-linecap: square"/>
   </g>
   <g id="text_15">
    <g id="patch_37">
     <path d="M 855.68625 95.7555 
L 967.23 95.7555 
L 967.23 76.608 
L 855.68625 76.608 
z
" style="fill: #ffffff; stroke: #d3d3d3; stroke-linejoin: miter"/>
    </g>
    <!-- 막대 1칸 간격: 0.17 -->
    <g transform="translate(859.28625 89.318625) scale(0.12 -0.12)">
     <defs>
      <path id="MalgunGothic-b9c9" d="M 5125 3438 
L 5125 2034 
L 4659 2034 
L 4659 5466 
L 5125 5466 
L 5125 3859 
L 6034 3859 
L 6034 3438 
L 5125 3438 
z
M 763 2425 
L 763 5197 
L 3494 5197 
L 3494 2425 
L 763 2425 
z
M 3034 4788 
L 1222 4788 
L 1222 2834 
L 3034 2834 
L 3034 4788 
z
M 4659 -563 
L 4659 1288 
L 1259 1288 
L 1259 1703 
L 5125 1703 
L 5125 -563 
L 4659 -563 
z
" transform="scale(0.015625)"/>
      <path id="MalgunGothic-b300" d="M 5069 -563 
L 5069 2572 
L 4294 2572 
L 4294 -378 
L 3834 -378 
L 3834 5344 
L 4294 5344 
L 4294 2988 
L 5069 2988 
L 5069 5466 
L 5538 5466 
L 5538 -563 
L 5069 -563 
z
M 3391 1153 
Q 2516 1063 825 1063 
L 825 4934 
L 3138 4934 
L 3138 4519 
L 1288 4519 
L 1288 1478 
L 1844 1478 
Q 2791 1478 3359 1550 
L 3391 1153 
z
" transform="scale(0.015625)"/>
      <path id="MalgunGothic-ce78" d="M 5125 3122 
L 5125 1063 
L 4659 1063 
L 4659 5466 
L 5125 5466 
L 5125 3541 
L 6034 3541 
L 6034 3122 
L 5125 3122 
z
M 3513 5100 
Q 3403 3872 2556 3011 
Q 1709 2150 794 1800 
L 469 2163 
Q 1100 2369 1650 2795 
Q 2200 3222 2478 3609 
L 744 3425 
L 588 3847 
L 2719 3988 
Q 2919 4384 2963 4678 
L 831 4678 
L 831 5100 
L 3513 5100 
z
M 1459 -325 
L 1459 1509 
L 1925 1509 
L 1925 97 
L 5294 97 
L 5294 -325 
L 1459 -325 
z
" transform="scale(0.015625)"/>
      <path id="MalgunGothic-ac04" d="M 5125 3122 
L 5125 1063 
L 4659 1063 
L 4659 5466 
L 5125 5466 
L 5125 3541 
L 6034 3541 
L 6034 3122 
L 5125 3122 
z
M 3513 5100 
Q 3403 3872 2556 3011 
Q 1709 2150 794 1800 
L 469 2163 
Q 1344 2450 2087 3172 
Q 2831 3894 2963 4678 
L 831 4678 
L 831 5100 
L 3513 5100 
z
M 1459 -325 
L 1459 1509 
L 1925 1509 
L 1925 97 
L 5294 97 
L 5294 -325 
L 1459 -325 
z
" transform="scale(0.015625)"/>
      <path id="MalgunGothic-aca9" d="M 4947 2113 
L 4947 2791 
L 3681 2791 
L 3681 3200 
L 4947 3200 
L 4947 4072 
L 3744 4072 
L 3744 4481 
L 4947 4481 
L 4947 5466 
L 5416 5466 
L 5416 2113 
L 4947 2113 
z
M 3603 5147 
Q 3603 4181 2859 3287 
Q 2116 2394 872 1913 
L 538 2278 
Q 1550 2603 2247 3284 
Q 2944 3966 3072 4728 
L 941 4728 
L 941 5147 
L 3603 5147 
z
M 4947 -563 
L 4947 1356 
L 1522 1356 
L 1522 1778 
L 5416 1778 
L 5416 -563 
L 4947 -563 
z
" transform="scale(0.015625)"/>
      <path id="MalgunGothic-3a" d="M 356 3006 
Q 356 3153 459 3254 
Q 563 3356 700 3356 
Q 838 3356 941 3254 
Q 1044 3153 1044 3006 
Q 1044 2863 942 2761 
Q 841 2659 700 2659 
Q 559 2659 457 2761 
Q 356 2863 356 3006 
z
M 356 275 
Q 356 422 459 523 
Q 563 625 700 625 
Q 838 625 941 523 
Q 1044 422 1044 275 
Q 1044 138 942 33 
Q 841 -72 700 -72 
Q 559 -72 457 29 
Q 356 131 356 275 
z
" transform="scale(0.015625)"/>
     </defs>
     <use xlink:href="#MalgunGothic-b9c9"/>
     <use xlink:href="#MalgunGothic-b300" x="100"/>
     <use xlink:href="#MalgunGothic-20" x="200"/>
     <use xlink:href="#MalgunGothic-31" x="235.15625"/>
     <use xlink:href="#MalgunGothic-ce78" x="290.234375"/>
     <use xlink:href="#MalgunGothic-20" x="390.234375"/>
     <use xlink:href="#MalgunGothic-ac04" x="425.390625"/>
     <use xlink:href="#MalgunGothic-aca9" x="525.390625"/>
     <use xlink:href="#MalgunGothic-3a" x="625.390625"/>
     <use xlink:href="#MalgunGothic-20" x="647.265625"/>
     <use xlink:href="#MalgunGothic-30" x="682.421875"/>
     <use xlink:href="#MalgunGothic-2e" x="737.5"/>
     <use xlink:href="#MalgunGothic-31" x="759.375"/>
     <use xlink:href="#MalgunGothic-37" x="814.453125"/>
    </g>
   </g>
   <g id="text_16">
    <!-- 온도 히스토그램 -->
    <g style="fill: #262626" transform="translate(487.335938 63.12) scale(0.18 -0.18)">
     <defs>
      <path id="MalgunGothic-d788" d="M 4891 -563 
L 4891 5466 
L 5356 5466 
L 5356 -563 
L 4891 -563 
z
M 531 4084 
L 531 4506 
L 2131 4506 
L 2131 5466 
L 2597 5466 
L 2597 4506 
L 4206 4506 
L 4206 4084 
L 531 4084 
z
M 2363 934 
Q 1694 934 1269 1318 
Q 844 1703 844 2272 
Q 844 2847 1269 3231 
Q 1694 3616 2369 3616 
Q 3038 3616 3464 3230 
Q 3891 2844 3891 2266 
Q 3891 1691 3464 1312 
Q 3038 934 2363 934 
z
M 2369 3219 
Q 1906 3219 1606 2939 
Q 1306 2659 1306 2272 
Q 1306 1888 1607 1609 
Q 1909 1331 2369 1331 
Q 2834 1331 3136 1611 
Q 3438 1891 3438 2272 
Q 3438 2656 3136 2937 
Q 2834 3219 2369 3219 
z
" transform="scale(0.015625)"/>
      <path id="MalgunGothic-c2a4" d="M 3194 3897 
Q 2969 3416 2328 2930 
Q 1688 2444 959 2247 
L 641 2619 
Q 1703 2841 2329 3472 
Q 2956 4103 2956 4659 
L 2956 4978 
L 3438 4978 
L 3438 4659 
Q 3438 4094 4073 3476 
Q 4709 2859 5759 2625 
L 5428 2253 
Q 4694 2481 4058 2956 
Q 3422 3431 3194 3897 
z
M 5997 447 
L 403 447 
L 403 863 
L 5997 863 
L 5997 447 
z
" transform="scale(0.015625)"/>
      <path id="MalgunGothic-d1a0" d="M 403 341 
L 403 756 
L 2963 756 
L 2963 2022 
L 1288 2022 
L 1288 4903 
L 5147 4903 
L 5147 4488 
L 1747 4488 
L 1747 3688 
L 5044 3688 
L 5044 3278 
L 1747 3278 
L 1747 2431 
L 5247 2431 
L 5247 2022 
L 3438 2022 
L 3438 756 
L 5997 756 
L 5997 341 
L 403 341 
z
" transform="scale(0.015625)"/>
      <path id="MalgunGothic-adf8" d="M 403 622 
L 403 1038 
L 4434 1038 
Q 4563 1981 4563 3053 
L 4563 4481 
L 1253 4481 
L 1253 4897 
L 5031 4897 
L 5031 3238 
Q 5031 2322 4891 1038 
L 5997 1038 
L 5997 622 
L 403 622 
z
" transform="scale(0.015625)"/>
      <path id="MalgunGothic-b7a8" d="M 5063 1997 
L 5063 3456 
L 4353 3456 
L 4353 1997 
L 3897 1997 
L 3897 5344 
L 4353 5344 
L 4353 3866 
L 5063 3866 
L 5063 5466 
L 5522 5466 
L 5522 1997 
L 5063 1997 
z
M 3481 2338 
Q 2944 2275 2564 2264 
Q 2184 2253 825 2253 
L 825 3969 
L 2644 3969 
L 2644 4800 
L 825 4800 
L 825 5216 
L 3109 5216 
L 3109 3566 
L 1294 3566 
L 1294 2663 
L 1984 2663 
Q 2859 2663 3438 2741 
L 3481 2338 
z
M 1728 -422 
L 1728 1663 
L 5522 1663 
L 5522 -422 
L 1728 -422 
z
M 5063 1247 
L 2188 1247 
L 2188 -6 
L 5063 -6 
L 5063 1247 
z
" transform="scale(0.015625)"/>
     </defs>
     <use xlink:href="#MalgunGothic-c628"/>
     <use xlink:href="#MalgunGothic-b3c4" x="100"/>
     <use xlink:href="#MalgunGothic-20" x="200"/>
     <use xlink:href="#MalgunGothic-d788" x="235.15625"/>
     <use xlink:href="#MalgunGothic-c2a4" x="335.15625"/>
     <use xlink:href="#MalgunGothic-d1a0" x="435.15625"/>
     <use xlink:href="#MalgunGothic-adf8" x="535.15625"/>
     <use xlink:href="#MalgunGothic-b7a8" x="635.15625"/>
    </g>
   </g>
  </g>
 </g>
 <defs>
  <clipPath id="pf1a6e4f014">
   <rect x="135" y="69.12" width="837" height="443.52"/>
  </clipPath>
 </defs>
</svg>
