<?xml version="1.0" encoding="utf-8" standalone="no"?>
<!DOCTYPE svg PUBLIC "-//W3C//DTD SVG 1.1//EN"
  "http://www.w3.org/Graphics/SVG/1.1/DTD/svg11.dtd">
<svg xmlns:xlink="http://www.w3.org/1999/xlink" width="1080pt" height="576pt" viewBox="0 0 1080 576" xmlns="http://www.w3.org/2000/svg" version="1.1">
 <metadata>
  <rdf:RDF xmlns:dc="http://purl.org/dc/elements/1.1/" xmlns:cc="http://creativecommons.org/ns#" xmlns:rdf="http://www.w3.org/1999/02/22-rdf-syntax-ns#">
   <cc:Work>
    <dc:type rdf:resource="http://purl.org/dc/dcmitype/StillImage"/>
    <dc:date>2024-11-12T22:28:12.593588</dc:date>
    <dc:format>image/svg+xml</dc:format>
    <dc:creator>
     <cc:Agent>
      <dc:title>Matplotlib v3.9.2, https://matplotlib.org/</dc:title>
     </cc:Agent>
    </dc:creator>
   </cc:Work>
  </rdf:RDF>
 </metadata>
 <defs>
  <style type="text/css">*{stroke-linejoin: round; stroke-linecap: butt}</style>
 </defs>
 <g id="figure_1">
  <g id="patch_1">
   <path d="M 0 576 
L 1080 576 
L 1080 0 
L 0 0 
z
" style="fill: #ffffff"/>
  </g>
  <g id="axes_1">
   <g id="patch_2">
    <path d="M 135 512.64 
L 972 512.64 
L 972 69.12 
L 135 69.12 
z
" style="fill: #ffffff"/>
   </g>
   <g id="matplotlib.axis_1">
    <g id="xtick_1">
     <g id="line2d_1">
      <path d="M 135 512.64 
L 135 69.12 
" clip-path="url(#p8c07606f34)" style="fill: none; stroke: #a9a9a9; stroke-opacity: 0.7; stroke-width: 1.5; stroke-linecap: round"/>
     </g>
     <g id="text_1">
      <!-- 0일 -->
      <g style="fill: #262626" transform="translate(124.144531 532.769063) scale(0.14 -0.14)">
       <defs>
        <path id="MalgunGothic-30" d="M 278 2206 
Q 278 3425 675 4050 
Q 1072 4675 1819 4675 
Q 3253 4675 3253 2319 
Q 3253 1156 2854 539 
Q 2456 -78 1716 -78 
Q 1016 -78 647 520 
Q 278 1119 278 2206 
z
M 784 2231 
Q 784 344 1769 344 
Q 2747 344 2747 2259 
Q 2747 4250 1794 4250 
Q 784 4250 784 2231 
z
" transform="scale(0.015625)"/>
        <path id="MalgunGothic-c77c" d="M 4947 2363 
L 4947 5466 
L 5422 5466 
L 5422 2363 
L 4947 2363 
z
M 2419 2578 
Q 1738 2578 1314 2970 
Q 891 3363 891 3969 
Q 891 4572 1314 4961 
Q 1738 5350 2419 5350 
Q 3097 5350 3523 4959 
Q 3950 4569 3950 3969 
Q 3950 3366 3522 2972 
Q 3094 2578 2419 2578 
z
M 2419 4947 
Q 1931 4947 1643 4680 
Q 1356 4413 1356 3969 
Q 1356 3522 1643 3248 
Q 1931 2975 2419 2975 
Q 2906 2975 3193 3248 
Q 3481 3522 3481 3969 
Q 3481 4413 3193 4680 
Q 2906 4947 2419 4947 
z
M 1703 -422 
L 1703 1038 
L 4959 1038 
L 4959 1613 
L 1703 1613 
L 1703 2028 
L 5422 2028 
L 5422 634 
L 2163 634 
L 2163 -6 
L 5588 -6 
L 5588 -422 
L 1703 -422 
z
" transform="scale(0.015625)"/>
       </defs>
       <use xlink:href="#MalgunGothic-30"/>
       <use xlink:href="#MalgunGothic-c77c" x="55.078125"/>
      </g>
     </g>
    </g>
    <g id="xtick_2">
     <g id="line2d_2">
      <path d="M 194.964179 512.64 
L 194.964179 69.12 
" clip-path="url(#p8c07606f34)" style="fill: none; stroke: #a9a9a9; stroke-opacity: 0.7; stroke-width: 1.5; stroke-linecap: round"/>
     </g>
     <g id="text_2">
      <!-- 1일 -->
      <g style="fill: #262626" transform="translate(184.10871 532.769063) scale(0.14 -0.14)">
       <defs>
        <path id="MalgunGothic-31" d="M 2231 0 
L 1734 0 
L 1734 3972 
Q 1591 3828 1266 3661 
Q 941 3494 672 3428 
L 672 3959 
Q 1016 4056 1409 4275 
Q 1803 4494 2031 4700 
L 2231 4700 
L 2231 0 
z
" transform="scale(0.015625)"/>
       </defs>
       <use xlink:href="#MalgunGothic-31"/>
       <use xlink:href="#MalgunGothic-c77c" x="55.078125"/>
      </g>
     </g>
    </g>
    <g id="xtick_3">
     <g id="line2d_3">
      <path d="M 254.928358 512.64 
L 254.928358 69.12 
" clip-path="url(#p8c07606f34)" style="fill: none; stroke: #a9a9a9; stroke-opacity: 0.7; stroke-width: 1.5; stroke-linecap: round"/>
     </g>
     <g id="text_3">
      <!-- 2일 -->
      <g style="fill: #262626" transform="translate(244.072889 532.769063) scale(0.14 -0.14)">
       <defs>
        <path id="MalgunGothic-32" d="M 2519 3372 
Q 2519 3784 2275 4018 
Q 2031 4253 1628 4253 
Q 1341 4253 1053 4104 
Q 766 3956 534 3697 
L 534 4234 
Q 981 4675 1691 4675 
Q 2281 4675 2642 4334 
Q 3003 3994 3003 3416 
Q 3003 2919 2772 2545 
Q 2541 2172 1984 1775 
Q 1459 1406 1254 1215 
Q 1050 1025 967 854 
Q 884 684 884 450 
L 3116 450 
L 3116 0 
L 356 0 
L 356 225 
Q 356 603 461 870 
Q 566 1138 811 1392 
Q 1056 1647 1597 2022 
Q 2091 2363 2305 2670 
Q 2519 2978 2519 3372 
z
" transform="scale(0.015625)"/>
       </defs>
       <use xlink:href="#MalgunGothic-32"/>
       <use xlink:href="#MalgunGothic-c77c" x="55.078125"/>
      </g>
     </g>
    </g>
    <g id="xtick_4">
     <g id="line2d_4">
      <path d="M 314.892537 512.64 
L 314.892537 69.12 
" clip-path="url(#p8c07606f34)" style="fill: none; stroke: #a9a9a9; stroke-opacity: 0.7; stroke-width: 1.5; stroke-linecap: round"/>
     </g>
     <g id="text_4">
      <!-- 3일 -->
      <g style="fill: #262626" transform="translate(304.037069 532.769063) scale(0.14 -0.14)">
       <defs>
        <path id="MalgunGothic-33" d="M 416 719 
Q 891 344 1478 344 
Q 1959 344 2254 587 
Q 2550 831 2550 1247 
Q 2550 2169 1253 2169 
L 872 2169 
L 872 2591 
L 1234 2591 
Q 2388 2591 2388 3453 
Q 2388 4250 1509 4250 
Q 1022 4250 594 3916 
L 594 4413 
Q 1031 4675 1634 4675 
Q 2184 4675 2539 4372 
Q 2894 4069 2894 3581 
Q 2894 2678 1972 2409 
L 1972 2400 
Q 2469 2356 2764 2053 
Q 3059 1750 3059 1300 
Q 3059 672 2604 297 
Q 2150 -78 1450 -78 
Q 806 -78 416 169 
L 416 719 
z
" transform="scale(0.015625)"/>
       </defs>
       <use xlink:href="#MalgunGothic-33"/>
       <use xlink:href="#MalgunGothic-c77c" x="55.078125"/>
      </g>
     </g>
    </g>
    <g id="xtick_5">
     <g id="line2d_5">
      <path d="M 374.856716 512.64 
L 374.856716 69.12 
" clip-path="url(#p8c07606f34)" style="fill: none; stroke: #a9a9a9; stroke-opacity: 0.7; stroke-width: 1.5; stroke-linecap: round"/>
     </g>
     <g id="text_5">
      <!-- 4일 -->
      <g style="fill: #262626" transform="translate(364.001248 532.769063) scale(0.14 -0.14)">
       <defs>
        <path id="MalgunGothic-34" d="M 2703 4600 
L 2703 1563 
L 3309 1563 
L 3309 1113 
L 2703 1113 
L 2703 0 
L 2213 0 
L 2213 1113 
L 50 1113 
L 50 1534 
Q 728 2297 1295 3109 
Q 1863 3922 2172 4600 
L 2703 4600 
z
M 625 1563 
L 2213 1563 
L 2213 3831 
Q 1613 2788 959 1981 
L 625 1563 
z
" transform="scale(0.015625)"/>
       </defs>
       <use xlink:href="#MalgunGothic-34"/>
       <use xlink:href="#MalgunGothic-c77c" x="55.078125"/>
      </g>
     </g>
    </g>
    <g id="xtick_6">
     <g id="line2d_6">
      <path d="M 434.820896 512.64 
L 434.820896 69.12 
" clip-path="url(#p8c07606f34)" style="fill: none; stroke: #a9a9a9; stroke-opacity: 0.7; stroke-width: 1.5; stroke-linecap: round"/>
     </g>
     <g id="text_6">
      <!-- 5일 -->
      <g style="fill: #262626" transform="translate(423.965427 532.769063) scale(0.14 -0.14)">
       <defs>
        <path id="MalgunGothic-35" d="M 3072 1403 
Q 3072 722 2636 322 
Q 2200 -78 1469 -78 
Q 828 -78 516 113 
L 516 650 
Q 994 344 1475 344 
Q 1969 344 2270 630 
Q 2572 916 2572 1372 
Q 2572 1838 2265 2092 
Q 1959 2347 1381 2347 
Q 994 2347 603 2300 
L 759 4600 
L 2869 4600 
L 2869 4147 
L 1206 4147 
L 1106 2763 
Q 1347 2784 1547 2784 
Q 2263 2784 2667 2414 
Q 3072 2044 3072 1403 
z
" transform="scale(0.015625)"/>
       </defs>
       <use xlink:href="#MalgunGothic-35"/>
       <use xlink:href="#MalgunGothic-c77c" x="55.078125"/>
      </g>
     </g>
    </g>
    <g id="xtick_7">
     <g id="line2d_7">
      <path d="M 494.785075 512.64 
L 494.785075 69.12 
" clip-path="url(#p8c07606f34)" style="fill: none; stroke: #a9a9a9; stroke-opacity: 0.7; stroke-width: 1.5; stroke-linecap: round"/>
     </g>
     <g id="text_7">
      <!-- 6일 -->
      <g style="fill: #262626" transform="translate(483.929606 532.769063) scale(0.14 -0.14)">
       <defs>
        <path id="MalgunGothic-36" d="M 2981 4069 
Q 2619 4250 2228 4250 
Q 1591 4250 1228 3689 
Q 866 3128 869 2213 
L 884 2213 
Q 1203 2872 1938 2872 
Q 2547 2872 2903 2478 
Q 3259 2084 3259 1450 
Q 3259 797 2857 359 
Q 2456 -78 1825 -78 
Q 1116 -78 736 478 
Q 356 1034 356 2019 
Q 356 3181 847 3928 
Q 1338 4675 2222 4675 
Q 2700 4675 2981 4544 
L 2981 4069 
z
M 906 1506 
Q 906 1022 1165 683 
Q 1425 344 1844 344 
Q 2247 344 2498 645 
Q 2750 947 2750 1388 
Q 2750 1888 2509 2167 
Q 2269 2447 1838 2447 
Q 1444 2447 1175 2173 
Q 906 1900 906 1506 
z
" transform="scale(0.015625)"/>
       </defs>
       <use xlink:href="#MalgunGothic-36"/>
       <use xlink:href="#MalgunGothic-c77c" x="55.078125"/>
      </g>
     </g>
    </g>
    <g id="xtick_8">
     <g id="line2d_8">
      <path d="M 554.749254 512.64 
L 554.749254 69.12 
" clip-path="url(#p8c07606f34)" style="fill: none; stroke: #a9a9a9; stroke-opacity: 0.7; stroke-width: 1.5; stroke-linecap: round"/>
     </g>
     <g id="text_8">
      <!-- 7일 -->
      <g style="fill: #262626" transform="translate(543.893785 532.769063) scale(0.14 -0.14)">
       <defs>
        <path id="MalgunGothic-37" d="M 3213 4297 
Q 2478 3006 2064 1918 
Q 1650 831 1550 0 
L 1009 0 
Q 1084 531 1290 1176 
Q 1497 1822 1815 2537 
Q 2134 3253 2631 4147 
L 291 4147 
L 291 4600 
L 3213 4600 
L 3213 4297 
z
" transform="scale(0.015625)"/>
       </defs>
       <use xlink:href="#MalgunGothic-37"/>
       <use xlink:href="#MalgunGothic-c77c" x="55.078125"/>
      </g>
     </g>
    </g>
    <g id="xtick_9">
     <g id="line2d_9">
      <path d="M 614.713433 512.64 
L 614.713433 69.12 
" clip-path="url(#p8c07606f34)" style="fill: none; stroke: #a9a9a9; stroke-opacity: 0.7; stroke-width: 1.5; stroke-linecap: round"/>
     </g>
     <g id="text_9">
      <!-- 8일 -->
      <g style="fill: #262626" transform="translate(603.857964 532.769063) scale(0.14 -0.14)">
       <defs>
        <path id="MalgunGothic-38" d="M 303 1281 
Q 303 1669 539 2011 
Q 775 2353 1153 2494 
Q 856 2647 675 2915 
Q 494 3184 494 3500 
Q 494 3828 659 4098 
Q 825 4369 1122 4522 
Q 1419 4675 1778 4675 
Q 2334 4675 2700 4342 
Q 3066 4009 3066 3500 
Q 3066 3181 2881 2914 
Q 2697 2647 2413 2494 
Q 2788 2350 3022 2009 
Q 3256 1669 3256 1281 
Q 3256 672 2843 297 
Q 2431 -78 1778 -78 
Q 1131 -78 717 301 
Q 303 681 303 1281 
z
M 809 1328 
Q 809 878 1081 611 
Q 1353 344 1781 344 
Q 2206 344 2482 619 
Q 2759 894 2759 1328 
Q 2759 1731 2482 2011 
Q 2206 2291 1781 2291 
Q 1372 2291 1090 2020 
Q 809 1750 809 1328 
z
M 1003 3459 
Q 1003 3125 1234 2900 
Q 1466 2675 1781 2675 
Q 2097 2675 2330 2900 
Q 2563 3125 2563 3459 
Q 2563 3803 2341 4026 
Q 2119 4250 1781 4250 
Q 1450 4250 1226 4029 
Q 1003 3809 1003 3459 
z
" transform="scale(0.015625)"/>
       </defs>
       <use xlink:href="#MalgunGothic-38"/>
       <use xlink:href="#MalgunGothic-c77c" x="55.078125"/>
      </g>
     </g>
    </g>
    <g id="xtick_10">
     <g id="line2d_10">
      <path d="M 674.677612 512.64 
L 674.677612 69.12 
" clip-path="url(#p8c07606f34)" style="fill: none; stroke: #a9a9a9; stroke-opacity: 0.7; stroke-width: 1.5; stroke-linecap: round"/>
     </g>
     <g id="text_10">
      <!-- 9일 -->
      <g style="fill: #262626" transform="translate(663.822143 532.769063) scale(0.14 -0.14)">
       <defs>
        <path id="MalgunGothic-39" d="M 556 563 
Q 941 344 1366 344 
Q 1994 344 2347 855 
Q 2700 1366 2700 2313 
Q 2694 2306 2688 2313 
Q 2388 1713 1653 1713 
Q 1059 1713 682 2120 
Q 306 2528 306 3144 
Q 306 3806 711 4240 
Q 1116 4675 1772 4675 
Q 2466 4675 2833 4131 
Q 3200 3588 3200 2578 
Q 3200 1319 2717 620 
Q 2234 -78 1344 -78 
Q 881 -78 556 78 
L 556 563 
z
M 813 3219 
Q 813 2741 1063 2450 
Q 1313 2159 1759 2159 
Q 2147 2159 2406 2417 
Q 2666 2675 2666 3047 
Q 2666 3556 2411 3903 
Q 2156 4250 1725 4250 
Q 1322 4250 1067 3948 
Q 813 3647 813 3219 
z
" transform="scale(0.015625)"/>
       </defs>
       <use xlink:href="#MalgunGothic-39"/>
       <use xlink:href="#MalgunGothic-c77c" x="55.078125"/>
      </g>
     </g>
    </g>
    <g id="xtick_11">
     <g id="line2d_11">
      <path d="M 734.641791 512.64 
L 734.641791 69.12 
" clip-path="url(#p8c07606f34)" style="fill: none; stroke: #a9a9a9; stroke-opacity: 0.7; stroke-width: 1.5; stroke-linecap: round"/>
     </g>
     <g id="text_11">
      <!-- 10일 -->
      <g style="fill: #262626" transform="translate(719.930854 532.769063) scale(0.14 -0.14)">
       <use xlink:href="#MalgunGothic-31"/>
       <use xlink:href="#MalgunGothic-30" x="55.078125"/>
       <use xlink:href="#MalgunGothic-c77c" x="110.15625"/>
      </g>
     </g>
    </g>
    <g id="xtick_12">
     <g id="line2d_12">
      <path d="M 794.60597 512.64 
L 794.60597 69.12 
" clip-path="url(#p8c07606f34)" style="fill: none; stroke: #a9a9a9; stroke-opacity: 0.7; stroke-width: 1.5; stroke-linecap: round"/>
     </g>
     <g id="text_12">
      <!-- 11일 -->
      <g style="fill: #262626" transform="translate(779.895033 532.769063) scale(0.14 -0.14)">
       <use xlink:href="#MalgunGothic-31"/>
       <use xlink:href="#MalgunGothic-31" x="55.078125"/>
       <use xlink:href="#MalgunGothic-c77c" x="110.15625"/>
      </g>
     </g>
    </g>
    <g id="xtick_13">
     <g id="line2d_13">
      <path d="M 854.570149 512.64 
L 854.570149 69.12 
" clip-path="url(#p8c07606f34)" style="fill: none; stroke: #a9a9a9; stroke-opacity: 0.7; stroke-width: 1.5; stroke-linecap: round"/>
     </g>
     <g id="text_13">
      <!-- 12일 -->
      <g style="fill: #262626" transform="translate(839.859212 532.769063) scale(0.14 -0.14)">
       <use xlink:href="#MalgunGothic-31"/>
       <use xlink:href="#MalgunGothic-32" x="55.078125"/>
       <use xlink:href="#MalgunGothic-c77c" x="110.15625"/>
      </g>
     </g>
    </g>
    <g id="xtick_14">
     <g id="line2d_14">
      <path d="M 914.534328 512.64 
L 914.534328 69.12 
" clip-path="url(#p8c07606f34)" style="fill: none; stroke: #a9a9a9; stroke-opacity: 0.7; stroke-width: 1.5; stroke-linecap: round"/>
     </g>
     <g id="text_14">
      <!-- 13일 -->
      <g style="fill: #262626" transform="translate(899.823391 532.769063) scale(0.14 -0.14)">
       <use xlink:href="#MalgunGothic-31"/>
       <use xlink:href="#MalgunGothic-33" x="55.078125"/>
       <use xlink:href="#MalgunGothic-c77c" x="110.15625"/>
      </g>
     </g>
    </g>
    <g id="text_15">
     <!-- 상대 시간(일) -->
     <g style="fill: #262626" transform="translate(505.8125 552.57125) scale(0.16 -0.16)">
      <defs>
       <path id="MalgunGothic-c0c1" d="M 5125 3391 
L 5125 1991 
L 4659 1991 
L 4659 5466 
L 5125 5466 
L 5125 3816 
L 6034 3816 
L 6034 3391 
L 5125 3391 
z
M 3603 2316 
Q 3206 2528 2778 2934 
Q 2350 3341 2188 3681 
Q 2022 3291 1609 2852 
Q 1197 2413 750 2163 
L 409 2484 
Q 1072 2806 1512 3397 
Q 1953 3988 1953 4628 
L 1953 5259 
L 2400 5259 
L 2400 4628 
Q 2400 4025 2845 3472 
Q 3291 2919 3909 2656 
L 3603 2316 
z
M 3263 -513 
Q 2322 -513 1811 -186 
Q 1300 141 1300 659 
Q 1300 1175 1812 1500 
Q 2325 1825 3263 1825 
Q 4203 1825 4715 1501 
Q 5228 1178 5228 659 
Q 5228 138 4717 -187 
Q 4206 -513 3263 -513 
z
M 3263 1428 
Q 2563 1428 2180 1215 
Q 1797 1003 1797 659 
Q 1797 309 2181 96 
Q 2566 -116 3263 -116 
Q 3969 -116 4353 98 
Q 4738 313 4738 659 
Q 4738 1000 4353 1214 
Q 3969 1428 3263 1428 
z
" transform="scale(0.015625)"/>
       <path id="MalgunGothic-b300" d="M 5069 -563 
L 5069 2572 
L 4294 2572 
L 4294 -378 
L 3834 -378 
L 3834 5344 
L 4294 5344 
L 4294 2988 
L 5069 2988 
L 5069 5466 
L 5538 5466 
L 5538 -563 
L 5069 -563 
z
M 3391 1153 
Q 2516 1063 825 1063 
L 825 4934 
L 3138 4934 
L 3138 4519 
L 1288 4519 
L 1288 1478 
L 1844 1478 
Q 2791 1478 3359 1550 
L 3391 1153 
z
" transform="scale(0.015625)"/>
       <path id="MalgunGothic-20" transform="scale(0.015625)"/>
       <path id="MalgunGothic-c2dc" d="M 4947 -563 
L 4947 5466 
L 5416 5466 
L 5416 -563 
L 4947 -563 
z
M 3769 966 
Q 3263 1353 2820 1939 
Q 2378 2525 2259 2950 
Q 2116 2463 1687 1872 
Q 1259 1281 756 891 
L 397 1203 
Q 1141 1703 1581 2479 
Q 2022 3256 2022 4063 
L 2022 5050 
L 2484 5050 
L 2484 4084 
Q 2484 3303 2920 2556 
Q 3356 1809 4097 1331 
L 3769 966 
z
" transform="scale(0.015625)"/>
       <path id="MalgunGothic-ac04" d="M 5125 3122 
L 5125 1063 
L 4659 1063 
L 4659 5466 
L 5125 5466 
L 5125 3541 
L 6034 3541 
L 6034 3122 
L 5125 3122 
z
M 3513 5100 
Q 3403 3872 2556 3011 
Q 1709 2150 794 1800 
L 469 2163 
Q 1344 2450 2087 3172 
Q 2831 3894 2963 4678 
L 831 4678 
L 831 5100 
L 3513 5100 
z
M 1459 -325 
L 1459 1509 
L 1925 1509 
L 1925 97 
L 5294 97 
L 5294 -325 
L 1459 -325 
z
" transform="scale(0.015625)"/>
       <path id="MalgunGothic-28" d="M 1438 -1044 
Q 447 88 447 1753 
Q 447 3431 1438 4600 
L 1888 4600 
Q 878 3372 878 1759 
Q 878 153 1881 -1044 
L 1438 -1044 
z
" transform="scale(0.015625)"/>
       <path id="MalgunGothic-29" d="M 81 -1044 
Q 1081 150 1081 1759 
Q 1081 3378 72 4600 
L 525 4600 
Q 1522 3431 1522 1753 
Q 1522 88 525 -1044 
L 81 -1044 
z
" transform="scale(0.015625)"/>
      </defs>
      <use xlink:href="#MalgunGothic-c0c1"/>
      <use xlink:href="#MalgunGothic-b300" x="100"/>
      <use xlink:href="#MalgunGothic-20" x="200"/>
      <use xlink:href="#MalgunGothic-c2dc" x="235.15625"/>
      <use xlink:href="#MalgunGothic-ac04" x="335.15625"/>
      <use xlink:href="#MalgunGothic-28" x="435.15625"/>
      <use xlink:href="#MalgunGothic-c77c" x="465.625"/>
      <use xlink:href="#MalgunGothic-29" x="565.625"/>
     </g>
    </g>
   </g>
   <g id="matplotlib.axis_2">
    <g id="ytick_1">
     <g id="text_16">
      <!-- 20 -->
      <g style="fill: #262626" transform="translate(110.078125 498.36219) scale(0.14 -0.14)">
       <use xlink:href="#MalgunGothic-32"/>
       <use xlink:href="#MalgunGothic-30" x="55.078125"/>
      </g>
     </g>
    </g>
    <g id="ytick_2">
     <g id="text_17">
      <!-- 21 -->
      <g style="fill: #262626" transform="translate(110.078125 417.268063) scale(0.14 -0.14)">
       <use xlink:href="#MalgunGothic-32"/>
       <use xlink:href="#MalgunGothic-31" x="55.078125"/>
      </g>
     </g>
    </g>
    <g id="ytick_3">
     <g id="text_18">
      <!-- 22 -->
      <g style="fill: #262626" transform="translate(110.078125 336.173936) scale(0.14 -0.14)">
       <use xlink:href="#MalgunGothic-32"/>
       <use xlink:href="#MalgunGothic-32" x="55.078125"/>
      </g>
     </g>
    </g>
    <g id="ytick_4">
     <g id="text_19">
      <!-- 23 -->
      <g style="fill: #262626" transform="translate(110.078125 255.079809) scale(0.14 -0.14)">
       <use xlink:href="#MalgunGothic-32"/>
       <use xlink:href="#MalgunGothic-33" x="55.078125"/>
      </g>
     </g>
    </g>
    <g id="ytick_5">
     <g id="text_20">
      <!-- 24 -->
      <g style="fill: #262626" transform="translate(110.078125 173.985682) scale(0.14 -0.14)">
       <use xlink:href="#MalgunGothic-32"/>
       <use xlink:href="#MalgunGothic-34" x="55.078125"/>
      </g>
     </g>
    </g>
    <g id="ytick_6">
     <g id="text_21">
      <!-- 25 -->
      <g style="fill: #262626" transform="translate(110.078125 92.891555) scale(0.14 -0.14)">
       <use xlink:href="#MalgunGothic-32"/>
       <use xlink:href="#MalgunGothic-35" x="55.078125"/>
      </g>
     </g>
    </g>
    <g id="text_22">
     <!-- 온도 -->
     <g style="fill: #262626" transform="translate(102.295625 306.88) rotate(-90) scale(0.16 -0.16)">
      <defs>
       <path id="MalgunGothic-c628" d="M 403 1863 
L 403 2278 
L 2963 2278 
L 2963 2975 
Q 2150 3016 1719 3333 
Q 1288 3650 1288 4141 
Q 1288 4684 1791 5001 
Q 2294 5319 3200 5319 
Q 4106 5319 4609 5001 
Q 5113 4684 5113 4141 
Q 5113 3650 4681 3333 
Q 4250 3016 3438 2975 
L 3438 2278 
L 5997 2278 
L 5997 1863 
L 403 1863 
z
M 3200 4922 
Q 2522 4922 2147 4714 
Q 1772 4506 1772 4141 
Q 1772 3781 2145 3573 
Q 2519 3366 3200 3366 
Q 3881 3366 4254 3573 
Q 4628 3781 4628 4141 
Q 4628 4506 4253 4714 
Q 3878 4922 3200 4922 
z
M 1319 -359 
L 1319 1331 
L 1784 1331 
L 1784 56 
L 5203 56 
L 5203 -359 
L 1319 -359 
z
" transform="scale(0.015625)"/>
       <path id="MalgunGothic-b3c4" d="M 403 372 
L 403 788 
L 2963 788 
L 2963 2181 
L 1350 2181 
L 1350 4897 
L 5050 4897 
L 5050 4481 
L 1819 4481 
L 1819 2600 
L 5147 2600 
L 5147 2181 
L 3438 2181 
L 3438 788 
L 5997 788 
L 5997 372 
L 403 372 
z
" transform="scale(0.015625)"/>
      </defs>
      <use xlink:href="#MalgunGothic-c628"/>
      <use xlink:href="#MalgunGothic-b3c4" x="100"/>
     </g>
    </g>
   </g>
   <g id="line2d_15">
    <path d="M 135 97.551601 
L 137.498507 241.1693 
L 139.997015 114.338085 
L 142.495522 242.953371 
L 144.99403 223.49078 
L 147.492537 158.615479 
L 149.991045 357.052808 
L 152.489552 365.16222 
L 154.98806 132.827546 
L 157.486567 436.606146 
L 159.985075 327.534545 
L 162.483582 364.837844 
L 164.98209 162.994562 
L 167.480597 337.752405 
L 169.979104 404.168496 
L 172.477612 199.486919 
L 174.976119 476.342269 
L 177.474627 483.559646 
L 179.973134 165.103009 
L 182.471642 426.874851 
L 184.970149 356.809525 
L 187.468657 294.772518 
L 189.967164 420.630603 
L 192.465672 404.411778 
L 194.964179 466.610973 
L 197.462687 410.169461 
L 199.961194 306.450072 
L 202.459701 120.825615 
L 204.958209 301.341142 
L 207.456716 250.981689 
L 209.955224 186.755141 
L 212.453731 117.257474 
L 214.952239 401.573484 
L 217.450746 389.977023 
L 219.949254 307.504296 
L 222.447761 451.203089 
L 224.946269 483.397458 
L 227.444776 353.403572 
L 229.943284 281.310893 
L 232.441791 128.529558 
L 234.940299 186.511858 
L 237.438806 308.96399 
L 239.937313 373.758198 
L 242.435821 149.938407 
L 244.934328 272.79601 
L 247.432836 120.095768 
L 249.931343 325.507192 
L 252.429851 142.477747 
L 254.928358 237.357876 
L 257.426866 458.014996 
L 259.925373 479.586034 
L 262.423881 200.622237 
L 264.922388 371.649751 
L 267.420896 185.214352 
L 269.919403 422.252486 
L 272.41791 208.245084 
L 274.916418 211.326661 
L 277.414925 321.371392 
L 279.913433 290.312341 
L 282.41194 222.436557 
L 284.910448 491.831247 
L 287.408955 364.026903 
L 289.907463 486.884505 
L 292.40597 381.948705 
L 294.904478 333.535511 
L 297.402985 487.614352 
L 299.901493 457.122961 
L 302.4 271.498504 
L 304.898507 274.498986 
L 307.397015 321.452486 
L 309.895522 265.984103 
L 312.39403 123.582816 
L 314.892537 405.222719 
L 317.391045 161.048302 
L 319.889552 232.735511 
L 322.38806 252.279195 
L 324.886567 476.747739 
L 327.385075 273.20148 
L 329.883582 91.388447 
L 332.38209 357.782655 
L 334.880597 327.129075 
L 337.379104 439.606629 
L 339.877612 245.710571 
L 342.376119 161.697056 
L 344.874627 329.237522 
L 347.373134 248.467772 
L 349.871642 240.115076 
L 352.370149 413.818697 
L 354.868657 143.531971 
L 357.367164 444.228994 
L 359.865672 169.076621 
L 362.364179 479.261657 
L 364.862687 125.204698 
L 367.361194 149.614031 
L 369.859701 277.661657 
L 372.358209 219.841545 
L 374.856716 472.449751 
L 377.355224 184.727788 
L 379.853731 377.812904 
L 382.352239 231.519099 
L 384.850746 162.18362 
L 387.349254 417.792309 
L 389.847761 426.469381 
L 392.346269 411.710249 
L 394.844776 291.204377 
L 397.343284 92.848142 
L 399.841791 357.052808 
L 402.340299 466.367691 
L 404.838806 119.690298 
L 407.337313 229.248463 
L 409.835821 309.288367 
L 412.334328 462.961738 
L 414.832836 443.74243 
L 417.331343 452.338407 
L 419.829851 96.254095 
L 422.328358 144.991665 
L 424.826866 488.668576 
L 427.325373 394.518294 
L 429.823881 286.176541 
L 432.322388 143.045406 
L 434.820896 127.880805 
L 437.319403 144.748383 
L 439.81791 492.48 
L 442.316418 235.330523 
L 444.814925 319.019662 
L 447.313433 102.011778 
L 449.81194 337.265841 
L 452.310448 195.026742 
L 454.808955 378.623846 
L 457.307463 401.816766 
L 459.80597 451.365278 
L 462.304478 488.830764 
L 464.802985 447.391665 
L 467.301493 223.977345 
L 469.8 175.969622 
L 472.298507 305.801319 
L 474.797015 322.344521 
L 477.295522 312.775414 
L 479.79403 93.172518 
L 482.292537 162.751279 
L 484.791045 212.380885 
L 487.289552 267.524891 
L 489.78806 433.686758 
L 492.286567 428.253451 
L 494.785075 116.527627 
L 497.283582 199.081448 
L 499.78209 148.803089 
L 502.280597 300.530201 
L 504.779104 470.016927 
L 507.277612 122.609686 
L 509.776119 157.723443 
L 512.274627 309.774932 
L 514.773134 327.696734 
L 517.271642 468.31395 
L 519.770149 179.699952 
L 522.268657 385.19247 
L 524.767164 137.693194 
L 527.265672 237.601158 
L 529.764179 250.576219 
L 532.262687 460.44782 
L 534.761194 471.800998 
L 537.259701 235.573805 
L 539.758209 121.149992 
L 542.256716 366.13535 
L 544.755224 343.915559 
L 547.253731 400.843636 
L 549.752239 173.293516 
L 552.250746 107.850555 
L 554.749254 251.143878 
L 557.247761 147.82996 
L 559.746269 176.942751 
L 562.244776 215.300274 
L 564.743284 483.965117 
L 567.241791 407.168978 
L 569.740299 216.192309 
L 572.238806 419.819662 
L 574.737313 235.249429 
L 577.235821 151.479195 
L 579.734328 130.475817 
L 582.232836 200.460048 
L 584.731343 346.834948 
L 587.229851 262.902526 
L 589.728358 133.88177 
L 592.226866 113.608238 
L 594.725373 321.53358 
L 597.223881 271.660692 
L 599.722388 377.73181 
L 602.220896 308.396331 
L 604.719403 357.863749 
L 607.21791 118.717168 
L 609.716418 93.334706 
L 612.214925 379.921352 
L 614.713433 171.590539 
L 617.21194 251.143878 
L 619.710448 189.431247 
L 622.208955 163.56222 
L 624.707463 271.660692 
L 627.20597 126.01564 
L 629.704478 176.537281 
L 632.202985 266.227385 
L 634.701493 410.088367 
L 637.2 345.780724 
L 639.698507 328.426581 
L 642.197015 359.485632 
L 644.695522 413.007755 
L 647.19403 179.618858 
L 649.692537 486.884505 
L 652.191045 167.373644 
L 654.689552 451.60856 
L 657.18806 219.598262 
L 659.686567 405.952566 
L 662.185075 111.580885 
L 664.683582 434.173323 
L 667.18209 256.009525 
L 669.680597 182.051681 
L 672.179104 322.749992 
L 674.677612 363.053773 
L 677.176119 291.85313 
L 679.674627 452.824972 
L 682.173134 294.934706 
L 684.671642 318.452003 
L 687.170149 163.400032 
L 689.668657 220.814674 
L 692.167164 289.825776 
L 694.665672 173.942269 
L 697.164179 405.871472 
L 699.662687 420.711698 
L 702.161194 227.626581 
L 704.659701 270.525374 
L 707.158209 135.26037 
L 709.656716 286.663105 
L 712.155224 389.895929 
L 714.653731 135.746935 
L 717.152239 144.910571 
L 719.650746 165.995044 
L 722.149254 338.23897 
L 724.647761 89.28 
L 727.146269 296.556589 
L 729.644776 100.795366 
L 732.143284 432.227064 
L 734.641791 183.268093 
L 737.140299 177.023846 
L 739.638806 396.78893 
L 742.137313 110.040097 
L 744.635821 321.53358 
L 747.134328 408.871955 
L 749.632836 324.452969 
L 752.131343 113.202767 
L 754.629851 361.837361 
L 757.128358 433.767852 
L 759.626866 120.420145 
L 762.125373 127.880805 
L 764.623881 108.661496 
L 767.122388 179.213387 
L 769.620896 380.407916 
L 772.119403 217.408721 
L 774.61791 431.983781 
L 777.116418 302.557554 
L 779.614925 445.12103 
L 782.113433 101.200837 
L 784.61194 114.500274 
L 787.110448 391.274529 
L 789.608955 102.741625 
L 792.107463 144.261818 
L 794.60597 117.257474 
L 797.104478 491.344682 
L 799.602985 168.833339 
L 802.101493 166.319421 
L 804.6 247.332454 
L 807.098507 359.323443 
L 809.597015 409.196331 
L 812.095522 90.415318 
L 814.59403 310.748061 
L 817.092537 347.402607 
L 819.591045 332.156911 
L 822.089552 243.845406 
L 824.58806 162.102526 
L 827.086567 395.896895 
L 829.585075 181.078552 
L 832.083582 430.605181 
L 834.58209 105.57992 
L 837.080597 433.93004 
L 839.579104 160.156267 
L 842.077612 403.27646 
L 844.576119 123.258439 
L 847.074627 105.012261 
L 849.573134 295.98893 
L 852.071642 373.433821 
L 854.570149 442.850394 
L 857.068657 381.786516 
L 859.567164 326.480322 
L 862.065672 462.556267 
L 864.564179 352.349348 
L 867.062687 422.33358 
L 869.561194 258.84782 
L 872.059701 163.237844 
L 874.558209 312.369944 
L 877.056716 426.307192 
L 879.555224 215.462462 
L 882.053731 127.475334 
L 884.552239 425.496251 
L 887.050746 488.74967 
L 889.549254 456.474208 
L 892.047761 249.359807 
L 894.546269 249.03543 
L 897.044776 426.955945 
L 899.543284 370.919903 
L 902.041791 325.507192 
L 904.540299 401.978954 
L 907.038806 463.691585 
L 909.537313 350.321995 
L 912.035821 462.231891 
L 914.534328 298.421754 
L 917.032836 100.633178 
L 919.531343 222.355463 
L 922.029851 439.120064 
L 924.528358 410.493837 
L 927.026866 295.583459 
L 929.525373 110.121191 
L 932.023881 98.443636 
L 934.522388 412.034626 
L 937.020896 266.227385 
L 939.519403 143.450877 
L 942.01791 480.396975 
L 944.516418 168.103492 
L 947.014925 113.851521 
L 949.513433 277.742751 
L 952.01194 100.87646 
L 954.510448 140.126018 
L 957.008955 357.458278 
L 959.507463 390.058117 
L 962.00597 275.228833 
L 964.504478 254.630925 
L 967.002985 222.598745 
L 969.501493 431.578311 
L 972 485.668093 
L 972 485.668093 
" clip-path="url(#p8c07606f34)" style="fill: none; stroke: #a9a9a9; stroke-opacity: 0.8; stroke-width: 3; stroke-linecap: round"/>
   </g>
   <g id="line2d_16">
    <path d="M 135 97.551601 
L 137.498507 241.1693 
L 139.997015 114.338085 
L 142.495522 242.953371 
L 144.99403 223.49078 
L 147.492537 158.615479 
L 149.991045 357.052808 
L 152.489552 365.16222 
L 154.98806 132.827546 
L 157.486567 436.606146 
L 159.985075 327.534545 
L 162.483582 364.837844 
L 164.98209 162.994562 
L 167.480597 337.752405 
L 169.979104 404.168496 
L 172.477612 199.486919 
L 174.976119 476.342269 
L 177.474627 483.559646 
L 179.973134 165.103009 
L 182.471642 426.874851 
L 184.970149 356.809525 
L 187.468657 294.772518 
L 189.967164 420.630603 
L 192.465672 404.411778 
L 194.964179 466.610973 
L 197.462687 410.169461 
L 199.961194 306.450072 
L 202.459701 120.825615 
L 204.958209 301.341142 
L 207.456716 250.981689 
L 209.955224 186.755141 
L 212.453731 117.257474 
L 214.952239 401.573484 
L 217.450746 389.977023 
L 219.949254 307.504296 
L 222.447761 451.203089 
L 224.946269 483.397458 
L 227.444776 353.403572 
L 229.943284 281.310893 
L 232.441791 128.529558 
L 234.940299 186.511858 
L 237.438806 308.96399 
L 239.937313 373.758198 
L 242.435821 149.938407 
L 244.934328 272.79601 
L 247.432836 120.095768 
L 249.931343 325.507192 
L 252.429851 142.477747 
L 254.928358 237.357876 
L 257.426866 458.014996 
L 259.925373 479.586034 
L 262.423881 200.622237 
L 264.922388 371.649751 
L 267.420896 185.214352 
L 269.919403 422.252486 
L 272.41791 208.245084 
L 274.916418 211.326661 
L 277.414925 321.371392 
L 279.913433 290.312341 
L 282.41194 222.436557 
L 284.910448 491.831247 
L 287.408955 364.026903 
L 289.907463 486.884505 
L 292.40597 381.948705 
L 294.904478 333.535511 
L 297.402985 487.614352 
L 299.901493 457.122961 
L 302.4 271.498504 
L 304.898507 274.498986 
L 307.397015 321.452486 
L 309.895522 265.984103 
L 312.39403 123.582816 
" clip-path="url(#p8c07606f34)" style="fill: none; stroke: #1f77b4; stroke-opacity: 0.9; stroke-width: 4; stroke-linecap: round"/>
   </g>
   <g id="line2d_17">
    <path d="M 314.892537 405.222719 
L 317.391045 161.048302 
L 319.889552 232.735511 
L 322.38806 252.279195 
L 324.886567 476.747739 
L 327.385075 273.20148 
L 329.883582 91.388447 
L 332.38209 357.782655 
L 334.880597 327.129075 
L 337.379104 439.606629 
L 339.877612 245.710571 
L 342.376119 161.697056 
L 344.874627 329.237522 
L 347.373134 248.467772 
L 349.871642 240.115076 
L 352.370149 413.818697 
L 354.868657 143.531971 
L 357.367164 444.228994 
L 359.865672 169.076621 
L 362.364179 479.261657 
L 364.862687 125.204698 
L 367.361194 149.614031 
L 369.859701 277.661657 
L 372.358209 219.841545 
L 374.856716 472.449751 
L 377.355224 184.727788 
L 379.853731 377.812904 
L 382.352239 231.519099 
L 384.850746 162.18362 
L 387.349254 417.792309 
L 389.847761 426.469381 
L 392.346269 411.710249 
L 394.844776 291.204377 
L 397.343284 92.848142 
L 399.841791 357.052808 
L 402.340299 466.367691 
L 404.838806 119.690298 
L 407.337313 229.248463 
L 409.835821 309.288367 
L 412.334328 462.961738 
L 414.832836 443.74243 
L 417.331343 452.338407 
L 419.829851 96.254095 
L 422.328358 144.991665 
L 424.826866 488.668576 
L 427.325373 394.518294 
L 429.823881 286.176541 
L 432.322388 143.045406 
L 434.820896 127.880805 
L 437.319403 144.748383 
L 439.81791 492.48 
L 442.316418 235.330523 
L 444.814925 319.019662 
L 447.313433 102.011778 
L 449.81194 337.265841 
L 452.310448 195.026742 
L 454.808955 378.623846 
L 457.307463 401.816766 
L 459.80597 451.365278 
L 462.304478 488.830764 
L 464.802985 447.391665 
L 467.301493 223.977345 
L 469.8 175.969622 
L 472.298507 305.801319 
L 474.797015 322.344521 
L 477.295522 312.775414 
L 479.79403 93.172518 
L 482.292537 162.751279 
L 484.791045 212.380885 
L 487.289552 267.524891 
L 489.78806 433.686758 
L 492.286567 428.253451 
" clip-path="url(#p8c07606f34)" style="fill: none; stroke: #1f77b4; stroke-opacity: 0.9; stroke-width: 4; stroke-linecap: round"/>
   </g>
   <g id="line2d_18">
    <path d="M 854.570149 442.850394 
L 857.068657 381.786516 
L 859.567164 326.480322 
L 862.065672 462.556267 
L 864.564179 352.349348 
L 867.062687 422.33358 
L 869.561194 258.84782 
L 872.059701 163.237844 
L 874.558209 312.369944 
L 877.056716 426.307192 
L 879.555224 215.462462 
L 882.053731 127.475334 
L 884.552239 425.496251 
L 887.050746 488.74967 
L 889.549254 456.474208 
L 892.047761 249.359807 
L 894.546269 249.03543 
L 897.044776 426.955945 
L 899.543284 370.919903 
L 902.041791 325.507192 
L 904.540299 401.978954 
L 907.038806 463.691585 
L 909.537313 350.321995 
L 912.035821 462.231891 
L 914.534328 298.421754 
L 917.032836 100.633178 
L 919.531343 222.355463 
L 922.029851 439.120064 
L 924.528358 410.493837 
L 927.026866 295.583459 
L 929.525373 110.121191 
L 932.023881 98.443636 
L 934.522388 412.034626 
L 937.020896 266.227385 
L 939.519403 143.450877 
L 942.01791 480.396975 
L 944.516418 168.103492 
L 947.014925 113.851521 
L 949.513433 277.742751 
L 952.01194 100.87646 
L 954.510448 140.126018 
L 957.008955 357.458278 
L 959.507463 390.058117 
L 962.00597 275.228833 
L 964.504478 254.630925 
L 967.002985 222.598745 
L 969.501493 431.578311 
L 972 485.668093 
" clip-path="url(#p8c07606f34)" style="fill: none; stroke: #1f77b4; stroke-opacity: 0.9; stroke-width: 4; stroke-linecap: round"/>
   </g>
   <g id="line2d_19">
    <path d="M 494.785075 116.527627 
L 497.283582 199.081448 
L 499.78209 148.803089 
L 502.280597 300.530201 
L 504.779104 470.016927 
L 507.277612 122.609686 
L 509.776119 157.723443 
L 512.274627 309.774932 
L 514.773134 327.696734 
L 517.271642 468.31395 
L 519.770149 179.699952 
L 522.268657 385.19247 
L 524.767164 137.693194 
L 527.265672 237.601158 
L 529.764179 250.576219 
L 532.262687 460.44782 
L 534.761194 471.800998 
L 537.259701 235.573805 
L 539.758209 121.149992 
L 542.256716 366.13535 
L 544.755224 343.915559 
L 547.253731 400.843636 
L 549.752239 173.293516 
L 552.250746 107.850555 
L 554.749254 251.143878 
L 557.247761 147.82996 
L 559.746269 176.942751 
L 562.244776 215.300274 
L 564.743284 483.965117 
L 567.241791 407.168978 
L 569.740299 216.192309 
L 572.238806 419.819662 
L 574.737313 235.249429 
L 577.235821 151.479195 
L 579.734328 130.475817 
L 582.232836 200.460048 
L 584.731343 346.834948 
L 587.229851 262.902526 
L 589.728358 133.88177 
L 592.226866 113.608238 
L 594.725373 321.53358 
L 597.223881 271.660692 
L 599.722388 377.73181 
L 602.220896 308.396331 
L 604.719403 357.863749 
L 607.21791 118.717168 
L 609.716418 93.334706 
L 612.214925 379.921352 
L 614.713433 171.590539 
L 617.21194 251.143878 
L 619.710448 189.431247 
L 622.208955 163.56222 
L 624.707463 271.660692 
L 627.20597 126.01564 
L 629.704478 176.537281 
L 632.202985 266.227385 
L 634.701493 410.088367 
L 637.2 345.780724 
L 639.698507 328.426581 
L 642.197015 359.485632 
L 644.695522 413.007755 
L 647.19403 179.618858 
L 649.692537 486.884505 
L 652.191045 167.373644 
L 654.689552 451.60856 
L 657.18806 219.598262 
L 659.686567 405.952566 
L 662.185075 111.580885 
L 664.683582 434.173323 
L 667.18209 256.009525 
L 669.680597 182.051681 
L 672.179104 322.749992 
" clip-path="url(#p8c07606f34)" style="fill: none; stroke: #ff7f0e; stroke-opacity: 0.9; stroke-width: 4; stroke-linecap: round"/>
   </g>
   <g id="line2d_20">
    <path d="M 674.677612 363.053773 
L 677.176119 291.85313 
L 679.674627 452.824972 
L 682.173134 294.934706 
L 684.671642 318.452003 
L 687.170149 163.400032 
L 689.668657 220.814674 
L 692.167164 289.825776 
L 694.665672 173.942269 
L 697.164179 405.871472 
L 699.662687 420.711698 
L 702.161194 227.626581 
L 704.659701 270.525374 
L 707.158209 135.26037 
L 709.656716 286.663105 
L 712.155224 389.895929 
L 714.653731 135.746935 
L 717.152239 144.910571 
L 719.650746 165.995044 
L 722.149254 338.23897 
L 724.647761 89.28 
L 727.146269 296.556589 
L 729.644776 100.795366 
L 732.143284 432.227064 
L 734.641791 183.268093 
L 737.140299 177.023846 
L 739.638806 396.78893 
L 742.137313 110.040097 
L 744.635821 321.53358 
L 747.134328 408.871955 
L 749.632836 324.452969 
L 752.131343 113.202767 
L 754.629851 361.837361 
L 757.128358 433.767852 
L 759.626866 120.420145 
L 762.125373 127.880805 
L 764.623881 108.661496 
L 767.122388 179.213387 
L 769.620896 380.407916 
L 772.119403 217.408721 
L 774.61791 431.983781 
L 777.116418 302.557554 
L 779.614925 445.12103 
L 782.113433 101.200837 
L 784.61194 114.500274 
L 787.110448 391.274529 
L 789.608955 102.741625 
L 792.107463 144.261818 
L 794.60597 117.257474 
L 797.104478 491.344682 
L 799.602985 168.833339 
L 802.101493 166.319421 
L 804.6 247.332454 
L 807.098507 359.323443 
L 809.597015 409.196331 
L 812.095522 90.415318 
L 814.59403 310.748061 
L 817.092537 347.402607 
L 819.591045 332.156911 
L 822.089552 243.845406 
L 824.58806 162.102526 
L 827.086567 395.896895 
L 829.585075 181.078552 
L 832.083582 430.605181 
L 834.58209 105.57992 
L 837.080597 433.93004 
L 839.579104 160.156267 
L 842.077612 403.27646 
L 844.576119 123.258439 
L 847.074627 105.012261 
L 849.573134 295.98893 
L 852.071642 373.433821 
" clip-path="url(#p8c07606f34)" style="fill: none; stroke: #ff7f0e; stroke-opacity: 0.9; stroke-width: 4; stroke-linecap: round"/>
   </g>
   <g id="line2d_21">
    <path d="M 135 512.64 
L 135 69.12 
" clip-path="url(#p8c07606f34)" style="fill: none; stroke-dasharray: 5.55,2.4; stroke-dashoffset: 0; stroke: #000000; stroke-opacity: 0.7; stroke-width: 1.5"/>
   </g>
   <g id="line2d_22">
    <path d="M 314.892537 512.64 
L 314.892537 69.12 
" clip-path="url(#p8c07606f34)" style="fill: none; stroke-dasharray: 5.55,2.4; stroke-dashoffset: 0; stroke: #000000; stroke-opacity: 0.7; stroke-width: 1.5"/>
   </g>
   <g id="line2d_23">
    <path d="M 494.785075 512.64 
L 494.785075 69.12 
" clip-path="url(#p8c07606f34)" style="fill: none; stroke-dasharray: 5.55,2.4; stroke-dashoffset: 0; stroke: #000000; stroke-opacity: 0.7; stroke-width: 1.5"/>
   </g>
   <g id="line2d_24">
    <path d="M 674.677612 512.64 
L 674.677612 69.12 
" clip-path="url(#p8c07606f34)" style="fill: none; stroke-dasharray: 5.55,2.4; stroke-dashoffset: 0; stroke: #000000; stroke-opacity: 0.7; stroke-width: 1.5"/>
   </g>
   <g id="line2d_25">
    <path d="M 854.570149 512.64 
L 854.570149 69.12 
" clip-path="url(#p8c07606f34)" style="fill: none; stroke-dasharray: 5.55,2.4; stroke-dashoffset: 0; stroke: #000000; stroke-opacity: 0.7; stroke-width: 1.5"/>
   </g>
   <g id="patch_3">
    <path d="M 135 512.64 
L 135 69.12 
" style="fill: none; stroke: #262626; stroke-width: 1.25; stroke-linejoin: miter; stroke-linecap: square"/>
   </g>
   <g id="patch_4">
    <path d="M 972 512.64 
L 972 69.12 
" style="fill: none; stroke: #262626; stroke-width: 1.25; stroke-linejoin: miter; stroke-linecap: square"/>
   </g>
   <g id="patch_5">
    <path d="M 135 512.64 
L 972 512.64 
" style="fill: none; stroke: #262626; stroke-width: 1.25; stroke-linejoin: miter; stroke-linecap: square"/>
   </g>
   <g id="patch_6">
    <path d="M 135 69.12 
L 972 69.12 
" style="fill: none; stroke: #262626; stroke-width: 1.25; stroke-linejoin: miter; stroke-linecap: square"/>
   </g>
   <g id="text_23">
    <!-- 온도 유사 패턴 군집화 결과 (동일 색상은 같은 군집) -->
    <g style="fill: #262626" transform="translate(342.703125 63.12) scale(0.18 -0.18)">
     <defs>
      <path id="MalgunGothic-c720" d="M 3200 2784 
Q 2278 2784 1768 3131 
Q 1259 3478 1259 4078 
Q 1259 4669 1775 5025 
Q 2291 5381 3200 5381 
Q 4128 5381 4640 5025 
Q 5153 4669 5153 4078 
Q 5153 3484 4640 3134 
Q 4128 2784 3200 2784 
z
M 3200 4978 
Q 2513 4978 2130 4736 
Q 1747 4494 1747 4078 
Q 1747 3669 2130 3425 
Q 2513 3181 3200 3181 
Q 3888 3181 4270 3425 
Q 4653 3669 4653 4078 
Q 4653 4494 4270 4736 
Q 3888 4978 3200 4978 
z
M 1913 -556 
L 1913 1672 
L 403 1672 
L 403 2094 
L 5997 2094 
L 5997 1672 
L 4488 1672 
L 4488 -556 
L 4019 -556 
L 4019 1672 
L 2381 1672 
L 2381 -556 
L 1913 -556 
z
" transform="scale(0.015625)"/>
      <path id="MalgunGothic-c0ac" d="M 5094 2600 
L 5094 -563 
L 4628 -563 
L 4628 5466 
L 5094 5466 
L 5094 3016 
L 6138 3016 
L 6138 2600 
L 5094 2600 
z
M 3744 966 
Q 3234 1356 2800 1936 
Q 2366 2516 2234 2950 
Q 2094 2472 1672 1883 
Q 1250 1294 738 891 
L 378 1203 
Q 1116 1703 1556 2479 
Q 1997 3256 1997 4063 
L 1997 5050 
L 2463 5050 
L 2463 4084 
Q 2463 3297 2898 2553 
Q 3334 1809 4072 1331 
L 3744 966 
z
" transform="scale(0.015625)"/>
      <path id="MalgunGothic-d328" d="M 5069 -563 
L 5069 2491 
L 4347 2491 
L 4347 -378 
L 3884 -378 
L 3884 5344 
L 4347 5344 
L 4347 2913 
L 5069 2913 
L 5069 5466 
L 5538 5466 
L 5538 -563 
L 5069 -563 
z
M 538 4513 
L 538 4928 
L 3384 4928 
L 3384 4513 
L 538 4513 
z
M 3591 1125 
Q 3278 1063 2663 1063 
L 366 1063 
L 366 1478 
L 1113 1478 
L 1031 4091 
L 1497 4091 
L 1550 1478 
L 2375 1478 
L 2425 4091 
L 2894 4091 
L 2809 1478 
Q 3369 1478 3553 1522 
L 3591 1125 
z
" transform="scale(0.015625)"/>
      <path id="MalgunGothic-d134" d="M 4947 1147 
L 4947 3378 
L 3884 3378 
L 3884 3794 
L 4947 3794 
L 4947 5466 
L 5416 5466 
L 5416 1147 
L 4947 1147 
z
M 1569 3456 
L 1569 2541 
Q 3544 2541 4172 2600 
L 4206 2194 
Q 3428 2131 1100 2131 
L 1100 5125 
L 3963 5125 
L 3963 4709 
L 1569 4709 
L 1569 3859 
L 3406 3859 
L 3406 3456 
L 1569 3456 
z
M 1734 -378 
L 1734 1503 
L 2203 1503 
L 2203 38 
L 5569 38 
L 5569 -378 
L 1734 -378 
z
" transform="scale(0.015625)"/>
      <path id="MalgunGothic-ad70" d="M 3003 703 
L 3003 2497 
L 403 2497 
L 403 2919 
L 4581 2919 
Q 4634 3438 4634 4788 
L 1338 4788 
L 1338 5203 
L 5100 5203 
Q 5100 3819 5038 2919 
L 5997 2919 
L 5997 2497 
L 3469 2497 
L 3469 703 
L 3003 703 
z
M 1338 -300 
L 1338 1638 
L 1806 1638 
L 1806 122 
L 5216 122 
L 5216 -300 
L 1338 -300 
z
" transform="scale(0.015625)"/>
      <path id="MalgunGothic-c9d1" d="M 4941 2328 
L 4941 5466 
L 5409 5466 
L 5409 2328 
L 4941 2328 
z
M 3872 2388 
Q 3469 2600 3037 2997 
Q 2606 3394 2438 3750 
Q 2269 3366 1859 2936 
Q 1450 2506 978 2234 
L 641 2547 
Q 1316 2875 1759 3462 
Q 2203 4050 2203 4678 
L 2203 4781 
L 838 4781 
L 838 5197 
L 4006 5197 
L 4006 4781 
L 2656 4781 
L 2656 4678 
Q 2656 4081 3120 3523 
Q 3584 2966 4184 2719 
L 3872 2388 
z
M 1672 -397 
L 1672 2003 
L 2131 2003 
L 2131 1172 
L 4947 1172 
L 4947 2003 
L 5409 2003 
L 5409 -397 
L 1672 -397 
z
M 4947 756 
L 2131 756 
L 2131 13 
L 4947 13 
L 4947 756 
z
" transform="scale(0.015625)"/>
      <path id="MalgunGothic-d654" d="M 5228 2363 
L 5228 -563 
L 4763 -563 
L 4763 5466 
L 5228 5466 
L 5228 2778 
L 6156 2778 
L 6156 2363 
L 5228 2363 
z
M 2131 5441 
L 2591 5441 
L 2591 4653 
L 4159 4653 
L 4159 4238 
L 556 4238 
L 556 4653 
L 2131 4653 
L 2131 5441 
z
M 2591 1741 
L 2591 884 
Q 3688 900 4409 947 
L 4441 544 
Q 2791 447 359 447 
L 313 856 
Q 1141 856 2125 878 
L 2125 1734 
Q 1506 1791 1175 2092 
Q 844 2394 844 2828 
Q 844 3316 1250 3627 
Q 1656 3938 2363 3938 
Q 3059 3938 3465 3633 
Q 3872 3328 3872 2859 
Q 3872 2400 3536 2098 
Q 3200 1797 2591 1741 
z
M 2363 3541 
Q 1875 3541 1594 3342 
Q 1313 3144 1313 2828 
Q 1313 2513 1592 2319 
Q 1872 2125 2363 2125 
Q 2847 2125 3126 2320 
Q 3406 2516 3406 2828 
Q 3406 3144 3125 3342 
Q 2844 3541 2363 3541 
z
" transform="scale(0.015625)"/>
      <path id="MalgunGothic-acb0" d="M 3647 2931 
L 3647 3334 
L 4947 3334 
L 4947 4172 
L 3744 4172 
L 3744 4581 
L 4947 4581 
L 4947 5466 
L 5416 5466 
L 5416 2328 
L 4947 2328 
L 4947 2931 
L 3647 2931 
z
M 872 2053 
L 550 2425 
Q 1600 2778 2237 3404 
Q 2875 4031 3066 4800 
L 941 4800 
L 941 5209 
L 3609 5209 
Q 3503 4163 2790 3344 
Q 2078 2525 872 2053 
z
M 1722 -494 
L 1722 984 
L 4947 984 
L 4947 1600 
L 1722 1600 
L 1722 1997 
L 5416 1997 
L 5416 588 
L 2188 588 
L 2188 -91 
L 5581 -91 
L 5581 -494 
L 1722 -494 
z
" transform="scale(0.015625)"/>
      <path id="MalgunGothic-acfc" d="M 6188 2663 
L 5203 2663 
L 5203 -563 
L 4728 -563 
L 4728 5466 
L 5197 5466 
L 5197 3078 
L 6188 3078 
L 6188 2663 
z
M 3828 4897 
Q 3828 3144 3713 1800 
L 3256 1831 
Q 3294 2163 3326 3077 
Q 3359 3991 3359 4481 
L 800 4481 
L 800 4897 
L 3828 4897 
z
M 4319 666 
Q 2688 575 281 575 
L 238 984 
Q 559 984 1747 1000 
L 1747 3084 
L 2216 3084 
L 2216 1006 
L 4288 1069 
L 4319 666 
z
" transform="scale(0.015625)"/>
      <path id="MalgunGothic-b3d9" d="M 403 2119 
L 403 2534 
L 2963 2534 
L 2963 3316 
L 1338 3316 
L 1338 5325 
L 5081 5325 
L 5081 4909 
L 1813 4909 
L 1813 3731 
L 5153 3731 
L 5153 3316 
L 3438 3316 
L 3438 2534 
L 5997 2534 
L 5997 2119 
L 403 2119 
z
M 3200 -513 
Q 2247 -513 1740 -211 
Q 1234 91 1234 603 
Q 1234 1116 1742 1416 
Q 2250 1716 3200 1716 
Q 4150 1716 4658 1416 
Q 5166 1116 5166 603 
Q 5166 91 4659 -211 
Q 4153 -513 3200 -513 
z
M 3200 1319 
Q 2478 1319 2103 1126 
Q 1728 934 1728 603 
Q 1728 272 2104 78 
Q 2481 -116 3200 -116 
Q 3919 -116 4295 78 
Q 4672 272 4672 603 
Q 4672 934 4295 1126 
Q 3919 1319 3200 1319 
z
" transform="scale(0.015625)"/>
      <path id="MalgunGothic-c0c9" d="M 5056 2059 
L 5056 3438 
L 4353 3438 
L 4353 2059 
L 3884 2059 
L 3884 5344 
L 4353 5344 
L 4353 3859 
L 5056 3859 
L 5056 5466 
L 5522 5466 
L 5522 2059 
L 5056 2059 
z
M 3200 2406 
Q 2856 2603 2493 3009 
Q 2131 3416 2003 3725 
Q 1894 3381 1533 2937 
Q 1172 2494 781 2253 
L 447 2566 
Q 1028 2869 1397 3428 
Q 1766 3988 1766 4616 
L 1766 5253 
L 2222 5253 
L 2222 4616 
Q 2222 4041 2600 3516 
Q 2978 2991 3500 2753 
L 3200 2406 
z
M 5056 -563 
L 5056 1313 
L 1581 1313 
L 1581 1728 
L 5522 1728 
L 5522 -563 
L 5056 -563 
z
" transform="scale(0.015625)"/>
      <path id="MalgunGothic-c740" d="M 3200 2950 
Q 2309 2950 1817 3287 
Q 1325 3625 1325 4159 
Q 1325 4694 1815 5028 
Q 2306 5363 3200 5363 
Q 4094 5363 4587 5028 
Q 5081 4694 5081 4159 
Q 5081 3625 4584 3287 
Q 4088 2950 3200 2950 
z
M 3200 4966 
Q 2541 4966 2177 4747 
Q 1813 4528 1813 4159 
Q 1813 3791 2177 3572 
Q 2541 3353 3200 3353 
Q 3859 3353 4223 3572 
Q 4588 3791 4588 4159 
Q 4588 4528 4223 4747 
Q 3859 4966 3200 4966 
z
M 403 1919 
L 403 2344 
L 5997 2344 
L 5997 1919 
L 403 1919 
z
M 1338 -359 
L 1338 1331 
L 1813 1331 
L 1813 56 
L 5203 56 
L 5203 -359 
L 1338 -359 
z
" transform="scale(0.015625)"/>
      <path id="MalgunGothic-ac19" d="M 5119 3525 
L 5119 2272 
L 4653 2272 
L 4653 5466 
L 5119 5466 
L 5119 3944 
L 6028 3944 
L 6028 3525 
L 5119 3525 
z
M 3488 5209 
Q 3488 4306 2794 3461 
Q 2100 2616 788 2081 
L 459 2450 
Q 1506 2784 2178 3450 
Q 2850 4116 2963 4794 
L 831 4794 
L 831 5209 
L 3488 5209 
z
M 1466 -422 
L 1466 1941 
L 5153 1941 
L 5153 1528 
L 1925 1528 
L 1925 972 
L 5044 972 
L 5044 563 
L 1925 563 
L 1925 -6 
L 5269 -6 
L 5269 -422 
L 1466 -422 
z
" transform="scale(0.015625)"/>
     </defs>
     <use xlink:href="#MalgunGothic-c628"/>
     <use xlink:href="#MalgunGothic-b3c4" x="100"/>
     <use xlink:href="#MalgunGothic-20" x="200"/>
     <use xlink:href="#MalgunGothic-c720" x="235.15625"/>
     <use xlink:href="#MalgunGothic-c0ac" x="335.15625"/>
     <use xlink:href="#MalgunGothic-20" x="435.15625"/>
     <use xlink:href="#MalgunGothic-d328" x="470.3125"/>
     <use xlink:href="#MalgunGothic-d134" x="570.3125"/>
     <use xlink:href="#MalgunGothic-20" x="670.3125"/>
     <use xlink:href="#MalgunGothic-ad70" x="705.46875"/>
     <use xlink:href="#MalgunGothic-c9d1" x="805.46875"/>
     <use xlink:href="#MalgunGothic-d654" x="905.46875"/>
     <use xlink:href="#MalgunGothic-20" x="1005.46875"/>
     <use xlink:href="#MalgunGothic-acb0" x="1040.625"/>
     <use xlink:href="#MalgunGothic-acfc" x="1140.625"/>
     <use xlink:href="#MalgunGothic-20" x="1240.625"/>
     <use xlink:href="#MalgunGothic-28" x="1275.78125"/>
     <use xlink:href="#MalgunGothic-b3d9" x="1306.25"/>
     <use xlink:href="#MalgunGothic-c77c" x="1406.25"/>
     <use xlink:href="#MalgunGothic-20" x="1506.25"/>
     <use xlink:href="#MalgunGothic-c0c9" x="1541.40625"/>
     <use xlink:href="#MalgunGothic-c0c1" x="1641.40625"/>
     <use xlink:href="#MalgunGothic-c740" x="1741.40625"/>
     <use xlink:href="#MalgunGothic-20" x="1841.40625"/>
     <use xlink:href="#MalgunGothic-ac19" x="1876.5625"/>
     <use xlink:href="#MalgunGothic-c740" x="1976.5625"/>
     <use xlink:href="#MalgunGothic-20" x="2076.5625"/>
     <use xlink:href="#MalgunGothic-ad70" x="2111.71875"/>
     <use xlink:href="#MalgunGothic-c9d1" x="2211.71875"/>
     <use xlink:href="#MalgunGothic-29" x="2311.71875"/>
    </g>
   </g>
   <g id="legend_1">
    <g id="patch_7">
     <path d="M 748.634375 101.25875 
L 962.2 101.25875 
Q 965 101.25875 965 98.45875 
L 965 78.92 
Q 965 76.12 962.2 76.12 
L 748.634375 76.12 
Q 745.834375 76.12 745.834375 78.92 
L 745.834375 98.45875 
Q 745.834375 101.25875 748.634375 101.25875 
z
" style="fill: #ffffff; opacity: 0.8; stroke: #cccccc; stroke-linejoin: miter"/>
    </g>
    <g id="line2d_26">
     <path d="M 751.434375 87.449063 
L 765.434375 87.449063 
L 779.434375 87.449063 
" style="fill: none; stroke: #a9a9a9; stroke-opacity: 0.8; stroke-width: 3; stroke-linecap: round"/>
    </g>
    <g id="text_24">
     <!-- 군집이 안되는 온도 데이터 -->
     <g style="fill: #262626" transform="translate(790.634375 92.349063) scale(0.14 -0.14)">
      <defs>
       <path id="MalgunGothic-c774" d="M 4947 -563 
L 4947 5466 
L 5416 5466 
L 5416 -563 
L 4947 -563 
z
M 2284 959 
Q 1597 959 1173 1514 
Q 750 2069 750 3016 
Q 750 3975 1169 4522 
Q 1588 5069 2284 5069 
Q 2978 5069 3403 4522 
Q 3828 3975 3828 3016 
Q 3828 2063 3401 1511 
Q 2975 959 2284 959 
z
M 2284 4653 
Q 1803 4653 1503 4204 
Q 1203 3756 1203 3016 
Q 1203 2278 1506 1826 
Q 1809 1375 2284 1375 
Q 2756 1375 3061 1828 
Q 3366 2281 3366 3016 
Q 3366 3759 3067 4206 
Q 2769 4653 2284 4653 
z
" transform="scale(0.015625)"/>
       <path id="MalgunGothic-c548" d="M 5131 3109 
L 5131 1069 
L 4666 1069 
L 4666 5466 
L 5131 5466 
L 5131 3534 
L 6041 3534 
L 6041 3109 
L 5131 3109 
z
M 2188 2188 
Q 1519 2188 1070 2611 
Q 622 3034 622 3706 
Q 622 4381 1067 4798 
Q 1513 5216 2188 5216 
Q 2866 5216 3308 4797 
Q 3750 4378 3750 3706 
Q 3750 3038 3304 2613 
Q 2859 2188 2188 2188 
z
M 2188 4819 
Q 1694 4819 1384 4516 
Q 1075 4213 1075 3706 
Q 1075 3200 1383 2895 
Q 1691 2591 2188 2591 
Q 2684 2591 2993 2895 
Q 3303 3200 3303 3706 
Q 3303 4213 2993 4516 
Q 2684 4819 2188 4819 
z
M 1381 -359 
L 1381 1619 
L 1856 1619 
L 1856 56 
L 5319 56 
L 5319 -359 
L 1381 -359 
z
" transform="scale(0.015625)"/>
       <path id="MalgunGothic-b418" d="M 4984 -563 
L 4984 5466 
L 5453 5466 
L 5453 -563 
L 4984 -563 
z
M 594 513 
L 550 922 
L 878 922 
Q 1806 922 2363 934 
L 2363 2375 
L 1056 2375 
L 1056 4891 
L 4025 4891 
L 4025 4475 
L 1522 4475 
L 1522 2791 
L 4097 2791 
L 4097 2375 
L 2828 2375 
L 2828 947 
Q 4016 963 4538 1013 
L 4569 609 
Q 4022 566 2634 539 
Q 1247 513 594 513 
z
" transform="scale(0.015625)"/>
       <path id="MalgunGothic-b294" d="M 1409 3225 
L 1409 5247 
L 1875 5247 
L 1875 3641 
L 5172 3641 
L 5172 3225 
L 1409 3225 
z
M 403 1972 
L 403 2394 
L 5997 2394 
L 5997 1972 
L 403 1972 
z
M 1381 -331 
L 1381 1459 
L 1850 1459 
L 1850 91 
L 5184 91 
L 5184 -331 
L 1381 -331 
z
" transform="scale(0.015625)"/>
       <path id="MalgunGothic-b370" d="M 5044 -563 
L 5044 5466 
L 5509 5466 
L 5509 -563 
L 5044 -563 
z
M 3897 -366 
L 3897 2859 
L 2650 2859 
L 2650 3272 
L 3897 3272 
L 3897 5344 
L 4359 5344 
L 4359 -366 
L 3897 -366 
z
M 3359 1094 
Q 2766 1019 909 1019 
L 909 4966 
L 3138 4966 
L 3138 4550 
L 1369 4550 
L 1369 1428 
Q 2897 1428 3328 1491 
L 3359 1094 
z
" transform="scale(0.015625)"/>
       <path id="MalgunGothic-d130" d="M 4891 -563 
L 4891 2516 
L 3706 2516 
L 3706 2925 
L 4891 2925 
L 4891 5466 
L 5356 5466 
L 5356 -563 
L 4891 -563 
z
M 1422 2816 
L 1422 1331 
L 2144 1331 
Q 3525 1331 4141 1409 
L 4172 1006 
Q 3694 950 3141 936 
Q 2588 922 953 922 
L 953 4953 
L 3841 4953 
L 3841 4531 
L 1422 4531 
L 1422 3219 
L 3181 3219 
L 3181 2816 
L 1422 2816 
z
" transform="scale(0.015625)"/>
      </defs>
      <use xlink:href="#MalgunGothic-ad70"/>
      <use xlink:href="#MalgunGothic-c9d1" x="100"/>
      <use xlink:href="#MalgunGothic-c774" x="200"/>
      <use xlink:href="#MalgunGothic-20" x="300"/>
      <use xlink:href="#MalgunGothic-c548" x="335.15625"/>
      <use xlink:href="#MalgunGothic-b418" x="435.15625"/>
      <use xlink:href="#MalgunGothic-b294" x="535.15625"/>
      <use xlink:href="#MalgunGothic-20" x="635.15625"/>
      <use xlink:href="#MalgunGothic-c628" x="670.3125"/>
      <use xlink:href="#MalgunGothic-b3c4" x="770.3125"/>
      <use xlink:href="#MalgunGothic-20" x="870.3125"/>
      <use xlink:href="#MalgunGothic-b370" x="905.46875"/>
      <use xlink:href="#MalgunGothic-c774" x="1005.46875"/>
      <use xlink:href="#MalgunGothic-d130" x="1105.46875"/>
     </g>
    </g>
   </g>
  </g>
 </g>
 <defs>
  <clipPath id="p8c07606f34">
   <rect x="135" y="69.12" width="837" height="443.52"/>
  </clipPath>
 </defs>
</svg>
