<?xml version="1.0" encoding="utf-8" standalone="no"?>
<!DOCTYPE svg PUBLIC "-//W3C//DTD SVG 1.1//EN"
  "http://www.w3.org/Graphics/SVG/1.1/DTD/svg11.dtd">
<svg xmlns:xlink="http://www.w3.org/1999/xlink" width="1080pt" height="576pt" viewBox="0 0 1080 576" xmlns="http://www.w3.org/2000/svg" version="1.1">
 <metadata>
  <rdf:RDF xmlns:dc="http://purl.org/dc/elements/1.1/" xmlns:cc="http://creativecommons.org/ns#" xmlns:rdf="http://www.w3.org/1999/02/22-rdf-syntax-ns#">
   <cc:Work>
    <dc:type rdf:resource="http://purl.org/dc/dcmitype/StillImage"/>
    <dc:date>2024-11-12T22:28:04.377372</dc:date>
    <dc:format>image/svg+xml</dc:format>
    <dc:creator>
     <cc:Agent>
      <dc:title>Matplotlib v3.9.2, https://matplotlib.org/</dc:title>
     </cc:Agent>
    </dc:creator>
   </cc:Work>
  </rdf:RDF>
 </metadata>
 <defs>
  <style type="text/css">*{stroke-linejoin: round; stroke-linecap: butt}</style>
 </defs>
 <g id="figure_1">
  <g id="patch_1">
   <path d="M 0 576 
L 1080 576 
L 1080 0 
L 0 0 
z
" style="fill: #ffffff"/>
  </g>
  <g id="axes_1">
   <g id="patch_2">
    <path d="M 135 512.64 
L 972 512.64 
L 972 69.12 
L 135 69.12 
z
" style="fill: #ffffff"/>
   </g>
   <g id="matplotlib.axis_1">
    <g id="xtick_1">
     <g id="line2d_1">
      <path d="M 137.706716 512.64 
L 137.706716 69.12 
" clip-path="url(#p712d1f0771)" style="fill: none; stroke: #a9a9a9; stroke-opacity: 0.7; stroke-linecap: round"/>
     </g>
     <g id="text_1">
      <!-- 16 -->
      <g style="fill: #262626" transform="translate(129.995779 532.769063) scale(0.14 -0.14)">
       <defs>
        <path id="MalgunGothic-31" d="M 2231 0 
L 1734 0 
L 1734 3972 
Q 1591 3828 1266 3661 
Q 941 3494 672 3428 
L 672 3959 
Q 1016 4056 1409 4275 
Q 1803 4494 2031 4700 
L 2231 4700 
L 2231 0 
z
" transform="scale(0.015625)"/>
        <path id="MalgunGothic-36" d="M 2981 4069 
Q 2619 4250 2228 4250 
Q 1591 4250 1228 3689 
Q 866 3128 869 2213 
L 884 2213 
Q 1203 2872 1938 2872 
Q 2547 2872 2903 2478 
Q 3259 2084 3259 1450 
Q 3259 797 2857 359 
Q 2456 -78 1825 -78 
Q 1116 -78 736 478 
Q 356 1034 356 2019 
Q 356 3181 847 3928 
Q 1338 4675 2222 4675 
Q 2700 4675 2981 4544 
L 2981 4069 
z
M 906 1506 
Q 906 1022 1165 683 
Q 1425 344 1844 344 
Q 2247 344 2498 645 
Q 2750 947 2750 1388 
Q 2750 1888 2509 2167 
Q 2269 2447 1838 2447 
Q 1444 2447 1175 2173 
Q 906 1900 906 1506 
z
" transform="scale(0.015625)"/>
       </defs>
       <use xlink:href="#MalgunGothic-31"/>
       <use xlink:href="#MalgunGothic-36" x="55.078125"/>
      </g>
     </g>
    </g>
    <g id="xtick_2">
     <g id="line2d_2">
      <path d="M 197.670896 512.64 
L 197.670896 69.12 
" clip-path="url(#p712d1f0771)" style="fill: none; stroke: #a9a9a9; stroke-opacity: 0.7; stroke-linecap: round"/>
     </g>
     <g id="text_2">
      <!-- 17 -->
      <g style="fill: #262626" transform="translate(189.959958 532.769063) scale(0.14 -0.14)">
       <defs>
        <path id="MalgunGothic-37" d="M 3213 4297 
Q 2478 3006 2064 1918 
Q 1650 831 1550 0 
L 1009 0 
Q 1084 531 1290 1176 
Q 1497 1822 1815 2537 
Q 2134 3253 2631 4147 
L 291 4147 
L 291 4600 
L 3213 4600 
L 3213 4297 
z
" transform="scale(0.015625)"/>
       </defs>
       <use xlink:href="#MalgunGothic-31"/>
       <use xlink:href="#MalgunGothic-37" x="55.078125"/>
      </g>
     </g>
    </g>
    <g id="xtick_3">
     <g id="line2d_3">
      <path d="M 257.635075 512.64 
L 257.635075 69.12 
" clip-path="url(#p712d1f0771)" style="fill: none; stroke: #a9a9a9; stroke-opacity: 0.7; stroke-linecap: round"/>
     </g>
     <g id="text_3">
      <!-- 18 -->
      <g style="fill: #262626" transform="translate(249.924137 532.769063) scale(0.14 -0.14)">
       <defs>
        <path id="MalgunGothic-38" d="M 303 1281 
Q 303 1669 539 2011 
Q 775 2353 1153 2494 
Q 856 2647 675 2915 
Q 494 3184 494 3500 
Q 494 3828 659 4098 
Q 825 4369 1122 4522 
Q 1419 4675 1778 4675 
Q 2334 4675 2700 4342 
Q 3066 4009 3066 3500 
Q 3066 3181 2881 2914 
Q 2697 2647 2413 2494 
Q 2788 2350 3022 2009 
Q 3256 1669 3256 1281 
Q 3256 672 2843 297 
Q 2431 -78 1778 -78 
Q 1131 -78 717 301 
Q 303 681 303 1281 
z
M 809 1328 
Q 809 878 1081 611 
Q 1353 344 1781 344 
Q 2206 344 2482 619 
Q 2759 894 2759 1328 
Q 2759 1731 2482 2011 
Q 2206 2291 1781 2291 
Q 1372 2291 1090 2020 
Q 809 1750 809 1328 
z
M 1003 3459 
Q 1003 3125 1234 2900 
Q 1466 2675 1781 2675 
Q 2097 2675 2330 2900 
Q 2563 3125 2563 3459 
Q 2563 3803 2341 4026 
Q 2119 4250 1781 4250 
Q 1450 4250 1226 4029 
Q 1003 3809 1003 3459 
z
" transform="scale(0.015625)"/>
       </defs>
       <use xlink:href="#MalgunGothic-31"/>
       <use xlink:href="#MalgunGothic-38" x="55.078125"/>
      </g>
     </g>
    </g>
    <g id="xtick_4">
     <g id="line2d_4">
      <path d="M 317.599254 512.64 
L 317.599254 69.12 
" clip-path="url(#p712d1f0771)" style="fill: none; stroke: #a9a9a9; stroke-opacity: 0.7; stroke-linecap: round"/>
     </g>
     <g id="text_4">
      <!-- 19 -->
      <g style="fill: #262626" transform="translate(309.888316 532.769063) scale(0.14 -0.14)">
       <defs>
        <path id="MalgunGothic-39" d="M 556 563 
Q 941 344 1366 344 
Q 1994 344 2347 855 
Q 2700 1366 2700 2313 
Q 2694 2306 2688 2313 
Q 2388 1713 1653 1713 
Q 1059 1713 682 2120 
Q 306 2528 306 3144 
Q 306 3806 711 4240 
Q 1116 4675 1772 4675 
Q 2466 4675 2833 4131 
Q 3200 3588 3200 2578 
Q 3200 1319 2717 620 
Q 2234 -78 1344 -78 
Q 881 -78 556 78 
L 556 563 
z
M 813 3219 
Q 813 2741 1063 2450 
Q 1313 2159 1759 2159 
Q 2147 2159 2406 2417 
Q 2666 2675 2666 3047 
Q 2666 3556 2411 3903 
Q 2156 4250 1725 4250 
Q 1322 4250 1067 3948 
Q 813 3647 813 3219 
z
" transform="scale(0.015625)"/>
       </defs>
       <use xlink:href="#MalgunGothic-31"/>
       <use xlink:href="#MalgunGothic-39" x="55.078125"/>
      </g>
     </g>
    </g>
    <g id="xtick_5">
     <g id="line2d_5">
      <path d="M 377.563433 512.64 
L 377.563433 69.12 
" clip-path="url(#p712d1f0771)" style="fill: none; stroke: #a9a9a9; stroke-opacity: 0.7; stroke-linecap: round"/>
     </g>
     <g id="text_5">
      <!-- 20 -->
      <g style="fill: #262626" transform="translate(369.852495 532.769063) scale(0.14 -0.14)">
       <defs>
        <path id="MalgunGothic-32" d="M 2519 3372 
Q 2519 3784 2275 4018 
Q 2031 4253 1628 4253 
Q 1341 4253 1053 4104 
Q 766 3956 534 3697 
L 534 4234 
Q 981 4675 1691 4675 
Q 2281 4675 2642 4334 
Q 3003 3994 3003 3416 
Q 3003 2919 2772 2545 
Q 2541 2172 1984 1775 
Q 1459 1406 1254 1215 
Q 1050 1025 967 854 
Q 884 684 884 450 
L 3116 450 
L 3116 0 
L 356 0 
L 356 225 
Q 356 603 461 870 
Q 566 1138 811 1392 
Q 1056 1647 1597 2022 
Q 2091 2363 2305 2670 
Q 2519 2978 2519 3372 
z
" transform="scale(0.015625)"/>
        <path id="MalgunGothic-30" d="M 278 2206 
Q 278 3425 675 4050 
Q 1072 4675 1819 4675 
Q 3253 4675 3253 2319 
Q 3253 1156 2854 539 
Q 2456 -78 1716 -78 
Q 1016 -78 647 520 
Q 278 1119 278 2206 
z
M 784 2231 
Q 784 344 1769 344 
Q 2747 344 2747 2259 
Q 2747 4250 1794 4250 
Q 784 4250 784 2231 
z
" transform="scale(0.015625)"/>
       </defs>
       <use xlink:href="#MalgunGothic-32"/>
       <use xlink:href="#MalgunGothic-30" x="55.078125"/>
      </g>
     </g>
    </g>
    <g id="xtick_6">
     <g id="line2d_6">
      <path d="M 437.527612 512.64 
L 437.527612 69.12 
" clip-path="url(#p712d1f0771)" style="fill: none; stroke: #a9a9a9; stroke-opacity: 0.7; stroke-linecap: round"/>
     </g>
     <g id="text_6">
      <!-- 21 -->
      <g style="fill: #262626" transform="translate(429.816674 532.769063) scale(0.14 -0.14)">
       <use xlink:href="#MalgunGothic-32"/>
       <use xlink:href="#MalgunGothic-31" x="55.078125"/>
      </g>
     </g>
    </g>
    <g id="xtick_7">
     <g id="line2d_7">
      <path d="M 497.491791 512.64 
L 497.491791 69.12 
" clip-path="url(#p712d1f0771)" style="fill: none; stroke: #a9a9a9; stroke-opacity: 0.7; stroke-linecap: round"/>
     </g>
     <g id="text_7">
      <!-- 22 -->
      <g style="fill: #262626" transform="translate(489.780854 532.769063) scale(0.14 -0.14)">
       <use xlink:href="#MalgunGothic-32"/>
       <use xlink:href="#MalgunGothic-32" x="55.078125"/>
      </g>
     </g>
    </g>
    <g id="xtick_8">
     <g id="line2d_8">
      <path d="M 557.45597 512.64 
L 557.45597 69.12 
" clip-path="url(#p712d1f0771)" style="fill: none; stroke: #a9a9a9; stroke-opacity: 0.7; stroke-linecap: round"/>
     </g>
     <g id="text_8">
      <!-- 23 -->
      <g style="fill: #262626" transform="translate(549.745033 532.769063) scale(0.14 -0.14)">
       <defs>
        <path id="MalgunGothic-33" d="M 416 719 
Q 891 344 1478 344 
Q 1959 344 2254 587 
Q 2550 831 2550 1247 
Q 2550 2169 1253 2169 
L 872 2169 
L 872 2591 
L 1234 2591 
Q 2388 2591 2388 3453 
Q 2388 4250 1509 4250 
Q 1022 4250 594 3916 
L 594 4413 
Q 1031 4675 1634 4675 
Q 2184 4675 2539 4372 
Q 2894 4069 2894 3581 
Q 2894 2678 1972 2409 
L 1972 2400 
Q 2469 2356 2764 2053 
Q 3059 1750 3059 1300 
Q 3059 672 2604 297 
Q 2150 -78 1450 -78 
Q 806 -78 416 169 
L 416 719 
z
" transform="scale(0.015625)"/>
       </defs>
       <use xlink:href="#MalgunGothic-32"/>
       <use xlink:href="#MalgunGothic-33" x="55.078125"/>
      </g>
     </g>
    </g>
    <g id="xtick_9">
     <g id="line2d_9">
      <path d="M 617.420149 512.64 
L 617.420149 69.12 
" clip-path="url(#p712d1f0771)" style="fill: none; stroke: #a9a9a9; stroke-opacity: 0.7; stroke-linecap: round"/>
     </g>
     <g id="text_9">
      <!-- 24 -->
      <g style="fill: #262626" transform="translate(609.709212 532.769063) scale(0.14 -0.14)">
       <defs>
        <path id="MalgunGothic-34" d="M 2703 4600 
L 2703 1563 
L 3309 1563 
L 3309 1113 
L 2703 1113 
L 2703 0 
L 2213 0 
L 2213 1113 
L 50 1113 
L 50 1534 
Q 728 2297 1295 3109 
Q 1863 3922 2172 4600 
L 2703 4600 
z
M 625 1563 
L 2213 1563 
L 2213 3831 
Q 1613 2788 959 1981 
L 625 1563 
z
" transform="scale(0.015625)"/>
       </defs>
       <use xlink:href="#MalgunGothic-32"/>
       <use xlink:href="#MalgunGothic-34" x="55.078125"/>
      </g>
     </g>
    </g>
    <g id="xtick_10">
     <g id="line2d_10">
      <path d="M 677.384328 512.64 
L 677.384328 69.12 
" clip-path="url(#p712d1f0771)" style="fill: none; stroke: #a9a9a9; stroke-opacity: 0.7; stroke-linecap: round"/>
     </g>
     <g id="text_10">
      <!-- 25 -->
      <g style="fill: #262626" transform="translate(669.673391 532.769063) scale(0.14 -0.14)">
       <defs>
        <path id="MalgunGothic-35" d="M 3072 1403 
Q 3072 722 2636 322 
Q 2200 -78 1469 -78 
Q 828 -78 516 113 
L 516 650 
Q 994 344 1475 344 
Q 1969 344 2270 630 
Q 2572 916 2572 1372 
Q 2572 1838 2265 2092 
Q 1959 2347 1381 2347 
Q 994 2347 603 2300 
L 759 4600 
L 2869 4600 
L 2869 4147 
L 1206 4147 
L 1106 2763 
Q 1347 2784 1547 2784 
Q 2263 2784 2667 2414 
Q 3072 2044 3072 1403 
z
" transform="scale(0.015625)"/>
       </defs>
       <use xlink:href="#MalgunGothic-32"/>
       <use xlink:href="#MalgunGothic-35" x="55.078125"/>
      </g>
     </g>
    </g>
    <g id="xtick_11">
     <g id="line2d_11">
      <path d="M 737.348507 512.64 
L 737.348507 69.12 
" clip-path="url(#p712d1f0771)" style="fill: none; stroke: #a9a9a9; stroke-opacity: 0.7; stroke-linecap: round"/>
     </g>
     <g id="text_11">
      <!-- 26 -->
      <g style="fill: #262626" transform="translate(729.63757 532.769063) scale(0.14 -0.14)">
       <use xlink:href="#MalgunGothic-32"/>
       <use xlink:href="#MalgunGothic-36" x="55.078125"/>
      </g>
     </g>
    </g>
    <g id="xtick_12">
     <g id="line2d_12">
      <path d="M 797.312687 512.64 
L 797.312687 69.12 
" clip-path="url(#p712d1f0771)" style="fill: none; stroke: #a9a9a9; stroke-opacity: 0.7; stroke-linecap: round"/>
     </g>
     <g id="text_12">
      <!-- 27 -->
      <g style="fill: #262626" transform="translate(789.601749 532.769063) scale(0.14 -0.14)">
       <use xlink:href="#MalgunGothic-32"/>
       <use xlink:href="#MalgunGothic-37" x="55.078125"/>
      </g>
     </g>
    </g>
    <g id="xtick_13">
     <g id="line2d_13">
      <path d="M 857.276866 512.64 
L 857.276866 69.12 
" clip-path="url(#p712d1f0771)" style="fill: none; stroke: #a9a9a9; stroke-opacity: 0.7; stroke-linecap: round"/>
     </g>
     <g id="text_13">
      <!-- 28 -->
      <g style="fill: #262626" transform="translate(849.565928 532.769063) scale(0.14 -0.14)">
       <use xlink:href="#MalgunGothic-32"/>
       <use xlink:href="#MalgunGothic-38" x="55.078125"/>
      </g>
     </g>
    </g>
    <g id="xtick_14">
     <g id="line2d_14">
      <path d="M 917.241045 512.64 
L 917.241045 69.12 
" clip-path="url(#p712d1f0771)" style="fill: none; stroke: #a9a9a9; stroke-opacity: 0.7; stroke-linecap: round"/>
     </g>
     <g id="text_14">
      <!-- 29 -->
      <g style="fill: #262626" transform="translate(909.530107 532.769063) scale(0.14 -0.14)">
       <use xlink:href="#MalgunGothic-32"/>
       <use xlink:href="#MalgunGothic-39" x="55.078125"/>
      </g>
     </g>
    </g>
    <g id="text_15">
     <!-- 상대 시간(일) -->
     <g style="fill: #262626" transform="translate(505.8125 552.57125) scale(0.16 -0.16)">
      <defs>
       <path id="MalgunGothic-c0c1" d="M 5125 3391 
L 5125 1991 
L 4659 1991 
L 4659 5466 
L 5125 5466 
L 5125 3816 
L 6034 3816 
L 6034 3391 
L 5125 3391 
z
M 3603 2316 
Q 3206 2528 2778 2934 
Q 2350 3341 2188 3681 
Q 2022 3291 1609 2852 
Q 1197 2413 750 2163 
L 409 2484 
Q 1072 2806 1512 3397 
Q 1953 3988 1953 4628 
L 1953 5259 
L 2400 5259 
L 2400 4628 
Q 2400 4025 2845 3472 
Q 3291 2919 3909 2656 
L 3603 2316 
z
M 3263 -513 
Q 2322 -513 1811 -186 
Q 1300 141 1300 659 
Q 1300 1175 1812 1500 
Q 2325 1825 3263 1825 
Q 4203 1825 4715 1501 
Q 5228 1178 5228 659 
Q 5228 138 4717 -187 
Q 4206 -513 3263 -513 
z
M 3263 1428 
Q 2563 1428 2180 1215 
Q 1797 1003 1797 659 
Q 1797 309 2181 96 
Q 2566 -116 3263 -116 
Q 3969 -116 4353 98 
Q 4738 313 4738 659 
Q 4738 1000 4353 1214 
Q 3969 1428 3263 1428 
z
" transform="scale(0.015625)"/>
       <path id="MalgunGothic-b300" d="M 5069 -563 
L 5069 2572 
L 4294 2572 
L 4294 -378 
L 3834 -378 
L 3834 5344 
L 4294 5344 
L 4294 2988 
L 5069 2988 
L 5069 5466 
L 5538 5466 
L 5538 -563 
L 5069 -563 
z
M 3391 1153 
Q 2516 1063 825 1063 
L 825 4934 
L 3138 4934 
L 3138 4519 
L 1288 4519 
L 1288 1478 
L 1844 1478 
Q 2791 1478 3359 1550 
L 3391 1153 
z
" transform="scale(0.015625)"/>
       <path id="MalgunGothic-20" transform="scale(0.015625)"/>
       <path id="MalgunGothic-c2dc" d="M 4947 -563 
L 4947 5466 
L 5416 5466 
L 5416 -563 
L 4947 -563 
z
M 3769 966 
Q 3263 1353 2820 1939 
Q 2378 2525 2259 2950 
Q 2116 2463 1687 1872 
Q 1259 1281 756 891 
L 397 1203 
Q 1141 1703 1581 2479 
Q 2022 3256 2022 4063 
L 2022 5050 
L 2484 5050 
L 2484 4084 
Q 2484 3303 2920 2556 
Q 3356 1809 4097 1331 
L 3769 966 
z
" transform="scale(0.015625)"/>
       <path id="MalgunGothic-ac04" d="M 5125 3122 
L 5125 1063 
L 4659 1063 
L 4659 5466 
L 5125 5466 
L 5125 3541 
L 6034 3541 
L 6034 3122 
L 5125 3122 
z
M 3513 5100 
Q 3403 3872 2556 3011 
Q 1709 2150 794 1800 
L 469 2163 
Q 1344 2450 2087 3172 
Q 2831 3894 2963 4678 
L 831 4678 
L 831 5100 
L 3513 5100 
z
M 1459 -325 
L 1459 1509 
L 1925 1509 
L 1925 97 
L 5294 97 
L 5294 -325 
L 1459 -325 
z
" transform="scale(0.015625)"/>
       <path id="MalgunGothic-28" d="M 1438 -1044 
Q 447 88 447 1753 
Q 447 3431 1438 4600 
L 1888 4600 
Q 878 3372 878 1759 
Q 878 153 1881 -1044 
L 1438 -1044 
z
" transform="scale(0.015625)"/>
       <path id="MalgunGothic-c77c" d="M 4947 2363 
L 4947 5466 
L 5422 5466 
L 5422 2363 
L 4947 2363 
z
M 2419 2578 
Q 1738 2578 1314 2970 
Q 891 3363 891 3969 
Q 891 4572 1314 4961 
Q 1738 5350 2419 5350 
Q 3097 5350 3523 4959 
Q 3950 4569 3950 3969 
Q 3950 3366 3522 2972 
Q 3094 2578 2419 2578 
z
M 2419 4947 
Q 1931 4947 1643 4680 
Q 1356 4413 1356 3969 
Q 1356 3522 1643 3248 
Q 1931 2975 2419 2975 
Q 2906 2975 3193 3248 
Q 3481 3522 3481 3969 
Q 3481 4413 3193 4680 
Q 2906 4947 2419 4947 
z
M 1703 -422 
L 1703 1038 
L 4959 1038 
L 4959 1613 
L 1703 1613 
L 1703 2028 
L 5422 2028 
L 5422 634 
L 2163 634 
L 2163 -6 
L 5588 -6 
L 5588 -422 
L 1703 -422 
z
" transform="scale(0.015625)"/>
       <path id="MalgunGothic-29" d="M 81 -1044 
Q 1081 150 1081 1759 
Q 1081 3378 72 4600 
L 525 4600 
Q 1522 3431 1522 1753 
Q 1522 88 525 -1044 
L 81 -1044 
z
" transform="scale(0.015625)"/>
      </defs>
      <use xlink:href="#MalgunGothic-c0c1"/>
      <use xlink:href="#MalgunGothic-b300" x="100"/>
      <use xlink:href="#MalgunGothic-20" x="200"/>
      <use xlink:href="#MalgunGothic-c2dc" x="235.15625"/>
      <use xlink:href="#MalgunGothic-ac04" x="335.15625"/>
      <use xlink:href="#MalgunGothic-28" x="435.15625"/>
      <use xlink:href="#MalgunGothic-c77c" x="465.625"/>
      <use xlink:href="#MalgunGothic-29" x="565.625"/>
     </g>
    </g>
   </g>
   <g id="matplotlib.axis_2">
    <g id="ytick_1">
     <g id="text_16">
      <!-- 0.00 -->
      <g style="fill: #262626" transform="translate(99.304688 498.144451) scale(0.14 -0.14)">
       <defs>
        <path id="MalgunGothic-2e" d="M 356 275 
Q 356 422 459 523 
Q 563 625 700 625 
Q 838 625 941 523 
Q 1044 422 1044 275 
Q 1044 138 942 33 
Q 841 -72 700 -72 
Q 559 -72 457 29 
Q 356 131 356 275 
z
" transform="scale(0.015625)"/>
       </defs>
       <use xlink:href="#MalgunGothic-30"/>
       <use xlink:href="#MalgunGothic-2e" x="55.078125"/>
       <use xlink:href="#MalgunGothic-30" x="76.953125"/>
       <use xlink:href="#MalgunGothic-30" x="132.03125"/>
      </g>
     </g>
    </g>
    <g id="ytick_2">
     <g id="text_17">
      <!-- 0.05 -->
      <g style="fill: #262626" transform="translate(99.304688 411.462366) scale(0.14 -0.14)">
       <use xlink:href="#MalgunGothic-30"/>
       <use xlink:href="#MalgunGothic-2e" x="55.078125"/>
       <use xlink:href="#MalgunGothic-30" x="76.953125"/>
       <use xlink:href="#MalgunGothic-35" x="132.03125"/>
      </g>
     </g>
    </g>
    <g id="ytick_3">
     <g id="text_18">
      <!-- 0.10 -->
      <g style="fill: #262626" transform="translate(99.304688 324.780282) scale(0.14 -0.14)">
       <use xlink:href="#MalgunGothic-30"/>
       <use xlink:href="#MalgunGothic-2e" x="55.078125"/>
       <use xlink:href="#MalgunGothic-31" x="76.953125"/>
       <use xlink:href="#MalgunGothic-30" x="132.03125"/>
      </g>
     </g>
    </g>
    <g id="ytick_4">
     <g id="text_19">
      <!-- 0.15 -->
      <g style="fill: #262626" transform="translate(99.304688 238.098198) scale(0.14 -0.14)">
       <use xlink:href="#MalgunGothic-30"/>
       <use xlink:href="#MalgunGothic-2e" x="55.078125"/>
       <use xlink:href="#MalgunGothic-31" x="76.953125"/>
       <use xlink:href="#MalgunGothic-35" x="132.03125"/>
      </g>
     </g>
    </g>
    <g id="ytick_5">
     <g id="text_20">
      <!-- 0.20 -->
      <g style="fill: #262626" transform="translate(99.304688 151.416113) scale(0.14 -0.14)">
       <use xlink:href="#MalgunGothic-30"/>
       <use xlink:href="#MalgunGothic-2e" x="55.078125"/>
       <use xlink:href="#MalgunGothic-32" x="76.953125"/>
       <use xlink:href="#MalgunGothic-30" x="132.03125"/>
      </g>
     </g>
    </g>
    <g id="text_21">
     <!-- 변동성 (이동 표준편차) -->
     <g style="fill: #262626" transform="translate(91.522188 373.38) rotate(-90) scale(0.16 -0.16)">
      <defs>
       <path id="MalgunGothic-bcc0" d="M 1038 2059 
L 1038 5184 
L 1497 5184 
L 1497 4072 
L 3366 4072 
L 3366 5184 
L 3828 5184 
L 3828 4416 
L 4947 4416 
L 4947 5466 
L 5416 5466 
L 5416 1063 
L 4947 1063 
L 4947 2669 
L 3828 2669 
L 3828 2059 
L 1038 2059 
z
M 3828 3084 
L 4947 3084 
L 4947 4000 
L 3828 4000 
L 3828 3084 
z
M 3366 3653 
L 1497 3653 
L 1497 2478 
L 3366 2478 
L 3366 3653 
z
M 1734 -391 
L 1734 1563 
L 2203 1563 
L 2203 25 
L 5606 25 
L 5606 -391 
L 1734 -391 
z
" transform="scale(0.015625)"/>
       <path id="MalgunGothic-b3d9" d="M 403 2119 
L 403 2534 
L 2963 2534 
L 2963 3316 
L 1338 3316 
L 1338 5325 
L 5081 5325 
L 5081 4909 
L 1813 4909 
L 1813 3731 
L 5153 3731 
L 5153 3316 
L 3438 3316 
L 3438 2534 
L 5997 2534 
L 5997 2119 
L 403 2119 
z
M 3200 -513 
Q 2247 -513 1740 -211 
Q 1234 91 1234 603 
Q 1234 1116 1742 1416 
Q 2250 1716 3200 1716 
Q 4150 1716 4658 1416 
Q 5166 1116 5166 603 
Q 5166 91 4659 -211 
Q 4153 -513 3200 -513 
z
M 3200 1319 
Q 2478 1319 2103 1126 
Q 1728 934 1728 603 
Q 1728 272 2104 78 
Q 2481 -116 3200 -116 
Q 3919 -116 4295 78 
Q 4672 272 4672 603 
Q 4672 934 4295 1126 
Q 3919 1319 3200 1319 
z
" transform="scale(0.015625)"/>
       <path id="MalgunGothic-c131" d="M 4947 1984 
L 4947 3781 
L 3541 3781 
L 3541 4200 
L 4947 4200 
L 4947 5466 
L 5416 5466 
L 5416 1984 
L 4947 1984 
z
M 3653 2328 
Q 3244 2550 2831 2950 
Q 2419 3350 2253 3700 
Q 2075 3303 1659 2858 
Q 1244 2413 819 2175 
L 488 2497 
Q 1134 2806 1571 3393 
Q 2009 3981 2009 4628 
L 2009 5269 
L 2463 5269 
L 2463 4628 
Q 2463 4025 2916 3472 
Q 3369 2919 3969 2669 
L 3653 2328 
z
M 3566 -475 
Q 2622 -475 2108 -148 
Q 1594 178 1594 697 
Q 1594 1216 2106 1539 
Q 2619 1863 3566 1863 
Q 4513 1863 5025 1539 
Q 5538 1216 5538 697 
Q 5538 178 5023 -148 
Q 4509 -475 3566 -475 
z
M 3566 1466 
Q 2850 1466 2472 1248 
Q 2094 1031 2094 697 
Q 2094 359 2473 143 
Q 2853 -72 3566 -72 
Q 4275 -72 4656 142 
Q 5038 356 5038 697 
Q 5038 1034 4659 1250 
Q 4281 1466 3566 1466 
z
" transform="scale(0.015625)"/>
       <path id="MalgunGothic-c774" d="M 4947 -563 
L 4947 5466 
L 5416 5466 
L 5416 -563 
L 4947 -563 
z
M 2284 959 
Q 1597 959 1173 1514 
Q 750 2069 750 3016 
Q 750 3975 1169 4522 
Q 1588 5069 2284 5069 
Q 2978 5069 3403 4522 
Q 3828 3975 3828 3016 
Q 3828 2063 3401 1511 
Q 2975 959 2284 959 
z
M 2284 4653 
Q 1803 4653 1503 4204 
Q 1203 3756 1203 3016 
Q 1203 2278 1506 1826 
Q 1809 1375 2284 1375 
Q 2756 1375 3061 1828 
Q 3366 2281 3366 3016 
Q 3366 3759 3067 4206 
Q 2769 4653 2284 4653 
z
" transform="scale(0.015625)"/>
       <path id="MalgunGothic-d45c" d="M 997 4897 
L 5403 4897 
L 5403 4488 
L 997 4488 
L 997 4897 
z
M 4481 2566 
L 5478 2566 
L 5478 2156 
L 4494 2156 
L 4494 756 
L 5997 756 
L 5997 341 
L 403 341 
L 403 756 
L 1906 756 
L 1906 2156 
L 922 2156 
L 922 2566 
L 1919 2566 
L 1844 4172 
L 2303 4172 
L 2381 2566 
L 4019 2566 
L 4097 4172 
L 4556 4172 
L 4481 2566 
z
M 2375 756 
L 4025 756 
L 4025 2156 
L 2375 2156 
L 2375 756 
z
" transform="scale(0.015625)"/>
       <path id="MalgunGothic-c900" d="M 5459 3078 
Q 4725 3191 4092 3536 
Q 3459 3881 3206 4263 
Q 2988 3925 2334 3556 
Q 1681 3188 972 3084 
L 697 3463 
Q 1541 3531 2203 3934 
Q 2866 4338 2963 4800 
L 1025 4800 
L 1025 5222 
L 5375 5222 
L 5375 4800 
L 3438 4800 
Q 3534 4331 4187 3928 
Q 4841 3525 5703 3463 
L 5459 3078 
z
M 3438 2088 
L 3438 603 
L 2963 603 
L 2963 2088 
L 403 2088 
L 403 2503 
L 5997 2503 
L 5997 2088 
L 3438 2088 
z
M 1325 -359 
L 1325 1459 
L 1791 1459 
L 1791 56 
L 5203 56 
L 5203 -359 
L 1325 -359 
z
" transform="scale(0.015625)"/>
       <path id="MalgunGothic-d3b8" d="M 3884 2841 
L 3884 3244 
L 4972 3244 
L 4972 3828 
L 3884 3828 
L 3884 4231 
L 4972 4231 
L 4972 5466 
L 5441 5466 
L 5441 1069 
L 4972 1069 
L 4972 2841 
L 3884 2841 
z
M 794 4678 
L 794 5088 
L 4056 5088 
L 4056 4678 
L 794 4678 
z
M 4306 2075 
Q 3913 1997 3244 1997 
L 647 1997 
L 647 2406 
L 1466 2406 
L 1394 4334 
L 1850 4334 
L 1906 2406 
L 2900 2406 
L 2956 4334 
L 3413 4334 
L 3334 2413 
Q 3925 2413 4275 2478 
L 4306 2075 
z
M 1672 -366 
L 1672 1453 
L 2138 1453 
L 2138 44 
L 5575 44 
L 5575 -366 
L 1672 -366 
z
" transform="scale(0.015625)"/>
       <path id="MalgunGothic-cc28" d="M 3803 972 
Q 3288 1272 2848 1772 
Q 2409 2272 2266 2663 
Q 2144 2278 1692 1715 
Q 1241 1153 775 850 
L 428 1197 
Q 1084 1513 1559 2223 
Q 2034 2934 2034 3597 
L 2034 4206 
L 563 4206 
L 563 4622 
L 2028 4622 
L 2028 5466 
L 2491 5466 
L 2491 4622 
L 3956 4622 
L 3956 4206 
L 2491 4206 
L 2491 3578 
Q 2491 2938 2966 2281 
Q 3441 1625 4122 1338 
L 3803 972 
z
M 5094 2497 
L 5094 -563 
L 4628 -563 
L 4628 5466 
L 5094 5466 
L 5094 2919 
L 6081 2919 
L 6081 2497 
L 5094 2497 
z
" transform="scale(0.015625)"/>
      </defs>
      <use xlink:href="#MalgunGothic-bcc0"/>
      <use xlink:href="#MalgunGothic-b3d9" x="100"/>
      <use xlink:href="#MalgunGothic-c131" x="200"/>
      <use xlink:href="#MalgunGothic-20" x="300"/>
      <use xlink:href="#MalgunGothic-28" x="335.15625"/>
      <use xlink:href="#MalgunGothic-c774" x="365.625"/>
      <use xlink:href="#MalgunGothic-b3d9" x="465.625"/>
      <use xlink:href="#MalgunGothic-20" x="565.625"/>
      <use xlink:href="#MalgunGothic-d45c" x="600.78125"/>
      <use xlink:href="#MalgunGothic-c900" x="700.78125"/>
      <use xlink:href="#MalgunGothic-d3b8" x="800.78125"/>
      <use xlink:href="#MalgunGothic-cc28" x="900.78125"/>
      <use xlink:href="#MalgunGothic-29" x="1000.78125"/>
     </g>
    </g>
   </g>
   <g id="line2d_15">
    <path d="M 135.374776 337.901043 
L 137.498507 337.901043 
L 137.706716 418.7677 
L 137.748358 408.018949 
L 137.956567 356.009613 
L 139.997015 356.009613 
L 140.163582 421.148578 
L 140.246866 406.199876 
L 140.455075 354.085031 
L 142.495522 354.085031 
L 142.620448 392.285444 
L 142.828657 474.033525 
L 142.870299 471.834476 
L 144.99403 471.834476 
L 145.118955 456.541556 
L 145.410448 422.845108 
L 147.492537 422.845108 
L 147.575821 439.13025 
L 147.617463 429.704058 
L 147.950597 278.763877 
L 149.991045 278.763877 
L 150.11597 329.636578 
L 150.449104 484.081818 
L 152.489552 484.081818 
L 152.614478 407.433664 
L 152.90597 242.196813 
L 154.98806 242.196813 
L 155.154627 348.215723 
L 155.196269 326.496723 
L 155.446119 165.126039 
L 157.486567 165.126039 
L 157.611493 266.960674 
L 157.77806 404.386794 
L 157.819701 391.382817 
L 157.944627 375.167955 
L 159.985075 375.167955 
L 160.11 411.416485 
L 160.276567 462.285649 
L 160.318209 458.215294 
L 160.443134 452.588653 
L 162.483582 452.588653 
L 162.525224 458.003484 
L 162.566866 450.627969 
L 162.983284 275.089675 
L 164.98209 275.089675 
L 165.190299 390.031687 
L 165.23194 376.029726 
L 165.440149 304.308333 
L 167.480597 304.308333 
L 167.605522 334.788624 
L 167.938657 421.182969 
L 169.979104 421.182969 
L 170.062388 437.745696 
L 170.10403 427.777097 
L 170.437164 272.027839 
L 172.477612 272.027839 
L 172.644179 363.0233 
L 172.685821 341.245983 
L 172.935672 194.169736 
L 174.976119 194.169736 
L 175.101045 266.05784 
L 175.434179 485.044109 
L 177.474627 485.044109 
L 177.641194 326.511683 
L 177.891045 149.291976 
L 179.973134 149.291976 
L 180.181343 335.515747 
L 180.264627 279.166948 
L 180.431194 210.441205 
L 182.471642 210.441205 
L 182.596567 293.99967 
L 182.763134 430.522485 
L 182.804776 428.338355 
L 182.929701 417.246323 
L 184.970149 417.246323 
L 185.095075 419.636027 
L 185.386567 425.906943 
L 187.468657 425.906943 
L 187.593582 447.06521 
L 187.635224 438.709407 
L 187.926716 357.059385 
L 189.967164 357.059385 
L 190.09209 393.874195 
L 190.300299 476.403034 
L 190.383582 475.333716 
L 192.465672 475.333716 
L 192.548955 478.22687 
L 192.715522 445.507697 
L 192.88209 425.731981 
L 194.964179 425.731981 
L 195.172388 460.176486 
L 195.21403 455.05252 
L 195.422239 431.943133 
L 197.462687 431.943133 
L 197.587612 416.892115 
L 197.879104 380.941702 
L 199.961194 380.941702 
L 200.086119 354.934026 
L 200.377612 292.585877 
L 202.459701 292.585877 
L 202.66791 390.460494 
L 202.709552 371.581233 
L 202.917761 298.097181 
L 204.958209 298.097181 
L 205.083134 356.089065 
L 205.249701 448.853706 
L 205.291343 446.440862 
L 205.416269 438.504209 
L 207.456716 438.504209 
L 207.581642 434.241365 
L 207.873134 423.544956 
L 209.955224 423.544956 
L 210.080149 421.948668 
L 210.371642 417.85869 
L 212.453731 417.85869 
L 212.495373 428.890268 
L 212.537015 428.105132 
L 212.703582 275.661235 
L 212.870149 186.121483 
L 214.952239 186.121483 
L 215.077164 264.083009 
L 215.410299 480.320134 
L 217.450746 480.320134 
L 217.617313 443.991032 
L 217.867164 403.861728 
L 219.949254 403.861728 
L 220.074179 435.242493 
L 220.115821 430.151888 
L 220.448955 337.813562 
L 222.447761 337.813562 
L 222.572687 368.502685 
L 222.905821 458.099957 
L 224.946269 458.099957 
L 224.98791 463.21179 
L 225.029552 463.061836 
L 225.196119 393.614587 
L 225.362687 352.597853 
L 227.444776 352.597853 
L 227.569701 369.245985 
L 227.861194 415.059298 
L 229.943284 415.059298 
L 230.068209 389.013484 
L 230.359701 328.015688 
L 232.441791 328.015688 
L 232.566716 379.752741 
L 232.733284 446.22614 
L 232.774925 438.747706 
L 232.899851 430.280994 
L 234.940299 430.280994 
L 235.065224 409.477522 
L 235.356716 360.733588 
L 237.438806 360.733588 
L 237.563731 377.261991 
L 237.855224 422.932589 
L 239.937313 422.932589 
L 240.020597 437.076482 
L 240.145522 358.617644 
L 240.353731 251.38232 
L 242.435821 251.38232 
L 242.602388 367.980633 
L 242.685672 405.881876 
L 242.727313 395.381624 
L 242.893881 360.296183 
L 244.934328 360.296183 
L 245.100896 418.271729 
L 245.142537 409.110866 
L 245.392388 328.103169 
L 247.432836 328.103169 
L 247.599403 396.291621 
L 247.641045 380.366721 
L 247.890896 271.24051 
L 249.931343 271.24051 
L 250.139552 386.287528 
L 250.181194 370.405626 
L 250.389403 295.38527 
L 252.429851 295.38527 
L 252.596418 390.124444 
L 252.679701 424.295535 
L 252.721343 417.701588 
L 252.88791 390.477133 
L 254.928358 390.477133 
L 255.053284 349.511359 
L 255.344776 254.794079 
L 257.426866 254.794079 
L 257.551791 308.517269 
L 257.884925 469.55997 
L 259.925373 469.559969 
L 259.967015 463.41693 
L 260.425075 191.89523 
L 262.423881 191.89523 
L 262.590448 338.75829 
L 262.673731 375.323565 
L 262.715373 356.40988 
L 262.88194 308.33246 
L 264.922388 308.33246 
L 265.088955 394.229041 
L 265.172239 366.531182 
L 265.380448 291.711067 
L 267.420896 291.711067 
L 267.587463 378.441838 
L 267.629104 362.972271 
L 267.878955 237.122914 
L 269.919403 237.122914 
L 270.127612 368.811617 
L 270.169254 349.618676 
L 270.377463 261.967522 
L 272.41791 261.967522 
L 272.542836 319.435103 
L 272.87597 489.505641 
L 274.916418 489.505641 
L 275.457761 374.118183 
L 277.414925 374.118183 
L 277.539851 409.535618 
L 277.706418 465.837229 
L 277.74806 464.211859 
L 277.872985 459.324691 
L 279.913433 459.324691 
L 280.038358 447.405071 
L 280.329851 419.60831 
L 282.41194 419.60831 
L 282.495224 430.643419 
L 282.661791 287.433651 
L 282.828358 202.21799 
L 284.910448 202.21799 
L 285.035373 297.460571 
L 285.160299 396.841466 
L 285.20194 391.68203 
L 285.368507 354.959841 
L 287.408955 354.959841 
L 287.617164 422.950474 
L 287.658806 410.365828 
L 287.867015 360.296183 
L 289.907463 360.296183 
L 290.115672 430.775835 
L 290.157313 422.71331 
L 290.365522 379.629487 
L 292.40597 379.629487 
L 292.530896 395.698816 
L 292.822388 440.603754 
L 294.904478 440.603754 
L 294.987761 452.310053 
L 295.029403 444.027209 
L 295.362537 326.615992 
L 297.402985 326.615992 
L 297.52791 373.783862 
L 297.736119 464.546396 
L 297.777761 459.937058 
L 299.901493 459.937058 
L 300.026418 405.18455 
L 300.31791 292.585877 
L 302.4 292.585877 
L 302.524925 342.502736 
L 302.85806 489.593122 
L 304.898507 489.593122 
L 305.106716 460.075703 
L 305.314925 442.178412 
L 307.397015 442.178412 
L 307.563582 464.963243 
L 307.605224 462.328718 
L 307.855075 432.992906 
L 309.895522 432.992906 
L 310.020448 404.410709 
L 310.31194 339.213258 
L 312.39403 339.213258 
L 312.518955 388.929468 
L 312.560597 371.577527 
L 312.85209 189.008356 
L 314.892537 189.008356 
L 315.100746 349.272043 
L 315.142388 329.630081 
L 315.350597 229.424585 
L 317.391045 229.424585 
L 317.51597 308.507867 
L 317.682537 431.466986 
L 317.724179 426.705703 
L 317.849104 415.496703 
L 319.889552 415.496703 
L 320.014478 429.950426 
L 320.347612 471.746995 
L 322.38806 471.746995 
L 322.554627 365.369459 
L 322.804478 250.682472 
L 324.886567 250.682472 
L 325.094776 375.043942 
L 325.136418 356.596246 
L 325.344627 273.252573 
L 327.385075 273.252573 
L 327.51 279.726382 
L 327.801493 296.697485 
L 329.883582 296.697485 
L 330.050149 371.674393 
L 330.091791 346.6691 
L 330.341642 205.454787 
L 332.38209 205.454787 
L 332.507015 282.631994 
L 332.715224 460.307603 
L 332.798507 459.762096 
L 334.880597 459.762096 
L 334.963881 465.791561 
L 335.088806 424.963736 
L 335.297015 371.493752 
L 337.379104 371.493752 
L 337.50403 414.519853 
L 337.545672 408.112089 
L 337.878806 283.662814 
L 339.877612 283.662814 
L 340.002537 314.791661 
L 340.29403 402.199588 
L 342.376119 402.199588 
L 342.501045 431.316614 
L 342.542687 420.731126 
L 342.834179 312.094144 
L 344.874627 312.094144 
L 345.041194 398.055447 
L 345.124478 432.634794 
L 345.166119 428.914889 
L 345.332687 405.698829 
L 347.373134 405.698829 
L 347.49806 425.258584 
L 347.831194 483.819375 
L 349.871642 483.819375 
L 349.954925 454.596437 
L 350.28806 305.445587 
L 352.370149 305.445587 
L 352.495075 374.553529 
L 352.536716 372.105532 
L 352.869851 201.255698 
L 354.868657 201.255698 
L 355.035224 335.965754 
L 355.076866 326.492995 
L 355.326716 168.450318 
L 357.367164 168.450318 
L 357.575373 334.072623 
L 357.617015 308.601981 
L 357.825224 196.006838 
L 359.865672 196.006838 
L 360.032239 332.410852 
L 360.073881 321.511765 
L 360.323731 158.215039 
L 362.364179 158.215039 
L 362.530746 311.173519 
L 362.572388 297.542109 
L 362.822239 110.887811 
L 364.862687 110.887811 
L 364.987612 210.082993 
L 365.279104 466.498134 
L 367.361194 466.498134 
L 367.486119 430.295929 
L 367.777612 354.697398 
L 369.859701 354.697398 
L 369.984627 399.52552 
L 370.109552 448.273771 
L 370.151194 447.01881 
L 370.317761 430.455956 
L 372.358209 430.455956 
L 372.399851 439.582972 
L 372.441493 436.84701 
L 372.899552 220.32656 
L 374.856716 220.32656 
L 375.023284 345.008326 
L 375.064925 334.095638 
L 375.314776 182.44728 
L 377.355224 182.44728 
L 377.563433 362.689068 
L 377.646716 337.855203 
L 377.813284 284.537624 
L 379.853731 284.537624 
L 380.06194 401.310866 
L 380.145224 374.261033 
L 380.311791 335.014169 
L 382.352239 335.014169 
L 382.477164 356.927696 
L 382.768657 418.033652 
L 384.850746 418.033652 
L 384.93403 431.544195 
L 385.058955 338.529142 
L 385.267164 217.089762 
L 387.349254 217.089762 
L 387.474179 283.013711 
L 387.807313 483.469451 
L 389.847761 483.469451 
L 389.972687 486.80973 
L 390.014328 486.366488 
L 390.347463 476.908375 
L 392.346269 476.908375 
L 392.512836 422.478904 
L 392.762687 362.833132 
L 394.844776 362.833132 
L 394.969701 338.312871 
L 395.261194 278.851358 
L 397.343284 278.851358 
L 397.509851 368.118345 
L 397.551493 348.180231 
L 397.801343 207.816774 
L 399.841791 207.816774 
L 399.966716 251.585665 
L 400.299851 374.905512 
L 402.340299 374.905512 
L 402.423582 401.433446 
L 402.465224 382.986731 
L 402.798358 118.848583 
L 404.838806 118.848583 
L 404.963731 232.504566 
L 405.130299 401.289783 
L 405.17194 391.513304 
L 405.296866 374.643069 
L 407.337313 374.643069 
L 407.462239 383.296568 
L 407.753731 406.486158 
L 409.835821 406.486158 
L 409.960746 382.944621 
L 410.252239 327.053397 
L 412.334328 327.053397 
L 412.459254 371.886356 
L 412.667463 473.145028 
L 412.750746 472.096919 
L 414.832836 472.096919 
L 414.957761 478.812738 
L 415.082687 486.170686 
L 415.124328 486.016938 
L 415.290896 483.556932 
L 417.331343 483.556932 
L 417.49791 307.062462 
L 417.747761 108.700785 
L 419.829851 108.700785 
L 419.954776 213.433443 
L 420.162985 444.456591 
L 420.204627 440.25383 
L 422.328358 440.25383 
L 422.494925 289.117788 
L 422.744776 122.08538 
L 424.826866 122.08538 
L 424.951791 232.181412 
L 425.118358 409.972809 
L 425.16 406.135202 
L 425.284925 391.264462 
L 427.325373 391.264462 
L 427.450299 386.942939 
L 427.741791 375.955284 
L 429.823881 375.955284 
L 429.948806 365.225507 
L 430.240299 338.425929 
L 432.322388 338.425929 
L 432.447313 373.003817 
L 432.780448 476.47097 
L 434.820896 476.47097 
L 434.987463 484.029526 
L 435.029104 483.499042 
L 435.278955 474.633868 
L 437.319403 474.633868 
L 437.569254 206.263305 
L 437.735821 117.71133 
L 439.81791 117.71133 
L 440.026119 329.773599 
L 440.109403 284.838504 
L 440.27597 215.427623 
L 442.316418 215.427623 
L 442.441343 300.154732 
L 442.60791 423.474597 
L 442.649552 415.343565 
L 442.774478 402.549513 
L 444.814925 402.549513 
L 444.898209 425.706949 
L 444.939851 421.512022 
L 445.314627 258.730725 
L 447.313433 258.730725 
L 447.48 367.935704 
L 447.563284 333.535052 
L 447.771493 239.047497 
L 449.81194 239.047497 
L 449.978507 362.75571 
L 450.061791 394.804609 
L 450.103433 379.468638 
L 450.27 339.38822 
L 452.310448 339.38822 
L 452.477015 404.889373 
L 452.518657 392.283241 
L 452.768507 294.772903 
L 454.808955 294.772903 
L 454.933881 338.258745 
L 455.267015 467.810349 
L 457.307463 467.810349 
L 457.432388 459.296287 
L 457.723881 439.37902 
L 459.80597 439.37902 
L 459.930896 442.930567 
L 460.222388 452.413691 
L 462.304478 452.413691 
L 462.471045 471.128621 
L 462.512687 469.890227 
L 462.762537 448.127121 
L 464.802985 448.127121 
L 464.92791 384.435791 
L 465.219403 251.819725 
L 467.301493 251.819725 
L 467.426418 300.030455 
L 467.759552 441.041159 
L 469.8 441.041159 
L 469.883284 454.094674 
L 469.924925 450.616838 
L 470.299701 352.772815 
L 472.298507 352.772815 
L 472.423433 383.490908 
L 472.756567 474.983792 
L 474.797015 474.983792 
L 474.963582 483.648062 
L 475.046866 486.1625 
L 475.088507 485.222168 
L 475.255075 482.50716 
L 477.295522 482.50716 
L 477.545373 312.097215 
L 477.71194 255.931332 
L 479.79403 255.931332 
L 479.918955 327.958072 
L 480.085522 434.737759 
L 480.127164 428.478711 
L 480.25209 417.771209 
L 482.292537 417.771209 
L 482.417463 423.608924 
L 482.708955 439.291539 
L 484.791045 439.291539 
L 484.91597 437.617618 
L 485.207463 433.34283 
L 487.289552 433.34283 
L 487.414478 396.29446 
L 487.70597 313.581321 
L 489.78806 313.581321 
L 489.912985 358.856537 
L 490.246119 486.968691 
L 492.286567 486.968691 
L 492.786269 156.5529 
L 494.785075 156.5529 
L 494.91 255.895857 
L 495.076567 419.051753 
L 495.118209 416.85442 
L 495.243134 403.774247 
L 497.283582 403.774247 
L 497.450149 447.211779 
L 497.533433 458.236237 
L 497.575075 452.741684 
L 497.741642 438.59169 
L 499.78209 438.59169 
L 499.865373 451.355461 
L 499.907015 444.478543 
L 500.281791 329.152941 
L 502.280597 329.152941 
L 502.405522 323.75935 
L 502.697015 309.994599 
L 504.779104 309.994599 
L 504.90403 367.214981 
L 504.945672 343.494539 
L 505.237164 118.061254 
L 507.277612 118.061254 
L 507.402537 217.713155 
L 507.69403 454.95064 
L 509.776119 454.95064 
L 509.901045 414.69427 
L 510.192537 328.803017 
L 512.274627 328.803017 
L 512.399552 365.116351 
L 512.732687 473.496615 
L 514.773134 473.496615 
L 514.939701 410.41642 
L 515.189552 341.13784 
L 517.271642 341.13784 
L 517.396567 388.548072 
L 517.438209 368.772389 
L 517.729701 181.484989 
L 519.770149 181.484989 
L 519.978358 359.561225 
L 520.061642 327.135864 
L 520.228209 271.153029 
L 522.268657 271.153029 
L 522.435224 369.877008 
L 522.476866 356.916023 
L 522.726716 225.837863 
L 524.767164 225.837863 
L 524.89209 310.624013 
L 525.058657 413.105222 
L 525.225224 385.05331 
L 527.265672 385.05331 
L 527.390597 408.634349 
L 527.723731 478.832957 
L 529.764179 478.832957 
L 529.972388 346.569464 
L 530.180597 266.429054 
L 532.262687 266.429054 
L 532.387612 319.610683 
L 532.720746 480.582577 
L 534.761194 480.582577 
L 534.844478 440.832427 
L 535.177612 237.997724 
L 537.259701 237.997724 
L 537.384627 272.725418 
L 537.676119 369.394208 
L 539.758209 369.394208 
L 539.883134 406.216951 
L 540.00806 314.893017 
L 540.174627 228.549775 
L 542.256716 228.549775 
L 542.381642 298.297903 
L 542.673134 468.860121 
L 544.755224 468.860121 
L 544.838507 475.034775 
L 544.880149 474.057307 
L 545.254925 431.418247 
L 547.253731 431.418247 
L 547.337015 440.477753 
L 547.503582 319.262695 
L 547.670149 247.358193 
L 549.752239 247.358193 
L 549.877164 292.3891 
L 550.210299 422.232741 
L 552.250746 422.232741 
L 552.375672 442.709015 
L 552.542239 366.866521 
L 552.708806 338.250967 
L 554.749254 338.250967 
L 554.957463 426.338063 
L 555.040746 409.440393 
L 555.207313 381.379107 
L 557.247761 381.379107 
L 557.372687 414.621873 
L 557.539254 467.512249 
L 557.580896 466.00619 
L 557.705821 461.424235 
L 559.746269 461.424235 
L 559.871194 458.573687 
L 560.162687 451.4514 
L 562.244776 451.4514 
L 562.411343 333.460431 
L 562.661194 203.005319 
L 564.743284 203.005319 
L 564.868209 289.648076 
L 565.034776 426.42504 
L 565.076418 422.046691 
L 565.201343 409.985399 
L 567.241791 409.985399 
L 567.366716 372.557753 
L 567.658209 286.81213 
L 569.740299 286.81213 
L 569.906866 383.461758 
L 569.990149 355.141789 
L 570.198358 273.165092 
L 572.238806 273.165092 
L 572.447015 386.010096 
L 572.488657 369.298945 
L 572.696866 293.723131 
L 574.737313 293.723131 
L 574.862239 322.353548 
L 575.153731 402.462032 
L 577.235821 402.462032 
L 577.360746 419.805348 
L 577.693881 470.172337 
L 579.734328 470.172337 
L 579.817612 474.990715 
L 579.942537 451.023787 
L 580.150746 417.333804 
L 582.232836 417.333804 
L 582.357761 392.706776 
L 582.649254 334.926688 
L 584.731343 334.926688 
L 584.89791 411.523437 
L 584.981194 434.20842 
L 585.022836 426.129813 
L 585.189403 402.287069 
L 587.229851 402.287069 
L 587.354776 388.179171 
L 587.646269 353.647625 
L 589.728358 353.647625 
L 589.853284 383.2735 
L 590.186418 470.959666 
L 592.226866 470.959666 
L 592.268507 469.333615 
L 592.768209 268.528598 
L 594.725373 268.528598 
L 594.850299 333.833466 
L 595.058507 446.938583 
L 595.183433 439.029096 
L 597.223881 439.029096 
L 597.348806 455.205558 
L 597.473731 415.838387 
L 597.640299 378.404753 
L 599.722388 378.404753 
L 599.972239 445.74862 
L 600.013881 437.286566 
L 600.180448 418.033652 
L 602.220896 418.033652 
L 602.429104 460.788873 
L 602.512388 452.936481 
L 602.678955 439.466501 
L 604.719403 439.466501 
L 604.761045 447.084415 
L 604.802687 441.542615 
L 605.219104 234.848408 
L 607.21791 234.848408 
L 607.342836 292.61147 
L 607.67597 465.448362 
L 609.716418 465.448362 
L 609.75806 461.524482 
L 610.257761 183.672015 
L 612.214925 183.672015 
L 612.423134 359.405412 
L 612.506418 324.563387 
L 612.672985 268.091193 
L 614.713433 268.091193 
L 614.838358 338.719834 
L 615.004925 428.941888 
L 615.046567 418.603515 
L 615.171493 407.011044 
L 617.21194 407.011044 
L 617.420149 454.700964 
L 617.503433 442.712087 
L 617.67 426.256867 
L 619.710448 426.256867 
L 619.835373 436.392703 
L 620.168507 464.923476 
L 622.208955 464.923476 
L 622.250597 469.025526 
L 622.292239 468.445481 
L 622.500448 395.210776 
L 622.667015 376.217727 
L 624.707463 376.217727 
L 624.87403 424.427602 
L 624.915672 413.088299 
L 625.165522 335.714018 
L 627.20597 335.714018 
L 627.330896 384.238313 
L 627.497463 451.587842 
L 627.539104 445.918543 
L 627.66403 438.329247 
L 629.704478 438.329247 
L 629.829403 425.901677 
L 630.120896 396.075917 
L 632.202985 396.075917 
L 632.32791 379.05654 
L 632.619403 337.6386 
L 634.701493 337.6386 
L 634.826418 387.902645 
L 634.951343 442.996025 
L 634.992985 441.860027 
L 635.159552 423.457475 
L 637.2 423.457475 
L 637.324925 436.467398 
L 637.65806 474.108982 
L 639.698507 474.108982 
L 639.823433 480.616877 
L 639.865075 479.334728 
L 640.156567 459.324691 
L 642.197015 459.324691 
L 642.32194 452.218063 
L 642.613433 435.09245 
L 644.695522 435.09245 
L 644.737164 443.543242 
L 644.778806 441.06961 
L 645.236866 241.05956 
L 647.19403 241.05956 
L 647.360597 347.023386 
L 647.402239 324.59753 
L 647.65209 161.364356 
L 649.692537 161.364356 
L 649.859104 318.080325 
L 649.942388 277.216351 
L 650.150597 148.154723 
L 652.191045 148.154723 
L 652.399254 327.281647 
L 652.440896 302.721591 
L 652.649104 186.208964 
L 654.689552 186.208964 
L 654.897761 352.963296 
L 654.981045 303.575321 
L 655.147612 242.546737 
L 657.18806 242.546737 
L 657.396269 379.648237 
L 657.479552 341.03176 
L 657.646119 291.798548 
L 659.686567 291.798548 
L 659.811493 365.602245 
L 659.853134 361.860681 
L 660.186269 175.273837 
L 662.185075 175.273837 
L 662.351642 322.833384 
L 662.393284 314.031745 
L 662.643134 144.830444 
L 664.683582 144.830444 
L 664.850149 312.993915 
L 664.933433 366.989731 
L 664.975075 351.480185 
L 665.141642 300.634131 
L 667.18209 300.634131 
L 667.307015 330.085929 
L 667.640149 413.047234 
L 669.680597 413.047234 
L 669.805522 439.690851 
L 669.847164 432.093951 
L 670.138657 341.050359 
L 672.179104 341.050359 
L 672.30403 368.933905 
L 672.637164 449.351855 
L 674.677612 449.351855 
L 674.802537 464.57626 
L 674.844179 461.837802 
L 675.135672 416.021589 
L 677.176119 416.021589 
L 677.301045 437.323393 
L 677.467612 351.082553 
L 677.634179 319.180106 
L 679.674627 319.180106 
L 679.882836 403.480361 
L 679.924478 386.721347 
L 680.132687 322.504384 
L 682.173134 322.504384 
L 682.29806 369.325117 
L 682.506269 470.031019 
L 682.54791 467.460425 
L 684.671642 467.460425 
L 684.713284 470.129857 
L 684.796567 441.873716 
L 685.08806 325.56622 
L 687.170149 325.56622 
L 687.295075 377.835398 
L 687.461642 446.514956 
L 687.503284 439.34552 
L 687.628209 430.893361 
L 689.668657 430.893361 
L 689.793582 427.347998 
L 690.085075 418.383576 
L 692.167164 418.383576 
L 692.29209 445.101721 
L 692.333731 441.961308 
L 692.666866 367.81955 
L 694.665672 367.81955 
L 694.790597 407.850757 
L 694.832239 393.039665 
L 695.123731 242.634218 
L 697.164179 242.634218 
L 697.289104 300.887939 
L 697.622239 476.820894 
L 699.662687 476.820894 
L 699.704328 472.497471 
L 700.162388 284.537624 
L 702.161194 284.537624 
L 702.286119 344.540592 
L 702.494328 453.290164 
L 702.53597 446.552463 
L 704.659701 446.552463 
L 704.742985 457.023242 
L 704.784627 449.947294 
L 705.117761 346.911587 
L 707.158209 346.911587 
L 707.324776 414.163968 
L 707.366418 409.139873 
L 707.616269 329.502866 
L 709.656716 329.502866 
L 709.781642 343.551897 
L 710.073134 381.466588 
L 712.155224 381.466588 
L 712.238507 410.500456 
L 712.280149 407.97911 
L 712.696567 218.66442 
L 714.653731 218.66442 
L 714.778657 288.096897 
L 715.111791 482.944565 
L 717.152239 482.944565 
L 717.277164 479.065918 
L 717.568657 470.084856 
L 719.650746 470.084856 
L 719.817313 392.279569 
L 720.067164 307.020245 
L 722.149254 307.020245 
L 722.315821 379.07511 
L 722.357463 356.31048 
L 722.607313 224.263205 
L 724.647761 224.263205 
L 724.85597 368.956728 
L 724.897612 354.365959 
L 725.105821 269.228447 
L 727.146269 269.228447 
L 727.354478 380.945562 
L 727.396119 361.560389 
L 727.604328 281.650751 
L 729.644776 281.650751 
L 729.769701 357.168659 
L 729.811343 347.565384 
L 730.144478 135.295014 
L 732.143284 135.295014 
L 732.351493 336.348629 
L 732.434776 291.199339 
L 732.601343 224.263205 
L 734.641791 224.263205 
L 734.766716 288.96224 
L 735.099851 486.093882 
L 737.140299 486.093882 
L 737.265224 411.447509 
L 737.556716 255.75637 
L 739.638806 255.75637 
L 739.805373 356.189585 
L 739.847015 335.817669 
L 740.096866 183.497052 
L 742.137313 183.497053 
L 742.345522 358.52073 
L 742.428806 321.804201 
L 742.595373 264.679434 
L 744.635821 264.679434 
L 744.760746 299.759699 
L 745.093881 398.612867 
L 747.134328 398.612867 
L 747.342537 444.882175 
L 747.384179 436.148225 
L 747.592388 401.762183 
L 749.632836 401.762183 
L 749.757761 360.163012 
L 750.049254 264.941877 
L 752.131343 264.941877 
L 752.29791 367.642828 
L 752.339552 356.070222 
L 752.589403 224.613129 
L 754.629851 224.613129 
L 754.754776 273.710723 
L 755.08791 415.23426 
L 757.128358 415.23426 
L 757.17 426.593158 
L 757.211642 423.310422 
L 757.669701 154.80328 
L 759.626866 154.80328 
L 759.751791 239.584209 
L 760.084925 484.781666 
L 762.125373 484.781666 
L 762.208657 486.850973 
L 762.250299 486.502059 
L 762.625075 472.096919 
L 764.623881 472.096919 
L 764.707164 475.874083 
L 764.83209 450.258807 
L 765.040299 416.721437 
L 767.122388 416.721437 
L 767.247313 373.343881 
L 767.538806 275.789523 
L 769.620896 275.789523 
L 769.829104 394.22916 
L 769.912388 359.956224 
L 770.078955 316.99308 
L 772.119403 316.99308 
L 772.28597 391.003453 
L 772.327612 375.346894 
L 772.577463 261.355155 
L 774.61791 261.355155 
L 774.784478 374.166223 
L 774.867761 403.586232 
L 774.909403 389.694818 
L 775.07597 353.21022 
L 777.116418 353.21022 
L 777.282985 417.963491 
L 777.324627 413.867822 
L 777.574478 339.038296 
L 779.614925 339.038296 
L 779.698209 379.332694 
L 779.739851 377.205817 
L 780.156269 121.822937 
L 782.113433 121.822937 
L 782.238358 215.972838 
L 782.571493 478.483033 
L 784.61194 478.483033 
L 784.861791 264.767767 
L 785.028358 194.257217 
L 787.110448 194.257217 
L 787.277015 335.316339 
L 787.360299 298.082777 
L 787.568507 181.57247 
L 789.608955 181.57247 
L 789.733881 266.843289 
L 789.94209 452.217241 
L 789.983731 448.03964 
L 792.107463 448.03964 
L 792.357313 474.478502 
L 792.440597 466.881538 
L 792.565522 463.698742 
L 794.60597 463.698742 
L 794.647612 453.895218 
L 795.105672 89.28 
L 797.104478 89.28 
L 797.312687 302.807765 
L 797.354328 277.296888 
L 797.562537 144.917925 
L 799.602985 144.917925 
L 799.72791 229.960944 
L 800.061045 490.118009 
L 802.101493 490.118009 
L 802.226418 462.9202 
L 802.51791 405.436386 
L 804.6 405.436386 
L 804.724925 395.841237 
L 805.016418 372.018638 
L 807.098507 372.018638 
L 807.223433 389.64316 
L 807.514925 439.029096 
L 809.597015 439.029096 
L 809.638657 445.020263 
L 809.72194 388.417622 
L 810.013433 148.942052 
L 812.095522 148.942052 
L 812.303731 347.222204 
L 812.387015 315.587005 
L 812.553582 255.144003 
L 814.59403 255.144003 
L 814.718955 305.255359 
L 815.05209 453.288501 
L 817.092537 453.288501 
L 817.217463 465.917183 
L 817.38403 480.695804 
L 817.550597 476.383489 
L 819.591045 476.383489 
L 819.71597 450.681973 
L 820.007463 397.563095 
L 822.089552 397.563095 
L 822.214478 399.525568 
L 822.50597 404.649057 
L 824.58806 404.649057 
L 824.671343 426.209432 
L 824.712985 417.69177 
L 825.087761 240.622155 
L 827.086567 240.622155 
L 827.294776 369.045318 
L 827.336418 348.972926 
L 827.544627 261.092712 
L 829.585075 261.092712 
L 829.751642 366.190243 
L 829.793284 355.427913 
L 830.043134 223.650838 
L 832.083582 223.650838 
L 832.250149 337.824988 
L 832.291791 314.855272 
L 832.541642 142.206014 
L 834.58209 142.206014 
L 834.748657 309.298287 
L 834.83194 271.726469 
L 835.040149 138.619292 
L 837.080597 138.619292 
L 837.288806 329.318191 
L 837.330448 309.943625 
L 837.538657 197.494015 
L 839.579104 197.494015 
L 839.787313 351.141047 
L 839.828955 330.229962 
L 840.037164 230.561838 
L 842.077612 230.561838 
L 842.244179 349.970291 
L 842.285821 338.517428 
L 842.535672 190.757977 
L 844.576119 190.757977 
L 844.701045 261.015783 
L 845.034179 473.146691 
L 847.074627 473.146691 
L 847.116269 471.417076 
L 847.61597 286.81213 
L 849.573134 286.81213 
L 849.69806 318.859751 
L 850.031194 409.285551 
L 852.071642 409.285551 
L 852.196567 411.677685 
L 852.48806 417.946171 
L 854.570149 417.946171 
L 854.778358 457.121825 
L 854.82 452.001588 
L 855.028209 426.956716 
L 857.068657 426.956716 
L 857.193582 428.673774 
L 857.485075 433.167868 
L 859.567164 433.167868 
L 859.650448 448.725005 
L 859.69209 447.390137 
L 860.108507 346.036777 
L 862.065672 346.036777 
L 862.273881 426.153996 
L 862.357164 402.994002 
L 862.523731 373.943221 
L 864.564179 373.943221 
L 864.81403 445.07726 
L 864.897313 425.666427 
L 865.022239 417.333804 
L 867.062687 417.333804 
L 867.14597 437.240762 
L 867.187612 437.205462 
L 867.60403 316.468194 
L 869.561194 316.468194 
L 869.686119 336.05278 
L 869.977612 389.689803 
L 872.059701 389.689803 
L 872.184627 427.701287 
L 872.226269 426.262553 
L 872.559403 331.952334 
L 874.558209 331.952334 
L 874.683134 342.305378 
L 874.974627 369.919094 
L 877.056716 369.919094 
L 877.181642 411.7719 
L 877.223284 401.577935 
L 877.514776 265.379282 
L 879.555224 265.379282 
L 879.680149 300.11247 
L 880.013284 397.913019 
L 882.053731 397.913019 
L 882.137015 417.66704 
L 882.26194 314.492387 
L 882.470149 171.337191 
L 884.552239 171.337191 
L 884.677164 235.837798 
L 885.010299 424.594728 
L 887.050746 424.594728 
L 887.217313 457.274895 
L 887.300597 469.369306 
L 887.342239 467.281007 
L 887.508806 458.012476 
L 889.549254 458.012476 
L 889.674179 396.092168 
L 889.965672 269.403409 
L 892.047761 269.403409 
L 892.172687 324.300034 
L 892.505821 492.48 
L 894.546269 492.48 
L 895.04597 300.896574 
L 897.044776 300.896574 
L 897.169701 359.193254 
L 897.336269 445.962743 
L 897.37791 441.016097 
L 897.502836 432.380538 
L 899.543284 432.380538 
L 899.668209 435.520038 
L 899.959701 443.840551 
L 902.041791 443.840551 
L 902.166716 461.401011 
L 902.208358 459.279403 
L 902.541493 410.335323 
L 904.540299 410.335323 
L 904.665224 414.695604 
L 904.956716 426.256867 
L 907.038806 426.256867 
L 907.163731 449.034465 
L 907.205373 443.725964 
L 907.496866 370.531461 
L 909.537313 370.531461 
L 909.745522 429.59674 
L 909.787164 417.591122 
L 909.995373 372.10612 
L 912.035821 372.106119 
L 912.202388 418.304857 
L 912.24403 402.957054 
L 912.493881 316.11827 
L 914.534328 316.11827 
L 914.659254 305.725795 
L 914.950746 279.463725 
L 917.032836 279.463725 
L 917.199403 383.623369 
L 917.282687 409.266277 
L 917.324328 395.715203 
L 917.490896 361.520917 
L 919.531343 361.520917 
L 919.656269 331.356282 
L 919.947761 258.993168 
L 922.029851 258.993168 
L 922.154776 322.538856 
L 922.362985 464.084518 
L 922.446269 461.949121 
L 924.528358 461.949121 
L 924.653284 432.427291 
L 924.944776 368.869322 
L 927.026866 368.869322 
L 927.151791 346.690061 
L 927.443284 292.760839 
L 929.525373 292.760839 
L 929.650299 339.386269 
L 929.983433 480.232653 
L 932.023881 480.232653 
L 932.148806 377.874159 
L 932.440299 154.540837 
L 934.522388 154.540837 
L 934.647313 264.964288 
L 934.772239 382.205804 
L 934.813881 377.397282 
L 934.980448 335.539055 
L 937.020896 335.539055 
L 937.145821 342.366249 
L 937.437313 360.383664 
L 939.519403 360.383664 
L 939.602687 393.529646 
L 939.644328 383.640492 
L 940.019104 129.346305 
L 942.01791 129.346305 
L 942.226119 313.357173 
L 942.267761 283.614746 
L 942.47597 155.940533 
L 944.516418 155.940533 
L 944.641343 226.420243 
L 944.974478 434.305121 
L 947.014925 434.305121 
L 947.098209 448.065885 
L 947.139851 440.609598 
L 947.514627 316.030789 
L 949.513433 316.030789 
L 949.68 398.636805 
L 949.763284 373.116672 
L 949.971493 302.033827 
L 952.01194 302.033827 
L 952.136866 356.987988 
L 952.345075 456.652229 
L 952.386716 450.489108 
L 954.510448 450.489108 
L 954.635373 388.04242 
L 954.926866 258.380801 
L 957.008955 258.380801 
L 957.133881 308.650865 
L 957.467015 457.662552 
L 959.507463 457.662552 
L 959.590746 464.56486 
L 959.715672 423.833303 
L 959.923881 368.956803 
L 962.00597 368.956803 
L 962.130896 394.717012 
L 962.46403 470.609742 
L 964.504478 470.609742 
L 964.629403 467.028028 
L 964.920896 458.274919 
L 967.002985 458.274919 
L 967.044627 461.985391 
L 967.12791 424.229484 
L 967.419403 267.391345 
L 969.501493 267.391345 
L 969.626418 310.239966 
L 969.959552 434.480083 
L 972 434.480083 
L 972 434.480083 
" clip-path="url(#p712d1f0771)" style="fill: none; stroke: #4bc0c0; stroke-width: 1.5; stroke-linecap: round"/>
   </g>
   <g id="line2d_16">
    <path d="M 135 154.80328 
L 972 154.80328 
" clip-path="url(#p712d1f0771)" style="fill: none; stroke-dasharray: 5.55,2.4; stroke-dashoffset: 0; stroke: #000000; stroke-width: 1.5"/>
   </g>
   <g id="patch_3">
    <path d="M 135 512.64 
L 135 69.12 
" style="fill: none; stroke: #262626; stroke-width: 1.25; stroke-linejoin: miter; stroke-linecap: square"/>
   </g>
   <g id="patch_4">
    <path d="M 972 512.64 
L 972 69.12 
" style="fill: none; stroke: #262626; stroke-width: 1.25; stroke-linejoin: miter; stroke-linecap: square"/>
   </g>
   <g id="patch_5">
    <path d="M 135 512.64 
L 972 512.64 
" style="fill: none; stroke: #262626; stroke-width: 1.25; stroke-linejoin: miter; stroke-linecap: square"/>
   </g>
   <g id="patch_6">
    <path d="M 135 69.12 
L 972 69.12 
" style="fill: none; stroke: #262626; stroke-width: 1.25; stroke-linejoin: miter; stroke-linecap: square"/>
   </g>
   <g id="text_22">
    <!-- 온도 변동성 분석 -->
    <g style="fill: #262626" transform="translate(484.171875 63.12) scale(0.18 -0.18)">
     <defs>
      <path id="MalgunGothic-c628" d="M 403 1863 
L 403 2278 
L 2963 2278 
L 2963 2975 
Q 2150 3016 1719 3333 
Q 1288 3650 1288 4141 
Q 1288 4684 1791 5001 
Q 2294 5319 3200 5319 
Q 4106 5319 4609 5001 
Q 5113 4684 5113 4141 
Q 5113 3650 4681 3333 
Q 4250 3016 3438 2975 
L 3438 2278 
L 5997 2278 
L 5997 1863 
L 403 1863 
z
M 3200 4922 
Q 2522 4922 2147 4714 
Q 1772 4506 1772 4141 
Q 1772 3781 2145 3573 
Q 2519 3366 3200 3366 
Q 3881 3366 4254 3573 
Q 4628 3781 4628 4141 
Q 4628 4506 4253 4714 
Q 3878 4922 3200 4922 
z
M 1319 -359 
L 1319 1331 
L 1784 1331 
L 1784 56 
L 5203 56 
L 5203 -359 
L 1319 -359 
z
" transform="scale(0.015625)"/>
      <path id="MalgunGothic-b3c4" d="M 403 372 
L 403 788 
L 2963 788 
L 2963 2181 
L 1350 2181 
L 1350 4897 
L 5050 4897 
L 5050 4481 
L 1819 4481 
L 1819 2600 
L 5147 2600 
L 5147 2181 
L 3438 2181 
L 3438 788 
L 5997 788 
L 5997 372 
L 403 372 
z
" transform="scale(0.015625)"/>
      <path id="MalgunGothic-bd84" d="M 1338 2994 
L 1338 5306 
L 1806 5306 
L 1806 4525 
L 4594 4525 
L 4594 5306 
L 5056 5306 
L 5056 2994 
L 1338 2994 
z
M 4594 4109 
L 1806 4109 
L 1806 3406 
L 4594 3406 
L 4594 4109 
z
M 3456 1863 
L 3456 494 
L 2988 494 
L 2988 1863 
L 403 1863 
L 403 2278 
L 5997 2278 
L 5997 1863 
L 3456 1863 
z
M 1288 -384 
L 1288 1344 
L 1753 1344 
L 1753 31 
L 5216 31 
L 5216 -384 
L 1288 -384 
z
" transform="scale(0.015625)"/>
      <path id="MalgunGothic-c11d" d="M 4884 1991 
L 4884 3775 
L 3444 3775 
L 3444 4200 
L 4884 4200 
L 4884 5466 
L 5350 5466 
L 5350 1991 
L 4884 1991 
z
M 3653 2297 
Q 3244 2519 2831 2919 
Q 2419 3319 2253 3669 
Q 2072 3266 1662 2827 
Q 1253 2388 819 2144 
L 488 2463 
Q 1144 2781 1576 3368 
Q 2009 3956 2009 4594 
L 2009 5269 
L 2463 5269 
L 2463 4594 
Q 2463 3997 2913 3440 
Q 3363 2884 3969 2638 
L 3653 2297 
z
M 4884 -563 
L 4884 1234 
L 1428 1234 
L 1428 1650 
L 5350 1650 
L 5350 -563 
L 4884 -563 
z
" transform="scale(0.015625)"/>
     </defs>
     <use xlink:href="#MalgunGothic-c628"/>
     <use xlink:href="#MalgunGothic-b3c4" x="100"/>
     <use xlink:href="#MalgunGothic-20" x="200"/>
     <use xlink:href="#MalgunGothic-bcc0" x="235.15625"/>
     <use xlink:href="#MalgunGothic-b3d9" x="335.15625"/>
     <use xlink:href="#MalgunGothic-c131" x="435.15625"/>
     <use xlink:href="#MalgunGothic-20" x="535.15625"/>
     <use xlink:href="#MalgunGothic-bd84" x="570.3125"/>
     <use xlink:href="#MalgunGothic-c11d" x="670.3125"/>
    </g>
   </g>
   <g id="legend_1">
    <g id="patch_7">
     <path d="M 705.759375 122.499375 
L 962.2 122.499375 
Q 965 122.499375 965 119.699375 
L 965 78.92 
Q 965 76.12 962.2 76.12 
L 705.759375 76.12 
Q 702.959375 76.12 702.959375 78.92 
L 702.959375 119.699375 
Q 702.959375 122.499375 705.759375 122.499375 
z
" style="fill: #ffffff; opacity: 0.8; stroke: #cccccc; stroke-linejoin: miter"/>
    </g>
    <g id="line2d_17">
     <path d="M 708.559375 87.449062 
L 722.559375 87.449062 
L 736.559375 87.449062 
" style="fill: none; stroke: #4bc0c0; stroke-width: 1.5; stroke-linecap: round"/>
    </g>
    <g id="text_23">
     <!-- 온도 변동성 -->
     <g style="fill: #262626" transform="translate(747.759375 92.349063) scale(0.14 -0.14)">
      <use xlink:href="#MalgunGothic-c628"/>
      <use xlink:href="#MalgunGothic-b3c4" x="100"/>
      <use xlink:href="#MalgunGothic-20" x="200"/>
      <use xlink:href="#MalgunGothic-bcc0" x="235.15625"/>
      <use xlink:href="#MalgunGothic-b3d9" x="335.15625"/>
      <use xlink:href="#MalgunGothic-c131" x="435.15625"/>
     </g>
    </g>
    <g id="line2d_18">
     <path d="M 708.559375 108.689688 
L 722.559375 108.689688 
L 736.559375 108.689688 
" style="fill: none; stroke-dasharray: 5.55,2.4; stroke-dashoffset: 0; stroke: #000000; stroke-width: 1.5"/>
    </g>
    <g id="text_24">
     <!-- 높은 변동성 기준선 (95 백분위수) -->
     <g style="fill: #262626" transform="translate(747.759375 113.589688) scale(0.14 -0.14)">
      <defs>
       <path id="MalgunGothic-b192" d="M 403 2284 
L 403 2700 
L 2963 2700 
L 2963 3506 
L 1375 3506 
L 1375 5350 
L 1844 5350 
L 1844 3922 
L 5178 3922 
L 5178 3506 
L 3438 3506 
L 3438 2700 
L 5997 2700 
L 5997 2284 
L 403 2284 
z
M 1131 -397 
L 1131 13 
L 1953 13 
L 1953 1269 
L 1209 1269 
L 1209 1678 
L 5191 1678 
L 5191 1269 
L 4447 1269 
L 4447 13 
L 5269 13 
L 5269 -397 
L 1131 -397 
z
M 3988 1269 
L 2413 1269 
L 2413 13 
L 3988 13 
L 3988 1269 
z
" transform="scale(0.015625)"/>
       <path id="MalgunGothic-c740" d="M 3200 2950 
Q 2309 2950 1817 3287 
Q 1325 3625 1325 4159 
Q 1325 4694 1815 5028 
Q 2306 5363 3200 5363 
Q 4094 5363 4587 5028 
Q 5081 4694 5081 4159 
Q 5081 3625 4584 3287 
Q 4088 2950 3200 2950 
z
M 3200 4966 
Q 2541 4966 2177 4747 
Q 1813 4528 1813 4159 
Q 1813 3791 2177 3572 
Q 2541 3353 3200 3353 
Q 3859 3353 4223 3572 
Q 4588 3791 4588 4159 
Q 4588 4528 4223 4747 
Q 3859 4966 3200 4966 
z
M 403 1919 
L 403 2344 
L 5997 2344 
L 5997 1919 
L 403 1919 
z
M 1338 -359 
L 1338 1331 
L 1813 1331 
L 1813 56 
L 5203 56 
L 5203 -359 
L 1338 -359 
z
" transform="scale(0.015625)"/>
       <path id="MalgunGothic-ae30" d="M 4884 -563 
L 4884 5466 
L 5350 5466 
L 5350 -563 
L 4884 -563 
z
M 3675 4909 
Q 3653 3656 2956 2611 
Q 2259 1566 959 844 
L 603 1222 
Q 1559 1619 2293 2478 
Q 3028 3338 3175 4494 
L 850 4494 
L 850 4909 
L 3675 4909 
z
" transform="scale(0.015625)"/>
       <path id="MalgunGothic-c120" d="M 4878 1063 
L 4878 3653 
L 3469 3653 
L 3469 4072 
L 4878 4072 
L 4878 5466 
L 5344 5466 
L 5344 1063 
L 4878 1063 
z
M 3675 2069 
Q 3228 2344 2829 2776 
Q 2431 3209 2266 3566 
Q 2091 3150 1662 2648 
Q 1234 2147 819 1913 
L 481 2234 
Q 1125 2559 1573 3198 
Q 2022 3838 2022 4494 
L 2022 5269 
L 2478 5269 
L 2478 4494 
Q 2478 3894 2943 3286 
Q 3409 2678 3988 2406 
L 3675 2069 
z
M 1631 -366 
L 1631 1550 
L 2100 1550 
L 2100 44 
L 5503 44 
L 5503 -366 
L 1631 -366 
z
" transform="scale(0.015625)"/>
       <path id="MalgunGothic-bc31" d="M 5056 2028 
L 5056 3438 
L 4359 3438 
L 4359 2028 
L 3897 2028 
L 3897 5344 
L 4359 5344 
L 4359 3859 
L 5056 3859 
L 5056 5466 
L 5522 5466 
L 5522 2028 
L 5056 2028 
z
M 763 2363 
L 763 5209 
L 1222 5209 
L 1222 4103 
L 2772 4103 
L 2772 5209 
L 3231 5209 
L 3231 2363 
L 763 2363 
z
M 2772 3688 
L 1222 3688 
L 1222 2778 
L 2772 2778 
L 2772 3688 
z
M 5056 -563 
L 5056 1281 
L 1581 1281 
L 1581 1697 
L 5522 1697 
L 5522 -563 
L 5056 -563 
z
" transform="scale(0.015625)"/>
       <path id="MalgunGothic-c704" d="M 4997 -563 
L 4997 5466 
L 5466 5466 
L 5466 -563 
L 4997 -563 
z
M 2491 2784 
Q 1800 2784 1376 3140 
Q 953 3497 953 4038 
Q 953 4581 1376 4940 
Q 1800 5300 2491 5300 
Q 3178 5300 3598 4942 
Q 4019 4584 4019 4038 
Q 4019 3494 3600 3139 
Q 3181 2784 2491 2784 
z
M 2491 4897 
Q 2006 4897 1714 4659 
Q 1422 4422 1422 4038 
Q 1422 3653 1714 3420 
Q 2006 3188 2491 3188 
Q 2978 3188 3265 3422 
Q 3553 3656 3553 4038 
Q 3553 4419 3264 4658 
Q 2975 4897 2491 4897 
z
M 2297 -391 
L 2297 1825 
Q 903 1800 500 1800 
L 453 2209 
Q 3088 2209 4603 2297 
L 4628 1894 
Q 4203 1866 2766 1831 
L 2766 -391 
L 2297 -391 
z
" transform="scale(0.015625)"/>
       <path id="MalgunGothic-c218" d="M 5491 2994 
Q 4750 3097 4078 3498 
Q 3406 3900 3200 4275 
Q 2975 3891 2309 3491 
Q 1644 3091 922 2956 
L 634 3347 
Q 1559 3450 2261 3942 
Q 2963 4434 2963 5013 
L 2963 5275 
L 3431 5275 
L 3431 5013 
Q 3431 4431 4118 3948 
Q 4806 3466 5766 3378 
L 5491 2994 
z
M 3431 1838 
L 3431 -563 
L 2963 -563 
L 2963 1838 
L 403 1838 
L 403 2253 
L 5997 2253 
L 5997 1838 
L 3431 1838 
z
" transform="scale(0.015625)"/>
      </defs>
      <use xlink:href="#MalgunGothic-b192"/>
      <use xlink:href="#MalgunGothic-c740" x="100"/>
      <use xlink:href="#MalgunGothic-20" x="200"/>
      <use xlink:href="#MalgunGothic-bcc0" x="235.15625"/>
      <use xlink:href="#MalgunGothic-b3d9" x="335.15625"/>
      <use xlink:href="#MalgunGothic-c131" x="435.15625"/>
      <use xlink:href="#MalgunGothic-20" x="535.15625"/>
      <use xlink:href="#MalgunGothic-ae30" x="570.3125"/>
      <use xlink:href="#MalgunGothic-c900" x="670.3125"/>
      <use xlink:href="#MalgunGothic-c120" x="770.3125"/>
      <use xlink:href="#MalgunGothic-20" x="870.3125"/>
      <use xlink:href="#MalgunGothic-28" x="905.46875"/>
      <use xlink:href="#MalgunGothic-39" x="935.9375"/>
      <use xlink:href="#MalgunGothic-35" x="991.015625"/>
      <use xlink:href="#MalgunGothic-20" x="1046.09375"/>
      <use xlink:href="#MalgunGothic-bc31" x="1081.25"/>
      <use xlink:href="#MalgunGothic-bd84" x="1181.25"/>
      <use xlink:href="#MalgunGothic-c704" x="1281.25"/>
      <use xlink:href="#MalgunGothic-c218" x="1381.25"/>
      <use xlink:href="#MalgunGothic-29" x="1481.25"/>
     </g>
    </g>
   </g>
  </g>
 </g>
 <defs>
  <clipPath id="p712d1f0771">
   <rect x="135" y="69.12" width="837" height="443.52"/>
  </clipPath>
 </defs>
</svg>
